<?xml version="1.0" encoding="utf-8" ?>
<svg baseProfile="full" height="608" version="1.1" width="418" xmlns="http://www.w3.org/2000/svg" xmlns:ev="http://www.w3.org/2001/xml-events" xmlns:xlink="http://www.w3.org/1999/xlink"><defs /><g fill="none" id="shapes"><line stroke="rgb(10%,10%,16%)" x1="155" x2="158" y1="12" y2="9" /><line stroke="rgb(10%,10%,16%)" x1="158" x2="207" y1="9" y2="9" /><line stroke="rgb(10%,10%,16%)" x1="207" x2="210" y1="9" y2="12" /><line stroke="rgb(10%,10%,16%)" x1="210" x2="222" y1="12" y2="12" /><line stroke="rgb(10%,10%,16%)" x1="222" x2="225" y1="12" y2="15" /><line stroke="rgb(10%,10%,16%)" x1="225" x2="234" y1="15" y2="15" /><line stroke="rgb(10%,10%,16%)" x1="234" x2="237" y1="15" y2="18" /><line stroke="rgb(10%,10%,16%)" x1="237" x2="244" y1="18" y2="18" /><line stroke="rgb(10%,10%,16%)" x1="244" x2="247" y1="18" y2="21" /><line stroke="rgb(10%,10%,16%)" x1="247" x2="250" y1="21" y2="21" /><line stroke="rgb(10%,10%,16%)" x1="250" x2="253" y1="21" y2="24" /><line stroke="rgb(10%,10%,16%)" x1="253" x2="256" y1="24" y2="24" /><line stroke="rgb(10%,10%,16%)" x1="256" x2="259" y1="24" y2="27" /><line stroke="rgb(10%,10%,16%)" x1="259" x2="262" y1="27" y2="27" /><line stroke="rgb(10%,10%,16%)" x1="262" x2="265" y1="27" y2="30" /><line stroke="rgb(10%,10%,16%)" x1="265" x2="268" y1="30" y2="30" /><line stroke="rgb(10%,10%,16%)" x1="268" x2="274" y1="30" y2="36" /><line stroke="rgb(10%,10%,16%)" x1="274" x2="277" y1="36" y2="36" /><line stroke="rgb(10%,10%,16%)" x1="277" x2="283" y1="36" y2="42" /><line stroke="rgb(10%,10%,16%)" x1="283" x2="286" y1="42" y2="42" /><line stroke="rgb(10%,10%,16%)" x1="286" x2="305" y1="42" y2="60" /><line stroke="rgb(10%,10%,16%)" x1="305" x2="305" y1="60" y2="63" /><line stroke="rgb(10%,10%,16%)" x1="305" x2="314" y1="63" y2="72" /><line stroke="rgb(10%,10%,16%)" x1="314" x2="314" y1="72" y2="76" /><line stroke="rgb(10%,10%,16%)" x1="314" x2="317" y1="76" y2="79" /><line stroke="rgb(10%,10%,16%)" x1="317" x2="317" y1="79" y2="82" /><line stroke="rgb(10%,10%,16%)" x1="317" x2="320" y1="82" y2="85" /><line stroke="rgb(10%,10%,16%)" x1="320" x2="320" y1="85" y2="88" /><line stroke="rgb(10%,10%,16%)" x1="320" x2="323" y1="88" y2="91" /><line stroke="rgb(10%,10%,16%)" x1="323" x2="323" y1="91" y2="94" /><line stroke="rgb(10%,10%,16%)" x1="323" x2="326" y1="94" y2="97" /><line stroke="rgb(10%,10%,16%)" x1="326" x2="326" y1="97" y2="103" /><line stroke="rgb(10%,10%,16%)" x1="326" x2="329" y1="103" y2="106" /><line stroke="rgb(10%,10%,16%)" x1="329" x2="329" y1="106" y2="112" /><line stroke="rgb(10%,10%,16%)" x1="329" x2="332" y1="112" y2="115" /><line stroke="rgb(10%,10%,16%)" x1="332" x2="332" y1="115" y2="121" /><line stroke="rgb(10%,10%,16%)" x1="332" x2="335" y1="121" y2="124" /><line stroke="rgb(10%,10%,16%)" x1="335" x2="335" y1="124" y2="142" /><line stroke="rgb(10%,10%,16%)" x1="335" x2="338" y1="142" y2="145" /><line stroke="rgb(10%,10%,16%)" x1="338" x2="338" y1="145" y2="176" /><line stroke="rgb(10%,10%,16%)" x1="338" x2="335" y1="176" y2="179" /><line stroke="rgb(10%,10%,16%)" x1="335" x2="335" y1="179" y2="191" /><line stroke="rgb(10%,10%,16%)" x1="335" x2="332" y1="191" y2="194" /><line stroke="rgb(10%,10%,16%)" x1="332" x2="332" y1="194" y2="200" /><line stroke="rgb(10%,10%,16%)" x1="332" x2="329" y1="200" y2="203" /><line stroke="rgb(10%,10%,16%)" x1="329" x2="329" y1="203" y2="212" /><line stroke="rgb(10%,10%,16%)" x1="329" x2="326" y1="212" y2="215" /><line stroke="rgb(10%,10%,16%)" x1="326" x2="326" y1="215" y2="218" /><line stroke="rgb(10%,10%,16%)" x1="326" x2="323" y1="218" y2="221" /><line stroke="rgb(10%,10%,16%)" x1="323" x2="323" y1="221" y2="224" /><line stroke="rgb(10%,10%,16%)" x1="323" x2="320" y1="224" y2="228" /><line stroke="rgb(10%,10%,16%)" x1="320" x2="320" y1="228" y2="231" /><line stroke="rgb(10%,10%,16%)" x1="320" x2="317" y1="231" y2="234" /><line stroke="rgb(10%,10%,16%)" x1="317" x2="317" y1="234" y2="237" /><line stroke="rgb(10%,10%,16%)" x1="317" x2="314" y1="237" y2="240" /><line stroke="rgb(10%,10%,16%)" x1="314" x2="314" y1="240" y2="243" /><line stroke="rgb(10%,10%,16%)" x1="314" x2="305" y1="243" y2="252" /><line stroke="rgb(10%,10%,16%)" x1="305" x2="305" y1="252" y2="255" /><line stroke="rgb(10%,10%,16%)" x1="305" x2="292" y1="255" y2="267" /><line stroke="rgb(10%,10%,16%)" x1="292" x2="292" y1="267" y2="270" /><line stroke="rgb(10%,10%,16%)" x1="292" x2="295" y1="270" y2="267" /><line stroke="rgb(10%,10%,16%)" x1="295" x2="299" y1="267" y2="267" /><line stroke="rgb(10%,10%,16%)" x1="299" x2="302" y1="267" y2="264" /><line stroke="rgb(10%,10%,16%)" x1="302" x2="323" y1="264" y2="264" /><line stroke="rgb(10%,10%,16%)" x1="323" x2="329" y1="264" y2="270" /><line stroke="rgb(10%,10%,16%)" x1="329" x2="332" y1="270" y2="270" /><line stroke="rgb(10%,10%,16%)" x1="332" x2="338" y1="270" y2="276" /><line stroke="rgb(10%,10%,16%)" x1="338" x2="338" y1="276" y2="300" /><line stroke="rgb(10%,10%,16%)" x1="338" x2="335" y1="300" y2="304" /><line stroke="rgb(10%,10%,16%)" x1="335" x2="335" y1="304" y2="307" /><line stroke="rgb(10%,10%,16%)" x1="335" x2="326" y1="307" y2="316" /><line stroke="rgb(10%,10%,16%)" x1="326" x2="320" y1="316" y2="316" /><line stroke="rgb(10%,10%,16%)" x1="320" x2="317" y1="316" y2="319" /><line stroke="rgb(10%,10%,16%)" x1="317" x2="311" y1="319" y2="319" /><line stroke="rgb(10%,10%,16%)" x1="311" x2="308" y1="319" y2="316" /><line stroke="rgb(10%,10%,16%)" x1="308" x2="302" y1="316" y2="316" /><line stroke="rgb(10%,10%,16%)" x1="302" x2="299" y1="316" y2="313" /><line stroke="rgb(10%,10%,16%)" x1="299" x2="295" y1="313" y2="313" /><line stroke="rgb(10%,10%,16%)" x1="295" x2="295" y1="313" y2="325" /><line stroke="rgb(10%,10%,16%)" x1="295" x2="299" y1="325" y2="328" /><line stroke="rgb(10%,10%,16%)" x1="299" x2="299" y1="328" y2="331" /><line stroke="rgb(10%,10%,16%)" x1="299" x2="302" y1="331" y2="334" /><line stroke="rgb(10%,10%,16%)" x1="302" x2="302" y1="334" y2="343" /><line stroke="rgb(10%,10%,16%)" x1="302" x2="299" y1="343" y2="346" /><line stroke="rgb(10%,10%,16%)" x1="299" x2="277" y1="346" y2="346" /><line stroke="rgb(10%,10%,16%)" x1="277" x2="271" y1="346" y2="352" /><line stroke="rgb(10%,10%,16%)" x1="271" x2="268" y1="352" y2="352" /><line stroke="rgb(10%,10%,16%)" x1="268" x2="262" y1="352" y2="358" /><line stroke="rgb(10%,10%,16%)" x1="262" x2="262" y1="358" y2="361" /><line stroke="rgb(10%,10%,16%)" x1="262" x2="253" y1="361" y2="370" /><line stroke="rgb(10%,10%,16%)" x1="253" x2="253" y1="370" y2="373" /><line stroke="rgb(10%,10%,16%)" x1="253" x2="247" y1="373" y2="380" /><line stroke="rgb(10%,10%,16%)" x1="247" x2="247" y1="380" y2="383" /><line stroke="rgb(10%,10%,16%)" x1="247" x2="244" y1="383" y2="386" /><line stroke="rgb(10%,10%,16%)" x1="244" x2="244" y1="386" y2="389" /><line stroke="rgb(10%,10%,16%)" x1="244" x2="241" y1="389" y2="392" /><line stroke="rgb(10%,10%,16%)" x1="241" x2="241" y1="392" y2="395" /><line stroke="rgb(10%,10%,16%)" x1="241" x2="237" y1="395" y2="398" /><line stroke="rgb(10%,10%,16%)" x1="237" x2="237" y1="398" y2="422" /><line stroke="rgb(10%,10%,16%)" x1="237" x2="234" y1="422" y2="425" /><line stroke="rgb(10%,10%,16%)" x1="234" x2="234" y1="425" y2="428" /><line stroke="rgb(10%,10%,16%)" x1="234" x2="237" y1="428" y2="431" /><line stroke="rgb(10%,10%,16%)" x1="237" x2="237" y1="431" y2="443" /><line stroke="rgb(10%,10%,16%)" x1="237" x2="241" y1="443" y2="446" /><line stroke="rgb(10%,10%,16%)" x1="241" x2="241" y1="446" y2="449" /><line stroke="rgb(10%,10%,16%)" x1="241" x2="250" y1="449" y2="459" /><line stroke="rgb(10%,10%,16%)" x1="250" x2="259" y1="459" y2="449" /><line stroke="rgb(10%,10%,16%)" x1="259" x2="259" y1="449" y2="446" /><line stroke="rgb(10%,10%,16%)" x1="259" x2="262" y1="446" y2="443" /><line stroke="rgb(10%,10%,16%)" x1="262" x2="262" y1="443" y2="437" /><line stroke="rgb(10%,10%,16%)" x1="262" x2="265" y1="437" y2="434" /><line stroke="rgb(10%,10%,16%)" x1="265" x2="265" y1="434" y2="431" /><line stroke="rgb(10%,10%,16%)" x1="265" x2="268" y1="431" y2="428" /><line stroke="rgb(10%,10%,16%)" x1="268" x2="268" y1="428" y2="425" /><line stroke="rgb(10%,10%,16%)" x1="268" x2="271" y1="425" y2="422" /><line stroke="rgb(10%,10%,16%)" x1="271" x2="271" y1="422" y2="419" /><line stroke="rgb(10%,10%,16%)" x1="271" x2="274" y1="419" y2="416" /><line stroke="rgb(10%,10%,16%)" x1="274" x2="274" y1="416" y2="410" /><line stroke="rgb(10%,10%,16%)" x1="274" x2="277" y1="410" y2="407" /><line stroke="rgb(10%,10%,16%)" x1="277" x2="277" y1="407" y2="401" /><line stroke="rgb(10%,10%,16%)" x1="277" x2="280" y1="401" y2="398" /><line stroke="rgb(10%,10%,16%)" x1="280" x2="280" y1="398" y2="395" /><line stroke="rgb(10%,10%,16%)" x1="280" x2="283" y1="395" y2="392" /><line stroke="rgb(10%,10%,16%)" x1="283" x2="283" y1="392" y2="389" /><line stroke="rgb(10%,10%,16%)" x1="283" x2="286" y1="389" y2="386" /><line stroke="rgb(10%,10%,16%)" x1="286" x2="286" y1="386" y2="383" /><line stroke="rgb(10%,10%,16%)" x1="286" x2="295" y1="383" y2="373" /><line stroke="rgb(10%,10%,16%)" x1="295" x2="295" y1="373" y2="370" /><line stroke="rgb(10%,10%,16%)" x1="295" x2="302" y1="370" y2="364" /><line stroke="rgb(10%,10%,16%)" x1="302" x2="302" y1="364" y2="355" /><line stroke="rgb(10%,10%,16%)" x1="302" x2="305" y1="355" y2="352" /><line stroke="rgb(10%,10%,16%)" x1="305" x2="311" y1="352" y2="352" /><line stroke="rgb(10%,10%,16%)" x1="311" x2="320" y1="352" y2="361" /><line stroke="rgb(10%,10%,16%)" x1="320" x2="320" y1="361" y2="364" /><line stroke="rgb(10%,10%,16%)" x1="320" x2="323" y1="364" y2="367" /><line stroke="rgb(10%,10%,16%)" x1="323" x2="323" y1="367" y2="370" /><line stroke="rgb(10%,10%,16%)" x1="323" x2="326" y1="370" y2="373" /><line stroke="rgb(10%,10%,16%)" x1="326" x2="326" y1="373" y2="413" /><line stroke="rgb(10%,10%,16%)" x1="326" x2="323" y1="413" y2="416" /><line stroke="rgb(10%,10%,16%)" x1="323" x2="323" y1="416" y2="425" /><line stroke="rgb(10%,10%,16%)" x1="323" x2="320" y1="425" y2="428" /><line stroke="rgb(10%,10%,16%)" x1="320" x2="320" y1="428" y2="434" /><line stroke="rgb(10%,10%,16%)" x1="320" x2="317" y1="434" y2="437" /><line stroke="rgb(10%,10%,16%)" x1="317" x2="317" y1="437" y2="440" /><line stroke="rgb(10%,10%,16%)" x1="317" x2="311" y1="440" y2="446" /><line stroke="rgb(10%,10%,16%)" x1="311" x2="311" y1="446" y2="449" /><line stroke="rgb(10%,10%,16%)" x1="311" x2="302" y1="449" y2="459" /><line stroke="rgb(10%,10%,16%)" x1="302" x2="305" y1="459" y2="462" /><line stroke="rgb(10%,10%,16%)" x1="305" x2="311" y1="462" y2="462" /><line stroke="rgb(10%,10%,16%)" x1="311" x2="314" y1="462" y2="465" /><line stroke="rgb(10%,10%,16%)" x1="314" x2="323" y1="465" y2="465" /><line stroke="rgb(10%,10%,16%)" x1="323" x2="326" y1="465" y2="468" /><line stroke="rgb(10%,10%,16%)" x1="326" x2="338" y1="468" y2="468" /><line stroke="rgb(10%,10%,16%)" x1="338" x2="341" y1="468" y2="471" /><line stroke="rgb(10%,10%,16%)" x1="341" x2="347" y1="471" y2="471" /><line stroke="rgb(10%,10%,16%)" x1="347" x2="350" y1="471" y2="474" /><line stroke="rgb(10%,10%,16%)" x1="350" x2="353" y1="474" y2="474" /><line stroke="rgb(10%,10%,16%)" x1="353" x2="356" y1="474" y2="477" /><line stroke="rgb(10%,10%,16%)" x1="356" x2="360" y1="477" y2="477" /><line stroke="rgb(10%,10%,16%)" x1="360" x2="363" y1="477" y2="480" /><line stroke="rgb(10%,10%,16%)" x1="363" x2="366" y1="480" y2="480" /><line stroke="rgb(10%,10%,16%)" x1="366" x2="369" y1="480" y2="483" /><line stroke="rgb(10%,10%,16%)" x1="369" x2="372" y1="483" y2="483" /><line stroke="rgb(10%,10%,16%)" x1="372" x2="375" y1="483" y2="486" /><line stroke="rgb(10%,10%,16%)" x1="375" x2="378" y1="486" y2="486" /><line stroke="rgb(10%,10%,16%)" x1="378" x2="396" y1="486" y2="504" /><line stroke="rgb(10%,10%,16%)" x1="396" x2="396" y1="504" y2="507" /><line stroke="rgb(10%,10%,16%)" x1="396" x2="399" y1="507" y2="510" /><line stroke="rgb(10%,10%,16%)" x1="399" x2="399" y1="510" y2="538" /><line stroke="rgb(10%,10%,16%)" x1="399" x2="378" y1="538" y2="559" /><line stroke="rgb(10%,10%,16%)" x1="378" x2="375" y1="559" y2="559" /><line stroke="rgb(10%,10%,16%)" x1="375" x2="369" y1="559" y2="565" /><line stroke="rgb(10%,10%,16%)" x1="369" x2="366" y1="565" y2="565" /><line stroke="rgb(10%,10%,16%)" x1="366" x2="363" y1="565" y2="568" /><line stroke="rgb(10%,10%,16%)" x1="363" x2="360" y1="568" y2="568" /><line stroke="rgb(10%,10%,16%)" x1="360" x2="356" y1="568" y2="571" /><line stroke="rgb(10%,10%,16%)" x1="356" x2="350" y1="571" y2="571" /><line stroke="rgb(10%,10%,16%)" x1="350" x2="347" y1="571" y2="574" /><line stroke="rgb(10%,10%,16%)" x1="347" x2="338" y1="574" y2="574" /><line stroke="rgb(10%,10%,16%)" x1="338" x2="335" y1="574" y2="577" /><line stroke="rgb(10%,10%,16%)" x1="335" x2="329" y1="577" y2="577" /><line stroke="rgb(10%,10%,16%)" x1="329" x2="326" y1="577" y2="580" /><line stroke="rgb(10%,10%,16%)" x1="326" x2="314" y1="580" y2="580" /><line stroke="rgb(10%,10%,16%)" x1="314" x2="311" y1="580" y2="583" /><line stroke="rgb(10%,10%,16%)" x1="311" x2="292" y1="583" y2="583" /><line stroke="rgb(10%,10%,16%)" x1="292" x2="289" y1="583" y2="586" /><line stroke="rgb(10%,10%,16%)" x1="289" x2="256" y1="586" y2="586" /><line stroke="rgb(10%,10%,16%)" x1="256" x2="253" y1="586" y2="589" /><line stroke="rgb(10%,10%,16%)" x1="253" x2="207" y1="589" y2="589" /><line stroke="rgb(10%,10%,16%)" x1="207" x2="204" y1="589" y2="586" /><line stroke="rgb(10%,10%,16%)" x1="204" x2="180" y1="586" y2="586" /><line stroke="rgb(10%,10%,16%)" x1="180" x2="176" y1="586" y2="583" /><line stroke="rgb(10%,10%,16%)" x1="176" x2="155" y1="583" y2="583" /><line stroke="rgb(10%,10%,16%)" x1="155" x2="152" y1="583" y2="580" /><line stroke="rgb(10%,10%,16%)" x1="152" x2="140" y1="580" y2="580" /><line stroke="rgb(10%,10%,16%)" x1="140" x2="137" y1="580" y2="577" /><line stroke="rgb(10%,10%,16%)" x1="137" x2="128" y1="577" y2="577" /><line stroke="rgb(10%,10%,16%)" x1="128" x2="125" y1="577" y2="574" /><line stroke="rgb(10%,10%,16%)" x1="125" x2="115" y1="574" y2="574" /><line stroke="rgb(10%,10%,16%)" x1="115" x2="112" y1="574" y2="571" /><line stroke="rgb(10%,10%,16%)" x1="112" x2="106" y1="571" y2="571" /><line stroke="rgb(10%,10%,16%)" x1="106" x2="103" y1="571" y2="568" /><line stroke="rgb(10%,10%,16%)" x1="103" x2="97" y1="568" y2="568" /><line stroke="rgb(10%,10%,16%)" x1="97" x2="94" y1="568" y2="565" /><line stroke="rgb(10%,10%,16%)" x1="94" x2="91" y1="565" y2="565" /><line stroke="rgb(10%,10%,16%)" x1="91" x2="88" y1="565" y2="562" /><line stroke="rgb(10%,10%,16%)" x1="88" x2="82" y1="562" y2="562" /><line stroke="rgb(10%,10%,16%)" x1="82" x2="76" y1="562" y2="556" /><line stroke="rgb(10%,10%,16%)" x1="76" x2="73" y1="556" y2="556" /><line stroke="rgb(10%,10%,16%)" x1="73" x2="54" y1="556" y2="538" /><line stroke="rgb(10%,10%,16%)" x1="54" x2="54" y1="538" y2="535" /><line stroke="rgb(10%,10%,16%)" x1="54" x2="51" y1="535" y2="532" /><line stroke="rgb(10%,10%,16%)" x1="51" x2="51" y1="532" y2="510" /><line stroke="rgb(10%,10%,16%)" x1="51" x2="54" y1="510" y2="507" /><line stroke="rgb(10%,10%,16%)" x1="54" x2="54" y1="507" y2="501" /><line stroke="rgb(10%,10%,16%)" x1="54" x2="70" y1="501" y2="486" /><line stroke="rgb(10%,10%,16%)" x1="70" x2="73" y1="486" y2="486" /><line stroke="rgb(10%,10%,16%)" x1="73" x2="79" y1="486" y2="480" /><line stroke="rgb(10%,10%,16%)" x1="79" x2="82" y1="480" y2="480" /><line stroke="rgb(10%,10%,16%)" x1="82" x2="85" y1="480" y2="477" /><line stroke="rgb(10%,10%,16%)" x1="85" x2="88" y1="477" y2="477" /><line stroke="rgb(10%,10%,16%)" x1="88" x2="91" y1="477" y2="474" /><line stroke="rgb(10%,10%,16%)" x1="91" x2="97" y1="474" y2="474" /><line stroke="rgb(10%,10%,16%)" x1="97" x2="100" y1="474" y2="471" /><line stroke="rgb(10%,10%,16%)" x1="100" x2="106" y1="471" y2="471" /><line stroke="rgb(10%,10%,16%)" x1="106" x2="109" y1="471" y2="468" /><line stroke="rgb(10%,10%,16%)" x1="109" x2="118" y1="468" y2="468" /><line stroke="rgb(10%,10%,16%)" x1="118" x2="122" y1="468" y2="465" /><line stroke="rgb(10%,10%,16%)" x1="122" x2="134" y1="465" y2="465" /><line stroke="rgb(10%,10%,16%)" x1="134" x2="137" y1="465" y2="468" /><line stroke="rgb(10%,10%,16%)" x1="137" x2="137" y1="468" y2="486" /><line stroke="rgb(10%,10%,16%)" x1="137" x2="143" y1="486" y2="492" /><line stroke="rgb(10%,10%,16%)" x1="143" x2="146" y1="492" y2="492" /><line stroke="rgb(10%,10%,16%)" x1="146" x2="149" y1="492" y2="495" /><line stroke="rgb(10%,10%,16%)" x1="149" x2="152" y1="495" y2="495" /><line stroke="rgb(10%,10%,16%)" x1="152" x2="155" y1="495" y2="498" /><line stroke="rgb(10%,10%,16%)" x1="155" x2="180" y1="498" y2="498" /><line stroke="rgb(10%,10%,16%)" x1="180" x2="183" y1="498" y2="495" /><line stroke="rgb(10%,10%,16%)" x1="183" x2="186" y1="495" y2="495" /><line stroke="rgb(10%,10%,16%)" x1="186" x2="192" y1="495" y2="489" /><line stroke="rgb(10%,10%,16%)" x1="192" x2="192" y1="489" y2="480" /><line stroke="rgb(10%,10%,16%)" x1="192" x2="189" y1="480" y2="477" /><line stroke="rgb(10%,10%,16%)" x1="189" x2="189" y1="477" y2="474" /><line stroke="rgb(10%,10%,16%)" x1="189" x2="180" y1="474" y2="474" /><line stroke="rgb(10%,10%,16%)" x1="180" x2="176" y1="474" y2="471" /><line stroke="rgb(10%,10%,16%)" x1="176" x2="161" y1="471" y2="471" /><line stroke="rgb(10%,10%,16%)" x1="161" x2="158" y1="471" y2="468" /><line stroke="rgb(10%,10%,16%)" x1="158" x2="149" y1="468" y2="468" /><line stroke="rgb(10%,10%,16%)" x1="149" x2="146" y1="468" y2="465" /><line stroke="rgb(10%,10%,16%)" x1="146" x2="143" y1="465" y2="465" /><line stroke="rgb(10%,10%,16%)" x1="143" x2="137" y1="465" y2="459" /><line stroke="rgb(10%,10%,16%)" x1="137" x2="137" y1="459" y2="440" /><line stroke="rgb(10%,10%,16%)" x1="137" x2="134" y1="440" y2="437" /><line stroke="rgb(10%,10%,16%)" x1="134" x2="131" y1="437" y2="437" /><line stroke="rgb(10%,10%,16%)" x1="131" x2="122" y1="437" y2="428" /><line stroke="rgb(10%,10%,16%)" x1="122" x2="112" y1="428" y2="428" /><line stroke="rgb(10%,10%,16%)" x1="112" x2="109" y1="428" y2="431" /><line stroke="rgb(10%,10%,16%)" x1="109" x2="103" y1="431" y2="431" /><line stroke="rgb(10%,10%,16%)" x1="103" x2="100" y1="431" y2="434" /><line stroke="rgb(10%,10%,16%)" x1="100" x2="100" y1="434" y2="437" /><line stroke="rgb(10%,10%,16%)" x1="100" x2="94" y1="437" y2="443" /><line stroke="rgb(10%,10%,16%)" x1="94" x2="94" y1="443" y2="446" /><line stroke="rgb(10%,10%,16%)" x1="94" x2="91" y1="446" y2="449" /><line stroke="rgb(10%,10%,16%)" x1="91" x2="88" y1="449" y2="449" /><line stroke="rgb(10%,10%,16%)" x1="88" x2="85" y1="449" y2="452" /><line stroke="rgb(10%,10%,16%)" x1="85" x2="82" y1="452" y2="452" /><line stroke="rgb(10%,10%,16%)" x1="82" x2="79" y1="452" y2="456" /><line stroke="rgb(10%,10%,16%)" x1="79" x2="73" y1="456" y2="456" /><line stroke="rgb(10%,10%,16%)" x1="73" x2="70" y1="456" y2="452" /><line stroke="rgb(10%,10%,16%)" x1="70" x2="67" y1="452" y2="452" /><line stroke="rgb(10%,10%,16%)" x1="67" x2="64" y1="452" y2="449" /><line stroke="rgb(10%,10%,16%)" x1="64" x2="61" y1="449" y2="449" /><line stroke="rgb(10%,10%,16%)" x1="61" x2="54" y1="449" y2="443" /><line stroke="rgb(10%,10%,16%)" x1="54" x2="54" y1="443" y2="440" /><line stroke="rgb(10%,10%,16%)" x1="54" x2="51" y1="440" y2="437" /><line stroke="rgb(10%,10%,16%)" x1="51" x2="51" y1="437" y2="419" /><line stroke="rgb(10%,10%,16%)" x1="51" x2="64" y1="419" y2="407" /><line stroke="rgb(10%,10%,16%)" x1="64" x2="70" y1="407" y2="407" /><line stroke="rgb(10%,10%,16%)" x1="70" x2="73" y1="407" y2="404" /><line stroke="rgb(10%,10%,16%)" x1="73" x2="76" y1="404" y2="404" /><line stroke="rgb(10%,10%,16%)" x1="76" x2="76" y1="404" y2="392" /><line stroke="rgb(10%,10%,16%)" x1="76" x2="73" y1="392" y2="389" /><line stroke="rgb(10%,10%,16%)" x1="73" x2="73" y1="389" y2="373" /><line stroke="rgb(10%,10%,16%)" x1="73" x2="76" y1="373" y2="370" /><line stroke="rgb(10%,10%,16%)" x1="76" x2="76" y1="370" y2="367" /><line stroke="rgb(10%,10%,16%)" x1="76" x2="79" y1="367" y2="364" /><line stroke="rgb(10%,10%,16%)" x1="79" x2="79" y1="364" y2="361" /><line stroke="rgb(10%,10%,16%)" x1="79" x2="88" y1="361" y2="352" /><line stroke="rgb(10%,10%,16%)" x1="88" x2="91" y1="352" y2="352" /><line stroke="rgb(10%,10%,16%)" x1="91" x2="100" y1="352" y2="343" /><line stroke="rgb(10%,10%,16%)" x1="100" x2="103" y1="343" y2="343" /><line stroke="rgb(10%,10%,16%)" x1="103" x2="106" y1="343" y2="340" /><line stroke="rgb(10%,10%,16%)" x1="106" x2="106" y1="340" y2="337" /><line stroke="rgb(10%,10%,16%)" x1="106" x2="109" y1="337" y2="334" /><line stroke="rgb(10%,10%,16%)" x1="109" x2="109" y1="334" y2="325" /><line stroke="rgb(10%,10%,16%)" x1="109" x2="106" y1="325" y2="322" /><line stroke="rgb(10%,10%,16%)" x1="106" x2="106" y1="322" y2="316" /><line stroke="rgb(10%,10%,16%)" x1="106" x2="103" y1="316" y2="313" /><line stroke="rgb(10%,10%,16%)" x1="103" x2="103" y1="313" y2="310" /><line stroke="rgb(10%,10%,16%)" x1="103" x2="100" y1="310" y2="307" /><line stroke="rgb(10%,10%,16%)" x1="100" x2="100" y1="307" y2="300" /><line stroke="rgb(10%,10%,16%)" x1="100" x2="97" y1="300" y2="297" /><line stroke="rgb(10%,10%,16%)" x1="97" x2="94" y1="297" y2="297" /><line stroke="rgb(10%,10%,16%)" x1="94" x2="91" y1="297" y2="294" /><line stroke="rgb(10%,10%,16%)" x1="91" x2="88" y1="294" y2="294" /><line stroke="rgb(10%,10%,16%)" x1="88" x2="79" y1="294" y2="285" /><line stroke="rgb(10%,10%,16%)" x1="79" x2="76" y1="285" y2="285" /><line stroke="rgb(10%,10%,16%)" x1="76" x2="54" y1="285" y2="264" /><line stroke="rgb(10%,10%,16%)" x1="54" x2="54" y1="264" y2="261" /><line stroke="rgb(10%,10%,16%)" x1="54" x2="42" y1="261" y2="249" /><line stroke="rgb(10%,10%,16%)" x1="42" x2="42" y1="249" y2="246" /><line stroke="rgb(10%,10%,16%)" x1="42" x2="39" y1="246" y2="243" /><line stroke="rgb(10%,10%,16%)" x1="39" x2="39" y1="243" y2="240" /><line stroke="rgb(10%,10%,16%)" x1="39" x2="33" y1="240" y2="234" /><line stroke="rgb(10%,10%,16%)" x1="33" x2="33" y1="234" y2="231" /><line stroke="rgb(10%,10%,16%)" x1="33" x2="30" y1="231" y2="228" /><line stroke="rgb(10%,10%,16%)" x1="30" x2="30" y1="228" y2="221" /><line stroke="rgb(10%,10%,16%)" x1="30" x2="27" y1="221" y2="218" /><line stroke="rgb(10%,10%,16%)" x1="27" x2="27" y1="218" y2="215" /><line stroke="rgb(10%,10%,16%)" x1="27" x2="24" y1="215" y2="212" /><line stroke="rgb(10%,10%,16%)" x1="24" x2="24" y1="212" y2="209" /><line stroke="rgb(10%,10%,16%)" x1="24" x2="21" y1="209" y2="206" /><line stroke="rgb(10%,10%,16%)" x1="21" x2="21" y1="206" y2="200" /><line stroke="rgb(10%,10%,16%)" x1="21" x2="18" y1="200" y2="197" /><line stroke="rgb(10%,10%,16%)" x1="18" x2="18" y1="197" y2="188" /><line stroke="rgb(10%,10%,16%)" x1="18" x2="15" y1="188" y2="185" /><line stroke="rgb(10%,10%,16%)" x1="15" x2="15" y1="185" y2="130" /><line stroke="rgb(10%,10%,16%)" x1="15" x2="18" y1="130" y2="127" /><line stroke="rgb(10%,10%,16%)" x1="18" x2="18" y1="127" y2="121" /><line stroke="rgb(10%,10%,16%)" x1="18" x2="21" y1="121" y2="118" /><line stroke="rgb(10%,10%,16%)" x1="21" x2="21" y1="118" y2="112" /><line stroke="rgb(10%,10%,16%)" x1="21" x2="24" y1="112" y2="109" /><line stroke="rgb(10%,10%,16%)" x1="24" x2="24" y1="109" y2="106" /><line stroke="rgb(10%,10%,16%)" x1="24" x2="27" y1="106" y2="103" /><line stroke="rgb(10%,10%,16%)" x1="27" x2="27" y1="103" y2="97" /><line stroke="rgb(10%,10%,16%)" x1="27" x2="33" y1="97" y2="91" /><line stroke="rgb(10%,10%,16%)" x1="33" x2="33" y1="91" y2="88" /><line stroke="rgb(10%,10%,16%)" x1="33" x2="39" y1="88" y2="82" /><line stroke="rgb(10%,10%,16%)" x1="39" x2="39" y1="82" y2="79" /><line stroke="rgb(10%,10%,16%)" x1="39" x2="54" y1="79" y2="63" /><line stroke="rgb(10%,10%,16%)" x1="54" x2="54" y1="63" y2="60" /><line stroke="rgb(10%,10%,16%)" x1="54" x2="64" y1="60" y2="51" /><line stroke="rgb(10%,10%,16%)" x1="64" x2="67" y1="51" y2="51" /><line stroke="rgb(10%,10%,16%)" x1="67" x2="79" y1="51" y2="39" /><line stroke="rgb(10%,10%,16%)" x1="79" x2="82" y1="39" y2="39" /><line stroke="rgb(10%,10%,16%)" x1="82" x2="88" y1="39" y2="33" /><line stroke="rgb(10%,10%,16%)" x1="88" x2="91" y1="33" y2="33" /><line stroke="rgb(10%,10%,16%)" x1="91" x2="94" y1="33" y2="30" /><line stroke="rgb(10%,10%,16%)" x1="94" x2="97" y1="30" y2="30" /><line stroke="rgb(10%,10%,16%)" x1="97" x2="100" y1="30" y2="27" /><line stroke="rgb(10%,10%,16%)" x1="100" x2="103" y1="27" y2="27" /><line stroke="rgb(10%,10%,16%)" x1="103" x2="106" y1="27" y2="24" /><line stroke="rgb(10%,10%,16%)" x1="106" x2="109" y1="24" y2="24" /><line stroke="rgb(10%,10%,16%)" x1="109" x2="112" y1="24" y2="21" /><line stroke="rgb(10%,10%,16%)" x1="112" x2="118" y1="21" y2="21" /><line stroke="rgb(10%,10%,16%)" x1="118" x2="122" y1="21" y2="18" /><line stroke="rgb(10%,10%,16%)" x1="122" x2="128" y1="18" y2="18" /><line stroke="rgb(10%,10%,16%)" x1="128" x2="131" y1="18" y2="15" /><line stroke="rgb(10%,10%,16%)" x1="131" x2="140" y1="15" y2="15" /><line stroke="rgb(10%,10%,16%)" x1="140" x2="143" y1="15" y2="12" /><line stroke="rgb(10%,10%,16%)" x1="143" x2="146" y1="12" y2="51" /><line stroke="rgb(10%,10%,16%)" x1="146" x2="137" y1="51" y2="60" /><line stroke="rgb(10%,10%,16%)" x1="137" x2="137" y1="60" y2="85" /><line stroke="rgb(10%,10%,16%)" x1="137" x2="134" y1="85" y2="88" /><line stroke="rgb(10%,10%,16%)" x1="134" x2="122" y1="88" y2="88" /><line stroke="rgb(10%,10%,16%)" x1="122" x2="118" y1="88" y2="91" /><line stroke="rgb(10%,10%,16%)" x1="118" x2="115" y1="91" y2="91" /><line stroke="rgb(10%,10%,16%)" x1="115" x2="112" y1="91" y2="94" /><line stroke="rgb(10%,10%,16%)" x1="112" x2="109" y1="94" y2="94" /><line stroke="rgb(10%,10%,16%)" x1="109" x2="106" y1="94" y2="97" /><line stroke="rgb(10%,10%,16%)" x1="106" x2="103" y1="97" y2="97" /><line stroke="rgb(10%,10%,16%)" x1="103" x2="94" y1="97" y2="106" /><line stroke="rgb(10%,10%,16%)" x1="94" x2="100" y1="106" y2="106" /><line stroke="rgb(10%,10%,16%)" x1="100" x2="103" y1="106" y2="109" /><line stroke="rgb(10%,10%,16%)" x1="103" x2="118" y1="109" y2="109" /><line stroke="rgb(10%,10%,16%)" x1="118" x2="122" y1="109" y2="112" /><line stroke="rgb(10%,10%,16%)" x1="122" x2="134" y1="112" y2="112" /><line stroke="rgb(10%,10%,16%)" x1="134" x2="137" y1="112" y2="115" /><line stroke="rgb(10%,10%,16%)" x1="137" x2="152" y1="115" y2="115" /><line stroke="rgb(10%,10%,16%)" x1="152" x2="155" y1="115" y2="118" /><line stroke="rgb(10%,10%,16%)" x1="155" x2="170" y1="118" y2="118" /><line stroke="rgb(10%,10%,16%)" x1="170" x2="176" y1="118" y2="124" /><line stroke="rgb(10%,10%,16%)" x1="176" x2="176" y1="124" y2="133" /><line stroke="rgb(10%,10%,16%)" x1="176" x2="173" y1="133" y2="136" /><line stroke="rgb(10%,10%,16%)" x1="173" x2="158" y1="136" y2="136" /><line stroke="rgb(10%,10%,16%)" x1="158" x2="155" y1="136" y2="133" /><line stroke="rgb(10%,10%,16%)" x1="155" x2="146" y1="133" y2="133" /><line stroke="rgb(10%,10%,16%)" x1="146" x2="143" y1="133" y2="130" /><line stroke="rgb(10%,10%,16%)" x1="143" x2="134" y1="130" y2="130" /><line stroke="rgb(10%,10%,16%)" x1="134" x2="131" y1="130" y2="127" /><line stroke="rgb(10%,10%,16%)" x1="131" x2="118" y1="127" y2="127" /><line stroke="rgb(10%,10%,16%)" x1="118" x2="115" y1="127" y2="124" /><line stroke="rgb(10%,10%,16%)" x1="115" x2="100" y1="124" y2="124" /><line stroke="rgb(10%,10%,16%)" x1="100" x2="97" y1="124" y2="121" /><line stroke="rgb(10%,10%,16%)" x1="97" x2="88" y1="121" y2="121" /><line stroke="rgb(10%,10%,16%)" x1="88" x2="85" y1="121" y2="118" /><line stroke="rgb(10%,10%,16%)" x1="85" x2="82" y1="118" y2="118" /><line stroke="rgb(10%,10%,16%)" x1="82" x2="76" y1="118" y2="124" /><line stroke="rgb(10%,10%,16%)" x1="76" x2="76" y1="124" y2="127" /><line stroke="rgb(10%,10%,16%)" x1="76" x2="70" y1="127" y2="133" /><line stroke="rgb(10%,10%,16%)" x1="70" x2="70" y1="133" y2="139" /><line stroke="rgb(10%,10%,16%)" x1="70" x2="67" y1="139" y2="142" /><line stroke="rgb(10%,10%,16%)" x1="67" x2="67" y1="142" y2="145" /><line stroke="rgb(10%,10%,16%)" x1="67" x2="64" y1="145" y2="148" /><line stroke="rgb(10%,10%,16%)" x1="64" x2="64" y1="148" y2="158" /><line stroke="rgb(10%,10%,16%)" x1="64" x2="61" y1="158" y2="161" /><line stroke="rgb(10%,10%,16%)" x1="61" x2="61" y1="161" y2="197" /><line stroke="rgb(10%,10%,16%)" x1="61" x2="64" y1="197" y2="200" /><line stroke="rgb(10%,10%,16%)" x1="64" x2="64" y1="200" y2="206" /><line stroke="rgb(10%,10%,16%)" x1="64" x2="67" y1="206" y2="209" /><line stroke="rgb(10%,10%,16%)" x1="67" x2="67" y1="209" y2="215" /><line stroke="rgb(10%,10%,16%)" x1="67" x2="70" y1="215" y2="218" /><line stroke="rgb(10%,10%,16%)" x1="70" x2="70" y1="218" y2="221" /><line stroke="rgb(10%,10%,16%)" x1="70" x2="73" y1="221" y2="224" /><line stroke="rgb(10%,10%,16%)" x1="73" x2="73" y1="224" y2="228" /><line stroke="rgb(10%,10%,16%)" x1="73" x2="76" y1="228" y2="231" /><line stroke="rgb(10%,10%,16%)" x1="76" x2="76" y1="231" y2="234" /><line stroke="rgb(10%,10%,16%)" x1="76" x2="82" y1="234" y2="240" /><line stroke="rgb(10%,10%,16%)" x1="82" x2="82" y1="240" y2="243" /><line stroke="rgb(10%,10%,16%)" x1="82" x2="91" y1="243" y2="252" /><line stroke="rgb(10%,10%,16%)" x1="91" x2="91" y1="252" y2="255" /><line stroke="rgb(10%,10%,16%)" x1="91" x2="100" y1="255" y2="264" /><line stroke="rgb(10%,10%,16%)" x1="100" x2="103" y1="264" y2="264" /><line stroke="rgb(10%,10%,16%)" x1="103" x2="106" y1="264" y2="267" /><line stroke="rgb(10%,10%,16%)" x1="106" x2="109" y1="267" y2="267" /><line stroke="rgb(10%,10%,16%)" x1="109" x2="112" y1="267" y2="270" /><line stroke="rgb(10%,10%,16%)" x1="112" x2="115" y1="270" y2="270" /><line stroke="rgb(10%,10%,16%)" x1="115" x2="118" y1="270" y2="273" /><line stroke="rgb(10%,10%,16%)" x1="118" x2="125" y1="273" y2="273" /><line stroke="rgb(10%,10%,16%)" x1="125" x2="128" y1="273" y2="270" /><line stroke="rgb(10%,10%,16%)" x1="128" x2="134" y1="270" y2="270" /><line stroke="rgb(10%,10%,16%)" x1="134" x2="140" y1="270" y2="264" /><line stroke="rgb(10%,10%,16%)" x1="140" x2="146" y1="264" y2="264" /><line stroke="rgb(10%,10%,16%)" x1="146" x2="149" y1="264" y2="261" /><line stroke="rgb(10%,10%,16%)" x1="149" x2="155" y1="261" y2="261" /><line stroke="rgb(10%,10%,16%)" x1="155" x2="158" y1="261" y2="258" /><line stroke="rgb(10%,10%,16%)" x1="158" x2="192" y1="258" y2="258" /><line stroke="rgb(10%,10%,16%)" x1="192" x2="189" y1="258" y2="255" /><line stroke="rgb(10%,10%,16%)" x1="189" x2="180" y1="255" y2="255" /><line stroke="rgb(10%,10%,16%)" x1="180" x2="176" y1="255" y2="252" /><line stroke="rgb(10%,10%,16%)" x1="176" x2="173" y1="252" y2="252" /><line stroke="rgb(10%,10%,16%)" x1="173" x2="170" y1="252" y2="249" /><line stroke="rgb(10%,10%,16%)" x1="170" x2="164" y1="249" y2="249" /><line stroke="rgb(10%,10%,16%)" x1="164" x2="161" y1="249" y2="246" /><line stroke="rgb(10%,10%,16%)" x1="161" x2="158" y1="246" y2="246" /><line stroke="rgb(10%,10%,16%)" x1="158" x2="155" y1="246" y2="243" /><line stroke="rgb(10%,10%,16%)" x1="155" x2="152" y1="243" y2="243" /><line stroke="rgb(10%,10%,16%)" x1="152" x2="149" y1="243" y2="240" /><line stroke="rgb(10%,10%,16%)" x1="149" x2="149" y1="240" y2="234" /><line stroke="rgb(10%,10%,16%)" x1="149" x2="152" y1="234" y2="231" /><line stroke="rgb(10%,10%,16%)" x1="152" x2="161" y1="231" y2="231" /><line stroke="rgb(10%,10%,16%)" x1="161" x2="164" y1="231" y2="234" /><line stroke="rgb(10%,10%,16%)" x1="164" x2="176" y1="234" y2="234" /><line stroke="rgb(10%,10%,16%)" x1="176" x2="180" y1="234" y2="231" /><line stroke="rgb(10%,10%,16%)" x1="180" x2="186" y1="231" y2="231" /><line stroke="rgb(10%,10%,16%)" x1="186" x2="189" y1="231" y2="228" /><line stroke="rgb(10%,10%,16%)" x1="189" x2="189" y1="228" y2="224" /><line stroke="rgb(10%,10%,16%)" x1="189" x2="195" y1="224" y2="218" /><line stroke="rgb(10%,10%,16%)" x1="195" x2="195" y1="218" y2="212" /><line stroke="rgb(10%,10%,16%)" x1="195" x2="198" y1="212" y2="209" /><line stroke="rgb(10%,10%,16%)" x1="198" x2="198" y1="209" y2="206" /><line stroke="rgb(10%,10%,16%)" x1="198" x2="204" y1="206" y2="200" /><line stroke="rgb(10%,10%,16%)" x1="204" x2="204" y1="200" y2="197" /><line stroke="rgb(10%,10%,16%)" x1="204" x2="207" y1="197" y2="194" /><line stroke="rgb(10%,10%,16%)" x1="207" x2="210" y1="194" y2="194" /><line stroke="rgb(10%,10%,16%)" x1="210" x2="210" y1="194" y2="188" /><line stroke="rgb(10%,10%,16%)" x1="210" x2="213" y1="188" y2="185" /><line stroke="rgb(10%,10%,16%)" x1="213" x2="210" y1="185" y2="182" /><line stroke="rgb(10%,10%,16%)" x1="210" x2="210" y1="182" y2="170" /><line stroke="rgb(10%,10%,16%)" x1="210" x2="213" y1="170" y2="167" /><line stroke="rgb(10%,10%,16%)" x1="213" x2="213" y1="167" y2="164" /><line stroke="rgb(10%,10%,16%)" x1="213" x2="216" y1="164" y2="161" /><line stroke="rgb(10%,10%,16%)" x1="216" x2="216" y1="161" y2="145" /><line stroke="rgb(10%,10%,16%)" x1="216" x2="207" y1="145" y2="136" /><line stroke="rgb(10%,10%,16%)" x1="207" x2="204" y1="136" y2="136" /><line stroke="rgb(10%,10%,16%)" x1="204" x2="198" y1="136" y2="130" /><line stroke="rgb(10%,10%,16%)" x1="198" x2="195" y1="130" y2="130" /><line stroke="rgb(10%,10%,16%)" x1="195" x2="192" y1="130" y2="127" /><line stroke="rgb(10%,10%,16%)" x1="192" x2="192" y1="127" y2="121" /><line stroke="rgb(10%,10%,16%)" x1="192" x2="189" y1="121" y2="118" /><line stroke="rgb(10%,10%,16%)" x1="189" x2="189" y1="118" y2="106" /><line stroke="rgb(10%,10%,16%)" x1="189" x2="192" y1="106" y2="103" /><line stroke="rgb(10%,10%,16%)" x1="192" x2="189" y1="103" y2="106" /><line stroke="rgb(10%,10%,16%)" x1="189" x2="173" y1="106" y2="106" /><line stroke="rgb(10%,10%,16%)" x1="173" x2="170" y1="106" y2="103" /><line stroke="rgb(10%,10%,16%)" x1="170" x2="170" y1="103" y2="97" /><line stroke="rgb(10%,10%,16%)" x1="170" x2="173" y1="97" y2="94" /><line stroke="rgb(10%,10%,16%)" x1="173" x2="176" y1="94" y2="94" /><line stroke="rgb(10%,10%,16%)" x1="176" x2="176" y1="94" y2="91" /><line stroke="rgb(10%,10%,16%)" x1="176" x2="173" y1="91" y2="91" /><line stroke="rgb(10%,10%,16%)" x1="173" x2="161" y1="91" y2="79" /><line stroke="rgb(10%,10%,16%)" x1="161" x2="161" y1="79" y2="69" /><line stroke="rgb(10%,10%,16%)" x1="161" x2="164" y1="69" y2="66" /><line stroke="rgb(10%,10%,16%)" x1="164" x2="161" y1="66" y2="63" /><line stroke="rgb(10%,10%,16%)" x1="161" x2="161" y1="63" y2="60" /><line stroke="rgb(10%,10%,16%)" x1="161" x2="158" y1="60" y2="57" /><line stroke="rgb(10%,10%,16%)" x1="158" x2="158" y1="57" y2="54" /><line stroke="rgb(10%,10%,16%)" x1="158" x2="155" y1="54" y2="54" /><line stroke="rgb(10%,10%,16%)" x1="155" x2="152" y1="54" y2="51" /><line stroke="rgb(10%,10%,16%)" x1="152" x2="155" y1="51" y2="12" /><line stroke="rgb(10%,10%,16%)" x1="155" x2="143" y1="12" y2="12" /><line stroke="rgb(10%,10%,16%)" x1="143" x2="146" y1="12" y2="51" /><line stroke="rgb(10%,10%,16%)" x1="146" x2="152" y1="51" y2="51" /></g></svg>