<?xml version="1.0" encoding="utf-8" ?>
<svg baseProfile="full" height="1440" version="1.1" width="1072" xmlns="http://www.w3.org/2000/svg" xmlns:ev="http://www.w3.org/2001/xml-events" xmlns:xlink="http://www.w3.org/1999/xlink"><defs /><g fill="none" id="shapes"><line stroke="rgb(10%,10%,16%)" x1="0" x2="0" y1="1440" y2="0" /><line stroke="rgb(10%,10%,16%)" x1="0" x2="36" y1="0" y2="203" /><line stroke="rgb(10%,10%,16%)" x1="36" x2="20" y1="203" y2="244" /><line stroke="rgb(10%,10%,16%)" x1="20" x2="0" y1="244" y2="502" /><line stroke="rgb(10%,10%,16%)" x1="0" x2="34" y1="502" y2="540" /><line stroke="rgb(10%,10%,16%)" x1="34" x2="0" y1="540" y2="647" /><line stroke="rgb(10%,10%,16%)" x1="0" x2="28" y1="647" y2="747" /><line stroke="rgb(10%,10%,16%)" x1="28" x2="81" y1="747" y2="726" /><line stroke="rgb(10%,10%,16%)" x1="81" x2="209" y1="726" y2="817" /><line stroke="rgb(10%,10%,16%)" x1="209" x2="174" y1="817" y2="1051" /><line stroke="rgb(10%,10%,16%)" x1="174" x2="154" y1="1051" y2="1023" /><line stroke="rgb(10%,10%,16%)" x1="154" x2="109" y1="1023" y2="1058" /><line stroke="rgb(10%,10%,16%)" x1="109" x2="70" y1="1058" y2="1012" /><line stroke="rgb(10%,10%,16%)" x1="70" x2="87" y1="1012" y2="831" /><line stroke="rgb(10%,10%,16%)" x1="87" x2="57" y1="831" y2="773" /><line stroke="rgb(10%,10%,16%)" x1="57" x2="15" y1="773" y2="841" /><line stroke="rgb(10%,10%,16%)" x1="15" x2="0" y1="841" y2="984" /><line stroke="rgb(10%,10%,16%)" x1="0" x2="13" y1="984" y2="1085" /><line stroke="rgb(10%,10%,16%)" x1="13" x2="39" y1="1085" y2="1125" /><line stroke="rgb(10%,10%,16%)" x1="39" x2="25" y1="1125" y2="1327" /><line stroke="rgb(10%,10%,16%)" x1="25" x2="8" y1="1327" y2="1430" /><line stroke="rgb(10%,10%,16%)" x1="8" x2="25" y1="1430" y2="1366" /><line stroke="rgb(10%,10%,16%)" x1="25" x2="52" y1="1366" y2="1331" /><line stroke="rgb(10%,10%,16%)" x1="52" x2="196" y1="1331" y2="1304" /><line stroke="rgb(10%,10%,16%)" x1="196" x2="216" y1="1304" y2="1275" /><line stroke="rgb(10%,10%,16%)" x1="216" x2="161" y1="1275" y2="1237" /><line stroke="rgb(10%,10%,16%)" x1="161" x2="193" y1="1237" y2="1188" /><line stroke="rgb(10%,10%,16%)" x1="193" x2="159" y1="1188" y2="1127" /><line stroke="rgb(10%,10%,16%)" x1="159" x2="210" y1="1127" y2="1161" /><line stroke="rgb(10%,10%,16%)" x1="210" x2="323" y1="1161" y2="1201" /><line stroke="rgb(10%,10%,16%)" x1="323" x2="366" y1="1201" y2="1250" /><line stroke="rgb(10%,10%,16%)" x1="366" x2="390" y1="1250" y2="1288" /><line stroke="rgb(10%,10%,16%)" x1="390" x2="358" y1="1288" y2="1337" /><line stroke="rgb(10%,10%,16%)" x1="358" x2="332" y1="1337" y2="1277" /><line stroke="rgb(10%,10%,16%)" x1="332" x2="301" y1="1277" y2="1314" /><line stroke="rgb(10%,10%,16%)" x1="301" x2="273" y1="1314" y2="1357" /><line stroke="rgb(10%,10%,16%)" x1="273" x2="361" y1="1357" y2="1432" /><line stroke="rgb(10%,10%,16%)" x1="361" x2="378" y1="1432" y2="1353" /><line stroke="rgb(10%,10%,16%)" x1="378" x2="439" y1="1353" y2="1285" /><line stroke="rgb(10%,10%,16%)" x1="439" x2="466" y1="1285" y2="1256" /><line stroke="rgb(10%,10%,16%)" x1="466" x2="433" y1="1256" y2="1195" /><line stroke="rgb(10%,10%,16%)" x1="433" x2="329" y1="1195" y2="1151" /><line stroke="rgb(10%,10%,16%)" x1="329" x2="348" y1="1151" y2="1079" /><line stroke="rgb(10%,10%,16%)" x1="348" x2="366" y1="1079" y2="1038" /><line stroke="rgb(10%,10%,16%)" x1="366" x2="384" y1="1038" y2="994" /><line stroke="rgb(10%,10%,16%)" x1="384" x2="404" y1="994" y2="953" /><line stroke="rgb(10%,10%,16%)" x1="404" x2="448" y1="953" y2="939" /><line stroke="rgb(10%,10%,16%)" x1="448" x2="482" y1="939" y2="974" /><line stroke="rgb(10%,10%,16%)" x1="482" x2="463" y1="974" y2="1057" /><line stroke="rgb(10%,10%,16%)" x1="463" x2="443" y1="1057" y2="1098" /><line stroke="rgb(10%,10%,16%)" x1="443" x2="621" y1="1098" y2="1199" /><line stroke="rgb(10%,10%,16%)" x1="621" x2="575" y1="1199" y2="1251" /><line stroke="rgb(10%,10%,16%)" x1="575" x2="558" y1="1251" y2="1408" /><line stroke="rgb(10%,10%,16%)" x1="558" x2="595" y1="1408" y2="1388" /><line stroke="rgb(10%,10%,16%)" x1="595" x2="616" y1="1388" y2="1354" /><line stroke="rgb(10%,10%,16%)" x1="616" x2="651" y1="1354" y2="1326" /><line stroke="rgb(10%,10%,16%)" x1="651" x2="737" y1="1326" y2="1300" /><line stroke="rgb(10%,10%,16%)" x1="737" x2="763" y1="1300" y2="1262" /><line stroke="rgb(10%,10%,16%)" x1="763" x2="774" y1="1262" y2="1181" /><line stroke="rgb(10%,10%,16%)" x1="774" x2="870" y1="1181" y2="1201" /><line stroke="rgb(10%,10%,16%)" x1="870" x2="903" y1="1201" y2="1223" /><line stroke="rgb(10%,10%,16%)" x1="903" x2="960" y1="1223" y2="1191" /><line stroke="rgb(10%,10%,16%)" x1="960" x2="1025" y1="1191" y2="1143" /><line stroke="rgb(10%,10%,16%)" x1="1025" x2="1062" y1="1143" y2="1120" /><line stroke="rgb(10%,10%,16%)" x1="1062" x2="1030" y1="1120" y2="967" /><line stroke="rgb(10%,10%,16%)" x1="1030" x2="1052" y1="967" y2="919" /><line stroke="rgb(10%,10%,16%)" x1="1052" x2="1039" y1="919" y2="883" /><line stroke="rgb(10%,10%,16%)" x1="1039" x2="1051" y1="883" y2="781" /><line stroke="rgb(10%,10%,16%)" x1="1051" x2="1024" y1="781" y2="745" /><line stroke="rgb(10%,10%,16%)" x1="1024" x2="1048" y1="745" y2="689" /><line stroke="rgb(10%,10%,16%)" x1="1048" x2="1061" y1="689" y2="596" /><line stroke="rgb(10%,10%,16%)" x1="1061" x2="1043" y1="596" y2="433" /><line stroke="rgb(10%,10%,16%)" x1="1043" x2="1061" y1="433" y2="397" /><line stroke="rgb(10%,10%,16%)" x1="1061" x2="1040" y1="397" y2="380" /><line stroke="rgb(10%,10%,16%)" x1="1040" x2="1021" y1="380" y2="451" /><line stroke="rgb(10%,10%,16%)" x1="1021" x2="1009" y1="451" y2="572" /><line stroke="rgb(10%,10%,16%)" x1="1009" x2="990" y1="572" y2="630" /><line stroke="rgb(10%,10%,16%)" x1="990" x2="957" y1="630" y2="667" /><line stroke="rgb(10%,10%,16%)" x1="957" x2="977" y1="667" y2="575" /><line stroke="rgb(10%,10%,16%)" x1="977" x2="966" y1="575" y2="516" /><line stroke="rgb(10%,10%,16%)" x1="966" x2="949" y1="516" y2="589" /><line stroke="rgb(10%,10%,16%)" x1="949" x2="928" y1="589" y2="678" /><line stroke="rgb(10%,10%,16%)" x1="928" x2="943" y1="678" y2="438" /><line stroke="rgb(10%,10%,16%)" x1="943" x2="892" y1="438" y2="66" /><line stroke="rgb(10%,10%,16%)" x1="892" x2="863" y1="66" y2="92" /><line stroke="rgb(10%,10%,16%)" x1="863" x2="882" y1="92" y2="128" /><line stroke="rgb(10%,10%,16%)" x1="882" x2="893" y1="128" y2="222" /><line stroke="rgb(10%,10%,16%)" x1="893" x2="873" y1="222" y2="281" /><line stroke="rgb(10%,10%,16%)" x1="873" x2="856" y1="281" y2="196" /><line stroke="rgb(10%,10%,16%)" x1="856" x2="839" y1="196" y2="124" /><line stroke="rgb(10%,10%,16%)" x1="839" x2="820" y1="124" y2="63" /><line stroke="rgb(10%,10%,16%)" x1="820" x2="769" y1="63" y2="31" /><line stroke="rgb(10%,10%,16%)" x1="769" x2="749" y1="31" y2="99" /><line stroke="rgb(10%,10%,16%)" x1="749" x2="766" y1="99" y2="237" /><line stroke="rgb(10%,10%,16%)" x1="766" x2="735" y1="237" y2="197" /><line stroke="rgb(10%,10%,16%)" x1="735" x2="623" y1="197" y2="26" /><line stroke="rgb(10%,10%,16%)" x1="623" x2="606" y1="26" y2="150" /><line stroke="rgb(10%,10%,16%)" x1="606" x2="589" y1="150" y2="210" /><line stroke="rgb(10%,10%,16%)" x1="589" x2="547" y1="210" y2="169" /><line stroke="rgb(10%,10%,16%)" x1="547" x2="607" y1="169" y2="93" /><line stroke="rgb(10%,10%,16%)" x1="607" x2="565" y1="93" y2="42" /><line stroke="rgb(10%,10%,16%)" x1="565" x2="548" y1="42" y2="100" /><line stroke="rgb(10%,10%,16%)" x1="548" x2="529" y1="100" y2="87" /><line stroke="rgb(10%,10%,16%)" x1="529" x2="444" y1="87" y2="29" /><line stroke="rgb(10%,10%,16%)" x1="444" x2="425" y1="29" y2="85" /><line stroke="rgb(10%,10%,16%)" x1="425" x2="385" y1="85" y2="116" /><line stroke="rgb(10%,10%,16%)" x1="385" x2="408" y1="116" y2="80" /><line stroke="rgb(10%,10%,16%)" x1="408" x2="285" y1="80" y2="100" /><line stroke="rgb(10%,10%,16%)" x1="285" x2="309" y1="100" y2="70" /><line stroke="rgb(10%,10%,16%)" x1="309" x2="263" y1="70" y2="31" /><line stroke="rgb(10%,10%,16%)" x1="263" x2="239" y1="31" y2="56" /><line stroke="rgb(10%,10%,16%)" x1="239" x2="183" y1="56" y2="79" /><line stroke="rgb(10%,10%,16%)" x1="183" x2="161" y1="79" y2="14" /><line stroke="rgb(10%,10%,16%)" x1="161" x2="87" y1="14" y2="30" /><line stroke="rgb(10%,10%,16%)" x1="87" x2="85" y1="30" y2="0" /><line stroke="rgb(10%,10%,16%)" x1="85" x2="795" y1="0" y2="0" /><line stroke="rgb(10%,10%,16%)" x1="795" x2="824" y1="0" y2="12" /><line stroke="rgb(10%,10%,16%)" x1="824" x2="1036" y1="12" y2="0" /><line stroke="rgb(10%,10%,16%)" x1="1036" x2="1070" y1="0" y2="36" /><line stroke="rgb(10%,10%,16%)" x1="1070" x2="1049" y1="36" y2="48" /><line stroke="rgb(10%,10%,16%)" x1="1049" x2="1038" y1="48" y2="123" /><line stroke="rgb(10%,10%,16%)" x1="1038" x2="1027" y1="123" y2="243" /><line stroke="rgb(10%,10%,16%)" x1="1027" x2="1040" y1="243" y2="272" /><line stroke="rgb(10%,10%,16%)" x1="1040" x2="1051" y1="272" y2="246" /><line stroke="rgb(10%,10%,16%)" x1="1051" x2="1064" y1="246" y2="204" /><line stroke="rgb(10%,10%,16%)" x1="1064" x2="1071" y1="204" y2="36" /><line stroke="rgb(10%,10%,16%)" x1="1071" x2="997" y1="36" y2="43" /><line stroke="rgb(10%,10%,16%)" x1="997" x2="981" y1="43" y2="57" /><line stroke="rgb(10%,10%,16%)" x1="981" x2="969" y1="57" y2="77" /><line stroke="rgb(10%,10%,16%)" x1="969" x2="980" y1="77" y2="251" /><line stroke="rgb(10%,10%,16%)" x1="980" x2="997" y1="251" y2="315" /><line stroke="rgb(10%,10%,16%)" x1="997" x2="1008" y1="315" y2="218" /><line stroke="rgb(10%,10%,16%)" x1="1008" x2="1019" y1="218" y2="102" /><line stroke="rgb(10%,10%,16%)" x1="1019" x2="1008" y1="102" y2="56" /><line stroke="rgb(10%,10%,16%)" x1="1008" x2="999" y1="56" y2="43" /><line stroke="rgb(10%,10%,16%)" x1="999" x2="110" y1="43" y2="57" /><line stroke="rgb(10%,10%,16%)" x1="110" x2="127" y1="57" y2="70" /><line stroke="rgb(10%,10%,16%)" x1="127" x2="116" y1="70" y2="107" /><line stroke="rgb(10%,10%,16%)" x1="116" x2="110" y1="107" y2="80" /><line stroke="rgb(10%,10%,16%)" x1="110" x2="20" y1="80" y2="66" /><line stroke="rgb(10%,10%,16%)" x1="20" x2="54" y1="66" y2="77" /><line stroke="rgb(10%,10%,16%)" x1="54" x2="43" y1="77" y2="100" /><line stroke="rgb(10%,10%,16%)" x1="43" x2="18" y1="100" y2="127" /><line stroke="rgb(10%,10%,16%)" x1="18" x2="20" y1="127" y2="81" /><line stroke="rgb(10%,10%,16%)" x1="20" x2="307" y1="81" y2="131" /><line stroke="rgb(10%,10%,16%)" x1="307" x2="327" y1="131" y2="144" /><line stroke="rgb(10%,10%,16%)" x1="327" x2="316" y1="144" y2="228" /><line stroke="rgb(10%,10%,16%)" x1="316" x2="301" y1="228" y2="240" /><line stroke="rgb(10%,10%,16%)" x1="301" x2="307" y1="240" y2="149" /><line stroke="rgb(10%,10%,16%)" x1="307" x2="496" y1="149" y2="136" /><line stroke="rgb(10%,10%,16%)" x1="496" x2="523" y1="136" y2="147" /><line stroke="rgb(10%,10%,16%)" x1="523" x2="541" y1="147" y2="169" /><line stroke="rgb(10%,10%,16%)" x1="541" x2="519" y1="169" y2="203" /><line stroke="rgb(10%,10%,16%)" x1="519" x2="507" y1="203" y2="190" /><line stroke="rgb(10%,10%,16%)" x1="507" x2="492" y1="190" y2="160" /><line stroke="rgb(10%,10%,16%)" x1="492" x2="494" y1="160" y2="138" /><line stroke="rgb(10%,10%,16%)" x1="494" x2="154" y1="138" y2="143" /><line stroke="rgb(10%,10%,16%)" x1="154" x2="195" y1="143" y2="155" /><line stroke="rgb(10%,10%,16%)" x1="195" x2="212" y1="155" y2="182" /><line stroke="rgb(10%,10%,16%)" x1="212" x2="186" y1="182" y2="231" /><line stroke="rgb(10%,10%,16%)" x1="186" x2="145" y1="231" y2="213" /><line stroke="rgb(10%,10%,16%)" x1="145" x2="156" y1="213" y2="180" /><line stroke="rgb(10%,10%,16%)" x1="156" x2="154" y1="180" y2="157" /><line stroke="rgb(10%,10%,16%)" x1="154" x2="215" y1="157" y2="162" /><line stroke="rgb(10%,10%,16%)" x1="215" x2="247" y1="162" y2="183" /><line stroke="rgb(10%,10%,16%)" x1="247" x2="215" y1="183" y2="183" /><line stroke="rgb(10%,10%,16%)" x1="215" x2="503" y1="183" y2="215" /><line stroke="rgb(10%,10%,16%)" x1="503" x2="503" y1="215" y2="215" /><line stroke="rgb(10%,10%,16%)" x1="503" x2="519" y1="215" y2="232" /><line stroke="rgb(10%,10%,16%)" x1="519" x2="502" y1="232" y2="260" /><line stroke="rgb(10%,10%,16%)" x1="502" x2="501" y1="260" y2="217" /><line stroke="rgb(10%,10%,16%)" x1="501" x2="774" y1="217" y2="227" /><line stroke="rgb(10%,10%,16%)" x1="774" x2="792" y1="227" y2="239" /><line stroke="rgb(10%,10%,16%)" x1="792" x2="779" y1="239" y2="272" /><line stroke="rgb(10%,10%,16%)" x1="779" x2="774" y1="272" y2="231" /><line stroke="rgb(10%,10%,16%)" x1="774" x2="213" y1="231" y2="235" /><line stroke="rgb(10%,10%,16%)" x1="213" x2="228" y1="235" y2="254" /><line stroke="rgb(10%,10%,16%)" x1="228" x2="290" y1="254" y2="265" /><line stroke="rgb(10%,10%,16%)" x1="290" x2="359" y1="265" y2="276" /><line stroke="rgb(10%,10%,16%)" x1="359" x2="326" y1="276" y2="318" /><line stroke="rgb(10%,10%,16%)" x1="326" x2="238" y1="318" y2="307" /><line stroke="rgb(10%,10%,16%)" x1="238" x2="194" y1="307" y2="277" /><line stroke="rgb(10%,10%,16%)" x1="194" x2="212" y1="277" y2="244" /><line stroke="rgb(10%,10%,16%)" x1="212" x2="213" y1="244" y2="242" /><line stroke="rgb(10%,10%,16%)" x1="213" x2="439" y1="242" y2="249" /><line stroke="rgb(10%,10%,16%)" x1="439" x2="479" y1="249" y2="260" /><line stroke="rgb(10%,10%,16%)" x1="479" x2="468" y1="260" y2="274" /><line stroke="rgb(10%,10%,16%)" x1="468" x2="455" y1="274" y2="286" /><line stroke="rgb(10%,10%,16%)" x1="455" x2="423" y1="286" y2="305" /><line stroke="rgb(10%,10%,16%)" x1="423" x2="405" y1="305" y2="293" /><line stroke="rgb(10%,10%,16%)" x1="405" x2="417" y1="293" y2="256" /><line stroke="rgb(10%,10%,16%)" x1="417" x2="433" y1="256" y2="249" /><line stroke="rgb(10%,10%,16%)" x1="433" x2="594" y1="249" y2="252" /><line stroke="rgb(10%,10%,16%)" x1="594" x2="658" y1="252" y2="264" /><line stroke="rgb(10%,10%,16%)" x1="658" x2="678" y1="264" y2="277" /><line stroke="rgb(10%,10%,16%)" x1="678" x2="661" y1="277" y2="299" /><line stroke="rgb(10%,10%,16%)" x1="661" x2="645" y1="299" y2="283" /><line stroke="rgb(10%,10%,16%)" x1="645" x2="630" y1="283" y2="320" /><line stroke="rgb(10%,10%,16%)" x1="630" x2="606" y1="320" y2="289" /><line stroke="rgb(10%,10%,16%)" x1="606" x2="592" y1="289" y2="277" /><line stroke="rgb(10%,10%,16%)" x1="592" x2="560" y1="277" y2="290" /><line stroke="rgb(10%,10%,16%)" x1="560" x2="579" y1="290" y2="329" /><line stroke="rgb(10%,10%,16%)" x1="579" x2="658" y1="329" y2="340" /><line stroke="rgb(10%,10%,16%)" x1="658" x2="696" y1="340" y2="351" /><line stroke="rgb(10%,10%,16%)" x1="696" x2="710" y1="351" y2="396" /><line stroke="rgb(10%,10%,16%)" x1="710" x2="688" y1="396" y2="529" /><line stroke="rgb(10%,10%,16%)" x1="688" x2="670" y1="529" y2="514" /><line stroke="rgb(10%,10%,16%)" x1="670" x2="630" y1="514" y2="534" /><line stroke="rgb(10%,10%,16%)" x1="630" x2="616" y1="534" y2="558" /><line stroke="rgb(10%,10%,16%)" x1="616" x2="495" y1="558" y2="570" /><line stroke="rgb(10%,10%,16%)" x1="495" x2="445" y1="570" y2="556" /><line stroke="rgb(10%,10%,16%)" x1="445" x2="429" y1="556" y2="540" /><line stroke="rgb(10%,10%,16%)" x1="429" x2="414" y1="540" y2="528" /><line stroke="rgb(10%,10%,16%)" x1="414" x2="396" y1="528" y2="512" /><line stroke="rgb(10%,10%,16%)" x1="396" x2="382" y1="512" y2="487" /><line stroke="rgb(10%,10%,16%)" x1="382" x2="397" y1="487" y2="468" /><line stroke="rgb(10%,10%,16%)" x1="397" x2="647" y1="468" y2="452" /><line stroke="rgb(10%,10%,16%)" x1="647" x2="634" y1="452" y2="429" /><line stroke="rgb(10%,10%,16%)" x1="634" x2="590" y1="429" y2="417" /><line stroke="rgb(10%,10%,16%)" x1="590" x2="391" y1="417" y2="406" /><line stroke="rgb(10%,10%,16%)" x1="391" x2="412" y1="406" y2="380" /><line stroke="rgb(10%,10%,16%)" x1="412" x2="390" y1="380" y2="406" /><line stroke="rgb(10%,10%,16%)" x1="390" x2="373" y1="406" y2="391" /><line stroke="rgb(10%,10%,16%)" x1="373" x2="385" y1="391" y2="355" /><line stroke="rgb(10%,10%,16%)" x1="385" x2="399" y1="355" y2="315" /><line stroke="rgb(10%,10%,16%)" x1="399" x2="434" y1="315" y2="303" /><line stroke="rgb(10%,10%,16%)" x1="434" x2="503" y1="303" y2="290" /><line stroke="rgb(10%,10%,16%)" x1="503" x2="524" y1="290" y2="277" /><line stroke="rgb(10%,10%,16%)" x1="524" x2="557" y1="277" y2="262" /><line stroke="rgb(10%,10%,16%)" x1="557" x2="591" y1="262" y2="252" /><line stroke="rgb(10%,10%,16%)" x1="591" x2="94" y1="252" y2="265" /><line stroke="rgb(10%,10%,16%)" x1="94" x2="94" y1="265" y2="265" /><line stroke="rgb(10%,10%,16%)" x1="94" x2="131" y1="265" y2="289" /><line stroke="rgb(10%,10%,16%)" x1="131" x2="94" y1="289" y2="278" /><line stroke="rgb(10%,10%,16%)" x1="94" x2="94" y1="278" y2="278" /><line stroke="rgb(10%,10%,16%)" x1="94" x2="119" y1="278" y2="318" /><line stroke="rgb(10%,10%,16%)" x1="119" x2="134" y1="318" y2="329" /><line stroke="rgb(10%,10%,16%)" x1="134" x2="123" y1="329" y2="356" /><line stroke="rgb(10%,10%,16%)" x1="123" x2="112" y1="356" y2="390" /><line stroke="rgb(10%,10%,16%)" x1="112" x2="91" y1="390" y2="407" /><line stroke="rgb(10%,10%,16%)" x1="91" x2="67" y1="407" y2="396" /><line stroke="rgb(10%,10%,16%)" x1="67" x2="93" y1="396" y2="367" /><line stroke="rgb(10%,10%,16%)" x1="93" x2="104" y1="367" y2="354" /><line stroke="rgb(10%,10%,16%)" x1="104" x2="79" y1="354" y2="333" /><line stroke="rgb(10%,10%,16%)" x1="79" x2="101" y1="333" y2="320" /><line stroke="rgb(10%,10%,16%)" x1="101" x2="115" y1="320" y2="318" /><line stroke="rgb(10%,10%,16%)" x1="115" x2="469" y1="318" y2="323" /><line stroke="rgb(10%,10%,16%)" x1="469" x2="458" y1="323" y2="344" /><line stroke="rgb(10%,10%,16%)" x1="458" x2="442" y1="344" y2="357" /><line stroke="rgb(10%,10%,16%)" x1="442" x2="429" y1="357" y2="369" /><line stroke="rgb(10%,10%,16%)" x1="429" x2="440" y1="369" y2="383" /><line stroke="rgb(10%,10%,16%)" x1="440" x2="454" y1="383" y2="372" /><line stroke="rgb(10%,10%,16%)" x1="454" x2="466" y1="372" y2="356" /><line stroke="rgb(10%,10%,16%)" x1="466" x2="487" y1="356" y2="335" /><line stroke="rgb(10%,10%,16%)" x1="487" x2="472" y1="335" y2="323" /><line stroke="rgb(10%,10%,16%)" x1="472" x2="472" y1="323" y2="323" /><line stroke="rgb(10%,10%,16%)" x1="472" x2="186" y1="323" y2="356" /><line stroke="rgb(10%,10%,16%)" x1="186" x2="186" y1="356" y2="356" /><line stroke="rgb(10%,10%,16%)" x1="186" x2="208" y1="356" y2="367" /><line stroke="rgb(10%,10%,16%)" x1="208" x2="219" y1="367" y2="388" /><line stroke="rgb(10%,10%,16%)" x1="219" x2="230" y1="388" y2="407" /><line stroke="rgb(10%,10%,16%)" x1="230" x2="219" y1="407" y2="455" /><line stroke="rgb(10%,10%,16%)" x1="219" x2="186" y1="455" y2="439" /><line stroke="rgb(10%,10%,16%)" x1="186" x2="186" y1="439" y2="358" /><line stroke="rgb(10%,10%,16%)" x1="186" x2="804" y1="358" y2="408" /><line stroke="rgb(10%,10%,16%)" x1="804" x2="804" y1="408" y2="408" /><line stroke="rgb(10%,10%,16%)" x1="804" x2="867" y1="408" y2="426" /><line stroke="rgb(10%,10%,16%)" x1="867" x2="853" y1="426" y2="439" /><line stroke="rgb(10%,10%,16%)" x1="853" x2="781" y1="439" y2="419" /><line stroke="rgb(10%,10%,16%)" x1="781" x2="801" y1="419" y2="411" /><line stroke="rgb(10%,10%,16%)" x1="801" x2="275" y1="411" y2="421" /><line stroke="rgb(10%,10%,16%)" x1="275" x2="294" y1="421" y2="433" /><line stroke="rgb(10%,10%,16%)" x1="294" x2="305" y1="433" y2="457" /><line stroke="rgb(10%,10%,16%)" x1="305" x2="316" y1="457" y2="522" /><line stroke="rgb(10%,10%,16%)" x1="316" x2="301" y1="522" y2="598" /><line stroke="rgb(10%,10%,16%)" x1="301" x2="290" y1="598" y2="565" /><line stroke="rgb(10%,10%,16%)" x1="290" x2="279" y1="565" y2="529" /><line stroke="rgb(10%,10%,16%)" x1="279" x2="275" y1="529" y2="426" /><line stroke="rgb(10%,10%,16%)" x1="275" x2="348" y1="426" y2="434" /><line stroke="rgb(10%,10%,16%)" x1="348" x2="370" y1="434" y2="447" /><line stroke="rgb(10%,10%,16%)" x1="370" x2="359" y1="447" y2="467" /><line stroke="rgb(10%,10%,16%)" x1="359" x2="348" y1="467" y2="446" /><line stroke="rgb(10%,10%,16%)" x1="348" x2="348" y1="446" y2="446" /><line stroke="rgb(10%,10%,16%)" x1="348" x2="123" y1="446" y2="485" /><line stroke="rgb(10%,10%,16%)" x1="123" x2="123" y1="485" y2="485" /><line stroke="rgb(10%,10%,16%)" x1="123" x2="145" y1="485" y2="518" /><line stroke="rgb(10%,10%,16%)" x1="145" x2="130" y1="518" y2="504" /><line stroke="rgb(10%,10%,16%)" x1="130" x2="123" y1="504" y2="498" /><line stroke="rgb(10%,10%,16%)" x1="123" x2="160" y1="498" y2="493" /><line stroke="rgb(10%,10%,16%)" x1="160" x2="192" y1="493" y2="511" /><line stroke="rgb(10%,10%,16%)" x1="192" x2="181" y1="511" y2="525" /><line stroke="rgb(10%,10%,16%)" x1="181" x2="164" y1="525" y2="539" /><line stroke="rgb(10%,10%,16%)" x1="164" x2="160" y1="539" y2="506" /><line stroke="rgb(10%,10%,16%)" x1="160" x2="108" y1="506" y2="511" /><line stroke="rgb(10%,10%,16%)" x1="108" x2="124" y1="511" y2="532" /><line stroke="rgb(10%,10%,16%)" x1="124" x2="113" y1="532" y2="555" /><line stroke="rgb(10%,10%,16%)" x1="113" x2="98" y1="555" y2="539" /><line stroke="rgb(10%,10%,16%)" x1="98" x2="106" y1="539" y2="513" /><line stroke="rgb(10%,10%,16%)" x1="106" x2="804" y1="513" y2="522" /><line stroke="rgb(10%,10%,16%)" x1="804" x2="831" y1="522" y2="538" /><line stroke="rgb(10%,10%,16%)" x1="831" x2="805" y1="538" y2="555" /><line stroke="rgb(10%,10%,16%)" x1="805" x2="802" y1="555" y2="524" /><line stroke="rgb(10%,10%,16%)" x1="802" x2="169" y1="524" y2="551" /><line stroke="rgb(10%,10%,16%)" x1="169" x2="169" y1="551" y2="551" /><line stroke="rgb(10%,10%,16%)" x1="169" x2="196" y1="551" y2="562" /><line stroke="rgb(10%,10%,16%)" x1="196" x2="180" y1="562" y2="589" /><line stroke="rgb(10%,10%,16%)" x1="180" x2="159" y1="589" y2="575" /><line stroke="rgb(10%,10%,16%)" x1="159" x2="169" y1="575" y2="563" /><line stroke="rgb(10%,10%,16%)" x1="169" x2="73" y1="563" y2="587" /><line stroke="rgb(10%,10%,16%)" x1="73" x2="73" y1="587" y2="587" /><line stroke="rgb(10%,10%,16%)" x1="73" x2="108" y1="587" y2="606" /><line stroke="rgb(10%,10%,16%)" x1="108" x2="73" y1="606" y2="600" /><line stroke="rgb(10%,10%,16%)" x1="73" x2="83" y1="600" y2="611" /><line stroke="rgb(10%,10%,16%)" x1="83" x2="112" y1="611" y2="625" /><line stroke="rgb(10%,10%,16%)" x1="112" x2="86" y1="625" y2="694" /><line stroke="rgb(10%,10%,16%)" x1="86" x2="67" y1="694" y2="676" /><line stroke="rgb(10%,10%,16%)" x1="67" x2="78" y1="676" y2="665" /><line stroke="rgb(10%,10%,16%)" x1="78" x2="83" y1="665" y2="624" /><line stroke="rgb(10%,10%,16%)" x1="83" x2="696" y1="624" y2="629" /><line stroke="rgb(10%,10%,16%)" x1="696" x2="737" y1="629" y2="641" /><line stroke="rgb(10%,10%,16%)" x1="737" x2="750" y1="641" y2="653" /><line stroke="rgb(10%,10%,16%)" x1="750" x2="761" y1="653" y2="667" /><line stroke="rgb(10%,10%,16%)" x1="761" x2="773" y1="667" y2="681" /><line stroke="rgb(10%,10%,16%)" x1="773" x2="784" y1="681" y2="697" /><line stroke="rgb(10%,10%,16%)" x1="784" x2="797" y1="697" y2="717" /><line stroke="rgb(10%,10%,16%)" x1="797" x2="810" y1="717" y2="743" /><line stroke="rgb(10%,10%,16%)" x1="810" x2="826" y1="743" y2="759" /><line stroke="rgb(10%,10%,16%)" x1="826" x2="841" y1="759" y2="790" /><line stroke="rgb(10%,10%,16%)" x1="841" x2="855" y1="790" y2="835" /><line stroke="rgb(10%,10%,16%)" x1="855" x2="867" y1="835" y2="862" /><line stroke="rgb(10%,10%,16%)" x1="867" x2="850" y1="862" y2="895" /><line stroke="rgb(10%,10%,16%)" x1="850" x2="874" y1="895" y2="908" /><line stroke="rgb(10%,10%,16%)" x1="874" x2="862" y1="908" y2="943" /><line stroke="rgb(10%,10%,16%)" x1="862" x2="814" y1="943" y2="930" /><line stroke="rgb(10%,10%,16%)" x1="814" x2="802" y1="930" y2="883" /><line stroke="rgb(10%,10%,16%)" x1="802" x2="791" y1="883" y2="851" /><line stroke="rgb(10%,10%,16%)" x1="791" x2="780" y1="851" y2="834" /><line stroke="rgb(10%,10%,16%)" x1="780" x2="766" y1="834" y2="815" /><line stroke="rgb(10%,10%,16%)" x1="766" x2="754" y1="815" y2="799" /><line stroke="rgb(10%,10%,16%)" x1="754" x2="743" y1="799" y2="783" /><line stroke="rgb(10%,10%,16%)" x1="743" x2="727" y1="783" y2="763" /><line stroke="rgb(10%,10%,16%)" x1="727" x2="715" y1="763" y2="747" /><line stroke="rgb(10%,10%,16%)" x1="715" x2="683" y1="747" y2="732" /><line stroke="rgb(10%,10%,16%)" x1="683" x2="664" y1="732" y2="717" /><line stroke="rgb(10%,10%,16%)" x1="664" x2="677" y1="717" y2="638" /><line stroke="rgb(10%,10%,16%)" x1="677" x2="693" y1="638" y2="629" /><line stroke="rgb(10%,10%,16%)" x1="693" x2="386" y1="629" y2="637" /><line stroke="rgb(10%,10%,16%)" x1="386" x2="426" y1="637" y2="651" /><line stroke="rgb(10%,10%,16%)" x1="426" x2="437" y1="651" y2="667" /><line stroke="rgb(10%,10%,16%)" x1="437" x2="414" y1="667" y2="733" /><line stroke="rgb(10%,10%,16%)" x1="414" x2="387" y1="733" y2="744" /><line stroke="rgb(10%,10%,16%)" x1="387" x2="374" y1="744" y2="761" /><line stroke="rgb(10%,10%,16%)" x1="374" x2="363" y1="761" y2="785" /><line stroke="rgb(10%,10%,16%)" x1="363" x2="352" y1="785" y2="875" /><line stroke="rgb(10%,10%,16%)" x1="352" x2="339" y1="875" y2="943" /><line stroke="rgb(10%,10%,16%)" x1="339" x2="249" y1="943" y2="930" /><line stroke="rgb(10%,10%,16%)" x1="249" x2="260" y1="930" y2="881" /><line stroke="rgb(10%,10%,16%)" x1="260" x2="273" y1="881" y2="847" /><line stroke="rgb(10%,10%,16%)" x1="273" x2="284" y1="847" y2="794" /><line stroke="rgb(10%,10%,16%)" x1="284" x2="295" y1="794" y2="756" /><line stroke="rgb(10%,10%,16%)" x1="295" x2="307" y1="756" y2="736" /><line stroke="rgb(10%,10%,16%)" x1="307" x2="319" y1="736" y2="715" /><line stroke="rgb(10%,10%,16%)" x1="319" x2="330" y1="715" y2="698" /><line stroke="rgb(10%,10%,16%)" x1="330" x2="341" y1="698" y2="682" /><line stroke="rgb(10%,10%,16%)" x1="341" x2="353" y1="682" y2="665" /><line stroke="rgb(10%,10%,16%)" x1="353" x2="366" y1="665" y2="650" /><line stroke="rgb(10%,10%,16%)" x1="366" x2="383" y1="650" y2="638" /><line stroke="rgb(10%,10%,16%)" x1="383" x2="384" y1="638" y2="637" /><line stroke="rgb(10%,10%,16%)" x1="384" x2="555" y1="637" y2="669" /><line stroke="rgb(10%,10%,16%)" x1="555" x2="555" y1="669" y2="669" /><line stroke="rgb(10%,10%,16%)" x1="555" x2="586" y1="669" y2="690" /><line stroke="rgb(10%,10%,16%)" x1="586" x2="575" y1="690" y2="737" /><line stroke="rgb(10%,10%,16%)" x1="575" x2="562" y1="737" y2="786" /><line stroke="rgb(10%,10%,16%)" x1="562" x2="548" y1="786" y2="797" /><line stroke="rgb(10%,10%,16%)" x1="548" x2="559" y1="797" y2="821" /><line stroke="rgb(10%,10%,16%)" x1="559" x2="548" y1="821" y2="842" /><line stroke="rgb(10%,10%,16%)" x1="548" x2="537" y1="842" y2="878" /><line stroke="rgb(10%,10%,16%)" x1="537" x2="507" y1="878" y2="863" /><line stroke="rgb(10%,10%,16%)" x1="507" x2="531" y1="863" y2="831" /><line stroke="rgb(10%,10%,16%)" x1="531" x2="519" y1="831" y2="798" /><line stroke="rgb(10%,10%,16%)" x1="519" x2="530" y1="798" y2="750" /><line stroke="rgb(10%,10%,16%)" x1="530" x2="541" y1="750" y2="719" /><line stroke="rgb(10%,10%,16%)" x1="541" x2="552" y1="719" y2="682" /><line stroke="rgb(10%,10%,16%)" x1="552" x2="555" y1="682" y2="670" /><line stroke="rgb(10%,10%,16%)" x1="555" x2="160" y1="670" y2="669" /><line stroke="rgb(10%,10%,16%)" x1="160" x2="195" y1="669" y2="683" /><line stroke="rgb(10%,10%,16%)" x1="195" x2="158" y1="683" y2="671" /><line stroke="rgb(10%,10%,16%)" x1="158" x2="158" y1="671" y2="671" /><line stroke="rgb(10%,10%,16%)" x1="158" x2="911" y1="671" y2="706" /><line stroke="rgb(10%,10%,16%)" x1="911" x2="935" y1="706" y2="718" /><line stroke="rgb(10%,10%,16%)" x1="935" x2="950" y1="718" y2="707" /><line stroke="rgb(10%,10%,16%)" x1="950" x2="961" y1="707" y2="808" /><line stroke="rgb(10%,10%,16%)" x1="961" x2="972" y1="808" y2="894" /><line stroke="rgb(10%,10%,16%)" x1="972" x2="1008" y1="894" y2="906" /><line stroke="rgb(10%,10%,16%)" x1="1008" x2="986" y1="906" y2="934" /><line stroke="rgb(10%,10%,16%)" x1="986" x2="975" y1="934" y2="916" /><line stroke="rgb(10%,10%,16%)" x1="975" x2="964" y1="916" y2="946" /><line stroke="rgb(10%,10%,16%)" x1="964" x2="975" y1="946" y2="957" /><line stroke="rgb(10%,10%,16%)" x1="975" x2="988" y1="957" y2="977" /><line stroke="rgb(10%,10%,16%)" x1="988" x2="976" y1="977" y2="1012" /><line stroke="rgb(10%,10%,16%)" x1="976" x2="965" y1="1012" y2="1047" /><line stroke="rgb(10%,10%,16%)" x1="965" x2="949" y1="1047" y2="1062" /><line stroke="rgb(10%,10%,16%)" x1="949" x2="922" y1="1062" y2="1051" /><line stroke="rgb(10%,10%,16%)" x1="922" x2="911" y1="1051" y2="912" /><line stroke="rgb(10%,10%,16%)" x1="911" x2="911" y1="912" y2="707" /><line stroke="rgb(10%,10%,16%)" x1="911" x2="1013" y1="707" y2="782" /><line stroke="rgb(10%,10%,16%)" x1="1013" x2="1013" y1="782" y2="782" /><line stroke="rgb(10%,10%,16%)" x1="1013" x2="1050" y1="782" y2="803" /><line stroke="rgb(10%,10%,16%)" x1="1050" x2="1029" y1="803" y2="827" /><line stroke="rgb(10%,10%,16%)" x1="1029" x2="1018" y1="827" y2="815" /><line stroke="rgb(10%,10%,16%)" x1="1018" x2="1011" y1="815" y2="784" /><line stroke="rgb(10%,10%,16%)" x1="1011" x2="676" y1="784" y2="796" /><line stroke="rgb(10%,10%,16%)" x1="676" x2="676" y1="796" y2="796" /><line stroke="rgb(10%,10%,16%)" x1="676" x2="695" y1="796" y2="807" /><line stroke="rgb(10%,10%,16%)" x1="695" x2="679" y1="807" y2="904" /><line stroke="rgb(10%,10%,16%)" x1="679" x2="668" y1="904" y2="875" /><line stroke="rgb(10%,10%,16%)" x1="668" x2="679" y1="875" y2="835" /><line stroke="rgb(10%,10%,16%)" x1="679" x2="676" y1="835" y2="809" /><line stroke="rgb(10%,10%,16%)" x1="676" x2="1001" y1="809" y2="843" /><line stroke="rgb(10%,10%,16%)" x1="1001" x2="1001" y1="843" y2="843" /><line stroke="rgb(10%,10%,16%)" x1="1001" x2="1031" y1="843" y2="859" /><line stroke="rgb(10%,10%,16%)" x1="1031" x2="1020" y1="859" y2="881" /><line stroke="rgb(10%,10%,16%)" x1="1020" x2="1005" y1="881" y2="893" /><line stroke="rgb(10%,10%,16%)" x1="1005" x2="994" y1="893" y2="870" /><line stroke="rgb(10%,10%,16%)" x1="994" x2="1001" y1="870" y2="851" /><line stroke="rgb(10%,10%,16%)" x1="1001" x2="735" y1="851" y2="938" /><line stroke="rgb(10%,10%,16%)" x1="735" x2="749" y1="938" y2="955" /><line stroke="rgb(10%,10%,16%)" x1="749" x2="707" y1="955" y2="966" /><line stroke="rgb(10%,10%,16%)" x1="707" x2="720" y1="966" y2="988" /><line stroke="rgb(10%,10%,16%)" x1="720" x2="733" y1="988" y2="1004" /><line stroke="rgb(10%,10%,16%)" x1="733" x2="707" y1="1004" y2="1017" /><line stroke="rgb(10%,10%,16%)" x1="707" x2="718" y1="1017" y2="1071" /><line stroke="rgb(10%,10%,16%)" x1="718" x2="729" y1="1071" y2="1152" /><line stroke="rgb(10%,10%,16%)" x1="729" x2="718" y1="1152" y2="1187" /><line stroke="rgb(10%,10%,16%)" x1="718" x2="703" y1="1187" y2="1240" /><line stroke="rgb(10%,10%,16%)" x1="703" x2="690" y1="1240" y2="1226" /><line stroke="rgb(10%,10%,16%)" x1="690" x2="677" y1="1226" y2="1204" /><line stroke="rgb(10%,10%,16%)" x1="677" x2="663" y1="1204" y2="1236" /><line stroke="rgb(10%,10%,16%)" x1="663" x2="645" y1="1236" y2="1222" /><line stroke="rgb(10%,10%,16%)" x1="645" x2="629" y1="1222" y2="1135" /><line stroke="rgb(10%,10%,16%)" x1="629" x2="617" y1="1135" y2="1088" /><line stroke="rgb(10%,10%,16%)" x1="617" x2="606" y1="1088" y2="1029" /><line stroke="rgb(10%,10%,16%)" x1="606" x2="582" y1="1029" y2="1001" /><line stroke="rgb(10%,10%,16%)" x1="582" x2="605" y1="1001" y2="957" /><line stroke="rgb(10%,10%,16%)" x1="605" x2="674" y1="957" y2="942" /><line stroke="rgb(10%,10%,16%)" x1="674" x2="735" y1="942" y2="940" /><line stroke="rgb(10%,10%,16%)" x1="735" x2="1008" y1="940" y2="973" /><line stroke="rgb(10%,10%,16%)" x1="1008" x2="1008" y1="973" y2="973" /><line stroke="rgb(10%,10%,16%)" x1="1008" x2="1052" y1="973" y2="984" /><line stroke="rgb(10%,10%,16%)" x1="1052" x2="1030" y1="984" y2="1032" /><line stroke="rgb(10%,10%,16%)" x1="1030" x2="1003" y1="1032" y2="1021" /><line stroke="rgb(10%,10%,16%)" x1="1003" x2="1006" y1="1021" y2="975" /><line stroke="rgb(10%,10%,16%)" x1="1006" x2="986" y1="975" y2="1028" /><line stroke="rgb(10%,10%,16%)" x1="986" x2="986" y1="1028" y2="1028" /><line stroke="rgb(10%,10%,16%)" x1="986" x2="1032" y1="1028" y2="1039" /><line stroke="rgb(10%,10%,16%)" x1="1032" x2="1062" y1="1039" y2="1050" /><line stroke="rgb(10%,10%,16%)" x1="1062" x2="1040" y1="1050" y2="1081" /><line stroke="rgb(10%,10%,16%)" x1="1040" x2="1007" y1="1081" y2="1070" /><line stroke="rgb(10%,10%,16%)" x1="1007" x2="977" y1="1070" y2="1049" /><line stroke="rgb(10%,10%,16%)" x1="977" x2="986" y1="1049" y2="1031" /><line stroke="rgb(10%,10%,16%)" x1="986" x2="921" y1="1031" y2="1062" /><line stroke="rgb(10%,10%,16%)" x1="921" x2="921" y1="1062" y2="1062" /><line stroke="rgb(10%,10%,16%)" x1="921" x2="963" y1="1062" y2="1073" /><line stroke="rgb(10%,10%,16%)" x1="963" x2="952" y1="1073" y2="1123" /><line stroke="rgb(10%,10%,16%)" x1="952" x2="925" y1="1123" y2="1111" /><line stroke="rgb(10%,10%,16%)" x1="925" x2="921" y1="1111" y2="1075" /><line stroke="rgb(10%,10%,16%)" x1="921" x2="113" y1="1075" y2="1078" /><line stroke="rgb(10%,10%,16%)" x1="113" x2="128" y1="1078" y2="1106" /><line stroke="rgb(10%,10%,16%)" x1="128" x2="117" y1="1106" y2="1117" /><line stroke="rgb(10%,10%,16%)" x1="117" x2="101" y1="1117" y2="1129" /><line stroke="rgb(10%,10%,16%)" x1="101" x2="88" y1="1129" y2="1146" /><line stroke="rgb(10%,10%,16%)" x1="88" x2="75" y1="1146" y2="1181" /><line stroke="rgb(10%,10%,16%)" x1="75" x2="87" y1="1181" y2="1217" /><line stroke="rgb(10%,10%,16%)" x1="87" x2="148" y1="1217" y2="1228" /><line stroke="rgb(10%,10%,16%)" x1="148" x2="160" y1="1228" y2="1243" /><line stroke="rgb(10%,10%,16%)" x1="160" x2="147" y1="1243" y2="1264" /><line stroke="rgb(10%,10%,16%)" x1="147" x2="115" y1="1264" y2="1251" /><line stroke="rgb(10%,10%,16%)" x1="115" x2="77" y1="1251" y2="1262" /><line stroke="rgb(10%,10%,16%)" x1="77" x2="64" y1="1262" y2="1283" /><line stroke="rgb(10%,10%,16%)" x1="64" x2="40" y1="1283" y2="1271" /><line stroke="rgb(10%,10%,16%)" x1="40" x2="16" y1="1271" y2="1252" /><line stroke="rgb(10%,10%,16%)" x1="16" x2="27" y1="1252" y2="1190" /><line stroke="rgb(10%,10%,16%)" x1="27" x2="38" y1="1190" y2="1178" /><line stroke="rgb(10%,10%,16%)" x1="38" x2="50" y1="1178" y2="1160" /><line stroke="rgb(10%,10%,16%)" x1="50" x2="61" y1="1160" y2="1144" /><line stroke="rgb(10%,10%,16%)" x1="61" x2="75" y1="1144" y2="1133" /><line stroke="rgb(10%,10%,16%)" x1="75" x2="87" y1="1133" y2="1102" /><line stroke="rgb(10%,10%,16%)" x1="87" x2="109" y1="1102" y2="1090" /><line stroke="rgb(10%,10%,16%)" x1="109" x2="113" y1="1090" y2="1086" /><line stroke="rgb(10%,10%,16%)" x1="113" x2="141" y1="1086" y2="1079" /><line stroke="rgb(10%,10%,16%)" x1="141" x2="200" y1="1079" y2="1096" /><line stroke="rgb(10%,10%,16%)" x1="200" x2="174" y1="1096" y2="1117" /><line stroke="rgb(10%,10%,16%)" x1="174" x2="162" y1="1117" y2="1102" /><line stroke="rgb(10%,10%,16%)" x1="162" x2="141" y1="1102" y2="1094" /><line stroke="rgb(10%,10%,16%)" x1="141" x2="1071" y1="1094" y2="1191" /><line stroke="rgb(10%,10%,16%)" x1="1071" x2="1048" y1="1191" y2="1202" /><line stroke="rgb(10%,10%,16%)" x1="1048" x2="1024" y1="1202" y2="1214" /><line stroke="rgb(10%,10%,16%)" x1="1024" x2="1000" y1="1214" y2="1226" /><line stroke="rgb(10%,10%,16%)" x1="1000" x2="978" y1="1226" y2="1238" /><line stroke="rgb(10%,10%,16%)" x1="978" x2="955" y1="1238" y2="1251" /><line stroke="rgb(10%,10%,16%)" x1="955" x2="928" y1="1251" y2="1266" /><line stroke="rgb(10%,10%,16%)" x1="928" x2="903" y1="1266" y2="1278" /><line stroke="rgb(10%,10%,16%)" x1="903" x2="880" y1="1278" y2="1260" /><line stroke="rgb(10%,10%,16%)" x1="880" x2="857" y1="1260" y2="1248" /><line stroke="rgb(10%,10%,16%)" x1="857" x2="873" y1="1248" y2="1260" /><line stroke="rgb(10%,10%,16%)" x1="873" x2="852" y1="1260" y2="1299" /><line stroke="rgb(10%,10%,16%)" x1="852" x2="834" y1="1299" y2="1270" /><line stroke="rgb(10%,10%,16%)" x1="834" x2="819" y1="1270" y2="1240" /><line stroke="rgb(10%,10%,16%)" x1="819" x2="805" y1="1240" y2="1223" /><line stroke="rgb(10%,10%,16%)" x1="805" x2="794" y1="1223" y2="1246" /><line stroke="rgb(10%,10%,16%)" x1="794" x2="781" y1="1246" y2="1323" /><line stroke="rgb(10%,10%,16%)" x1="781" x2="767" y1="1323" y2="1363" /><line stroke="rgb(10%,10%,16%)" x1="767" x2="749" y1="1363" y2="1381" /><line stroke="rgb(10%,10%,16%)" x1="749" x2="731" y1="1381" y2="1399" /><line stroke="rgb(10%,10%,16%)" x1="731" x2="713" y1="1399" y2="1413" /><line stroke="rgb(10%,10%,16%)" x1="713" x2="699" y1="1413" y2="1439" /><line stroke="rgb(10%,10%,16%)" x1="699" x2="804" y1="1439" y2="1412" /><line stroke="rgb(10%,10%,16%)" x1="804" x2="816" y1="1412" y2="1367" /><line stroke="rgb(10%,10%,16%)" x1="816" x2="828" y1="1367" y2="1312" /><line stroke="rgb(10%,10%,16%)" x1="828" x2="847" y1="1312" y2="1298" /><line stroke="rgb(10%,10%,16%)" x1="847" x2="861" y1="1298" y2="1320" /><line stroke="rgb(10%,10%,16%)" x1="861" x2="839" y1="1320" y2="1346" /><line stroke="rgb(10%,10%,16%)" x1="839" x2="893" y1="1346" y2="1439" /><line stroke="rgb(10%,10%,16%)" x1="893" x2="906" y1="1439" y2="1404" /><line stroke="rgb(10%,10%,16%)" x1="906" x2="918" y1="1404" y2="1380" /><line stroke="rgb(10%,10%,16%)" x1="918" x2="957" y1="1380" y2="1367" /><line stroke="rgb(10%,10%,16%)" x1="957" x2="980" y1="1367" y2="1341" /><line stroke="rgb(10%,10%,16%)" x1="980" x2="1008" y1="1341" y2="1309" /><line stroke="rgb(10%,10%,16%)" x1="1008" x2="1024" y1="1309" y2="1290" /><line stroke="rgb(10%,10%,16%)" x1="1024" x2="1040" y1="1290" y2="1274" /><line stroke="rgb(10%,10%,16%)" x1="1040" x2="1065" y1="1274" y2="1247" /><line stroke="rgb(10%,10%,16%)" x1="1065" x2="1071" y1="1247" y2="1242" /><line stroke="rgb(10%,10%,16%)" x1="1071" x2="533" y1="1242" y2="1210" /><line stroke="rgb(10%,10%,16%)" x1="533" x2="533" y1="1210" y2="1210" /><line stroke="rgb(10%,10%,16%)" x1="533" x2="522" y1="1210" y2="1256" /><line stroke="rgb(10%,10%,16%)" x1="522" x2="534" y1="1256" y2="1439" /><line stroke="rgb(10%,10%,16%)" x1="534" x2="534" y1="1439" y2="1210" /><line stroke="rgb(10%,10%,16%)" x1="534" x2="288" y1="1210" y2="1254" /><line stroke="rgb(10%,10%,16%)" x1="288" x2="288" y1="1254" y2="1254" /><line stroke="rgb(10%,10%,16%)" x1="288" x2="276" y1="1254" y2="1268" /><line stroke="rgb(10%,10%,16%)" x1="276" x2="251" y1="1268" y2="1279" /><line stroke="rgb(10%,10%,16%)" x1="251" x2="240" y1="1279" y2="1306" /><line stroke="rgb(10%,10%,16%)" x1="240" x2="227" y1="1306" y2="1322" /><line stroke="rgb(10%,10%,16%)" x1="227" x2="215" y1="1322" y2="1336" /><line stroke="rgb(10%,10%,16%)" x1="215" x2="245" y1="1336" y2="1323" /><line stroke="rgb(10%,10%,16%)" x1="245" x2="271" y1="1323" y2="1312" /><line stroke="rgb(10%,10%,16%)" x1="271" x2="288" y1="1312" y2="1298" /><line stroke="rgb(10%,10%,16%)" x1="288" x2="290" y1="1298" y2="1254" /><line stroke="rgb(10%,10%,16%)" x1="290" x2="612" y1="1254" y2="1293" /><line stroke="rgb(10%,10%,16%)" x1="612" x2="612" y1="1293" y2="1293" /><line stroke="rgb(10%,10%,16%)" x1="612" x2="639" y1="1293" y2="1304" /><line stroke="rgb(10%,10%,16%)" x1="639" x2="627" y1="1304" y2="1320" /><line stroke="rgb(10%,10%,16%)" x1="627" x2="613" y1="1320" y2="1307" /><line stroke="rgb(10%,10%,16%)" x1="613" x2="612" y1="1307" y2="1305" /><line stroke="rgb(10%,10%,16%)" x1="612" x2="167" y1="1305" y2="1371" /><line stroke="rgb(10%,10%,16%)" x1="167" x2="167" y1="1371" y2="1371" /><line stroke="rgb(10%,10%,16%)" x1="167" x2="156" y1="1371" y2="1382" /><line stroke="rgb(10%,10%,16%)" x1="156" x2="222" y1="1382" y2="1439" /><line stroke="rgb(10%,10%,16%)" x1="222" x2="204" y1="1439" y2="1427" /><line stroke="rgb(10%,10%,16%)" x1="204" x2="216" y1="1427" y2="1402" /><line stroke="rgb(10%,10%,16%)" x1="216" x2="205" y1="1402" y2="1387" /><line stroke="rgb(10%,10%,16%)" x1="205" x2="187" y1="1387" y2="1376" /><line stroke="rgb(10%,10%,16%)" x1="187" x2="176" y1="1376" y2="1371" /><line stroke="rgb(10%,10%,16%)" x1="176" x2="1068" y1="1371" y2="1403" /><line stroke="rgb(10%,10%,16%)" x1="1068" x2="1068" y1="1403" y2="1403" /><line stroke="rgb(10%,10%,16%)" x1="1068" x2="1045" y1="1403" y2="1418" /><line stroke="rgb(10%,10%,16%)" x1="1045" x2="1071" y1="1418" y2="1439" /><line stroke="rgb(10%,10%,16%)" x1="1071" x2="1071" y1="1439" y2="1403" /></g></svg>