<?xml version="1.0" encoding="utf-8" ?>
<svg baseProfile="full" height="1160" version="1.1" width="1160" xmlns="http://www.w3.org/2000/svg" xmlns:ev="http://www.w3.org/2001/xml-events" xmlns:xlink="http://www.w3.org/1999/xlink"><defs /><g fill="none" id="shapes"><line stroke="rgb(10%,10%,16%)" x1="237" x2="1038" y1="400" y2="533" /><line stroke="rgb(10%,10%,16%)" x1="1038" x2="968" y1="533" y2="701" /><line stroke="rgb(10%,10%,16%)" x1="968" x2="127" y1="701" y2="655" /><line stroke="rgb(10%,10%,16%)" x1="127" x2="185" y1="655" y2="417" /><line stroke="rgb(10%,10%,16%)" x1="185" x2="220" y1="417" y2="400" /><line stroke="rgb(10%,10%,16%)" x1="220" x2="841" y1="400" y2="452" /><line stroke="rgb(10%,10%,16%)" x1="841" x2="841" y1="452" y2="452" /><line stroke="rgb(10%,10%,16%)" x1="841" x2="875" y1="452" y2="672" /><line stroke="rgb(10%,10%,16%)" x1="875" x2="951" y1="672" y2="638" /><line stroke="rgb(10%,10%,16%)" x1="951" x2="916" y1="638" y2="464" /><line stroke="rgb(10%,10%,16%)" x1="916" x2="899" y1="464" y2="452" /><line stroke="rgb(10%,10%,16%)" x1="899" x2="638" y1="452" y2="452" /><line stroke="rgb(10%,10%,16%)" x1="638" x2="684" y1="452" y2="678" /><line stroke="rgb(10%,10%,16%)" x1="684" x2="725" y1="678" y2="643" /><line stroke="rgb(10%,10%,16%)" x1="725" x2="701" y1="643" y2="452" /><line stroke="rgb(10%,10%,16%)" x1="701" x2="440" y1="452" y2="452" /><line stroke="rgb(10%,10%,16%)" x1="440" x2="487" y1="452" y2="678" /><line stroke="rgb(10%,10%,16%)" x1="487" x2="522" y1="678" y2="643" /><line stroke="rgb(10%,10%,16%)" x1="522" x2="504" y1="643" y2="452" /><line stroke="rgb(10%,10%,16%)" x1="504" x2="243" y1="452" y2="452" /><line stroke="rgb(10%,10%,16%)" x1="243" x2="174" y1="452" y2="504" /><line stroke="rgb(10%,10%,16%)" x1="174" x2="214" y1="504" y2="661" /><line stroke="rgb(10%,10%,16%)" x1="214" x2="319" y1="661" y2="626" /><line stroke="rgb(10%,10%,16%)" x1="319" x2="301" y1="626" y2="452" /></g></svg>