<?xml version="1.0" encoding="utf-8" ?>
<svg baseProfile="full" height="868" version="1.1" width="544" xmlns="http://www.w3.org/2000/svg" xmlns:ev="http://www.w3.org/2001/xml-events" xmlns:xlink="http://www.w3.org/1999/xlink"><defs /><g fill="none" id="shapes"><line stroke="rgb(10%,10%,16%)" x1="0" x2="0" y1="868" y2="0" /><line stroke="rgb(10%,10%,16%)" x1="0" x2="119" y1="0" y2="835" /><line stroke="rgb(10%,10%,16%)" x1="119" x2="101" y1="835" y2="549" /><line stroke="rgb(10%,10%,16%)" x1="101" x2="115" y1="549" y2="460" /><line stroke="rgb(10%,10%,16%)" x1="115" x2="130" y1="460" y2="420" /><line stroke="rgb(10%,10%,16%)" x1="130" x2="154" y1="420" y2="385" /><line stroke="rgb(10%,10%,16%)" x1="154" x2="196" y1="385" y2="361" /><line stroke="rgb(10%,10%,16%)" x1="196" x2="225" y1="361" y2="384" /><line stroke="rgb(10%,10%,16%)" x1="225" x2="194" y1="384" y2="398" /><line stroke="rgb(10%,10%,16%)" x1="194" x2="173" y1="398" y2="424" /><line stroke="rgb(10%,10%,16%)" x1="173" x2="158" y1="424" y2="464" /><line stroke="rgb(10%,10%,16%)" x1="158" x2="144" y1="464" y2="537" /><line stroke="rgb(10%,10%,16%)" x1="144" x2="543" y1="537" y2="0" /><line stroke="rgb(10%,10%,16%)" x1="543" x2="236" y1="0" y2="9" /><line stroke="rgb(10%,10%,16%)" x1="236" x2="361" y1="9" y2="32" /><line stroke="rgb(10%,10%,16%)" x1="361" x2="417" y1="32" y2="65" /><line stroke="rgb(10%,10%,16%)" x1="417" x2="495" y1="65" y2="149" /><line stroke="rgb(10%,10%,16%)" x1="495" x2="521" y1="149" y2="197" /><line stroke="rgb(10%,10%,16%)" x1="521" x2="457" y1="197" y2="360" /><line stroke="rgb(10%,10%,16%)" x1="457" x2="505" y1="360" y2="329" /><line stroke="rgb(10%,10%,16%)" x1="505" x2="478" y1="329" y2="159" /><line stroke="rgb(10%,10%,16%)" x1="478" x2="395" y1="159" y2="75" /><line stroke="rgb(10%,10%,16%)" x1="395" x2="346" y1="75" y2="49" /><line stroke="rgb(10%,10%,16%)" x1="346" x2="210" y1="49" y2="37" /><line stroke="rgb(10%,10%,16%)" x1="210" x2="145" y1="37" y2="62" /><line stroke="rgb(10%,10%,16%)" x1="145" x2="69" y1="62" y2="135" /><line stroke="rgb(10%,10%,16%)" x1="69" x2="45" y1="135" y2="183" /><line stroke="rgb(10%,10%,16%)" x1="45" x2="102" y1="183" y2="304" /><line stroke="rgb(10%,10%,16%)" x1="102" x2="170" y1="304" y2="328" /><line stroke="rgb(10%,10%,16%)" x1="170" x2="287" y1="328" y2="377" /><line stroke="rgb(10%,10%,16%)" x1="287" x2="191" y1="377" y2="357" /><line stroke="rgb(10%,10%,16%)" x1="191" x2="117" y1="357" y2="334" /><line stroke="rgb(10%,10%,16%)" x1="117" x2="47" y1="334" y2="311" /><line stroke="rgb(10%,10%,16%)" x1="47" x2="30" y1="311" y2="156" /><line stroke="rgb(10%,10%,16%)" x1="30" x2="69" y1="156" y2="91" /><line stroke="rgb(10%,10%,16%)" x1="69" x2="130" y1="91" y2="42" /><line stroke="rgb(10%,10%,16%)" x1="130" x2="186" y1="42" y2="18" /><line stroke="rgb(10%,10%,16%)" x1="186" x2="232" y1="18" y2="9" /><line stroke="rgb(10%,10%,16%)" x1="232" x2="169" y1="9" y2="118" /><line stroke="rgb(10%,10%,16%)" x1="169" x2="314" y1="118" y2="132" /><line stroke="rgb(10%,10%,16%)" x1="314" x2="409" y1="132" y2="248" /><line stroke="rgb(10%,10%,16%)" x1="409" x2="449" y1="248" y2="292" /><line stroke="rgb(10%,10%,16%)" x1="449" x2="413" y1="292" y2="276" /><line stroke="rgb(10%,10%,16%)" x1="413" x2="327" y1="276" y2="260" /><line stroke="rgb(10%,10%,16%)" x1="327" x2="268" y1="260" y2="249" /><line stroke="rgb(10%,10%,16%)" x1="268" x2="356" y1="249" y2="160" /><line stroke="rgb(10%,10%,16%)" x1="356" x2="227" y1="160" y2="146" /><line stroke="rgb(10%,10%,16%)" x1="227" x2="199" y1="146" y2="290" /><line stroke="rgb(10%,10%,16%)" x1="199" x2="243" y1="290" y2="319" /><line stroke="rgb(10%,10%,16%)" x1="243" x2="169" y1="319" y2="161" /><line stroke="rgb(10%,10%,16%)" x1="169" x2="372" y1="161" y2="289" /><line stroke="rgb(10%,10%,16%)" x1="372" x2="367" y1="289" y2="289" /><line stroke="rgb(10%,10%,16%)" x1="367" x2="324" y1="289" y2="290" /><line stroke="rgb(10%,10%,16%)" x1="324" x2="324" y1="290" y2="293" /><line stroke="rgb(10%,10%,16%)" x1="324" x2="299" y1="293" y2="424" /><line stroke="rgb(10%,10%,16%)" x1="299" x2="299" y1="424" y2="427" /><line stroke="rgb(10%,10%,16%)" x1="299" x2="371" y1="427" y2="429" /><line stroke="rgb(10%,10%,16%)" x1="371" x2="371" y1="429" y2="432" /></g></svg>