<?xml version="1.0" encoding="utf-8" ?>
<svg baseProfile="full" height="1300" version="1.1" width="1148" xmlns="http://www.w3.org/2000/svg" xmlns:ev="http://www.w3.org/2001/xml-events" xmlns:xlink="http://www.w3.org/1999/xlink"><defs /><g fill="none" id="shapes"><line stroke="rgb(10%,10%,16%)" x1="560" x2="554" y1="910" y2="916" /><line stroke="rgb(10%,10%,16%)" x1="554" x2="547" y1="916" y2="916" /><line stroke="rgb(10%,10%,16%)" x1="547" x2="541" y1="916" y2="923" /><line stroke="rgb(10%,10%,16%)" x1="541" x2="541" y1="923" y2="929" /><line stroke="rgb(10%,10%,16%)" x1="541" x2="534" y1="929" y2="936" /><line stroke="rgb(10%,10%,16%)" x1="534" x2="534" y1="936" y2="942" /><line stroke="rgb(10%,10%,16%)" x1="534" x2="528" y1="942" y2="949" /><line stroke="rgb(10%,10%,16%)" x1="528" x2="528" y1="949" y2="981" /><line stroke="rgb(10%,10%,16%)" x1="528" x2="528" y1="981" y2="975" /><line stroke="rgb(10%,10%,16%)" x1="528" x2="541" y1="975" y2="962" /><line stroke="rgb(10%,10%,16%)" x1="541" x2="541" y1="962" y2="955" /><line stroke="rgb(10%,10%,16%)" x1="541" x2="567" y1="955" y2="929" /><line stroke="rgb(10%,10%,16%)" x1="567" x2="567" y1="929" y2="916" /><line stroke="rgb(10%,10%,16%)" x1="567" x2="815" y1="916" y2="838" /><line stroke="rgb(10%,10%,16%)" x1="815" x2="808" y1="838" y2="845" /><line stroke="rgb(10%,10%,16%)" x1="808" x2="795" y1="845" y2="845" /><line stroke="rgb(10%,10%,16%)" x1="795" x2="789" y1="845" y2="851" /><line stroke="rgb(10%,10%,16%)" x1="789" x2="776" y1="851" y2="851" /><line stroke="rgb(10%,10%,16%)" x1="776" x2="750" y1="851" y2="877" /><line stroke="rgb(10%,10%,16%)" x1="750" x2="750" y1="877" y2="884" /><line stroke="rgb(10%,10%,16%)" x1="750" x2="743" y1="884" y2="890" /><line stroke="rgb(10%,10%,16%)" x1="743" x2="743" y1="890" y2="923" /><line stroke="rgb(10%,10%,16%)" x1="743" x2="750" y1="923" y2="916" /><line stroke="rgb(10%,10%,16%)" x1="750" x2="750" y1="916" y2="903" /><line stroke="rgb(10%,10%,16%)" x1="750" x2="763" y1="903" y2="890" /><line stroke="rgb(10%,10%,16%)" x1="763" x2="769" y1="890" y2="890" /><line stroke="rgb(10%,10%,16%)" x1="769" x2="782" y1="890" y2="877" /><line stroke="rgb(10%,10%,16%)" x1="782" x2="828" y1="877" y2="877" /><line stroke="rgb(10%,10%,16%)" x1="828" x2="834" y1="877" y2="884" /><line stroke="rgb(10%,10%,16%)" x1="834" x2="841" y1="884" y2="884" /><line stroke="rgb(10%,10%,16%)" x1="841" x2="861" y1="884" y2="903" /><line stroke="rgb(10%,10%,16%)" x1="861" x2="861" y1="903" y2="910" /><line stroke="rgb(10%,10%,16%)" x1="861" x2="867" y1="910" y2="916" /><line stroke="rgb(10%,10%,16%)" x1="867" x2="867" y1="916" y2="929" /><line stroke="rgb(10%,10%,16%)" x1="867" x2="874" y1="929" y2="936" /><line stroke="rgb(10%,10%,16%)" x1="874" x2="874" y1="936" y2="955" /><line stroke="rgb(10%,10%,16%)" x1="874" x2="867" y1="955" y2="962" /><line stroke="rgb(10%,10%,16%)" x1="867" x2="867" y1="962" y2="968" /><line stroke="rgb(10%,10%,16%)" x1="867" x2="880" y1="968" y2="955" /><line stroke="rgb(10%,10%,16%)" x1="880" x2="880" y1="955" y2="949" /><line stroke="rgb(10%,10%,16%)" x1="880" x2="887" y1="949" y2="942" /><line stroke="rgb(10%,10%,16%)" x1="887" x2="887" y1="942" y2="929" /><line stroke="rgb(10%,10%,16%)" x1="887" x2="893" y1="929" y2="923" /><line stroke="rgb(10%,10%,16%)" x1="893" x2="893" y1="923" y2="897" /><line stroke="rgb(10%,10%,16%)" x1="893" x2="887" y1="897" y2="890" /><line stroke="rgb(10%,10%,16%)" x1="887" x2="887" y1="890" y2="877" /><line stroke="rgb(10%,10%,16%)" x1="887" x2="854" y1="877" y2="845" /><line stroke="rgb(10%,10%,16%)" x1="854" x2="841" y1="845" y2="845" /><line stroke="rgb(10%,10%,16%)" x1="841" x2="834" y1="845" y2="838" /><line stroke="rgb(10%,10%,16%)" x1="834" x2="1076" y1="838" y2="0" /><line stroke="rgb(10%,10%,16%)" x1="1076" x2="1076" y1="0" y2="136" /><line stroke="rgb(10%,10%,16%)" x1="1076" x2="1069" y1="136" y2="143" /><line stroke="rgb(10%,10%,16%)" x1="1069" x2="1069" y1="143" y2="149" /><line stroke="rgb(10%,10%,16%)" x1="1069" x2="1076" y1="149" y2="156" /><line stroke="rgb(10%,10%,16%)" x1="1076" x2="1089" y1="156" y2="156" /><line stroke="rgb(10%,10%,16%)" x1="1089" x2="1095" y1="156" y2="162" /><line stroke="rgb(10%,10%,16%)" x1="1095" x2="1095" y1="162" y2="26" /><line stroke="rgb(10%,10%,16%)" x1="1095" x2="1102" y1="26" y2="19" /><line stroke="rgb(10%,10%,16%)" x1="1102" x2="1102" y1="19" y2="13" /><line stroke="rgb(10%,10%,16%)" x1="1102" x2="1108" y1="13" y2="6" /><line stroke="rgb(10%,10%,16%)" x1="1108" x2="1128" y1="6" y2="6" /><line stroke="rgb(10%,10%,16%)" x1="1128" x2="1134" y1="6" y2="13" /><line stroke="rgb(10%,10%,16%)" x1="1134" x2="1134" y1="13" y2="65" /><line stroke="rgb(10%,10%,16%)" x1="1134" x2="1141" y1="65" y2="71" /><line stroke="rgb(10%,10%,16%)" x1="1141" x2="1141" y1="71" y2="110" /><line stroke="rgb(10%,10%,16%)" x1="1141" x2="1134" y1="110" y2="117" /><line stroke="rgb(10%,10%,16%)" x1="1134" x2="1141" y1="117" y2="123" /><line stroke="rgb(10%,10%,16%)" x1="1141" x2="1141" y1="123" y2="143" /><line stroke="rgb(10%,10%,16%)" x1="1141" x2="1134" y1="143" y2="149" /><line stroke="rgb(10%,10%,16%)" x1="1134" x2="1134" y1="149" y2="227" /><line stroke="rgb(10%,10%,16%)" x1="1134" x2="1141" y1="227" y2="234" /><line stroke="rgb(10%,10%,16%)" x1="1141" x2="1141" y1="234" y2="0" /><line stroke="rgb(10%,10%,16%)" x1="1141" x2="0" y1="0" y2="0" /><line stroke="rgb(10%,10%,16%)" x1="0" x2="0" y1="0" y2="1293" /><line stroke="rgb(10%,10%,16%)" x1="0" x2="508" y1="1293" y2="1293" /><line stroke="rgb(10%,10%,16%)" x1="508" x2="508" y1="1293" y2="1280" /><line stroke="rgb(10%,10%,16%)" x1="508" x2="502" y1="1280" y2="1274" /><line stroke="rgb(10%,10%,16%)" x1="502" x2="502" y1="1274" y2="1196" /><line stroke="rgb(10%,10%,16%)" x1="502" x2="495" y1="1196" y2="1189" /><line stroke="rgb(10%,10%,16%)" x1="495" x2="495" y1="1189" y2="1118" /><line stroke="rgb(10%,10%,16%)" x1="495" x2="489" y1="1118" y2="1111" /><line stroke="rgb(10%,10%,16%)" x1="489" x2="489" y1="1111" y2="1072" /><line stroke="rgb(10%,10%,16%)" x1="489" x2="482" y1="1072" y2="1066" /><line stroke="rgb(10%,10%,16%)" x1="482" x2="482" y1="1066" y2="1014" /><line stroke="rgb(10%,10%,16%)" x1="482" x2="476" y1="1014" y2="1007" /><line stroke="rgb(10%,10%,16%)" x1="476" x2="476" y1="1007" y2="955" /><line stroke="rgb(10%,10%,16%)" x1="476" x2="469" y1="955" y2="949" /><line stroke="rgb(10%,10%,16%)" x1="469" x2="469" y1="949" y2="916" /><line stroke="rgb(10%,10%,16%)" x1="469" x2="463" y1="916" y2="910" /><line stroke="rgb(10%,10%,16%)" x1="463" x2="463" y1="910" y2="884" /><line stroke="rgb(10%,10%,16%)" x1="463" x2="456" y1="884" y2="877" /><line stroke="rgb(10%,10%,16%)" x1="456" x2="456" y1="877" y2="851" /><line stroke="rgb(10%,10%,16%)" x1="456" x2="450" y1="851" y2="845" /><line stroke="rgb(10%,10%,16%)" x1="450" x2="450" y1="845" y2="819" /><line stroke="rgb(10%,10%,16%)" x1="450" x2="443" y1="819" y2="812" /><line stroke="rgb(10%,10%,16%)" x1="443" x2="443" y1="812" y2="780" /><line stroke="rgb(10%,10%,16%)" x1="443" x2="437" y1="780" y2="773" /><line stroke="rgb(10%,10%,16%)" x1="437" x2="437" y1="773" y2="754" /><line stroke="rgb(10%,10%,16%)" x1="437" x2="430" y1="754" y2="747" /><line stroke="rgb(10%,10%,16%)" x1="430" x2="430" y1="747" y2="741" /><line stroke="rgb(10%,10%,16%)" x1="430" x2="423" y1="741" y2="734" /><line stroke="rgb(10%,10%,16%)" x1="423" x2="423" y1="734" y2="721" /><line stroke="rgb(10%,10%,16%)" x1="423" x2="417" y1="721" y2="715" /><line stroke="rgb(10%,10%,16%)" x1="417" x2="417" y1="715" y2="702" /><line stroke="rgb(10%,10%,16%)" x1="417" x2="410" y1="702" y2="695" /><line stroke="rgb(10%,10%,16%)" x1="410" x2="410" y1="695" y2="682" /><line stroke="rgb(10%,10%,16%)" x1="410" x2="404" y1="682" y2="676" /><line stroke="rgb(10%,10%,16%)" x1="404" x2="404" y1="676" y2="663" /><line stroke="rgb(10%,10%,16%)" x1="404" x2="397" y1="663" y2="656" /><line stroke="rgb(10%,10%,16%)" x1="397" x2="397" y1="656" y2="650" /><line stroke="rgb(10%,10%,16%)" x1="397" x2="391" y1="650" y2="643" /><line stroke="rgb(10%,10%,16%)" x1="391" x2="391" y1="643" y2="630" /><line stroke="rgb(10%,10%,16%)" x1="391" x2="384" y1="630" y2="624" /><line stroke="rgb(10%,10%,16%)" x1="384" x2="384" y1="624" y2="617" /><line stroke="rgb(10%,10%,16%)" x1="384" x2="378" y1="617" y2="611" /><line stroke="rgb(10%,10%,16%)" x1="378" x2="378" y1="611" y2="604" /><line stroke="rgb(10%,10%,16%)" x1="378" x2="371" y1="604" y2="598" /><line stroke="rgb(10%,10%,16%)" x1="371" x2="371" y1="598" y2="591" /><line stroke="rgb(10%,10%,16%)" x1="371" x2="365" y1="591" y2="585" /><line stroke="rgb(10%,10%,16%)" x1="365" x2="365" y1="585" y2="578" /><line stroke="rgb(10%,10%,16%)" x1="365" x2="358" y1="578" y2="572" /><line stroke="rgb(10%,10%,16%)" x1="358" x2="358" y1="572" y2="565" /><line stroke="rgb(10%,10%,16%)" x1="358" x2="352" y1="565" y2="559" /><line stroke="rgb(10%,10%,16%)" x1="352" x2="352" y1="559" y2="552" /><line stroke="rgb(10%,10%,16%)" x1="352" x2="345" y1="552" y2="546" /><line stroke="rgb(10%,10%,16%)" x1="345" x2="345" y1="546" y2="539" /><line stroke="rgb(10%,10%,16%)" x1="345" x2="339" y1="539" y2="533" /><line stroke="rgb(10%,10%,16%)" x1="339" x2="339" y1="533" y2="526" /><line stroke="rgb(10%,10%,16%)" x1="339" x2="326" y1="526" y2="513" /><line stroke="rgb(10%,10%,16%)" x1="326" x2="326" y1="513" y2="507" /><line stroke="rgb(10%,10%,16%)" x1="326" x2="313" y1="507" y2="494" /><line stroke="rgb(10%,10%,16%)" x1="313" x2="313" y1="494" y2="487" /><line stroke="rgb(10%,10%,16%)" x1="313" x2="247" y1="487" y2="422" /><line stroke="rgb(10%,10%,16%)" x1="247" x2="241" y1="422" y2="422" /><line stroke="rgb(10%,10%,16%)" x1="241" x2="228" y1="422" y2="409" /><line stroke="rgb(10%,10%,16%)" x1="228" x2="221" y1="409" y2="409" /><line stroke="rgb(10%,10%,16%)" x1="221" x2="215" y1="409" y2="403" /><line stroke="rgb(10%,10%,16%)" x1="215" x2="208" y1="403" y2="403" /><line stroke="rgb(10%,10%,16%)" x1="208" x2="202" y1="403" y2="396" /><line stroke="rgb(10%,10%,16%)" x1="202" x2="189" y1="396" y2="396" /><line stroke="rgb(10%,10%,16%)" x1="189" x2="182" y1="396" y2="390" /><line stroke="rgb(10%,10%,16%)" x1="182" x2="163" y1="390" y2="390" /><line stroke="rgb(10%,10%,16%)" x1="163" x2="143" y1="390" y2="370" /><line stroke="rgb(10%,10%,16%)" x1="143" x2="123" y1="370" y2="370" /><line stroke="rgb(10%,10%,16%)" x1="123" x2="117" y1="370" y2="377" /><line stroke="rgb(10%,10%,16%)" x1="117" x2="97" y1="377" y2="377" /><line stroke="rgb(10%,10%,16%)" x1="97" x2="91" y1="377" y2="370" /><line stroke="rgb(10%,10%,16%)" x1="91" x2="78" y1="370" y2="370" /><line stroke="rgb(10%,10%,16%)" x1="78" x2="58" y1="370" y2="351" /><line stroke="rgb(10%,10%,16%)" x1="58" x2="58" y1="351" y2="344" /><line stroke="rgb(10%,10%,16%)" x1="58" x2="52" y1="344" y2="338" /><line stroke="rgb(10%,10%,16%)" x1="52" x2="52" y1="338" y2="292" /><line stroke="rgb(10%,10%,16%)" x1="52" x2="58" y1="292" y2="286" /><line stroke="rgb(10%,10%,16%)" x1="58" x2="58" y1="286" y2="279" /><line stroke="rgb(10%,10%,16%)" x1="58" x2="71" y1="279" y2="266" /><line stroke="rgb(10%,10%,16%)" x1="71" x2="78" y1="266" y2="266" /><line stroke="rgb(10%,10%,16%)" x1="78" x2="84" y1="266" y2="260" /><line stroke="rgb(10%,10%,16%)" x1="84" x2="91" y1="260" y2="260" /><line stroke="rgb(10%,10%,16%)" x1="91" x2="97" y1="260" y2="253" /><line stroke="rgb(10%,10%,16%)" x1="97" x2="104" y1="253" y2="253" /><line stroke="rgb(10%,10%,16%)" x1="104" x2="110" y1="253" y2="247" /><line stroke="rgb(10%,10%,16%)" x1="110" x2="117" y1="247" y2="247" /><line stroke="rgb(10%,10%,16%)" x1="117" x2="123" y1="247" y2="240" /><line stroke="rgb(10%,10%,16%)" x1="123" x2="130" y1="240" y2="240" /><line stroke="rgb(10%,10%,16%)" x1="130" x2="136" y1="240" y2="234" /><line stroke="rgb(10%,10%,16%)" x1="136" x2="143" y1="234" y2="234" /><line stroke="rgb(10%,10%,16%)" x1="143" x2="150" y1="234" y2="227" /><line stroke="rgb(10%,10%,16%)" x1="150" x2="189" y1="227" y2="227" /><line stroke="rgb(10%,10%,16%)" x1="189" x2="195" y1="227" y2="221" /><line stroke="rgb(10%,10%,16%)" x1="195" x2="195" y1="221" y2="214" /><line stroke="rgb(10%,10%,16%)" x1="195" x2="208" y1="214" y2="201" /><line stroke="rgb(10%,10%,16%)" x1="208" x2="234" y1="201" y2="201" /><line stroke="rgb(10%,10%,16%)" x1="234" x2="241" y1="201" y2="195" /><line stroke="rgb(10%,10%,16%)" x1="241" x2="241" y1="195" y2="188" /><line stroke="rgb(10%,10%,16%)" x1="241" x2="247" y1="188" y2="182" /><line stroke="rgb(10%,10%,16%)" x1="247" x2="260" y1="182" y2="182" /><line stroke="rgb(10%,10%,16%)" x1="260" x2="300" y1="182" y2="221" /><line stroke="rgb(10%,10%,16%)" x1="300" x2="306" y1="221" y2="221" /><line stroke="rgb(10%,10%,16%)" x1="306" x2="319" y1="221" y2="234" /><line stroke="rgb(10%,10%,16%)" x1="319" x2="319" y1="234" y2="253" /><line stroke="rgb(10%,10%,16%)" x1="319" x2="313" y1="253" y2="260" /><line stroke="rgb(10%,10%,16%)" x1="313" x2="306" y1="260" y2="260" /><line stroke="rgb(10%,10%,16%)" x1="306" x2="300" y1="260" y2="266" /><line stroke="rgb(10%,10%,16%)" x1="300" x2="345" y1="266" y2="312" /><line stroke="rgb(10%,10%,16%)" x1="345" x2="352" y1="312" y2="312" /><line stroke="rgb(10%,10%,16%)" x1="352" x2="371" y1="312" y2="331" /><line stroke="rgb(10%,10%,16%)" x1="371" x2="378" y1="331" y2="331" /><line stroke="rgb(10%,10%,16%)" x1="378" x2="391" y1="331" y2="344" /><line stroke="rgb(10%,10%,16%)" x1="391" x2="397" y1="344" y2="344" /><line stroke="rgb(10%,10%,16%)" x1="397" x2="404" y1="344" y2="351" /><line stroke="rgb(10%,10%,16%)" x1="404" x2="410" y1="351" y2="351" /><line stroke="rgb(10%,10%,16%)" x1="410" x2="417" y1="351" y2="357" /><line stroke="rgb(10%,10%,16%)" x1="417" x2="423" y1="357" y2="357" /><line stroke="rgb(10%,10%,16%)" x1="423" x2="430" y1="357" y2="364" /><line stroke="rgb(10%,10%,16%)" x1="430" x2="450" y1="364" y2="364" /><line stroke="rgb(10%,10%,16%)" x1="450" x2="456" y1="364" y2="370" /><line stroke="rgb(10%,10%,16%)" x1="456" x2="482" y1="370" y2="370" /><line stroke="rgb(10%,10%,16%)" x1="482" x2="489" y1="370" y2="377" /><line stroke="rgb(10%,10%,16%)" x1="489" x2="534" y1="377" y2="377" /><line stroke="rgb(10%,10%,16%)" x1="534" x2="541" y1="377" y2="383" /><line stroke="rgb(10%,10%,16%)" x1="541" x2="587" y1="383" y2="383" /><line stroke="rgb(10%,10%,16%)" x1="587" x2="593" y1="383" y2="390" /><line stroke="rgb(10%,10%,16%)" x1="593" x2="606" y1="390" y2="390" /><line stroke="rgb(10%,10%,16%)" x1="606" x2="613" y1="390" y2="396" /><line stroke="rgb(10%,10%,16%)" x1="613" x2="626" y1="396" y2="396" /><line stroke="rgb(10%,10%,16%)" x1="626" x2="632" y1="396" y2="403" /><line stroke="rgb(10%,10%,16%)" x1="632" x2="639" y1="403" y2="403" /><line stroke="rgb(10%,10%,16%)" x1="639" x2="645" y1="403" y2="409" /><line stroke="rgb(10%,10%,16%)" x1="645" x2="658" y1="409" y2="409" /><line stroke="rgb(10%,10%,16%)" x1="658" x2="665" y1="409" y2="416" /><line stroke="rgb(10%,10%,16%)" x1="665" x2="671" y1="416" y2="416" /><line stroke="rgb(10%,10%,16%)" x1="671" x2="684" y1="416" y2="429" /><line stroke="rgb(10%,10%,16%)" x1="684" x2="691" y1="429" y2="429" /><line stroke="rgb(10%,10%,16%)" x1="691" x2="704" y1="429" y2="442" /><line stroke="rgb(10%,10%,16%)" x1="704" x2="710" y1="442" y2="442" /><line stroke="rgb(10%,10%,16%)" x1="710" x2="730" y1="442" y2="461" /><line stroke="rgb(10%,10%,16%)" x1="730" x2="737" y1="461" y2="461" /><line stroke="rgb(10%,10%,16%)" x1="737" x2="834" y1="461" y2="559" /><line stroke="rgb(10%,10%,16%)" x1="834" x2="834" y1="559" y2="565" /><line stroke="rgb(10%,10%,16%)" x1="834" x2="854" y1="565" y2="585" /><line stroke="rgb(10%,10%,16%)" x1="854" x2="854" y1="585" y2="591" /><line stroke="rgb(10%,10%,16%)" x1="854" x2="874" y1="591" y2="611" /><line stroke="rgb(10%,10%,16%)" x1="874" x2="874" y1="611" y2="617" /><line stroke="rgb(10%,10%,16%)" x1="874" x2="887" y1="617" y2="630" /><line stroke="rgb(10%,10%,16%)" x1="887" x2="887" y1="630" y2="637" /><line stroke="rgb(10%,10%,16%)" x1="887" x2="893" y1="637" y2="643" /><line stroke="rgb(10%,10%,16%)" x1="893" x2="893" y1="643" y2="650" /><line stroke="rgb(10%,10%,16%)" x1="893" x2="900" y1="650" y2="656" /><line stroke="rgb(10%,10%,16%)" x1="900" x2="900" y1="656" y2="663" /><line stroke="rgb(10%,10%,16%)" x1="900" x2="906" y1="663" y2="669" /><line stroke="rgb(10%,10%,16%)" x1="906" x2="906" y1="669" y2="676" /><line stroke="rgb(10%,10%,16%)" x1="906" x2="913" y1="676" y2="682" /><line stroke="rgb(10%,10%,16%)" x1="913" x2="913" y1="682" y2="689" /><line stroke="rgb(10%,10%,16%)" x1="913" x2="919" y1="689" y2="695" /><line stroke="rgb(10%,10%,16%)" x1="919" x2="919" y1="695" y2="702" /><line stroke="rgb(10%,10%,16%)" x1="919" x2="926" y1="702" y2="708" /><line stroke="rgb(10%,10%,16%)" x1="926" x2="926" y1="708" y2="721" /><line stroke="rgb(10%,10%,16%)" x1="926" x2="932" y1="721" y2="728" /><line stroke="rgb(10%,10%,16%)" x1="932" x2="932" y1="728" y2="734" /><line stroke="rgb(10%,10%,16%)" x1="932" x2="939" y1="734" y2="741" /><line stroke="rgb(10%,10%,16%)" x1="939" x2="939" y1="741" y2="747" /><line stroke="rgb(10%,10%,16%)" x1="939" x2="945" y1="747" y2="754" /><line stroke="rgb(10%,10%,16%)" x1="945" x2="945" y1="754" y2="767" /><line stroke="rgb(10%,10%,16%)" x1="945" x2="952" y1="767" y2="773" /><line stroke="rgb(10%,10%,16%)" x1="952" x2="952" y1="773" y2="786" /><line stroke="rgb(10%,10%,16%)" x1="952" x2="958" y1="786" y2="793" /><line stroke="rgb(10%,10%,16%)" x1="958" x2="958" y1="793" y2="806" /><line stroke="rgb(10%,10%,16%)" x1="958" x2="965" y1="806" y2="812" /><line stroke="rgb(10%,10%,16%)" x1="965" x2="965" y1="812" y2="832" /><line stroke="rgb(10%,10%,16%)" x1="965" x2="971" y1="832" y2="838" /><line stroke="rgb(10%,10%,16%)" x1="971" x2="971" y1="838" y2="851" /><line stroke="rgb(10%,10%,16%)" x1="971" x2="978" y1="851" y2="858" /><line stroke="rgb(10%,10%,16%)" x1="978" x2="978" y1="858" y2="877" /><line stroke="rgb(10%,10%,16%)" x1="978" x2="984" y1="877" y2="884" /><line stroke="rgb(10%,10%,16%)" x1="984" x2="984" y1="884" y2="903" /><line stroke="rgb(10%,10%,16%)" x1="984" x2="991" y1="903" y2="910" /><line stroke="rgb(10%,10%,16%)" x1="991" x2="991" y1="910" y2="929" /><line stroke="rgb(10%,10%,16%)" x1="991" x2="997" y1="929" y2="936" /><line stroke="rgb(10%,10%,16%)" x1="997" x2="997" y1="936" y2="962" /><line stroke="rgb(10%,10%,16%)" x1="997" x2="1004" y1="962" y2="968" /><line stroke="rgb(10%,10%,16%)" x1="1004" x2="1004" y1="968" y2="994" /><line stroke="rgb(10%,10%,16%)" x1="1004" x2="1011" y1="994" y2="1001" /><line stroke="rgb(10%,10%,16%)" x1="1011" x2="1011" y1="1001" y2="1033" /><line stroke="rgb(10%,10%,16%)" x1="1011" x2="1017" y1="1033" y2="1040" /><line stroke="rgb(10%,10%,16%)" x1="1017" x2="1017" y1="1040" y2="1092" /><line stroke="rgb(10%,10%,16%)" x1="1017" x2="1024" y1="1092" y2="1098" /><line stroke="rgb(10%,10%,16%)" x1="1024" x2="1024" y1="1098" y2="1163" /><line stroke="rgb(10%,10%,16%)" x1="1024" x2="1030" y1="1163" y2="1170" /><line stroke="rgb(10%,10%,16%)" x1="1030" x2="1030" y1="1170" y2="1293" /><line stroke="rgb(10%,10%,16%)" x1="1030" x2="1141" y1="1293" y2="1293" /><line stroke="rgb(10%,10%,16%)" x1="1141" x2="1141" y1="1293" y2="260" /><line stroke="rgb(10%,10%,16%)" x1="1141" x2="1141" y1="260" y2="266" /><line stroke="rgb(10%,10%,16%)" x1="1141" x2="1134" y1="266" y2="273" /><line stroke="rgb(10%,10%,16%)" x1="1134" x2="1076" y1="273" y2="273" /><line stroke="rgb(10%,10%,16%)" x1="1076" x2="1069" y1="273" y2="279" /><line stroke="rgb(10%,10%,16%)" x1="1069" x2="1069" y1="279" y2="396" /><line stroke="rgb(10%,10%,16%)" x1="1069" x2="1076" y1="396" y2="403" /><line stroke="rgb(10%,10%,16%)" x1="1076" x2="1082" y1="403" y2="403" /><line stroke="rgb(10%,10%,16%)" x1="1082" x2="1095" y1="403" y2="416" /><line stroke="rgb(10%,10%,16%)" x1="1095" x2="1095" y1="416" y2="435" /><line stroke="rgb(10%,10%,16%)" x1="1095" x2="1082" y1="435" y2="448" /><line stroke="rgb(10%,10%,16%)" x1="1082" x2="1082" y1="448" y2="455" /><line stroke="rgb(10%,10%,16%)" x1="1082" x2="1076" y1="455" y2="461" /><line stroke="rgb(10%,10%,16%)" x1="1076" x2="1076" y1="461" y2="468" /><line stroke="rgb(10%,10%,16%)" x1="1076" x2="1069" y1="468" y2="474" /><line stroke="rgb(10%,10%,16%)" x1="1069" x2="1069" y1="474" y2="572" /><line stroke="rgb(10%,10%,16%)" x1="1069" x2="1063" y1="572" y2="578" /><line stroke="rgb(10%,10%,16%)" x1="1063" x2="1050" y1="578" y2="578" /><line stroke="rgb(10%,10%,16%)" x1="1050" x2="1043" y1="578" y2="572" /><line stroke="rgb(10%,10%,16%)" x1="1043" x2="1043" y1="572" y2="208" /><line stroke="rgb(10%,10%,16%)" x1="1043" x2="1037" y1="208" y2="201" /><line stroke="rgb(10%,10%,16%)" x1="1037" x2="1037" y1="201" y2="0" /><line stroke="rgb(10%,10%,16%)" x1="1037" x2="0" y1="0" y2="0" /><line stroke="rgb(10%,10%,16%)" x1="0" x2="932" y1="0" y2="734" /><line stroke="rgb(10%,10%,16%)" x1="932" x2="1037" y1="734" y2="0" /></g></svg>