<?xml version="1.0" encoding="utf-8" ?>
<svg baseProfile="full" height="1300" version="1.1" width="1148" xmlns="http://www.w3.org/2000/svg" xmlns:ev="http://www.w3.org/2001/xml-events" xmlns:xlink="http://www.w3.org/1999/xlink"><defs /><g fill="none" id="shapes"><line stroke="rgb(10%,10%,16%)" x1="91" x2="76" y1="281" y2="293" /><line stroke="rgb(10%,10%,16%)" x1="76" x2="88" y1="293" y2="362" /><line stroke="rgb(10%,10%,16%)" x1="88" x2="159" y1="362" y2="373" /><line stroke="rgb(10%,10%,16%)" x1="159" x2="170" y1="373" y2="384" /><line stroke="rgb(10%,10%,16%)" x1="170" x2="211" y1="384" y2="395" /><line stroke="rgb(10%,10%,16%)" x1="211" x2="234" y1="395" y2="406" /><line stroke="rgb(10%,10%,16%)" x1="234" x2="251" y1="406" y2="418" /><line stroke="rgb(10%,10%,16%)" x1="251" x2="268" y1="418" y2="430" /><line stroke="rgb(10%,10%,16%)" x1="268" x2="306" y1="430" y2="465" /><line stroke="rgb(10%,10%,16%)" x1="306" x2="319" y1="465" y2="482" /><line stroke="rgb(10%,10%,16%)" x1="319" x2="330" y1="482" y2="501" /><line stroke="rgb(10%,10%,16%)" x1="330" x2="342" y1="501" y2="522" /><line stroke="rgb(10%,10%,16%)" x1="342" x2="353" y1="522" y2="542" /><line stroke="rgb(10%,10%,16%)" x1="353" x2="364" y1="542" y2="562" /><line stroke="rgb(10%,10%,16%)" x1="364" x2="375" y1="562" y2="584" /><line stroke="rgb(10%,10%,16%)" x1="375" x2="386" y1="584" y2="609" /><line stroke="rgb(10%,10%,16%)" x1="386" x2="397" y1="609" y2="634" /><line stroke="rgb(10%,10%,16%)" x1="397" x2="408" y1="634" y2="663" /><line stroke="rgb(10%,10%,16%)" x1="408" x2="419" y1="663" y2="697" /><line stroke="rgb(10%,10%,16%)" x1="419" x2="430" y1="697" y2="735" /><line stroke="rgb(10%,10%,16%)" x1="430" x2="471" y1="735" y2="746" /><line stroke="rgb(10%,10%,16%)" x1="471" x2="484" y1="746" y2="758" /><line stroke="rgb(10%,10%,16%)" x1="484" x2="467" y1="758" y2="800" /><line stroke="rgb(10%,10%,16%)" x1="467" x2="449" y1="800" y2="819" /><line stroke="rgb(10%,10%,16%)" x1="449" x2="460" y1="819" y2="870" /><line stroke="rgb(10%,10%,16%)" x1="460" x2="471" y1="870" y2="935" /><line stroke="rgb(10%,10%,16%)" x1="471" x2="489" y1="935" y2="982" /><line stroke="rgb(10%,10%,16%)" x1="489" x2="500" y1="982" y2="936" /><line stroke="rgb(10%,10%,16%)" x1="500" x2="511" y1="936" y2="961" /><line stroke="rgb(10%,10%,16%)" x1="511" x2="531" y1="961" y2="950" /><line stroke="rgb(10%,10%,16%)" x1="531" x2="542" y1="950" y2="930" /><line stroke="rgb(10%,10%,16%)" x1="542" x2="554" y1="930" y2="915" /><line stroke="rgb(10%,10%,16%)" x1="554" x2="570" y1="915" y2="904" /><line stroke="rgb(10%,10%,16%)" x1="570" x2="654" y1="904" y2="919" /><line stroke="rgb(10%,10%,16%)" x1="654" x2="667" y1="919" y2="930" /><line stroke="rgb(10%,10%,16%)" x1="667" x2="678" y1="930" y2="950" /><line stroke="rgb(10%,10%,16%)" x1="678" x2="667" y1="950" y2="1032" /><line stroke="rgb(10%,10%,16%)" x1="667" x2="681" y1="1032" y2="1044" /><line stroke="rgb(10%,10%,16%)" x1="681" x2="708" y1="1044" y2="1032" /><line stroke="rgb(10%,10%,16%)" x1="708" x2="734" y1="1032" y2="1013" /><line stroke="rgb(10%,10%,16%)" x1="734" x2="723" y1="1013" y2="1000" /><line stroke="rgb(10%,10%,16%)" x1="723" x2="712" y1="1000" y2="983" /><line stroke="rgb(10%,10%,16%)" x1="712" x2="732" y1="983" y2="967" /><line stroke="rgb(10%,10%,16%)" x1="732" x2="746" y1="967" y2="956" /><line stroke="rgb(10%,10%,16%)" x1="746" x2="735" y1="956" y2="944" /><line stroke="rgb(10%,10%,16%)" x1="735" x2="746" y1="944" y2="887" /><line stroke="rgb(10%,10%,16%)" x1="746" x2="762" y1="887" y2="864" /><line stroke="rgb(10%,10%,16%)" x1="762" x2="774" y1="864" y2="853" /><line stroke="rgb(10%,10%,16%)" x1="774" x2="796" y1="853" y2="842" /><line stroke="rgb(10%,10%,16%)" x1="796" x2="808" y1="842" y2="826" /><line stroke="rgb(10%,10%,16%)" x1="808" x2="794" y1="826" y2="813" /><line stroke="rgb(10%,10%,16%)" x1="794" x2="780" y1="813" y2="800" /><line stroke="rgb(10%,10%,16%)" x1="780" x2="768" y1="800" y2="787" /><line stroke="rgb(10%,10%,16%)" x1="768" x2="749" y1="787" y2="799" /><line stroke="rgb(10%,10%,16%)" x1="749" x2="737" y1="799" y2="817" /><line stroke="rgb(10%,10%,16%)" x1="737" x2="723" y1="817" y2="856" /><line stroke="rgb(10%,10%,16%)" x1="723" x2="711" y1="856" y2="890" /><line stroke="rgb(10%,10%,16%)" x1="711" x2="670" y1="890" y2="871" /><line stroke="rgb(10%,10%,16%)" x1="670" x2="658" y1="871" y2="850" /><line stroke="rgb(10%,10%,16%)" x1="658" x2="640" y1="850" y2="816" /><line stroke="rgb(10%,10%,16%)" x1="640" x2="625" y1="816" y2="791" /><line stroke="rgb(10%,10%,16%)" x1="625" x2="605" y1="791" y2="775" /><line stroke="rgb(10%,10%,16%)" x1="605" x2="594" y1="775" y2="761" /><line stroke="rgb(10%,10%,16%)" x1="594" x2="609" y1="761" y2="736" /><line stroke="rgb(10%,10%,16%)" x1="609" x2="587" y1="736" y2="701" /><line stroke="rgb(10%,10%,16%)" x1="587" x2="609" y1="701" y2="679" /><line stroke="rgb(10%,10%,16%)" x1="609" x2="549" y1="679" y2="663" /><line stroke="rgb(10%,10%,16%)" x1="549" x2="561" y1="663" y2="647" /><line stroke="rgb(10%,10%,16%)" x1="561" x2="574" y1="647" y2="632" /><line stroke="rgb(10%,10%,16%)" x1="574" x2="562" y1="632" y2="593" /><line stroke="rgb(10%,10%,16%)" x1="562" x2="540" y1="593" y2="605" /><line stroke="rgb(10%,10%,16%)" x1="540" x2="525" y1="605" y2="618" /><line stroke="rgb(10%,10%,16%)" x1="525" x2="536" y1="618" y2="676" /><line stroke="rgb(10%,10%,16%)" x1="536" x2="558" y1="676" y2="729" /><line stroke="rgb(10%,10%,16%)" x1="558" x2="570" y1="729" y2="781" /><line stroke="rgb(10%,10%,16%)" x1="570" x2="590" y1="781" y2="800" /><line stroke="rgb(10%,10%,16%)" x1="590" x2="601" y1="800" y2="812" /><line stroke="rgb(10%,10%,16%)" x1="601" x2="585" y1="812" y2="859" /><line stroke="rgb(10%,10%,16%)" x1="585" x2="573" y1="859" y2="872" /><line stroke="rgb(10%,10%,16%)" x1="573" x2="541" y1="872" y2="860" /><line stroke="rgb(10%,10%,16%)" x1="541" x2="522" y1="860" y2="839" /><line stroke="rgb(10%,10%,16%)" x1="522" x2="511" y1="839" y2="763" /><line stroke="rgb(10%,10%,16%)" x1="511" x2="500" y1="763" y2="734" /><line stroke="rgb(10%,10%,16%)" x1="500" x2="489" y1="734" y2="709" /><line stroke="rgb(10%,10%,16%)" x1="489" x2="478" y1="709" y2="664" /><line stroke="rgb(10%,10%,16%)" x1="478" x2="467" y1="664" y2="641" /><line stroke="rgb(10%,10%,16%)" x1="467" x2="449" y1="641" y2="628" /><line stroke="rgb(10%,10%,16%)" x1="449" x2="438" y1="628" y2="577" /><line stroke="rgb(10%,10%,16%)" x1="438" x2="427" y1="577" y2="550" /><line stroke="rgb(10%,10%,16%)" x1="427" x2="404" y1="550" y2="532" /><line stroke="rgb(10%,10%,16%)" x1="404" x2="392" y1="532" y2="515" /><line stroke="rgb(10%,10%,16%)" x1="392" x2="404" y1="515" y2="485" /><line stroke="rgb(10%,10%,16%)" x1="404" x2="430" y1="485" y2="474" /><line stroke="rgb(10%,10%,16%)" x1="430" x2="456" y1="474" y2="460" /><line stroke="rgb(10%,10%,16%)" x1="456" x2="444" y1="460" y2="415" /><line stroke="rgb(10%,10%,16%)" x1="444" x2="431" y1="415" y2="404" /><line stroke="rgb(10%,10%,16%)" x1="431" x2="510" y1="404" y2="415" /><line stroke="rgb(10%,10%,16%)" x1="510" x2="547" y1="415" y2="426" /><line stroke="rgb(10%,10%,16%)" x1="547" x2="587" y1="426" y2="438" /><line stroke="rgb(10%,10%,16%)" x1="587" x2="630" y1="438" y2="453" /><line stroke="rgb(10%,10%,16%)" x1="630" x2="654" y1="453" y2="465" /><line stroke="rgb(10%,10%,16%)" x1="654" x2="668" y1="465" y2="478" /><line stroke="rgb(10%,10%,16%)" x1="668" x2="698" y1="478" y2="490" /><line stroke="rgb(10%,10%,16%)" x1="698" x2="717" y1="490" y2="479" /><line stroke="rgb(10%,10%,16%)" x1="717" x2="706" y1="479" y2="442" /><line stroke="rgb(10%,10%,16%)" x1="706" x2="686" y1="442" y2="430" /><line stroke="rgb(10%,10%,16%)" x1="686" x2="663" y1="430" y2="418" /><line stroke="rgb(10%,10%,16%)" x1="663" x2="636" y1="418" y2="407" /><line stroke="rgb(10%,10%,16%)" x1="636" x2="600" y1="407" y2="396" /><line stroke="rgb(10%,10%,16%)" x1="600" x2="501" y1="396" y2="385" /><line stroke="rgb(10%,10%,16%)" x1="501" x2="433" y1="385" y2="374" /><line stroke="rgb(10%,10%,16%)" x1="433" x2="408" y1="374" y2="363" /><line stroke="rgb(10%,10%,16%)" x1="408" x2="390" y1="363" y2="352" /><line stroke="rgb(10%,10%,16%)" x1="390" x2="371" y1="352" y2="340" /><line stroke="rgb(10%,10%,16%)" x1="371" x2="355" y1="340" y2="328" /><line stroke="rgb(10%,10%,16%)" x1="355" x2="341" y1="328" y2="317" /><line stroke="rgb(10%,10%,16%)" x1="341" x2="327" y1="317" y2="306" /><line stroke="rgb(10%,10%,16%)" x1="327" x2="292" y1="306" y2="325" /><line stroke="rgb(10%,10%,16%)" x1="292" x2="308" y1="325" y2="336" /><line stroke="rgb(10%,10%,16%)" x1="308" x2="296" y1="336" y2="352" /><line stroke="rgb(10%,10%,16%)" x1="296" x2="276" y1="352" y2="335" /><line stroke="rgb(10%,10%,16%)" x1="276" x2="238" y1="335" y2="347" /><line stroke="rgb(10%,10%,16%)" x1="238" x2="194" y1="347" y2="358" /><line stroke="rgb(10%,10%,16%)" x1="194" x2="152" y1="358" y2="347" /><line stroke="rgb(10%,10%,16%)" x1="152" x2="134" y1="347" y2="333" /><line stroke="rgb(10%,10%,16%)" x1="134" x2="114" y1="333" y2="316" /><line stroke="rgb(10%,10%,16%)" x1="114" x2="108" y1="316" y2="281" /><line stroke="rgb(10%,10%,16%)" x1="108" x2="141" y1="281" y2="258" /><line stroke="rgb(10%,10%,16%)" x1="141" x2="141" y1="258" y2="258" /><line stroke="rgb(10%,10%,16%)" x1="141" x2="116" y1="258" y2="269" /><line stroke="rgb(10%,10%,16%)" x1="116" x2="140" y1="269" y2="287" /><line stroke="rgb(10%,10%,16%)" x1="140" x2="164" y1="287" y2="268" /><line stroke="rgb(10%,10%,16%)" x1="164" x2="151" y1="268" y2="258" /><line stroke="rgb(10%,10%,16%)" x1="151" x2="141" y1="258" y2="258" /><line stroke="rgb(10%,10%,16%)" x1="141" x2="164" y1="258" y2="280" /><line stroke="rgb(10%,10%,16%)" x1="164" x2="119" y1="280" y2="267" /><line stroke="rgb(10%,10%,16%)" x1="119" x2="139" y1="267" y2="260" /><line stroke="rgb(10%,10%,16%)" x1="139" x2="144" y1="260" y2="767" /><line stroke="rgb(10%,10%,16%)" x1="144" x2="156" y1="767" y2="785" /><line stroke="rgb(10%,10%,16%)" x1="156" x2="143" y1="785" y2="799" /><line stroke="rgb(10%,10%,16%)" x1="143" x2="131" y1="799" y2="811" /><line stroke="rgb(10%,10%,16%)" x1="131" x2="112" y1="811" y2="800" /><line stroke="rgb(10%,10%,16%)" x1="112" x2="129" y1="800" y2="784" /><line stroke="rgb(10%,10%,16%)" x1="129" x2="140" y1="784" y2="772" /><line stroke="rgb(10%,10%,16%)" x1="140" x2="142" y1="772" y2="769" /><line stroke="rgb(10%,10%,16%)" x1="142" x2="144" y1="769" y2="767" /><line stroke="rgb(10%,10%,16%)" x1="144" x2="129" y1="767" y2="784" /><line stroke="rgb(10%,10%,16%)" x1="129" x2="115" y1="784" y2="797" /><line stroke="rgb(10%,10%,16%)" x1="115" x2="130" y1="797" y2="815" /><line stroke="rgb(10%,10%,16%)" x1="130" x2="141" y1="815" y2="802" /><line stroke="rgb(10%,10%,16%)" x1="141" x2="153" y1="802" y2="787" /><line stroke="rgb(10%,10%,16%)" x1="153" x2="154" y1="787" y2="767" /><line stroke="rgb(10%,10%,16%)" x1="154" x2="201" y1="767" y2="712" /><line stroke="rgb(10%,10%,16%)" x1="201" x2="201" y1="712" y2="712" /><line stroke="rgb(10%,10%,16%)" x1="201" x2="214" y1="712" y2="727" /><line stroke="rgb(10%,10%,16%)" x1="214" x2="202" y1="727" y2="738" /><line stroke="rgb(10%,10%,16%)" x1="202" x2="190" y1="738" y2="750" /><line stroke="rgb(10%,10%,16%)" x1="190" x2="160" y1="750" y2="761" /><line stroke="rgb(10%,10%,16%)" x1="160" x2="175" y1="761" y2="724" /><line stroke="rgb(10%,10%,16%)" x1="175" x2="198" y1="724" y2="715" /><line stroke="rgb(10%,10%,16%)" x1="198" x2="201" y1="715" y2="712" /><line stroke="rgb(10%,10%,16%)" x1="201" x2="186" y1="712" y2="726" /><line stroke="rgb(10%,10%,16%)" x1="186" x2="161" y1="726" y2="738" /><line stroke="rgb(10%,10%,16%)" x1="161" x2="182" y1="738" y2="761" /><line stroke="rgb(10%,10%,16%)" x1="182" x2="195" y1="761" y2="748" /><line stroke="rgb(10%,10%,16%)" x1="195" x2="206" y1="748" y2="736" /><line stroke="rgb(10%,10%,16%)" x1="206" x2="211" y1="736" y2="712" /><line stroke="rgb(10%,10%,16%)" x1="211" x2="261" y1="712" y2="209" /><line stroke="rgb(10%,10%,16%)" x1="261" x2="261" y1="209" y2="209" /><line stroke="rgb(10%,10%,16%)" x1="261" x2="283" y1="209" y2="220" /><line stroke="rgb(10%,10%,16%)" x1="283" x2="295" y1="220" y2="231" /><line stroke="rgb(10%,10%,16%)" x1="295" x2="307" y1="231" y2="242" /><line stroke="rgb(10%,10%,16%)" x1="307" x2="293" y1="242" y2="264" /><line stroke="rgb(10%,10%,16%)" x1="293" x2="231" y1="264" y2="275" /><line stroke="rgb(10%,10%,16%)" x1="231" x2="217" y1="275" y2="286" /><line stroke="rgb(10%,10%,16%)" x1="217" x2="206" y1="286" y2="305" /><line stroke="rgb(10%,10%,16%)" x1="206" x2="188" y1="305" y2="331" /><line stroke="rgb(10%,10%,16%)" x1="188" x2="160" y1="331" y2="317" /><line stroke="rgb(10%,10%,16%)" x1="160" x2="172" y1="317" y2="283" /><line stroke="rgb(10%,10%,16%)" x1="172" x2="185" y1="283" y2="256" /><line stroke="rgb(10%,10%,16%)" x1="185" x2="214" y1="256" y2="245" /><line stroke="rgb(10%,10%,16%)" x1="214" x2="236" y1="245" y2="218" /><line stroke="rgb(10%,10%,16%)" x1="236" x2="258" y1="218" y2="212" /><line stroke="rgb(10%,10%,16%)" x1="258" x2="261" y1="212" y2="209" /><line stroke="rgb(10%,10%,16%)" x1="261" x2="246" y1="209" y2="220" /><line stroke="rgb(10%,10%,16%)" x1="246" x2="216" y1="220" y2="235" /><line stroke="rgb(10%,10%,16%)" x1="216" x2="201" y1="235" y2="251" /><line stroke="rgb(10%,10%,16%)" x1="201" x2="185" y1="251" y2="273" /><line stroke="rgb(10%,10%,16%)" x1="185" x2="171" y1="273" y2="284" /><line stroke="rgb(10%,10%,16%)" x1="171" x2="160" y1="284" y2="317" /><line stroke="rgb(10%,10%,16%)" x1="160" x2="188" y1="317" y2="332" /><line stroke="rgb(10%,10%,16%)" x1="188" x2="202" y1="332" y2="311" /><line stroke="rgb(10%,10%,16%)" x1="202" x2="213" y1="311" y2="297" /><line stroke="rgb(10%,10%,16%)" x1="213" x2="231" y1="297" y2="280" /><line stroke="rgb(10%,10%,16%)" x1="231" x2="244" y1="280" y2="267" /><line stroke="rgb(10%,10%,16%)" x1="244" x2="304" y1="267" y2="256" /><line stroke="rgb(10%,10%,16%)" x1="304" x2="290" y1="256" y2="225" /><line stroke="rgb(10%,10%,16%)" x1="290" x2="274" y1="225" y2="210" /><line stroke="rgb(10%,10%,16%)" x1="274" x2="272" y1="210" y2="209" /><line stroke="rgb(10%,10%,16%)" x1="272" x2="506" y1="209" y2="424" /><line stroke="rgb(10%,10%,16%)" x1="506" x2="506" y1="424" y2="424" /><line stroke="rgb(10%,10%,16%)" x1="506" x2="494" y1="424" y2="438" /><line stroke="rgb(10%,10%,16%)" x1="494" x2="481" y1="438" y2="450" /><line stroke="rgb(10%,10%,16%)" x1="481" x2="465" y1="450" y2="462" /><line stroke="rgb(10%,10%,16%)" x1="465" x2="496" y1="462" y2="478" /><line stroke="rgb(10%,10%,16%)" x1="496" x2="535" y1="478" y2="489" /><line stroke="rgb(10%,10%,16%)" x1="535" x2="555" y1="489" y2="505" /><line stroke="rgb(10%,10%,16%)" x1="555" x2="567" y1="505" y2="548" /><line stroke="rgb(10%,10%,16%)" x1="567" x2="584" y1="548" y2="560" /><line stroke="rgb(10%,10%,16%)" x1="584" x2="601" y1="560" y2="540" /><line stroke="rgb(10%,10%,16%)" x1="601" x2="586" y1="540" y2="551" /><line stroke="rgb(10%,10%,16%)" x1="586" x2="560" y1="551" y2="533" /><line stroke="rgb(10%,10%,16%)" x1="560" x2="572" y1="533" y2="507" /><line stroke="rgb(10%,10%,16%)" x1="572" x2="587" y1="507" y2="490" /><line stroke="rgb(10%,10%,16%)" x1="587" x2="572" y1="490" y2="503" /><line stroke="rgb(10%,10%,16%)" x1="572" x2="535" y1="503" y2="486" /><line stroke="rgb(10%,10%,16%)" x1="535" x2="499" y1="486" y2="474" /><line stroke="rgb(10%,10%,16%)" x1="499" x2="465" y1="474" y2="462" /><line stroke="rgb(10%,10%,16%)" x1="465" x2="481" y1="462" y2="450" /><line stroke="rgb(10%,10%,16%)" x1="481" x2="494" y1="450" y2="438" /><line stroke="rgb(10%,10%,16%)" x1="494" x2="506" y1="438" y2="424" /><line stroke="rgb(10%,10%,16%)" x1="506" x2="540" y1="424" y2="435" /><line stroke="rgb(10%,10%,16%)" x1="540" x2="580" y1="435" y2="448" /><line stroke="rgb(10%,10%,16%)" x1="580" x2="607" y1="448" y2="469" /><line stroke="rgb(10%,10%,16%)" x1="607" x2="640" y1="469" y2="480" /><line stroke="rgb(10%,10%,16%)" x1="640" x2="656" y1="480" y2="491" /><line stroke="rgb(10%,10%,16%)" x1="656" x2="671" y1="491" y2="503" /><line stroke="rgb(10%,10%,16%)" x1="671" x2="691" y1="503" y2="520" /><line stroke="rgb(10%,10%,16%)" x1="691" x2="703" y1="520" y2="531" /><line stroke="rgb(10%,10%,16%)" x1="703" x2="718" y1="531" y2="545" /><line stroke="rgb(10%,10%,16%)" x1="718" x2="729" y1="545" y2="559" /><line stroke="rgb(10%,10%,16%)" x1="729" x2="740" y1="559" y2="571" /><line stroke="rgb(10%,10%,16%)" x1="740" x2="754" y1="571" y2="582" /><line stroke="rgb(10%,10%,16%)" x1="754" x2="765" y1="582" y2="597" /><line stroke="rgb(10%,10%,16%)" x1="765" x2="776" y1="597" y2="611" /><line stroke="rgb(10%,10%,16%)" x1="776" x2="787" y1="611" y2="622" /><line stroke="rgb(10%,10%,16%)" x1="787" x2="798" y1="622" y2="637" /><line stroke="rgb(10%,10%,16%)" x1="798" x2="811" y1="637" y2="653" /><line stroke="rgb(10%,10%,16%)" x1="811" x2="822" y1="653" y2="691" /><line stroke="rgb(10%,10%,16%)" x1="822" x2="835" y1="691" y2="707" /><line stroke="rgb(10%,10%,16%)" x1="835" x2="846" y1="707" y2="719" /><line stroke="rgb(10%,10%,16%)" x1="846" x2="859" y1="719" y2="750" /><line stroke="rgb(10%,10%,16%)" x1="859" x2="873" y1="750" y2="778" /><line stroke="rgb(10%,10%,16%)" x1="873" x2="884" y1="778" y2="804" /><line stroke="rgb(10%,10%,16%)" x1="884" x2="895" y1="804" y2="844" /><line stroke="rgb(10%,10%,16%)" x1="895" x2="882" y1="844" y2="868" /><line stroke="rgb(10%,10%,16%)" x1="882" x2="865" y1="868" y2="844" /><line stroke="rgb(10%,10%,16%)" x1="865" x2="846" y1="844" y2="832" /><line stroke="rgb(10%,10%,16%)" x1="846" x2="859" y1="832" y2="819" /><line stroke="rgb(10%,10%,16%)" x1="859" x2="847" y1="819" y2="803" /><line stroke="rgb(10%,10%,16%)" x1="847" x2="836" y1="803" y2="762" /><line stroke="rgb(10%,10%,16%)" x1="836" x2="825" y1="762" y2="737" /><line stroke="rgb(10%,10%,16%)" x1="825" x2="811" y1="737" y2="713" /><line stroke="rgb(10%,10%,16%)" x1="811" x2="799" y1="713" y2="667" /><line stroke="rgb(10%,10%,16%)" x1="799" x2="788" y1="667" y2="654" /><line stroke="rgb(10%,10%,16%)" x1="788" x2="777" y1="654" y2="642" /><line stroke="rgb(10%,10%,16%)" x1="777" x2="763" y1="642" y2="629" /><line stroke="rgb(10%,10%,16%)" x1="763" x2="686" y1="629" y2="613" /><line stroke="rgb(10%,10%,16%)" x1="686" x2="663" y1="613" y2="596" /><line stroke="rgb(10%,10%,16%)" x1="663" x2="688" y1="596" y2="607" /><line stroke="rgb(10%,10%,16%)" x1="688" x2="677" y1="607" y2="585" /><line stroke="rgb(10%,10%,16%)" x1="677" x2="688" y1="585" y2="560" /><line stroke="rgb(10%,10%,16%)" x1="688" x2="708" y1="560" y2="578" /><line stroke="rgb(10%,10%,16%)" x1="708" x2="697" y1="578" y2="562" /><line stroke="rgb(10%,10%,16%)" x1="697" x2="686" y1="562" y2="541" /><line stroke="rgb(10%,10%,16%)" x1="686" x2="671" y1="541" y2="553" /><line stroke="rgb(10%,10%,16%)" x1="671" x2="603" y1="553" y2="541" /><line stroke="rgb(10%,10%,16%)" x1="603" x2="618" y1="541" y2="553" /><line stroke="rgb(10%,10%,16%)" x1="618" x2="668" y1="553" y2="576" /><line stroke="rgb(10%,10%,16%)" x1="668" x2="689" y1="576" y2="587" /><line stroke="rgb(10%,10%,16%)" x1="689" x2="663" y1="587" y2="611" /><line stroke="rgb(10%,10%,16%)" x1="663" x2="686" y1="611" y2="622" /><line stroke="rgb(10%,10%,16%)" x1="686" x2="697" y1="622" y2="634" /><line stroke="rgb(10%,10%,16%)" x1="697" x2="713" y1="634" y2="622" /><line stroke="rgb(10%,10%,16%)" x1="713" x2="766" y1="622" y2="633" /><line stroke="rgb(10%,10%,16%)" x1="766" x2="778" y1="633" y2="644" /><line stroke="rgb(10%,10%,16%)" x1="778" x2="791" y1="644" y2="655" /><line stroke="rgb(10%,10%,16%)" x1="791" x2="806" y1="655" y2="667" /><line stroke="rgb(10%,10%,16%)" x1="806" x2="822" y1="667" y2="713" /><line stroke="rgb(10%,10%,16%)" x1="822" x2="834" y1="713" y2="746" /><line stroke="rgb(10%,10%,16%)" x1="834" x2="847" y1="746" y2="796" /><line stroke="rgb(10%,10%,16%)" x1="847" x2="858" y1="796" y2="815" /><line stroke="rgb(10%,10%,16%)" x1="858" x2="847" y1="815" y2="830" /><line stroke="rgb(10%,10%,16%)" x1="847" x2="865" y1="830" y2="845" /><line stroke="rgb(10%,10%,16%)" x1="865" x2="877" y1="845" y2="862" /><line stroke="rgb(10%,10%,16%)" x1="877" x2="896" y1="862" y2="846" /><line stroke="rgb(10%,10%,16%)" x1="896" x2="884" y1="846" y2="809" /><line stroke="rgb(10%,10%,16%)" x1="884" x2="873" y1="809" y2="780" /><line stroke="rgb(10%,10%,16%)" x1="873" x2="862" y1="780" y2="756" /><line stroke="rgb(10%,10%,16%)" x1="862" x2="850" y1="756" y2="730" /><line stroke="rgb(10%,10%,16%)" x1="850" x2="839" y1="730" y2="711" /><line stroke="rgb(10%,10%,16%)" x1="839" x2="823" y1="711" y2="692" /><line stroke="rgb(10%,10%,16%)" x1="823" x2="812" y1="692" y2="667" /><line stroke="rgb(10%,10%,16%)" x1="812" x2="801" y1="667" y2="645" /><line stroke="rgb(10%,10%,16%)" x1="801" x2="790" y1="645" y2="625" /><line stroke="rgb(10%,10%,16%)" x1="790" x2="779" y1="625" y2="614" /><line stroke="rgb(10%,10%,16%)" x1="779" x2="767" y1="614" y2="599" /><line stroke="rgb(10%,10%,16%)" x1="767" x2="756" y1="599" y2="583" /><line stroke="rgb(10%,10%,16%)" x1="756" x2="745" y1="583" y2="572" /><line stroke="rgb(10%,10%,16%)" x1="745" x2="734" y1="572" y2="560" /><line stroke="rgb(10%,10%,16%)" x1="734" x2="718" y1="560" y2="548" /><line stroke="rgb(10%,10%,16%)" x1="718" x2="706" y1="548" y2="535" /><line stroke="rgb(10%,10%,16%)" x1="706" x2="693" y1="535" y2="521" /><line stroke="rgb(10%,10%,16%)" x1="693" x2="680" y1="521" y2="510" /><line stroke="rgb(10%,10%,16%)" x1="680" x2="667" y1="510" y2="499" /><line stroke="rgb(10%,10%,16%)" x1="667" x2="652" y1="499" y2="488" /><line stroke="rgb(10%,10%,16%)" x1="652" x2="632" y1="488" y2="476" /><line stroke="rgb(10%,10%,16%)" x1="632" x2="607" y1="476" y2="457" /><line stroke="rgb(10%,10%,16%)" x1="607" x2="579" y1="457" y2="446" /><line stroke="rgb(10%,10%,16%)" x1="579" x2="541" y1="446" y2="435" /><line stroke="rgb(10%,10%,16%)" x1="541" x2="516" y1="435" y2="424" /><line stroke="rgb(10%,10%,16%)" x1="516" x2="516" y1="424" y2="424" /><line stroke="rgb(10%,10%,16%)" x1="516" x2="558" y1="424" y2="670" /><line stroke="rgb(10%,10%,16%)" x1="558" x2="558" y1="670" y2="670" /><line stroke="rgb(10%,10%,16%)" x1="558" x2="609" y1="670" y2="695" /><line stroke="rgb(10%,10%,16%)" x1="609" x2="591" y1="695" y2="752" /><line stroke="rgb(10%,10%,16%)" x1="591" x2="571" y1="752" y2="785" /><line stroke="rgb(10%,10%,16%)" x1="571" x2="554" y1="785" y2="765" /><line stroke="rgb(10%,10%,16%)" x1="554" x2="543" y1="765" y2="726" /><line stroke="rgb(10%,10%,16%)" x1="543" x2="551" y1="726" y2="677" /><line stroke="rgb(10%,10%,16%)" x1="551" x2="562" y1="677" y2="593" /><line stroke="rgb(10%,10%,16%)" x1="562" x2="562" y1="593" y2="593" /><line stroke="rgb(10%,10%,16%)" x1="562" x2="574" y1="593" y2="607" /><line stroke="rgb(10%,10%,16%)" x1="574" x2="562" y1="607" y2="641" /><line stroke="rgb(10%,10%,16%)" x1="562" x2="551" y1="641" y2="661" /><line stroke="rgb(10%,10%,16%)" x1="551" x2="536" y1="661" y2="676" /><line stroke="rgb(10%,10%,16%)" x1="536" x2="524" y1="676" y2="665" /><line stroke="rgb(10%,10%,16%)" x1="524" x2="535" y1="665" y2="605" /><line stroke="rgb(10%,10%,16%)" x1="535" x2="556" y1="605" y2="594" /><line stroke="rgb(10%,10%,16%)" x1="556" x2="560" y1="594" y2="595" /><line stroke="rgb(10%,10%,16%)" x1="560" x2="586" y1="595" y2="953" /><line stroke="rgb(10%,10%,16%)" x1="586" x2="586" y1="953" y2="953" /><line stroke="rgb(10%,10%,16%)" x1="586" x2="633" y1="953" y2="971" /><line stroke="rgb(10%,10%,16%)" x1="633" x2="622" y1="971" y2="1042" /><line stroke="rgb(10%,10%,16%)" x1="622" x2="556" y1="1042" y2="1029" /><line stroke="rgb(10%,10%,16%)" x1="556" x2="568" y1="1029" y2="960" /><line stroke="rgb(10%,10%,16%)" x1="568" x2="583" y1="960" y2="953" /><line stroke="rgb(10%,10%,16%)" x1="583" x2="587" y1="953" y2="952" /><line stroke="rgb(10%,10%,16%)" x1="587" x2="558" y1="952" y2="969" /><line stroke="rgb(10%,10%,16%)" x1="558" x2="547" y1="969" y2="992" /><line stroke="rgb(10%,10%,16%)" x1="547" x2="560" y1="992" y2="1034" /><line stroke="rgb(10%,10%,16%)" x1="560" x2="574" y1="1034" y2="1045" /><line stroke="rgb(10%,10%,16%)" x1="574" x2="635" y1="1045" y2="1031" /><line stroke="rgb(10%,10%,16%)" x1="635" x2="623" y1="1031" y2="961" /><line stroke="rgb(10%,10%,16%)" x1="623" x2="602" y1="961" y2="952" /><line stroke="rgb(10%,10%,16%)" x1="602" x2="689" y1="952" y2="728" /><line stroke="rgb(10%,10%,16%)" x1="689" x2="689" y1="728" y2="728" /><line stroke="rgb(10%,10%,16%)" x1="689" x2="721" y1="728" y2="739" /><line stroke="rgb(10%,10%,16%)" x1="721" x2="749" y1="739" y2="750" /><line stroke="rgb(10%,10%,16%)" x1="749" x2="737" y1="750" y2="768" /><line stroke="rgb(10%,10%,16%)" x1="737" x2="722" y1="768" y2="779" /><line stroke="rgb(10%,10%,16%)" x1="722" x2="706" y1="779" y2="798" /><line stroke="rgb(10%,10%,16%)" x1="706" x2="688" y1="798" y2="783" /><line stroke="rgb(10%,10%,16%)" x1="688" x2="670" y1="783" y2="767" /><line stroke="rgb(10%,10%,16%)" x1="670" x2="685" y1="767" y2="732" /><line stroke="rgb(10%,10%,16%)" x1="685" x2="687" y1="732" y2="728" /><line stroke="rgb(10%,10%,16%)" x1="687" x2="690" y1="728" y2="727" /><line stroke="rgb(10%,10%,16%)" x1="690" x2="674" y1="727" y2="746" /><line stroke="rgb(10%,10%,16%)" x1="674" x2="685" y1="746" y2="779" /><line stroke="rgb(10%,10%,16%)" x1="685" x2="699" y1="779" y2="791" /><line stroke="rgb(10%,10%,16%)" x1="699" x2="722" y1="791" y2="779" /><line stroke="rgb(10%,10%,16%)" x1="722" x2="738" y1="779" y2="768" /><line stroke="rgb(10%,10%,16%)" x1="738" x2="756" y1="768" y2="755" /><line stroke="rgb(10%,10%,16%)" x1="756" x2="732" y1="755" y2="731" /><line stroke="rgb(10%,10%,16%)" x1="732" x2="701" y1="731" y2="727" /><line stroke="rgb(10%,10%,16%)" x1="701" x2="707" y1="727" y2="673" /><line stroke="rgb(10%,10%,16%)" x1="707" x2="695" y1="673" y2="685" /><line stroke="rgb(10%,10%,16%)" x1="695" x2="707" y1="685" y2="708" /><line stroke="rgb(10%,10%,16%)" x1="707" x2="733" y1="708" y2="695" /><line stroke="rgb(10%,10%,16%)" x1="733" x2="720" y1="695" y2="674" /><line stroke="rgb(10%,10%,16%)" x1="720" x2="719" y1="674" y2="673" /><line stroke="rgb(10%,10%,16%)" x1="719" x2="707" y1="673" y2="673" /><line stroke="rgb(10%,10%,16%)" x1="707" x2="720" y1="673" y2="685" /><line stroke="rgb(10%,10%,16%)" x1="720" x2="733" y1="685" y2="709" /><line stroke="rgb(10%,10%,16%)" x1="733" x2="703" y1="709" y2="698" /><line stroke="rgb(10%,10%,16%)" x1="703" x2="704" y1="698" y2="676" /><line stroke="rgb(10%,10%,16%)" x1="704" x2="727" y1="676" y2="464" /><line stroke="rgb(10%,10%,16%)" x1="727" x2="727" y1="464" y2="464" /><line stroke="rgb(10%,10%,16%)" x1="727" x2="738" y1="464" y2="496" /><line stroke="rgb(10%,10%,16%)" x1="738" x2="763" y1="496" y2="550" /><line stroke="rgb(10%,10%,16%)" x1="763" x2="779" y1="550" y2="563" /><line stroke="rgb(10%,10%,16%)" x1="779" x2="800" y1="563" y2="576" /><line stroke="rgb(10%,10%,16%)" x1="800" x2="813" y1="576" y2="610" /><line stroke="rgb(10%,10%,16%)" x1="813" x2="826" y1="610" y2="628" /><line stroke="rgb(10%,10%,16%)" x1="826" x2="838" y1="628" y2="646" /><line stroke="rgb(10%,10%,16%)" x1="838" x2="856" y1="646" y2="663" /><line stroke="rgb(10%,10%,16%)" x1="856" x2="867" y1="663" y2="695" /><line stroke="rgb(10%,10%,16%)" x1="867" x2="878" y1="695" y2="716" /><line stroke="rgb(10%,10%,16%)" x1="878" x2="889" y1="716" y2="738" /><line stroke="rgb(10%,10%,16%)" x1="889" x2="901" y1="738" y2="765" /><line stroke="rgb(10%,10%,16%)" x1="901" x2="912" y1="765" y2="793" /><line stroke="rgb(10%,10%,16%)" x1="912" x2="923" y1="793" y2="853" /><line stroke="rgb(10%,10%,16%)" x1="923" x2="934" y1="853" y2="878" /><line stroke="rgb(10%,10%,16%)" x1="934" x2="945" y1="878" y2="910" /><line stroke="rgb(10%,10%,16%)" x1="945" x2="956" y1="910" y2="941" /><line stroke="rgb(10%,10%,16%)" x1="956" x2="967" y1="941" y2="980" /><line stroke="rgb(10%,10%,16%)" x1="967" x2="978" y1="980" y2="1053" /><line stroke="rgb(10%,10%,16%)" x1="978" x2="989" y1="1053" y2="1109" /><line stroke="rgb(10%,10%,16%)" x1="989" x2="1027" y1="1109" y2="1080" /><line stroke="rgb(10%,10%,16%)" x1="1027" x2="1016" y1="1080" y2="1002" /><line stroke="rgb(10%,10%,16%)" x1="1016" x2="1005" y1="1002" y2="941" /><line stroke="rgb(10%,10%,16%)" x1="1005" x2="994" y1="941" y2="895" /><line stroke="rgb(10%,10%,16%)" x1="994" x2="983" y1="895" y2="855" /><line stroke="rgb(10%,10%,16%)" x1="983" x2="972" y1="855" y2="819" /><line stroke="rgb(10%,10%,16%)" x1="972" x2="961" y1="819" y2="787" /><line stroke="rgb(10%,10%,16%)" x1="961" x2="950" y1="787" y2="756" /><line stroke="rgb(10%,10%,16%)" x1="950" x2="939" y1="756" y2="728" /><line stroke="rgb(10%,10%,16%)" x1="939" x2="928" y1="728" y2="703" /><line stroke="rgb(10%,10%,16%)" x1="928" x2="917" y1="703" y2="680" /><line stroke="rgb(10%,10%,16%)" x1="917" x2="905" y1="680" y2="658" /><line stroke="rgb(10%,10%,16%)" x1="905" x2="894" y1="658" y2="639" /><line stroke="rgb(10%,10%,16%)" x1="894" x2="879" y1="639" y2="617" /><line stroke="rgb(10%,10%,16%)" x1="879" x2="865" y1="617" y2="597" /><line stroke="rgb(10%,10%,16%)" x1="865" x2="853" y1="597" y2="581" /><line stroke="rgb(10%,10%,16%)" x1="853" x2="842" y1="581" y2="567" /><line stroke="rgb(10%,10%,16%)" x1="842" x2="830" y1="567" y2="551" /><line stroke="rgb(10%,10%,16%)" x1="830" x2="814" y1="551" y2="535" /><line stroke="rgb(10%,10%,16%)" x1="814" x2="802" y1="535" y2="522" /><line stroke="rgb(10%,10%,16%)" x1="802" x2="789" y1="522" y2="509" /><line stroke="rgb(10%,10%,16%)" x1="789" x2="777" y1="509" y2="498" /><line stroke="rgb(10%,10%,16%)" x1="777" x2="763" y1="498" y2="484" /><line stroke="rgb(10%,10%,16%)" x1="763" x2="742" y1="484" y2="470" /><line stroke="rgb(10%,10%,16%)" x1="742" x2="737" y1="470" y2="464" /><line stroke="rgb(10%,10%,16%)" x1="737" x2="727" y1="464" y2="464" /><line stroke="rgb(10%,10%,16%)" x1="727" x2="742" y1="464" y2="483" /><line stroke="rgb(10%,10%,16%)" x1="742" x2="763" y1="483" y2="495" /><line stroke="rgb(10%,10%,16%)" x1="763" x2="786" y1="495" y2="507" /><line stroke="rgb(10%,10%,16%)" x1="786" x2="803" y1="507" y2="523" /><line stroke="rgb(10%,10%,16%)" x1="803" x2="815" y1="523" y2="536" /><line stroke="rgb(10%,10%,16%)" x1="815" x2="827" y1="536" y2="549" /><line stroke="rgb(10%,10%,16%)" x1="827" x2="842" y1="549" y2="565" /><line stroke="rgb(10%,10%,16%)" x1="842" x2="854" y1="565" y2="582" /><line stroke="rgb(10%,10%,16%)" x1="854" x2="866" y1="582" y2="598" /><line stroke="rgb(10%,10%,16%)" x1="866" x2="878" y1="598" y2="615" /><line stroke="rgb(10%,10%,16%)" x1="878" x2="890" y1="615" y2="632" /><line stroke="rgb(10%,10%,16%)" x1="890" x2="901" y1="632" y2="650" /><line stroke="rgb(10%,10%,16%)" x1="901" x2="912" y1="650" y2="670" /><line stroke="rgb(10%,10%,16%)" x1="912" x2="923" y1="670" y2="692" /><line stroke="rgb(10%,10%,16%)" x1="923" x2="934" y1="692" y2="715" /><line stroke="rgb(10%,10%,16%)" x1="934" x2="945" y1="715" y2="742" /><line stroke="rgb(10%,10%,16%)" x1="945" x2="956" y1="742" y2="770" /><line stroke="rgb(10%,10%,16%)" x1="956" x2="967" y1="770" y2="804" /><line stroke="rgb(10%,10%,16%)" x1="967" x2="978" y1="804" y2="835" /><line stroke="rgb(10%,10%,16%)" x1="978" x2="989" y1="835" y2="874" /><line stroke="rgb(10%,10%,16%)" x1="989" x2="1000" y1="874" y2="916" /><line stroke="rgb(10%,10%,16%)" x1="1000" x2="1011" y1="916" y2="968" /><line stroke="rgb(10%,10%,16%)" x1="1011" x2="1022" y1="968" y2="1038" /><line stroke="rgb(10%,10%,16%)" x1="1022" x2="1011" y1="1038" y2="1109" /><line stroke="rgb(10%,10%,16%)" x1="1011" x2="986" y1="1109" y2="1098" /><line stroke="rgb(10%,10%,16%)" x1="986" x2="975" y1="1098" y2="1044" /><line stroke="rgb(10%,10%,16%)" x1="975" x2="964" y1="1044" y2="977" /><line stroke="rgb(10%,10%,16%)" x1="964" x2="953" y1="977" y2="934" /><line stroke="rgb(10%,10%,16%)" x1="953" x2="942" y1="934" y2="905" /><line stroke="rgb(10%,10%,16%)" x1="942" x2="931" y1="905" y2="872" /><line stroke="rgb(10%,10%,16%)" x1="931" x2="920" y1="872" y2="853" /><line stroke="rgb(10%,10%,16%)" x1="920" x2="909" y1="853" y2="787" /><line stroke="rgb(10%,10%,16%)" x1="909" x2="895" y1="787" y2="763" /><line stroke="rgb(10%,10%,16%)" x1="895" x2="884" y1="763" y2="729" /><line stroke="rgb(10%,10%,16%)" x1="884" x2="873" y1="729" y2="707" /><line stroke="rgb(10%,10%,16%)" x1="873" x2="862" y1="707" y2="687" /><line stroke="rgb(10%,10%,16%)" x1="862" x2="849" y1="687" y2="663" /><line stroke="rgb(10%,10%,16%)" x1="849" x2="837" y1="663" y2="645" /><line stroke="rgb(10%,10%,16%)" x1="837" x2="825" y1="645" y2="627" /><line stroke="rgb(10%,10%,16%)" x1="825" x2="812" y1="627" y2="609" /><line stroke="rgb(10%,10%,16%)" x1="812" x2="800" y1="609" y2="592" /><line stroke="rgb(10%,10%,16%)" x1="800" x2="787" y1="592" y2="576" /><line stroke="rgb(10%,10%,16%)" x1="787" x2="776" y1="576" y2="555" /><line stroke="rgb(10%,10%,16%)" x1="776" x2="737" y1="555" y2="523" /><line stroke="rgb(10%,10%,16%)" x1="737" x2="752" y1="523" y2="506" /><line stroke="rgb(10%,10%,16%)" x1="752" x2="737" y1="506" y2="495" /><line stroke="rgb(10%,10%,16%)" x1="737" x2="726" y1="495" y2="481" /><line stroke="rgb(10%,10%,16%)" x1="726" x2="725" y1="481" y2="466" /><line stroke="rgb(10%,10%,16%)" x1="725" x2="744" y1="466" y2="167" /><line stroke="rgb(10%,10%,16%)" x1="744" x2="744" y1="167" y2="167" /><line stroke="rgb(10%,10%,16%)" x1="744" x2="756" y1="167" y2="185" /><line stroke="rgb(10%,10%,16%)" x1="756" x2="743" y1="185" y2="199" /><line stroke="rgb(10%,10%,16%)" x1="743" x2="731" y1="199" y2="211" /><line stroke="rgb(10%,10%,16%)" x1="731" x2="712" y1="211" y2="200" /><line stroke="rgb(10%,10%,16%)" x1="712" x2="729" y1="200" y2="184" /><line stroke="rgb(10%,10%,16%)" x1="729" x2="740" y1="184" y2="172" /><line stroke="rgb(10%,10%,16%)" x1="740" x2="742" y1="172" y2="169" /><line stroke="rgb(10%,10%,16%)" x1="742" x2="744" y1="169" y2="167" /><line stroke="rgb(10%,10%,16%)" x1="744" x2="729" y1="167" y2="184" /><line stroke="rgb(10%,10%,16%)" x1="729" x2="715" y1="184" y2="197" /><line stroke="rgb(10%,10%,16%)" x1="715" x2="730" y1="197" y2="215" /><line stroke="rgb(10%,10%,16%)" x1="730" x2="741" y1="215" y2="202" /><line stroke="rgb(10%,10%,16%)" x1="741" x2="753" y1="202" y2="187" /><line stroke="rgb(10%,10%,16%)" x1="753" x2="754" y1="187" y2="167" /><line stroke="rgb(10%,10%,16%)" x1="754" x2="801" y1="167" y2="112" /><line stroke="rgb(10%,10%,16%)" x1="801" x2="801" y1="112" y2="112" /><line stroke="rgb(10%,10%,16%)" x1="801" x2="814" y1="112" y2="127" /><line stroke="rgb(10%,10%,16%)" x1="814" x2="802" y1="127" y2="138" /><line stroke="rgb(10%,10%,16%)" x1="802" x2="790" y1="138" y2="150" /><line stroke="rgb(10%,10%,16%)" x1="790" x2="760" y1="150" y2="161" /><line stroke="rgb(10%,10%,16%)" x1="760" x2="775" y1="161" y2="124" /><line stroke="rgb(10%,10%,16%)" x1="775" x2="798" y1="124" y2="115" /><line stroke="rgb(10%,10%,16%)" x1="798" x2="801" y1="115" y2="112" /><line stroke="rgb(10%,10%,16%)" x1="801" x2="786" y1="112" y2="126" /><line stroke="rgb(10%,10%,16%)" x1="786" x2="761" y1="126" y2="138" /><line stroke="rgb(10%,10%,16%)" x1="761" x2="782" y1="138" y2="161" /><line stroke="rgb(10%,10%,16%)" x1="782" x2="795" y1="161" y2="148" /><line stroke="rgb(10%,10%,16%)" x1="795" x2="806" y1="148" y2="136" /><line stroke="rgb(10%,10%,16%)" x1="806" x2="811" y1="136" y2="112" /><line stroke="rgb(10%,10%,16%)" x1="811" x2="809" y1="112" y2="902" /><line stroke="rgb(10%,10%,16%)" x1="809" x2="860" y1="902" y2="922" /><line stroke="rgb(10%,10%,16%)" x1="860" x2="846" y1="922" y2="984" /><line stroke="rgb(10%,10%,16%)" x1="846" x2="779" y1="984" y2="973" /><line stroke="rgb(10%,10%,16%)" x1="779" x2="768" y1="973" y2="954" /><line stroke="rgb(10%,10%,16%)" x1="768" x2="784" y1="954" y2="914" /><line stroke="rgb(10%,10%,16%)" x1="784" x2="804" y1="914" y2="903" /><line stroke="rgb(10%,10%,16%)" x1="804" x2="806" y1="903" y2="902" /><line stroke="rgb(10%,10%,16%)" x1="806" x2="810" y1="902" y2="901" /><line stroke="rgb(10%,10%,16%)" x1="810" x2="787" y1="901" y2="912" /><line stroke="rgb(10%,10%,16%)" x1="787" x2="776" y1="912" y2="923" /><line stroke="rgb(10%,10%,16%)" x1="776" x2="788" y1="923" y2="983" /><line stroke="rgb(10%,10%,16%)" x1="788" x2="859" y1="983" y2="971" /><line stroke="rgb(10%,10%,16%)" x1="859" x2="848" y1="971" y2="910" /><line stroke="rgb(10%,10%,16%)" x1="848" x2="829" y1="910" y2="901" /><line stroke="rgb(10%,10%,16%)" x1="829" x2="831" y1="901" y2="1112" /><line stroke="rgb(10%,10%,16%)" x1="831" x2="847" y1="1112" y2="1154" /><line stroke="rgb(10%,10%,16%)" x1="847" x2="835" y1="1154" y2="1183" /><line stroke="rgb(10%,10%,16%)" x1="835" x2="822" y1="1183" y2="1199" /><line stroke="rgb(10%,10%,16%)" x1="822" x2="808" y1="1199" y2="1212" /><line stroke="rgb(10%,10%,16%)" x1="808" x2="790" y1="1212" y2="1223" /><line stroke="rgb(10%,10%,16%)" x1="790" x2="690" y1="1223" y2="1212" /><line stroke="rgb(10%,10%,16%)" x1="690" x2="670" y1="1212" y2="1194" /><line stroke="rgb(10%,10%,16%)" x1="670" x2="658" y1="1194" y2="1175" /><line stroke="rgb(10%,10%,16%)" x1="658" x2="669" y1="1175" y2="1154" /><line stroke="rgb(10%,10%,16%)" x1="669" x2="680" y1="1154" y2="1169" /><line stroke="rgb(10%,10%,16%)" x1="680" x2="699" y1="1169" y2="1196" /><line stroke="rgb(10%,10%,16%)" x1="699" x2="720" y1="1196" y2="1207" /><line stroke="rgb(10%,10%,16%)" x1="720" x2="799" y1="1207" y2="1195" /><line stroke="rgb(10%,10%,16%)" x1="799" x2="814" y1="1195" y2="1180" /><line stroke="rgb(10%,10%,16%)" x1="814" x2="825" y1="1180" y2="1155" /><line stroke="rgb(10%,10%,16%)" x1="825" x2="830" y1="1155" y2="1112" /><line stroke="rgb(10%,10%,16%)" x1="830" x2="832" y1="1112" y2="1111" /><line stroke="rgb(10%,10%,16%)" x1="832" x2="821" y1="1111" y2="1166" /><line stroke="rgb(10%,10%,16%)" x1="821" x2="805" y1="1166" y2="1188" /><line stroke="rgb(10%,10%,16%)" x1="805" x2="791" y1="1188" y2="1201" /><line stroke="rgb(10%,10%,16%)" x1="791" x2="755" y1="1201" y2="1212" /><line stroke="rgb(10%,10%,16%)" x1="755" x2="708" y1="1212" y2="1201" /><line stroke="rgb(10%,10%,16%)" x1="708" x2="689" y1="1201" y2="1185" /><line stroke="rgb(10%,10%,16%)" x1="689" x2="678" y1="1185" y2="1166" /><line stroke="rgb(10%,10%,16%)" x1="678" x2="658" y1="1166" y2="1154" /><line stroke="rgb(10%,10%,16%)" x1="658" x2="670" y1="1154" y2="1193" /><line stroke="rgb(10%,10%,16%)" x1="670" x2="681" y1="1193" y2="1206" /><line stroke="rgb(10%,10%,16%)" x1="681" x2="696" y1="1206" y2="1217" /><line stroke="rgb(10%,10%,16%)" x1="696" x2="722" y1="1217" y2="1228" /><line stroke="rgb(10%,10%,16%)" x1="722" x2="802" y1="1228" y2="1216" /><line stroke="rgb(10%,10%,16%)" x1="802" x2="829" y1="1216" y2="1193" /><line stroke="rgb(10%,10%,16%)" x1="829" x2="840" y1="1193" y2="1176" /><line stroke="rgb(10%,10%,16%)" x1="840" x2="842" y1="1176" y2="1111" /><line stroke="rgb(10%,10%,16%)" x1="842" x2="931" y1="1111" y2="1196" /><line stroke="rgb(10%,10%,16%)" x1="931" x2="931" y1="1196" y2="1196" /><line stroke="rgb(10%,10%,16%)" x1="931" x2="958" y1="1196" y2="1210" /><line stroke="rgb(10%,10%,16%)" x1="958" x2="941" y1="1210" y2="1224" /><line stroke="rgb(10%,10%,16%)" x1="941" x2="929" y1="1224" y2="1211" /><line stroke="rgb(10%,10%,16%)" x1="929" x2="928" y1="1211" y2="1199" /><line stroke="rgb(10%,10%,16%)" x1="928" x2="931" y1="1199" y2="1196" /><line stroke="rgb(10%,10%,16%)" x1="931" x2="917" y1="1196" y2="1267" /><line stroke="rgb(10%,10%,16%)" x1="917" x2="929" y1="1267" y2="1250" /><line stroke="rgb(10%,10%,16%)" x1="929" x2="947" y1="1250" y2="1227" /><line stroke="rgb(10%,10%,16%)" x1="947" x2="958" y1="1227" y2="1254" /><line stroke="rgb(10%,10%,16%)" x1="958" x2="947" y1="1254" y2="1227" /><line stroke="rgb(10%,10%,16%)" x1="947" x2="959" y1="1227" y2="1211" /><line stroke="rgb(10%,10%,16%)" x1="959" x2="942" y1="1211" y2="1197" /><line stroke="rgb(10%,10%,16%)" x1="942" x2="941" y1="1197" y2="1196" /><line stroke="rgb(10%,10%,16%)" x1="941" x2="1079" y1="1196" y2="244" /><line stroke="rgb(10%,10%,16%)" x1="1079" x2="1079" y1="244" y2="244" /><line stroke="rgb(10%,10%,16%)" x1="1079" x2="1099" y1="244" y2="270" /><line stroke="rgb(10%,10%,16%)" x1="1099" x2="1099" y1="270" y2="244" /><line stroke="rgb(10%,10%,16%)" x1="1099" x2="1079" y1="244" y2="244" /><line stroke="rgb(10%,10%,16%)" x1="1079" x2="1101" y1="244" y2="268" /><line stroke="rgb(10%,10%,16%)" x1="1101" x2="1076" y1="268" y2="247" /><line stroke="rgb(10%,10%,16%)" x1="1076" x2="1076" y1="247" y2="247" /><line stroke="rgb(10%,10%,16%)" x1="1076" x2="1093" y1="247" y2="1231" /><line stroke="rgb(10%,10%,16%)" x1="1093" x2="1093" y1="1231" y2="1231" /><line stroke="rgb(10%,10%,16%)" x1="1093" x2="1114" y1="1231" y2="1245" /><line stroke="rgb(10%,10%,16%)" x1="1114" x2="1092" y1="1245" y2="1269" /><line stroke="rgb(10%,10%,16%)" x1="1092" x2="1080" y1="1269" y2="1258" /><line stroke="rgb(10%,10%,16%)" x1="1080" x2="1091" y1="1258" y2="1231" /><line stroke="rgb(10%,10%,16%)" x1="1091" x2="1091" y1="1231" y2="1231" /><line stroke="rgb(10%,10%,16%)" x1="1091" x2="1105" y1="1231" y2="1217" /><line stroke="rgb(10%,10%,16%)" x1="1105" x2="1105" y1="1217" y2="1217" /><line stroke="rgb(10%,10%,16%)" x1="1105" x2="1130" y1="1217" y2="1228" /><line stroke="rgb(10%,10%,16%)" x1="1130" x2="1075" y1="1228" y2="1284" /><line stroke="rgb(10%,10%,16%)" x1="1075" x2="1060" y1="1284" y2="1219" /><line stroke="rgb(10%,10%,16%)" x1="1060" x2="1096" y1="1219" y2="1230" /><line stroke="rgb(10%,10%,16%)" x1="1096" x2="1080" y1="1230" y2="1241" /><line stroke="rgb(10%,10%,16%)" x1="1080" x2="1091" y1="1241" y2="1268" /><line stroke="rgb(10%,10%,16%)" x1="1091" x2="1115" y1="1268" y2="1248" /><line stroke="rgb(10%,10%,16%)" x1="1115" x2="1103" y1="1248" y2="1231" /><line stroke="rgb(10%,10%,16%)" x1="1103" x2="1101" y1="1231" y2="1217" /><line stroke="rgb(10%,10%,16%)" x1="1101" x2="1106" y1="1217" y2="1216" /><line stroke="rgb(10%,10%,16%)" x1="1106" x2="1060" y1="1216" y2="1282" /><line stroke="rgb(10%,10%,16%)" x1="1060" x2="1131" y1="1282" y2="1271" /><line stroke="rgb(10%,10%,16%)" x1="1131" x2="1122" y1="1271" y2="1216" /><line stroke="rgb(10%,10%,16%)" x1="1122" x2="1114" y1="1216" y2="244" /><line stroke="rgb(10%,10%,16%)" x1="1114" x2="1134" y1="244" y2="270" /><line stroke="rgb(10%,10%,16%)" x1="1134" x2="1134" y1="270" y2="244" /><line stroke="rgb(10%,10%,16%)" x1="1134" x2="1114" y1="244" y2="244" /><line stroke="rgb(10%,10%,16%)" x1="1114" x2="1137" y1="244" y2="267" /><line stroke="rgb(10%,10%,16%)" x1="1137" x2="1111" y1="267" y2="247" /><line stroke="rgb(10%,10%,16%)" x1="1111" x2="1111" y1="247" y2="247" /></g></svg>