<?xml version="1.0" encoding="utf-8" ?>
<svg baseProfile="full" height="450" version="1.1" width="800" xmlns="http://www.w3.org/2000/svg" xmlns:ev="http://www.w3.org/2001/xml-events" xmlns:xlink="http://www.w3.org/1999/xlink"><defs /><g fill="none" id="shapes"><line stroke="rgb(10%,10%,16%)" x1="0" x2="449" y1="450" y2="0" /><line stroke="rgb(10%,10%,16%)" x1="449" x2="417" y1="0" y2="78" /><line stroke="rgb(10%,10%,16%)" x1="417" x2="291" y1="78" y2="106" /><line stroke="rgb(10%,10%,16%)" x1="291" x2="261" y1="106" y2="200" /><line stroke="rgb(10%,10%,16%)" x1="261" x2="200" y1="200" y2="252" /><line stroke="rgb(10%,10%,16%)" x1="200" x2="113" y1="252" y2="297" /><line stroke="rgb(10%,10%,16%)" x1="113" x2="74" y1="297" y2="210" /><line stroke="rgb(10%,10%,16%)" x1="74" x2="116" y1="210" y2="142" /><line stroke="rgb(10%,10%,16%)" x1="116" x2="40" y1="142" y2="97" /><line stroke="rgb(10%,10%,16%)" x1="40" x2="364" y1="97" y2="399" /><line stroke="rgb(10%,10%,16%)" x1="364" x2="408" y1="399" y2="338" /><line stroke="rgb(10%,10%,16%)" x1="408" x2="364" y1="338" y2="287" /><line stroke="rgb(10%,10%,16%)" x1="364" x2="298" y1="287" y2="199" /><line stroke="rgb(10%,10%,16%)" x1="298" x2="390" y1="199" y2="267" /><line stroke="rgb(10%,10%,16%)" x1="390" x2="364" y1="267" y2="185" /><line stroke="rgb(10%,10%,16%)" x1="364" x2="400" y1="185" y2="129" /><line stroke="rgb(10%,10%,16%)" x1="400" x2="517" y1="129" y2="262" /><line stroke="rgb(10%,10%,16%)" x1="517" x2="578" y1="262" y2="304" /><line stroke="rgb(10%,10%,16%)" x1="578" x2="652" y1="304" y2="335" /><line stroke="rgb(10%,10%,16%)" x1="652" x2="602" y1="335" y2="344" /><line stroke="rgb(10%,10%,16%)" x1="602" x2="486" y1="344" y2="329" /><line stroke="rgb(10%,10%,16%)" x1="486" x2="443" y1="329" y2="415" /><line stroke="rgb(10%,10%,16%)" x1="443" x2="793" y1="415" y2="400" /><line stroke="rgb(10%,10%,16%)" x1="793" x2="719" y1="400" y2="306" /><line stroke="rgb(10%,10%,16%)" x1="719" x2="690" y1="306" y2="236" /><line stroke="rgb(10%,10%,16%)" x1="690" x2="668" y1="236" y2="106" /><line stroke="rgb(10%,10%,16%)" x1="668" x2="622" y1="106" y2="199" /><line stroke="rgb(10%,10%,16%)" x1="622" x2="576" y1="199" y2="154" /><line stroke="rgb(10%,10%,16%)" x1="576" x2="518" y1="154" y2="77" /><line stroke="rgb(10%,10%,16%)" x1="518" x2="577" y1="77" y2="34" /><line stroke="rgb(10%,10%,16%)" x1="577" x2="693" y1="34" y2="63" /><line stroke="rgb(10%,10%,16%)" x1="693" x2="783" y1="63" y2="103" /><line stroke="rgb(10%,10%,16%)" x1="783" x2="733" y1="103" y2="38" /><line stroke="rgb(10%,10%,16%)" x1="733" x2="706" y1="38" y2="0" /><line stroke="rgb(10%,10%,16%)" x1="706" x2="193" y1="0" y2="0" /><line stroke="rgb(10%,10%,16%)" x1="193" x2="412" y1="0" y2="0" /><line stroke="rgb(10%,10%,16%)" x1="412" x2="0" y1="0" y2="0" /><line stroke="rgb(10%,10%,16%)" x1="0" x2="118" y1="0" y2="0" /><line stroke="rgb(10%,10%,16%)" x1="118" x2="345" y1="0" y2="87" /><line stroke="rgb(10%,10%,16%)" x1="345" x2="344" y1="87" y2="87" /><line stroke="rgb(10%,10%,16%)" x1="344" x2="625" y1="87" y2="233" /><line stroke="rgb(10%,10%,16%)" x1="625" x2="623" y1="233" y2="235" /><line stroke="rgb(10%,10%,16%)" x1="623" x2="402" y1="235" y2="275" /><line stroke="rgb(10%,10%,16%)" x1="402" x2="404" y1="275" y2="275" /><line stroke="rgb(10%,10%,16%)" x1="404" x2="279" y1="275" y2="320" /><line stroke="rgb(10%,10%,16%)" x1="279" x2="279" y1="320" y2="321" /><line stroke="rgb(10%,10%,16%)" x1="279" x2="130" y1="321" y2="395" /><line stroke="rgb(10%,10%,16%)" x1="130" x2="130" y1="395" y2="400" /></g></svg>