<?xml version="1.0" encoding="utf-8" ?>
<svg baseProfile="full" height="569" version="1.1" width="492" xmlns="http://www.w3.org/2000/svg" xmlns:ev="http://www.w3.org/2001/xml-events" xmlns:xlink="http://www.w3.org/1999/xlink"><defs /><g fill="none" id="shapes"><line stroke="rgb(10%,10%,16%)" x1="0" x2="0" y1="569" y2="0" /><line stroke="rgb(10%,10%,16%)" x1="0" x2="16" y1="0" y2="6" /><line stroke="rgb(10%,10%,16%)" x1="16" x2="0" y1="6" y2="563" /><line stroke="rgb(10%,10%,16%)" x1="0" x2="489" y1="563" y2="526" /><line stroke="rgb(10%,10%,16%)" x1="489" x2="471" y1="526" y2="5" /><line stroke="rgb(10%,10%,16%)" x1="471" x2="491" y1="5" y2="0" /><line stroke="rgb(10%,10%,16%)" x1="491" x2="74" y1="0" y2="20" /><line stroke="rgb(10%,10%,16%)" x1="74" x2="101" y1="20" y2="27" /><line stroke="rgb(10%,10%,16%)" x1="101" x2="130" y1="27" y2="34" /><line stroke="rgb(10%,10%,16%)" x1="130" x2="149" y1="34" y2="43" /><line stroke="rgb(10%,10%,16%)" x1="149" x2="174" y1="43" y2="55" /><line stroke="rgb(10%,10%,16%)" x1="174" x2="183" y1="55" y2="80" /><line stroke="rgb(10%,10%,16%)" x1="183" x2="190" y1="80" y2="89" /><line stroke="rgb(10%,10%,16%)" x1="190" x2="222" y1="89" y2="80" /><line stroke="rgb(10%,10%,16%)" x1="222" x2="229" y1="80" y2="66" /><line stroke="rgb(10%,10%,16%)" x1="229" x2="240" y1="66" y2="59" /><line stroke="rgb(10%,10%,16%)" x1="240" x2="250" y1="59" y2="84" /><line stroke="rgb(10%,10%,16%)" x1="250" x2="257" y1="84" y2="96" /><line stroke="rgb(10%,10%,16%)" x1="257" x2="245" y1="96" y2="117" /><line stroke="rgb(10%,10%,16%)" x1="245" x2="210" y1="117" y2="125" /><line stroke="rgb(10%,10%,16%)" x1="210" x2="187" y1="125" y2="117" /><line stroke="rgb(10%,10%,16%)" x1="187" x2="177" y1="117" y2="128" /><line stroke="rgb(10%,10%,16%)" x1="177" x2="164" y1="128" y2="137" /><line stroke="rgb(10%,10%,16%)" x1="164" x2="152" y1="137" y2="145" /><line stroke="rgb(10%,10%,16%)" x1="152" x2="135" y1="145" y2="152" /><line stroke="rgb(10%,10%,16%)" x1="135" x2="127" y1="152" y2="161" /><line stroke="rgb(10%,10%,16%)" x1="127" x2="106" y1="161" y2="155" /><line stroke="rgb(10%,10%,16%)" x1="106" x2="99" y1="155" y2="145" /><line stroke="rgb(10%,10%,16%)" x1="99" x2="108" y1="145" y2="127" /><line stroke="rgb(10%,10%,16%)" x1="108" x2="125" y1="127" y2="112" /><line stroke="rgb(10%,10%,16%)" x1="125" x2="117" y1="112" y2="92" /><line stroke="rgb(10%,10%,16%)" x1="117" x2="110" y1="92" y2="103" /><line stroke="rgb(10%,10%,16%)" x1="110" x2="103" y1="103" y2="116" /><line stroke="rgb(10%,10%,16%)" x1="103" x2="85" y1="116" y2="59" /><line stroke="rgb(10%,10%,16%)" x1="85" x2="75" y1="59" y2="44" /><line stroke="rgb(10%,10%,16%)" x1="75" x2="68" y1="44" y2="101" /><line stroke="rgb(10%,10%,16%)" x1="68" x2="61" y1="101" y2="73" /><line stroke="rgb(10%,10%,16%)" x1="61" x2="66" y1="73" y2="20" /><line stroke="rgb(10%,10%,16%)" x1="66" x2="388" y1="20" y2="23" /><line stroke="rgb(10%,10%,16%)" x1="388" x2="426" y1="23" y2="43" /><line stroke="rgb(10%,10%,16%)" x1="426" x2="418" y1="43" y2="154" /><line stroke="rgb(10%,10%,16%)" x1="418" x2="406" y1="154" y2="97" /><line stroke="rgb(10%,10%,16%)" x1="406" x2="376" y1="97" y2="107" /><line stroke="rgb(10%,10%,16%)" x1="376" x2="357" y1="107" y2="98" /><line stroke="rgb(10%,10%,16%)" x1="357" x2="350" y1="98" y2="112" /><line stroke="rgb(10%,10%,16%)" x1="350" x2="334" y1="112" y2="104" /><line stroke="rgb(10%,10%,16%)" x1="334" x2="320" y1="104" y2="115" /><line stroke="rgb(10%,10%,16%)" x1="320" x2="302" y1="115" y2="98" /><line stroke="rgb(10%,10%,16%)" x1="302" x2="316" y1="98" y2="81" /><line stroke="rgb(10%,10%,16%)" x1="316" x2="338" y1="81" y2="74" /><line stroke="rgb(10%,10%,16%)" x1="338" x2="348" y1="74" y2="80" /><line stroke="rgb(10%,10%,16%)" x1="348" x2="360" y1="80" y2="69" /><line stroke="rgb(10%,10%,16%)" x1="360" x2="353" y1="69" y2="60" /><line stroke="rgb(10%,10%,16%)" x1="353" x2="344" y1="60" y2="45" /><line stroke="rgb(10%,10%,16%)" x1="344" x2="334" y1="45" y2="35" /><line stroke="rgb(10%,10%,16%)" x1="334" x2="309" y1="35" y2="29" /><line stroke="rgb(10%,10%,16%)" x1="309" x2="363" y1="29" y2="23" /><line stroke="rgb(10%,10%,16%)" x1="363" x2="305" y1="23" y2="41" /><line stroke="rgb(10%,10%,16%)" x1="305" x2="322" y1="41" y2="47" /><line stroke="rgb(10%,10%,16%)" x1="322" x2="311" y1="47" y2="80" /><line stroke="rgb(10%,10%,16%)" x1="311" x2="301" y1="80" y2="87" /><line stroke="rgb(10%,10%,16%)" x1="301" x2="290" y1="87" y2="95" /><line stroke="rgb(10%,10%,16%)" x1="290" x2="296" y1="95" y2="117" /><line stroke="rgb(10%,10%,16%)" x1="296" x2="303" y1="117" y2="124" /><line stroke="rgb(10%,10%,16%)" x1="303" x2="314" y1="124" y2="135" /><line stroke="rgb(10%,10%,16%)" x1="314" x2="321" y1="135" y2="145" /><line stroke="rgb(10%,10%,16%)" x1="321" x2="292" y1="145" y2="125" /><line stroke="rgb(10%,10%,16%)" x1="292" x2="280" y1="125" y2="113" /><line stroke="rgb(10%,10%,16%)" x1="280" x2="273" y1="113" y2="120" /><line stroke="rgb(10%,10%,16%)" x1="273" x2="262" y1="120" y2="145" /><line stroke="rgb(10%,10%,16%)" x1="262" x2="268" y1="145" y2="60" /><line stroke="rgb(10%,10%,16%)" x1="268" x2="276" y1="60" y2="48" /><line stroke="rgb(10%,10%,16%)" x1="276" x2="300" y1="48" y2="42" /><line stroke="rgb(10%,10%,16%)" x1="300" x2="301" y1="42" y2="41" /><line stroke="rgb(10%,10%,16%)" x1="301" x2="310" y1="41" y2="53" /><line stroke="rgb(10%,10%,16%)" x1="310" x2="297" y1="53" y2="59" /><line stroke="rgb(10%,10%,16%)" x1="297" x2="287" y1="59" y2="65" /><line stroke="rgb(10%,10%,16%)" x1="287" x2="278" y1="65" y2="71" /><line stroke="rgb(10%,10%,16%)" x1="278" x2="287" y1="71" y2="83" /><line stroke="rgb(10%,10%,16%)" x1="287" x2="300" y1="83" y2="72" /><line stroke="rgb(10%,10%,16%)" x1="300" x2="308" y1="72" y2="65" /><line stroke="rgb(10%,10%,16%)" x1="308" x2="314" y1="65" y2="57" /><line stroke="rgb(10%,10%,16%)" x1="314" x2="314" y1="57" y2="53" /><line stroke="rgb(10%,10%,16%)" x1="314" x2="61" y1="53" y2="87" /><line stroke="rgb(10%,10%,16%)" x1="61" x2="74" y1="87" y2="114" /><line stroke="rgb(10%,10%,16%)" x1="74" x2="86" y1="114" y2="156" /><line stroke="rgb(10%,10%,16%)" x1="86" x2="102" y1="156" y2="218" /><line stroke="rgb(10%,10%,16%)" x1="102" x2="122" y1="218" y2="245" /><line stroke="rgb(10%,10%,16%)" x1="122" x2="130" y1="245" y2="236" /><line stroke="rgb(10%,10%,16%)" x1="130" x2="124" y1="236" y2="221" /><line stroke="rgb(10%,10%,16%)" x1="124" x2="146" y1="221" y2="197" /><line stroke="rgb(10%,10%,16%)" x1="146" x2="164" y1="197" y2="181" /><line stroke="rgb(10%,10%,16%)" x1="164" x2="148" y1="181" y2="206" /><line stroke="rgb(10%,10%,16%)" x1="148" x2="170" y1="206" y2="200" /><line stroke="rgb(10%,10%,16%)" x1="170" x2="188" y1="200" y2="185" /><line stroke="rgb(10%,10%,16%)" x1="188" x2="205" y1="185" y2="145" /><line stroke="rgb(10%,10%,16%)" x1="205" x2="225" y1="145" y2="157" /><line stroke="rgb(10%,10%,16%)" x1="225" x2="217" y1="157" y2="175" /><line stroke="rgb(10%,10%,16%)" x1="217" x2="198" y1="175" y2="216" /><line stroke="rgb(10%,10%,16%)" x1="198" x2="184" y1="216" y2="233" /><line stroke="rgb(10%,10%,16%)" x1="184" x2="169" y1="233" y2="241" /><line stroke="rgb(10%,10%,16%)" x1="169" x2="152" y1="241" y2="266" /><line stroke="rgb(10%,10%,16%)" x1="152" x2="132" y1="266" y2="280" /><line stroke="rgb(10%,10%,16%)" x1="132" x2="110" y1="280" y2="296" /><line stroke="rgb(10%,10%,16%)" x1="110" x2="131" y1="296" y2="309" /><line stroke="rgb(10%,10%,16%)" x1="131" x2="178" y1="309" y2="324" /><line stroke="rgb(10%,10%,16%)" x1="178" x2="200" y1="324" y2="338" /><line stroke="rgb(10%,10%,16%)" x1="200" x2="177" y1="338" y2="353" /><line stroke="rgb(10%,10%,16%)" x1="177" x2="167" y1="353" y2="377" /><line stroke="rgb(10%,10%,16%)" x1="167" x2="212" y1="377" y2="371" /><line stroke="rgb(10%,10%,16%)" x1="212" x2="194" y1="371" y2="360" /><line stroke="rgb(10%,10%,16%)" x1="194" x2="200" y1="360" y2="343" /><line stroke="rgb(10%,10%,16%)" x1="200" x2="217" y1="343" y2="361" /><line stroke="rgb(10%,10%,16%)" x1="217" x2="230" y1="361" y2="379" /><line stroke="rgb(10%,10%,16%)" x1="230" x2="223" y1="379" y2="417" /><line stroke="rgb(10%,10%,16%)" x1="223" x2="214" y1="417" y2="396" /><line stroke="rgb(10%,10%,16%)" x1="214" x2="204" y1="396" y2="425" /><line stroke="rgb(10%,10%,16%)" x1="204" x2="195" y1="425" y2="435" /><line stroke="rgb(10%,10%,16%)" x1="195" x2="182" y1="435" y2="415" /><line stroke="rgb(10%,10%,16%)" x1="182" x2="127" y1="415" y2="409" /><line stroke="rgb(10%,10%,16%)" x1="127" x2="89" y1="409" y2="392" /><line stroke="rgb(10%,10%,16%)" x1="89" x2="139" y1="392" y2="380" /><line stroke="rgb(10%,10%,16%)" x1="139" x2="87" y1="380" y2="359" /><line stroke="rgb(10%,10%,16%)" x1="87" x2="74" y1="359" y2="294" /><line stroke="rgb(10%,10%,16%)" x1="74" x2="63" y1="294" y2="224" /><line stroke="rgb(10%,10%,16%)" x1="63" x2="61" y1="224" y2="95" /><line stroke="rgb(10%,10%,16%)" x1="61" x2="170" y1="95" y2="91" /><line stroke="rgb(10%,10%,16%)" x1="170" x2="139" y1="91" y2="97" /><line stroke="rgb(10%,10%,16%)" x1="139" x2="145" y1="97" y2="110" /><line stroke="rgb(10%,10%,16%)" x1="145" x2="160" y1="110" y2="104" /><line stroke="rgb(10%,10%,16%)" x1="160" x2="175" y1="104" y2="98" /><line stroke="rgb(10%,10%,16%)" x1="175" x2="172" y1="98" y2="91" /><line stroke="rgb(10%,10%,16%)" x1="172" x2="375" y1="91" y2="140" /><line stroke="rgb(10%,10%,16%)" x1="375" x2="395" y1="140" y2="147" /><line stroke="rgb(10%,10%,16%)" x1="395" x2="354" y1="147" y2="141" /><line stroke="rgb(10%,10%,16%)" x1="354" x2="360" y1="141" y2="140" /><line stroke="rgb(10%,10%,16%)" x1="360" x2="310" y1="140" y2="171" /><line stroke="rgb(10%,10%,16%)" x1="310" x2="364" y1="171" y2="179" /><line stroke="rgb(10%,10%,16%)" x1="364" x2="382" y1="179" y2="187" /><line stroke="rgb(10%,10%,16%)" x1="382" x2="391" y1="187" y2="197" /><line stroke="rgb(10%,10%,16%)" x1="391" x2="398" y1="197" y2="208" /><line stroke="rgb(10%,10%,16%)" x1="398" x2="407" y1="208" y2="220" /><line stroke="rgb(10%,10%,16%)" x1="407" x2="413" y1="220" y2="256" /><line stroke="rgb(10%,10%,16%)" x1="413" x2="406" y1="256" y2="307" /><line stroke="rgb(10%,10%,16%)" x1="406" x2="415" y1="307" y2="323" /><line stroke="rgb(10%,10%,16%)" x1="415" x2="394" y1="323" y2="334" /><line stroke="rgb(10%,10%,16%)" x1="394" x2="419" y1="334" y2="361" /><line stroke="rgb(10%,10%,16%)" x1="419" x2="387" y1="361" y2="352" /><line stroke="rgb(10%,10%,16%)" x1="387" x2="372" y1="352" y2="360" /><line stroke="rgb(10%,10%,16%)" x1="372" x2="361" y1="360" y2="377" /><line stroke="rgb(10%,10%,16%)" x1="361" x2="352" y1="377" y2="386" /><line stroke="rgb(10%,10%,16%)" x1="352" x2="338" y1="386" y2="403" /><line stroke="rgb(10%,10%,16%)" x1="338" x2="328" y1="403" y2="414" /><line stroke="rgb(10%,10%,16%)" x1="328" x2="319" y1="414" y2="420" /><line stroke="rgb(10%,10%,16%)" x1="319" x2="306" y1="420" y2="404" /><line stroke="rgb(10%,10%,16%)" x1="306" x2="294" y1="404" y2="389" /><line stroke="rgb(10%,10%,16%)" x1="294" x2="287" y1="389" y2="381" /><line stroke="rgb(10%,10%,16%)" x1="287" x2="276" y1="381" y2="371" /><line stroke="rgb(10%,10%,16%)" x1="276" x2="256" y1="371" y2="353" /><line stroke="rgb(10%,10%,16%)" x1="256" x2="247" y1="353" y2="344" /><line stroke="rgb(10%,10%,16%)" x1="247" x2="238" y1="344" y2="332" /><line stroke="rgb(10%,10%,16%)" x1="238" x2="228" y1="332" y2="313" /><line stroke="rgb(10%,10%,16%)" x1="228" x2="235" y1="313" y2="229" /><line stroke="rgb(10%,10%,16%)" x1="235" x2="245" y1="229" y2="210" /><line stroke="rgb(10%,10%,16%)" x1="245" x2="255" y1="210" y2="202" /><line stroke="rgb(10%,10%,16%)" x1="255" x2="266" y1="202" y2="191" /><line stroke="rgb(10%,10%,16%)" x1="266" x2="281" y1="191" y2="181" /><line stroke="rgb(10%,10%,16%)" x1="281" x2="308" y1="181" y2="172" /><line stroke="rgb(10%,10%,16%)" x1="308" x2="309" y1="172" y2="171" /><line stroke="rgb(10%,10%,16%)" x1="309" x2="72" y1="171" y2="254" /><line stroke="rgb(10%,10%,16%)" x1="72" x2="72" y1="254" y2="254" /><line stroke="rgb(10%,10%,16%)" x1="72" x2="78" y1="254" y2="280" /><line stroke="rgb(10%,10%,16%)" x1="78" x2="73" y1="280" y2="254" /><line stroke="rgb(10%,10%,16%)" x1="73" x2="307" y1="254" y2="256" /><line stroke="rgb(10%,10%,16%)" x1="307" x2="297" y1="256" y2="268" /><line stroke="rgb(10%,10%,16%)" x1="297" x2="288" y1="268" y2="261" /><line stroke="rgb(10%,10%,16%)" x1="288" x2="277" y1="261" y2="271" /><line stroke="rgb(10%,10%,16%)" x1="277" x2="290" y1="271" y2="353" /><line stroke="rgb(10%,10%,16%)" x1="290" x2="301" y1="353" y2="321" /><line stroke="rgb(10%,10%,16%)" x1="301" x2="307" y1="321" y2="336" /><line stroke="rgb(10%,10%,16%)" x1="307" x2="315" y1="336" y2="330" /><line stroke="rgb(10%,10%,16%)" x1="315" x2="329" y1="330" y2="321" /><line stroke="rgb(10%,10%,16%)" x1="329" x2="340" y1="321" y2="272" /><line stroke="rgb(10%,10%,16%)" x1="340" x2="321" y1="272" y2="266" /><line stroke="rgb(10%,10%,16%)" x1="321" x2="307" y1="266" y2="258" /><line stroke="rgb(10%,10%,16%)" x1="307" x2="344" y1="258" y2="291" /><line stroke="rgb(10%,10%,16%)" x1="344" x2="349" y1="291" y2="291" /><line stroke="rgb(10%,10%,16%)" x1="349" x2="314" y1="291" y2="342" /><line stroke="rgb(10%,10%,16%)" x1="314" x2="328" y1="342" y2="342" /><line stroke="rgb(10%,10%,16%)" x1="328" x2="240" y1="342" y2="361" /><line stroke="rgb(10%,10%,16%)" x1="240" x2="236" y1="361" y2="365" /><line stroke="rgb(10%,10%,16%)" x1="236" x2="400" y1="365" y2="363" /><line stroke="rgb(10%,10%,16%)" x1="400" x2="400" y1="363" y2="367" /><line stroke="rgb(10%,10%,16%)" x1="400" x2="246" y1="367" y2="439" /><line stroke="rgb(10%,10%,16%)" x1="246" x2="246" y1="439" y2="441" /><line stroke="rgb(10%,10%,16%)" x1="246" x2="168" y1="441" y2="448" /><line stroke="rgb(10%,10%,16%)" x1="168" x2="168" y1="448" y2="457" /><line stroke="rgb(10%,10%,16%)" x1="168" x2="375" y1="457" y2="451" /><line stroke="rgb(10%,10%,16%)" x1="375" x2="373" y1="451" y2="451" /><line stroke="rgb(10%,10%,16%)" x1="373" x2="412" y1="451" y2="457" /><line stroke="rgb(10%,10%,16%)" x1="412" x2="413" y1="457" y2="458" /><line stroke="rgb(10%,10%,16%)" x1="413" x2="300" y1="458" y2="464" /><line stroke="rgb(10%,10%,16%)" x1="300" x2="302" y1="464" y2="464" /><line stroke="rgb(10%,10%,16%)" x1="302" x2="134" y1="464" y2="472" /><line stroke="rgb(10%,10%,16%)" x1="134" x2="133" y1="472" y2="472" /><line stroke="rgb(10%,10%,16%)" x1="133" x2="199" y1="472" y2="497" /><line stroke="rgb(10%,10%,16%)" x1="199" x2="200" y1="497" y2="498" /></g></svg>