<?xml version="1.0" encoding="utf-8" ?>
<svg baseProfile="full" height="3032" version="1.1" width="4048" xmlns="http://www.w3.org/2000/svg" xmlns:ev="http://www.w3.org/2001/xml-events" xmlns:xlink="http://www.w3.org/1999/xlink"><defs /><g fill="none" id="shapes"><line stroke="rgb(10%,10%,16%)" x1="0" x2="0" y1="3032" y2="0" /><line stroke="rgb(10%,10%,16%)" x1="0" x2="61" y1="0" y2="909" /><line stroke="rgb(10%,10%,16%)" x1="61" x2="175" y1="909" y2="929" /><line stroke="rgb(10%,10%,16%)" x1="175" x2="105" y1="929" y2="953" /><line stroke="rgb(10%,10%,16%)" x1="105" x2="27" y1="953" y2="1063" /><line stroke="rgb(10%,10%,16%)" x1="27" x2="142" y1="1063" y2="1093" /><line stroke="rgb(10%,10%,16%)" x1="142" x2="6" y1="1093" y2="1372" /><line stroke="rgb(10%,10%,16%)" x1="6" x2="29" y1="1372" y2="1722" /><line stroke="rgb(10%,10%,16%)" x1="29" x2="10" y1="1722" y2="1801" /><line stroke="rgb(10%,10%,16%)" x1="10" x2="27" y1="1801" y2="1825" /><line stroke="rgb(10%,10%,16%)" x1="27" x2="107" y1="1825" y2="3015" /><line stroke="rgb(10%,10%,16%)" x1="107" x2="137" y1="3015" y2="2982" /><line stroke="rgb(10%,10%,16%)" x1="137" x2="160" y1="2982" y2="2953" /><line stroke="rgb(10%,10%,16%)" x1="160" x2="179" y1="2953" y2="3005" /><line stroke="rgb(10%,10%,16%)" x1="179" x2="2026" y1="3005" y2="3021" /><line stroke="rgb(10%,10%,16%)" x1="2026" x2="2947" y1="3021" y2="3001" /><line stroke="rgb(10%,10%,16%)" x1="2947" x2="2999" y1="3001" y2="2979" /><line stroke="rgb(10%,10%,16%)" x1="2999" x2="3047" y1="2979" y2="2958" /><line stroke="rgb(10%,10%,16%)" x1="3047" x2="3090" y1="2958" y2="2931" /><line stroke="rgb(10%,10%,16%)" x1="3090" x2="3148" y1="2931" y2="2910" /><line stroke="rgb(10%,10%,16%)" x1="3148" x2="3187" y1="2910" y2="2889" /><line stroke="rgb(10%,10%,16%)" x1="3187" x2="3230" y1="2889" y2="2866" /><line stroke="rgb(10%,10%,16%)" x1="3230" x2="3268" y1="2866" y2="2840" /><line stroke="rgb(10%,10%,16%)" x1="3268" x2="3300" y1="2840" y2="2815" /><line stroke="rgb(10%,10%,16%)" x1="3300" x2="3332" y1="2815" y2="2787" /><line stroke="rgb(10%,10%,16%)" x1="3332" x2="3368" y1="2787" y2="2755" /><line stroke="rgb(10%,10%,16%)" x1="3368" x2="3392" y1="2755" y2="2733" /><line stroke="rgb(10%,10%,16%)" x1="3392" x2="3415" y1="2733" y2="2699" /><line stroke="rgb(10%,10%,16%)" x1="3415" x2="3437" y1="2699" y2="2655" /><line stroke="rgb(10%,10%,16%)" x1="3437" x2="3464" y1="2655" y2="2582" /><line stroke="rgb(10%,10%,16%)" x1="3464" x2="3488" y1="2582" y2="2545" /><line stroke="rgb(10%,10%,16%)" x1="3488" x2="3508" y1="2545" y2="2489" /><line stroke="rgb(10%,10%,16%)" x1="3508" x2="3529" y1="2489" y2="2436" /><line stroke="rgb(10%,10%,16%)" x1="3529" x2="3548" y1="2436" y2="2392" /><line stroke="rgb(10%,10%,16%)" x1="3548" x2="3572" y1="2392" y2="2358" /><line stroke="rgb(10%,10%,16%)" x1="3572" x2="3592" y1="2358" y2="2301" /><line stroke="rgb(10%,10%,16%)" x1="3592" x2="3612" y1="2301" y2="2257" /><line stroke="rgb(10%,10%,16%)" x1="3612" x2="3633" y1="2257" y2="2180" /><line stroke="rgb(10%,10%,16%)" x1="3633" x2="3612" y1="2180" y2="2076" /><line stroke="rgb(10%,10%,16%)" x1="3612" x2="3574" y1="2076" y2="2022" /><line stroke="rgb(10%,10%,16%)" x1="3574" x2="3551" y1="2022" y2="1965" /><line stroke="rgb(10%,10%,16%)" x1="3551" x2="3529" y1="1965" y2="1920" /><line stroke="rgb(10%,10%,16%)" x1="3529" x2="3506" y1="1920" y2="1861" /><line stroke="rgb(10%,10%,16%)" x1="3506" x2="3485" y1="1861" y2="1798" /><line stroke="rgb(10%,10%,16%)" x1="3485" x2="3464" y1="1798" y2="1754" /><line stroke="rgb(10%,10%,16%)" x1="3464" x2="3434" y1="1754" y2="1724" /><line stroke="rgb(10%,10%,16%)" x1="3434" x2="3458" y1="1724" y2="1701" /><line stroke="rgb(10%,10%,16%)" x1="3458" x2="3492" y1="1701" y2="1723" /><line stroke="rgb(10%,10%,16%)" x1="3492" x2="3521" y1="1723" y2="1749" /><line stroke="rgb(10%,10%,16%)" x1="3521" x2="3545" y1="1749" y2="1787" /><line stroke="rgb(10%,10%,16%)" x1="3545" x2="3571" y1="1787" y2="1871" /><line stroke="rgb(10%,10%,16%)" x1="3571" x2="3592" y1="1871" y2="1911" /><line stroke="rgb(10%,10%,16%)" x1="3592" x2="3615" y1="1911" y2="1951" /><line stroke="rgb(10%,10%,16%)" x1="3615" x2="3644" y1="1951" y2="1999" /><line stroke="rgb(10%,10%,16%)" x1="3644" x2="3664" y1="1999" y2="2045" /><line stroke="rgb(10%,10%,16%)" x1="3664" x2="3688" y1="2045" y2="2084" /><line stroke="rgb(10%,10%,16%)" x1="3688" x2="3707" y1="2084" y2="2167" /><line stroke="rgb(10%,10%,16%)" x1="3707" x2="3684" y1="2167" y2="2275" /><line stroke="rgb(10%,10%,16%)" x1="3684" x2="3661" y1="2275" y2="2353" /><line stroke="rgb(10%,10%,16%)" x1="3661" x2="3631" y1="2353" y2="2409" /><line stroke="rgb(10%,10%,16%)" x1="3631" x2="3608" y1="2409" y2="2482" /><line stroke="rgb(10%,10%,16%)" x1="3608" x2="3576" y1="2482" y2="2540" /><line stroke="rgb(10%,10%,16%)" x1="3576" x2="3549" y1="2540" y2="2625" /><line stroke="rgb(10%,10%,16%)" x1="3549" x2="3528" y1="2625" y2="2678" /><line stroke="rgb(10%,10%,16%)" x1="3528" x2="3509" y1="2678" y2="2719" /><line stroke="rgb(10%,10%,16%)" x1="3509" x2="3489" y1="2719" y2="2748" /><line stroke="rgb(10%,10%,16%)" x1="3489" x2="3448" y1="2748" y2="2793" /><line stroke="rgb(10%,10%,16%)" x1="3448" x2="3411" y1="2793" y2="2819" /><line stroke="rgb(10%,10%,16%)" x1="3411" x2="3377" y1="2819" y2="2853" /><line stroke="rgb(10%,10%,16%)" x1="3377" x2="3340" y1="2853" y2="2891" /><line stroke="rgb(10%,10%,16%)" x1="3340" x2="3285" y1="2891" y2="2918" /><line stroke="rgb(10%,10%,16%)" x1="3285" x2="3232" y1="2918" y2="2953" /><line stroke="rgb(10%,10%,16%)" x1="3232" x2="3192" y1="2953" y2="2974" /><line stroke="rgb(10%,10%,16%)" x1="3192" x2="3152" y1="2974" y2="2996" /><line stroke="rgb(10%,10%,16%)" x1="3152" x2="3090" y1="2996" y2="3018" /><line stroke="rgb(10%,10%,16%)" x1="3090" x2="3743" y1="3018" y2="2977" /><line stroke="rgb(10%,10%,16%)" x1="3743" x2="3765" y1="2977" y2="3001" /><line stroke="rgb(10%,10%,16%)" x1="3765" x2="4047" y1="3001" y2="2940" /><line stroke="rgb(10%,10%,16%)" x1="4047" x2="4029" y1="2940" y2="2899" /><line stroke="rgb(10%,10%,16%)" x1="4029" x2="4009" y1="2899" y2="1496" /><line stroke="rgb(10%,10%,16%)" x1="4009" x2="4039" y1="1496" y2="1305" /><line stroke="rgb(10%,10%,16%)" x1="4039" x2="3848" y1="1305" y2="1286" /><line stroke="rgb(10%,10%,16%)" x1="3848" x2="3784" y1="1286" y2="1267" /><line stroke="rgb(10%,10%,16%)" x1="3784" x2="3705" y1="1267" y2="1247" /><line stroke="rgb(10%,10%,16%)" x1="3705" x2="3637" y1="1247" y2="1226" /><line stroke="rgb(10%,10%,16%)" x1="3637" x2="3013" y1="1226" y2="1245" /><line stroke="rgb(10%,10%,16%)" x1="3013" x2="2948" y1="1245" y2="1265" /><line stroke="rgb(10%,10%,16%)" x1="2948" x2="2866" y1="1265" y2="1284" /><line stroke="rgb(10%,10%,16%)" x1="2866" x2="2773" y1="1284" y2="1303" /><line stroke="rgb(10%,10%,16%)" x1="2773" x2="2522" y1="1303" y2="1272" /><line stroke="rgb(10%,10%,16%)" x1="2522" x2="2543" y1="1272" y2="1251" /><line stroke="rgb(10%,10%,16%)" x1="2543" x2="2349" y1="1251" y2="1274" /><line stroke="rgb(10%,10%,16%)" x1="2349" x2="2446" y1="1274" y2="1310" /><line stroke="rgb(10%,10%,16%)" x1="2446" x2="2264" y1="1310" y2="1290" /><line stroke="rgb(10%,10%,16%)" x1="2264" x2="2227" y1="1290" y2="1268" /><line stroke="rgb(10%,10%,16%)" x1="2227" x2="2186" y1="1268" y2="1249" /><line stroke="rgb(10%,10%,16%)" x1="2186" x2="1920" y1="1249" y2="1274" /><line stroke="rgb(10%,10%,16%)" x1="1920" x2="1678" y1="1274" y2="1251" /><line stroke="rgb(10%,10%,16%)" x1="1678" x2="1569" y1="1251" y2="1232" /><line stroke="rgb(10%,10%,16%)" x1="1569" x2="1456" y1="1232" y2="1203" /><line stroke="rgb(10%,10%,16%)" x1="1456" x2="1366" y1="1203" y2="1176" /><line stroke="rgb(10%,10%,16%)" x1="1366" x2="1321" y1="1176" y2="1157" /><line stroke="rgb(10%,10%,16%)" x1="1321" x2="1358" y1="1157" y2="1123" /><line stroke="rgb(10%,10%,16%)" x1="1358" x2="1551" y1="1123" y2="1144" /><line stroke="rgb(10%,10%,16%)" x1="1551" x2="1603" y1="1144" y2="1177" /><line stroke="rgb(10%,10%,16%)" x1="1603" x2="1654" y1="1177" y2="1194" /><line stroke="rgb(10%,10%,16%)" x1="1654" x2="1837" y1="1194" y2="1219" /><line stroke="rgb(10%,10%,16%)" x1="1837" x2="1896" y1="1219" y2="1200" /><line stroke="rgb(10%,10%,16%)" x1="1896" x2="1984" y1="1200" y2="1182" /><line stroke="rgb(10%,10%,16%)" x1="1984" x2="2230" y1="1182" y2="1210" /><line stroke="rgb(10%,10%,16%)" x1="2230" x2="3158" y1="1210" y2="1193" /><line stroke="rgb(10%,10%,16%)" x1="3158" x2="3778" y1="1193" y2="1218" /><line stroke="rgb(10%,10%,16%)" x1="3778" x2="3837" y1="1218" y2="1249" /><line stroke="rgb(10%,10%,16%)" x1="3837" x2="3968" y1="1249" y2="1267" /><line stroke="rgb(10%,10%,16%)" x1="3968" x2="4033" y1="1267" y2="1197" /><line stroke="rgb(10%,10%,16%)" x1="4033" x2="3976" y1="1197" y2="1180" /><line stroke="rgb(10%,10%,16%)" x1="3976" x2="4018" y1="1180" y2="1111" /><line stroke="rgb(10%,10%,16%)" x1="4018" x2="3989" y1="1111" y2="1038" /><line stroke="rgb(10%,10%,16%)" x1="3989" x2="3616" y1="1038" y2="1057" /><line stroke="rgb(10%,10%,16%)" x1="3616" x2="3558" y1="1057" y2="1015" /><line stroke="rgb(10%,10%,16%)" x1="3558" x2="3835" y1="1015" y2="994" /><line stroke="rgb(10%,10%,16%)" x1="3835" x2="4029" y1="994" y2="867" /><line stroke="rgb(10%,10%,16%)" x1="4029" x2="4011" y1="867" y2="451" /><line stroke="rgb(10%,10%,16%)" x1="4011" x2="4043" y1="451" y2="219" /><line stroke="rgb(10%,10%,16%)" x1="4043" x2="1398" y1="219" y2="11" /><line stroke="rgb(10%,10%,16%)" x1="1398" x2="1369" y1="11" y2="0" /><line stroke="rgb(10%,10%,16%)" x1="1369" x2="3968" y1="0" y2="200" /><line stroke="rgb(10%,10%,16%)" x1="3968" x2="3991" y1="200" y2="221" /><line stroke="rgb(10%,10%,16%)" x1="3991" x2="3966" y1="221" y2="239" /><line stroke="rgb(10%,10%,16%)" x1="3966" x2="3922" y1="239" y2="217" /><line stroke="rgb(10%,10%,16%)" x1="3922" x2="3957" y1="217" y2="201" /><line stroke="rgb(10%,10%,16%)" x1="3957" x2="3958" y1="201" y2="200" /><line stroke="rgb(10%,10%,16%)" x1="3958" x2="1016" y1="200" y2="323" /><line stroke="rgb(10%,10%,16%)" x1="1016" x2="1042" y1="323" y2="345" /><line stroke="rgb(10%,10%,16%)" x1="1042" x2="1022" y1="345" y2="368" /><line stroke="rgb(10%,10%,16%)" x1="1022" x2="978" y1="368" y2="328" /><line stroke="rgb(10%,10%,16%)" x1="978" x2="1016" y1="328" y2="328" /><line stroke="rgb(10%,10%,16%)" x1="1016" x2="304" y1="328" y2="500" /><line stroke="rgb(10%,10%,16%)" x1="304" x2="351" y1="500" y2="540" /><line stroke="rgb(10%,10%,16%)" x1="351" x2="302" y1="540" y2="524" /><line stroke="rgb(10%,10%,16%)" x1="302" x2="304" y1="524" y2="502" /><line stroke="rgb(10%,10%,16%)" x1="304" x2="3735" y1="502" y2="670" /><line stroke="rgb(10%,10%,16%)" x1="3735" x2="3761" y1="670" y2="697" /><line stroke="rgb(10%,10%,16%)" x1="3761" x2="3745" y1="697" y2="717" /><line stroke="rgb(10%,10%,16%)" x1="3745" x2="3684" y1="717" y2="701" /><line stroke="rgb(10%,10%,16%)" x1="3684" x2="3727" y1="701" y2="677" /><line stroke="rgb(10%,10%,16%)" x1="3727" x2="3735" y1="677" y2="673" /><line stroke="rgb(10%,10%,16%)" x1="3735" x2="3526" y1="673" y2="677" /><line stroke="rgb(10%,10%,16%)" x1="3526" x2="3558" y1="677" y2="697" /><line stroke="rgb(10%,10%,16%)" x1="3558" x2="3589" y1="697" y2="714" /><line stroke="rgb(10%,10%,16%)" x1="3589" x2="3654" y1="714" y2="737" /><line stroke="rgb(10%,10%,16%)" x1="3654" x2="3535" y1="737" y2="717" /><line stroke="rgb(10%,10%,16%)" x1="3535" x2="3501" y1="717" y2="679" /><line stroke="rgb(10%,10%,16%)" x1="3501" x2="3526" y1="679" y2="682" /><line stroke="rgb(10%,10%,16%)" x1="3526" x2="3393" y1="682" y2="696" /><line stroke="rgb(10%,10%,16%)" x1="3393" x2="3451" y1="696" y2="734" /><line stroke="rgb(10%,10%,16%)" x1="3451" x2="3358" y1="734" y2="716" /><line stroke="rgb(10%,10%,16%)" x1="3358" x2="3389" y1="716" y2="700" /><line stroke="rgb(10%,10%,16%)" x1="3389" x2="3393" y1="700" y2="699" /><line stroke="rgb(10%,10%,16%)" x1="3393" x2="1107" y1="699" y2="728" /><line stroke="rgb(10%,10%,16%)" x1="1107" x2="1107" y1="728" y2="728" /><line stroke="rgb(10%,10%,16%)" x1="1107" x2="1146" y1="728" y2="756" /><line stroke="rgb(10%,10%,16%)" x1="1146" x2="1099" y1="756" y2="734" /><line stroke="rgb(10%,10%,16%)" x1="1099" x2="1107" y1="734" y2="733" /><line stroke="rgb(10%,10%,16%)" x1="1107" x2="3267" y1="733" y2="729" /><line stroke="rgb(10%,10%,16%)" x1="3267" x2="3290" y1="729" y2="761" /><line stroke="rgb(10%,10%,16%)" x1="3290" x2="3223" y1="761" y2="742" /><line stroke="rgb(10%,10%,16%)" x1="3223" x2="3256" y1="742" y2="729" /><line stroke="rgb(10%,10%,16%)" x1="3256" x2="3006" y1="729" y2="743" /><line stroke="rgb(10%,10%,16%)" x1="3006" x2="3048" y1="743" y2="773" /><line stroke="rgb(10%,10%,16%)" x1="3048" x2="3030" y1="773" y2="792" /><line stroke="rgb(10%,10%,16%)" x1="3030" x2="2961" y1="792" y2="751" /><line stroke="rgb(10%,10%,16%)" x1="2961" x2="3000" y1="751" y2="743" /><line stroke="rgb(10%,10%,16%)" x1="3000" x2="2923" y1="743" y2="770" /><line stroke="rgb(10%,10%,16%)" x1="2923" x2="2945" y1="770" y2="790" /><line stroke="rgb(10%,10%,16%)" x1="2945" x2="2894" y1="790" y2="807" /><line stroke="rgb(10%,10%,16%)" x1="2894" x2="2873" y1="807" y2="823" /><line stroke="rgb(10%,10%,16%)" x1="2873" x2="2787" y1="823" y2="806" /><line stroke="rgb(10%,10%,16%)" x1="2787" x2="2855" y1="806" y2="788" /><line stroke="rgb(10%,10%,16%)" x1="2855" x2="2914" y1="788" y2="772" /><line stroke="rgb(10%,10%,16%)" x1="2914" x2="2923" y1="772" y2="772" /><line stroke="rgb(10%,10%,16%)" x1="2923" x2="1727" y1="772" y2="774" /><line stroke="rgb(10%,10%,16%)" x1="1727" x2="1750" y1="774" y2="798" /><line stroke="rgb(10%,10%,16%)" x1="1750" x2="1727" y1="798" y2="786" /><line stroke="rgb(10%,10%,16%)" x1="1727" x2="1608" y1="786" y2="783" /><line stroke="rgb(10%,10%,16%)" x1="1608" x2="1666" y1="783" y2="819" /><line stroke="rgb(10%,10%,16%)" x1="1666" x2="1549" y1="819" y2="794" /><line stroke="rgb(10%,10%,16%)" x1="1549" x2="1608" y1="794" y2="788" /><line stroke="rgb(10%,10%,16%)" x1="1608" x2="1514" y1="788" y2="820" /><line stroke="rgb(10%,10%,16%)" x1="1514" x2="1514" y1="820" y2="820" /><line stroke="rgb(10%,10%,16%)" x1="1514" x2="1545" y1="820" y2="858" /><line stroke="rgb(10%,10%,16%)" x1="1545" x2="1476" y1="858" y2="825" /><line stroke="rgb(10%,10%,16%)" x1="1476" x2="1514" y1="825" y2="825" /><line stroke="rgb(10%,10%,16%)" x1="1514" x2="1743" y1="825" y2="825" /><line stroke="rgb(10%,10%,16%)" x1="1743" x2="1770" y1="825" y2="845" /><line stroke="rgb(10%,10%,16%)" x1="1770" x2="1718" y1="845" y2="861" /><line stroke="rgb(10%,10%,16%)" x1="1718" x2="1688" y1="861" y2="838" /><line stroke="rgb(10%,10%,16%)" x1="1688" x2="1743" y1="838" y2="827" /><line stroke="rgb(10%,10%,16%)" x1="1743" x2="3384" y1="827" y2="825" /><line stroke="rgb(10%,10%,16%)" x1="3384" x2="3487" y1="825" y2="851" /><line stroke="rgb(10%,10%,16%)" x1="3487" x2="3377" y1="851" y2="826" /><line stroke="rgb(10%,10%,16%)" x1="3377" x2="3378" y1="826" y2="825" /><line stroke="rgb(10%,10%,16%)" x1="3378" x2="287" y1="825" y2="832" /><line stroke="rgb(10%,10%,16%)" x1="287" x2="333" y1="832" y2="848" /><line stroke="rgb(10%,10%,16%)" x1="333" x2="465" y1="848" y2="866" /><line stroke="rgb(10%,10%,16%)" x1="465" x2="441" y1="866" y2="882" /><line stroke="rgb(10%,10%,16%)" x1="441" x2="283" y1="882" y2="849" /><line stroke="rgb(10%,10%,16%)" x1="283" x2="287" y1="849" y2="845" /><line stroke="rgb(10%,10%,16%)" x1="287" x2="1314" y1="845" y2="834" /><line stroke="rgb(10%,10%,16%)" x1="1314" x2="1351" y1="834" y2="856" /><line stroke="rgb(10%,10%,16%)" x1="1351" x2="1321" y1="856" y2="875" /><line stroke="rgb(10%,10%,16%)" x1="1321" x2="1258" y1="875" y2="843" /><line stroke="rgb(10%,10%,16%)" x1="1258" x2="1314" y1="843" y2="835" /><line stroke="rgb(10%,10%,16%)" x1="1314" x2="3335" y1="835" y2="834" /><line stroke="rgb(10%,10%,16%)" x1="3335" x2="3366" y1="834" y2="860" /><line stroke="rgb(10%,10%,16%)" x1="3366" x2="3304" y1="860" y2="844" /><line stroke="rgb(10%,10%,16%)" x1="3304" x2="3335" y1="844" y2="844" /><line stroke="rgb(10%,10%,16%)" x1="3335" x2="1630" y1="844" y2="847" /><line stroke="rgb(10%,10%,16%)" x1="1630" x2="1674" y1="847" y2="871" /><line stroke="rgb(10%,10%,16%)" x1="1674" x2="1610" y1="871" y2="853" /><line stroke="rgb(10%,10%,16%)" x1="1610" x2="1628" y1="853" y2="849" /><line stroke="rgb(10%,10%,16%)" x1="1628" x2="562" y1="849" y2="853" /><line stroke="rgb(10%,10%,16%)" x1="562" x2="625" y1="853" y2="876" /><line stroke="rgb(10%,10%,16%)" x1="625" x2="569" y1="876" y2="899" /><line stroke="rgb(10%,10%,16%)" x1="569" x2="541" y1="899" y2="870" /><line stroke="rgb(10%,10%,16%)" x1="541" x2="557" y1="870" y2="853" /><line stroke="rgb(10%,10%,16%)" x1="557" x2="557" y1="853" y2="853" /><line stroke="rgb(10%,10%,16%)" x1="557" x2="3217" y1="853" y2="864" /><line stroke="rgb(10%,10%,16%)" x1="3217" x2="3245" y1="864" y2="897" /><line stroke="rgb(10%,10%,16%)" x1="3245" x2="3281" y1="897" y2="875" /><line stroke="rgb(10%,10%,16%)" x1="3281" x2="3260" y1="875" y2="925" /><line stroke="rgb(10%,10%,16%)" x1="3260" x2="3170" y1="925" y2="893" /><line stroke="rgb(10%,10%,16%)" x1="3170" x2="3210" y1="893" y2="873" /><line stroke="rgb(10%,10%,16%)" x1="3210" x2="3217" y1="873" y2="867" /><line stroke="rgb(10%,10%,16%)" x1="3217" x2="3739" y1="867" y2="882" /><line stroke="rgb(10%,10%,16%)" x1="3739" x2="3769" y1="882" y2="911" /><line stroke="rgb(10%,10%,16%)" x1="3769" x2="3732" y1="911" y2="929" /><line stroke="rgb(10%,10%,16%)" x1="3732" x2="3583" y1="929" y2="946" /><line stroke="rgb(10%,10%,16%)" x1="3583" x2="3561" y1="946" y2="962" /><line stroke="rgb(10%,10%,16%)" x1="3561" x2="3449" y1="962" y2="946" /><line stroke="rgb(10%,10%,16%)" x1="3449" x2="3475" y1="946" y2="916" /><line stroke="rgb(10%,10%,16%)" x1="3475" x2="3627" y1="916" y2="900" /><line stroke="rgb(10%,10%,16%)" x1="3627" x2="3739" y1="900" y2="887" /><line stroke="rgb(10%,10%,16%)" x1="3739" x2="2048" y1="887" y2="930" /><line stroke="rgb(10%,10%,16%)" x1="2048" x2="2048" y1="930" y2="930" /><line stroke="rgb(10%,10%,16%)" x1="2048" x2="2076" y1="930" y2="960" /><line stroke="rgb(10%,10%,16%)" x1="2076" x2="1939" y1="960" y2="934" /><line stroke="rgb(10%,10%,16%)" x1="1939" x2="2039" y1="934" y2="930" /><line stroke="rgb(10%,10%,16%)" x1="2039" x2="3169" y1="930" y2="970" /><line stroke="rgb(10%,10%,16%)" x1="3169" x2="3169" y1="970" y2="970" /><line stroke="rgb(10%,10%,16%)" x1="3169" x2="3255" y1="970" y2="988" /><line stroke="rgb(10%,10%,16%)" x1="3255" x2="3286" y1="988" y2="1009" /><line stroke="rgb(10%,10%,16%)" x1="3286" x2="3103" y1="1009" y2="1025" /><line stroke="rgb(10%,10%,16%)" x1="3103" x2="2973" y1="1025" y2="993" /><line stroke="rgb(10%,10%,16%)" x1="2973" x2="3124" y1="993" y2="977" /><line stroke="rgb(10%,10%,16%)" x1="3124" x2="3169" y1="977" y2="971" /><line stroke="rgb(10%,10%,16%)" x1="3169" x2="3367" y1="971" y2="985" /><line stroke="rgb(10%,10%,16%)" x1="3367" x2="3398" y1="985" y2="1013" /><line stroke="rgb(10%,10%,16%)" x1="3398" x2="3315" y1="1013" y2="997" /><line stroke="rgb(10%,10%,16%)" x1="3315" x2="3367" y1="997" y2="987" /><line stroke="rgb(10%,10%,16%)" x1="3367" x2="2972" y1="987" y2="1048" /><line stroke="rgb(10%,10%,16%)" x1="2972" x2="2972" y1="1048" y2="1048" /><line stroke="rgb(10%,10%,16%)" x1="2972" x2="3071" y1="1048" y2="1072" /><line stroke="rgb(10%,10%,16%)" x1="3071" x2="2928" y1="1072" y2="1049" /><line stroke="rgb(10%,10%,16%)" x1="2928" x2="2958" y1="1049" y2="1048" /><line stroke="rgb(10%,10%,16%)" x1="2958" x2="2617" y1="1048" y2="1077" /><line stroke="rgb(10%,10%,16%)" x1="2617" x2="2617" y1="1077" y2="1077" /><line stroke="rgb(10%,10%,16%)" x1="2617" x2="2726" y1="1077" y2="1131" /><line stroke="rgb(10%,10%,16%)" x1="2726" x2="2674" y1="1131" y2="1112" /><line stroke="rgb(10%,10%,16%)" x1="2674" x2="2645" y1="1112" y2="1131" /><line stroke="rgb(10%,10%,16%)" x1="2645" x2="2629" y1="1131" y2="1113" /><line stroke="rgb(10%,10%,16%)" x1="2629" x2="2601" y1="1113" y2="1082" /><line stroke="rgb(10%,10%,16%)" x1="2601" x2="2603" y1="1082" y2="1077" /><line stroke="rgb(10%,10%,16%)" x1="2603" x2="2535" y1="1077" y2="1082" /><line stroke="rgb(10%,10%,16%)" x1="2535" x2="2581" y1="1082" y2="1104" /><line stroke="rgb(10%,10%,16%)" x1="2581" x2="2545" y1="1104" y2="1123" /><line stroke="rgb(10%,10%,16%)" x1="2545" x2="2470" y1="1123" y2="1085" /><line stroke="rgb(10%,10%,16%)" x1="2470" x2="2513" y1="1085" y2="1082" /><line stroke="rgb(10%,10%,16%)" x1="2513" x2="2400" y1="1082" y2="1088" /><line stroke="rgb(10%,10%,16%)" x1="2400" x2="2444" y1="1088" y2="1112" /><line stroke="rgb(10%,10%,16%)" x1="2444" x2="2390" y1="1112" y2="1089" /><line stroke="rgb(10%,10%,16%)" x1="2390" x2="2391" y1="1089" y2="1088" /><line stroke="rgb(10%,10%,16%)" x1="2391" x2="796" y1="1088" y2="1096" /><line stroke="rgb(10%,10%,16%)" x1="796" x2="1137" y1="1096" y2="1131" /><line stroke="rgb(10%,10%,16%)" x1="1137" x2="1102" y1="1131" y2="1149" /><line stroke="rgb(10%,10%,16%)" x1="1102" x2="983" y1="1149" y2="1165" /><line stroke="rgb(10%,10%,16%)" x1="983" x2="901" y1="1165" y2="1181" /><line stroke="rgb(10%,10%,16%)" x1="901" x2="821" y1="1181" y2="1165" /><line stroke="rgb(10%,10%,16%)" x1="821" x2="776" y1="1165" y2="1149" /><line stroke="rgb(10%,10%,16%)" x1="776" x2="738" y1="1149" y2="1132" /><line stroke="rgb(10%,10%,16%)" x1="738" x2="712" y1="1132" y2="1100" /><line stroke="rgb(10%,10%,16%)" x1="712" x2="781" y1="1100" y2="1096" /><line stroke="rgb(10%,10%,16%)" x1="781" x2="3858" y1="1096" y2="1107" /><line stroke="rgb(10%,10%,16%)" x1="3858" x2="3886" y1="1107" y2="1132" /><line stroke="rgb(10%,10%,16%)" x1="3886" x2="3703" y1="1132" y2="1110" /><line stroke="rgb(10%,10%,16%)" x1="3703" x2="3846" y1="1110" y2="1107" /><line stroke="rgb(10%,10%,16%)" x1="3846" x2="3338" y1="1107" y2="1138" /><line stroke="rgb(10%,10%,16%)" x1="3338" x2="3338" y1="1138" y2="1138" /><line stroke="rgb(10%,10%,16%)" x1="3338" x2="3361" y1="1138" y2="1160" /><line stroke="rgb(10%,10%,16%)" x1="3361" x2="3264" y1="1160" y2="1176" /><line stroke="rgb(10%,10%,16%)" x1="3264" x2="3125" y1="1176" y2="1153" /><line stroke="rgb(10%,10%,16%)" x1="3125" x2="3330" y1="1153" y2="1138" /><line stroke="rgb(10%,10%,16%)" x1="3330" x2="489" y1="1138" y2="1146" /><line stroke="rgb(10%,10%,16%)" x1="489" x2="511" y1="1146" y2="1172" /><line stroke="rgb(10%,10%,16%)" x1="511" x2="490" y1="1172" y2="1189" /><line stroke="rgb(10%,10%,16%)" x1="490" x2="464" y1="1189" y2="1169" /><line stroke="rgb(10%,10%,16%)" x1="464" x2="482" y1="1169" y2="1150" /><line stroke="rgb(10%,10%,16%)" x1="482" x2="488" y1="1150" y2="1146" /><line stroke="rgb(10%,10%,16%)" x1="488" x2="3804" y1="1146" y2="1179" /><line stroke="rgb(10%,10%,16%)" x1="3804" x2="3804" y1="1179" y2="1179" /><line stroke="rgb(10%,10%,16%)" x1="3804" x2="3953" y1="1179" y2="1213" /><line stroke="rgb(10%,10%,16%)" x1="3953" x2="3860" y1="1213" y2="1230" /><line stroke="rgb(10%,10%,16%)" x1="3860" x2="3838" y1="1230" y2="1210" /><line stroke="rgb(10%,10%,16%)" x1="3838" x2="3772" y1="1210" y2="1189" /><line stroke="rgb(10%,10%,16%)" x1="3772" x2="3804" y1="1189" y2="1181" /><line stroke="rgb(10%,10%,16%)" x1="3804" x2="1720" y1="1181" y2="1352" /><line stroke="rgb(10%,10%,16%)" x1="1720" x2="1720" y1="1352" y2="1352" /><line stroke="rgb(10%,10%,16%)" x1="1720" x2="1742" y1="1352" y2="1381" /><line stroke="rgb(10%,10%,16%)" x1="1742" x2="1707" y1="1381" y2="1398" /><line stroke="rgb(10%,10%,16%)" x1="1707" x2="1677" y1="1398" y2="1371" /><line stroke="rgb(10%,10%,16%)" x1="1677" x2="1705" y1="1371" y2="1355" /><line stroke="rgb(10%,10%,16%)" x1="1705" x2="1718" y1="1355" y2="1354" /><line stroke="rgb(10%,10%,16%)" x1="1718" x2="1149" y1="1354" y2="1390" /><line stroke="rgb(10%,10%,16%)" x1="1149" x2="1149" y1="1390" y2="1390" /><line stroke="rgb(10%,10%,16%)" x1="1149" x2="1192" y1="1390" y2="1416" /><line stroke="rgb(10%,10%,16%)" x1="1192" x2="1139" y1="1416" y2="1393" /><line stroke="rgb(10%,10%,16%)" x1="1139" x2="1149" y1="1393" y2="1392" /><line stroke="rgb(10%,10%,16%)" x1="1149" x2="1632" y1="1392" y2="1391" /><line stroke="rgb(10%,10%,16%)" x1="1632" x2="1662" y1="1391" y2="1411" /><line stroke="rgb(10%,10%,16%)" x1="1662" x2="1640" y1="1411" y2="1429" /><line stroke="rgb(10%,10%,16%)" x1="1640" x2="1621" y1="1429" y2="1445" /><line stroke="rgb(10%,10%,16%)" x1="1621" x2="1585" y1="1445" y2="1419" /><line stroke="rgb(10%,10%,16%)" x1="1585" x2="1606" y1="1419" y2="1393" /><line stroke="rgb(10%,10%,16%)" x1="1606" x2="1617" y1="1393" y2="1391" /><line stroke="rgb(10%,10%,16%)" x1="1617" x2="2378" y1="1391" y2="1404" /><line stroke="rgb(10%,10%,16%)" x1="2378" x2="2416" y1="1404" y2="1434" /><line stroke="rgb(10%,10%,16%)" x1="2416" x2="2398" y1="1434" y2="1454" /><line stroke="rgb(10%,10%,16%)" x1="2398" x2="2375" y1="1454" y2="1435" /><line stroke="rgb(10%,10%,16%)" x1="2375" x2="2378" y1="1435" y2="1424" /><line stroke="rgb(10%,10%,16%)" x1="2378" x2="3316" y1="1424" y2="1409" /><line stroke="rgb(10%,10%,16%)" x1="3316" x2="3364" y1="1409" y2="1436" /><line stroke="rgb(10%,10%,16%)" x1="3364" x2="3315" y1="1436" y2="1414" /><line stroke="rgb(10%,10%,16%)" x1="3315" x2="3316" y1="1414" y2="1413" /><line stroke="rgb(10%,10%,16%)" x1="3316" x2="3111" y1="1413" y2="1415" /><line stroke="rgb(10%,10%,16%)" x1="3111" x2="3208" y1="1415" y2="1442" /><line stroke="rgb(10%,10%,16%)" x1="3208" x2="3092" y1="1442" y2="1422" /><line stroke="rgb(10%,10%,16%)" x1="3092" x2="3111" y1="1422" y2="1421" /><line stroke="rgb(10%,10%,16%)" x1="3111" x2="3725" y1="1421" y2="1449" /><line stroke="rgb(10%,10%,16%)" x1="3725" x2="3725" y1="1449" y2="1449" /><line stroke="rgb(10%,10%,16%)" x1="3725" x2="3758" y1="1449" y2="1476" /><line stroke="rgb(10%,10%,16%)" x1="3758" x2="3697" y1="1476" y2="1460" /><line stroke="rgb(10%,10%,16%)" x1="3697" x2="3721" y1="1460" y2="1449" /><line stroke="rgb(10%,10%,16%)" x1="3721" x2="2743" y1="1449" y2="1498" /><line stroke="rgb(10%,10%,16%)" x1="2743" x2="2743" y1="1498" y2="1498" /><line stroke="rgb(10%,10%,16%)" x1="2743" x2="2772" y1="1498" y2="1520" /><line stroke="rgb(10%,10%,16%)" x1="2772" x2="2705" y1="1520" y2="1536" /><line stroke="rgb(10%,10%,16%)" x1="2705" x2="2652" y1="1536" y2="1516" /><line stroke="rgb(10%,10%,16%)" x1="2652" x2="2740" y1="1516" y2="1500" /><line stroke="rgb(10%,10%,16%)" x1="2740" x2="2742" y1="1500" y2="1498" /><line stroke="rgb(10%,10%,16%)" x1="2742" x2="3799" y1="1498" y2="1503" /><line stroke="rgb(10%,10%,16%)" x1="3799" x2="3830" y1="1503" y2="1532" /><line stroke="rgb(10%,10%,16%)" x1="3830" x2="3812" y1="1532" y2="1550" /><line stroke="rgb(10%,10%,16%)" x1="3812" x2="3772" y1="1550" y2="1519" /><line stroke="rgb(10%,10%,16%)" x1="3772" x2="3798" y1="1519" y2="1503" /><line stroke="rgb(10%,10%,16%)" x1="3798" x2="3798" y1="1503" y2="1503" /><line stroke="rgb(10%,10%,16%)" x1="3798" x2="1739" y1="1503" y2="1508" /><line stroke="rgb(10%,10%,16%)" x1="1739" x2="1768" y1="1508" y2="1532" /><line stroke="rgb(10%,10%,16%)" x1="1768" x2="1738" y1="1532" y2="1549" /><line stroke="rgb(10%,10%,16%)" x1="1738" x2="1722" y1="1549" y2="1567" /><line stroke="rgb(10%,10%,16%)" x1="1722" x2="1676" y1="1567" y2="1583" /><line stroke="rgb(10%,10%,16%)" x1="1676" x2="1651" y1="1583" y2="1615" /><line stroke="rgb(10%,10%,16%)" x1="1651" x2="1616" y1="1615" y2="1599" /><line stroke="rgb(10%,10%,16%)" x1="1616" x2="1642" y1="1599" y2="1580" /><line stroke="rgb(10%,10%,16%)" x1="1642" x2="1663" y1="1580" y2="1556" /><line stroke="rgb(10%,10%,16%)" x1="1663" x2="1679" y1="1556" y2="1540" /><line stroke="rgb(10%,10%,16%)" x1="1679" x2="1715" y1="1540" y2="1522" /><line stroke="rgb(10%,10%,16%)" x1="1715" x2="1739" y1="1522" y2="1517" /><line stroke="rgb(10%,10%,16%)" x1="1739" x2="3931" y1="1517" y2="1565" /><line stroke="rgb(10%,10%,16%)" x1="3931" x2="3931" y1="1565" y2="1565" /><line stroke="rgb(10%,10%,16%)" x1="3931" x2="3953" y1="1565" y2="1582" /><line stroke="rgb(10%,10%,16%)" x1="3953" x2="3973" y1="1582" y2="1607" /><line stroke="rgb(10%,10%,16%)" x1="3973" x2="3924" y1="1607" y2="1591" /><line stroke="rgb(10%,10%,16%)" x1="3924" x2="3929" y1="1591" y2="1565" /><line stroke="rgb(10%,10%,16%)" x1="3929" x2="1894" y1="1565" y2="1585" /><line stroke="rgb(10%,10%,16%)" x1="1894" x2="1894" y1="1585" y2="1585" /><line stroke="rgb(10%,10%,16%)" x1="1894" x2="1938" y1="1585" y2="1612" /><line stroke="rgb(10%,10%,16%)" x1="1938" x2="1894" y1="1612" y2="1606" /><line stroke="rgb(10%,10%,16%)" x1="1894" x2="1220" y1="1606" y2="1641" /><line stroke="rgb(10%,10%,16%)" x1="1220" x2="1220" y1="1641" y2="1641" /><line stroke="rgb(10%,10%,16%)" x1="1220" x2="1243" y1="1641" y2="1661" /><line stroke="rgb(10%,10%,16%)" x1="1243" x2="1216" y1="1661" y2="1677" /><line stroke="rgb(10%,10%,16%)" x1="1216" x2="1180" y1="1677" y2="1693" /><line stroke="rgb(10%,10%,16%)" x1="1180" x2="1141" y1="1693" y2="1675" /><line stroke="rgb(10%,10%,16%)" x1="1141" x2="1157" y1="1675" y2="1653" /><line stroke="rgb(10%,10%,16%)" x1="1157" x2="1216" y1="1653" y2="1641" /><line stroke="rgb(10%,10%,16%)" x1="1216" x2="1106" y1="1641" y2="1679" /><line stroke="rgb(10%,10%,16%)" x1="1106" x2="1106" y1="1679" y2="1679" /><line stroke="rgb(10%,10%,16%)" x1="1106" x2="1139" y1="1679" y2="1709" /><line stroke="rgb(10%,10%,16%)" x1="1139" x2="1100" y1="1709" y2="1690" /><line stroke="rgb(10%,10%,16%)" x1="1100" x2="1103" y1="1690" y2="1679" /><line stroke="rgb(10%,10%,16%)" x1="1103" x2="3027" y1="1679" y2="1694" /><line stroke="rgb(10%,10%,16%)" x1="3027" x2="3050" y1="1694" y2="1721" /><line stroke="rgb(10%,10%,16%)" x1="3050" x2="3009" y1="1721" y2="1698" /><line stroke="rgb(10%,10%,16%)" x1="3009" x2="3025" y1="1698" y2="1694" /><line stroke="rgb(10%,10%,16%)" x1="3025" x2="2624" y1="1694" y2="1731" /><line stroke="rgb(10%,10%,16%)" x1="2624" x2="2624" y1="1731" y2="1731" /><line stroke="rgb(10%,10%,16%)" x1="2624" x2="2651" y1="1731" y2="1762" /><line stroke="rgb(10%,10%,16%)" x1="2651" x2="2615" y1="1762" y2="1737" /><line stroke="rgb(10%,10%,16%)" x1="2615" x2="2621" y1="1737" y2="1734" /><line stroke="rgb(10%,10%,16%)" x1="2621" x2="2939" y1="1734" y2="1735" /><line stroke="rgb(10%,10%,16%)" x1="2939" x2="2976" y1="1735" y2="1760" /><line stroke="rgb(10%,10%,16%)" x1="2976" x2="2915" y1="1760" y2="1742" /><line stroke="rgb(10%,10%,16%)" x1="2915" x2="2937" y1="1742" y2="1735" /><line stroke="rgb(10%,10%,16%)" x1="2937" x2="2759" y1="1735" y2="1753" /><line stroke="rgb(10%,10%,16%)" x1="2759" x2="2759" y1="1753" y2="1753" /><line stroke="rgb(10%,10%,16%)" x1="2759" x2="2804" y1="1753" y2="1788" /><line stroke="rgb(10%,10%,16%)" x1="2804" x2="2747" y1="1788" y2="1769" /><line stroke="rgb(10%,10%,16%)" x1="2747" x2="2759" y1="1769" y2="1768" /><line stroke="rgb(10%,10%,16%)" x1="2759" x2="2818" y1="1768" y2="1816" /><line stroke="rgb(10%,10%,16%)" x1="2818" x2="2818" y1="1816" y2="1816" /><line stroke="rgb(10%,10%,16%)" x1="2818" x2="2849" y1="1816" y2="1837" /><line stroke="rgb(10%,10%,16%)" x1="2849" x2="2820" y1="1837" y2="1863" /><line stroke="rgb(10%,10%,16%)" x1="2820" x2="2818" y1="1863" y2="1820" /><line stroke="rgb(10%,10%,16%)" x1="2818" x2="448" y1="1820" y2="1907" /><line stroke="rgb(10%,10%,16%)" x1="448" x2="448" y1="1907" y2="1907" /><line stroke="rgb(10%,10%,16%)" x1="448" x2="472" y1="1907" y2="1927" /><line stroke="rgb(10%,10%,16%)" x1="472" x2="438" y1="1927" y2="1943" /><line stroke="rgb(10%,10%,16%)" x1="438" x2="411" y1="1943" y2="1922" /><line stroke="rgb(10%,10%,16%)" x1="411" x2="434" y1="1922" y2="1907" /><line stroke="rgb(10%,10%,16%)" x1="434" x2="3889" y1="1907" y2="1934" /><line stroke="rgb(10%,10%,16%)" x1="3889" x2="3889" y1="1934" y2="1934" /><line stroke="rgb(10%,10%,16%)" x1="3889" x2="3930" y1="1934" y2="1955" /><line stroke="rgb(10%,10%,16%)" x1="3930" x2="3889" y1="1955" y2="1939" /><line stroke="rgb(10%,10%,16%)" x1="3889" x2="3889" y1="1939" y2="1939" /><line stroke="rgb(10%,10%,16%)" x1="3889" x2="1358" y1="1939" y2="1941" /><line stroke="rgb(10%,10%,16%)" x1="1358" x2="1404" y1="1941" y2="1963" /><line stroke="rgb(10%,10%,16%)" x1="1404" x2="1329" y1="1963" y2="1947" /><line stroke="rgb(10%,10%,16%)" x1="1329" x2="1358" y1="1947" y2="1944" /><line stroke="rgb(10%,10%,16%)" x1="1358" x2="351" y1="1944" y2="1943" /><line stroke="rgb(10%,10%,16%)" x1="351" x2="376" y1="1943" y2="1966" /><line stroke="rgb(10%,10%,16%)" x1="376" x2="331" y1="1966" y2="1947" /><line stroke="rgb(10%,10%,16%)" x1="331" x2="351" y1="1947" y2="1944" /><line stroke="rgb(10%,10%,16%)" x1="351" x2="1246" y1="1944" y2="1952" /><line stroke="rgb(10%,10%,16%)" x1="1246" x2="1281" y1="1952" y2="1981" /><line stroke="rgb(10%,10%,16%)" x1="1281" x2="1237" y1="1981" y2="1960" /><line stroke="rgb(10%,10%,16%)" x1="1237" x2="1246" y1="1960" y2="1958" /><line stroke="rgb(10%,10%,16%)" x1="1246" x2="136" y1="1958" y2="1986" /><line stroke="rgb(10%,10%,16%)" x1="136" x2="136" y1="1986" y2="1986" /><line stroke="rgb(10%,10%,16%)" x1="136" x2="160" y1="1986" y2="2007" /><line stroke="rgb(10%,10%,16%)" x1="160" x2="135" y1="2007" y2="2034" /><line stroke="rgb(10%,10%,16%)" x1="135" x2="135" y1="2034" y2="1986" /><line stroke="rgb(10%,10%,16%)" x1="135" x2="2950" y1="1986" y2="2015" /><line stroke="rgb(10%,10%,16%)" x1="2950" x2="2950" y1="2015" y2="2015" /><line stroke="rgb(10%,10%,16%)" x1="2950" x2="2994" y1="2015" y2="2046" /><line stroke="rgb(10%,10%,16%)" x1="2994" x2="2950" y1="2046" y2="2040" /><line stroke="rgb(10%,10%,16%)" x1="2950" x2="2605" y1="2040" y2="2058" /><line stroke="rgb(10%,10%,16%)" x1="2605" x2="2605" y1="2058" y2="2058" /><line stroke="rgb(10%,10%,16%)" x1="2605" x2="2645" y1="2058" y2="2093" /><line stroke="rgb(10%,10%,16%)" x1="2645" x2="2604" y1="2093" y2="2062" /><line stroke="rgb(10%,10%,16%)" x1="2604" x2="2605" y1="2062" y2="2061" /><line stroke="rgb(10%,10%,16%)" x1="2605" x2="2985" y1="2061" y2="2059" /><line stroke="rgb(10%,10%,16%)" x1="2985" x2="3013" y1="2059" y2="2085" /><line stroke="rgb(10%,10%,16%)" x1="3013" x2="2960" y1="2085" y2="2069" /><line stroke="rgb(10%,10%,16%)" x1="2960" x2="2969" y1="2069" y2="2059" /><line stroke="rgb(10%,10%,16%)" x1="2969" x2="873" y1="2059" y2="2060" /><line stroke="rgb(10%,10%,16%)" x1="873" x2="919" y1="2060" y2="2085" /><line stroke="rgb(10%,10%,16%)" x1="919" x2="860" y1="2085" y2="2061" /><line stroke="rgb(10%,10%,16%)" x1="860" x2="861" y1="2061" y2="2060" /><line stroke="rgb(10%,10%,16%)" x1="861" x2="1736" y1="2060" y2="2060" /><line stroke="rgb(10%,10%,16%)" x1="1736" x2="1767" y1="2060" y2="2086" /><line stroke="rgb(10%,10%,16%)" x1="1767" x2="1746" y1="2086" y2="2103" /><line stroke="rgb(10%,10%,16%)" x1="1746" x2="1715" y1="2103" y2="2084" /><line stroke="rgb(10%,10%,16%)" x1="1715" x2="1732" y1="2084" y2="2068" /><line stroke="rgb(10%,10%,16%)" x1="1732" x2="1736" y1="2068" y2="2066" /><line stroke="rgb(10%,10%,16%)" x1="1736" x2="2649" y1="2066" y2="2075" /><line stroke="rgb(10%,10%,16%)" x1="2649" x2="2700" y1="2075" y2="2104" /><line stroke="rgb(10%,10%,16%)" x1="2700" x2="2649" y1="2104" y2="2103" /><line stroke="rgb(10%,10%,16%)" x1="2649" x2="409" y1="2103" y2="2107" /><line stroke="rgb(10%,10%,16%)" x1="409" x2="436" y1="2107" y2="2128" /><line stroke="rgb(10%,10%,16%)" x1="436" x2="398" y1="2128" y2="2112" /><line stroke="rgb(10%,10%,16%)" x1="398" x2="409" y1="2112" y2="2111" /><line stroke="rgb(10%,10%,16%)" x1="409" x2="3133" y1="2111" y2="2153" /><line stroke="rgb(10%,10%,16%)" x1="3133" x2="3133" y1="2153" y2="2153" /><line stroke="rgb(10%,10%,16%)" x1="3133" x2="3160" y1="2153" y2="2170" /><line stroke="rgb(10%,10%,16%)" x1="3160" x2="3138" y1="2170" y2="2193" /><line stroke="rgb(10%,10%,16%)" x1="3138" x2="3133" y1="2193" y2="2180" /><line stroke="rgb(10%,10%,16%)" x1="3133" x2="3023" y1="2180" y2="2213" /><line stroke="rgb(10%,10%,16%)" x1="3023" x2="3023" y1="2213" y2="2213" /><line stroke="rgb(10%,10%,16%)" x1="3023" x2="3055" y1="2213" y2="2238" /><line stroke="rgb(10%,10%,16%)" x1="3055" x2="3002" y1="2238" y2="2214" /><line stroke="rgb(10%,10%,16%)" x1="3002" x2="3003" y1="2214" y2="2213" /><line stroke="rgb(10%,10%,16%)" x1="3003" x2="3798" y1="2213" y2="2223" /><line stroke="rgb(10%,10%,16%)" x1="3798" x2="3835" y1="2223" y2="2239" /><line stroke="rgb(10%,10%,16%)" x1="3835" x2="3819" y1="2239" y2="2265" /><line stroke="rgb(10%,10%,16%)" x1="3819" x2="3790" y1="2265" y2="2240" /><line stroke="rgb(10%,10%,16%)" x1="3790" x2="3796" y1="2240" y2="2225" /><line stroke="rgb(10%,10%,16%)" x1="3796" x2="3838" y1="2225" y2="2275" /><line stroke="rgb(10%,10%,16%)" x1="3838" x2="3838" y1="2275" y2="2275" /><line stroke="rgb(10%,10%,16%)" x1="3838" x2="3874" y1="2275" y2="2309" /><line stroke="rgb(10%,10%,16%)" x1="3874" x2="3853" y1="2309" y2="2348" /><line stroke="rgb(10%,10%,16%)" x1="3853" x2="3822" y1="2348" y2="2321" /><line stroke="rgb(10%,10%,16%)" x1="3822" x2="3838" y1="2321" y2="2300" /><line stroke="rgb(10%,10%,16%)" x1="3838" x2="3838" y1="2300" y2="2296" /><line stroke="rgb(10%,10%,16%)" x1="3838" x2="525" y1="2296" y2="2312" /><line stroke="rgb(10%,10%,16%)" x1="525" x2="525" y1="2312" y2="2312" /><line stroke="rgb(10%,10%,16%)" x1="525" x2="557" y1="2312" y2="2344" /><line stroke="rgb(10%,10%,16%)" x1="557" x2="476" y1="2344" y2="2315" /><line stroke="rgb(10%,10%,16%)" x1="476" x2="525" y1="2315" y2="2318" /><line stroke="rgb(10%,10%,16%)" x1="525" x2="394" y1="2318" y2="2322" /><line stroke="rgb(10%,10%,16%)" x1="394" x2="418" y1="2322" y2="2353" /><line stroke="rgb(10%,10%,16%)" x1="418" x2="395" y1="2353" y2="2369" /><line stroke="rgb(10%,10%,16%)" x1="395" x2="373" y1="2369" y2="2349" /><line stroke="rgb(10%,10%,16%)" x1="373" x2="392" y1="2349" y2="2322" /><line stroke="rgb(10%,10%,16%)" x1="392" x2="392" y1="2322" y2="2322" /><line stroke="rgb(10%,10%,16%)" x1="392" x2="436" y1="2322" y2="2325" /><line stroke="rgb(10%,10%,16%)" x1="436" x2="475" y1="2325" y2="2372" /><line stroke="rgb(10%,10%,16%)" x1="475" x2="439" y1="2372" y2="2351" /><line stroke="rgb(10%,10%,16%)" x1="439" x2="421" y1="2351" y2="2326" /><line stroke="rgb(10%,10%,16%)" x1="421" x2="422" y1="2326" y2="2325" /><line stroke="rgb(10%,10%,16%)" x1="422" x2="3189" y1="2325" y2="2339" /><line stroke="rgb(10%,10%,16%)" x1="3189" x2="3229" y1="2339" y2="2365" /><line stroke="rgb(10%,10%,16%)" x1="3229" x2="3186" y1="2365" y2="2340" /><line stroke="rgb(10%,10%,16%)" x1="3186" x2="3187" y1="2340" y2="2339" /><line stroke="rgb(10%,10%,16%)" x1="3187" x2="333" y1="2339" y2="2348" /><line stroke="rgb(10%,10%,16%)" x1="333" x2="359" y1="2348" y2="2396" /><line stroke="rgb(10%,10%,16%)" x1="359" x2="329" y1="2396" y2="2369" /><line stroke="rgb(10%,10%,16%)" x1="329" x2="332" y1="2369" y2="2348" /><line stroke="rgb(10%,10%,16%)" x1="332" x2="1091" y1="2348" y2="2395" /><line stroke="rgb(10%,10%,16%)" x1="1091" x2="1091" y1="2395" y2="2395" /><line stroke="rgb(10%,10%,16%)" x1="1091" x2="1137" y1="2395" y2="2425" /><line stroke="rgb(10%,10%,16%)" x1="1137" x2="1077" y1="2425" y2="2401" /><line stroke="rgb(10%,10%,16%)" x1="1077" x2="1088" y1="2401" y2="2395" /><line stroke="rgb(10%,10%,16%)" x1="1088" x2="158" y1="2395" y2="2404" /><line stroke="rgb(10%,10%,16%)" x1="158" x2="179" y1="2404" y2="2429" /><line stroke="rgb(10%,10%,16%)" x1="179" x2="134" y1="2429" y2="2410" /><line stroke="rgb(10%,10%,16%)" x1="134" x2="156" y1="2410" y2="2406" /><line stroke="rgb(10%,10%,16%)" x1="156" x2="2299" y1="2406" y2="2422" /><line stroke="rgb(10%,10%,16%)" x1="2299" x2="2299" y1="2422" y2="2422" /><line stroke="rgb(10%,10%,16%)" x1="2299" x2="2335" y1="2422" y2="2447" /><line stroke="rgb(10%,10%,16%)" x1="2335" x2="2281" y1="2447" y2="2425" /><line stroke="rgb(10%,10%,16%)" x1="2281" x2="2297" y1="2425" y2="2424" /><line stroke="rgb(10%,10%,16%)" x1="2297" x2="3244" y1="2424" y2="2444" /><line stroke="rgb(10%,10%,16%)" x1="3244" x2="3244" y1="2444" y2="2444" /><line stroke="rgb(10%,10%,16%)" x1="3244" x2="3272" y1="2444" y2="2470" /><line stroke="rgb(10%,10%,16%)" x1="3272" x2="3221" y1="2470" y2="2453" /><line stroke="rgb(10%,10%,16%)" x1="3221" x2="3244" y1="2453" y2="2452" /><line stroke="rgb(10%,10%,16%)" x1="3244" x2="269" y1="2452" y2="2459" /><line stroke="rgb(10%,10%,16%)" x1="269" x2="302" y1="2459" y2="2480" /><line stroke="rgb(10%,10%,16%)" x1="302" x2="267" y1="2480" y2="2463" /><line stroke="rgb(10%,10%,16%)" x1="267" x2="269" y1="2463" y2="2462" /><line stroke="rgb(10%,10%,16%)" x1="269" x2="1759" y1="2462" y2="2537" /><line stroke="rgb(10%,10%,16%)" x1="1759" x2="1759" y1="2537" y2="2537" /><line stroke="rgb(10%,10%,16%)" x1="1759" x2="1784" y1="2537" y2="2556" /><line stroke="rgb(10%,10%,16%)" x1="1784" x2="1767" y1="2556" y2="2578" /><line stroke="rgb(10%,10%,16%)" x1="1767" x2="1741" y1="2578" y2="2560" /><line stroke="rgb(10%,10%,16%)" x1="1741" x2="1759" y1="2560" y2="2538" /><line stroke="rgb(10%,10%,16%)" x1="1759" x2="1759" y1="2538" y2="2538" /><line stroke="rgb(10%,10%,16%)" x1="1759" x2="3616" y1="2538" y2="2547" /><line stroke="rgb(10%,10%,16%)" x1="3616" x2="3646" y1="2547" y2="2571" /><line stroke="rgb(10%,10%,16%)" x1="3646" x2="3630" y1="2571" y2="2597" /><line stroke="rgb(10%,10%,16%)" x1="3630" x2="3616" y1="2597" y2="2567" /><line stroke="rgb(10%,10%,16%)" x1="3616" x2="382" y1="2567" y2="2623" /><line stroke="rgb(10%,10%,16%)" x1="382" x2="382" y1="2623" y2="2623" /><line stroke="rgb(10%,10%,16%)" x1="382" x2="418" y1="2623" y2="2657" /><line stroke="rgb(10%,10%,16%)" x1="418" x2="402" y1="2657" y2="2673" /><line stroke="rgb(10%,10%,16%)" x1="402" x2="380" y1="2673" y2="2657" /><line stroke="rgb(10%,10%,16%)" x1="380" x2="357" y1="2657" y2="2636" /><line stroke="rgb(10%,10%,16%)" x1="357" x2="380" y1="2636" y2="2625" /><line stroke="rgb(10%,10%,16%)" x1="380" x2="3641" y1="2625" y2="2641" /><line stroke="rgb(10%,10%,16%)" x1="3641" x2="3641" y1="2641" y2="2641" /><line stroke="rgb(10%,10%,16%)" x1="3641" x2="3680" y1="2641" y2="2685" /><line stroke="rgb(10%,10%,16%)" x1="3680" x2="3701" y1="2685" y2="2713" /><line stroke="rgb(10%,10%,16%)" x1="3701" x2="3673" y1="2713" y2="2795" /><line stroke="rgb(10%,10%,16%)" x1="3673" x2="3657" y1="2795" y2="2736" /><line stroke="rgb(10%,10%,16%)" x1="3657" x2="3641" y1="2736" y2="2674" /><line stroke="rgb(10%,10%,16%)" x1="3641" x2="3640" y1="2674" y2="2641" /><line stroke="rgb(10%,10%,16%)" x1="3640" x2="917" y1="2641" y2="2653" /><line stroke="rgb(10%,10%,16%)" x1="917" x2="958" y1="2653" y2="2674" /><line stroke="rgb(10%,10%,16%)" x1="958" x2="910" y1="2674" y2="2655" /><line stroke="rgb(10%,10%,16%)" x1="910" x2="912" y1="2655" y2="2653" /><line stroke="rgb(10%,10%,16%)" x1="912" x2="1868" y1="2653" y2="2655" /><line stroke="rgb(10%,10%,16%)" x1="1868" x2="1908" y1="2655" y2="2685" /><line stroke="rgb(10%,10%,16%)" x1="1908" x2="1869" y1="2685" y2="2702" /><line stroke="rgb(10%,10%,16%)" x1="1869" x2="1843" y1="2702" y2="2681" /><line stroke="rgb(10%,10%,16%)" x1="1843" x2="1868" y1="2681" y2="2658" /><line stroke="rgb(10%,10%,16%)" x1="1868" x2="1868" y1="2658" y2="2658" /><line stroke="rgb(10%,10%,16%)" x1="1868" x2="642" y1="2658" y2="2727" /><line stroke="rgb(10%,10%,16%)" x1="642" x2="642" y1="2727" y2="2727" /><line stroke="rgb(10%,10%,16%)" x1="642" x2="672" y1="2727" y2="2766" /><line stroke="rgb(10%,10%,16%)" x1="672" x2="642" y1="2766" y2="2768" /><line stroke="rgb(10%,10%,16%)" x1="642" x2="3699" y1="2768" y2="2811" /><line stroke="rgb(10%,10%,16%)" x1="3699" x2="3699" y1="2811" y2="2811" /><line stroke="rgb(10%,10%,16%)" x1="3699" x2="3735" y1="2811" y2="2827" /><line stroke="rgb(10%,10%,16%)" x1="3735" x2="3766" y1="2827" y2="2862" /><line stroke="rgb(10%,10%,16%)" x1="3766" x2="3703" y1="2862" y2="2846" /><line stroke="rgb(10%,10%,16%)" x1="3703" x2="3699" y1="2846" y2="2845" /><line stroke="rgb(10%,10%,16%)" x1="3699" x2="3731" y1="2845" y2="2875" /><line stroke="rgb(10%,10%,16%)" x1="3731" x2="3731" y1="2875" y2="2875" /><line stroke="rgb(10%,10%,16%)" x1="3731" x2="3768" y1="2875" y2="2914" /><line stroke="rgb(10%,10%,16%)" x1="3768" x2="3797" y1="2914" y2="2936" /><line stroke="rgb(10%,10%,16%)" x1="3797" x2="3733" y1="2936" y2="2917" /><line stroke="rgb(10%,10%,16%)" x1="3733" x2="3731" y1="2917" y2="2888" /><line stroke="rgb(10%,10%,16%)" x1="3731" x2="3877" y1="2888" y2="2886" /><line stroke="rgb(10%,10%,16%)" x1="3877" x2="3903" y1="2886" y2="2912" /><line stroke="rgb(10%,10%,16%)" x1="3903" x2="3880" y1="2912" y2="2931" /><line stroke="rgb(10%,10%,16%)" x1="3880" x2="3851" y1="2931" y2="2912" /><line stroke="rgb(10%,10%,16%)" x1="3851" x2="3872" y1="2912" y2="2894" /><line stroke="rgb(10%,10%,16%)" x1="3872" x2="3877" y1="2894" y2="2892" /><line stroke="rgb(10%,10%,16%)" x1="3877" x2="3409" y1="2892" y2="2922" /><line stroke="rgb(10%,10%,16%)" x1="3409" x2="3409" y1="2922" y2="2922" /><line stroke="rgb(10%,10%,16%)" x1="3409" x2="3442" y1="2922" y2="2941" /><line stroke="rgb(10%,10%,16%)" x1="3442" x2="3414" y1="2941" y2="2962" /><line stroke="rgb(10%,10%,16%)" x1="3414" x2="3409" y1="2962" y2="2945" /><line stroke="rgb(10%,10%,16%)" x1="3409" x2="3644" y1="2945" y2="2971" /><line stroke="rgb(10%,10%,16%)" x1="3644" x2="3644" y1="2971" y2="2971" /><line stroke="rgb(10%,10%,16%)" x1="3644" x2="3679" y1="2971" y2="2994" /><line stroke="rgb(10%,10%,16%)" x1="3679" x2="3626" y1="2994" y2="2976" /><line stroke="rgb(10%,10%,16%)" x1="3626" x2="3644" y1="2976" y2="2974" /></g></svg>