<?xml version="1.0" encoding="utf-8" ?>
<svg baseProfile="full" height="469" version="1.1" width="650" xmlns="http://www.w3.org/2000/svg" xmlns:ev="http://www.w3.org/2001/xml-events" xmlns:xlink="http://www.w3.org/1999/xlink"><defs /><g fill="none" id="shapes"><line stroke="rgb(10%,10%,16%)" x1="0" x2="0" y1="469" y2="0" /><line stroke="rgb(10%,10%,16%)" x1="0" x2="17" y1="0" y2="441" /><line stroke="rgb(10%,10%,16%)" x1="17" x2="249" y1="441" y2="466" /><line stroke="rgb(10%,10%,16%)" x1="249" x2="624" y1="466" y2="446" /><line stroke="rgb(10%,10%,16%)" x1="624" x2="633" y1="446" y2="400" /><line stroke="rgb(10%,10%,16%)" x1="633" x2="555" y1="400" y2="383" /><line stroke="rgb(10%,10%,16%)" x1="555" x2="447" y1="383" y2="422" /><line stroke="rgb(10%,10%,16%)" x1="447" x2="375" y1="422" y2="428" /><line stroke="rgb(10%,10%,16%)" x1="375" x2="297" y1="428" y2="405" /><line stroke="rgb(10%,10%,16%)" x1="297" x2="319" y1="405" y2="389" /><line stroke="rgb(10%,10%,16%)" x1="319" x2="347" y1="389" y2="373" /><line stroke="rgb(10%,10%,16%)" x1="347" x2="378" y1="373" y2="349" /><line stroke="rgb(10%,10%,16%)" x1="378" x2="395" y1="349" y2="330" /><line stroke="rgb(10%,10%,16%)" x1="395" x2="418" y1="330" y2="343" /><line stroke="rgb(10%,10%,16%)" x1="418" x2="458" y1="343" y2="355" /><line stroke="rgb(10%,10%,16%)" x1="458" x2="634" y1="355" y2="346" /><line stroke="rgb(10%,10%,16%)" x1="634" x2="495" y1="346" y2="5" /><line stroke="rgb(10%,10%,16%)" x1="495" x2="6" y1="5" y2="0" /><line stroke="rgb(10%,10%,16%)" x1="6" x2="11" y1="0" y2="8" /><line stroke="rgb(10%,10%,16%)" x1="11" x2="146" y1="8" y2="25" /><line stroke="rgb(10%,10%,16%)" x1="146" x2="180" y1="25" y2="36" /><line stroke="rgb(10%,10%,16%)" x1="180" x2="222" y1="36" y2="19" /><line stroke="rgb(10%,10%,16%)" x1="222" x2="381" y1="19" y2="43" /><line stroke="rgb(10%,10%,16%)" x1="381" x2="398" y1="43" y2="87" /><line stroke="rgb(10%,10%,16%)" x1="398" x2="412" y1="87" y2="156" /><line stroke="rgb(10%,10%,16%)" x1="412" x2="396" y1="156" y2="222" /><line stroke="rgb(10%,10%,16%)" x1="396" x2="359" y1="222" y2="269" /><line stroke="rgb(10%,10%,16%)" x1="359" x2="405" y1="269" y2="236" /><line stroke="rgb(10%,10%,16%)" x1="405" x2="418" y1="236" y2="202" /><line stroke="rgb(10%,10%,16%)" x1="418" x2="433" y1="202" y2="171" /><line stroke="rgb(10%,10%,16%)" x1="433" x2="420" y1="171" y2="121" /><line stroke="rgb(10%,10%,16%)" x1="420" x2="410" y1="121" y2="40" /><line stroke="rgb(10%,10%,16%)" x1="410" x2="474" y1="40" y2="21" /><line stroke="rgb(10%,10%,16%)" x1="474" x2="585" y1="21" y2="55" /><line stroke="rgb(10%,10%,16%)" x1="585" x2="503" y1="55" y2="107" /><line stroke="rgb(10%,10%,16%)" x1="503" x2="450" y1="107" y2="142" /><line stroke="rgb(10%,10%,16%)" x1="450" x2="440" y1="142" y2="222" /><line stroke="rgb(10%,10%,16%)" x1="440" x2="413" y1="222" y2="303" /><line stroke="rgb(10%,10%,16%)" x1="413" x2="202" y1="303" y2="292" /><line stroke="rgb(10%,10%,16%)" x1="202" x2="167" y1="292" y2="279" /><line stroke="rgb(10%,10%,16%)" x1="167" x2="151" y1="279" y2="234" /><line stroke="rgb(10%,10%,16%)" x1="151" x2="116" y1="234" y2="180" /><line stroke="rgb(10%,10%,16%)" x1="116" x2="89" y1="180" y2="142" /><line stroke="rgb(10%,10%,16%)" x1="89" x2="96" y1="142" y2="60" /><line stroke="rgb(10%,10%,16%)" x1="96" x2="57" y1="60" y2="188" /><line stroke="rgb(10%,10%,16%)" x1="57" x2="74" y1="188" y2="260" /><line stroke="rgb(10%,10%,16%)" x1="74" x2="11" y1="260" y2="53" /><line stroke="rgb(10%,10%,16%)" x1="11" x2="646" y1="53" y2="9" /><line stroke="rgb(10%,10%,16%)" x1="646" x2="646" y1="9" y2="144" /><line stroke="rgb(10%,10%,16%)" x1="646" x2="195" y1="144" y2="83" /><line stroke="rgb(10%,10%,16%)" x1="195" x2="198" y1="83" y2="83" /><line stroke="rgb(10%,10%,16%)" x1="198" x2="544" y1="83" y2="133" /><line stroke="rgb(10%,10%,16%)" x1="544" x2="541" y1="133" y2="133" /><line stroke="rgb(10%,10%,16%)" x1="541" x2="63" y1="133" y2="364" /><line stroke="rgb(10%,10%,16%)" x1="63" x2="61" y1="364" y2="366" /><line stroke="rgb(10%,10%,16%)" x1="61" x2="606" y1="366" y2="453" /><line stroke="rgb(10%,10%,16%)" x1="606" x2="606" y1="453" y2="455" /><line stroke="rgb(10%,10%,16%)" x1="606" x2="527" y1="455" y2="454" /><line stroke="rgb(10%,10%,16%)" x1="527" x2="520" y1="454" y2="454" /></g></svg>