<?xml version="1.0" encoding="utf-8" ?>
<svg baseProfile="full" height="225" version="1.1" width="225" xmlns="http://www.w3.org/2000/svg" xmlns:ev="http://www.w3.org/2001/xml-events" xmlns:xlink="http://www.w3.org/1999/xlink"><defs /><g fill="none" id="shapes"><line stroke="rgb(10%,10%,16%)" x1="0" x2="0" y1="218" y2="224" /><line stroke="rgb(10%,10%,16%)" x1="0" x2="10" y1="224" y2="224" /><line stroke="rgb(10%,10%,16%)" x1="10" x2="9" y1="224" y2="224" /><line stroke="rgb(10%,10%,16%)" x1="9" x2="8" y1="224" y2="223" /><line stroke="rgb(10%,10%,16%)" x1="8" x2="7" y1="223" y2="223" /><line stroke="rgb(10%,10%,16%)" x1="7" x2="5" y1="223" y2="221" /><line stroke="rgb(10%,10%,16%)" x1="5" x2="4" y1="221" y2="221" /><line stroke="rgb(10%,10%,16%)" x1="4" x2="2" y1="221" y2="219" /><line stroke="rgb(10%,10%,16%)" x1="2" x2="1" y1="219" y2="219" /><line stroke="rgb(10%,10%,16%)" x1="1" x2="105" y1="219" y2="69" /><line stroke="rgb(10%,10%,16%)" x1="105" x2="104" y1="69" y2="70" /><line stroke="rgb(10%,10%,16%)" x1="104" x2="96" y1="70" y2="70" /><line stroke="rgb(10%,10%,16%)" x1="96" x2="95" y1="70" y2="71" /><line stroke="rgb(10%,10%,16%)" x1="95" x2="90" y1="71" y2="71" /><line stroke="rgb(10%,10%,16%)" x1="90" x2="89" y1="71" y2="72" /><line stroke="rgb(10%,10%,16%)" x1="89" x2="85" y1="72" y2="72" /><line stroke="rgb(10%,10%,16%)" x1="85" x2="84" y1="72" y2="73" /><line stroke="rgb(10%,10%,16%)" x1="84" x2="81" y1="73" y2="73" /><line stroke="rgb(10%,10%,16%)" x1="81" x2="79" y1="73" y2="75" /><line stroke="rgb(10%,10%,16%)" x1="79" x2="75" y1="75" y2="75" /><line stroke="rgb(10%,10%,16%)" x1="75" x2="74" y1="75" y2="76" /><line stroke="rgb(10%,10%,16%)" x1="74" x2="72" y1="76" y2="76" /><line stroke="rgb(10%,10%,16%)" x1="72" x2="71" y1="76" y2="77" /><line stroke="rgb(10%,10%,16%)" x1="71" x2="70" y1="77" y2="77" /><line stroke="rgb(10%,10%,16%)" x1="70" x2="69" y1="77" y2="78" /><line stroke="rgb(10%,10%,16%)" x1="69" x2="68" y1="78" y2="78" /><line stroke="rgb(10%,10%,16%)" x1="68" x2="67" y1="78" y2="79" /><line stroke="rgb(10%,10%,16%)" x1="67" x2="65" y1="79" y2="79" /><line stroke="rgb(10%,10%,16%)" x1="65" x2="64" y1="79" y2="80" /><line stroke="rgb(10%,10%,16%)" x1="64" x2="63" y1="80" y2="80" /><line stroke="rgb(10%,10%,16%)" x1="63" x2="62" y1="80" y2="81" /><line stroke="rgb(10%,10%,16%)" x1="62" x2="61" y1="81" y2="81" /><line stroke="rgb(10%,10%,16%)" x1="61" x2="60" y1="81" y2="82" /><line stroke="rgb(10%,10%,16%)" x1="60" x2="59" y1="82" y2="82" /><line stroke="rgb(10%,10%,16%)" x1="59" x2="58" y1="82" y2="83" /><line stroke="rgb(10%,10%,16%)" x1="58" x2="57" y1="83" y2="83" /><line stroke="rgb(10%,10%,16%)" x1="57" x2="56" y1="83" y2="84" /><line stroke="rgb(10%,10%,16%)" x1="56" x2="55" y1="84" y2="84" /><line stroke="rgb(10%,10%,16%)" x1="55" x2="53" y1="84" y2="86" /><line stroke="rgb(10%,10%,16%)" x1="53" x2="52" y1="86" y2="86" /><line stroke="rgb(10%,10%,16%)" x1="52" x2="51" y1="86" y2="87" /><line stroke="rgb(10%,10%,16%)" x1="51" x2="50" y1="87" y2="87" /><line stroke="rgb(10%,10%,16%)" x1="50" x2="49" y1="87" y2="88" /><line stroke="rgb(10%,10%,16%)" x1="49" x2="48" y1="88" y2="88" /><line stroke="rgb(10%,10%,16%)" x1="48" x2="46" y1="88" y2="90" /><line stroke="rgb(10%,10%,16%)" x1="46" x2="45" y1="90" y2="90" /><line stroke="rgb(10%,10%,16%)" x1="45" x2="43" y1="90" y2="92" /><line stroke="rgb(10%,10%,16%)" x1="43" x2="42" y1="92" y2="92" /><line stroke="rgb(10%,10%,16%)" x1="42" x2="39" y1="92" y2="95" /><line stroke="rgb(10%,10%,16%)" x1="39" x2="38" y1="95" y2="95" /><line stroke="rgb(10%,10%,16%)" x1="38" x2="17" y1="95" y2="116" /><line stroke="rgb(10%,10%,16%)" x1="17" x2="17" y1="116" y2="117" /><line stroke="rgb(10%,10%,16%)" x1="17" x2="16" y1="117" y2="118" /><line stroke="rgb(10%,10%,16%)" x1="16" x2="16" y1="118" y2="128" /><line stroke="rgb(10%,10%,16%)" x1="16" x2="17" y1="128" y2="129" /><line stroke="rgb(10%,10%,16%)" x1="17" x2="17" y1="129" y2="130" /><line stroke="rgb(10%,10%,16%)" x1="17" x2="18" y1="130" y2="131" /><line stroke="rgb(10%,10%,16%)" x1="18" x2="18" y1="131" y2="132" /><line stroke="rgb(10%,10%,16%)" x1="18" x2="20" y1="132" y2="134" /><line stroke="rgb(10%,10%,16%)" x1="20" x2="20" y1="134" y2="135" /><line stroke="rgb(10%,10%,16%)" x1="20" x2="37" y1="135" y2="152" /><line stroke="rgb(10%,10%,16%)" x1="37" x2="38" y1="152" y2="152" /><line stroke="rgb(10%,10%,16%)" x1="38" x2="41" y1="152" y2="155" /><line stroke="rgb(10%,10%,16%)" x1="41" x2="42" y1="155" y2="155" /><line stroke="rgb(10%,10%,16%)" x1="42" x2="45" y1="155" y2="158" /><line stroke="rgb(10%,10%,16%)" x1="45" x2="46" y1="158" y2="158" /><line stroke="rgb(10%,10%,16%)" x1="46" x2="48" y1="158" y2="160" /><line stroke="rgb(10%,10%,16%)" x1="48" x2="49" y1="160" y2="160" /><line stroke="rgb(10%,10%,16%)" x1="49" x2="51" y1="160" y2="162" /><line stroke="rgb(10%,10%,16%)" x1="51" x2="52" y1="162" y2="162" /><line stroke="rgb(10%,10%,16%)" x1="52" x2="53" y1="162" y2="163" /><line stroke="rgb(10%,10%,16%)" x1="53" x2="54" y1="163" y2="163" /><line stroke="rgb(10%,10%,16%)" x1="54" x2="55" y1="163" y2="164" /><line stroke="rgb(10%,10%,16%)" x1="55" x2="56" y1="164" y2="164" /><line stroke="rgb(10%,10%,16%)" x1="56" x2="57" y1="164" y2="165" /><line stroke="rgb(10%,10%,16%)" x1="57" x2="58" y1="165" y2="165" /><line stroke="rgb(10%,10%,16%)" x1="58" x2="59" y1="165" y2="166" /><line stroke="rgb(10%,10%,16%)" x1="59" x2="60" y1="166" y2="166" /><line stroke="rgb(10%,10%,16%)" x1="60" x2="61" y1="166" y2="167" /><line stroke="rgb(10%,10%,16%)" x1="61" x2="62" y1="167" y2="167" /><line stroke="rgb(10%,10%,16%)" x1="62" x2="63" y1="167" y2="168" /><line stroke="rgb(10%,10%,16%)" x1="63" x2="64" y1="168" y2="168" /><line stroke="rgb(10%,10%,16%)" x1="64" x2="65" y1="168" y2="169" /><line stroke="rgb(10%,10%,16%)" x1="65" x2="66" y1="169" y2="169" /><line stroke="rgb(10%,10%,16%)" x1="66" x2="67" y1="169" y2="170" /><line stroke="rgb(10%,10%,16%)" x1="67" x2="69" y1="170" y2="170" /><line stroke="rgb(10%,10%,16%)" x1="69" x2="70" y1="170" y2="171" /><line stroke="rgb(10%,10%,16%)" x1="70" x2="71" y1="171" y2="171" /><line stroke="rgb(10%,10%,16%)" x1="71" x2="72" y1="171" y2="172" /><line stroke="rgb(10%,10%,16%)" x1="72" x2="74" y1="172" y2="172" /><line stroke="rgb(10%,10%,16%)" x1="74" x2="75" y1="172" y2="173" /><line stroke="rgb(10%,10%,16%)" x1="75" x2="77" y1="173" y2="173" /><line stroke="rgb(10%,10%,16%)" x1="77" x2="78" y1="173" y2="174" /><line stroke="rgb(10%,10%,16%)" x1="78" x2="81" y1="174" y2="174" /><line stroke="rgb(10%,10%,16%)" x1="81" x2="82" y1="174" y2="175" /><line stroke="rgb(10%,10%,16%)" x1="82" x2="84" y1="175" y2="175" /><line stroke="rgb(10%,10%,16%)" x1="84" x2="85" y1="175" y2="176" /><line stroke="rgb(10%,10%,16%)" x1="85" x2="89" y1="176" y2="176" /><line stroke="rgb(10%,10%,16%)" x1="89" x2="90" y1="176" y2="177" /><line stroke="rgb(10%,10%,16%)" x1="90" x2="96" y1="177" y2="177" /><line stroke="rgb(10%,10%,16%)" x1="96" x2="97" y1="177" y2="178" /><line stroke="rgb(10%,10%,16%)" x1="97" x2="104" y1="178" y2="178" /><line stroke="rgb(10%,10%,16%)" x1="104" x2="105" y1="178" y2="179" /><line stroke="rgb(10%,10%,16%)" x1="105" x2="121" y1="179" y2="179" /><line stroke="rgb(10%,10%,16%)" x1="121" x2="122" y1="179" y2="178" /><line stroke="rgb(10%,10%,16%)" x1="122" x2="131" y1="178" y2="178" /><line stroke="rgb(10%,10%,16%)" x1="131" x2="132" y1="178" y2="177" /><line stroke="rgb(10%,10%,16%)" x1="132" x2="137" y1="177" y2="177" /><line stroke="rgb(10%,10%,16%)" x1="137" x2="138" y1="177" y2="176" /><line stroke="rgb(10%,10%,16%)" x1="138" x2="142" y1="176" y2="176" /><line stroke="rgb(10%,10%,16%)" x1="142" x2="143" y1="176" y2="175" /><line stroke="rgb(10%,10%,16%)" x1="143" x2="146" y1="175" y2="175" /><line stroke="rgb(10%,10%,16%)" x1="146" x2="147" y1="175" y2="174" /><line stroke="rgb(10%,10%,16%)" x1="147" x2="149" y1="174" y2="174" /><line stroke="rgb(10%,10%,16%)" x1="149" x2="150" y1="174" y2="173" /><line stroke="rgb(10%,10%,16%)" x1="150" x2="152" y1="173" y2="173" /><line stroke="rgb(10%,10%,16%)" x1="152" x2="153" y1="173" y2="172" /><line stroke="rgb(10%,10%,16%)" x1="153" x2="155" y1="172" y2="172" /><line stroke="rgb(10%,10%,16%)" x1="155" x2="156" y1="172" y2="171" /><line stroke="rgb(10%,10%,16%)" x1="156" x2="157" y1="171" y2="171" /><line stroke="rgb(10%,10%,16%)" x1="157" x2="158" y1="171" y2="170" /><line stroke="rgb(10%,10%,16%)" x1="158" x2="160" y1="170" y2="170" /><line stroke="rgb(10%,10%,16%)" x1="160" x2="161" y1="170" y2="169" /><line stroke="rgb(10%,10%,16%)" x1="161" x2="162" y1="169" y2="169" /><line stroke="rgb(10%,10%,16%)" x1="162" x2="163" y1="169" y2="168" /><line stroke="rgb(10%,10%,16%)" x1="163" x2="164" y1="168" y2="168" /><line stroke="rgb(10%,10%,16%)" x1="164" x2="165" y1="168" y2="167" /><line stroke="rgb(10%,10%,16%)" x1="165" x2="166" y1="167" y2="167" /><line stroke="rgb(10%,10%,16%)" x1="166" x2="167" y1="167" y2="166" /><line stroke="rgb(10%,10%,16%)" x1="167" x2="168" y1="166" y2="166" /><line stroke="rgb(10%,10%,16%)" x1="168" x2="169" y1="166" y2="165" /><line stroke="rgb(10%,10%,16%)" x1="169" x2="170" y1="165" y2="165" /><line stroke="rgb(10%,10%,16%)" x1="170" x2="171" y1="165" y2="164" /><line stroke="rgb(10%,10%,16%)" x1="171" x2="172" y1="164" y2="164" /><line stroke="rgb(10%,10%,16%)" x1="172" x2="173" y1="164" y2="163" /><line stroke="rgb(10%,10%,16%)" x1="173" x2="174" y1="163" y2="163" /><line stroke="rgb(10%,10%,16%)" x1="174" x2="175" y1="163" y2="162" /><line stroke="rgb(10%,10%,16%)" x1="175" x2="176" y1="162" y2="162" /><line stroke="rgb(10%,10%,16%)" x1="176" x2="178" y1="162" y2="160" /><line stroke="rgb(10%,10%,16%)" x1="178" x2="179" y1="160" y2="160" /><line stroke="rgb(10%,10%,16%)" x1="179" x2="181" y1="160" y2="158" /><line stroke="rgb(10%,10%,16%)" x1="181" x2="182" y1="158" y2="158" /><line stroke="rgb(10%,10%,16%)" x1="182" x2="184" y1="158" y2="156" /><line stroke="rgb(10%,10%,16%)" x1="184" x2="185" y1="156" y2="156" /><line stroke="rgb(10%,10%,16%)" x1="185" x2="188" y1="156" y2="153" /><line stroke="rgb(10%,10%,16%)" x1="188" x2="189" y1="153" y2="153" /><line stroke="rgb(10%,10%,16%)" x1="189" x2="196" y1="153" y2="146" /><line stroke="rgb(10%,10%,16%)" x1="196" x2="197" y1="146" y2="146" /><line stroke="rgb(10%,10%,16%)" x1="197" x2="199" y1="146" y2="144" /><line stroke="rgb(10%,10%,16%)" x1="199" x2="199" y1="144" y2="143" /><line stroke="rgb(10%,10%,16%)" x1="199" x2="206" y1="143" y2="136" /><line stroke="rgb(10%,10%,16%)" x1="206" x2="206" y1="136" y2="135" /><line stroke="rgb(10%,10%,16%)" x1="206" x2="207" y1="135" y2="134" /><line stroke="rgb(10%,10%,16%)" x1="207" x2="207" y1="134" y2="131" /><line stroke="rgb(10%,10%,16%)" x1="207" x2="208" y1="131" y2="130" /><line stroke="rgb(10%,10%,16%)" x1="208" x2="208" y1="130" y2="121" /><line stroke="rgb(10%,10%,16%)" x1="208" x2="207" y1="121" y2="120" /><line stroke="rgb(10%,10%,16%)" x1="207" x2="207" y1="120" y2="118" /><line stroke="rgb(10%,10%,16%)" x1="207" x2="205" y1="118" y2="116" /><line stroke="rgb(10%,10%,16%)" x1="205" x2="205" y1="116" y2="115" /><line stroke="rgb(10%,10%,16%)" x1="205" x2="201" y1="115" y2="111" /><line stroke="rgb(10%,10%,16%)" x1="201" x2="201" y1="111" y2="110" /><line stroke="rgb(10%,10%,16%)" x1="201" x2="195" y1="110" y2="104" /><line stroke="rgb(10%,10%,16%)" x1="195" x2="194" y1="104" y2="104" /><line stroke="rgb(10%,10%,16%)" x1="194" x2="188" y1="104" y2="98" /><line stroke="rgb(10%,10%,16%)" x1="188" x2="187" y1="98" y2="98" /><line stroke="rgb(10%,10%,16%)" x1="187" x2="184" y1="98" y2="95" /><line stroke="rgb(10%,10%,16%)" x1="184" x2="183" y1="95" y2="95" /><line stroke="rgb(10%,10%,16%)" x1="183" x2="180" y1="95" y2="92" /><line stroke="rgb(10%,10%,16%)" x1="180" x2="179" y1="92" y2="92" /><line stroke="rgb(10%,10%,16%)" x1="179" x2="177" y1="92" y2="90" /><line stroke="rgb(10%,10%,16%)" x1="177" x2="176" y1="90" y2="90" /><line stroke="rgb(10%,10%,16%)" x1="176" x2="175" y1="90" y2="89" /><line stroke="rgb(10%,10%,16%)" x1="175" x2="174" y1="89" y2="89" /><line stroke="rgb(10%,10%,16%)" x1="174" x2="172" y1="89" y2="87" /><line stroke="rgb(10%,10%,16%)" x1="172" x2="171" y1="87" y2="87" /><line stroke="rgb(10%,10%,16%)" x1="171" x2="170" y1="87" y2="86" /><line stroke="rgb(10%,10%,16%)" x1="170" x2="169" y1="86" y2="86" /><line stroke="rgb(10%,10%,16%)" x1="169" x2="167" y1="86" y2="84" /><line stroke="rgb(10%,10%,16%)" x1="167" x2="166" y1="84" y2="84" /><line stroke="rgb(10%,10%,16%)" x1="166" x2="165" y1="84" y2="83" /><line stroke="rgb(10%,10%,16%)" x1="165" x2="164" y1="83" y2="83" /><line stroke="rgb(10%,10%,16%)" x1="164" x2="163" y1="83" y2="82" /><line stroke="rgb(10%,10%,16%)" x1="163" x2="162" y1="82" y2="82" /><line stroke="rgb(10%,10%,16%)" x1="162" x2="161" y1="82" y2="81" /><line stroke="rgb(10%,10%,16%)" x1="161" x2="160" y1="81" y2="81" /><line stroke="rgb(10%,10%,16%)" x1="160" x2="159" y1="81" y2="80" /><line stroke="rgb(10%,10%,16%)" x1="159" x2="158" y1="80" y2="80" /><line stroke="rgb(10%,10%,16%)" x1="158" x2="157" y1="80" y2="79" /><line stroke="rgb(10%,10%,16%)" x1="157" x2="155" y1="79" y2="79" /><line stroke="rgb(10%,10%,16%)" x1="155" x2="154" y1="79" y2="78" /><line stroke="rgb(10%,10%,16%)" x1="154" x2="153" y1="78" y2="78" /><line stroke="rgb(10%,10%,16%)" x1="153" x2="152" y1="78" y2="77" /><line stroke="rgb(10%,10%,16%)" x1="152" x2="148" y1="77" y2="77" /><line stroke="rgb(10%,10%,16%)" x1="148" x2="146" y1="77" y2="75" /><line stroke="rgb(10%,10%,16%)" x1="146" x2="145" y1="75" y2="75" /><line stroke="rgb(10%,10%,16%)" x1="145" x2="144" y1="75" y2="74" /><line stroke="rgb(10%,10%,16%)" x1="144" x2="141" y1="74" y2="74" /><line stroke="rgb(10%,10%,16%)" x1="141" x2="140" y1="74" y2="73" /><line stroke="rgb(10%,10%,16%)" x1="140" x2="137" y1="73" y2="73" /><line stroke="rgb(10%,10%,16%)" x1="137" x2="136" y1="73" y2="72" /><line stroke="rgb(10%,10%,16%)" x1="136" x2="133" y1="72" y2="72" /><line stroke="rgb(10%,10%,16%)" x1="133" x2="132" y1="72" y2="71" /><line stroke="rgb(10%,10%,16%)" x1="132" x2="127" y1="71" y2="71" /><line stroke="rgb(10%,10%,16%)" x1="127" x2="126" y1="71" y2="70" /><line stroke="rgb(10%,10%,16%)" x1="126" x2="117" y1="70" y2="70" /><line stroke="rgb(10%,10%,16%)" x1="117" x2="116" y1="70" y2="69" /><line stroke="rgb(10%,10%,16%)" x1="116" x2="71" y1="69" y2="77" /><line stroke="rgb(10%,10%,16%)" x1="71" x2="72" y1="77" y2="76" /><line stroke="rgb(10%,10%,16%)" x1="72" x2="76" y1="76" y2="76" /><line stroke="rgb(10%,10%,16%)" x1="76" x2="77" y1="76" y2="77" /><line stroke="rgb(10%,10%,16%)" x1="77" x2="77" y1="77" y2="85" /><line stroke="rgb(10%,10%,16%)" x1="77" x2="78" y1="85" y2="86" /><line stroke="rgb(10%,10%,16%)" x1="78" x2="80" y1="86" y2="86" /><line stroke="rgb(10%,10%,16%)" x1="80" x2="80" y1="86" y2="82" /><line stroke="rgb(10%,10%,16%)" x1="80" x2="82" y1="82" y2="80" /><line stroke="rgb(10%,10%,16%)" x1="82" x2="86" y1="80" y2="80" /><line stroke="rgb(10%,10%,16%)" x1="86" x2="87" y1="80" y2="81" /><line stroke="rgb(10%,10%,16%)" x1="87" x2="87" y1="81" y2="83" /><line stroke="rgb(10%,10%,16%)" x1="87" x2="88" y1="83" y2="84" /><line stroke="rgb(10%,10%,16%)" x1="88" x2="90" y1="84" y2="84" /><line stroke="rgb(10%,10%,16%)" x1="90" x2="90" y1="84" y2="82" /><line stroke="rgb(10%,10%,16%)" x1="90" x2="92" y1="82" y2="80" /><line stroke="rgb(10%,10%,16%)" x1="92" x2="96" y1="80" y2="80" /><line stroke="rgb(10%,10%,16%)" x1="96" x2="98" y1="80" y2="82" /><line stroke="rgb(10%,10%,16%)" x1="98" x2="98" y1="82" y2="83" /><line stroke="rgb(10%,10%,16%)" x1="98" x2="100" y1="83" y2="83" /><line stroke="rgb(10%,10%,16%)" x1="100" x2="100" y1="83" y2="80" /><line stroke="rgb(10%,10%,16%)" x1="100" x2="102" y1="80" y2="78" /><line stroke="rgb(10%,10%,16%)" x1="102" x2="106" y1="78" y2="78" /><line stroke="rgb(10%,10%,16%)" x1="106" x2="107" y1="78" y2="79" /><line stroke="rgb(10%,10%,16%)" x1="107" x2="107" y1="79" y2="80" /><line stroke="rgb(10%,10%,16%)" x1="107" x2="108" y1="80" y2="81" /><line stroke="rgb(10%,10%,16%)" x1="108" x2="108" y1="81" y2="82" /><line stroke="rgb(10%,10%,16%)" x1="108" x2="111" y1="82" y2="82" /><line stroke="rgb(10%,10%,16%)" x1="111" x2="111" y1="82" y2="79" /><line stroke="rgb(10%,10%,16%)" x1="111" x2="112" y1="79" y2="78" /><line stroke="rgb(10%,10%,16%)" x1="112" x2="116" y1="78" y2="78" /><line stroke="rgb(10%,10%,16%)" x1="116" x2="117" y1="78" y2="79" /><line stroke="rgb(10%,10%,16%)" x1="117" x2="117" y1="79" y2="81" /><line stroke="rgb(10%,10%,16%)" x1="117" x2="118" y1="81" y2="82" /><line stroke="rgb(10%,10%,16%)" x1="118" x2="121" y1="82" y2="82" /><line stroke="rgb(10%,10%,16%)" x1="121" x2="121" y1="82" y2="80" /><line stroke="rgb(10%,10%,16%)" x1="121" x2="122" y1="80" y2="79" /><line stroke="rgb(10%,10%,16%)" x1="122" x2="127" y1="79" y2="79" /><line stroke="rgb(10%,10%,16%)" x1="127" x2="128" y1="79" y2="80" /><line stroke="rgb(10%,10%,16%)" x1="128" x2="128" y1="80" y2="82" /><line stroke="rgb(10%,10%,16%)" x1="128" x2="129" y1="82" y2="83" /><line stroke="rgb(10%,10%,16%)" x1="129" x2="130" y1="83" y2="83" /><line stroke="rgb(10%,10%,16%)" x1="130" x2="130" y1="83" y2="82" /><line stroke="rgb(10%,10%,16%)" x1="130" x2="132" y1="82" y2="80" /><line stroke="rgb(10%,10%,16%)" x1="132" x2="136" y1="80" y2="80" /><line stroke="rgb(10%,10%,16%)" x1="136" x2="138" y1="80" y2="82" /><line stroke="rgb(10%,10%,16%)" x1="138" x2="138" y1="82" y2="84" /><line stroke="rgb(10%,10%,16%)" x1="138" x2="139" y1="84" y2="85" /><line stroke="rgb(10%,10%,16%)" x1="139" x2="141" y1="85" y2="85" /><line stroke="rgb(10%,10%,16%)" x1="141" x2="141" y1="85" y2="83" /><line stroke="rgb(10%,10%,16%)" x1="141" x2="142" y1="83" y2="82" /><line stroke="rgb(10%,10%,16%)" x1="142" x2="146" y1="82" y2="82" /><line stroke="rgb(10%,10%,16%)" x1="146" x2="147" y1="82" y2="83" /><line stroke="rgb(10%,10%,16%)" x1="147" x2="147" y1="83" y2="84" /><line stroke="rgb(10%,10%,16%)" x1="147" x2="148" y1="84" y2="85" /><line stroke="rgb(10%,10%,16%)" x1="148" x2="148" y1="85" y2="86" /><line stroke="rgb(10%,10%,16%)" x1="148" x2="149" y1="86" y2="87" /><line stroke="rgb(10%,10%,16%)" x1="149" x2="150" y1="87" y2="87" /><line stroke="rgb(10%,10%,16%)" x1="150" x2="151" y1="87" y2="86" /><line stroke="rgb(10%,10%,16%)" x1="151" x2="151" y1="86" y2="80" /><line stroke="rgb(10%,10%,16%)" x1="151" x2="152" y1="80" y2="79" /><line stroke="rgb(10%,10%,16%)" x1="152" x2="157" y1="79" y2="79" /><line stroke="rgb(10%,10%,16%)" x1="157" x2="158" y1="79" y2="80" /><line stroke="rgb(10%,10%,16%)" x1="158" x2="159" y1="80" y2="80" /><line stroke="rgb(10%,10%,16%)" x1="159" x2="160" y1="80" y2="81" /><line stroke="rgb(10%,10%,16%)" x1="160" x2="161" y1="81" y2="81" /><line stroke="rgb(10%,10%,16%)" x1="161" x2="162" y1="81" y2="82" /><line stroke="rgb(10%,10%,16%)" x1="162" x2="163" y1="82" y2="82" /><line stroke="rgb(10%,10%,16%)" x1="163" x2="164" y1="82" y2="83" /><line stroke="rgb(10%,10%,16%)" x1="164" x2="165" y1="83" y2="83" /><line stroke="rgb(10%,10%,16%)" x1="165" x2="167" y1="83" y2="85" /><line stroke="rgb(10%,10%,16%)" x1="167" x2="168" y1="85" y2="85" /><line stroke="rgb(10%,10%,16%)" x1="168" x2="169" y1="85" y2="86" /><line stroke="rgb(10%,10%,16%)" x1="169" x2="170" y1="86" y2="86" /><line stroke="rgb(10%,10%,16%)" x1="170" x2="172" y1="86" y2="88" /><line stroke="rgb(10%,10%,16%)" x1="172" x2="173" y1="88" y2="88" /><line stroke="rgb(10%,10%,16%)" x1="173" x2="174" y1="88" y2="89" /><line stroke="rgb(10%,10%,16%)" x1="174" x2="175" y1="89" y2="89" /><line stroke="rgb(10%,10%,16%)" x1="175" x2="177" y1="89" y2="91" /><line stroke="rgb(10%,10%,16%)" x1="177" x2="178" y1="91" y2="91" /><line stroke="rgb(10%,10%,16%)" x1="178" x2="181" y1="91" y2="94" /><line stroke="rgb(10%,10%,16%)" x1="181" x2="182" y1="94" y2="94" /><line stroke="rgb(10%,10%,16%)" x1="182" x2="185" y1="94" y2="97" /><line stroke="rgb(10%,10%,16%)" x1="185" x2="186" y1="97" y2="97" /><line stroke="rgb(10%,10%,16%)" x1="186" x2="192" y1="97" y2="103" /><line stroke="rgb(10%,10%,16%)" x1="192" x2="193" y1="103" y2="103" /><line stroke="rgb(10%,10%,16%)" x1="193" x2="202" y1="103" y2="112" /><line stroke="rgb(10%,10%,16%)" x1="202" x2="202" y1="112" y2="113" /><line stroke="rgb(10%,10%,16%)" x1="202" x2="206" y1="113" y2="117" /><line stroke="rgb(10%,10%,16%)" x1="206" x2="206" y1="117" y2="118" /><line stroke="rgb(10%,10%,16%)" x1="206" x2="207" y1="118" y2="119" /><line stroke="rgb(10%,10%,16%)" x1="207" x2="207" y1="119" y2="120" /><line stroke="rgb(10%,10%,16%)" x1="207" x2="208" y1="120" y2="121" /><line stroke="rgb(10%,10%,16%)" x1="208" x2="208" y1="121" y2="130" /><line stroke="rgb(10%,10%,16%)" x1="208" x2="207" y1="130" y2="131" /><line stroke="rgb(10%,10%,16%)" x1="207" x2="207" y1="131" y2="134" /><line stroke="rgb(10%,10%,16%)" x1="207" x2="200" y1="134" y2="141" /><line stroke="rgb(10%,10%,16%)" x1="200" x2="200" y1="141" y2="142" /><line stroke="rgb(10%,10%,16%)" x1="200" x2="195" y1="142" y2="147" /><line stroke="rgb(10%,10%,16%)" x1="195" x2="194" y1="147" y2="147" /><line stroke="rgb(10%,10%,16%)" x1="194" x2="187" y1="147" y2="154" /><line stroke="rgb(10%,10%,16%)" x1="187" x2="186" y1="154" y2="154" /><line stroke="rgb(10%,10%,16%)" x1="186" x2="183" y1="154" y2="157" /><line stroke="rgb(10%,10%,16%)" x1="183" x2="182" y1="157" y2="157" /><line stroke="rgb(10%,10%,16%)" x1="182" x2="180" y1="157" y2="159" /><line stroke="rgb(10%,10%,16%)" x1="180" x2="179" y1="159" y2="159" /><line stroke="rgb(10%,10%,16%)" x1="179" x2="177" y1="159" y2="161" /><line stroke="rgb(10%,10%,16%)" x1="177" x2="176" y1="161" y2="161" /><line stroke="rgb(10%,10%,16%)" x1="176" x2="174" y1="161" y2="163" /><line stroke="rgb(10%,10%,16%)" x1="174" x2="173" y1="163" y2="163" /><line stroke="rgb(10%,10%,16%)" x1="173" x2="172" y1="163" y2="164" /><line stroke="rgb(10%,10%,16%)" x1="172" x2="171" y1="164" y2="164" /><line stroke="rgb(10%,10%,16%)" x1="171" x2="170" y1="164" y2="165" /><line stroke="rgb(10%,10%,16%)" x1="170" x2="169" y1="165" y2="165" /><line stroke="rgb(10%,10%,16%)" x1="169" x2="168" y1="165" y2="166" /><line stroke="rgb(10%,10%,16%)" x1="168" x2="167" y1="166" y2="166" /><line stroke="rgb(10%,10%,16%)" x1="167" x2="166" y1="166" y2="167" /><line stroke="rgb(10%,10%,16%)" x1="166" x2="165" y1="167" y2="167" /><line stroke="rgb(10%,10%,16%)" x1="165" x2="164" y1="167" y2="168" /><line stroke="rgb(10%,10%,16%)" x1="164" x2="163" y1="168" y2="168" /><line stroke="rgb(10%,10%,16%)" x1="163" x2="162" y1="168" y2="169" /><line stroke="rgb(10%,10%,16%)" x1="162" x2="161" y1="169" y2="169" /><line stroke="rgb(10%,10%,16%)" x1="161" x2="160" y1="169" y2="170" /><line stroke="rgb(10%,10%,16%)" x1="160" x2="158" y1="170" y2="170" /><line stroke="rgb(10%,10%,16%)" x1="158" x2="157" y1="170" y2="171" /><line stroke="rgb(10%,10%,16%)" x1="157" x2="156" y1="171" y2="171" /><line stroke="rgb(10%,10%,16%)" x1="156" x2="155" y1="171" y2="172" /><line stroke="rgb(10%,10%,16%)" x1="155" x2="153" y1="172" y2="172" /><line stroke="rgb(10%,10%,16%)" x1="153" x2="152" y1="172" y2="173" /><line stroke="rgb(10%,10%,16%)" x1="152" x2="150" y1="173" y2="173" /><line stroke="rgb(10%,10%,16%)" x1="150" x2="149" y1="173" y2="174" /><line stroke="rgb(10%,10%,16%)" x1="149" x2="147" y1="174" y2="174" /><line stroke="rgb(10%,10%,16%)" x1="147" x2="146" y1="174" y2="175" /><line stroke="rgb(10%,10%,16%)" x1="146" x2="143" y1="175" y2="175" /><line stroke="rgb(10%,10%,16%)" x1="143" x2="142" y1="175" y2="176" /><line stroke="rgb(10%,10%,16%)" x1="142" x2="138" y1="176" y2="176" /><line stroke="rgb(10%,10%,16%)" x1="138" x2="137" y1="176" y2="177" /><line stroke="rgb(10%,10%,16%)" x1="137" x2="132" y1="177" y2="177" /><line stroke="rgb(10%,10%,16%)" x1="132" x2="131" y1="177" y2="178" /><line stroke="rgb(10%,10%,16%)" x1="131" x2="122" y1="178" y2="178" /><line stroke="rgb(10%,10%,16%)" x1="122" x2="121" y1="178" y2="179" /><line stroke="rgb(10%,10%,16%)" x1="121" x2="105" y1="179" y2="179" /><line stroke="rgb(10%,10%,16%)" x1="105" x2="104" y1="179" y2="178" /><line stroke="rgb(10%,10%,16%)" x1="104" x2="97" y1="178" y2="178" /><line stroke="rgb(10%,10%,16%)" x1="97" x2="96" y1="178" y2="177" /><line stroke="rgb(10%,10%,16%)" x1="96" x2="90" y1="177" y2="177" /><line stroke="rgb(10%,10%,16%)" x1="90" x2="89" y1="177" y2="176" /><line stroke="rgb(10%,10%,16%)" x1="89" x2="85" y1="176" y2="176" /><line stroke="rgb(10%,10%,16%)" x1="85" x2="84" y1="176" y2="175" /><line stroke="rgb(10%,10%,16%)" x1="84" x2="82" y1="175" y2="175" /><line stroke="rgb(10%,10%,16%)" x1="82" x2="81" y1="175" y2="174" /><line stroke="rgb(10%,10%,16%)" x1="81" x2="78" y1="174" y2="174" /><line stroke="rgb(10%,10%,16%)" x1="78" x2="77" y1="174" y2="173" /><line stroke="rgb(10%,10%,16%)" x1="77" x2="75" y1="173" y2="173" /><line stroke="rgb(10%,10%,16%)" x1="75" x2="74" y1="173" y2="172" /><line stroke="rgb(10%,10%,16%)" x1="74" x2="72" y1="172" y2="172" /><line stroke="rgb(10%,10%,16%)" x1="72" x2="71" y1="172" y2="171" /><line stroke="rgb(10%,10%,16%)" x1="71" x2="70" y1="171" y2="171" /><line stroke="rgb(10%,10%,16%)" x1="70" x2="69" y1="171" y2="170" /><line stroke="rgb(10%,10%,16%)" x1="69" x2="67" y1="170" y2="170" /><line stroke="rgb(10%,10%,16%)" x1="67" x2="66" y1="170" y2="169" /><line stroke="rgb(10%,10%,16%)" x1="66" x2="65" y1="169" y2="169" /><line stroke="rgb(10%,10%,16%)" x1="65" x2="64" y1="169" y2="168" /><line stroke="rgb(10%,10%,16%)" x1="64" x2="63" y1="168" y2="168" /><line stroke="rgb(10%,10%,16%)" x1="63" x2="62" y1="168" y2="167" /><line stroke="rgb(10%,10%,16%)" x1="62" x2="61" y1="167" y2="167" /><line stroke="rgb(10%,10%,16%)" x1="61" x2="60" y1="167" y2="166" /><line stroke="rgb(10%,10%,16%)" x1="60" x2="59" y1="166" y2="166" /><line stroke="rgb(10%,10%,16%)" x1="59" x2="58" y1="166" y2="165" /><line stroke="rgb(10%,10%,16%)" x1="58" x2="57" y1="165" y2="165" /><line stroke="rgb(10%,10%,16%)" x1="57" x2="56" y1="165" y2="164" /><line stroke="rgb(10%,10%,16%)" x1="56" x2="55" y1="164" y2="164" /><line stroke="rgb(10%,10%,16%)" x1="55" x2="54" y1="164" y2="163" /><line stroke="rgb(10%,10%,16%)" x1="54" x2="53" y1="163" y2="163" /><line stroke="rgb(10%,10%,16%)" x1="53" x2="51" y1="163" y2="161" /><line stroke="rgb(10%,10%,16%)" x1="51" x2="50" y1="161" y2="161" /><line stroke="rgb(10%,10%,16%)" x1="50" x2="48" y1="161" y2="159" /><line stroke="rgb(10%,10%,16%)" x1="48" x2="47" y1="159" y2="159" /><line stroke="rgb(10%,10%,16%)" x1="47" x2="44" y1="159" y2="156" /><line stroke="rgb(10%,10%,16%)" x1="44" x2="43" y1="156" y2="156" /><line stroke="rgb(10%,10%,16%)" x1="43" x2="40" y1="156" y2="153" /><line stroke="rgb(10%,10%,16%)" x1="40" x2="39" y1="153" y2="153" /><line stroke="rgb(10%,10%,16%)" x1="39" x2="19" y1="153" y2="133" /><line stroke="rgb(10%,10%,16%)" x1="19" x2="19" y1="133" y2="132" /><line stroke="rgb(10%,10%,16%)" x1="19" x2="17" y1="132" y2="130" /><line stroke="rgb(10%,10%,16%)" x1="17" x2="17" y1="130" y2="129" /><line stroke="rgb(10%,10%,16%)" x1="17" x2="16" y1="129" y2="128" /><line stroke="rgb(10%,10%,16%)" x1="16" x2="16" y1="128" y2="118" /><line stroke="rgb(10%,10%,16%)" x1="16" x2="40" y1="118" y2="94" /><line stroke="rgb(10%,10%,16%)" x1="40" x2="41" y1="94" y2="94" /><line stroke="rgb(10%,10%,16%)" x1="41" x2="44" y1="94" y2="91" /><line stroke="rgb(10%,10%,16%)" x1="44" x2="45" y1="91" y2="91" /><line stroke="rgb(10%,10%,16%)" x1="45" x2="47" y1="91" y2="89" /><line stroke="rgb(10%,10%,16%)" x1="47" x2="48" y1="89" y2="89" /><line stroke="rgb(10%,10%,16%)" x1="48" x2="50" y1="89" y2="87" /><line stroke="rgb(10%,10%,16%)" x1="50" x2="51" y1="87" y2="87" /><line stroke="rgb(10%,10%,16%)" x1="51" x2="52" y1="87" y2="86" /><line stroke="rgb(10%,10%,16%)" x1="52" x2="53" y1="86" y2="86" /><line stroke="rgb(10%,10%,16%)" x1="53" x2="54" y1="86" y2="85" /><line stroke="rgb(10%,10%,16%)" x1="54" x2="55" y1="85" y2="85" /><line stroke="rgb(10%,10%,16%)" x1="55" x2="57" y1="85" y2="83" /><line stroke="rgb(10%,10%,16%)" x1="57" x2="58" y1="83" y2="83" /><line stroke="rgb(10%,10%,16%)" x1="58" x2="59" y1="83" y2="82" /><line stroke="rgb(10%,10%,16%)" x1="59" x2="60" y1="82" y2="82" /><line stroke="rgb(10%,10%,16%)" x1="60" x2="61" y1="82" y2="81" /><line stroke="rgb(10%,10%,16%)" x1="61" x2="62" y1="81" y2="81" /><line stroke="rgb(10%,10%,16%)" x1="62" x2="63" y1="81" y2="80" /><line stroke="rgb(10%,10%,16%)" x1="63" x2="64" y1="80" y2="80" /><line stroke="rgb(10%,10%,16%)" x1="64" x2="65" y1="80" y2="79" /><line stroke="rgb(10%,10%,16%)" x1="65" x2="67" y1="79" y2="79" /><line stroke="rgb(10%,10%,16%)" x1="67" x2="68" y1="79" y2="78" /><line stroke="rgb(10%,10%,16%)" x1="68" x2="69" y1="78" y2="78" /><line stroke="rgb(10%,10%,16%)" x1="69" x2="70" y1="78" y2="77" /><line stroke="rgb(10%,10%,16%)" x1="70" x2="192" y1="77" y2="0" /><line stroke="rgb(10%,10%,16%)" x1="192" x2="193" y1="0" y2="0" /><line stroke="rgb(10%,10%,16%)" x1="193" x2="195" y1="0" y2="2" /><line stroke="rgb(10%,10%,16%)" x1="195" x2="196" y1="2" y2="2" /><line stroke="rgb(10%,10%,16%)" x1="196" x2="197" y1="2" y2="3" /><line stroke="rgb(10%,10%,16%)" x1="197" x2="198" y1="3" y2="3" /><line stroke="rgb(10%,10%,16%)" x1="198" x2="200" y1="3" y2="5" /><line stroke="rgb(10%,10%,16%)" x1="200" x2="201" y1="5" y2="5" /><line stroke="rgb(10%,10%,16%)" x1="201" x2="203" y1="5" y2="7" /><line stroke="rgb(10%,10%,16%)" x1="203" x2="204" y1="7" y2="7" /><line stroke="rgb(10%,10%,16%)" x1="204" x2="206" y1="7" y2="9" /><line stroke="rgb(10%,10%,16%)" x1="206" x2="207" y1="9" y2="9" /><line stroke="rgb(10%,10%,16%)" x1="207" x2="210" y1="9" y2="12" /><line stroke="rgb(10%,10%,16%)" x1="210" x2="211" y1="12" y2="12" /><line stroke="rgb(10%,10%,16%)" x1="211" x2="214" y1="12" y2="15" /><line stroke="rgb(10%,10%,16%)" x1="214" x2="215" y1="15" y2="15" /><line stroke="rgb(10%,10%,16%)" x1="215" x2="219" y1="15" y2="19" /><line stroke="rgb(10%,10%,16%)" x1="219" x2="220" y1="19" y2="19" /><line stroke="rgb(10%,10%,16%)" x1="220" x2="224" y1="19" y2="23" /><line stroke="rgb(10%,10%,16%)" x1="224" x2="224" y1="23" y2="0" /><line stroke="rgb(10%,10%,16%)" x1="224" x2="0" y1="0" y2="0" /><line stroke="rgb(10%,10%,16%)" x1="0" x2="0" y1="0" y2="22" /><line stroke="rgb(10%,10%,16%)" x1="0" x2="1" y1="22" y2="21" /><line stroke="rgb(10%,10%,16%)" x1="1" x2="2" y1="21" y2="21" /><line stroke="rgb(10%,10%,16%)" x1="2" x2="6" y1="21" y2="17" /><line stroke="rgb(10%,10%,16%)" x1="6" x2="7" y1="17" y2="17" /><line stroke="rgb(10%,10%,16%)" x1="7" x2="10" y1="17" y2="14" /><line stroke="rgb(10%,10%,16%)" x1="10" x2="11" y1="14" y2="14" /><line stroke="rgb(10%,10%,16%)" x1="11" x2="14" y1="14" y2="11" /><line stroke="rgb(10%,10%,16%)" x1="14" x2="15" y1="11" y2="11" /><line stroke="rgb(10%,10%,16%)" x1="15" x2="17" y1="11" y2="9" /><line stroke="rgb(10%,10%,16%)" x1="17" x2="18" y1="9" y2="9" /><line stroke="rgb(10%,10%,16%)" x1="18" x2="20" y1="9" y2="7" /><line stroke="rgb(10%,10%,16%)" x1="20" x2="21" y1="7" y2="7" /><line stroke="rgb(10%,10%,16%)" x1="21" x2="23" y1="7" y2="5" /><line stroke="rgb(10%,10%,16%)" x1="23" x2="24" y1="5" y2="5" /><line stroke="rgb(10%,10%,16%)" x1="24" x2="26" y1="5" y2="3" /><line stroke="rgb(10%,10%,16%)" x1="26" x2="27" y1="3" y2="3" /><line stroke="rgb(10%,10%,16%)" x1="27" x2="28" y1="3" y2="2" /><line stroke="rgb(10%,10%,16%)" x1="28" x2="29" y1="2" y2="2" /><line stroke="rgb(10%,10%,16%)" x1="29" x2="31" y1="2" y2="0" /><line stroke="rgb(10%,10%,16%)" x1="31" x2="32" y1="0" y2="0" /><line stroke="rgb(10%,10%,16%)" x1="32" x2="105" y1="0" y2="69" /><line stroke="rgb(10%,10%,16%)" x1="105" x2="71" y1="69" y2="77" /><line stroke="rgb(10%,10%,16%)" x1="71" x2="56" y1="77" y2="84" /><line stroke="rgb(10%,10%,16%)" x1="56" x2="43" y1="84" y2="92" /><line stroke="rgb(10%,10%,16%)" x1="43" x2="16" y1="92" y2="118" /><line stroke="rgb(10%,10%,16%)" x1="16" x2="41" y1="118" y2="155" /><line stroke="rgb(10%,10%,16%)" x1="41" x2="53" y1="155" y2="163" /><line stroke="rgb(10%,10%,16%)" x1="53" x2="70" y1="163" y2="171" /><line stroke="rgb(10%,10%,16%)" x1="70" x2="97" y1="171" y2="178" /><line stroke="rgb(10%,10%,16%)" x1="97" x2="156" y1="178" y2="171" /><line stroke="rgb(10%,10%,16%)" x1="156" x2="171" y1="171" y2="164" /><line stroke="rgb(10%,10%,16%)" x1="171" x2="184" y1="164" y2="156" /><line stroke="rgb(10%,10%,16%)" x1="184" x2="199" y1="156" y2="144" /><line stroke="rgb(10%,10%,16%)" x1="199" x2="207" y1="144" y2="134" /><line stroke="rgb(10%,10%,16%)" x1="207" x2="195" y1="134" y2="104" /><line stroke="rgb(10%,10%,16%)" x1="195" x2="184" y1="104" y2="95" /><line stroke="rgb(10%,10%,16%)" x1="184" x2="172" y1="95" y2="87" /><line stroke="rgb(10%,10%,16%)" x1="172" x2="157" y1="87" y2="79" /><line stroke="rgb(10%,10%,16%)" x1="157" x2="116" y1="79" y2="69" /><line stroke="rgb(10%,10%,16%)" x1="116" x2="71" y1="69" y2="77" /><line stroke="rgb(10%,10%,16%)" x1="71" x2="77" y1="77" y2="85" /><line stroke="rgb(10%,10%,16%)" x1="77" x2="127" y1="85" y2="79" /><line stroke="rgb(10%,10%,16%)" x1="127" x2="148" y1="79" y2="85" /><line stroke="rgb(10%,10%,16%)" x1="148" x2="181" y1="85" y2="94" /><line stroke="rgb(10%,10%,16%)" x1="181" x2="202" y1="94" y2="112" /><line stroke="rgb(10%,10%,16%)" x1="202" x2="195" y1="112" y2="147" /><line stroke="rgb(10%,10%,16%)" x1="195" x2="183" y1="147" y2="157" /><line stroke="rgb(10%,10%,16%)" x1="183" x2="172" y1="157" y2="164" /><line stroke="rgb(10%,10%,16%)" x1="172" x2="157" y1="164" y2="171" /><line stroke="rgb(10%,10%,16%)" x1="157" x2="131" y1="171" y2="178" /><line stroke="rgb(10%,10%,16%)" x1="131" x2="67" y1="178" y2="170" /><line stroke="rgb(10%,10%,16%)" x1="67" x2="54" y1="170" y2="163" /><line stroke="rgb(10%,10%,16%)" x1="54" x2="40" y1="163" y2="153" /><line stroke="rgb(10%,10%,16%)" x1="40" x2="17" y1="153" y2="130" /><line stroke="rgb(10%,10%,16%)" x1="17" x2="44" y1="130" y2="91" /><line stroke="rgb(10%,10%,16%)" x1="44" x2="57" y1="91" y2="83" /><line stroke="rgb(10%,10%,16%)" x1="57" x2="70" y1="83" y2="77" /></g></svg>