<?xml version="1.0" encoding="utf-8" ?>
<svg baseProfile="full" height="3000" version="1.1" width="2250" xmlns="http://www.w3.org/2000/svg" xmlns:ev="http://www.w3.org/2001/xml-events" xmlns:xlink="http://www.w3.org/1999/xlink"><defs /><g fill="none" id="shapes"><line stroke="rgb(10%,10%,16%)" x1="0" x2="151" y1="3000" y2="467" /><line stroke="rgb(10%,10%,16%)" x1="151" x2="424" y1="467" y2="491" /><line stroke="rgb(10%,10%,16%)" x1="424" x2="392" y1="491" y2="518" /><line stroke="rgb(10%,10%,16%)" x1="392" x2="172" y1="518" y2="534" /><line stroke="rgb(10%,10%,16%)" x1="172" x2="154" y1="534" y2="682" /><line stroke="rgb(10%,10%,16%)" x1="154" x2="133" y1="682" y2="625" /><line stroke="rgb(10%,10%,16%)" x1="133" x2="150" y1="625" y2="511" /><line stroke="rgb(10%,10%,16%)" x1="150" x2="151" y1="511" y2="494" /><line stroke="rgb(10%,10%,16%)" x1="151" x2="2061" y1="494" y2="468" /><line stroke="rgb(10%,10%,16%)" x1="2061" x2="2090" y1="468" y2="496" /><line stroke="rgb(10%,10%,16%)" x1="2090" x2="2058" y1="496" y2="661" /><line stroke="rgb(10%,10%,16%)" x1="2058" x2="2040" y1="661" y2="594" /><line stroke="rgb(10%,10%,16%)" x1="2040" x2="2010" y1="594" y2="543" /><line stroke="rgb(10%,10%,16%)" x1="2010" x2="1968" y1="543" y2="526" /><line stroke="rgb(10%,10%,16%)" x1="1968" x2="1907" y1="526" y2="496" /><line stroke="rgb(10%,10%,16%)" x1="1907" x2="1867" y1="496" y2="514" /><line stroke="rgb(10%,10%,16%)" x1="1867" x2="1791" y1="514" y2="496" /><line stroke="rgb(10%,10%,16%)" x1="1791" x2="1709" y1="496" y2="514" /><line stroke="rgb(10%,10%,16%)" x1="1709" x2="1674" y1="514" y2="472" /><line stroke="rgb(10%,10%,16%)" x1="1674" x2="1849" y1="472" y2="488" /><line stroke="rgb(10%,10%,16%)" x1="1849" x2="1972" y1="488" y2="469" /><line stroke="rgb(10%,10%,16%)" x1="1972" x2="1973" y1="469" y2="468" /><line stroke="rgb(10%,10%,16%)" x1="1973" x2="1039" y1="468" y2="470" /><line stroke="rgb(10%,10%,16%)" x1="1039" x2="1078" y1="470" y2="491" /><line stroke="rgb(10%,10%,16%)" x1="1078" x2="1004" y1="491" y2="508" /><line stroke="rgb(10%,10%,16%)" x1="1004" x2="974" y1="508" y2="491" /><line stroke="rgb(10%,10%,16%)" x1="974" x2="977" y1="491" y2="470" /><line stroke="rgb(10%,10%,16%)" x1="977" x2="1412" y1="470" y2="470" /><line stroke="rgb(10%,10%,16%)" x1="1412" x2="1506" y1="470" y2="503" /><line stroke="rgb(10%,10%,16%)" x1="1506" x2="1412" y1="503" y2="495" /><line stroke="rgb(10%,10%,16%)" x1="1412" x2="428" y1="495" y2="470" /><line stroke="rgb(10%,10%,16%)" x1="428" x2="541" y1="470" y2="496" /><line stroke="rgb(10%,10%,16%)" x1="541" x2="505" y1="496" y2="520" /><line stroke="rgb(10%,10%,16%)" x1="505" x2="471" y1="520" y2="504" /><line stroke="rgb(10%,10%,16%)" x1="471" x2="428" y1="504" y2="499" /><line stroke="rgb(10%,10%,16%)" x1="428" x2="1081" y1="499" y2="470" /><line stroke="rgb(10%,10%,16%)" x1="1081" x2="1163" y1="470" y2="490" /><line stroke="rgb(10%,10%,16%)" x1="1163" x2="1081" y1="490" y2="492" /><line stroke="rgb(10%,10%,16%)" x1="1081" x2="1163" y1="492" y2="470" /><line stroke="rgb(10%,10%,16%)" x1="1163" x2="1273" y1="470" y2="497" /><line stroke="rgb(10%,10%,16%)" x1="1273" x2="1257" y1="497" y2="516" /><line stroke="rgb(10%,10%,16%)" x1="1257" x2="1220" y1="516" y2="500" /><line stroke="rgb(10%,10%,16%)" x1="1220" x2="1163" y1="500" y2="490" /><line stroke="rgb(10%,10%,16%)" x1="1163" x2="543" y1="490" y2="471" /><line stroke="rgb(10%,10%,16%)" x1="543" x2="646" y1="471" y2="490" /><line stroke="rgb(10%,10%,16%)" x1="646" x2="686" y1="490" y2="470" /><line stroke="rgb(10%,10%,16%)" x1="686" x2="663" y1="470" y2="522" /><line stroke="rgb(10%,10%,16%)" x1="663" x2="629" y1="522" y2="502" /><line stroke="rgb(10%,10%,16%)" x1="629" x2="543" y1="502" y2="493" /><line stroke="rgb(10%,10%,16%)" x1="543" x2="688" y1="493" y2="471" /><line stroke="rgb(10%,10%,16%)" x1="688" x2="883" y1="471" y2="489" /><line stroke="rgb(10%,10%,16%)" x1="883" x2="851" y1="489" y2="523" /><line stroke="rgb(10%,10%,16%)" x1="851" x2="790" y1="523" y2="503" /><line stroke="rgb(10%,10%,16%)" x1="790" x2="688" y1="503" y2="491" /><line stroke="rgb(10%,10%,16%)" x1="688" x2="1510" y1="491" y2="471" /><line stroke="rgb(10%,10%,16%)" x1="1510" x2="1609" y1="471" y2="488" /><line stroke="rgb(10%,10%,16%)" x1="1609" x2="1591" y1="488" y2="511" /><line stroke="rgb(10%,10%,16%)" x1="1591" x2="1519" y1="511" y2="495" /><line stroke="rgb(10%,10%,16%)" x1="1519" x2="1510" y1="495" y2="494" /><line stroke="rgb(10%,10%,16%)" x1="1510" x2="933" y1="494" y2="492" /><line stroke="rgb(10%,10%,16%)" x1="933" x2="961" y1="492" y2="510" /><line stroke="rgb(10%,10%,16%)" x1="961" x2="941" y1="510" y2="535" /><line stroke="rgb(10%,10%,16%)" x1="941" x2="933" y1="535" y2="495" /><line stroke="rgb(10%,10%,16%)" x1="933" x2="760" y1="495" y2="533" /><line stroke="rgb(10%,10%,16%)" x1="760" x2="790" y1="533" y2="558" /><line stroke="rgb(10%,10%,16%)" x1="790" x2="818" y1="558" y2="574" /><line stroke="rgb(10%,10%,16%)" x1="818" x2="797" y1="574" y2="607" /><line stroke="rgb(10%,10%,16%)" x1="797" x2="764" y1="607" y2="583" /><line stroke="rgb(10%,10%,16%)" x1="764" x2="783" y1="583" y2="567" /><line stroke="rgb(10%,10%,16%)" x1="783" x2="743" y1="567" y2="537" /><line stroke="rgb(10%,10%,16%)" x1="743" x2="760" y1="537" y2="534" /><line stroke="rgb(10%,10%,16%)" x1="760" x2="692" y1="534" y2="533" /><line stroke="rgb(10%,10%,16%)" x1="692" x2="730" y1="533" y2="555" /><line stroke="rgb(10%,10%,16%)" x1="730" x2="688" y1="555" y2="539" /><line stroke="rgb(10%,10%,16%)" x1="688" x2="692" y1="539" y2="534" /><line stroke="rgb(10%,10%,16%)" x1="692" x2="1798" y1="534" y2="543" /><line stroke="rgb(10%,10%,16%)" x1="1798" x2="1820" y1="543" y2="561" /><line stroke="rgb(10%,10%,16%)" x1="1820" x2="1784" y1="561" y2="591" /><line stroke="rgb(10%,10%,16%)" x1="1784" x2="1764" y1="591" y2="562" /><line stroke="rgb(10%,10%,16%)" x1="1764" x2="1795" y1="562" y2="546" /><line stroke="rgb(10%,10%,16%)" x1="1795" x2="1796" y1="546" y2="545" /><line stroke="rgb(10%,10%,16%)" x1="1796" x2="854" y1="545" y2="573" /><line stroke="rgb(10%,10%,16%)" x1="854" x2="854" y1="573" y2="573" /><line stroke="rgb(10%,10%,16%)" x1="854" x2="898" y1="573" y2="602" /><line stroke="rgb(10%,10%,16%)" x1="898" x2="854" y1="602" y2="593" /><line stroke="rgb(10%,10%,16%)" x1="854" x2="575" y1="593" y2="582" /><line stroke="rgb(10%,10%,16%)" x1="575" x2="615" y1="582" y2="607" /><line stroke="rgb(10%,10%,16%)" x1="615" x2="562" y1="607" y2="590" /><line stroke="rgb(10%,10%,16%)" x1="562" x2="575" y1="590" y2="585" /><line stroke="rgb(10%,10%,16%)" x1="575" x2="1503" y1="585" y2="582" /><line stroke="rgb(10%,10%,16%)" x1="1503" x2="1537" y1="582" y2="619" /><line stroke="rgb(10%,10%,16%)" x1="1537" x2="1485" y1="619" y2="588" /><line stroke="rgb(10%,10%,16%)" x1="1485" x2="1501" y1="588" y2="584" /><line stroke="rgb(10%,10%,16%)" x1="1501" x2="1968" y1="584" y2="610" /><line stroke="rgb(10%,10%,16%)" x1="1968" x2="1968" y1="610" y2="610" /><line stroke="rgb(10%,10%,16%)" x1="1968" x2="1991" y1="610" y2="633" /><line stroke="rgb(10%,10%,16%)" x1="1991" x2="1961" y1="633" y2="657" /><line stroke="rgb(10%,10%,16%)" x1="1961" x2="1925" y1="657" y2="641" /><line stroke="rgb(10%,10%,16%)" x1="1925" x2="1904" y1="641" y2="620" /><line stroke="rgb(10%,10%,16%)" x1="1904" x2="1966" y1="620" y2="612" /><line stroke="rgb(10%,10%,16%)" x1="1966" x2="1870" y1="612" y2="617" /><line stroke="rgb(10%,10%,16%)" x1="1870" x2="1896" y1="617" y2="647" /><line stroke="rgb(10%,10%,16%)" x1="1896" x2="1856" y1="647" y2="628" /><line stroke="rgb(10%,10%,16%)" x1="1856" x2="1867" y1="628" y2="617" /><line stroke="rgb(10%,10%,16%)" x1="1867" x2="389" y1="617" y2="621" /><line stroke="rgb(10%,10%,16%)" x1="389" x2="420" y1="621" y2="646" /><line stroke="rgb(10%,10%,16%)" x1="420" x2="351" y1="646" y2="630" /><line stroke="rgb(10%,10%,16%)" x1="351" x2="389" y1="630" y2="624" /><line stroke="rgb(10%,10%,16%)" x1="389" x2="810" y1="624" y2="653" /><line stroke="rgb(10%,10%,16%)" x1="810" x2="810" y1="653" y2="653" /><line stroke="rgb(10%,10%,16%)" x1="810" x2="847" y1="653" y2="684" /><line stroke="rgb(10%,10%,16%)" x1="847" x2="810" y1="684" y2="681" /><line stroke="rgb(10%,10%,16%)" x1="810" x2="993" y1="681" y2="656" /><line stroke="rgb(10%,10%,16%)" x1="993" x2="993" y1="656" y2="656" /><line stroke="rgb(10%,10%,16%)" x1="993" x2="1019" y1="656" y2="689" /><line stroke="rgb(10%,10%,16%)" x1="1019" x2="955" y1="689" y2="670" /><line stroke="rgb(10%,10%,16%)" x1="955" x2="991" y1="670" y2="658" /><line stroke="rgb(10%,10%,16%)" x1="991" x2="1371" y1="658" y2="660" /><line stroke="rgb(10%,10%,16%)" x1="1371" x2="1422" y1="660" y2="685" /><line stroke="rgb(10%,10%,16%)" x1="1422" x2="1394" y1="685" y2="705" /><line stroke="rgb(10%,10%,16%)" x1="1394" x2="1376" y1="705" y2="686" /><line stroke="rgb(10%,10%,16%)" x1="1376" x2="1371" y1="686" y2="685" /><line stroke="rgb(10%,10%,16%)" x1="1371" x2="1223" y1="685" y2="660" /><line stroke="rgb(10%,10%,16%)" x1="1223" x2="1223" y1="660" y2="660" /><line stroke="rgb(10%,10%,16%)" x1="1223" x2="1250" y1="660" y2="695" /><line stroke="rgb(10%,10%,16%)" x1="1250" x2="1198" y1="695" y2="678" /><line stroke="rgb(10%,10%,16%)" x1="1198" x2="1221" y1="678" y2="662" /><line stroke="rgb(10%,10%,16%)" x1="1221" x2="1221" y1="662" y2="662" /><line stroke="rgb(10%,10%,16%)" x1="1221" x2="628" y1="662" y2="662" /><line stroke="rgb(10%,10%,16%)" x1="628" x2="670" y1="662" y2="689" /><line stroke="rgb(10%,10%,16%)" x1="670" x2="650" y1="689" y2="707" /><line stroke="rgb(10%,10%,16%)" x1="650" x2="626" y1="707" y2="680" /><line stroke="rgb(10%,10%,16%)" x1="626" x2="628" y1="680" y2="678" /><line stroke="rgb(10%,10%,16%)" x1="628" x2="2055" y1="678" y2="676" /><line stroke="rgb(10%,10%,16%)" x1="2055" x2="2089" y1="676" y2="752" /><line stroke="rgb(10%,10%,16%)" x1="2089" x2="2037" y1="752" y2="732" /><line stroke="rgb(10%,10%,16%)" x1="2037" x2="1998" y1="732" y2="690" /><line stroke="rgb(10%,10%,16%)" x1="1998" x2="2055" y1="690" y2="680" /><line stroke="rgb(10%,10%,16%)" x1="2055" x2="502" y1="680" y2="679" /><line stroke="rgb(10%,10%,16%)" x1="502" x2="529" y1="679" y2="706" /><line stroke="rgb(10%,10%,16%)" x1="529" x2="508" y1="706" y2="722" /><line stroke="rgb(10%,10%,16%)" x1="508" x2="481" y1="722" y2="694" /><line stroke="rgb(10%,10%,16%)" x1="481" x2="494" y1="694" y2="679" /><line stroke="rgb(10%,10%,16%)" x1="494" x2="417" y1="679" y2="685" /><line stroke="rgb(10%,10%,16%)" x1="417" x2="461" y1="685" y2="716" /><line stroke="rgb(10%,10%,16%)" x1="461" x2="444" y1="716" y2="732" /><line stroke="rgb(10%,10%,16%)" x1="444" x2="358" y1="732" y2="707" /><line stroke="rgb(10%,10%,16%)" x1="358" x2="417" y1="707" y2="695" /><line stroke="rgb(10%,10%,16%)" x1="417" x2="133" y1="695" y2="694" /><line stroke="rgb(10%,10%,16%)" x1="133" x2="165" y1="694" y2="721" /><line stroke="rgb(10%,10%,16%)" x1="165" x2="137" y1="721" y2="884" /><line stroke="rgb(10%,10%,16%)" x1="137" x2="133" y1="884" y2="737" /><line stroke="rgb(10%,10%,16%)" x1="133" x2="1811" y1="737" y2="707" /><line stroke="rgb(10%,10%,16%)" x1="1811" x2="1811" y1="707" y2="707" /><line stroke="rgb(10%,10%,16%)" x1="1811" x2="1841" y1="707" y2="728" /><line stroke="rgb(10%,10%,16%)" x1="1841" x2="1799" y1="728" y2="708" /><line stroke="rgb(10%,10%,16%)" x1="1799" x2="1800" y1="708" y2="707" /><line stroke="rgb(10%,10%,16%)" x1="1800" x2="1631" y1="707" y2="713" /><line stroke="rgb(10%,10%,16%)" x1="1631" x2="1718" y1="713" y2="745" /><line stroke="rgb(10%,10%,16%)" x1="1718" x2="1625" y1="745" y2="718" /><line stroke="rgb(10%,10%,16%)" x1="1625" x2="1629" y1="718" y2="715" /><line stroke="rgb(10%,10%,16%)" x1="1629" x2="1869" y1="715" y2="714" /><line stroke="rgb(10%,10%,16%)" x1="1869" x2="1897" y1="714" y2="735" /><line stroke="rgb(10%,10%,16%)" x1="1897" x2="1849" y1="735" y2="717" /><line stroke="rgb(10%,10%,16%)" x1="1849" x2="1869" y1="717" y2="716" /><line stroke="rgb(10%,10%,16%)" x1="1869" x2="882" y1="716" y2="719" /><line stroke="rgb(10%,10%,16%)" x1="882" x2="926" y1="719" y2="751" /><line stroke="rgb(10%,10%,16%)" x1="926" x2="882" y1="751" y2="747" /><line stroke="rgb(10%,10%,16%)" x1="882" x2="1232" y1="747" y2="735" /><line stroke="rgb(10%,10%,16%)" x1="1232" x2="1255" y1="735" y2="756" /><line stroke="rgb(10%,10%,16%)" x1="1255" x2="1229" y1="756" y2="782" /><line stroke="rgb(10%,10%,16%)" x1="1229" x2="1206" y1="782" y2="761" /><line stroke="rgb(10%,10%,16%)" x1="1206" x2="1225" y1="761" y2="740" /><line stroke="rgb(10%,10%,16%)" x1="1225" x2="1232" y1="740" y2="739" /><line stroke="rgb(10%,10%,16%)" x1="1232" x2="1357" y1="739" y2="781" /><line stroke="rgb(10%,10%,16%)" x1="1357" x2="1357" y1="781" y2="781" /><line stroke="rgb(10%,10%,16%)" x1="1357" x2="1412" y1="781" y2="815" /><line stroke="rgb(10%,10%,16%)" x1="1412" x2="1357" y1="815" y2="816" /><line stroke="rgb(10%,10%,16%)" x1="1357" x2="1226" y1="816" y2="787" /><line stroke="rgb(10%,10%,16%)" x1="1226" x2="1226" y1="787" y2="787" /><line stroke="rgb(10%,10%,16%)" x1="1226" x2="1271" y1="787" y2="815" /><line stroke="rgb(10%,10%,16%)" x1="1271" x2="1226" y1="815" y2="812" /><line stroke="rgb(10%,10%,16%)" x1="1226" x2="637" y1="812" y2="792" /><line stroke="rgb(10%,10%,16%)" x1="637" x2="637" y1="792" y2="792" /><line stroke="rgb(10%,10%,16%)" x1="637" x2="660" y1="792" y2="825" /><line stroke="rgb(10%,10%,16%)" x1="660" x2="608" y1="825" y2="803" /><line stroke="rgb(10%,10%,16%)" x1="608" x2="636" y1="803" y2="792" /><line stroke="rgb(10%,10%,16%)" x1="636" x2="1078" y1="792" y2="793" /><line stroke="rgb(10%,10%,16%)" x1="1078" x2="1129" y1="793" y2="818" /><line stroke="rgb(10%,10%,16%)" x1="1129" x2="1056" y1="818" y2="801" /><line stroke="rgb(10%,10%,16%)" x1="1056" x2="1078" y1="801" y2="795" /><line stroke="rgb(10%,10%,16%)" x1="1078" x2="682" y1="795" y2="794" /><line stroke="rgb(10%,10%,16%)" x1="682" x2="708" y1="794" y2="814" /><line stroke="rgb(10%,10%,16%)" x1="708" x2="740" y1="814" y2="795" /><line stroke="rgb(10%,10%,16%)" x1="740" x2="707" y1="795" y2="855" /><line stroke="rgb(10%,10%,16%)" x1="707" x2="690" y1="855" y2="836" /><line stroke="rgb(10%,10%,16%)" x1="690" x2="682" y1="836" y2="824" /><line stroke="rgb(10%,10%,16%)" x1="682" x2="535" y1="824" y2="799" /><line stroke="rgb(10%,10%,16%)" x1="535" x2="535" y1="799" y2="799" /><line stroke="rgb(10%,10%,16%)" x1="535" x2="574" y1="799" y2="816" /><line stroke="rgb(10%,10%,16%)" x1="574" x2="596" y1="816" y2="839" /><line stroke="rgb(10%,10%,16%)" x1="596" x2="485" y1="839" y2="823" /><line stroke="rgb(10%,10%,16%)" x1="485" x2="501" y1="823" y2="805" /><line stroke="rgb(10%,10%,16%)" x1="501" x2="535" y1="805" y2="800" /><line stroke="rgb(10%,10%,16%)" x1="535" x2="1923" y1="800" y2="800" /><line stroke="rgb(10%,10%,16%)" x1="1923" x2="1948" y1="800" y2="828" /><line stroke="rgb(10%,10%,16%)" x1="1948" x2="1906" y1="828" y2="808" /><line stroke="rgb(10%,10%,16%)" x1="1906" x2="1921" y1="808" y2="802" /><line stroke="rgb(10%,10%,16%)" x1="1921" x2="777" y1="802" y2="803" /><line stroke="rgb(10%,10%,16%)" x1="777" x2="824" y1="803" y2="839" /><line stroke="rgb(10%,10%,16%)" x1="824" x2="777" y1="839" y2="823" /><line stroke="rgb(10%,10%,16%)" x1="777" x2="777" y1="823" y2="823" /><line stroke="rgb(10%,10%,16%)" x1="777" x2="2067" y1="823" y2="813" /><line stroke="rgb(10%,10%,16%)" x1="2067" x2="2089" y1="813" y2="839" /><line stroke="rgb(10%,10%,16%)" x1="2089" x2="2050" y1="839" y2="868" /><line stroke="rgb(10%,10%,16%)" x1="2050" x2="2066" y1="868" y2="824" /><line stroke="rgb(10%,10%,16%)" x1="2066" x2="2067" y1="824" y2="822" /><line stroke="rgb(10%,10%,16%)" x1="2067" x2="1621" y1="822" y2="815" /><line stroke="rgb(10%,10%,16%)" x1="1621" x2="1673" y1="815" y2="843" /><line stroke="rgb(10%,10%,16%)" x1="1673" x2="1616" y1="843" y2="821" /><line stroke="rgb(10%,10%,16%)" x1="1616" x2="1621" y1="821" y2="816" /><line stroke="rgb(10%,10%,16%)" x1="1621" x2="314" y1="816" y2="843" /><line stroke="rgb(10%,10%,16%)" x1="314" x2="314" y1="843" y2="843" /><line stroke="rgb(10%,10%,16%)" x1="314" x2="352" y1="843" y2="865" /><line stroke="rgb(10%,10%,16%)" x1="352" x2="301" y1="865" y2="848" /><line stroke="rgb(10%,10%,16%)" x1="301" x2="313" y1="848" y2="843" /><line stroke="rgb(10%,10%,16%)" x1="313" x2="2050" y1="843" y2="875" /><line stroke="rgb(10%,10%,16%)" x1="2050" x2="2050" y1="875" y2="875" /><line stroke="rgb(10%,10%,16%)" x1="2050" x2="2088" y1="875" y2="921" /><line stroke="rgb(10%,10%,16%)" x1="2088" x2="2067" y1="921" y2="938" /><line stroke="rgb(10%,10%,16%)" x1="2067" x2="2037" y1="938" y2="958" /><line stroke="rgb(10%,10%,16%)" x1="2037" x2="2050" y1="958" y2="907" /><line stroke="rgb(10%,10%,16%)" x1="2050" x2="137" y1="907" y2="892" /><line stroke="rgb(10%,10%,16%)" x1="137" x2="180" y1="892" y2="919" /><line stroke="rgb(10%,10%,16%)" x1="180" x2="139" y1="919" y2="954" /><line stroke="rgb(10%,10%,16%)" x1="139" x2="137" y1="954" y2="951" /><line stroke="rgb(10%,10%,16%)" x1="137" x2="1953" y1="951" y2="907" /><line stroke="rgb(10%,10%,16%)" x1="1953" x2="1953" y1="907" y2="907" /><line stroke="rgb(10%,10%,16%)" x1="1953" x2="1992" y1="907" y2="939" /><line stroke="rgb(10%,10%,16%)" x1="1992" x2="1924" y1="939" y2="910" /><line stroke="rgb(10%,10%,16%)" x1="1924" x2="1952" y1="910" y2="907" /><line stroke="rgb(10%,10%,16%)" x1="1952" x2="499" y1="907" y2="952" /><line stroke="rgb(10%,10%,16%)" x1="499" x2="1720" y1="952" y2="969" /><line stroke="rgb(10%,10%,16%)" x1="1720" x2="1737" y1="969" y2="1022" /><line stroke="rgb(10%,10%,16%)" x1="1737" x2="1754" y1="1022" y2="1071" /><line stroke="rgb(10%,10%,16%)" x1="1754" x2="1771" y1="1071" y2="1123" /><line stroke="rgb(10%,10%,16%)" x1="1771" x2="1788" y1="1123" y2="1173" /><line stroke="rgb(10%,10%,16%)" x1="1788" x2="1805" y1="1173" y2="1225" /><line stroke="rgb(10%,10%,16%)" x1="1805" x2="1822" y1="1225" y2="1276" /><line stroke="rgb(10%,10%,16%)" x1="1822" x2="1839" y1="1276" y2="1326" /><line stroke="rgb(10%,10%,16%)" x1="1839" x2="1856" y1="1326" y2="1379" /><line stroke="rgb(10%,10%,16%)" x1="1856" x2="1874" y1="1379" y2="1434" /><line stroke="rgb(10%,10%,16%)" x1="1874" x2="1891" y1="1434" y2="1487" /><line stroke="rgb(10%,10%,16%)" x1="1891" x2="1908" y1="1487" y2="1540" /><line stroke="rgb(10%,10%,16%)" x1="1908" x2="1925" y1="1540" y2="1593" /><line stroke="rgb(10%,10%,16%)" x1="1925" x2="1942" y1="1593" y2="1645" /><line stroke="rgb(10%,10%,16%)" x1="1942" x2="1959" y1="1645" y2="1695" /><line stroke="rgb(10%,10%,16%)" x1="1959" x2="1976" y1="1695" y2="1744" /><line stroke="rgb(10%,10%,16%)" x1="1976" x2="1941" y1="1744" y2="1810" /><line stroke="rgb(10%,10%,16%)" x1="1941" x2="249" y1="1810" y2="1789" /><line stroke="rgb(10%,10%,16%)" x1="249" x2="266" y1="1789" y2="1727" /><line stroke="rgb(10%,10%,16%)" x1="266" x2="283" y1="1727" y2="1662" /><line stroke="rgb(10%,10%,16%)" x1="283" x2="300" y1="1662" y2="1599" /><line stroke="rgb(10%,10%,16%)" x1="300" x2="317" y1="1599" y2="1536" /><line stroke="rgb(10%,10%,16%)" x1="317" x2="334" y1="1536" y2="1476" /><line stroke="rgb(10%,10%,16%)" x1="334" x2="351" y1="1476" y2="1416" /><line stroke="rgb(10%,10%,16%)" x1="351" x2="368" y1="1416" y2="1357" /><line stroke="rgb(10%,10%,16%)" x1="368" x2="385" y1="1357" y2="1297" /><line stroke="rgb(10%,10%,16%)" x1="385" x2="402" y1="1297" y2="1243" /><line stroke="rgb(10%,10%,16%)" x1="402" x2="419" y1="1243" y2="1193" /><line stroke="rgb(10%,10%,16%)" x1="419" x2="436" y1="1193" y2="1142" /><line stroke="rgb(10%,10%,16%)" x1="436" x2="453" y1="1142" y2="1091" /><line stroke="rgb(10%,10%,16%)" x1="453" x2="470" y1="1091" y2="1038" /><line stroke="rgb(10%,10%,16%)" x1="470" x2="487" y1="1038" y2="985" /><line stroke="rgb(10%,10%,16%)" x1="487" x2="496" y1="985" y2="955" /><line stroke="rgb(10%,10%,16%)" x1="496" x2="138" y1="955" y2="956" /><line stroke="rgb(10%,10%,16%)" x1="138" x2="177" y1="956" y2="985" /><line stroke="rgb(10%,10%,16%)" x1="177" x2="138" y1="985" y2="990" /><line stroke="rgb(10%,10%,16%)" x1="138" x2="2063" y1="990" y2="1004" /><line stroke="rgb(10%,10%,16%)" x1="2063" x2="2087" y1="1004" y2="1068" /><line stroke="rgb(10%,10%,16%)" x1="2087" x2="2064" y1="1068" y2="1104" /><line stroke="rgb(10%,10%,16%)" x1="2064" x2="2041" y1="1104" y2="1081" /><line stroke="rgb(10%,10%,16%)" x1="2041" x2="2057" y1="1081" y2="1050" /><line stroke="rgb(10%,10%,16%)" x1="2057" x2="2063" y1="1050" y2="1019" /><line stroke="rgb(10%,10%,16%)" x1="2063" x2="139" y1="1019" y2="1034" /><line stroke="rgb(10%,10%,16%)" x1="139" x2="161" y1="1034" y2="1054" /><line stroke="rgb(10%,10%,16%)" x1="161" x2="177" y1="1054" y2="1084" /><line stroke="rgb(10%,10%,16%)" x1="177" x2="143" y1="1084" y2="1254" /><line stroke="rgb(10%,10%,16%)" x1="143" x2="139" y1="1254" y2="1080" /><line stroke="rgb(10%,10%,16%)" x1="139" x2="794" y1="1080" y2="1035" /><line stroke="rgb(10%,10%,16%)" x1="794" x2="757" y1="1035" y2="1064" /><line stroke="rgb(10%,10%,16%)" x1="757" x2="618" y1="1064" y2="1043" /><line stroke="rgb(10%,10%,16%)" x1="618" x2="573" y1="1043" y2="1077" /><line stroke="rgb(10%,10%,16%)" x1="573" x2="550" y1="1077" y2="1110" /><line stroke="rgb(10%,10%,16%)" x1="550" x2="526" y1="1110" y2="1168" /><line stroke="rgb(10%,10%,16%)" x1="526" x2="508" y1="1168" y2="1236" /><line stroke="rgb(10%,10%,16%)" x1="508" x2="487" y1="1236" y2="1283" /><line stroke="rgb(10%,10%,16%)" x1="487" x2="505" y1="1283" y2="1342" /><line stroke="rgb(10%,10%,16%)" x1="505" x2="485" y1="1342" y2="1380" /><line stroke="rgb(10%,10%,16%)" x1="485" x2="466" y1="1380" y2="1398" /><line stroke="rgb(10%,10%,16%)" x1="466" x2="445" y1="1398" y2="1433" /><line stroke="rgb(10%,10%,16%)" x1="445" x2="427" y1="1433" y2="1497" /><line stroke="rgb(10%,10%,16%)" x1="427" x2="409" y1="1497" y2="1543" /><line stroke="rgb(10%,10%,16%)" x1="409" x2="385" y1="1543" y2="1621" /><line stroke="rgb(10%,10%,16%)" x1="385" x2="411" y1="1621" y2="1716" /><line stroke="rgb(10%,10%,16%)" x1="411" x2="835" y1="1716" y2="1698" /><line stroke="rgb(10%,10%,16%)" x1="835" x2="852" y1="1698" y2="1714" /><line stroke="rgb(10%,10%,16%)" x1="852" x2="1063" y1="1714" y2="1694" /><line stroke="rgb(10%,10%,16%)" x1="1063" x2="1080" y1="1694" y2="1720" /><line stroke="rgb(10%,10%,16%)" x1="1080" x2="1143" y1="1720" y2="1702" /><line stroke="rgb(10%,10%,16%)" x1="1143" x2="1265" y1="1702" y2="1720" /><line stroke="rgb(10%,10%,16%)" x1="1265" x2="1347" y1="1720" y2="1701" /><line stroke="rgb(10%,10%,16%)" x1="1347" x2="1409" y1="1701" y2="1718" /><line stroke="rgb(10%,10%,16%)" x1="1409" x2="1480" y1="1718" y2="1699" /><line stroke="rgb(10%,10%,16%)" x1="1480" x2="1851" y1="1699" y2="1675" /><line stroke="rgb(10%,10%,16%)" x1="1851" x2="1831" y1="1675" y2="1619" /><line stroke="rgb(10%,10%,16%)" x1="1831" x2="1806" y1="1619" y2="1600" /><line stroke="rgb(10%,10%,16%)" x1="1806" x2="1789" y1="1600" y2="1493" /><line stroke="rgb(10%,10%,16%)" x1="1789" x2="1770" y1="1493" y2="1453" /><line stroke="rgb(10%,10%,16%)" x1="1770" x2="1750" y1="1453" y2="1379" /><line stroke="rgb(10%,10%,16%)" x1="1750" x2="1709" y1="1379" y2="1342" /><line stroke="rgb(10%,10%,16%)" x1="1709" x2="1682" y1="1342" y2="1209" /><line stroke="rgb(10%,10%,16%)" x1="1682" x2="1665" y1="1209" y2="1121" /><line stroke="rgb(10%,10%,16%)" x1="1665" x2="1646" y1="1121" y2="1074" /><line stroke="rgb(10%,10%,16%)" x1="1646" x2="1513" y1="1074" y2="1055" /><line stroke="rgb(10%,10%,16%)" x1="1513" x2="1436" y1="1055" y2="1075" /><line stroke="rgb(10%,10%,16%)" x1="1436" x2="1344" y1="1075" y2="1047" /><line stroke="rgb(10%,10%,16%)" x1="1344" x2="1304" y1="1047" y2="1064" /><line stroke="rgb(10%,10%,16%)" x1="1304" x2="805" y1="1064" y2="1046" /><line stroke="rgb(10%,10%,16%)" x1="805" x2="795" y1="1046" y2="1035" /><line stroke="rgb(10%,10%,16%)" x1="795" x2="2064" y1="1035" y2="1223" /><line stroke="rgb(10%,10%,16%)" x1="2064" x2="2064" y1="1223" y2="1223" /><line stroke="rgb(10%,10%,16%)" x1="2064" x2="2086" y1="1223" y2="1279" /><line stroke="rgb(10%,10%,16%)" x1="2086" x2="2059" y1="1279" y2="1349" /><line stroke="rgb(10%,10%,16%)" x1="2059" x2="2035" y1="1349" y2="1333" /><line stroke="rgb(10%,10%,16%)" x1="2035" x2="2051" y1="1333" y2="1256" /><line stroke="rgb(10%,10%,16%)" x1="2051" x2="2064" y1="1256" y2="1229" /><line stroke="rgb(10%,10%,16%)" x1="2064" x2="1553" y1="1229" y2="1273" /><line stroke="rgb(10%,10%,16%)" x1="1553" x2="1553" y1="1273" y2="1273" /><line stroke="rgb(10%,10%,16%)" x1="1553" x2="1603" y1="1273" y2="1289" /><line stroke="rgb(10%,10%,16%)" x1="1603" x2="1566" y1="1289" y2="1312" /><line stroke="rgb(10%,10%,16%)" x1="1566" x2="1553" y1="1312" y2="1295" /><line stroke="rgb(10%,10%,16%)" x1="1553" x2="1385" y1="1295" y2="1320" /><line stroke="rgb(10%,10%,16%)" x1="1385" x2="1385" y1="1320" y2="1320" /><line stroke="rgb(10%,10%,16%)" x1="1385" x2="1438" y1="1320" y2="1350" /><line stroke="rgb(10%,10%,16%)" x1="1438" x2="1378" y1="1350" y2="1328" /><line stroke="rgb(10%,10%,16%)" x1="1378" x2="1385" y1="1328" y2="1321" /><line stroke="rgb(10%,10%,16%)" x1="1385" x2="2063" y1="1321" y2="1351" /><line stroke="rgb(10%,10%,16%)" x1="2063" x2="2063" y1="1351" y2="1351" /><line stroke="rgb(10%,10%,16%)" x1="2063" x2="2085" y1="1351" y2="1474" /><line stroke="rgb(10%,10%,16%)" x1="2085" x2="2063" y1="1474" y2="1516" /><line stroke="rgb(10%,10%,16%)" x1="2063" x2="2042" y1="1516" y2="1489" /><line stroke="rgb(10%,10%,16%)" x1="2042" x2="2058" y1="1489" y2="1425" /><line stroke="rgb(10%,10%,16%)" x1="2058" x2="2030" y1="1425" y2="1392" /><line stroke="rgb(10%,10%,16%)" x1="2030" x2="2046" y1="1392" y2="1370" /><line stroke="rgb(10%,10%,16%)" x1="2046" x2="2063" y1="1370" y2="1369" /><line stroke="rgb(10%,10%,16%)" x1="2063" x2="1395" y1="1369" y2="1353" /><line stroke="rgb(10%,10%,16%)" x1="1395" x2="1395" y1="1353" y2="1353" /><line stroke="rgb(10%,10%,16%)" x1="1395" x2="1431" y1="1353" y2="1385" /><line stroke="rgb(10%,10%,16%)" x1="1431" x2="1395" y1="1385" y2="1385" /><line stroke="rgb(10%,10%,16%)" x1="1395" x2="144" y1="1385" y2="1417" /><line stroke="rgb(10%,10%,16%)" x1="144" x2="144" y1="1417" y2="1417" /><line stroke="rgb(10%,10%,16%)" x1="144" x2="175" y1="1417" y2="1438" /><line stroke="rgb(10%,10%,16%)" x1="175" x2="211" y1="1438" y2="1460" /><line stroke="rgb(10%,10%,16%)" x1="211" x2="186" y1="1460" y2="1483" /><line stroke="rgb(10%,10%,16%)" x1="186" x2="146" y1="1483" y2="1452" /><line stroke="rgb(10%,10%,16%)" x1="146" x2="144" y1="1452" y2="1442" /><line stroke="rgb(10%,10%,16%)" x1="144" x2="1434" y1="1442" y2="1432" /><line stroke="rgb(10%,10%,16%)" x1="1434" x2="1488" y1="1432" y2="1477" /><line stroke="rgb(10%,10%,16%)" x1="1488" x2="1427" y1="1477" y2="1439" /><line stroke="rgb(10%,10%,16%)" x1="1427" x2="1434" y1="1439" y2="1434" /><line stroke="rgb(10%,10%,16%)" x1="1434" x2="145" y1="1434" y2="1526" /><line stroke="rgb(10%,10%,16%)" x1="145" x2="145" y1="1526" y2="1526" /><line stroke="rgb(10%,10%,16%)" x1="145" x2="171" y1="1526" y2="1547" /><line stroke="rgb(10%,10%,16%)" x1="171" x2="147" y1="1547" y2="1604" /><line stroke="rgb(10%,10%,16%)" x1="147" x2="145" y1="1604" y2="1575" /><line stroke="rgb(10%,10%,16%)" x1="145" x2="2062" y1="1575" y2="1539" /><line stroke="rgb(10%,10%,16%)" x1="2062" x2="2062" y1="1539" y2="1539" /><line stroke="rgb(10%,10%,16%)" x1="2062" x2="2084" y1="1539" y2="2019" /><line stroke="rgb(10%,10%,16%)" x1="2084" x2="2062" y1="2019" y2="2002" /><line stroke="rgb(10%,10%,16%)" x1="2062" x2="2028" y1="2002" y2="1977" /><line stroke="rgb(10%,10%,16%)" x1="2028" x2="2048" y1="1977" y2="1952" /><line stroke="rgb(10%,10%,16%)" x1="2048" x2="2062" y1="1952" y2="1642" /><line stroke="rgb(10%,10%,16%)" x1="2062" x2="147" y1="1642" y2="1664" /><line stroke="rgb(10%,10%,16%)" x1="147" x2="147" y1="1664" y2="1664" /><line stroke="rgb(10%,10%,16%)" x1="147" x2="177" y1="1664" y2="1691" /><line stroke="rgb(10%,10%,16%)" x1="177" x2="148" y1="1691" y2="1736" /><line stroke="rgb(10%,10%,16%)" x1="148" x2="147" y1="1736" y2="1735" /><line stroke="rgb(10%,10%,16%)" x1="147" x2="148" y1="1735" y2="1806" /><line stroke="rgb(10%,10%,16%)" x1="148" x2="179" y1="1806" y2="1840" /><line stroke="rgb(10%,10%,16%)" x1="179" x2="150" y1="1840" y2="1967" /><line stroke="rgb(10%,10%,16%)" x1="150" x2="148" y1="1967" y2="1912" /><line stroke="rgb(10%,10%,16%)" x1="148" x2="1916" y1="1912" y2="1925" /><line stroke="rgb(10%,10%,16%)" x1="1916" x2="1943" y1="1925" y2="1949" /><line stroke="rgb(10%,10%,16%)" x1="1943" x2="1907" y1="1949" y2="1932" /><line stroke="rgb(10%,10%,16%)" x1="1907" x2="1913" y1="1932" y2="1928" /><line stroke="rgb(10%,10%,16%)" x1="1913" x2="149" y1="1928" y2="1972" /><line stroke="rgb(10%,10%,16%)" x1="149" x2="149" y1="1972" y2="1972" /><line stroke="rgb(10%,10%,16%)" x1="149" x2="180" y1="1972" y2="2011" /><line stroke="rgb(10%,10%,16%)" x1="180" x2="151" y1="2011" y2="2153" /><line stroke="rgb(10%,10%,16%)" x1="151" x2="149" y1="2153" y2="2044" /><line stroke="rgb(10%,10%,16%)" x1="149" x2="2062" y1="2044" y2="2021" /><line stroke="rgb(10%,10%,16%)" x1="2062" x2="2062" y1="2021" y2="2021" /><line stroke="rgb(10%,10%,16%)" x1="2062" x2="2084" y1="2021" y2="2160" /><line stroke="rgb(10%,10%,16%)" x1="2084" x2="2064" y1="2160" y2="2357" /><line stroke="rgb(10%,10%,16%)" x1="2064" x2="2047" y1="2357" y2="2380" /><line stroke="rgb(10%,10%,16%)" x1="2047" x2="2025" y1="2380" y2="2356" /><line stroke="rgb(10%,10%,16%)" x1="2025" x2="2049" y1="2356" y2="2274" /><line stroke="rgb(10%,10%,16%)" x1="2049" x2="2028" y1="2274" y2="2148" /><line stroke="rgb(10%,10%,16%)" x1="2028" x2="2044" y1="2148" y2="2105" /><line stroke="rgb(10%,10%,16%)" x1="2044" x2="2062" y1="2105" y2="2037" /><line stroke="rgb(10%,10%,16%)" x1="2062" x2="2062" y1="2037" y2="2037" /><line stroke="rgb(10%,10%,16%)" x1="2062" x2="1413" y1="2037" y2="2071" /><line stroke="rgb(10%,10%,16%)" x1="1413" x2="1413" y1="2071" y2="2071" /><line stroke="rgb(10%,10%,16%)" x1="1413" x2="1440" y1="2071" y2="2109" /><line stroke="rgb(10%,10%,16%)" x1="1440" x2="1410" y1="2109" y2="2074" /><line stroke="rgb(10%,10%,16%)" x1="1410" x2="1413" y1="2074" y2="2072" /><line stroke="rgb(10%,10%,16%)" x1="1413" x2="1859" y1="2072" y2="2078" /><line stroke="rgb(10%,10%,16%)" x1="1859" x2="1887" y1="2078" y2="2094" /><line stroke="rgb(10%,10%,16%)" x1="1887" x2="1865" y1="2094" y2="2129" /><line stroke="rgb(10%,10%,16%)" x1="1865" x2="1859" y1="2129" y2="2104" /><line stroke="rgb(10%,10%,16%)" x1="1859" x2="998" y1="2104" y2="2093" /><line stroke="rgb(10%,10%,16%)" x1="998" x2="1044" y1="2093" y2="2119" /><line stroke="rgb(10%,10%,16%)" x1="1044" x2="980" y1="2119" y2="2102" /><line stroke="rgb(10%,10%,16%)" x1="980" x2="998" y1="2102" y2="2101" /><line stroke="rgb(10%,10%,16%)" x1="998" x2="861" y1="2101" y2="2113" /><line stroke="rgb(10%,10%,16%)" x1="861" x2="913" y1="2113" y2="2145" /><line stroke="rgb(10%,10%,16%)" x1="913" x2="861" y1="2145" y2="2134" /><line stroke="rgb(10%,10%,16%)" x1="861" x2="150" y1="2134" y2="2162" /><line stroke="rgb(10%,10%,16%)" x1="150" x2="150" y1="2162" y2="2162" /><line stroke="rgb(10%,10%,16%)" x1="150" x2="193" y1="2162" y2="2182" /><line stroke="rgb(10%,10%,16%)" x1="193" x2="176" y1="2182" y2="2217" /><line stroke="rgb(10%,10%,16%)" x1="176" x2="196" y1="2217" y2="2262" /><line stroke="rgb(10%,10%,16%)" x1="196" x2="152" y1="2262" y2="2387" /><line stroke="rgb(10%,10%,16%)" x1="152" x2="150" y1="2387" y2="2239" /><line stroke="rgb(10%,10%,16%)" x1="150" x2="1013" y1="2239" y2="2242" /><line stroke="rgb(10%,10%,16%)" x1="1013" x2="1038" y1="2242" y2="2267" /><line stroke="rgb(10%,10%,16%)" x1="1038" x2="998" y1="2267" y2="2251" /><line stroke="rgb(10%,10%,16%)" x1="998" x2="1013" y1="2251" y2="2244" /><line stroke="rgb(10%,10%,16%)" x1="1013" x2="2063" y1="2244" y2="2377" /><line stroke="rgb(10%,10%,16%)" x1="2063" x2="2063" y1="2377" y2="2377" /><line stroke="rgb(10%,10%,16%)" x1="2063" x2="2085" y1="2377" y2="2412" /><line stroke="rgb(10%,10%,16%)" x1="2085" x2="2052" y1="2412" y2="2433" /><line stroke="rgb(10%,10%,16%)" x1="2052" x2="1999" y1="2433" y2="2473" /><line stroke="rgb(10%,10%,16%)" x1="1999" x2="178" y1="2473" y2="2452" /><line stroke="rgb(10%,10%,16%)" x1="178" x2="212" y1="2452" y2="2397" /><line stroke="rgb(10%,10%,16%)" x1="212" x2="2037" y1="2397" y2="2381" /><line stroke="rgb(10%,10%,16%)" x1="2037" x2="2063" y1="2381" y2="2381" /></g></svg>