<?xml version="1.0" encoding="utf-8" ?>
<svg baseProfile="full" height="480" version="1.1" width="400" xmlns="http://www.w3.org/2000/svg" xmlns:ev="http://www.w3.org/2001/xml-events" xmlns:xlink="http://www.w3.org/1999/xlink"><defs /><g fill="none" id="shapes"><line stroke="rgb(10%,10%,16%)" x1="192" x2="187" y1="72" y2="76" /><line stroke="rgb(10%,10%,16%)" x1="187" x2="187" y1="76" y2="81" /><line stroke="rgb(10%,10%,16%)" x1="187" x2="185" y1="81" y2="84" /><line stroke="rgb(10%,10%,16%)" x1="185" x2="166" y1="84" y2="84" /><line stroke="rgb(10%,10%,16%)" x1="166" x2="163" y1="84" y2="81" /><line stroke="rgb(10%,10%,16%)" x1="163" x2="161" y1="81" y2="81" /><line stroke="rgb(10%,10%,16%)" x1="161" x2="156" y1="81" y2="86" /><line stroke="rgb(10%,10%,16%)" x1="156" x2="156" y1="86" y2="93" /><line stroke="rgb(10%,10%,16%)" x1="156" x2="154" y1="93" y2="96" /><line stroke="rgb(10%,10%,16%)" x1="154" x2="130" y1="96" y2="96" /><line stroke="rgb(10%,10%,16%)" x1="130" x2="125" y1="96" y2="100" /><line stroke="rgb(10%,10%,16%)" x1="125" x2="125" y1="100" y2="108" /><line stroke="rgb(10%,10%,16%)" x1="125" x2="120" y1="108" y2="112" /><line stroke="rgb(10%,10%,16%)" x1="120" x2="103" y1="112" y2="112" /><line stroke="rgb(10%,10%,16%)" x1="103" x2="98" y1="112" y2="117" /><line stroke="rgb(10%,10%,16%)" x1="98" x2="98" y1="117" y2="124" /><line stroke="rgb(10%,10%,16%)" x1="98" x2="93" y1="124" y2="129" /><line stroke="rgb(10%,10%,16%)" x1="93" x2="79" y1="129" y2="129" /><line stroke="rgb(10%,10%,16%)" x1="79" x2="74" y1="129" y2="134" /><line stroke="rgb(10%,10%,16%)" x1="74" x2="74" y1="134" y2="144" /><line stroke="rgb(10%,10%,16%)" x1="74" x2="72" y1="144" y2="146" /><line stroke="rgb(10%,10%,16%)" x1="72" x2="57" y1="146" y2="146" /><line stroke="rgb(10%,10%,16%)" x1="57" x2="53" y1="146" y2="151" /><line stroke="rgb(10%,10%,16%)" x1="53" x2="53" y1="151" y2="163" /><line stroke="rgb(10%,10%,16%)" x1="53" x2="50" y1="163" y2="165" /><line stroke="rgb(10%,10%,16%)" x1="50" x2="45" y1="165" y2="165" /><line stroke="rgb(10%,10%,16%)" x1="45" x2="43" y1="165" y2="168" /><line stroke="rgb(10%,10%,16%)" x1="43" x2="38" y1="168" y2="168" /><line stroke="rgb(10%,10%,16%)" x1="38" x2="33" y1="168" y2="172" /><line stroke="rgb(10%,10%,16%)" x1="33" x2="38" y1="172" y2="177" /><line stroke="rgb(10%,10%,16%)" x1="38" x2="40" y1="177" y2="177" /><line stroke="rgb(10%,10%,16%)" x1="40" x2="43" y1="177" y2="180" /><line stroke="rgb(10%,10%,16%)" x1="43" x2="45" y1="180" y2="180" /><line stroke="rgb(10%,10%,16%)" x1="45" x2="55" y1="180" y2="189" /><line stroke="rgb(10%,10%,16%)" x1="55" x2="55" y1="189" y2="204" /><line stroke="rgb(10%,10%,16%)" x1="55" x2="57" y1="204" y2="206" /><line stroke="rgb(10%,10%,16%)" x1="57" x2="72" y1="206" y2="206" /><line stroke="rgb(10%,10%,16%)" x1="72" x2="74" y1="206" y2="208" /><line stroke="rgb(10%,10%,16%)" x1="74" x2="74" y1="208" y2="216" /><line stroke="rgb(10%,10%,16%)" x1="74" x2="77" y1="216" y2="218" /><line stroke="rgb(10%,10%,16%)" x1="77" x2="77" y1="218" y2="225" /><line stroke="rgb(10%,10%,16%)" x1="77" x2="79" y1="225" y2="228" /><line stroke="rgb(10%,10%,16%)" x1="79" x2="93" y1="228" y2="228" /><line stroke="rgb(10%,10%,16%)" x1="93" x2="96" y1="228" y2="230" /><line stroke="rgb(10%,10%,16%)" x1="96" x2="96" y1="230" y2="249" /><line stroke="rgb(10%,10%,16%)" x1="96" x2="98" y1="249" y2="252" /><line stroke="rgb(10%,10%,16%)" x1="98" x2="106" y1="252" y2="252" /><line stroke="rgb(10%,10%,16%)" x1="106" x2="108" y1="252" y2="249" /><line stroke="rgb(10%,10%,16%)" x1="108" x2="118" y1="249" y2="249" /><line stroke="rgb(10%,10%,16%)" x1="118" x2="120" y1="249" y2="252" /><line stroke="rgb(10%,10%,16%)" x1="120" x2="120" y1="252" y2="268" /><line stroke="rgb(10%,10%,16%)" x1="120" x2="122" y1="268" y2="271" /><line stroke="rgb(10%,10%,16%)" x1="122" x2="122" y1="271" y2="273" /><line stroke="rgb(10%,10%,16%)" x1="122" x2="137" y1="273" y2="273" /><line stroke="rgb(10%,10%,16%)" x1="137" x2="142" y1="273" y2="278" /><line stroke="rgb(10%,10%,16%)" x1="142" x2="142" y1="278" y2="288" /><line stroke="rgb(10%,10%,16%)" x1="142" x2="144" y1="288" y2="290" /><line stroke="rgb(10%,10%,16%)" x1="144" x2="144" y1="290" y2="295" /><line stroke="rgb(10%,10%,16%)" x1="144" x2="146" y1="295" y2="297" /><line stroke="rgb(10%,10%,16%)" x1="146" x2="146" y1="297" y2="302" /><line stroke="rgb(10%,10%,16%)" x1="146" x2="149" y1="302" y2="304" /><line stroke="rgb(10%,10%,16%)" x1="149" x2="149" y1="304" y2="307" /><line stroke="rgb(10%,10%,16%)" x1="149" x2="151" y1="307" y2="309" /><line stroke="rgb(10%,10%,16%)" x1="151" x2="151" y1="309" y2="312" /><line stroke="rgb(10%,10%,16%)" x1="151" x2="159" y1="312" y2="312" /><line stroke="rgb(10%,10%,16%)" x1="159" x2="159" y1="312" y2="309" /><line stroke="rgb(10%,10%,16%)" x1="159" x2="161" y1="309" y2="307" /><line stroke="rgb(10%,10%,16%)" x1="161" x2="161" y1="307" y2="300" /><line stroke="rgb(10%,10%,16%)" x1="161" x2="163" y1="300" y2="297" /><line stroke="rgb(10%,10%,16%)" x1="163" x2="163" y1="297" y2="295" /><line stroke="rgb(10%,10%,16%)" x1="163" x2="166" y1="295" y2="292" /><line stroke="rgb(10%,10%,16%)" x1="166" x2="180" y1="292" y2="292" /><line stroke="rgb(10%,10%,16%)" x1="180" x2="180" y1="292" y2="288" /><line stroke="rgb(10%,10%,16%)" x1="180" x2="183" y1="288" y2="285" /><line stroke="rgb(10%,10%,16%)" x1="183" x2="183" y1="285" y2="273" /><line stroke="rgb(10%,10%,16%)" x1="183" x2="185" y1="273" y2="271" /><line stroke="rgb(10%,10%,16%)" x1="185" x2="185" y1="271" y2="268" /><line stroke="rgb(10%,10%,16%)" x1="185" x2="190" y1="268" y2="264" /><line stroke="rgb(10%,10%,16%)" x1="190" x2="200" y1="264" y2="264" /><line stroke="rgb(10%,10%,16%)" x1="200" x2="200" y1="264" y2="254" /><line stroke="rgb(10%,10%,16%)" x1="200" x2="202" y1="254" y2="252" /><line stroke="rgb(10%,10%,16%)" x1="202" x2="202" y1="252" y2="249" /><line stroke="rgb(10%,10%,16%)" x1="202" x2="204" y1="249" y2="247" /><line stroke="rgb(10%,10%,16%)" x1="204" x2="204" y1="247" y2="244" /><line stroke="rgb(10%,10%,16%)" x1="204" x2="207" y1="244" y2="242" /><line stroke="rgb(10%,10%,16%)" x1="207" x2="219" y1="242" y2="242" /><line stroke="rgb(10%,10%,16%)" x1="219" x2="219" y1="242" y2="235" /><line stroke="rgb(10%,10%,16%)" x1="219" x2="221" y1="235" y2="232" /><line stroke="rgb(10%,10%,16%)" x1="221" x2="221" y1="232" y2="230" /><line stroke="rgb(10%,10%,16%)" x1="221" x2="224" y1="230" y2="228" /><line stroke="rgb(10%,10%,16%)" x1="224" x2="224" y1="228" y2="225" /><line stroke="rgb(10%,10%,16%)" x1="224" x2="228" y1="225" y2="220" /><line stroke="rgb(10%,10%,16%)" x1="228" x2="238" y1="220" y2="220" /><line stroke="rgb(10%,10%,16%)" x1="238" x2="238" y1="220" y2="216" /><line stroke="rgb(10%,10%,16%)" x1="238" x2="240" y1="216" y2="213" /><line stroke="rgb(10%,10%,16%)" x1="240" x2="240" y1="213" y2="211" /><line stroke="rgb(10%,10%,16%)" x1="240" x2="243" y1="211" y2="208" /><line stroke="rgb(10%,10%,16%)" x1="243" x2="243" y1="208" y2="206" /><line stroke="rgb(10%,10%,16%)" x1="243" x2="260" y1="206" y2="189" /><line stroke="rgb(10%,10%,16%)" x1="260" x2="277" y1="189" y2="189" /><line stroke="rgb(10%,10%,16%)" x1="277" x2="281" y1="189" y2="194" /><line stroke="rgb(10%,10%,16%)" x1="281" x2="281" y1="194" y2="201" /><line stroke="rgb(10%,10%,16%)" x1="281" x2="284" y1="201" y2="204" /><line stroke="rgb(10%,10%,16%)" x1="284" x2="289" y1="204" y2="204" /><line stroke="rgb(10%,10%,16%)" x1="289" x2="291" y1="204" y2="206" /><line stroke="rgb(10%,10%,16%)" x1="291" x2="291" y1="206" y2="208" /><line stroke="rgb(10%,10%,16%)" x1="291" x2="293" y1="208" y2="211" /><line stroke="rgb(10%,10%,16%)" x1="293" x2="303" y1="211" y2="211" /><line stroke="rgb(10%,10%,16%)" x1="303" x2="308" y1="211" y2="206" /><line stroke="rgb(10%,10%,16%)" x1="308" x2="310" y1="206" y2="206" /><line stroke="rgb(10%,10%,16%)" x1="310" x2="313" y1="206" y2="204" /><line stroke="rgb(10%,10%,16%)" x1="313" x2="313" y1="204" y2="201" /><line stroke="rgb(10%,10%,16%)" x1="313" x2="315" y1="201" y2="199" /><line stroke="rgb(10%,10%,16%)" x1="315" x2="315" y1="199" y2="194" /><line stroke="rgb(10%,10%,16%)" x1="315" x2="318" y1="194" y2="192" /><line stroke="rgb(10%,10%,16%)" x1="318" x2="318" y1="192" y2="182" /><line stroke="rgb(10%,10%,16%)" x1="318" x2="320" y1="182" y2="180" /><line stroke="rgb(10%,10%,16%)" x1="320" x2="325" y1="180" y2="180" /><line stroke="rgb(10%,10%,16%)" x1="325" x2="325" y1="180" y2="165" /><line stroke="rgb(10%,10%,16%)" x1="325" x2="327" y1="165" y2="163" /><line stroke="rgb(10%,10%,16%)" x1="327" x2="334" y1="163" y2="163" /><line stroke="rgb(10%,10%,16%)" x1="334" x2="359" y1="163" y2="139" /><line stroke="rgb(10%,10%,16%)" x1="359" x2="359" y1="139" y2="136" /><line stroke="rgb(10%,10%,16%)" x1="359" x2="361" y1="136" y2="134" /><line stroke="rgb(10%,10%,16%)" x1="361" x2="361" y1="134" y2="132" /><line stroke="rgb(10%,10%,16%)" x1="361" x2="363" y1="132" y2="129" /><line stroke="rgb(10%,10%,16%)" x1="363" x2="363" y1="129" y2="127" /><line stroke="rgb(10%,10%,16%)" x1="363" x2="368" y1="127" y2="122" /><line stroke="rgb(10%,10%,16%)" x1="368" x2="368" y1="122" y2="112" /><line stroke="rgb(10%,10%,16%)" x1="368" x2="366" y1="112" y2="112" /><line stroke="rgb(10%,10%,16%)" x1="366" x2="363" y1="112" y2="110" /><line stroke="rgb(10%,10%,16%)" x1="363" x2="354" y1="110" y2="110" /><line stroke="rgb(10%,10%,16%)" x1="354" x2="351" y1="110" y2="108" /><line stroke="rgb(10%,10%,16%)" x1="351" x2="346" y1="108" y2="108" /><line stroke="rgb(10%,10%,16%)" x1="346" x2="344" y1="108" y2="105" /><line stroke="rgb(10%,10%,16%)" x1="344" x2="339" y1="105" y2="105" /><line stroke="rgb(10%,10%,16%)" x1="339" x2="337" y1="105" y2="103" /><line stroke="rgb(10%,10%,16%)" x1="337" x2="332" y1="103" y2="103" /><line stroke="rgb(10%,10%,16%)" x1="332" x2="330" y1="103" y2="100" /><line stroke="rgb(10%,10%,16%)" x1="330" x2="315" y1="100" y2="100" /><line stroke="rgb(10%,10%,16%)" x1="315" x2="303" y1="100" y2="88" /><line stroke="rgb(10%,10%,16%)" x1="303" x2="301" y1="88" y2="88" /><line stroke="rgb(10%,10%,16%)" x1="301" x2="298" y1="88" y2="86" /><line stroke="rgb(10%,10%,16%)" x1="298" x2="293" y1="86" y2="86" /><line stroke="rgb(10%,10%,16%)" x1="293" x2="291" y1="86" y2="84" /><line stroke="rgb(10%,10%,16%)" x1="291" x2="284" y1="84" y2="84" /><line stroke="rgb(10%,10%,16%)" x1="284" x2="281" y1="84" y2="81" /><line stroke="rgb(10%,10%,16%)" x1="281" x2="274" y1="81" y2="81" /><line stroke="rgb(10%,10%,16%)" x1="274" x2="272" y1="81" y2="79" /><line stroke="rgb(10%,10%,16%)" x1="272" x2="267" y1="79" y2="79" /><line stroke="rgb(10%,10%,16%)" x1="267" x2="265" y1="79" y2="76" /><line stroke="rgb(10%,10%,16%)" x1="265" x2="255" y1="76" y2="76" /><line stroke="rgb(10%,10%,16%)" x1="255" x2="253" y1="76" y2="74" /><line stroke="rgb(10%,10%,16%)" x1="253" x2="238" y1="74" y2="74" /><line stroke="rgb(10%,10%,16%)" x1="238" x2="236" y1="74" y2="76" /><line stroke="rgb(10%,10%,16%)" x1="236" x2="202" y1="76" y2="76" /><line stroke="rgb(10%,10%,16%)" x1="202" x2="200" y1="76" y2="74" /><line stroke="rgb(10%,10%,16%)" x1="200" x2="195" y1="74" y2="74" /><line stroke="rgb(10%,10%,16%)" x1="195" x2="187" y1="74" y2="76" /><line stroke="rgb(10%,10%,16%)" x1="187" x2="190" y1="76" y2="74" /><line stroke="rgb(10%,10%,16%)" x1="190" x2="200" y1="74" y2="74" /><line stroke="rgb(10%,10%,16%)" x1="200" x2="202" y1="74" y2="76" /><line stroke="rgb(10%,10%,16%)" x1="202" x2="236" y1="76" y2="76" /><line stroke="rgb(10%,10%,16%)" x1="236" x2="238" y1="76" y2="74" /><line stroke="rgb(10%,10%,16%)" x1="238" x2="253" y1="74" y2="74" /><line stroke="rgb(10%,10%,16%)" x1="253" x2="255" y1="74" y2="76" /><line stroke="rgb(10%,10%,16%)" x1="255" x2="265" y1="76" y2="76" /><line stroke="rgb(10%,10%,16%)" x1="265" x2="267" y1="76" y2="79" /><line stroke="rgb(10%,10%,16%)" x1="267" x2="272" y1="79" y2="79" /><line stroke="rgb(10%,10%,16%)" x1="272" x2="274" y1="79" y2="81" /><line stroke="rgb(10%,10%,16%)" x1="274" x2="281" y1="81" y2="81" /><line stroke="rgb(10%,10%,16%)" x1="281" x2="284" y1="81" y2="84" /><line stroke="rgb(10%,10%,16%)" x1="284" x2="291" y1="84" y2="84" /><line stroke="rgb(10%,10%,16%)" x1="291" x2="293" y1="84" y2="86" /><line stroke="rgb(10%,10%,16%)" x1="293" x2="298" y1="86" y2="86" /><line stroke="rgb(10%,10%,16%)" x1="298" x2="310" y1="86" y2="98" /><line stroke="rgb(10%,10%,16%)" x1="310" x2="313" y1="98" y2="98" /><line stroke="rgb(10%,10%,16%)" x1="313" x2="315" y1="98" y2="100" /><line stroke="rgb(10%,10%,16%)" x1="315" x2="330" y1="100" y2="100" /><line stroke="rgb(10%,10%,16%)" x1="330" x2="332" y1="100" y2="103" /><line stroke="rgb(10%,10%,16%)" x1="332" x2="337" y1="103" y2="103" /><line stroke="rgb(10%,10%,16%)" x1="337" x2="339" y1="103" y2="105" /><line stroke="rgb(10%,10%,16%)" x1="339" x2="344" y1="105" y2="105" /><line stroke="rgb(10%,10%,16%)" x1="344" x2="346" y1="105" y2="108" /><line stroke="rgb(10%,10%,16%)" x1="346" x2="351" y1="108" y2="108" /><line stroke="rgb(10%,10%,16%)" x1="351" x2="354" y1="108" y2="110" /><line stroke="rgb(10%,10%,16%)" x1="354" x2="363" y1="110" y2="110" /><line stroke="rgb(10%,10%,16%)" x1="363" x2="366" y1="110" y2="112" /><line stroke="rgb(10%,10%,16%)" x1="366" x2="366" y1="112" y2="124" /><line stroke="rgb(10%,10%,16%)" x1="366" x2="363" y1="124" y2="127" /><line stroke="rgb(10%,10%,16%)" x1="363" x2="363" y1="127" y2="129" /><line stroke="rgb(10%,10%,16%)" x1="363" x2="361" y1="129" y2="132" /><line stroke="rgb(10%,10%,16%)" x1="361" x2="361" y1="132" y2="134" /><line stroke="rgb(10%,10%,16%)" x1="361" x2="337" y1="134" y2="158" /><line stroke="rgb(10%,10%,16%)" x1="337" x2="327" y1="158" y2="158" /><line stroke="rgb(10%,10%,16%)" x1="327" x2="325" y1="158" y2="156" /><line stroke="rgb(10%,10%,16%)" x1="325" x2="325" y1="156" y2="151" /><line stroke="rgb(10%,10%,16%)" x1="325" x2="322" y1="151" y2="148" /><line stroke="rgb(10%,10%,16%)" x1="322" x2="320" y1="148" y2="151" /><line stroke="rgb(10%,10%,16%)" x1="320" x2="303" y1="151" y2="151" /><line stroke="rgb(10%,10%,16%)" x1="303" x2="301" y1="151" y2="148" /><line stroke="rgb(10%,10%,16%)" x1="301" x2="301" y1="148" y2="136" /><line stroke="rgb(10%,10%,16%)" x1="301" x2="296" y1="136" y2="136" /><line stroke="rgb(10%,10%,16%)" x1="296" x2="293" y1="136" y2="134" /><line stroke="rgb(10%,10%,16%)" x1="293" x2="291" y1="134" y2="134" /><line stroke="rgb(10%,10%,16%)" x1="291" x2="289" y1="134" y2="132" /><line stroke="rgb(10%,10%,16%)" x1="289" x2="286" y1="132" y2="134" /><line stroke="rgb(10%,10%,16%)" x1="286" x2="284" y1="134" y2="134" /><line stroke="rgb(10%,10%,16%)" x1="284" x2="281" y1="134" y2="136" /><line stroke="rgb(10%,10%,16%)" x1="281" x2="277" y1="136" y2="136" /><line stroke="rgb(10%,10%,16%)" x1="277" x2="274" y1="136" y2="139" /><line stroke="rgb(10%,10%,16%)" x1="274" x2="274" y1="139" y2="141" /><line stroke="rgb(10%,10%,16%)" x1="274" x2="272" y1="141" y2="144" /><line stroke="rgb(10%,10%,16%)" x1="272" x2="269" y1="144" y2="144" /><line stroke="rgb(10%,10%,16%)" x1="269" x2="265" y1="144" y2="148" /><line stroke="rgb(10%,10%,16%)" x1="265" x2="267" y1="148" y2="151" /><line stroke="rgb(10%,10%,16%)" x1="267" x2="267" y1="151" y2="153" /><line stroke="rgb(10%,10%,16%)" x1="267" x2="274" y1="153" y2="153" /><line stroke="rgb(10%,10%,16%)" x1="274" x2="279" y1="153" y2="158" /><line stroke="rgb(10%,10%,16%)" x1="279" x2="284" y1="158" y2="158" /><line stroke="rgb(10%,10%,16%)" x1="284" x2="289" y1="158" y2="163" /><line stroke="rgb(10%,10%,16%)" x1="289" x2="289" y1="163" y2="165" /><line stroke="rgb(10%,10%,16%)" x1="289" x2="291" y1="165" y2="168" /><line stroke="rgb(10%,10%,16%)" x1="291" x2="301" y1="168" y2="168" /><line stroke="rgb(10%,10%,16%)" x1="301" x2="303" y1="168" y2="170" /><line stroke="rgb(10%,10%,16%)" x1="303" x2="306" y1="170" y2="170" /><line stroke="rgb(10%,10%,16%)" x1="306" x2="308" y1="170" y2="172" /><line stroke="rgb(10%,10%,16%)" x1="308" x2="313" y1="172" y2="172" /><line stroke="rgb(10%,10%,16%)" x1="313" x2="315" y1="172" y2="175" /><line stroke="rgb(10%,10%,16%)" x1="315" x2="315" y1="175" y2="199" /><line stroke="rgb(10%,10%,16%)" x1="315" x2="306" y1="199" y2="208" /><line stroke="rgb(10%,10%,16%)" x1="306" x2="293" y1="208" y2="208" /><line stroke="rgb(10%,10%,16%)" x1="293" x2="289" y1="208" y2="204" /><line stroke="rgb(10%,10%,16%)" x1="289" x2="284" y1="204" y2="204" /><line stroke="rgb(10%,10%,16%)" x1="284" x2="281" y1="204" y2="201" /><line stroke="rgb(10%,10%,16%)" x1="281" x2="281" y1="201" y2="192" /><line stroke="rgb(10%,10%,16%)" x1="281" x2="279" y1="192" y2="192" /><line stroke="rgb(10%,10%,16%)" x1="279" x2="277" y1="192" y2="189" /><line stroke="rgb(10%,10%,16%)" x1="277" x2="274" y1="189" y2="189" /><line stroke="rgb(10%,10%,16%)" x1="274" x2="272" y1="189" y2="187" /><line stroke="rgb(10%,10%,16%)" x1="272" x2="265" y1="187" y2="187" /><line stroke="rgb(10%,10%,16%)" x1="265" x2="262" y1="187" y2="189" /><line stroke="rgb(10%,10%,16%)" x1="262" x2="260" y1="189" y2="189" /><line stroke="rgb(10%,10%,16%)" x1="260" x2="257" y1="189" y2="192" /><line stroke="rgb(10%,10%,16%)" x1="257" x2="255" y1="192" y2="192" /><line stroke="rgb(10%,10%,16%)" x1="255" x2="245" y1="192" y2="201" /><line stroke="rgb(10%,10%,16%)" x1="245" x2="245" y1="201" y2="204" /><line stroke="rgb(10%,10%,16%)" x1="245" x2="243" y1="204" y2="206" /><line stroke="rgb(10%,10%,16%)" x1="243" x2="243" y1="206" y2="208" /><line stroke="rgb(10%,10%,16%)" x1="243" x2="240" y1="208" y2="211" /><line stroke="rgb(10%,10%,16%)" x1="240" x2="240" y1="211" y2="213" /><line stroke="rgb(10%,10%,16%)" x1="240" x2="238" y1="213" y2="216" /><line stroke="rgb(10%,10%,16%)" x1="238" x2="238" y1="216" y2="218" /><line stroke="rgb(10%,10%,16%)" x1="238" x2="236" y1="218" y2="220" /><line stroke="rgb(10%,10%,16%)" x1="236" x2="228" y1="220" y2="220" /><line stroke="rgb(10%,10%,16%)" x1="228" x2="224" y1="220" y2="225" /><line stroke="rgb(10%,10%,16%)" x1="224" x2="224" y1="225" y2="228" /><line stroke="rgb(10%,10%,16%)" x1="224" x2="221" y1="228" y2="230" /><line stroke="rgb(10%,10%,16%)" x1="221" x2="221" y1="230" y2="232" /><line stroke="rgb(10%,10%,16%)" x1="221" x2="219" y1="232" y2="235" /><line stroke="rgb(10%,10%,16%)" x1="219" x2="219" y1="235" y2="237" /><line stroke="rgb(10%,10%,16%)" x1="219" x2="216" y1="237" y2="240" /><line stroke="rgb(10%,10%,16%)" x1="216" x2="204" y1="240" y2="240" /><line stroke="rgb(10%,10%,16%)" x1="204" x2="202" y1="240" y2="237" /><line stroke="rgb(10%,10%,16%)" x1="202" x2="202" y1="237" y2="232" /><line stroke="rgb(10%,10%,16%)" x1="202" x2="197" y1="232" y2="232" /><line stroke="rgb(10%,10%,16%)" x1="197" x2="197" y1="232" y2="237" /><line stroke="rgb(10%,10%,16%)" x1="197" x2="200" y1="237" y2="237" /><line stroke="rgb(10%,10%,16%)" x1="200" x2="202" y1="237" y2="240" /><line stroke="rgb(10%,10%,16%)" x1="202" x2="202" y1="240" y2="252" /><line stroke="rgb(10%,10%,16%)" x1="202" x2="200" y1="252" y2="254" /><line stroke="rgb(10%,10%,16%)" x1="200" x2="200" y1="254" y2="261" /><line stroke="rgb(10%,10%,16%)" x1="200" x2="197" y1="261" y2="264" /><line stroke="rgb(10%,10%,16%)" x1="197" x2="187" y1="264" y2="264" /><line stroke="rgb(10%,10%,16%)" x1="187" x2="187" y1="264" y2="266" /><line stroke="rgb(10%,10%,16%)" x1="187" x2="185" y1="266" y2="268" /><line stroke="rgb(10%,10%,16%)" x1="185" x2="185" y1="268" y2="271" /><line stroke="rgb(10%,10%,16%)" x1="185" x2="183" y1="271" y2="273" /><line stroke="rgb(10%,10%,16%)" x1="183" x2="183" y1="273" y2="285" /><line stroke="rgb(10%,10%,16%)" x1="183" x2="178" y1="285" y2="290" /><line stroke="rgb(10%,10%,16%)" x1="178" x2="166" y1="290" y2="290" /><line stroke="rgb(10%,10%,16%)" x1="166" x2="163" y1="290" y2="288" /><line stroke="rgb(10%,10%,16%)" x1="163" x2="163" y1="288" y2="268" /><line stroke="rgb(10%,10%,16%)" x1="163" x2="161" y1="268" y2="266" /><line stroke="rgb(10%,10%,16%)" x1="161" x2="151" y1="266" y2="266" /><line stroke="rgb(10%,10%,16%)" x1="151" x2="149" y1="266" y2="264" /><line stroke="rgb(10%,10%,16%)" x1="149" x2="149" y1="264" y2="252" /><line stroke="rgb(10%,10%,16%)" x1="149" x2="151" y1="252" y2="249" /><line stroke="rgb(10%,10%,16%)" x1="151" x2="161" y1="249" y2="249" /><line stroke="rgb(10%,10%,16%)" x1="161" x2="163" y1="249" y2="252" /><line stroke="rgb(10%,10%,16%)" x1="163" x2="173" y1="252" y2="252" /><line stroke="rgb(10%,10%,16%)" x1="173" x2="175" y1="252" y2="249" /><line stroke="rgb(10%,10%,16%)" x1="175" x2="178" y1="249" y2="249" /><line stroke="rgb(10%,10%,16%)" x1="178" x2="183" y1="249" y2="244" /><line stroke="rgb(10%,10%,16%)" x1="183" x2="183" y1="244" y2="237" /><line stroke="rgb(10%,10%,16%)" x1="183" x2="178" y1="237" y2="237" /><line stroke="rgb(10%,10%,16%)" x1="178" x2="175" y1="237" y2="235" /><line stroke="rgb(10%,10%,16%)" x1="175" x2="175" y1="235" y2="211" /><line stroke="rgb(10%,10%,16%)" x1="175" x2="168" y1="211" y2="211" /><line stroke="rgb(10%,10%,16%)" x1="168" x2="163" y1="211" y2="216" /><line stroke="rgb(10%,10%,16%)" x1="163" x2="163" y1="216" y2="218" /><line stroke="rgb(10%,10%,16%)" x1="163" x2="161" y1="218" y2="220" /><line stroke="rgb(10%,10%,16%)" x1="161" x2="149" y1="220" y2="220" /><line stroke="rgb(10%,10%,16%)" x1="149" x2="146" y1="220" y2="218" /><line stroke="rgb(10%,10%,16%)" x1="146" x2="142" y1="218" y2="218" /><line stroke="rgb(10%,10%,16%)" x1="142" x2="139" y1="218" y2="220" /><line stroke="rgb(10%,10%,16%)" x1="139" x2="137" y1="220" y2="220" /><line stroke="rgb(10%,10%,16%)" x1="137" x2="137" y1="220" y2="223" /><line stroke="rgb(10%,10%,16%)" x1="137" x2="134" y1="223" y2="225" /><line stroke="rgb(10%,10%,16%)" x1="134" x2="134" y1="225" y2="228" /><line stroke="rgb(10%,10%,16%)" x1="134" x2="132" y1="228" y2="230" /><line stroke="rgb(10%,10%,16%)" x1="132" x2="122" y1="230" y2="230" /><line stroke="rgb(10%,10%,16%)" x1="122" x2="120" y1="230" y2="228" /><line stroke="rgb(10%,10%,16%)" x1="120" x2="120" y1="228" y2="225" /><line stroke="rgb(10%,10%,16%)" x1="120" x2="118" y1="225" y2="223" /><line stroke="rgb(10%,10%,16%)" x1="118" x2="118" y1="223" y2="213" /><line stroke="rgb(10%,10%,16%)" x1="118" x2="120" y1="213" y2="211" /><line stroke="rgb(10%,10%,16%)" x1="120" x2="127" y1="211" y2="211" /><line stroke="rgb(10%,10%,16%)" x1="127" x2="127" y1="211" y2="199" /><line stroke="rgb(10%,10%,16%)" x1="127" x2="122" y1="199" y2="199" /><line stroke="rgb(10%,10%,16%)" x1="122" x2="120" y1="199" y2="201" /><line stroke="rgb(10%,10%,16%)" x1="120" x2="118" y1="201" y2="201" /><line stroke="rgb(10%,10%,16%)" x1="118" x2="118" y1="201" y2="204" /><line stroke="rgb(10%,10%,16%)" x1="118" x2="115" y1="204" y2="206" /><line stroke="rgb(10%,10%,16%)" x1="115" x2="115" y1="206" y2="211" /><line stroke="rgb(10%,10%,16%)" x1="115" x2="118" y1="211" y2="213" /><line stroke="rgb(10%,10%,16%)" x1="118" x2="118" y1="213" y2="223" /><line stroke="rgb(10%,10%,16%)" x1="118" x2="115" y1="223" y2="225" /><line stroke="rgb(10%,10%,16%)" x1="115" x2="103" y1="225" y2="225" /><line stroke="rgb(10%,10%,16%)" x1="103" x2="101" y1="225" y2="223" /><line stroke="rgb(10%,10%,16%)" x1="101" x2="101" y1="223" y2="208" /><line stroke="rgb(10%,10%,16%)" x1="101" x2="91" y1="208" y2="208" /><line stroke="rgb(10%,10%,16%)" x1="91" x2="89" y1="208" y2="211" /><line stroke="rgb(10%,10%,16%)" x1="89" x2="79" y1="211" y2="211" /><line stroke="rgb(10%,10%,16%)" x1="79" x2="77" y1="211" y2="208" /><line stroke="rgb(10%,10%,16%)" x1="77" x2="77" y1="208" y2="194" /><line stroke="rgb(10%,10%,16%)" x1="77" x2="74" y1="194" y2="192" /><line stroke="rgb(10%,10%,16%)" x1="74" x2="74" y1="192" y2="182" /><line stroke="rgb(10%,10%,16%)" x1="74" x2="77" y1="182" y2="180" /><line stroke="rgb(10%,10%,16%)" x1="77" x2="81" y1="180" y2="180" /><line stroke="rgb(10%,10%,16%)" x1="81" x2="81" y1="180" y2="175" /><line stroke="rgb(10%,10%,16%)" x1="81" x2="79" y1="175" y2="172" /><line stroke="rgb(10%,10%,16%)" x1="79" x2="74" y1="172" y2="172" /><line stroke="rgb(10%,10%,16%)" x1="74" x2="72" y1="172" y2="175" /><line stroke="rgb(10%,10%,16%)" x1="72" x2="69" y1="175" y2="175" /><line stroke="rgb(10%,10%,16%)" x1="69" x2="69" y1="175" y2="192" /><line stroke="rgb(10%,10%,16%)" x1="69" x2="67" y1="192" y2="194" /><line stroke="rgb(10%,10%,16%)" x1="67" x2="57" y1="194" y2="194" /><line stroke="rgb(10%,10%,16%)" x1="57" x2="55" y1="194" y2="192" /><line stroke="rgb(10%,10%,16%)" x1="55" x2="55" y1="192" y2="187" /><line stroke="rgb(10%,10%,16%)" x1="55" x2="50" y1="187" y2="182" /><line stroke="rgb(10%,10%,16%)" x1="50" x2="48" y1="182" y2="182" /><line stroke="rgb(10%,10%,16%)" x1="48" x2="43" y1="182" y2="177" /><line stroke="rgb(10%,10%,16%)" x1="43" x2="43" y1="177" y2="168" /><line stroke="rgb(10%,10%,16%)" x1="43" x2="45" y1="168" y2="165" /><line stroke="rgb(10%,10%,16%)" x1="45" x2="50" y1="165" y2="165" /><line stroke="rgb(10%,10%,16%)" x1="50" x2="53" y1="165" y2="163" /><line stroke="rgb(10%,10%,16%)" x1="53" x2="55" y1="163" y2="163" /><line stroke="rgb(10%,10%,16%)" x1="55" x2="55" y1="163" y2="148" /><line stroke="rgb(10%,10%,16%)" x1="55" x2="57" y1="148" y2="146" /><line stroke="rgb(10%,10%,16%)" x1="57" x2="72" y1="146" y2="146" /><line stroke="rgb(10%,10%,16%)" x1="72" x2="74" y1="146" y2="144" /><line stroke="rgb(10%,10%,16%)" x1="74" x2="79" y1="144" y2="144" /><line stroke="rgb(10%,10%,16%)" x1="79" x2="79" y1="144" y2="132" /><line stroke="rgb(10%,10%,16%)" x1="79" x2="81" y1="132" y2="129" /><line stroke="rgb(10%,10%,16%)" x1="81" x2="93" y1="129" y2="129" /><line stroke="rgb(10%,10%,16%)" x1="93" x2="96" y1="129" y2="127" /><line stroke="rgb(10%,10%,16%)" x1="96" x2="103" y1="127" y2="127" /><line stroke="rgb(10%,10%,16%)" x1="103" x2="103" y1="127" y2="115" /><line stroke="rgb(10%,10%,16%)" x1="103" x2="106" y1="115" y2="112" /><line stroke="rgb(10%,10%,16%)" x1="106" x2="120" y1="112" y2="112" /><line stroke="rgb(10%,10%,16%)" x1="120" x2="122" y1="112" y2="110" /><line stroke="rgb(10%,10%,16%)" x1="122" x2="127" y1="110" y2="110" /><line stroke="rgb(10%,10%,16%)" x1="127" x2="127" y1="110" y2="108" /><line stroke="rgb(10%,10%,16%)" x1="127" x2="130" y1="108" y2="105" /><line stroke="rgb(10%,10%,16%)" x1="130" x2="130" y1="105" y2="98" /><line stroke="rgb(10%,10%,16%)" x1="130" x2="132" y1="98" y2="96" /><line stroke="rgb(10%,10%,16%)" x1="132" x2="159" y1="96" y2="96" /><line stroke="rgb(10%,10%,16%)" x1="159" x2="159" y1="96" y2="86" /><line stroke="rgb(10%,10%,16%)" x1="159" x2="161" y1="86" y2="84" /><line stroke="rgb(10%,10%,16%)" x1="161" x2="187" y1="84" y2="84" /><line stroke="rgb(10%,10%,16%)" x1="187" x2="392" y1="84" y2="0" /><line stroke="rgb(10%,10%,16%)" x1="392" x2="395" y1="0" y2="2" /><line stroke="rgb(10%,10%,16%)" x1="395" x2="397" y1="2" y2="2" /><line stroke="rgb(10%,10%,16%)" x1="397" x2="397" y1="2" y2="0" /><line stroke="rgb(10%,10%,16%)" x1="397" x2="0" y1="0" y2="0" /><line stroke="rgb(10%,10%,16%)" x1="0" x2="0" y1="0" y2="2" /><line stroke="rgb(10%,10%,16%)" x1="0" x2="2" y1="2" y2="2" /><line stroke="rgb(10%,10%,16%)" x1="2" x2="2" y1="2" y2="0" /><line stroke="rgb(10%,10%,16%)" x1="2" x2="192" y1="0" y2="72" /><line stroke="rgb(10%,10%,16%)" x1="192" x2="130" y1="72" y2="96" /><line stroke="rgb(10%,10%,16%)" x1="130" x2="98" y1="96" y2="117" /><line stroke="rgb(10%,10%,16%)" x1="98" x2="74" y1="117" y2="144" /><line stroke="rgb(10%,10%,16%)" x1="74" x2="50" y1="144" y2="165" /><line stroke="rgb(10%,10%,16%)" x1="50" x2="74" y1="165" y2="208" /><line stroke="rgb(10%,10%,16%)" x1="74" x2="96" y1="208" y2="230" /><line stroke="rgb(10%,10%,16%)" x1="96" x2="120" y1="230" y2="252" /><line stroke="rgb(10%,10%,16%)" x1="120" x2="142" y1="252" y2="278" /><line stroke="rgb(10%,10%,16%)" x1="142" x2="159" y1="278" y2="309" /><line stroke="rgb(10%,10%,16%)" x1="159" x2="204" y1="309" y2="247" /><line stroke="rgb(10%,10%,16%)" x1="204" x2="221" y1="247" y2="230" /><line stroke="rgb(10%,10%,16%)" x1="221" x2="240" y1="230" y2="213" /><line stroke="rgb(10%,10%,16%)" x1="240" x2="277" y1="213" y2="189" /><line stroke="rgb(10%,10%,16%)" x1="277" x2="291" y1="189" y2="208" /><line stroke="rgb(10%,10%,16%)" x1="291" x2="318" y1="208" y2="192" /><line stroke="rgb(10%,10%,16%)" x1="318" x2="359" y1="192" y2="139" /><line stroke="rgb(10%,10%,16%)" x1="359" x2="339" y1="139" y2="105" /><line stroke="rgb(10%,10%,16%)" x1="339" x2="195" y1="105" y2="74" /><line stroke="rgb(10%,10%,16%)" x1="195" x2="187" y1="74" y2="76" /><line stroke="rgb(10%,10%,16%)" x1="187" x2="313" y1="76" y2="98" /><line stroke="rgb(10%,10%,16%)" x1="313" x2="363" y1="98" y2="127" /><line stroke="rgb(10%,10%,16%)" x1="363" x2="325" y1="127" y2="156" /><line stroke="rgb(10%,10%,16%)" x1="325" x2="293" y1="156" y2="134" /><line stroke="rgb(10%,10%,16%)" x1="293" x2="267" y1="134" y2="153" /><line stroke="rgb(10%,10%,16%)" x1="267" x2="303" y1="153" y2="170" /><line stroke="rgb(10%,10%,16%)" x1="303" x2="281" y1="170" y2="201" /><line stroke="rgb(10%,10%,16%)" x1="281" x2="238" y1="201" y2="218" /><line stroke="rgb(10%,10%,16%)" x1="238" x2="219" y1="218" y2="237" /><line stroke="rgb(10%,10%,16%)" x1="219" x2="163" y1="237" y2="288" /><line stroke="rgb(10%,10%,16%)" x1="163" x2="178" y1="288" y2="237" /><line stroke="rgb(10%,10%,16%)" x1="178" x2="161" y1="237" y2="220" /><line stroke="rgb(10%,10%,16%)" x1="161" x2="120" y1="220" y2="201" /><line stroke="rgb(10%,10%,16%)" x1="120" x2="74" y1="201" y2="182" /><line stroke="rgb(10%,10%,16%)" x1="74" x2="50" y1="182" y2="165" /><line stroke="rgb(10%,10%,16%)" x1="50" x2="79" y1="165" y2="144" /><line stroke="rgb(10%,10%,16%)" x1="79" x2="103" y1="144" y2="127" /><line stroke="rgb(10%,10%,16%)" x1="103" x2="127" y1="127" y2="110" /><line stroke="rgb(10%,10%,16%)" x1="127" x2="187" y1="110" y2="84" /></g></svg>