<?xml version="1.0" encoding="utf-8" ?>
<svg baseProfile="full" height="4946" version="1.1" width="3533" xmlns="http://www.w3.org/2000/svg" xmlns:ev="http://www.w3.org/2001/xml-events" xmlns:xlink="http://www.w3.org/1999/xlink"><defs /><g fill="none" id="shapes"><line stroke="rgb(10%,10%,16%)" x1="2761" x2="2761" y1="3140" y2="3239" /><line stroke="rgb(10%,10%,16%)" x1="2761" x2="2736" y1="3239" y2="3264" /><line stroke="rgb(10%,10%,16%)" x1="2736" x2="2736" y1="3264" y2="3313" /><line stroke="rgb(10%,10%,16%)" x1="2736" x2="2711" y1="3313" y2="3338" /><line stroke="rgb(10%,10%,16%)" x1="2711" x2="2711" y1="3338" y2="3388" /><line stroke="rgb(10%,10%,16%)" x1="2711" x2="2736" y1="3388" y2="3412" /><line stroke="rgb(10%,10%,16%)" x1="2736" x2="2736" y1="3412" y2="3437" /><line stroke="rgb(10%,10%,16%)" x1="2736" x2="2811" y1="3437" y2="3511" /><line stroke="rgb(10%,10%,16%)" x1="2811" x2="2811" y1="3511" y2="3536" /><line stroke="rgb(10%,10%,16%)" x1="2811" x2="2861" y1="3536" y2="3585" /><line stroke="rgb(10%,10%,16%)" x1="2861" x2="2861" y1="3585" y2="3635" /><line stroke="rgb(10%,10%,16%)" x1="2861" x2="2886" y1="3635" y2="3660" /><line stroke="rgb(10%,10%,16%)" x1="2886" x2="2886" y1="3660" y2="3758" /><line stroke="rgb(10%,10%,16%)" x1="2886" x2="2910" y1="3758" y2="3783" /><line stroke="rgb(10%,10%,16%)" x1="2910" x2="2910" y1="3783" y2="3808" /><line stroke="rgb(10%,10%,16%)" x1="2910" x2="2935" y1="3808" y2="3833" /><line stroke="rgb(10%,10%,16%)" x1="2935" x2="3010" y1="3833" y2="3833" /><line stroke="rgb(10%,10%,16%)" x1="3010" x2="3035" y1="3833" y2="3857" /><line stroke="rgb(10%,10%,16%)" x1="3035" x2="3184" y1="3857" y2="3857" /><line stroke="rgb(10%,10%,16%)" x1="3184" x2="3209" y1="3857" y2="3882" /><line stroke="rgb(10%,10%,16%)" x1="3209" x2="3209" y1="3882" y2="3907" /><line stroke="rgb(10%,10%,16%)" x1="3209" x2="3234" y1="3907" y2="3932" /><line stroke="rgb(10%,10%,16%)" x1="3234" x2="3259" y1="3932" y2="3932" /><line stroke="rgb(10%,10%,16%)" x1="3259" x2="3284" y1="3932" y2="3956" /><line stroke="rgb(10%,10%,16%)" x1="3284" x2="3309" y1="3956" y2="3956" /><line stroke="rgb(10%,10%,16%)" x1="3309" x2="3333" y1="3956" y2="3981" /><line stroke="rgb(10%,10%,16%)" x1="3333" x2="3333" y1="3981" y2="4105" /><line stroke="rgb(10%,10%,16%)" x1="3333" x2="3358" y1="4105" y2="4129" /><line stroke="rgb(10%,10%,16%)" x1="3358" x2="3358" y1="4129" y2="4154" /><line stroke="rgb(10%,10%,16%)" x1="3358" x2="3383" y1="4154" y2="4179" /><line stroke="rgb(10%,10%,16%)" x1="3383" x2="3383" y1="4179" y2="4204" /><line stroke="rgb(10%,10%,16%)" x1="3383" x2="3433" y1="4204" y2="4253" /><line stroke="rgb(10%,10%,16%)" x1="3433" x2="3508" y1="4253" y2="4253" /><line stroke="rgb(10%,10%,16%)" x1="3508" x2="3458" y1="4253" y2="4253" /><line stroke="rgb(10%,10%,16%)" x1="3458" x2="3358" y1="4253" y2="4154" /><line stroke="rgb(10%,10%,16%)" x1="3358" x2="3358" y1="4154" y2="3981" /><line stroke="rgb(10%,10%,16%)" x1="3358" x2="3333" y1="3981" y2="3981" /><line stroke="rgb(10%,10%,16%)" x1="3333" x2="3309" y1="3981" y2="3956" /><line stroke="rgb(10%,10%,16%)" x1="3309" x2="3284" y1="3956" y2="3956" /><line stroke="rgb(10%,10%,16%)" x1="3284" x2="3209" y1="3956" y2="3882" /><line stroke="rgb(10%,10%,16%)" x1="3209" x2="3209" y1="3882" y2="3709" /><line stroke="rgb(10%,10%,16%)" x1="3209" x2="3184" y1="3709" y2="3709" /><line stroke="rgb(10%,10%,16%)" x1="3184" x2="3134" y1="3709" y2="3660" /><line stroke="rgb(10%,10%,16%)" x1="3134" x2="3134" y1="3660" y2="3585" /><line stroke="rgb(10%,10%,16%)" x1="3134" x2="3060" y1="3585" y2="3585" /><line stroke="rgb(10%,10%,16%)" x1="3060" x2="3060" y1="3585" y2="3660" /><line stroke="rgb(10%,10%,16%)" x1="3060" x2="3110" y1="3660" y2="3709" /><line stroke="rgb(10%,10%,16%)" x1="3110" x2="3110" y1="3709" y2="3808" /><line stroke="rgb(10%,10%,16%)" x1="3110" x2="3085" y1="3808" y2="3833" /><line stroke="rgb(10%,10%,16%)" x1="3085" x2="2935" y1="3833" y2="3833" /><line stroke="rgb(10%,10%,16%)" x1="2935" x2="2910" y1="3833" y2="3808" /><line stroke="rgb(10%,10%,16%)" x1="2910" x2="2910" y1="3808" y2="3783" /><line stroke="rgb(10%,10%,16%)" x1="2910" x2="2886" y1="3783" y2="3758" /><line stroke="rgb(10%,10%,16%)" x1="2886" x2="2886" y1="3758" y2="3660" /><line stroke="rgb(10%,10%,16%)" x1="2886" x2="2861" y1="3660" y2="3635" /><line stroke="rgb(10%,10%,16%)" x1="2861" x2="2861" y1="3635" y2="3561" /><line stroke="rgb(10%,10%,16%)" x1="2861" x2="2786" y1="3561" y2="3486" /><line stroke="rgb(10%,10%,16%)" x1="2786" x2="2786" y1="3486" y2="3462" /><line stroke="rgb(10%,10%,16%)" x1="2786" x2="2736" y1="3462" y2="3412" /><line stroke="rgb(10%,10%,16%)" x1="2736" x2="2736" y1="3412" y2="3264" /><line stroke="rgb(10%,10%,16%)" x1="2736" x2="2761" y1="3264" y2="3239" /><line stroke="rgb(10%,10%,16%)" x1="2761" x2="2761" y1="3239" y2="3214" /><line stroke="rgb(10%,10%,16%)" x1="2761" x2="2786" y1="3214" y2="3190" /><line stroke="rgb(10%,10%,16%)" x1="2786" x2="2886" y1="3190" y2="3190" /><line stroke="rgb(10%,10%,16%)" x1="2886" x2="3010" y1="3190" y2="3313" /><line stroke="rgb(10%,10%,16%)" x1="3010" x2="3010" y1="3313" y2="3338" /><line stroke="rgb(10%,10%,16%)" x1="3010" x2="3060" y1="3338" y2="3338" /><line stroke="rgb(10%,10%,16%)" x1="3060" x2="3085" y1="3338" y2="3363" /><line stroke="rgb(10%,10%,16%)" x1="3085" x2="3134" y1="3363" y2="3363" /><line stroke="rgb(10%,10%,16%)" x1="3134" x2="3159" y1="3363" y2="3388" /><line stroke="rgb(10%,10%,16%)" x1="3159" x2="3184" y1="3388" y2="3388" /><line stroke="rgb(10%,10%,16%)" x1="3184" x2="3209" y1="3388" y2="3412" /><line stroke="rgb(10%,10%,16%)" x1="3209" x2="3234" y1="3412" y2="3412" /><line stroke="rgb(10%,10%,16%)" x1="3234" x2="3259" y1="3412" y2="3437" /><line stroke="rgb(10%,10%,16%)" x1="3259" x2="3284" y1="3437" y2="3437" /><line stroke="rgb(10%,10%,16%)" x1="3284" x2="3309" y1="3437" y2="3462" /><line stroke="rgb(10%,10%,16%)" x1="3309" x2="3309" y1="3462" y2="3635" /><line stroke="rgb(10%,10%,16%)" x1="3309" x2="3358" y1="3635" y2="3635" /><line stroke="rgb(10%,10%,16%)" x1="3358" x2="3383" y1="3635" y2="3660" /><line stroke="rgb(10%,10%,16%)" x1="3383" x2="3408" y1="3660" y2="3660" /><line stroke="rgb(10%,10%,16%)" x1="3408" x2="3458" y1="3660" y2="3709" /><line stroke="rgb(10%,10%,16%)" x1="3458" x2="3508" y1="3709" y2="3709" /><line stroke="rgb(10%,10%,16%)" x1="3508" x2="3458" y1="3709" y2="3709" /><line stroke="rgb(10%,10%,16%)" x1="3458" x2="3408" y1="3709" y2="3660" /><line stroke="rgb(10%,10%,16%)" x1="3408" x2="3383" y1="3660" y2="3660" /><line stroke="rgb(10%,10%,16%)" x1="3383" x2="3358" y1="3660" y2="3635" /><line stroke="rgb(10%,10%,16%)" x1="3358" x2="3358" y1="3635" y2="3486" /><line stroke="rgb(10%,10%,16%)" x1="3358" x2="3333" y1="3486" y2="3462" /><line stroke="rgb(10%,10%,16%)" x1="3333" x2="3309" y1="3462" y2="3462" /><line stroke="rgb(10%,10%,16%)" x1="3309" x2="3284" y1="3462" y2="3437" /><line stroke="rgb(10%,10%,16%)" x1="3284" x2="3259" y1="3437" y2="3437" /><line stroke="rgb(10%,10%,16%)" x1="3259" x2="3234" y1="3437" y2="3412" /><line stroke="rgb(10%,10%,16%)" x1="3234" x2="3209" y1="3412" y2="3412" /><line stroke="rgb(10%,10%,16%)" x1="3209" x2="3184" y1="3412" y2="3388" /><line stroke="rgb(10%,10%,16%)" x1="3184" x2="3159" y1="3388" y2="3388" /><line stroke="rgb(10%,10%,16%)" x1="3159" x2="3134" y1="3388" y2="3363" /><line stroke="rgb(10%,10%,16%)" x1="3134" x2="3085" y1="3363" y2="3363" /><line stroke="rgb(10%,10%,16%)" x1="3085" x2="3060" y1="3363" y2="3338" /><line stroke="rgb(10%,10%,16%)" x1="3060" x2="3035" y1="3338" y2="3338" /><line stroke="rgb(10%,10%,16%)" x1="3035" x2="2985" y1="3338" y2="3289" /><line stroke="rgb(10%,10%,16%)" x1="2985" x2="2985" y1="3289" y2="3264" /><line stroke="rgb(10%,10%,16%)" x1="2985" x2="2935" y1="3264" y2="3214" /><line stroke="rgb(10%,10%,16%)" x1="2935" x2="2910" y1="3214" y2="3214" /><line stroke="rgb(10%,10%,16%)" x1="2910" x2="2861" y1="3214" y2="3165" /><line stroke="rgb(10%,10%,16%)" x1="2861" x2="2836" y1="3165" y2="3165" /><line stroke="rgb(10%,10%,16%)" x1="2836" x2="2811" y1="3165" y2="3140" /><line stroke="rgb(10%,10%,16%)" x1="2811" x2="2637" y1="3140" y2="2992" /><line stroke="rgb(10%,10%,16%)" x1="2637" x2="2612" y1="2992" y2="3017" /><line stroke="rgb(10%,10%,16%)" x1="2612" x2="2587" y1="3017" y2="3017" /><line stroke="rgb(10%,10%,16%)" x1="2587" x2="2587" y1="3017" y2="3041" /><line stroke="rgb(10%,10%,16%)" x1="2587" x2="2562" y1="3041" y2="3066" /><line stroke="rgb(10%,10%,16%)" x1="2562" x2="2587" y1="3066" y2="3091" /><line stroke="rgb(10%,10%,16%)" x1="2587" x2="2587" y1="3091" y2="3115" /><line stroke="rgb(10%,10%,16%)" x1="2587" x2="2711" y1="3115" y2="3115" /><line stroke="rgb(10%,10%,16%)" x1="2711" x2="2711" y1="3115" y2="3041" /><line stroke="rgb(10%,10%,16%)" x1="2711" x2="2687" y1="3041" y2="3017" /><line stroke="rgb(10%,10%,16%)" x1="2687" x2="2662" y1="3017" y2="3017" /><line stroke="rgb(10%,10%,16%)" x1="2662" x2="1890" y1="3017" y2="0" /><line stroke="rgb(10%,10%,16%)" x1="1890" x2="1890" y1="0" y2="49" /><line stroke="rgb(10%,10%,16%)" x1="1890" x2="1866" y1="49" y2="74" /><line stroke="rgb(10%,10%,16%)" x1="1866" x2="1841" y1="74" y2="74" /><line stroke="rgb(10%,10%,16%)" x1="1841" x2="1816" y1="74" y2="98" /><line stroke="rgb(10%,10%,16%)" x1="1816" x2="1791" y1="98" y2="98" /><line stroke="rgb(10%,10%,16%)" x1="1791" x2="1691" y1="98" y2="197" /><line stroke="rgb(10%,10%,16%)" x1="1691" x2="1666" y1="197" y2="197" /><line stroke="rgb(10%,10%,16%)" x1="1666" x2="1642" y1="197" y2="222" /><line stroke="rgb(10%,10%,16%)" x1="1642" x2="1617" y1="222" y2="222" /><line stroke="rgb(10%,10%,16%)" x1="1617" x2="1592" y1="222" y2="247" /><line stroke="rgb(10%,10%,16%)" x1="1592" x2="1567" y1="247" y2="247" /><line stroke="rgb(10%,10%,16%)" x1="1567" x2="1517" y1="247" y2="296" /><line stroke="rgb(10%,10%,16%)" x1="1517" x2="1517" y1="296" y2="321" /><line stroke="rgb(10%,10%,16%)" x1="1517" x2="1492" y1="321" y2="346" /><line stroke="rgb(10%,10%,16%)" x1="1492" x2="1492" y1="346" y2="370" /><line stroke="rgb(10%,10%,16%)" x1="1492" x2="1467" y1="370" y2="395" /><line stroke="rgb(10%,10%,16%)" x1="1467" x2="1467" y1="395" y2="420" /><line stroke="rgb(10%,10%,16%)" x1="1467" x2="1443" y1="420" y2="445" /><line stroke="rgb(10%,10%,16%)" x1="1443" x2="1443" y1="445" y2="469" /><line stroke="rgb(10%,10%,16%)" x1="1443" x2="1293" y1="469" y2="618" /><line stroke="rgb(10%,10%,16%)" x1="1293" x2="1293" y1="618" y2="642" /><line stroke="rgb(10%,10%,16%)" x1="1293" x2="1268" y1="642" y2="667" /><line stroke="rgb(10%,10%,16%)" x1="1268" x2="1268" y1="667" y2="717" /><line stroke="rgb(10%,10%,16%)" x1="1268" x2="1244" y1="717" y2="741" /><line stroke="rgb(10%,10%,16%)" x1="1244" x2="1244" y1="741" y2="791" /><line stroke="rgb(10%,10%,16%)" x1="1244" x2="1219" y1="791" y2="816" /><line stroke="rgb(10%,10%,16%)" x1="1219" x2="1219" y1="816" y2="865" /><line stroke="rgb(10%,10%,16%)" x1="1219" x2="1194" y1="865" y2="890" /><line stroke="rgb(10%,10%,16%)" x1="1194" x2="1194" y1="890" y2="939" /><line stroke="rgb(10%,10%,16%)" x1="1194" x2="1169" y1="939" y2="964" /><line stroke="rgb(10%,10%,16%)" x1="1169" x2="1169" y1="964" y2="989" /><line stroke="rgb(10%,10%,16%)" x1="1169" x2="1144" y1="989" y2="1013" /><line stroke="rgb(10%,10%,16%)" x1="1144" x2="1144" y1="1013" y2="1261" /><line stroke="rgb(10%,10%,16%)" x1="1144" x2="1119" y1="1261" y2="1285" /><line stroke="rgb(10%,10%,16%)" x1="1119" x2="1119" y1="1285" y2="1335" /><line stroke="rgb(10%,10%,16%)" x1="1119" x2="1094" y1="1335" y2="1360" /><line stroke="rgb(10%,10%,16%)" x1="1094" x2="1094" y1="1360" y2="1681" /><line stroke="rgb(10%,10%,16%)" x1="1094" x2="1144" y1="1681" y2="1731" /><line stroke="rgb(10%,10%,16%)" x1="1144" x2="1169" y1="1731" y2="1731" /><line stroke="rgb(10%,10%,16%)" x1="1169" x2="1194" y1="1731" y2="1755" /><line stroke="rgb(10%,10%,16%)" x1="1194" x2="1244" y1="1755" y2="1755" /><line stroke="rgb(10%,10%,16%)" x1="1244" x2="1293" y1="1755" y2="1805" /><line stroke="rgb(10%,10%,16%)" x1="1293" x2="1293" y1="1805" y2="1879" /><line stroke="rgb(10%,10%,16%)" x1="1293" x2="1318" y1="1879" y2="1904" /><line stroke="rgb(10%,10%,16%)" x1="1318" x2="1318" y1="1904" y2="2027" /><line stroke="rgb(10%,10%,16%)" x1="1318" x2="1343" y1="2027" y2="2052" /><line stroke="rgb(10%,10%,16%)" x1="1343" x2="1343" y1="2052" y2="2176" /><line stroke="rgb(10%,10%,16%)" x1="1343" x2="1318" y1="2176" y2="2200" /><line stroke="rgb(10%,10%,16%)" x1="1318" x2="1318" y1="2200" y2="2250" /><line stroke="rgb(10%,10%,16%)" x1="1318" x2="1343" y1="2250" y2="2275" /><line stroke="rgb(10%,10%,16%)" x1="1343" x2="1343" y1="2275" y2="2324" /><line stroke="rgb(10%,10%,16%)" x1="1343" x2="1368" y1="2324" y2="2349" /><line stroke="rgb(10%,10%,16%)" x1="1368" x2="1368" y1="2349" y2="2398" /><line stroke="rgb(10%,10%,16%)" x1="1368" x2="1393" y1="2398" y2="2423" /><line stroke="rgb(10%,10%,16%)" x1="1393" x2="1418" y1="2423" y2="2423" /><line stroke="rgb(10%,10%,16%)" x1="1418" x2="1517" y1="2423" y2="2522" /><line stroke="rgb(10%,10%,16%)" x1="1517" x2="1517" y1="2522" y2="2547" /><line stroke="rgb(10%,10%,16%)" x1="1517" x2="1592" y1="2547" y2="2621" /><line stroke="rgb(10%,10%,16%)" x1="1592" x2="1592" y1="2621" y2="2646" /><line stroke="rgb(10%,10%,16%)" x1="1592" x2="1691" y1="2646" y2="2745" /><line stroke="rgb(10%,10%,16%)" x1="1691" x2="1691" y1="2745" y2="2769" /><line stroke="rgb(10%,10%,16%)" x1="1691" x2="1716" y1="2769" y2="2794" /><line stroke="rgb(10%,10%,16%)" x1="1716" x2="1716" y1="2794" y2="2893" /><line stroke="rgb(10%,10%,16%)" x1="1716" x2="1691" y1="2893" y2="2918" /><line stroke="rgb(10%,10%,16%)" x1="1691" x2="1691" y1="2918" y2="3091" /><line stroke="rgb(10%,10%,16%)" x1="1691" x2="1716" y1="3091" y2="3115" /><line stroke="rgb(10%,10%,16%)" x1="1716" x2="1716" y1="3115" y2="3140" /><line stroke="rgb(10%,10%,16%)" x1="1716" x2="1741" y1="3140" y2="3165" /><line stroke="rgb(10%,10%,16%)" x1="1741" x2="1741" y1="3165" y2="3190" /><line stroke="rgb(10%,10%,16%)" x1="1741" x2="1816" y1="3190" y2="3264" /><line stroke="rgb(10%,10%,16%)" x1="1816" x2="1816" y1="3264" y2="3289" /><line stroke="rgb(10%,10%,16%)" x1="1816" x2="1866" y1="3289" y2="3338" /><line stroke="rgb(10%,10%,16%)" x1="1866" x2="1866" y1="3338" y2="3363" /><line stroke="rgb(10%,10%,16%)" x1="1866" x2="1890" y1="3363" y2="3388" /><line stroke="rgb(10%,10%,16%)" x1="1890" x2="1890" y1="3388" y2="3486" /><line stroke="rgb(10%,10%,16%)" x1="1890" x2="1915" y1="3486" y2="3511" /><line stroke="rgb(10%,10%,16%)" x1="1915" x2="1915" y1="3511" y2="3536" /><line stroke="rgb(10%,10%,16%)" x1="1915" x2="1940" y1="3536" y2="3561" /><line stroke="rgb(10%,10%,16%)" x1="1940" x2="1940" y1="3561" y2="3585" /><line stroke="rgb(10%,10%,16%)" x1="1940" x2="1965" y1="3585" y2="3610" /><line stroke="rgb(10%,10%,16%)" x1="1965" x2="1965" y1="3610" y2="3709" /><line stroke="rgb(10%,10%,16%)" x1="1965" x2="1940" y1="3709" y2="3734" /><line stroke="rgb(10%,10%,16%)" x1="1940" x2="1915" y1="3734" y2="3734" /><line stroke="rgb(10%,10%,16%)" x1="1915" x2="1866" y1="3734" y2="3783" /><line stroke="rgb(10%,10%,16%)" x1="1866" x2="1866" y1="3783" y2="3808" /><line stroke="rgb(10%,10%,16%)" x1="1866" x2="1841" y1="3808" y2="3833" /><line stroke="rgb(10%,10%,16%)" x1="1841" x2="1841" y1="3833" y2="3907" /><line stroke="rgb(10%,10%,16%)" x1="1841" x2="1866" y1="3907" y2="3932" /><line stroke="rgb(10%,10%,16%)" x1="1866" x2="1866" y1="3932" y2="3956" /><line stroke="rgb(10%,10%,16%)" x1="1866" x2="1890" y1="3956" y2="3981" /><line stroke="rgb(10%,10%,16%)" x1="1890" x2="1890" y1="3981" y2="4030" /><line stroke="rgb(10%,10%,16%)" x1="1890" x2="1915" y1="4030" y2="4055" /><line stroke="rgb(10%,10%,16%)" x1="1915" x2="1915" y1="4055" y2="4080" /><line stroke="rgb(10%,10%,16%)" x1="1915" x2="2089" y1="4080" y2="4253" /><line stroke="rgb(10%,10%,16%)" x1="2089" x2="2089" y1="4253" y2="4278" /><line stroke="rgb(10%,10%,16%)" x1="2089" x2="2114" y1="4278" y2="4303" /><line stroke="rgb(10%,10%,16%)" x1="2114" x2="2114" y1="4303" y2="4327" /><line stroke="rgb(10%,10%,16%)" x1="2114" x2="2139" y1="4327" y2="4352" /><line stroke="rgb(10%,10%,16%)" x1="2139" x2="2139" y1="4352" y2="4401" /><line stroke="rgb(10%,10%,16%)" x1="2139" x2="2164" y1="4401" y2="4426" /><line stroke="rgb(10%,10%,16%)" x1="2164" x2="2164" y1="4426" y2="4451" /><line stroke="rgb(10%,10%,16%)" x1="2164" x2="2214" y1="4451" y2="4500" /><line stroke="rgb(10%,10%,16%)" x1="2214" x2="2214" y1="4500" y2="4525" /><line stroke="rgb(10%,10%,16%)" x1="2214" x2="2264" y1="4525" y2="4575" /><line stroke="rgb(10%,10%,16%)" x1="2264" x2="2313" y1="4575" y2="4575" /><line stroke="rgb(10%,10%,16%)" x1="2313" x2="2338" y1="4575" y2="4550" /><line stroke="rgb(10%,10%,16%)" x1="2338" x2="2338" y1="4550" y2="4500" /><line stroke="rgb(10%,10%,16%)" x1="2338" x2="2388" y1="4500" y2="4451" /><line stroke="rgb(10%,10%,16%)" x1="2388" x2="2861" y1="4451" y2="4451" /><line stroke="rgb(10%,10%,16%)" x1="2861" x2="2886" y1="4451" y2="4476" /><line stroke="rgb(10%,10%,16%)" x1="2886" x2="3110" y1="4476" y2="4476" /><line stroke="rgb(10%,10%,16%)" x1="3110" x2="3134" y1="4476" y2="4500" /><line stroke="rgb(10%,10%,16%)" x1="3134" x2="3209" y1="4500" y2="4500" /><line stroke="rgb(10%,10%,16%)" x1="3209" x2="3234" y1="4500" y2="4476" /><line stroke="rgb(10%,10%,16%)" x1="3234" x2="3333" y1="4476" y2="4476" /><line stroke="rgb(10%,10%,16%)" x1="3333" x2="3358" y1="4476" y2="4451" /><line stroke="rgb(10%,10%,16%)" x1="3358" x2="3433" y1="4451" y2="4451" /><line stroke="rgb(10%,10%,16%)" x1="3433" x2="3458" y1="4451" y2="4426" /><line stroke="rgb(10%,10%,16%)" x1="3458" x2="3508" y1="4426" y2="4426" /><line stroke="rgb(10%,10%,16%)" x1="3508" x2="3458" y1="4426" y2="4426" /><line stroke="rgb(10%,10%,16%)" x1="3458" x2="3433" y1="4426" y2="4451" /><line stroke="rgb(10%,10%,16%)" x1="3433" x2="3358" y1="4451" y2="4451" /><line stroke="rgb(10%,10%,16%)" x1="3358" x2="3333" y1="4451" y2="4476" /><line stroke="rgb(10%,10%,16%)" x1="3333" x2="2886" y1="4476" y2="4476" /><line stroke="rgb(10%,10%,16%)" x1="2886" x2="2861" y1="4476" y2="4451" /><line stroke="rgb(10%,10%,16%)" x1="2861" x2="2463" y1="4451" y2="4451" /><line stroke="rgb(10%,10%,16%)" x1="2463" x2="2438" y1="4451" y2="4426" /><line stroke="rgb(10%,10%,16%)" x1="2438" x2="2413" y1="4426" y2="4426" /><line stroke="rgb(10%,10%,16%)" x1="2413" x2="2388" y1="4426" y2="4451" /><line stroke="rgb(10%,10%,16%)" x1="2388" x2="2363" y1="4451" y2="4451" /><line stroke="rgb(10%,10%,16%)" x1="2363" x2="2363" y1="4451" y2="4476" /><line stroke="rgb(10%,10%,16%)" x1="2363" x2="2338" y1="4476" y2="4500" /><line stroke="rgb(10%,10%,16%)" x1="2338" x2="2214" y1="4500" y2="4500" /><line stroke="rgb(10%,10%,16%)" x1="2214" x2="2189" y1="4500" y2="4476" /><line stroke="rgb(10%,10%,16%)" x1="2189" x2="2189" y1="4476" y2="4451" /><line stroke="rgb(10%,10%,16%)" x1="2189" x2="2139" y1="4451" y2="4401" /><line stroke="rgb(10%,10%,16%)" x1="2139" x2="2139" y1="4401" y2="4352" /><line stroke="rgb(10%,10%,16%)" x1="2139" x2="2114" y1="4352" y2="4327" /><line stroke="rgb(10%,10%,16%)" x1="2114" x2="2114" y1="4327" y2="4303" /><line stroke="rgb(10%,10%,16%)" x1="2114" x2="2089" y1="4303" y2="4278" /><line stroke="rgb(10%,10%,16%)" x1="2089" x2="2089" y1="4278" y2="4253" /><line stroke="rgb(10%,10%,16%)" x1="2089" x2="2065" y1="4253" y2="4228" /><line stroke="rgb(10%,10%,16%)" x1="2065" x2="2065" y1="4228" y2="4204" /><line stroke="rgb(10%,10%,16%)" x1="2065" x2="1890" y1="4204" y2="4030" /><line stroke="rgb(10%,10%,16%)" x1="1890" x2="1890" y1="4030" y2="3981" /><line stroke="rgb(10%,10%,16%)" x1="1890" x2="1866" y1="3981" y2="3956" /><line stroke="rgb(10%,10%,16%)" x1="1866" x2="1866" y1="3956" y2="3783" /><line stroke="rgb(10%,10%,16%)" x1="1866" x2="1915" y1="3783" y2="3734" /><line stroke="rgb(10%,10%,16%)" x1="1915" x2="1965" y1="3734" y2="3734" /><line stroke="rgb(10%,10%,16%)" x1="1965" x2="1965" y1="3734" y2="3610" /><line stroke="rgb(10%,10%,16%)" x1="1965" x2="1940" y1="3610" y2="3585" /><line stroke="rgb(10%,10%,16%)" x1="1940" x2="1940" y1="3585" y2="3561" /><line stroke="rgb(10%,10%,16%)" x1="1940" x2="1915" y1="3561" y2="3536" /><line stroke="rgb(10%,10%,16%)" x1="1915" x2="1915" y1="3536" y2="3511" /><line stroke="rgb(10%,10%,16%)" x1="1915" x2="1890" y1="3511" y2="3486" /><line stroke="rgb(10%,10%,16%)" x1="1890" x2="1890" y1="3486" y2="3388" /><line stroke="rgb(10%,10%,16%)" x1="1890" x2="1866" y1="3388" y2="3363" /><line stroke="rgb(10%,10%,16%)" x1="1866" x2="1866" y1="3363" y2="3338" /><line stroke="rgb(10%,10%,16%)" x1="1866" x2="1841" y1="3338" y2="3313" /><line stroke="rgb(10%,10%,16%)" x1="1841" x2="1841" y1="3313" y2="3289" /><line stroke="rgb(10%,10%,16%)" x1="1841" x2="1791" y1="3289" y2="3239" /><line stroke="rgb(10%,10%,16%)" x1="1791" x2="1791" y1="3239" y2="3214" /><line stroke="rgb(10%,10%,16%)" x1="1791" x2="1716" y1="3214" y2="3140" /><line stroke="rgb(10%,10%,16%)" x1="1716" x2="1716" y1="3140" y2="3115" /><line stroke="rgb(10%,10%,16%)" x1="1716" x2="1691" y1="3115" y2="3091" /><line stroke="rgb(10%,10%,16%)" x1="1691" x2="1691" y1="3091" y2="2918" /><line stroke="rgb(10%,10%,16%)" x1="1691" x2="1716" y1="2918" y2="2893" /><line stroke="rgb(10%,10%,16%)" x1="1716" x2="1716" y1="2893" y2="2769" /><line stroke="rgb(10%,10%,16%)" x1="1716" x2="1666" y1="2769" y2="2720" /><line stroke="rgb(10%,10%,16%)" x1="1666" x2="1666" y1="2720" y2="2695" /><line stroke="rgb(10%,10%,16%)" x1="1666" x2="1567" y1="2695" y2="2596" /><line stroke="rgb(10%,10%,16%)" x1="1567" x2="1567" y1="2596" y2="2571" /><line stroke="rgb(10%,10%,16%)" x1="1567" x2="1492" y1="2571" y2="2497" /><line stroke="rgb(10%,10%,16%)" x1="1492" x2="1492" y1="2497" y2="2473" /><line stroke="rgb(10%,10%,16%)" x1="1492" x2="1467" y1="2473" y2="2448" /><line stroke="rgb(10%,10%,16%)" x1="1467" x2="1443" y1="2448" y2="2448" /><line stroke="rgb(10%,10%,16%)" x1="1443" x2="1418" y1="2448" y2="2423" /><line stroke="rgb(10%,10%,16%)" x1="1418" x2="1393" y1="2423" y2="2423" /><line stroke="rgb(10%,10%,16%)" x1="1393" x2="1368" y1="2423" y2="2398" /><line stroke="rgb(10%,10%,16%)" x1="1368" x2="1368" y1="2398" y2="2349" /><line stroke="rgb(10%,10%,16%)" x1="1368" x2="1343" y1="2349" y2="2324" /><line stroke="rgb(10%,10%,16%)" x1="1343" x2="1343" y1="2324" y2="2052" /><line stroke="rgb(10%,10%,16%)" x1="1343" x2="1318" y1="2052" y2="2027" /><line stroke="rgb(10%,10%,16%)" x1="1318" x2="1318" y1="2027" y2="1904" /><line stroke="rgb(10%,10%,16%)" x1="1318" x2="1293" y1="1904" y2="1879" /><line stroke="rgb(10%,10%,16%)" x1="1293" x2="1293" y1="1879" y2="1780" /><line stroke="rgb(10%,10%,16%)" x1="1293" x2="1268" y1="1780" y2="1780" /><line stroke="rgb(10%,10%,16%)" x1="1268" x2="1244" y1="1780" y2="1755" /><line stroke="rgb(10%,10%,16%)" x1="1244" x2="1194" y1="1755" y2="1755" /><line stroke="rgb(10%,10%,16%)" x1="1194" x2="1169" y1="1755" y2="1731" /><line stroke="rgb(10%,10%,16%)" x1="1169" x2="1144" y1="1731" y2="1731" /><line stroke="rgb(10%,10%,16%)" x1="1144" x2="1094" y1="1731" y2="1681" /><line stroke="rgb(10%,10%,16%)" x1="1094" x2="1094" y1="1681" y2="1360" /><line stroke="rgb(10%,10%,16%)" x1="1094" x2="1119" y1="1360" y2="1335" /><line stroke="rgb(10%,10%,16%)" x1="1119" x2="1119" y1="1335" y2="1285" /><line stroke="rgb(10%,10%,16%)" x1="1119" x2="1144" y1="1285" y2="1261" /><line stroke="rgb(10%,10%,16%)" x1="1144" x2="1144" y1="1261" y2="1013" /><line stroke="rgb(10%,10%,16%)" x1="1144" x2="1169" y1="1013" y2="989" /><line stroke="rgb(10%,10%,16%)" x1="1169" x2="1169" y1="989" y2="964" /><line stroke="rgb(10%,10%,16%)" x1="1169" x2="1194" y1="964" y2="939" /><line stroke="rgb(10%,10%,16%)" x1="1194" x2="1194" y1="939" y2="890" /><line stroke="rgb(10%,10%,16%)" x1="1194" x2="1219" y1="890" y2="865" /><line stroke="rgb(10%,10%,16%)" x1="1219" x2="1219" y1="865" y2="816" /><line stroke="rgb(10%,10%,16%)" x1="1219" x2="1244" y1="816" y2="791" /><line stroke="rgb(10%,10%,16%)" x1="1244" x2="1244" y1="791" y2="741" /><line stroke="rgb(10%,10%,16%)" x1="1244" x2="1268" y1="741" y2="717" /><line stroke="rgb(10%,10%,16%)" x1="1268" x2="1268" y1="717" y2="667" /><line stroke="rgb(10%,10%,16%)" x1="1268" x2="1293" y1="667" y2="642" /><line stroke="rgb(10%,10%,16%)" x1="1293" x2="1293" y1="642" y2="618" /><line stroke="rgb(10%,10%,16%)" x1="1293" x2="1343" y1="618" y2="568" /><line stroke="rgb(10%,10%,16%)" x1="1343" x2="1368" y1="568" y2="568" /><line stroke="rgb(10%,10%,16%)" x1="1368" x2="1418" y1="568" y2="519" /><line stroke="rgb(10%,10%,16%)" x1="1418" x2="1418" y1="519" y2="494" /><line stroke="rgb(10%,10%,16%)" x1="1418" x2="1443" y1="494" y2="469" /><line stroke="rgb(10%,10%,16%)" x1="1443" x2="1443" y1="469" y2="445" /><line stroke="rgb(10%,10%,16%)" x1="1443" x2="1467" y1="445" y2="420" /><line stroke="rgb(10%,10%,16%)" x1="1467" x2="1467" y1="420" y2="395" /><line stroke="rgb(10%,10%,16%)" x1="1467" x2="1492" y1="395" y2="370" /><line stroke="rgb(10%,10%,16%)" x1="1492" x2="1492" y1="370" y2="346" /><line stroke="rgb(10%,10%,16%)" x1="1492" x2="1617" y1="346" y2="222" /><line stroke="rgb(10%,10%,16%)" x1="1617" x2="1642" y1="222" y2="222" /><line stroke="rgb(10%,10%,16%)" x1="1642" x2="1666" y1="222" y2="197" /><line stroke="rgb(10%,10%,16%)" x1="1666" x2="1691" y1="197" y2="197" /><line stroke="rgb(10%,10%,16%)" x1="1691" x2="1716" y1="197" y2="173" /><line stroke="rgb(10%,10%,16%)" x1="1716" x2="1741" y1="173" y2="173" /><line stroke="rgb(10%,10%,16%)" x1="1741" x2="1841" y1="173" y2="74" /><line stroke="rgb(10%,10%,16%)" x1="1841" x2="1866" y1="74" y2="74" /><line stroke="rgb(10%,10%,16%)" x1="1866" x2="1890" y1="74" y2="49" /><line stroke="rgb(10%,10%,16%)" x1="1890" x2="1915" y1="49" y2="49" /><line stroke="rgb(10%,10%,16%)" x1="1915" x2="1940" y1="49" y2="24" /><line stroke="rgb(10%,10%,16%)" x1="1940" x2="1990" y1="24" y2="24" /><line stroke="rgb(10%,10%,16%)" x1="1990" x2="1990" y1="24" y2="0" /><line stroke="rgb(10%,10%,16%)" x1="1990" x2="1890" y1="0" y2="0" /><line stroke="rgb(10%,10%,16%)" x1="1890" x2="1666" y1="0" y2="197" /><line stroke="rgb(10%,10%,16%)" x1="1666" x2="1492" y1="197" y2="370" /><line stroke="rgb(10%,10%,16%)" x1="1492" x2="1293" y1="370" y2="642" /><line stroke="rgb(10%,10%,16%)" x1="1293" x2="1144" y1="642" y2="1261" /><line stroke="rgb(10%,10%,16%)" x1="1144" x2="1293" y1="1261" y2="1879" /><line stroke="rgb(10%,10%,16%)" x1="1293" x2="1517" y1="1879" y2="2547" /><line stroke="rgb(10%,10%,16%)" x1="1517" x2="1691" y1="2547" y2="2769" /><line stroke="rgb(10%,10%,16%)" x1="1691" x2="1890" y1="2769" y2="3388" /><line stroke="rgb(10%,10%,16%)" x1="1890" x2="2114" y1="3388" y2="4303" /><line stroke="rgb(10%,10%,16%)" x1="2114" x2="2313" y1="4303" y2="4575" /><line stroke="rgb(10%,10%,16%)" x1="2313" x2="3508" y1="4575" y2="4426" /><line stroke="rgb(10%,10%,16%)" x1="3508" x2="2065" y1="4426" y2="4228" /><line stroke="rgb(10%,10%,16%)" x1="2065" x2="1866" y1="4228" y2="3956" /><line stroke="rgb(10%,10%,16%)" x1="1866" x2="1716" y1="3956" y2="2893" /><line stroke="rgb(10%,10%,16%)" x1="1716" x2="1567" y1="2893" y2="2571" /><line stroke="rgb(10%,10%,16%)" x1="1567" x2="1393" y1="2571" y2="2423" /><line stroke="rgb(10%,10%,16%)" x1="1393" x2="1194" y1="2423" y2="1755" /><line stroke="rgb(10%,10%,16%)" x1="1194" x2="1368" y1="1755" y2="568" /><line stroke="rgb(10%,10%,16%)" x1="1368" x2="1642" y1="568" y2="222" /><line stroke="rgb(10%,10%,16%)" x1="1642" x2="1890" y1="222" y2="49" /><line stroke="rgb(10%,10%,16%)" x1="1890" x2="1990" y1="49" y2="0" /><line stroke="rgb(10%,10%,16%)" x1="1990" x2="2637" y1="0" y2="2992" /><line stroke="rgb(10%,10%,16%)" x1="2637" x2="2637" y1="2992" y2="2992" /><line stroke="rgb(10%,10%,16%)" x1="2637" x2="2662" y1="2992" y2="3017" /><line stroke="rgb(10%,10%,16%)" x1="2662" x2="2761" y1="3017" y2="3140" /><line stroke="rgb(10%,10%,16%)" x1="2761" x2="2910" y1="3140" y2="3808" /><line stroke="rgb(10%,10%,16%)" x1="2910" x2="3284" y1="3808" y2="3956" /><line stroke="rgb(10%,10%,16%)" x1="3284" x2="3433" y1="3956" y2="4253" /><line stroke="rgb(10%,10%,16%)" x1="3433" x2="3284" y1="4253" y2="3956" /><line stroke="rgb(10%,10%,16%)" x1="3284" x2="3134" y1="3956" y2="3660" /><line stroke="rgb(10%,10%,16%)" x1="3134" x2="2910" y1="3660" y2="3808" /><line stroke="rgb(10%,10%,16%)" x1="2910" x2="2761" y1="3808" y2="3239" /><line stroke="rgb(10%,10%,16%)" x1="2761" x2="3159" y1="3239" y2="3388" /><line stroke="rgb(10%,10%,16%)" x1="3159" x2="3309" y1="3388" y2="3635" /><line stroke="rgb(10%,10%,16%)" x1="3309" x2="3159" y1="3635" y2="3388" /><line stroke="rgb(10%,10%,16%)" x1="3159" x2="2910" y1="3388" y2="3214" /><line stroke="rgb(10%,10%,16%)" x1="2910" x2="2811" y1="3214" y2="3140" /></g></svg>