<?xml version="1.0" encoding="utf-8" ?>
<svg baseProfile="full" height="345" version="1.1" width="460" xmlns="http://www.w3.org/2000/svg" xmlns:ev="http://www.w3.org/2001/xml-events" xmlns:xlink="http://www.w3.org/1999/xlink"><defs /><g fill="none" id="shapes"><line stroke="rgb(10%,10%,16%)" x1="0" x2="0" y1="334" y2="343" /><line stroke="rgb(10%,10%,16%)" x1="0" x2="13" y1="343" y2="343" /><line stroke="rgb(10%,10%,16%)" x1="13" x2="12" y1="343" y2="341" /><line stroke="rgb(10%,10%,16%)" x1="12" x2="10" y1="341" y2="341" /><line stroke="rgb(10%,10%,16%)" x1="10" x2="8" y1="341" y2="339" /><line stroke="rgb(10%,10%,16%)" x1="8" x2="6" y1="339" y2="339" /><line stroke="rgb(10%,10%,16%)" x1="6" x2="3" y1="339" y2="336" /><line stroke="rgb(10%,10%,16%)" x1="3" x2="1" y1="336" y2="336" /><line stroke="rgb(10%,10%,16%)" x1="1" x2="183" y1="336" y2="94" /><line stroke="rgb(10%,10%,16%)" x1="183" x2="181" y1="94" y2="96" /><line stroke="rgb(10%,10%,16%)" x1="181" x2="179" y1="96" y2="96" /><line stroke="rgb(10%,10%,16%)" x1="179" x2="178" y1="96" y2="98" /><line stroke="rgb(10%,10%,16%)" x1="178" x2="176" y1="98" y2="98" /><line stroke="rgb(10%,10%,16%)" x1="176" x2="176" y1="98" y2="100" /><line stroke="rgb(10%,10%,16%)" x1="176" x2="174" y1="100" y2="101" /><line stroke="rgb(10%,10%,16%)" x1="174" x2="174" y1="101" y2="103" /><line stroke="rgb(10%,10%,16%)" x1="174" x2="172" y1="103" y2="105" /><line stroke="rgb(10%,10%,16%)" x1="172" x2="171" y1="105" y2="105" /><line stroke="rgb(10%,10%,16%)" x1="171" x2="169" y1="105" y2="106" /><line stroke="rgb(10%,10%,16%)" x1="169" x2="167" y1="106" y2="106" /><line stroke="rgb(10%,10%,16%)" x1="167" x2="167" y1="106" y2="108" /><line stroke="rgb(10%,10%,16%)" x1="167" x2="166" y1="108" y2="110" /><line stroke="rgb(10%,10%,16%)" x1="166" x2="166" y1="110" y2="115" /><line stroke="rgb(10%,10%,16%)" x1="166" x2="164" y1="115" y2="117" /><line stroke="rgb(10%,10%,16%)" x1="164" x2="160" y1="117" y2="117" /><line stroke="rgb(10%,10%,16%)" x1="160" x2="159" y1="117" y2="119" /><line stroke="rgb(10%,10%,16%)" x1="159" x2="157" y1="119" y2="119" /><line stroke="rgb(10%,10%,16%)" x1="157" x2="157" y1="119" y2="120" /><line stroke="rgb(10%,10%,16%)" x1="157" x2="155" y1="120" y2="122" /><line stroke="rgb(10%,10%,16%)" x1="155" x2="155" y1="122" y2="124" /><line stroke="rgb(10%,10%,16%)" x1="155" x2="153" y1="124" y2="125" /><line stroke="rgb(10%,10%,16%)" x1="153" x2="152" y1="125" y2="125" /><line stroke="rgb(10%,10%,16%)" x1="152" x2="150" y1="125" y2="127" /><line stroke="rgb(10%,10%,16%)" x1="150" x2="146" y1="127" y2="127" /><line stroke="rgb(10%,10%,16%)" x1="146" x2="145" y1="127" y2="129" /><line stroke="rgb(10%,10%,16%)" x1="145" x2="143" y1="129" y2="129" /><line stroke="rgb(10%,10%,16%)" x1="143" x2="140" y1="129" y2="132" /><line stroke="rgb(10%,10%,16%)" x1="140" x2="138" y1="132" y2="132" /><line stroke="rgb(10%,10%,16%)" x1="138" x2="138" y1="132" y2="134" /><line stroke="rgb(10%,10%,16%)" x1="138" x2="134" y1="134" y2="138" /><line stroke="rgb(10%,10%,16%)" x1="134" x2="126" y1="138" y2="138" /><line stroke="rgb(10%,10%,16%)" x1="126" x2="124" y1="138" y2="136" /><line stroke="rgb(10%,10%,16%)" x1="124" x2="121" y1="136" y2="136" /><line stroke="rgb(10%,10%,16%)" x1="121" x2="119" y1="136" y2="138" /><line stroke="rgb(10%,10%,16%)" x1="119" x2="117" y1="138" y2="138" /><line stroke="rgb(10%,10%,16%)" x1="117" x2="115" y1="138" y2="139" /><line stroke="rgb(10%,10%,16%)" x1="115" x2="114" y1="139" y2="139" /><line stroke="rgb(10%,10%,16%)" x1="114" x2="112" y1="139" y2="141" /><line stroke="rgb(10%,10%,16%)" x1="112" x2="110" y1="141" y2="141" /><line stroke="rgb(10%,10%,16%)" x1="110" x2="110" y1="141" y2="143" /><line stroke="rgb(10%,10%,16%)" x1="110" x2="107" y1="143" y2="146" /><line stroke="rgb(10%,10%,16%)" x1="107" x2="96" y1="146" y2="146" /><line stroke="rgb(10%,10%,16%)" x1="96" x2="95" y1="146" y2="144" /><line stroke="rgb(10%,10%,16%)" x1="95" x2="93" y1="144" y2="144" /><line stroke="rgb(10%,10%,16%)" x1="93" x2="91" y1="144" y2="146" /><line stroke="rgb(10%,10%,16%)" x1="91" x2="89" y1="146" y2="146" /><line stroke="rgb(10%,10%,16%)" x1="89" x2="88" y1="146" y2="148" /><line stroke="rgb(10%,10%,16%)" x1="88" x2="86" y1="148" y2="148" /><line stroke="rgb(10%,10%,16%)" x1="86" x2="84" y1="148" y2="150" /><line stroke="rgb(10%,10%,16%)" x1="84" x2="83" y1="150" y2="150" /><line stroke="rgb(10%,10%,16%)" x1="83" x2="83" y1="150" y2="151" /><line stroke="rgb(10%,10%,16%)" x1="83" x2="79" y1="151" y2="155" /><line stroke="rgb(10%,10%,16%)" x1="79" x2="69" y1="155" y2="155" /><line stroke="rgb(10%,10%,16%)" x1="69" x2="67" y1="155" y2="153" /><line stroke="rgb(10%,10%,16%)" x1="67" x2="65" y1="153" y2="155" /><line stroke="rgb(10%,10%,16%)" x1="65" x2="62" y1="155" y2="155" /><line stroke="rgb(10%,10%,16%)" x1="62" x2="60" y1="155" y2="156" /><line stroke="rgb(10%,10%,16%)" x1="60" x2="58" y1="156" y2="156" /><line stroke="rgb(10%,10%,16%)" x1="58" x2="53" y1="156" y2="162" /><line stroke="rgb(10%,10%,16%)" x1="53" x2="53" y1="162" y2="163" /><line stroke="rgb(10%,10%,16%)" x1="53" x2="51" y1="163" y2="165" /><line stroke="rgb(10%,10%,16%)" x1="51" x2="50" y1="165" y2="165" /><line stroke="rgb(10%,10%,16%)" x1="50" x2="48" y1="165" y2="167" /><line stroke="rgb(10%,10%,16%)" x1="48" x2="46" y1="167" y2="167" /><line stroke="rgb(10%,10%,16%)" x1="46" x2="44" y1="167" y2="169" /><line stroke="rgb(10%,10%,16%)" x1="44" x2="43" y1="169" y2="169" /><line stroke="rgb(10%,10%,16%)" x1="43" x2="41" y1="169" y2="170" /><line stroke="rgb(10%,10%,16%)" x1="41" x2="41" y1="170" y2="172" /><line stroke="rgb(10%,10%,16%)" x1="41" x2="39" y1="172" y2="174" /><line stroke="rgb(10%,10%,16%)" x1="39" x2="39" y1="174" y2="181" /><line stroke="rgb(10%,10%,16%)" x1="39" x2="34" y1="181" y2="186" /><line stroke="rgb(10%,10%,16%)" x1="34" x2="32" y1="186" y2="186" /><line stroke="rgb(10%,10%,16%)" x1="32" x2="32" y1="186" y2="188" /><line stroke="rgb(10%,10%,16%)" x1="32" x2="31" y1="188" y2="189" /><line stroke="rgb(10%,10%,16%)" x1="31" x2="31" y1="189" y2="191" /><line stroke="rgb(10%,10%,16%)" x1="31" x2="32" y1="191" y2="193" /><line stroke="rgb(10%,10%,16%)" x1="32" x2="32" y1="193" y2="194" /><line stroke="rgb(10%,10%,16%)" x1="32" x2="34" y1="194" y2="196" /><line stroke="rgb(10%,10%,16%)" x1="34" x2="34" y1="196" y2="200" /><line stroke="rgb(10%,10%,16%)" x1="34" x2="36" y1="200" y2="201" /><line stroke="rgb(10%,10%,16%)" x1="36" x2="36" y1="201" y2="212" /><line stroke="rgb(10%,10%,16%)" x1="36" x2="34" y1="212" y2="213" /><line stroke="rgb(10%,10%,16%)" x1="34" x2="34" y1="213" y2="215" /><line stroke="rgb(10%,10%,16%)" x1="34" x2="38" y1="215" y2="219" /><line stroke="rgb(10%,10%,16%)" x1="38" x2="39" y1="219" y2="219" /><line stroke="rgb(10%,10%,16%)" x1="39" x2="41" y1="219" y2="220" /><line stroke="rgb(10%,10%,16%)" x1="41" x2="43" y1="220" y2="220" /><line stroke="rgb(10%,10%,16%)" x1="43" x2="46" y1="220" y2="224" /><line stroke="rgb(10%,10%,16%)" x1="46" x2="48" y1="224" y2="224" /><line stroke="rgb(10%,10%,16%)" x1="48" x2="50" y1="224" y2="225" /><line stroke="rgb(10%,10%,16%)" x1="50" x2="70" y1="225" y2="225" /><line stroke="rgb(10%,10%,16%)" x1="70" x2="72" y1="225" y2="227" /><line stroke="rgb(10%,10%,16%)" x1="72" x2="86" y1="227" y2="227" /><line stroke="rgb(10%,10%,16%)" x1="86" x2="88" y1="227" y2="229" /><line stroke="rgb(10%,10%,16%)" x1="88" x2="93" y1="229" y2="229" /><line stroke="rgb(10%,10%,16%)" x1="93" x2="95" y1="229" y2="231" /><line stroke="rgb(10%,10%,16%)" x1="95" x2="98" y1="231" y2="231" /><line stroke="rgb(10%,10%,16%)" x1="98" x2="102" y1="231" y2="234" /><line stroke="rgb(10%,10%,16%)" x1="102" x2="103" y1="234" y2="234" /><line stroke="rgb(10%,10%,16%)" x1="103" x2="107" y1="234" y2="238" /><line stroke="rgb(10%,10%,16%)" x1="107" x2="108" y1="238" y2="238" /><line stroke="rgb(10%,10%,16%)" x1="108" x2="110" y1="238" y2="239" /><line stroke="rgb(10%,10%,16%)" x1="110" x2="112" y1="239" y2="239" /><line stroke="rgb(10%,10%,16%)" x1="112" x2="114" y1="239" y2="241" /><line stroke="rgb(10%,10%,16%)" x1="114" x2="117" y1="241" y2="241" /><line stroke="rgb(10%,10%,16%)" x1="117" x2="119" y1="241" y2="243" /><line stroke="rgb(10%,10%,16%)" x1="119" x2="124" y1="243" y2="243" /><line stroke="rgb(10%,10%,16%)" x1="124" x2="126" y1="243" y2="244" /><line stroke="rgb(10%,10%,16%)" x1="126" x2="133" y1="244" y2="244" /><line stroke="rgb(10%,10%,16%)" x1="133" x2="134" y1="244" y2="246" /><line stroke="rgb(10%,10%,16%)" x1="134" x2="143" y1="246" y2="246" /><line stroke="rgb(10%,10%,16%)" x1="143" x2="145" y1="246" y2="248" /><line stroke="rgb(10%,10%,16%)" x1="145" x2="153" y1="248" y2="248" /><line stroke="rgb(10%,10%,16%)" x1="153" x2="155" y1="248" y2="250" /><line stroke="rgb(10%,10%,16%)" x1="155" x2="164" y1="250" y2="250" /><line stroke="rgb(10%,10%,16%)" x1="164" x2="166" y1="250" y2="251" /><line stroke="rgb(10%,10%,16%)" x1="166" x2="174" y1="251" y2="251" /><line stroke="rgb(10%,10%,16%)" x1="174" x2="176" y1="251" y2="253" /><line stroke="rgb(10%,10%,16%)" x1="176" x2="188" y1="253" y2="253" /><line stroke="rgb(10%,10%,16%)" x1="188" x2="190" y1="253" y2="251" /><line stroke="rgb(10%,10%,16%)" x1="190" x2="191" y1="251" y2="251" /><line stroke="rgb(10%,10%,16%)" x1="191" x2="195" y1="251" y2="248" /><line stroke="rgb(10%,10%,16%)" x1="195" x2="204" y1="248" y2="248" /><line stroke="rgb(10%,10%,16%)" x1="204" x2="205" y1="248" y2="250" /><line stroke="rgb(10%,10%,16%)" x1="205" x2="212" y1="250" y2="250" /><line stroke="rgb(10%,10%,16%)" x1="212" x2="214" y1="250" y2="251" /><line stroke="rgb(10%,10%,16%)" x1="214" x2="219" y1="251" y2="251" /><line stroke="rgb(10%,10%,16%)" x1="219" x2="221" y1="251" y2="253" /><line stroke="rgb(10%,10%,16%)" x1="221" x2="228" y1="253" y2="253" /><line stroke="rgb(10%,10%,16%)" x1="228" x2="230" y1="253" y2="255" /><line stroke="rgb(10%,10%,16%)" x1="230" x2="242" y1="255" y2="255" /><line stroke="rgb(10%,10%,16%)" x1="242" x2="243" y1="255" y2="253" /><line stroke="rgb(10%,10%,16%)" x1="243" x2="245" y1="253" y2="253" /><line stroke="rgb(10%,10%,16%)" x1="245" x2="249" y1="253" y2="250" /><line stroke="rgb(10%,10%,16%)" x1="249" x2="250" y1="250" y2="250" /><line stroke="rgb(10%,10%,16%)" x1="250" x2="259" y1="250" y2="241" /><line stroke="rgb(10%,10%,16%)" x1="259" x2="261" y1="241" y2="241" /><line stroke="rgb(10%,10%,16%)" x1="261" x2="262" y1="241" y2="239" /><line stroke="rgb(10%,10%,16%)" x1="262" x2="266" y1="239" y2="239" /><line stroke="rgb(10%,10%,16%)" x1="266" x2="268" y1="239" y2="238" /><line stroke="rgb(10%,10%,16%)" x1="268" x2="283" y1="238" y2="238" /><line stroke="rgb(10%,10%,16%)" x1="283" x2="285" y1="238" y2="239" /><line stroke="rgb(10%,10%,16%)" x1="285" x2="288" y1="239" y2="239" /><line stroke="rgb(10%,10%,16%)" x1="288" x2="290" y1="239" y2="241" /><line stroke="rgb(10%,10%,16%)" x1="290" x2="293" y1="241" y2="241" /><line stroke="rgb(10%,10%,16%)" x1="293" x2="295" y1="241" y2="243" /><line stroke="rgb(10%,10%,16%)" x1="295" x2="299" y1="243" y2="243" /><line stroke="rgb(10%,10%,16%)" x1="299" x2="300" y1="243" y2="244" /><line stroke="rgb(10%,10%,16%)" x1="300" x2="304" y1="244" y2="244" /><line stroke="rgb(10%,10%,16%)" x1="304" x2="306" y1="244" y2="246" /><line stroke="rgb(10%,10%,16%)" x1="306" x2="314" y1="246" y2="246" /><line stroke="rgb(10%,10%,16%)" x1="314" x2="319" y1="246" y2="241" /><line stroke="rgb(10%,10%,16%)" x1="319" x2="335" y1="241" y2="241" /><line stroke="rgb(10%,10%,16%)" x1="335" x2="337" y1="241" y2="239" /><line stroke="rgb(10%,10%,16%)" x1="337" x2="345" y1="239" y2="239" /><line stroke="rgb(10%,10%,16%)" x1="345" x2="347" y1="239" y2="238" /><line stroke="rgb(10%,10%,16%)" x1="347" x2="356" y1="238" y2="238" /><line stroke="rgb(10%,10%,16%)" x1="356" x2="357" y1="238" y2="236" /><line stroke="rgb(10%,10%,16%)" x1="357" x2="368" y1="236" y2="236" /><line stroke="rgb(10%,10%,16%)" x1="368" x2="370" y1="236" y2="234" /><line stroke="rgb(10%,10%,16%)" x1="370" x2="371" y1="234" y2="234" /><line stroke="rgb(10%,10%,16%)" x1="371" x2="373" y1="234" y2="232" /><line stroke="rgb(10%,10%,16%)" x1="373" x2="373" y1="232" y2="213" /><line stroke="rgb(10%,10%,16%)" x1="373" x2="376" y1="213" y2="210" /><line stroke="rgb(10%,10%,16%)" x1="376" x2="389" y1="210" y2="210" /><line stroke="rgb(10%,10%,16%)" x1="389" x2="390" y1="210" y2="208" /><line stroke="rgb(10%,10%,16%)" x1="390" x2="408" y1="208" y2="208" /><line stroke="rgb(10%,10%,16%)" x1="408" x2="409" y1="208" y2="207" /><line stroke="rgb(10%,10%,16%)" x1="409" x2="409" y1="207" y2="170" /><line stroke="rgb(10%,10%,16%)" x1="409" x2="401" y1="170" y2="162" /><line stroke="rgb(10%,10%,16%)" x1="401" x2="401" y1="162" y2="160" /><line stroke="rgb(10%,10%,16%)" x1="401" x2="399" y1="160" y2="158" /><line stroke="rgb(10%,10%,16%)" x1="399" x2="399" y1="158" y2="156" /><line stroke="rgb(10%,10%,16%)" x1="399" x2="397" y1="156" y2="155" /><line stroke="rgb(10%,10%,16%)" x1="397" x2="396" y1="155" y2="155" /><line stroke="rgb(10%,10%,16%)" x1="396" x2="390" y1="155" y2="150" /><line stroke="rgb(10%,10%,16%)" x1="390" x2="390" y1="150" y2="148" /><line stroke="rgb(10%,10%,16%)" x1="390" x2="389" y1="148" y2="146" /><line stroke="rgb(10%,10%,16%)" x1="389" x2="389" y1="146" y2="144" /><line stroke="rgb(10%,10%,16%)" x1="389" x2="387" y1="144" y2="144" /><line stroke="rgb(10%,10%,16%)" x1="387" x2="385" y1="144" y2="143" /><line stroke="rgb(10%,10%,16%)" x1="385" x2="378" y1="143" y2="143" /><line stroke="rgb(10%,10%,16%)" x1="378" x2="376" y1="143" y2="144" /><line stroke="rgb(10%,10%,16%)" x1="376" x2="375" y1="144" y2="144" /><line stroke="rgb(10%,10%,16%)" x1="375" x2="371" y1="144" y2="148" /><line stroke="rgb(10%,10%,16%)" x1="371" x2="363" y1="148" y2="148" /><line stroke="rgb(10%,10%,16%)" x1="363" x2="361" y1="148" y2="146" /><line stroke="rgb(10%,10%,16%)" x1="361" x2="361" y1="146" y2="125" /><line stroke="rgb(10%,10%,16%)" x1="361" x2="359" y1="125" y2="124" /><line stroke="rgb(10%,10%,16%)" x1="359" x2="354" y1="124" y2="124" /><line stroke="rgb(10%,10%,16%)" x1="354" x2="349" y1="124" y2="119" /><line stroke="rgb(10%,10%,16%)" x1="349" x2="349" y1="119" y2="117" /><line stroke="rgb(10%,10%,16%)" x1="349" x2="347" y1="117" y2="115" /><line stroke="rgb(10%,10%,16%)" x1="347" x2="345" y1="115" y2="115" /><line stroke="rgb(10%,10%,16%)" x1="345" x2="344" y1="115" y2="113" /><line stroke="rgb(10%,10%,16%)" x1="344" x2="338" y1="113" y2="113" /><line stroke="rgb(10%,10%,16%)" x1="338" x2="337" y1="113" y2="115" /><line stroke="rgb(10%,10%,16%)" x1="337" x2="335" y1="115" y2="115" /><line stroke="rgb(10%,10%,16%)" x1="335" x2="333" y1="115" y2="117" /><line stroke="rgb(10%,10%,16%)" x1="333" x2="332" y1="117" y2="117" /><line stroke="rgb(10%,10%,16%)" x1="332" x2="330" y1="117" y2="119" /><line stroke="rgb(10%,10%,16%)" x1="330" x2="321" y1="119" y2="119" /><line stroke="rgb(10%,10%,16%)" x1="321" x2="319" y1="119" y2="117" /><line stroke="rgb(10%,10%,16%)" x1="319" x2="319" y1="117" y2="113" /><line stroke="rgb(10%,10%,16%)" x1="319" x2="316" y1="113" y2="110" /><line stroke="rgb(10%,10%,16%)" x1="316" x2="314" y1="110" y2="110" /><line stroke="rgb(10%,10%,16%)" x1="314" x2="313" y1="110" y2="108" /><line stroke="rgb(10%,10%,16%)" x1="313" x2="309" y1="108" y2="108" /><line stroke="rgb(10%,10%,16%)" x1="309" x2="307" y1="108" y2="110" /><line stroke="rgb(10%,10%,16%)" x1="307" x2="306" y1="110" y2="110" /><line stroke="rgb(10%,10%,16%)" x1="306" x2="304" y1="110" y2="112" /><line stroke="rgb(10%,10%,16%)" x1="304" x2="302" y1="112" y2="112" /><line stroke="rgb(10%,10%,16%)" x1="302" x2="300" y1="112" y2="113" /><line stroke="rgb(10%,10%,16%)" x1="300" x2="300" y1="113" y2="115" /><line stroke="rgb(10%,10%,16%)" x1="300" x2="297" y1="115" y2="119" /><line stroke="rgb(10%,10%,16%)" x1="297" x2="290" y1="119" y2="119" /><line stroke="rgb(10%,10%,16%)" x1="290" x2="288" y1="119" y2="120" /><line stroke="rgb(10%,10%,16%)" x1="288" x2="281" y1="120" y2="120" /><line stroke="rgb(10%,10%,16%)" x1="281" x2="280" y1="120" y2="119" /><line stroke="rgb(10%,10%,16%)" x1="280" x2="280" y1="119" y2="110" /><line stroke="rgb(10%,10%,16%)" x1="280" x2="281" y1="110" y2="108" /><line stroke="rgb(10%,10%,16%)" x1="281" x2="281" y1="108" y2="106" /><line stroke="rgb(10%,10%,16%)" x1="281" x2="283" y1="106" y2="105" /><line stroke="rgb(10%,10%,16%)" x1="283" x2="283" y1="105" y2="100" /><line stroke="rgb(10%,10%,16%)" x1="283" x2="281" y1="100" y2="98" /><line stroke="rgb(10%,10%,16%)" x1="281" x2="280" y1="98" y2="100" /><line stroke="rgb(10%,10%,16%)" x1="280" x2="276" y1="100" y2="100" /><line stroke="rgb(10%,10%,16%)" x1="276" x2="274" y1="100" y2="101" /><line stroke="rgb(10%,10%,16%)" x1="274" x2="273" y1="101" y2="101" /><line stroke="rgb(10%,10%,16%)" x1="273" x2="271" y1="101" y2="103" /><line stroke="rgb(10%,10%,16%)" x1="271" x2="271" y1="103" y2="105" /><line stroke="rgb(10%,10%,16%)" x1="271" x2="269" y1="105" y2="106" /><line stroke="rgb(10%,10%,16%)" x1="269" x2="269" y1="106" y2="108" /><line stroke="rgb(10%,10%,16%)" x1="269" x2="266" y1="108" y2="112" /><line stroke="rgb(10%,10%,16%)" x1="266" x2="264" y1="112" y2="112" /><line stroke="rgb(10%,10%,16%)" x1="264" x2="264" y1="112" y2="113" /><line stroke="rgb(10%,10%,16%)" x1="264" x2="262" y1="113" y2="115" /><line stroke="rgb(10%,10%,16%)" x1="262" x2="262" y1="115" y2="120" /><line stroke="rgb(10%,10%,16%)" x1="262" x2="261" y1="120" y2="122" /><line stroke="rgb(10%,10%,16%)" x1="261" x2="242" y1="122" y2="122" /><line stroke="rgb(10%,10%,16%)" x1="242" x2="240" y1="122" y2="120" /><line stroke="rgb(10%,10%,16%)" x1="240" x2="240" y1="120" y2="110" /><line stroke="rgb(10%,10%,16%)" x1="240" x2="242" y1="110" y2="108" /><line stroke="rgb(10%,10%,16%)" x1="242" x2="245" y1="108" y2="108" /><line stroke="rgb(10%,10%,16%)" x1="245" x2="247" y1="108" y2="106" /><line stroke="rgb(10%,10%,16%)" x1="247" x2="247" y1="106" y2="101" /><line stroke="rgb(10%,10%,16%)" x1="247" x2="245" y1="101" y2="100" /><line stroke="rgb(10%,10%,16%)" x1="245" x2="242" y1="100" y2="100" /><line stroke="rgb(10%,10%,16%)" x1="242" x2="238" y1="100" y2="103" /><line stroke="rgb(10%,10%,16%)" x1="238" x2="238" y1="103" y2="108" /><line stroke="rgb(10%,10%,16%)" x1="238" x2="236" y1="108" y2="110" /><line stroke="rgb(10%,10%,16%)" x1="236" x2="233" y1="110" y2="110" /><line stroke="rgb(10%,10%,16%)" x1="233" x2="230" y1="110" y2="113" /><line stroke="rgb(10%,10%,16%)" x1="230" x2="230" y1="113" y2="120" /><line stroke="rgb(10%,10%,16%)" x1="230" x2="228" y1="120" y2="122" /><line stroke="rgb(10%,10%,16%)" x1="228" x2="221" y1="122" y2="122" /><line stroke="rgb(10%,10%,16%)" x1="221" x2="219" y1="122" y2="120" /><line stroke="rgb(10%,10%,16%)" x1="219" x2="210" y1="120" y2="120" /><line stroke="rgb(10%,10%,16%)" x1="210" x2="209" y1="120" y2="119" /><line stroke="rgb(10%,10%,16%)" x1="209" x2="209" y1="119" y2="110" /><line stroke="rgb(10%,10%,16%)" x1="209" x2="210" y1="110" y2="108" /><line stroke="rgb(10%,10%,16%)" x1="210" x2="212" y1="108" y2="108" /><line stroke="rgb(10%,10%,16%)" x1="212" x2="214" y1="108" y2="106" /><line stroke="rgb(10%,10%,16%)" x1="214" x2="214" y1="106" y2="100" /><line stroke="rgb(10%,10%,16%)" x1="214" x2="212" y1="100" y2="98" /><line stroke="rgb(10%,10%,16%)" x1="212" x2="210" y1="98" y2="98" /><line stroke="rgb(10%,10%,16%)" x1="210" x2="209" y1="98" y2="100" /><line stroke="rgb(10%,10%,16%)" x1="209" x2="207" y1="100" y2="100" /><line stroke="rgb(10%,10%,16%)" x1="207" x2="207" y1="100" y2="101" /><line stroke="rgb(10%,10%,16%)" x1="207" x2="205" y1="101" y2="103" /><line stroke="rgb(10%,10%,16%)" x1="205" x2="205" y1="103" y2="106" /><line stroke="rgb(10%,10%,16%)" x1="205" x2="204" y1="106" y2="108" /><line stroke="rgb(10%,10%,16%)" x1="204" x2="200" y1="108" y2="108" /><line stroke="rgb(10%,10%,16%)" x1="200" x2="197" y1="108" y2="112" /><line stroke="rgb(10%,10%,16%)" x1="197" x2="197" y1="112" y2="117" /><line stroke="rgb(10%,10%,16%)" x1="197" x2="195" y1="117" y2="119" /><line stroke="rgb(10%,10%,16%)" x1="195" x2="179" y1="119" y2="119" /><line stroke="rgb(10%,10%,16%)" x1="179" x2="178" y1="119" y2="117" /><line stroke="rgb(10%,10%,16%)" x1="178" x2="178" y1="117" y2="110" /><line stroke="rgb(10%,10%,16%)" x1="178" x2="185" y1="110" y2="103" /><line stroke="rgb(10%,10%,16%)" x1="185" x2="185" y1="103" y2="96" /><line stroke="rgb(10%,10%,16%)" x1="185" x2="169" y1="96" y2="106" /><line stroke="rgb(10%,10%,16%)" x1="169" x2="176" y1="106" y2="106" /><line stroke="rgb(10%,10%,16%)" x1="176" x2="178" y1="106" y2="108" /><line stroke="rgb(10%,10%,16%)" x1="178" x2="178" y1="108" y2="117" /><line stroke="rgb(10%,10%,16%)" x1="178" x2="179" y1="117" y2="119" /><line stroke="rgb(10%,10%,16%)" x1="179" x2="207" y1="119" y2="119" /><line stroke="rgb(10%,10%,16%)" x1="207" x2="209" y1="119" y2="120" /><line stroke="rgb(10%,10%,16%)" x1="209" x2="219" y1="120" y2="120" /><line stroke="rgb(10%,10%,16%)" x1="219" x2="221" y1="120" y2="122" /><line stroke="rgb(10%,10%,16%)" x1="221" x2="261" y1="122" y2="122" /><line stroke="rgb(10%,10%,16%)" x1="261" x2="262" y1="122" y2="120" /><line stroke="rgb(10%,10%,16%)" x1="262" x2="264" y1="120" y2="120" /><line stroke="rgb(10%,10%,16%)" x1="264" x2="264" y1="120" y2="113" /><line stroke="rgb(10%,10%,16%)" x1="264" x2="266" y1="113" y2="112" /><line stroke="rgb(10%,10%,16%)" x1="266" x2="273" y1="112" y2="112" /><line stroke="rgb(10%,10%,16%)" x1="273" x2="274" y1="112" y2="113" /><line stroke="rgb(10%,10%,16%)" x1="274" x2="274" y1="113" y2="122" /><line stroke="rgb(10%,10%,16%)" x1="274" x2="287" y1="122" y2="122" /><line stroke="rgb(10%,10%,16%)" x1="287" x2="290" y1="122" y2="119" /><line stroke="rgb(10%,10%,16%)" x1="290" x2="299" y1="119" y2="119" /><line stroke="rgb(10%,10%,16%)" x1="299" x2="299" y1="119" y2="117" /><line stroke="rgb(10%,10%,16%)" x1="299" x2="306" y1="117" y2="110" /><line stroke="rgb(10%,10%,16%)" x1="306" x2="316" y1="110" y2="110" /><line stroke="rgb(10%,10%,16%)" x1="316" x2="319" y1="110" y2="113" /><line stroke="rgb(10%,10%,16%)" x1="319" x2="319" y1="113" y2="117" /><line stroke="rgb(10%,10%,16%)" x1="319" x2="323" y1="117" y2="120" /><line stroke="rgb(10%,10%,16%)" x1="323" x2="328" y1="120" y2="120" /><line stroke="rgb(10%,10%,16%)" x1="328" x2="330" y1="120" y2="119" /><line stroke="rgb(10%,10%,16%)" x1="330" x2="332" y1="119" y2="119" /><line stroke="rgb(10%,10%,16%)" x1="332" x2="335" y1="119" y2="115" /><line stroke="rgb(10%,10%,16%)" x1="335" x2="347" y1="115" y2="115" /><line stroke="rgb(10%,10%,16%)" x1="347" x2="349" y1="115" y2="117" /><line stroke="rgb(10%,10%,16%)" x1="349" x2="349" y1="117" y2="119" /><line stroke="rgb(10%,10%,16%)" x1="349" x2="351" y1="119" y2="120" /><line stroke="rgb(10%,10%,16%)" x1="351" x2="351" y1="120" y2="122" /><line stroke="rgb(10%,10%,16%)" x1="351" x2="352" y1="122" y2="124" /><line stroke="rgb(10%,10%,16%)" x1="352" x2="359" y1="124" y2="124" /><line stroke="rgb(10%,10%,16%)" x1="359" x2="361" y1="124" y2="125" /><line stroke="rgb(10%,10%,16%)" x1="361" x2="361" y1="125" y2="146" /><line stroke="rgb(10%,10%,16%)" x1="361" x2="363" y1="146" y2="148" /><line stroke="rgb(10%,10%,16%)" x1="363" x2="363" y1="148" y2="150" /><line stroke="rgb(10%,10%,16%)" x1="363" x2="364" y1="150" y2="151" /><line stroke="rgb(10%,10%,16%)" x1="364" x2="364" y1="151" y2="153" /><line stroke="rgb(10%,10%,16%)" x1="364" x2="368" y1="153" y2="153" /><line stroke="rgb(10%,10%,16%)" x1="368" x2="378" y1="153" y2="143" /><line stroke="rgb(10%,10%,16%)" x1="378" x2="385" y1="143" y2="143" /><line stroke="rgb(10%,10%,16%)" x1="385" x2="390" y1="143" y2="148" /><line stroke="rgb(10%,10%,16%)" x1="390" x2="390" y1="148" y2="150" /><line stroke="rgb(10%,10%,16%)" x1="390" x2="392" y1="150" y2="151" /><line stroke="rgb(10%,10%,16%)" x1="392" x2="392" y1="151" y2="153" /><line stroke="rgb(10%,10%,16%)" x1="392" x2="394" y1="153" y2="153" /><line stroke="rgb(10%,10%,16%)" x1="394" x2="401" y1="153" y2="160" /><line stroke="rgb(10%,10%,16%)" x1="401" x2="401" y1="160" y2="162" /><line stroke="rgb(10%,10%,16%)" x1="401" x2="402" y1="162" y2="163" /><line stroke="rgb(10%,10%,16%)" x1="402" x2="402" y1="163" y2="165" /><line stroke="rgb(10%,10%,16%)" x1="402" x2="409" y1="165" y2="172" /><line stroke="rgb(10%,10%,16%)" x1="409" x2="409" y1="172" y2="205" /><line stroke="rgb(10%,10%,16%)" x1="409" x2="406" y1="205" y2="208" /><line stroke="rgb(10%,10%,16%)" x1="406" x2="390" y1="208" y2="208" /><line stroke="rgb(10%,10%,16%)" x1="390" x2="389" y1="208" y2="210" /><line stroke="rgb(10%,10%,16%)" x1="389" x2="376" y1="210" y2="210" /><line stroke="rgb(10%,10%,16%)" x1="376" x2="373" y1="210" y2="213" /><line stroke="rgb(10%,10%,16%)" x1="373" x2="373" y1="213" y2="232" /><line stroke="rgb(10%,10%,16%)" x1="373" x2="371" y1="232" y2="234" /><line stroke="rgb(10%,10%,16%)" x1="371" x2="370" y1="234" y2="234" /><line stroke="rgb(10%,10%,16%)" x1="370" x2="368" y1="234" y2="236" /><line stroke="rgb(10%,10%,16%)" x1="368" x2="357" y1="236" y2="236" /><line stroke="rgb(10%,10%,16%)" x1="357" x2="356" y1="236" y2="238" /><line stroke="rgb(10%,10%,16%)" x1="356" x2="347" y1="238" y2="238" /><line stroke="rgb(10%,10%,16%)" x1="347" x2="345" y1="238" y2="239" /><line stroke="rgb(10%,10%,16%)" x1="345" x2="335" y1="239" y2="239" /><line stroke="rgb(10%,10%,16%)" x1="335" x2="333" y1="239" y2="238" /><line stroke="rgb(10%,10%,16%)" x1="333" x2="333" y1="238" y2="225" /><line stroke="rgb(10%,10%,16%)" x1="333" x2="337" y1="225" y2="222" /><line stroke="rgb(10%,10%,16%)" x1="337" x2="338" y1="222" y2="222" /><line stroke="rgb(10%,10%,16%)" x1="338" x2="342" y1="222" y2="219" /><line stroke="rgb(10%,10%,16%)" x1="342" x2="342" y1="219" y2="212" /><line stroke="rgb(10%,10%,16%)" x1="342" x2="347" y1="212" y2="207" /><line stroke="rgb(10%,10%,16%)" x1="347" x2="349" y1="207" y2="207" /><line stroke="rgb(10%,10%,16%)" x1="349" x2="351" y1="207" y2="205" /><line stroke="rgb(10%,10%,16%)" x1="351" x2="354" y1="205" y2="205" /><line stroke="rgb(10%,10%,16%)" x1="354" x2="356" y1="205" y2="203" /><line stroke="rgb(10%,10%,16%)" x1="356" x2="357" y1="203" y2="203" /><line stroke="rgb(10%,10%,16%)" x1="357" x2="359" y1="203" y2="201" /><line stroke="rgb(10%,10%,16%)" x1="359" x2="364" y1="201" y2="201" /><line stroke="rgb(10%,10%,16%)" x1="364" x2="366" y1="201" y2="200" /><line stroke="rgb(10%,10%,16%)" x1="366" x2="370" y1="200" y2="200" /><line stroke="rgb(10%,10%,16%)" x1="370" x2="370" y1="200" y2="194" /><line stroke="rgb(10%,10%,16%)" x1="370" x2="368" y1="194" y2="194" /><line stroke="rgb(10%,10%,16%)" x1="368" x2="366" y1="194" y2="193" /><line stroke="rgb(10%,10%,16%)" x1="366" x2="364" y1="193" y2="193" /><line stroke="rgb(10%,10%,16%)" x1="364" x2="361" y1="193" y2="189" /><line stroke="rgb(10%,10%,16%)" x1="361" x2="359" y1="189" y2="189" /><line stroke="rgb(10%,10%,16%)" x1="359" x2="359" y1="189" y2="198" /><line stroke="rgb(10%,10%,16%)" x1="359" x2="357" y1="198" y2="200" /><line stroke="rgb(10%,10%,16%)" x1="357" x2="333" y1="200" y2="200" /><line stroke="rgb(10%,10%,16%)" x1="333" x2="330" y1="200" y2="196" /><line stroke="rgb(10%,10%,16%)" x1="330" x2="330" y1="196" y2="194" /><line stroke="rgb(10%,10%,16%)" x1="330" x2="325" y1="194" y2="194" /><line stroke="rgb(10%,10%,16%)" x1="325" x2="323" y1="194" y2="196" /><line stroke="rgb(10%,10%,16%)" x1="323" x2="321" y1="196" y2="196" /><line stroke="rgb(10%,10%,16%)" x1="321" x2="321" y1="196" y2="203" /><line stroke="rgb(10%,10%,16%)" x1="321" x2="319" y1="203" y2="205" /><line stroke="rgb(10%,10%,16%)" x1="319" x2="313" y1="205" y2="205" /><line stroke="rgb(10%,10%,16%)" x1="313" x2="313" y1="205" y2="208" /><line stroke="rgb(10%,10%,16%)" x1="313" x2="314" y1="208" y2="210" /><line stroke="rgb(10%,10%,16%)" x1="314" x2="314" y1="210" y2="232" /><line stroke="rgb(10%,10%,16%)" x1="314" x2="316" y1="232" y2="234" /><line stroke="rgb(10%,10%,16%)" x1="316" x2="316" y1="234" y2="243" /><line stroke="rgb(10%,10%,16%)" x1="316" x2="313" y1="243" y2="246" /><line stroke="rgb(10%,10%,16%)" x1="313" x2="306" y1="246" y2="246" /><line stroke="rgb(10%,10%,16%)" x1="306" x2="304" y1="246" y2="244" /><line stroke="rgb(10%,10%,16%)" x1="304" x2="300" y1="244" y2="244" /><line stroke="rgb(10%,10%,16%)" x1="300" x2="299" y1="244" y2="243" /><line stroke="rgb(10%,10%,16%)" x1="299" x2="295" y1="243" y2="243" /><line stroke="rgb(10%,10%,16%)" x1="295" x2="293" y1="243" y2="241" /><line stroke="rgb(10%,10%,16%)" x1="293" x2="290" y1="241" y2="241" /><line stroke="rgb(10%,10%,16%)" x1="290" x2="288" y1="241" y2="239" /><line stroke="rgb(10%,10%,16%)" x1="288" x2="285" y1="239" y2="239" /><line stroke="rgb(10%,10%,16%)" x1="285" x2="283" y1="239" y2="238" /><line stroke="rgb(10%,10%,16%)" x1="283" x2="281" y1="238" y2="238" /><line stroke="rgb(10%,10%,16%)" x1="281" x2="280" y1="238" y2="236" /><line stroke="rgb(10%,10%,16%)" x1="280" x2="276" y1="236" y2="236" /><line stroke="rgb(10%,10%,16%)" x1="276" x2="274" y1="236" y2="238" /><line stroke="rgb(10%,10%,16%)" x1="274" x2="268" y1="238" y2="238" /><line stroke="rgb(10%,10%,16%)" x1="268" x2="266" y1="238" y2="239" /><line stroke="rgb(10%,10%,16%)" x1="266" x2="262" y1="239" y2="239" /><line stroke="rgb(10%,10%,16%)" x1="262" x2="261" y1="239" y2="241" /><line stroke="rgb(10%,10%,16%)" x1="261" x2="259" y1="241" y2="241" /><line stroke="rgb(10%,10%,16%)" x1="259" x2="257" y1="241" y2="243" /><line stroke="rgb(10%,10%,16%)" x1="257" x2="255" y1="243" y2="243" /><line stroke="rgb(10%,10%,16%)" x1="255" x2="247" y1="243" y2="251" /><line stroke="rgb(10%,10%,16%)" x1="247" x2="245" y1="251" y2="251" /><line stroke="rgb(10%,10%,16%)" x1="245" x2="242" y1="251" y2="255" /><line stroke="rgb(10%,10%,16%)" x1="242" x2="230" y1="255" y2="255" /><line stroke="rgb(10%,10%,16%)" x1="230" x2="228" y1="255" y2="253" /><line stroke="rgb(10%,10%,16%)" x1="228" x2="221" y1="253" y2="253" /><line stroke="rgb(10%,10%,16%)" x1="221" x2="219" y1="253" y2="251" /><line stroke="rgb(10%,10%,16%)" x1="219" x2="214" y1="251" y2="251" /><line stroke="rgb(10%,10%,16%)" x1="214" x2="212" y1="251" y2="250" /><line stroke="rgb(10%,10%,16%)" x1="212" x2="205" y1="250" y2="250" /><line stroke="rgb(10%,10%,16%)" x1="205" x2="204" y1="250" y2="248" /><line stroke="rgb(10%,10%,16%)" x1="204" x2="195" y1="248" y2="248" /><line stroke="rgb(10%,10%,16%)" x1="195" x2="193" y1="248" y2="250" /><line stroke="rgb(10%,10%,16%)" x1="193" x2="191" y1="250" y2="250" /><line stroke="rgb(10%,10%,16%)" x1="191" x2="188" y1="250" y2="253" /><line stroke="rgb(10%,10%,16%)" x1="188" x2="176" y1="253" y2="253" /><line stroke="rgb(10%,10%,16%)" x1="176" x2="174" y1="253" y2="251" /><line stroke="rgb(10%,10%,16%)" x1="174" x2="166" y1="251" y2="251" /><line stroke="rgb(10%,10%,16%)" x1="166" x2="164" y1="251" y2="250" /><line stroke="rgb(10%,10%,16%)" x1="164" x2="155" y1="250" y2="250" /><line stroke="rgb(10%,10%,16%)" x1="155" x2="153" y1="250" y2="248" /><line stroke="rgb(10%,10%,16%)" x1="153" x2="145" y1="248" y2="248" /><line stroke="rgb(10%,10%,16%)" x1="145" x2="143" y1="248" y2="246" /><line stroke="rgb(10%,10%,16%)" x1="143" x2="134" y1="246" y2="246" /><line stroke="rgb(10%,10%,16%)" x1="134" x2="133" y1="246" y2="244" /><line stroke="rgb(10%,10%,16%)" x1="133" x2="126" y1="244" y2="244" /><line stroke="rgb(10%,10%,16%)" x1="126" x2="124" y1="244" y2="243" /><line stroke="rgb(10%,10%,16%)" x1="124" x2="119" y1="243" y2="243" /><line stroke="rgb(10%,10%,16%)" x1="119" x2="117" y1="243" y2="241" /><line stroke="rgb(10%,10%,16%)" x1="117" x2="114" y1="241" y2="241" /><line stroke="rgb(10%,10%,16%)" x1="114" x2="112" y1="241" y2="239" /><line stroke="rgb(10%,10%,16%)" x1="112" x2="110" y1="239" y2="239" /><line stroke="rgb(10%,10%,16%)" x1="110" x2="107" y1="239" y2="236" /><line stroke="rgb(10%,10%,16%)" x1="107" x2="105" y1="236" y2="236" /><line stroke="rgb(10%,10%,16%)" x1="105" x2="102" y1="236" y2="232" /><line stroke="rgb(10%,10%,16%)" x1="102" x2="100" y1="232" y2="232" /><line stroke="rgb(10%,10%,16%)" x1="100" x2="98" y1="232" y2="231" /><line stroke="rgb(10%,10%,16%)" x1="98" x2="95" y1="231" y2="231" /><line stroke="rgb(10%,10%,16%)" x1="95" x2="93" y1="231" y2="229" /><line stroke="rgb(10%,10%,16%)" x1="93" x2="88" y1="229" y2="229" /><line stroke="rgb(10%,10%,16%)" x1="88" x2="86" y1="229" y2="227" /><line stroke="rgb(10%,10%,16%)" x1="86" x2="72" y1="227" y2="227" /><line stroke="rgb(10%,10%,16%)" x1="72" x2="70" y1="227" y2="225" /><line stroke="rgb(10%,10%,16%)" x1="70" x2="50" y1="225" y2="225" /><line stroke="rgb(10%,10%,16%)" x1="50" x2="46" y1="225" y2="222" /><line stroke="rgb(10%,10%,16%)" x1="46" x2="44" y1="222" y2="222" /><line stroke="rgb(10%,10%,16%)" x1="44" x2="43" y1="222" y2="220" /><line stroke="rgb(10%,10%,16%)" x1="43" x2="41" y1="220" y2="220" /><line stroke="rgb(10%,10%,16%)" x1="41" x2="38" y1="220" y2="217" /><line stroke="rgb(10%,10%,16%)" x1="38" x2="38" y1="217" y2="207" /><line stroke="rgb(10%,10%,16%)" x1="38" x2="36" y1="207" y2="205" /><line stroke="rgb(10%,10%,16%)" x1="36" x2="36" y1="205" y2="201" /><line stroke="rgb(10%,10%,16%)" x1="36" x2="34" y1="201" y2="200" /><line stroke="rgb(10%,10%,16%)" x1="34" x2="34" y1="200" y2="196" /><line stroke="rgb(10%,10%,16%)" x1="34" x2="32" y1="196" y2="194" /><line stroke="rgb(10%,10%,16%)" x1="32" x2="32" y1="194" y2="188" /><line stroke="rgb(10%,10%,16%)" x1="32" x2="36" y1="188" y2="184" /><line stroke="rgb(10%,10%,16%)" x1="36" x2="38" y1="184" y2="184" /><line stroke="rgb(10%,10%,16%)" x1="38" x2="39" y1="184" y2="182" /><line stroke="rgb(10%,10%,16%)" x1="39" x2="39" y1="182" y2="174" /><line stroke="rgb(10%,10%,16%)" x1="39" x2="46" y1="174" y2="167" /><line stroke="rgb(10%,10%,16%)" x1="46" x2="48" y1="167" y2="167" /><line stroke="rgb(10%,10%,16%)" x1="48" x2="50" y1="167" y2="165" /><line stroke="rgb(10%,10%,16%)" x1="50" x2="51" y1="165" y2="165" /><line stroke="rgb(10%,10%,16%)" x1="51" x2="53" y1="165" y2="163" /><line stroke="rgb(10%,10%,16%)" x1="53" x2="53" y1="163" y2="162" /><line stroke="rgb(10%,10%,16%)" x1="53" x2="57" y1="162" y2="158" /><line stroke="rgb(10%,10%,16%)" x1="57" x2="58" y1="158" y2="158" /><line stroke="rgb(10%,10%,16%)" x1="58" x2="62" y1="158" y2="155" /><line stroke="rgb(10%,10%,16%)" x1="62" x2="70" y1="155" y2="155" /><line stroke="rgb(10%,10%,16%)" x1="70" x2="72" y1="155" y2="156" /><line stroke="rgb(10%,10%,16%)" x1="72" x2="79" y1="156" y2="156" /><line stroke="rgb(10%,10%,16%)" x1="79" x2="81" y1="156" y2="155" /><line stroke="rgb(10%,10%,16%)" x1="81" x2="81" y1="155" y2="153" /><line stroke="rgb(10%,10%,16%)" x1="81" x2="86" y1="153" y2="148" /><line stroke="rgb(10%,10%,16%)" x1="86" x2="88" y1="148" y2="148" /><line stroke="rgb(10%,10%,16%)" x1="88" x2="89" y1="148" y2="146" /><line stroke="rgb(10%,10%,16%)" x1="89" x2="98" y1="146" y2="146" /><line stroke="rgb(10%,10%,16%)" x1="98" x2="100" y1="146" y2="148" /><line stroke="rgb(10%,10%,16%)" x1="100" x2="107" y1="148" y2="148" /><line stroke="rgb(10%,10%,16%)" x1="107" x2="108" y1="148" y2="146" /><line stroke="rgb(10%,10%,16%)" x1="108" x2="108" y1="146" y2="144" /><line stroke="rgb(10%,10%,16%)" x1="108" x2="114" y1="144" y2="139" /><line stroke="rgb(10%,10%,16%)" x1="114" x2="115" y1="139" y2="139" /><line stroke="rgb(10%,10%,16%)" x1="115" x2="117" y1="139" y2="138" /><line stroke="rgb(10%,10%,16%)" x1="117" x2="126" y1="138" y2="138" /><line stroke="rgb(10%,10%,16%)" x1="126" x2="127" y1="138" y2="139" /><line stroke="rgb(10%,10%,16%)" x1="127" x2="134" y1="139" y2="139" /><line stroke="rgb(10%,10%,16%)" x1="134" x2="136" y1="139" y2="138" /><line stroke="rgb(10%,10%,16%)" x1="136" x2="136" y1="138" y2="136" /><line stroke="rgb(10%,10%,16%)" x1="136" x2="141" y1="136" y2="131" /><line stroke="rgb(10%,10%,16%)" x1="141" x2="143" y1="131" y2="131" /><line stroke="rgb(10%,10%,16%)" x1="143" x2="146" y1="131" y2="127" /><line stroke="rgb(10%,10%,16%)" x1="146" x2="150" y1="127" y2="127" /><line stroke="rgb(10%,10%,16%)" x1="150" x2="152" y1="127" y2="125" /><line stroke="rgb(10%,10%,16%)" x1="152" x2="155" y1="125" y2="125" /><line stroke="rgb(10%,10%,16%)" x1="155" x2="155" y1="125" y2="122" /><line stroke="rgb(10%,10%,16%)" x1="155" x2="160" y1="122" y2="117" /><line stroke="rgb(10%,10%,16%)" x1="160" x2="166" y1="117" y2="117" /><line stroke="rgb(10%,10%,16%)" x1="166" x2="166" y1="117" y2="110" /><line stroke="rgb(10%,10%,16%)" x1="166" x2="418" y1="110" y2="0" /><line stroke="rgb(10%,10%,16%)" x1="418" x2="420" y1="0" y2="0" /><line stroke="rgb(10%,10%,16%)" x1="420" x2="421" y1="0" y2="1" /><line stroke="rgb(10%,10%,16%)" x1="421" x2="423" y1="1" y2="1" /><line stroke="rgb(10%,10%,16%)" x1="423" x2="427" y1="1" y2="5" /><line stroke="rgb(10%,10%,16%)" x1="427" x2="428" y1="5" y2="5" /><line stroke="rgb(10%,10%,16%)" x1="428" x2="430" y1="5" y2="6" /><line stroke="rgb(10%,10%,16%)" x1="430" x2="432" y1="6" y2="6" /><line stroke="rgb(10%,10%,16%)" x1="432" x2="435" y1="6" y2="10" /><line stroke="rgb(10%,10%,16%)" x1="435" x2="437" y1="10" y2="10" /><line stroke="rgb(10%,10%,16%)" x1="437" x2="440" y1="10" y2="13" /><line stroke="rgb(10%,10%,16%)" x1="440" x2="442" y1="13" y2="13" /><line stroke="rgb(10%,10%,16%)" x1="442" x2="447" y1="13" y2="18" /><line stroke="rgb(10%,10%,16%)" x1="447" x2="449" y1="18" y2="18" /><line stroke="rgb(10%,10%,16%)" x1="449" x2="454" y1="18" y2="24" /><line stroke="rgb(10%,10%,16%)" x1="454" x2="456" y1="24" y2="24" /><line stroke="rgb(10%,10%,16%)" x1="456" x2="458" y1="24" y2="25" /><line stroke="rgb(10%,10%,16%)" x1="458" x2="458" y1="25" y2="0" /><line stroke="rgb(10%,10%,16%)" x1="458" x2="0" y1="0" y2="0" /><line stroke="rgb(10%,10%,16%)" x1="0" x2="0" y1="0" y2="43" /><line stroke="rgb(10%,10%,16%)" x1="0" x2="1" y1="43" y2="41" /><line stroke="rgb(10%,10%,16%)" x1="1" x2="3" y1="41" y2="41" /><line stroke="rgb(10%,10%,16%)" x1="3" x2="10" y1="41" y2="34" /><line stroke="rgb(10%,10%,16%)" x1="10" x2="12" y1="34" y2="34" /><line stroke="rgb(10%,10%,16%)" x1="12" x2="17" y1="34" y2="29" /><line stroke="rgb(10%,10%,16%)" x1="17" x2="19" y1="29" y2="29" /><line stroke="rgb(10%,10%,16%)" x1="19" x2="22" y1="29" y2="25" /><line stroke="rgb(10%,10%,16%)" x1="22" x2="24" y1="25" y2="25" /><line stroke="rgb(10%,10%,16%)" x1="24" x2="27" y1="25" y2="22" /><line stroke="rgb(10%,10%,16%)" x1="27" x2="29" y1="22" y2="22" /><line stroke="rgb(10%,10%,16%)" x1="29" x2="34" y1="22" y2="17" /><line stroke="rgb(10%,10%,16%)" x1="34" x2="36" y1="17" y2="17" /><line stroke="rgb(10%,10%,16%)" x1="36" x2="38" y1="17" y2="15" /><line stroke="rgb(10%,10%,16%)" x1="38" x2="39" y1="15" y2="15" /><line stroke="rgb(10%,10%,16%)" x1="39" x2="43" y1="15" y2="12" /><line stroke="rgb(10%,10%,16%)" x1="43" x2="44" y1="12" y2="12" /><line stroke="rgb(10%,10%,16%)" x1="44" x2="48" y1="12" y2="8" /><line stroke="rgb(10%,10%,16%)" x1="48" x2="50" y1="8" y2="8" /><line stroke="rgb(10%,10%,16%)" x1="50" x2="51" y1="8" y2="6" /><line stroke="rgb(10%,10%,16%)" x1="51" x2="53" y1="6" y2="6" /><line stroke="rgb(10%,10%,16%)" x1="53" x2="57" y1="6" y2="3" /><line stroke="rgb(10%,10%,16%)" x1="57" x2="58" y1="3" y2="3" /><line stroke="rgb(10%,10%,16%)" x1="58" x2="60" y1="3" y2="1" /><line stroke="rgb(10%,10%,16%)" x1="60" x2="62" y1="1" y2="1" /><line stroke="rgb(10%,10%,16%)" x1="62" x2="63" y1="1" y2="0" /><line stroke="rgb(10%,10%,16%)" x1="63" x2="65" y1="0" y2="0" /><line stroke="rgb(10%,10%,16%)" x1="65" x2="183" y1="0" y2="94" /><line stroke="rgb(10%,10%,16%)" x1="183" x2="160" y1="94" y2="117" /><line stroke="rgb(10%,10%,16%)" x1="160" x2="143" y1="117" y2="129" /><line stroke="rgb(10%,10%,16%)" x1="143" x2="110" y1="129" y2="141" /><line stroke="rgb(10%,10%,16%)" x1="110" x2="67" y1="141" y2="153" /><line stroke="rgb(10%,10%,16%)" x1="67" x2="48" y1="153" y2="167" /><line stroke="rgb(10%,10%,16%)" x1="48" x2="31" y1="167" y2="189" /><line stroke="rgb(10%,10%,16%)" x1="31" x2="48" y1="189" y2="224" /><line stroke="rgb(10%,10%,16%)" x1="48" x2="108" y1="224" y2="238" /><line stroke="rgb(10%,10%,16%)" x1="108" x2="166" y1="238" y2="251" /><line stroke="rgb(10%,10%,16%)" x1="166" x2="266" y1="251" y2="239" /><line stroke="rgb(10%,10%,16%)" x1="266" x2="390" y1="239" y2="208" /><line stroke="rgb(10%,10%,16%)" x1="390" x2="378" y1="208" y2="143" /><line stroke="rgb(10%,10%,16%)" x1="378" x2="349" y1="143" y2="119" /><line stroke="rgb(10%,10%,16%)" x1="349" x2="269" y1="119" y2="106" /><line stroke="rgb(10%,10%,16%)" x1="269" x2="228" y1="106" y2="122" /><line stroke="rgb(10%,10%,16%)" x1="228" x2="205" y1="122" y2="106" /><line stroke="rgb(10%,10%,16%)" x1="205" x2="185" y1="106" y2="96" /><line stroke="rgb(10%,10%,16%)" x1="185" x2="169" y1="96" y2="106" /><line stroke="rgb(10%,10%,16%)" x1="169" x2="209" y1="106" y2="120" /><line stroke="rgb(10%,10%,16%)" x1="209" x2="363" y1="120" y2="148" /><line stroke="rgb(10%,10%,16%)" x1="363" x2="402" y1="148" y2="163" /><line stroke="rgb(10%,10%,16%)" x1="402" x2="376" y1="163" y2="210" /><line stroke="rgb(10%,10%,16%)" x1="376" x2="347" y1="210" y2="238" /><line stroke="rgb(10%,10%,16%)" x1="347" x2="357" y1="238" y2="203" /><line stroke="rgb(10%,10%,16%)" x1="357" x2="316" y1="203" y2="243" /><line stroke="rgb(10%,10%,16%)" x1="316" x2="228" y1="243" y2="253" /><line stroke="rgb(10%,10%,16%)" x1="228" x2="117" y1="253" y2="241" /><line stroke="rgb(10%,10%,16%)" x1="117" x2="93" y1="241" y2="229" /><line stroke="rgb(10%,10%,16%)" x1="93" x2="36" y1="229" y2="205" /><line stroke="rgb(10%,10%,16%)" x1="36" x2="50" y1="205" y2="165" /><line stroke="rgb(10%,10%,16%)" x1="50" x2="81" y1="165" y2="155" /><line stroke="rgb(10%,10%,16%)" x1="81" x2="115" y1="155" y2="139" /><line stroke="rgb(10%,10%,16%)" x1="115" x2="152" y1="139" y2="125" /><line stroke="rgb(10%,10%,16%)" x1="152" x2="166" y1="125" y2="110" /></g></svg>