<?xml version="1.0" encoding="utf-8" ?>
<svg baseProfile="full" height="345" version="1.1" width="460" xmlns="http://www.w3.org/2000/svg" xmlns:ev="http://www.w3.org/2001/xml-events" xmlns:xlink="http://www.w3.org/1999/xlink"><defs /><g fill="none" id="shapes"><line stroke="rgb(10%,10%,16%)" x1="179" x2="210" y1="96" y2="112" /><line stroke="rgb(10%,10%,16%)" x1="210" x2="223" y1="112" y2="122" /><line stroke="rgb(10%,10%,16%)" x1="223" x2="240" y1="122" y2="110" /><line stroke="rgb(10%,10%,16%)" x1="240" x2="264" y1="110" y2="122" /><line stroke="rgb(10%,10%,16%)" x1="264" x2="283" y1="122" y2="106" /><line stroke="rgb(10%,10%,16%)" x1="283" x2="297" y1="106" y2="119" /><line stroke="rgb(10%,10%,16%)" x1="297" x2="307" y1="119" y2="108" /><line stroke="rgb(10%,10%,16%)" x1="307" x2="321" y1="108" y2="119" /><line stroke="rgb(10%,10%,16%)" x1="321" x2="363" y1="119" y2="148" /><line stroke="rgb(10%,10%,16%)" x1="363" x2="401" y1="148" y2="158" /><line stroke="rgb(10%,10%,16%)" x1="401" x2="411" y1="158" y2="172" /><line stroke="rgb(10%,10%,16%)" x1="411" x2="389" y1="172" y2="210" /><line stroke="rgb(10%,10%,16%)" x1="389" x2="375" y1="210" y2="231" /><line stroke="rgb(10%,10%,16%)" x1="375" x2="344" y1="231" y2="241" /><line stroke="rgb(10%,10%,16%)" x1="344" x2="333" y1="241" y2="229" /><line stroke="rgb(10%,10%,16%)" x1="333" x2="345" y1="229" y2="207" /><line stroke="rgb(10%,10%,16%)" x1="345" x2="370" y1="207" y2="196" /><line stroke="rgb(10%,10%,16%)" x1="370" x2="319" y1="196" y2="207" /><line stroke="rgb(10%,10%,16%)" x1="319" x2="307" y1="207" y2="248" /><line stroke="rgb(10%,10%,16%)" x1="307" x2="281" y1="248" y2="238" /><line stroke="rgb(10%,10%,16%)" x1="281" x2="249" y1="238" y2="251" /><line stroke="rgb(10%,10%,16%)" x1="249" x2="114" y1="251" y2="241" /><line stroke="rgb(10%,10%,16%)" x1="114" x2="95" y1="241" y2="231" /><line stroke="rgb(10%,10%,16%)" x1="95" x2="41" y1="231" y2="220" /><line stroke="rgb(10%,10%,16%)" x1="41" x2="31" y1="220" y2="193" /><line stroke="rgb(10%,10%,16%)" x1="31" x2="44" y1="193" y2="167" /><line stroke="rgb(10%,10%,16%)" x1="44" x2="60" y1="167" y2="155" /><line stroke="rgb(10%,10%,16%)" x1="60" x2="91" y1="155" y2="144" /><line stroke="rgb(10%,10%,16%)" x1="91" x2="136" y1="144" y2="134" /><line stroke="rgb(10%,10%,16%)" x1="136" x2="155" y1="134" y2="120" /><line stroke="rgb(10%,10%,16%)" x1="155" x2="166" y1="120" y2="108" /><line stroke="rgb(10%,10%,16%)" x1="166" x2="178" y1="108" y2="96" /></g></svg>