<?xml version="1.0" encoding="utf-8" ?>
<svg baseProfile="full" height="1600" version="1.1" width="1200" xmlns="http://www.w3.org/2000/svg" xmlns:ev="http://www.w3.org/2001/xml-events" xmlns:xlink="http://www.w3.org/1999/xlink"><defs /><g fill="none" id="shapes"><line stroke="rgb(10%,10%,16%)" x1="0" x2="110" y1="1600" y2="0" /><line stroke="rgb(10%,10%,16%)" x1="110" x2="134" y1="0" y2="45" /><line stroke="rgb(10%,10%,16%)" x1="134" x2="158" y1="45" y2="75" /><line stroke="rgb(10%,10%,16%)" x1="158" x2="189" y1="75" y2="105" /><line stroke="rgb(10%,10%,16%)" x1="189" x2="216" y1="105" y2="84" /><line stroke="rgb(10%,10%,16%)" x1="216" x2="383" y1="84" y2="103" /><line stroke="rgb(10%,10%,16%)" x1="383" x2="471" y1="103" y2="120" /><line stroke="rgb(10%,10%,16%)" x1="471" x2="546" y1="120" y2="140" /><line stroke="rgb(10%,10%,16%)" x1="546" x2="596" y1="140" y2="157" /><line stroke="rgb(10%,10%,16%)" x1="596" x2="705" y1="157" y2="180" /><line stroke="rgb(10%,10%,16%)" x1="705" x2="762" y1="180" y2="200" /><line stroke="rgb(10%,10%,16%)" x1="762" x2="918" y1="200" y2="182" /><line stroke="rgb(10%,10%,16%)" x1="918" x2="951" y1="182" y2="162" /><line stroke="rgb(10%,10%,16%)" x1="951" x2="1106" y1="162" y2="178" /><line stroke="rgb(10%,10%,16%)" x1="1106" x2="1131" y1="178" y2="138" /><line stroke="rgb(10%,10%,16%)" x1="1131" x2="1151" y1="138" y2="103" /><line stroke="rgb(10%,10%,16%)" x1="1151" x2="1199" y1="103" y2="87" /><line stroke="rgb(10%,10%,16%)" x1="1199" x2="1199" y1="87" y2="0" /><line stroke="rgb(10%,10%,16%)" x1="1199" x2="0" y1="0" y2="0" /><line stroke="rgb(10%,10%,16%)" x1="0" x2="49" y1="0" y2="335" /><line stroke="rgb(10%,10%,16%)" x1="49" x2="32" y1="335" y2="408" /><line stroke="rgb(10%,10%,16%)" x1="32" x2="15" y1="408" y2="532" /><line stroke="rgb(10%,10%,16%)" x1="15" x2="38" y1="532" y2="591" /><line stroke="rgb(10%,10%,16%)" x1="38" x2="60" y1="591" y2="625" /><line stroke="rgb(10%,10%,16%)" x1="60" x2="141" y1="625" y2="584" /><line stroke="rgb(10%,10%,16%)" x1="141" x2="177" y1="584" y2="509" /><line stroke="rgb(10%,10%,16%)" x1="177" x2="208" y1="509" y2="445" /><line stroke="rgb(10%,10%,16%)" x1="208" x2="226" y1="445" y2="489" /><line stroke="rgb(10%,10%,16%)" x1="226" x2="183" y1="489" y2="548" /><line stroke="rgb(10%,10%,16%)" x1="183" x2="139" y1="548" y2="669" /><line stroke="rgb(10%,10%,16%)" x1="139" x2="102" y1="669" y2="722" /><line stroke="rgb(10%,10%,16%)" x1="102" x2="72" y1="722" y2="753" /><line stroke="rgb(10%,10%,16%)" x1="72" x2="0" y1="753" y2="724" /><line stroke="rgb(10%,10%,16%)" x1="0" x2="60" y1="724" y2="775" /><line stroke="rgb(10%,10%,16%)" x1="60" x2="13" y1="775" y2="1192" /><line stroke="rgb(10%,10%,16%)" x1="13" x2="78" y1="1192" y2="1172" /><line stroke="rgb(10%,10%,16%)" x1="78" x2="49" y1="1172" y2="1100" /><line stroke="rgb(10%,10%,16%)" x1="49" x2="74" y1="1100" y2="1048" /><line stroke="rgb(10%,10%,16%)" x1="74" x2="123" y1="1048" y2="1066" /><line stroke="rgb(10%,10%,16%)" x1="123" x2="155" y1="1066" y2="1037" /><line stroke="rgb(10%,10%,16%)" x1="155" x2="199" y1="1037" y2="1006" /><line stroke="rgb(10%,10%,16%)" x1="199" x2="217" y1="1006" y2="853" /><line stroke="rgb(10%,10%,16%)" x1="217" x2="264" y1="853" y2="896" /><line stroke="rgb(10%,10%,16%)" x1="264" x2="242" y1="896" y2="1001" /><line stroke="rgb(10%,10%,16%)" x1="242" x2="209" y1="1001" y2="1067" /><line stroke="rgb(10%,10%,16%)" x1="209" x2="164" y1="1067" y2="1093" /><line stroke="rgb(10%,10%,16%)" x1="164" x2="123" y1="1093" y2="1125" /><line stroke="rgb(10%,10%,16%)" x1="123" x2="153" y1="1125" y2="1273" /><line stroke="rgb(10%,10%,16%)" x1="153" x2="184" y1="1273" y2="1321" /><line stroke="rgb(10%,10%,16%)" x1="184" x2="129" y1="1321" y2="1283" /><line stroke="rgb(10%,10%,16%)" x1="129" x2="70" y1="1283" y2="1246" /><line stroke="rgb(10%,10%,16%)" x1="70" x2="19" y1="1246" y2="1226" /><line stroke="rgb(10%,10%,16%)" x1="19" x2="1179" y1="1226" y2="1055" /><line stroke="rgb(10%,10%,16%)" x1="1179" x2="1117" y1="1055" y2="815" /><line stroke="rgb(10%,10%,16%)" x1="1117" x2="1090" y1="815" y2="719" /><line stroke="rgb(10%,10%,16%)" x1="1090" x2="1110" y1="719" y2="666" /><line stroke="rgb(10%,10%,16%)" x1="1110" x2="1126" y1="666" y2="446" /><line stroke="rgb(10%,10%,16%)" x1="1126" x2="1107" y1="446" y2="334" /><line stroke="rgb(10%,10%,16%)" x1="1107" x2="1084" y1="334" y2="290" /><line stroke="rgb(10%,10%,16%)" x1="1084" x2="1056" y1="290" y2="240" /><line stroke="rgb(10%,10%,16%)" x1="1056" x2="1025" y1="240" y2="206" /><line stroke="rgb(10%,10%,16%)" x1="1025" x2="993" y1="206" y2="233" /><line stroke="rgb(10%,10%,16%)" x1="993" x2="946" y1="233" y2="260" /><line stroke="rgb(10%,10%,16%)" x1="946" x2="912" y1="260" y2="288" /><line stroke="rgb(10%,10%,16%)" x1="912" x2="853" y1="288" y2="308" /><line stroke="rgb(10%,10%,16%)" x1="853" x2="786" y1="308" y2="288" /><line stroke="rgb(10%,10%,16%)" x1="786" x2="713" y1="288" y2="269" /><line stroke="rgb(10%,10%,16%)" x1="713" x2="642" y1="269" y2="250" /><line stroke="rgb(10%,10%,16%)" x1="642" x2="534" y1="250" y2="231" /><line stroke="rgb(10%,10%,16%)" x1="534" x2="460" y1="231" y2="203" /><line stroke="rgb(10%,10%,16%)" x1="460" x2="357" y1="203" y2="184" /><line stroke="rgb(10%,10%,16%)" x1="357" x2="77" y1="184" y2="144" /><line stroke="rgb(10%,10%,16%)" x1="77" x2="58" y1="144" y2="28" /><line stroke="rgb(10%,10%,16%)" x1="58" x2="55" y1="28" y2="0" /><line stroke="rgb(10%,10%,16%)" x1="55" x2="1199" y1="0" y2="113" /><line stroke="rgb(10%,10%,16%)" x1="1199" x2="1183" y1="113" y2="183" /><line stroke="rgb(10%,10%,16%)" x1="1183" x2="1167" y1="183" y2="272" /><line stroke="rgb(10%,10%,16%)" x1="1167" x2="1187" y1="272" y2="394" /><line stroke="rgb(10%,10%,16%)" x1="1187" x2="1199" y1="394" y2="464" /><line stroke="rgb(10%,10%,16%)" x1="1199" x2="92" y1="464" y2="214" /><line stroke="rgb(10%,10%,16%)" x1="92" x2="166" y1="214" y2="231" /><line stroke="rgb(10%,10%,16%)" x1="166" x2="245" y1="231" y2="252" /><line stroke="rgb(10%,10%,16%)" x1="245" x2="312" y1="252" y2="268" /><line stroke="rgb(10%,10%,16%)" x1="312" x2="359" y1="268" y2="224" /><line stroke="rgb(10%,10%,16%)" x1="359" x2="429" y1="224" y2="252" /><line stroke="rgb(10%,10%,16%)" x1="429" x2="374" y1="252" y2="274" /><line stroke="rgb(10%,10%,16%)" x1="374" x2="355" y1="274" y2="296" /><line stroke="rgb(10%,10%,16%)" x1="355" x2="184" y1="296" y2="312" /><line stroke="rgb(10%,10%,16%)" x1="184" x2="160" y1="312" y2="329" /><line stroke="rgb(10%,10%,16%)" x1="160" x2="134" y1="329" y2="304" /><line stroke="rgb(10%,10%,16%)" x1="134" x2="117" y1="304" y2="346" /><line stroke="rgb(10%,10%,16%)" x1="117" x2="91" y1="346" y2="324" /><line stroke="rgb(10%,10%,16%)" x1="91" x2="108" y1="324" y2="291" /><line stroke="rgb(10%,10%,16%)" x1="108" x2="92" y1="291" y2="234" /><line stroke="rgb(10%,10%,16%)" x1="92" x2="936" y1="234" y2="293" /><line stroke="rgb(10%,10%,16%)" x1="936" x2="984" y1="293" y2="318" /><line stroke="rgb(10%,10%,16%)" x1="984" x2="899" y1="318" y2="301" /><line stroke="rgb(10%,10%,16%)" x1="899" x2="935" y1="301" y2="293" /><line stroke="rgb(10%,10%,16%)" x1="935" x2="1033" y1="293" y2="331" /><line stroke="rgb(10%,10%,16%)" x1="1033" x2="1033" y1="331" y2="331" /><line stroke="rgb(10%,10%,16%)" x1="1033" x2="1073" y1="331" y2="364" /><line stroke="rgb(10%,10%,16%)" x1="1073" x2="1050" y1="364" y2="387" /><line stroke="rgb(10%,10%,16%)" x1="1050" x2="1034" y1="387" y2="352" /><line stroke="rgb(10%,10%,16%)" x1="1034" x2="1033" y1="352" y2="351" /><line stroke="rgb(10%,10%,16%)" x1="1033" x2="415" y1="351" y2="519" /><line stroke="rgb(10%,10%,16%)" x1="415" x2="415" y1="519" y2="519" /><line stroke="rgb(10%,10%,16%)" x1="415" x2="439" y1="519" y2="552" /><line stroke="rgb(10%,10%,16%)" x1="439" x2="422" y1="552" y2="577" /><line stroke="rgb(10%,10%,16%)" x1="422" x2="401" y1="577" y2="548" /><line stroke="rgb(10%,10%,16%)" x1="401" x2="413" y1="548" y2="521" /><line stroke="rgb(10%,10%,16%)" x1="413" x2="1146" y1="521" y2="554" /><line stroke="rgb(10%,10%,16%)" x1="1146" x2="1162" y1="554" y2="580" /><line stroke="rgb(10%,10%,16%)" x1="1162" x2="1179" y1="580" y2="596" /><line stroke="rgb(10%,10%,16%)" x1="1179" x2="1199" y1="596" y2="569" /><line stroke="rgb(10%,10%,16%)" x1="1199" x2="1148" y1="569" y2="554" /><line stroke="rgb(10%,10%,16%)" x1="1148" x2="1003" y1="554" y2="629" /><line stroke="rgb(10%,10%,16%)" x1="1003" x2="1003" y1="629" y2="629" /><line stroke="rgb(10%,10%,16%)" x1="1003" x2="1030" y1="629" y2="674" /><line stroke="rgb(10%,10%,16%)" x1="1030" x2="1003" y1="674" y2="658" /><line stroke="rgb(10%,10%,16%)" x1="1003" x2="1003" y1="658" y2="658" /><line stroke="rgb(10%,10%,16%)" x1="1003" x2="284" y1="658" y2="639" /><line stroke="rgb(10%,10%,16%)" x1="284" x2="309" y1="639" y2="666" /><line stroke="rgb(10%,10%,16%)" x1="309" x2="327" y1="666" y2="682" /><line stroke="rgb(10%,10%,16%)" x1="327" x2="360" y1="682" y2="699" /><line stroke="rgb(10%,10%,16%)" x1="360" x2="342" y1="699" y2="752" /><line stroke="rgb(10%,10%,16%)" x1="342" x2="316" y1="752" y2="735" /><line stroke="rgb(10%,10%,16%)" x1="316" x2="275" y1="735" y2="719" /><line stroke="rgb(10%,10%,16%)" x1="275" x2="280" y1="719" y2="643" /><line stroke="rgb(10%,10%,16%)" x1="280" x2="824" y1="643" y2="679" /><line stroke="rgb(10%,10%,16%)" x1="824" x2="863" y1="679" y2="697" /><line stroke="rgb(10%,10%,16%)" x1="863" x2="846" y1="697" y2="774" /><line stroke="rgb(10%,10%,16%)" x1="846" x2="825" y1="774" y2="790" /><line stroke="rgb(10%,10%,16%)" x1="825" x2="774" y1="790" y2="769" /><line stroke="rgb(10%,10%,16%)" x1="774" x2="791" y1="769" y2="700" /><line stroke="rgb(10%,10%,16%)" x1="791" x2="810" y1="700" y2="684" /><line stroke="rgb(10%,10%,16%)" x1="810" x2="824" y1="684" y2="682" /><line stroke="rgb(10%,10%,16%)" x1="824" x2="125" y1="682" y2="686" /><line stroke="rgb(10%,10%,16%)" x1="125" x2="172" y1="686" y2="721" /><line stroke="rgb(10%,10%,16%)" x1="172" x2="153" y1="721" y2="772" /><line stroke="rgb(10%,10%,16%)" x1="153" x2="137" y1="772" y2="722" /><line stroke="rgb(10%,10%,16%)" x1="137" x2="125" y1="722" y2="707" /><line stroke="rgb(10%,10%,16%)" x1="125" x2="1050" y1="707" y2="687" /><line stroke="rgb(10%,10%,16%)" x1="1050" x2="1083" y1="687" y2="711" /><line stroke="rgb(10%,10%,16%)" x1="1083" x2="1067" y1="711" y2="792" /><line stroke="rgb(10%,10%,16%)" x1="1067" x2="1051" y1="792" y2="867" /><line stroke="rgb(10%,10%,16%)" x1="1051" x2="1028" y1="867" y2="896" /><line stroke="rgb(10%,10%,16%)" x1="1028" x2="1012" y1="896" y2="859" /><line stroke="rgb(10%,10%,16%)" x1="1012" x2="996" y1="859" y2="843" /><line stroke="rgb(10%,10%,16%)" x1="996" x2="1019" y1="843" y2="781" /><line stroke="rgb(10%,10%,16%)" x1="1019" x2="1048" y1="781" y2="688" /><line stroke="rgb(10%,10%,16%)" x1="1048" x2="1049" y1="688" y2="687" /><line stroke="rgb(10%,10%,16%)" x1="1049" x2="554" y1="687" y2="703" /><line stroke="rgb(10%,10%,16%)" x1="554" x2="615" y1="703" y2="721" /><line stroke="rgb(10%,10%,16%)" x1="615" x2="599" y1="721" y2="777" /><line stroke="rgb(10%,10%,16%)" x1="599" x2="583" y1="777" y2="795" /><line stroke="rgb(10%,10%,16%)" x1="583" x2="559" y1="795" y2="767" /><line stroke="rgb(10%,10%,16%)" x1="559" x2="534" y1="767" y2="788" /><line stroke="rgb(10%,10%,16%)" x1="534" x2="509" y1="788" y2="757" /><line stroke="rgb(10%,10%,16%)" x1="509" x2="529" y1="757" y2="724" /><line stroke="rgb(10%,10%,16%)" x1="529" x2="547" y1="724" y2="751" /><line stroke="rgb(10%,10%,16%)" x1="547" x2="550" y1="751" y2="703" /><line stroke="rgb(10%,10%,16%)" x1="550" x2="1198" y1="703" y2="763" /><line stroke="rgb(10%,10%,16%)" x1="1198" x2="1198" y1="763" y2="763" /><line stroke="rgb(10%,10%,16%)" x1="1198" x2="1119" y1="763" y2="780" /><line stroke="rgb(10%,10%,16%)" x1="1119" x2="1199" y1="780" y2="763" /><line stroke="rgb(10%,10%,16%)" x1="1199" x2="1199" y1="763" y2="763" /><line stroke="rgb(10%,10%,16%)" x1="1199" x2="1088" y1="763" y2="825" /><line stroke="rgb(10%,10%,16%)" x1="1088" x2="1088" y1="825" y2="825" /><line stroke="rgb(10%,10%,16%)" x1="1088" x2="1180" y1="825" y2="869" /><line stroke="rgb(10%,10%,16%)" x1="1180" x2="1130" y1="869" y2="887" /><line stroke="rgb(10%,10%,16%)" x1="1130" x2="1082" y1="887" y2="864" /><line stroke="rgb(10%,10%,16%)" x1="1082" x2="1088" y1="864" y2="827" /><line stroke="rgb(10%,10%,16%)" x1="1088" x2="95" y1="827" y2="828" /><line stroke="rgb(10%,10%,16%)" x1="95" x2="121" y1="828" y2="861" /><line stroke="rgb(10%,10%,16%)" x1="121" x2="78" y1="861" y2="841" /><line stroke="rgb(10%,10%,16%)" x1="78" x2="81" y1="841" y2="828" /><line stroke="rgb(10%,10%,16%)" x1="81" x2="757" y1="828" y2="852" /><line stroke="rgb(10%,10%,16%)" x1="757" x2="757" y1="852" y2="852" /><line stroke="rgb(10%,10%,16%)" x1="757" x2="784" y1="852" y2="880" /><line stroke="rgb(10%,10%,16%)" x1="784" x2="750" y1="880" y2="900" /><line stroke="rgb(10%,10%,16%)" x1="750" x2="733" y1="900" y2="919" /><line stroke="rgb(10%,10%,16%)" x1="733" x2="685" y1="919" y2="881" /><line stroke="rgb(10%,10%,16%)" x1="685" x2="737" y1="881" y2="854" /><line stroke="rgb(10%,10%,16%)" x1="737" x2="757" y1="854" y2="853" /><line stroke="rgb(10%,10%,16%)" x1="757" x2="975" y1="853" y2="853" /><line stroke="rgb(10%,10%,16%)" x1="975" x2="1002" y1="853" y2="871" /><line stroke="rgb(10%,10%,16%)" x1="1002" x2="986" y1="871" y2="911" /><line stroke="rgb(10%,10%,16%)" x1="986" x2="975" y1="911" y2="858" /><line stroke="rgb(10%,10%,16%)" x1="975" x2="949" y1="858" y2="879" /><line stroke="rgb(10%,10%,16%)" x1="949" x2="976" y1="879" y2="896" /><line stroke="rgb(10%,10%,16%)" x1="976" x2="992" y1="896" y2="937" /><line stroke="rgb(10%,10%,16%)" x1="992" x2="1008" y1="937" y2="975" /><line stroke="rgb(10%,10%,16%)" x1="1008" x2="980" y1="975" y2="1012" /><line stroke="rgb(10%,10%,16%)" x1="980" x2="936" y1="1012" y2="979" /><line stroke="rgb(10%,10%,16%)" x1="936" x2="920" y1="979" y2="946" /><line stroke="rgb(10%,10%,16%)" x1="920" x2="900" y1="946" y2="930" /><line stroke="rgb(10%,10%,16%)" x1="900" x2="933" y1="930" y2="895" /><line stroke="rgb(10%,10%,16%)" x1="933" x2="947" y1="895" y2="881" /><line stroke="rgb(10%,10%,16%)" x1="947" x2="1081" y1="881" y2="893" /><line stroke="rgb(10%,10%,16%)" x1="1081" x2="1113" y1="893" y2="922" /><line stroke="rgb(10%,10%,16%)" x1="1113" x2="1131" y1="922" y2="1045" /><line stroke="rgb(10%,10%,16%)" x1="1131" x2="1113" y1="1045" y2="1178" /><line stroke="rgb(10%,10%,16%)" x1="1113" x2="1132" y1="1178" y2="1217" /><line stroke="rgb(10%,10%,16%)" x1="1132" x2="1108" y1="1217" y2="1268" /><line stroke="rgb(10%,10%,16%)" x1="1108" x2="1080" y1="1268" y2="1290" /><line stroke="rgb(10%,10%,16%)" x1="1080" x2="1054" y1="1290" y2="1315" /><line stroke="rgb(10%,10%,16%)" x1="1054" x2="1036" y1="1315" y2="1348" /><line stroke="rgb(10%,10%,16%)" x1="1036" x2="993" y1="1348" y2="1365" /><line stroke="rgb(10%,10%,16%)" x1="993" x2="973" y1="1365" y2="1396" /><line stroke="rgb(10%,10%,16%)" x1="973" x2="952" y1="1396" y2="1432" /><line stroke="rgb(10%,10%,16%)" x1="952" x2="722" y1="1432" y2="1449" /><line stroke="rgb(10%,10%,16%)" x1="722" x2="683" y1="1449" y2="1470" /><line stroke="rgb(10%,10%,16%)" x1="683" x2="653" y1="1470" y2="1451" /><line stroke="rgb(10%,10%,16%)" x1="653" x2="677" y1="1451" y2="1434" /><line stroke="rgb(10%,10%,16%)" x1="677" x2="747" y1="1434" y2="1406" /><line stroke="rgb(10%,10%,16%)" x1="747" x2="767" y1="1406" y2="1389" /><line stroke="rgb(10%,10%,16%)" x1="767" x2="810" y1="1389" y2="1371" /><line stroke="rgb(10%,10%,16%)" x1="810" x2="880" y1="1371" y2="1354" /><line stroke="rgb(10%,10%,16%)" x1="880" x2="943" y1="1354" y2="1337" /><line stroke="rgb(10%,10%,16%)" x1="943" x2="981" y1="1337" y2="1313" /><line stroke="rgb(10%,10%,16%)" x1="981" x2="1003" y1="1313" y2="1284" /><line stroke="rgb(10%,10%,16%)" x1="1003" x2="1020" y1="1284" y2="1262" /><line stroke="rgb(10%,10%,16%)" x1="1020" x2="1040" y1="1262" y2="1241" /><line stroke="rgb(10%,10%,16%)" x1="1040" x2="1058" y1="1241" y2="1193" /><line stroke="rgb(10%,10%,16%)" x1="1058" x2="1074" y1="1193" y2="1016" /><line stroke="rgb(10%,10%,16%)" x1="1074" x2="1081" y1="1016" y2="894" /><line stroke="rgb(10%,10%,16%)" x1="1081" x2="323" y1="894" y2="896" /><line stroke="rgb(10%,10%,16%)" x1="323" x2="364" y1="896" y2="920" /><line stroke="rgb(10%,10%,16%)" x1="364" x2="322" y1="920" y2="902" /><line stroke="rgb(10%,10%,16%)" x1="322" x2="323" y1="902" y2="901" /><line stroke="rgb(10%,10%,16%)" x1="323" x2="582" y1="901" y2="898" /><line stroke="rgb(10%,10%,16%)" x1="582" x2="610" y1="898" y2="918" /><line stroke="rgb(10%,10%,16%)" x1="610" x2="593" y1="918" y2="958" /><line stroke="rgb(10%,10%,16%)" x1="593" x2="530" y1="958" y2="942" /><line stroke="rgb(10%,10%,16%)" x1="530" x2="564" y1="942" y2="922" /><line stroke="rgb(10%,10%,16%)" x1="564" x2="582" y1="922" y2="907" /><line stroke="rgb(10%,10%,16%)" x1="582" x2="435" y1="907" y2="905" /><line stroke="rgb(10%,10%,16%)" x1="435" x2="471" y1="905" y2="924" /><line stroke="rgb(10%,10%,16%)" x1="471" x2="514" y1="924" y2="946" /><line stroke="rgb(10%,10%,16%)" x1="514" x2="497" y1="946" y2="997" /><line stroke="rgb(10%,10%,16%)" x1="497" x2="514" y1="997" y2="1030" /><line stroke="rgb(10%,10%,16%)" x1="514" x2="498" y1="1030" y2="1169" /><line stroke="rgb(10%,10%,16%)" x1="498" x2="482" y1="1169" y2="1128" /><line stroke="rgb(10%,10%,16%)" x1="482" x2="465" y1="1128" y2="1027" /><line stroke="rgb(10%,10%,16%)" x1="465" x2="447" y1="1027" y2="995" /><line stroke="rgb(10%,10%,16%)" x1="447" x2="426" y1="995" y2="979" /><line stroke="rgb(10%,10%,16%)" x1="426" x2="385" y1="979" y2="961" /><line stroke="rgb(10%,10%,16%)" x1="385" x2="362" y1="961" y2="945" /><line stroke="rgb(10%,10%,16%)" x1="362" x2="395" y1="945" y2="922" /><line stroke="rgb(10%,10%,16%)" x1="395" x2="422" y1="922" y2="949" /><line stroke="rgb(10%,10%,16%)" x1="422" x2="435" y1="949" y2="936" /><line stroke="rgb(10%,10%,16%)" x1="435" x2="621" y1="936" y2="912" /><line stroke="rgb(10%,10%,16%)" x1="621" x2="621" y1="912" y2="912" /><line stroke="rgb(10%,10%,16%)" x1="621" x2="680" y1="912" y2="928" /><line stroke="rgb(10%,10%,16%)" x1="680" x2="664" y1="928" y2="993" /><line stroke="rgb(10%,10%,16%)" x1="664" x2="636" y1="993" y2="964" /><line stroke="rgb(10%,10%,16%)" x1="636" x2="621" y1="964" y2="947" /><line stroke="rgb(10%,10%,16%)" x1="621" x2="785" y1="947" y2="918" /><line stroke="rgb(10%,10%,16%)" x1="785" x2="785" y1="918" y2="918" /><line stroke="rgb(10%,10%,16%)" x1="785" x2="823" y1="918" y2="948" /><line stroke="rgb(10%,10%,16%)" x1="823" x2="777" y1="948" y2="922" /><line stroke="rgb(10%,10%,16%)" x1="777" x2="783" y1="922" y2="920" /><line stroke="rgb(10%,10%,16%)" x1="783" x2="738" y1="920" y2="944" /><line stroke="rgb(10%,10%,16%)" x1="738" x2="738" y1="944" y2="944" /><line stroke="rgb(10%,10%,16%)" x1="738" x2="766" y1="944" y2="966" /><line stroke="rgb(10%,10%,16%)" x1="766" x2="739" y1="966" y2="982" /><line stroke="rgb(10%,10%,16%)" x1="739" x2="697" y1="982" y2="955" /><line stroke="rgb(10%,10%,16%)" x1="697" x2="738" y1="955" y2="946" /><line stroke="rgb(10%,10%,16%)" x1="738" x2="682" y1="946" y2="1014" /><line stroke="rgb(10%,10%,16%)" x1="682" x2="682" y1="1014" y2="1014" /><line stroke="rgb(10%,10%,16%)" x1="682" x2="705" y1="1014" y2="1037" /><line stroke="rgb(10%,10%,16%)" x1="705" x2="687" y1="1037" y2="1075" /><line stroke="rgb(10%,10%,16%)" x1="687" x2="665" y1="1075" y2="1059" /><line stroke="rgb(10%,10%,16%)" x1="665" x2="681" y1="1059" y2="1029" /><line stroke="rgb(10%,10%,16%)" x1="681" x2="682" y1="1029" y2="1016" /><line stroke="rgb(10%,10%,16%)" x1="682" x2="384" y1="1016" y2="1171" /><line stroke="rgb(10%,10%,16%)" x1="384" x2="416" y1="1171" y2="1190" /><line stroke="rgb(10%,10%,16%)" x1="416" x2="442" y1="1190" y2="1170" /><line stroke="rgb(10%,10%,16%)" x1="442" x2="481" y1="1170" y2="1208" /><line stroke="rgb(10%,10%,16%)" x1="481" x2="500" y1="1208" y2="1308" /><line stroke="rgb(10%,10%,16%)" x1="500" x2="521" y1="1308" y2="1344" /><line stroke="rgb(10%,10%,16%)" x1="521" x2="454" y1="1344" y2="1379" /><line stroke="rgb(10%,10%,16%)" x1="454" x2="423" y1="1379" y2="1395" /><line stroke="rgb(10%,10%,16%)" x1="423" x2="402" y1="1395" y2="1374" /><line stroke="rgb(10%,10%,16%)" x1="402" x2="421" y1="1374" y2="1337" /><line stroke="rgb(10%,10%,16%)" x1="421" x2="438" y1="1337" y2="1298" /><line stroke="rgb(10%,10%,16%)" x1="438" x2="417" y1="1298" y2="1263" /><line stroke="rgb(10%,10%,16%)" x1="417" x2="397" y1="1263" y2="1230" /><line stroke="rgb(10%,10%,16%)" x1="397" x2="362" y1="1230" y2="1199" /><line stroke="rgb(10%,10%,16%)" x1="362" x2="378" y1="1199" y2="1177" /><line stroke="rgb(10%,10%,16%)" x1="378" x2="384" y1="1177" y2="1175" /><line stroke="rgb(10%,10%,16%)" x1="384" x2="781" y1="1175" y2="1173" /><line stroke="rgb(10%,10%,16%)" x1="781" x2="810" y1="1173" y2="1194" /><line stroke="rgb(10%,10%,16%)" x1="810" x2="790" y1="1194" y2="1225" /><line stroke="rgb(10%,10%,16%)" x1="790" x2="772" y1="1225" y2="1306" /><line stroke="rgb(10%,10%,16%)" x1="772" x2="790" y1="1306" y2="1338" /><line stroke="rgb(10%,10%,16%)" x1="790" x2="773" y1="1338" y2="1358" /><line stroke="rgb(10%,10%,16%)" x1="773" x2="668" y1="1358" y2="1328" /><line stroke="rgb(10%,10%,16%)" x1="668" x2="698" y1="1328" y2="1312" /><line stroke="rgb(10%,10%,16%)" x1="698" x2="725" y1="1312" y2="1328" /><line stroke="rgb(10%,10%,16%)" x1="725" x2="743" y1="1328" y2="1302" /><line stroke="rgb(10%,10%,16%)" x1="743" x2="766" y1="1302" y2="1189" /><line stroke="rgb(10%,10%,16%)" x1="766" x2="779" y1="1189" y2="1175" /><line stroke="rgb(10%,10%,16%)" x1="779" x2="579" y1="1175" y2="1327" /><line stroke="rgb(10%,10%,16%)" x1="579" x2="579" y1="1327" y2="1327" /><line stroke="rgb(10%,10%,16%)" x1="579" x2="617" y1="1327" y2="1350" /><line stroke="rgb(10%,10%,16%)" x1="617" x2="577" y1="1350" y2="1331" /><line stroke="rgb(10%,10%,16%)" x1="577" x2="579" y1="1331" y2="1329" /><line stroke="rgb(10%,10%,16%)" x1="579" x2="183" y1="1329" y2="1357" /><line stroke="rgb(10%,10%,16%)" x1="183" x2="183" y1="1357" y2="1357" /><line stroke="rgb(10%,10%,16%)" x1="183" x2="214" y1="1357" y2="1375" /><line stroke="rgb(10%,10%,16%)" x1="214" x2="230" y1="1375" y2="1404" /><line stroke="rgb(10%,10%,16%)" x1="230" x2="169" y1="1404" y2="1388" /><line stroke="rgb(10%,10%,16%)" x1="169" x2="183" y1="1388" y2="1358" /><line stroke="rgb(10%,10%,16%)" x1="183" x2="616" y1="1358" y2="1400" /><line stroke="rgb(10%,10%,16%)" x1="616" x2="640" y1="1400" y2="1418" /><line stroke="rgb(10%,10%,16%)" x1="640" x2="623" y1="1418" y2="1450" /><line stroke="rgb(10%,10%,16%)" x1="623" x2="536" y1="1450" y2="1469" /><line stroke="rgb(10%,10%,16%)" x1="536" x2="504" y1="1469" y2="1489" /><line stroke="rgb(10%,10%,16%)" x1="504" x2="413" y1="1489" y2="1506" /><line stroke="rgb(10%,10%,16%)" x1="413" x2="322" y1="1506" y2="1480" /><line stroke="rgb(10%,10%,16%)" x1="322" x2="296" y1="1480" y2="1456" /><line stroke="rgb(10%,10%,16%)" x1="296" x2="318" y1="1456" y2="1419" /><line stroke="rgb(10%,10%,16%)" x1="318" x2="373" y1="1419" y2="1436" /><line stroke="rgb(10%,10%,16%)" x1="373" x2="436" y1="1436" y2="1452" /><line stroke="rgb(10%,10%,16%)" x1="436" x2="519" y1="1452" y2="1435" /><line stroke="rgb(10%,10%,16%)" x1="519" x2="550" y1="1435" y2="1407" /><line stroke="rgb(10%,10%,16%)" x1="550" x2="616" y1="1407" y2="1406" /><line stroke="rgb(10%,10%,16%)" x1="616" x2="477" y1="1406" y2="1497" /><line stroke="rgb(10%,10%,16%)" x1="477" x2="477" y1="1497" y2="1497" /><line stroke="rgb(10%,10%,16%)" x1="477" x2="506" y1="1497" y2="1520" /><line stroke="rgb(10%,10%,16%)" x1="506" x2="453" y1="1520" y2="1504" /><line stroke="rgb(10%,10%,16%)" x1="453" x2="476" y1="1504" y2="1497" /></g></svg>