<?xml version="1.0" encoding="utf-8" ?>
<svg baseProfile="full" height="1129" version="1.1" width="1701" xmlns="http://www.w3.org/2000/svg" xmlns:ev="http://www.w3.org/2001/xml-events" xmlns:xlink="http://www.w3.org/1999/xlink"><defs /><g fill="none" id="shapes"><line stroke="rgb(10%,10%,16%)" x1="0" x2="0" y1="1129" y2="0" /><line stroke="rgb(10%,10%,16%)" x1="0" x2="281" y1="0" y2="1071" /><line stroke="rgb(10%,10%,16%)" x1="281" x2="364" y1="1071" y2="986" /><line stroke="rgb(10%,10%,16%)" x1="364" x2="425" y1="986" y2="940" /><line stroke="rgb(10%,10%,16%)" x1="425" x2="494" y1="940" y2="893" /><line stroke="rgb(10%,10%,16%)" x1="494" x2="545" y1="893" y2="862" /><line stroke="rgb(10%,10%,16%)" x1="545" x2="610" y1="862" y2="808" /><line stroke="rgb(10%,10%,16%)" x1="610" x2="696" y1="808" y2="783" /><line stroke="rgb(10%,10%,16%)" x1="696" x2="665" y1="783" y2="642" /><line stroke="rgb(10%,10%,16%)" x1="665" x2="626" y1="642" y2="560" /><line stroke="rgb(10%,10%,16%)" x1="626" x2="602" y1="560" y2="510" /><line stroke="rgb(10%,10%,16%)" x1="602" x2="572" y1="510" y2="440" /><line stroke="rgb(10%,10%,16%)" x1="572" x2="585" y1="440" y2="199" /><line stroke="rgb(10%,10%,16%)" x1="585" x2="649" y1="199" y2="126" /><line stroke="rgb(10%,10%,16%)" x1="649" x2="702" y1="126" y2="85" /><line stroke="rgb(10%,10%,16%)" x1="702" x2="772" y1="85" y2="167" /><line stroke="rgb(10%,10%,16%)" x1="772" x2="800" y1="167" y2="198" /><line stroke="rgb(10%,10%,16%)" x1="800" x2="835" y1="198" y2="214" /><line stroke="rgb(10%,10%,16%)" x1="835" x2="914" y1="214" y2="180" /><line stroke="rgb(10%,10%,16%)" x1="914" x2="937" y1="180" y2="160" /><line stroke="rgb(10%,10%,16%)" x1="937" x2="879" y1="160" y2="130" /><line stroke="rgb(10%,10%,16%)" x1="879" x2="734" y1="130" y2="81" /><line stroke="rgb(10%,10%,16%)" x1="734" x2="816" y1="81" y2="46" /><line stroke="rgb(10%,10%,16%)" x1="816" x2="947" y1="46" y2="76" /><line stroke="rgb(10%,10%,16%)" x1="947" x2="1013" y1="76" y2="120" /><line stroke="rgb(10%,10%,16%)" x1="1013" x2="992" y1="120" y2="214" /><line stroke="rgb(10%,10%,16%)" x1="992" x2="1079" y1="214" y2="226" /><line stroke="rgb(10%,10%,16%)" x1="1079" x2="1107" y1="226" y2="361" /><line stroke="rgb(10%,10%,16%)" x1="1107" x2="1065" y1="361" y2="465" /><line stroke="rgb(10%,10%,16%)" x1="1065" x2="1049" y1="465" y2="685" /><line stroke="rgb(10%,10%,16%)" x1="1049" x2="1012" y1="685" y2="755" /><line stroke="rgb(10%,10%,16%)" x1="1012" x2="972" y1="755" y2="824" /><line stroke="rgb(10%,10%,16%)" x1="972" x2="867" y1="824" y2="863" /><line stroke="rgb(10%,10%,16%)" x1="867" x2="752" y1="863" y2="893" /><line stroke="rgb(10%,10%,16%)" x1="752" x2="676" y1="893" y2="830" /><line stroke="rgb(10%,10%,16%)" x1="676" x2="575" y1="830" y2="893" /><line stroke="rgb(10%,10%,16%)" x1="575" x2="498" y1="893" y2="945" /><line stroke="rgb(10%,10%,16%)" x1="498" x2="415" y1="945" y2="1025" /><line stroke="rgb(10%,10%,16%)" x1="415" x2="317" y1="1025" y2="1096" /><line stroke="rgb(10%,10%,16%)" x1="317" x2="1352" y1="1096" y2="1046" /><line stroke="rgb(10%,10%,16%)" x1="1352" x2="1292" y1="1046" y2="948" /><line stroke="rgb(10%,10%,16%)" x1="1292" x2="1193" y1="948" y2="898" /><line stroke="rgb(10%,10%,16%)" x1="1193" x2="1116" y1="898" y2="829" /><line stroke="rgb(10%,10%,16%)" x1="1116" x2="1141" y1="829" y2="809" /><line stroke="rgb(10%,10%,16%)" x1="1141" x2="1200" y1="809" y2="834" /><line stroke="rgb(10%,10%,16%)" x1="1200" x2="1258" y1="834" y2="865" /><line stroke="rgb(10%,10%,16%)" x1="1258" x2="1308" y1="865" y2="891" /><line stroke="rgb(10%,10%,16%)" x1="1308" x2="1363" y1="891" y2="954" /><line stroke="rgb(10%,10%,16%)" x1="1363" x2="1389" y1="954" y2="1010" /><line stroke="rgb(10%,10%,16%)" x1="1389" x2="1414" y1="1010" y2="1072" /><line stroke="rgb(10%,10%,16%)" x1="1414" x2="1700" y1="1072" y2="0" /><line stroke="rgb(10%,10%,16%)" x1="1700" x2="691" y1="0" y2="153" /><line stroke="rgb(10%,10%,16%)" x1="691" x2="692" y1="153" y2="154" /><line stroke="rgb(10%,10%,16%)" x1="692" x2="757" y1="154" y2="193" /><line stroke="rgb(10%,10%,16%)" x1="757" x2="757" y1="193" y2="196" /><line stroke="rgb(10%,10%,16%)" x1="757" x2="944" y1="196" y2="230" /><line stroke="rgb(10%,10%,16%)" x1="944" x2="949" y1="230" y2="230" /><line stroke="rgb(10%,10%,16%)" x1="949" x2="731" y1="230" y2="395" /><line stroke="rgb(10%,10%,16%)" x1="731" x2="731" y1="395" y2="400" /><line stroke="rgb(10%,10%,16%)" x1="731" x2="1000" y1="400" y2="434" /><line stroke="rgb(10%,10%,16%)" x1="1000" x2="1000" y1="434" y2="436" /><line stroke="rgb(10%,10%,16%)" x1="1000" x2="981" y1="436" y2="468" /><line stroke="rgb(10%,10%,16%)" x1="981" x2="981" y1="468" y2="480" /><line stroke="rgb(10%,10%,16%)" x1="981" x2="952" y1="480" y2="669" /><line stroke="rgb(10%,10%,16%)" x1="952" x2="951" y1="669" y2="669" /><line stroke="rgb(10%,10%,16%)" x1="951" x2="822" y1="669" y2="712" /><line stroke="rgb(10%,10%,16%)" x1="822" x2="822" y1="712" y2="734" /><line stroke="rgb(10%,10%,16%)" x1="822" x2="819" y1="734" y2="751" /><line stroke="rgb(10%,10%,16%)" x1="819" x2="819" y1="751" y2="763" /><line stroke="rgb(10%,10%,16%)" x1="819" x2="905" y1="763" y2="761" /><line stroke="rgb(10%,10%,16%)" x1="905" x2="904" y1="761" y2="761" /><line stroke="rgb(10%,10%,16%)" x1="904" x2="1016" y1="761" y2="773" /><line stroke="rgb(10%,10%,16%)" x1="1016" x2="1016" y1="773" y2="790" /><line stroke="rgb(10%,10%,16%)" x1="1016" x2="954" y1="790" y2="933" /><line stroke="rgb(10%,10%,16%)" x1="954" x2="950" y1="933" y2="937" /><line stroke="rgb(10%,10%,16%)" x1="950" x2="658" y1="937" y2="948" /><line stroke="rgb(10%,10%,16%)" x1="658" x2="656" y1="948" y2="950" /></g></svg>