<?xml version="1.0" encoding="utf-8" ?>
<svg baseProfile="full" height="1129" version="1.1" width="1701" xmlns="http://www.w3.org/2000/svg" xmlns:ev="http://www.w3.org/2001/xml-events" xmlns:xlink="http://www.w3.org/1999/xlink"><defs /><g fill="none" id="shapes"><line stroke="rgb(10%,10%,16%)" x1="0" x2="231" y1="0" y2="1123" /><line stroke="rgb(10%,10%,16%)" x1="231" x2="254" y1="1123" y2="1089" /><line stroke="rgb(10%,10%,16%)" x1="254" x2="271" y1="1089" y2="1066" /><line stroke="rgb(10%,10%,16%)" x1="271" x2="299" y1="1066" y2="1033" /><line stroke="rgb(10%,10%,16%)" x1="299" x2="310" y1="1033" y2="1016" /><line stroke="rgb(10%,10%,16%)" x1="310" x2="350" y1="1016" y2="982" /><line stroke="rgb(10%,10%,16%)" x1="350" x2="367" y1="982" y2="970" /><line stroke="rgb(10%,10%,16%)" x1="367" x2="378" y1="970" y2="965" /><line stroke="rgb(10%,10%,16%)" x1="378" x2="395" y1="965" y2="954" /><line stroke="rgb(10%,10%,16%)" x1="395" x2="412" y1="954" y2="931" /><line stroke="rgb(10%,10%,16%)" x1="412" x2="423" y1="931" y2="925" /><line stroke="rgb(10%,10%,16%)" x1="423" x2="435" y1="925" y2="920" /><line stroke="rgb(10%,10%,16%)" x1="435" x2="446" y1="920" y2="914" /><line stroke="rgb(10%,10%,16%)" x1="446" x2="480" y1="914" y2="886" /><line stroke="rgb(10%,10%,16%)" x1="480" x2="491" y1="886" y2="880" /><line stroke="rgb(10%,10%,16%)" x1="491" x2="508" y1="880" y2="869" /><line stroke="rgb(10%,10%,16%)" x1="508" x2="525" y1="869" y2="858" /><line stroke="rgb(10%,10%,16%)" x1="525" x2="536" y1="858" y2="852" /><line stroke="rgb(10%,10%,16%)" x1="536" x2="576" y1="852" y2="818" /><line stroke="rgb(10%,10%,16%)" x1="576" x2="604" y1="818" y2="795" /><line stroke="rgb(10%,10%,16%)" x1="604" x2="610" y1="795" y2="784" /><line stroke="rgb(10%,10%,16%)" x1="610" x2="621" y1="784" y2="767" /><line stroke="rgb(10%,10%,16%)" x1="621" x2="672" y1="767" y2="745" /><line stroke="rgb(10%,10%,16%)" x1="672" x2="683" y1="745" y2="728" /><line stroke="rgb(10%,10%,16%)" x1="683" x2="678" y1="728" y2="711" /><line stroke="rgb(10%,10%,16%)" x1="678" x2="672" y1="711" y2="694" /><line stroke="rgb(10%,10%,16%)" x1="672" x2="666" y1="694" y2="683" /><line stroke="rgb(10%,10%,16%)" x1="666" x2="661" y1="683" y2="666" /><line stroke="rgb(10%,10%,16%)" x1="661" x2="655" y1="666" y2="637" /><line stroke="rgb(10%,10%,16%)" x1="655" x2="644" y1="637" y2="620" /><line stroke="rgb(10%,10%,16%)" x1="644" x2="615" y1="620" y2="581" /><line stroke="rgb(10%,10%,16%)" x1="615" x2="604" y1="581" y2="553" /><line stroke="rgb(10%,10%,16%)" x1="604" x2="599" y1="553" y2="524" /><line stroke="rgb(10%,10%,16%)" x1="599" x2="593" y1="524" y2="513" /><line stroke="rgb(10%,10%,16%)" x1="593" x2="587" y1="513" y2="502" /><line stroke="rgb(10%,10%,16%)" x1="587" x2="582" y1="502" y2="491" /><line stroke="rgb(10%,10%,16%)" x1="582" x2="576" y1="491" y2="479" /><line stroke="rgb(10%,10%,16%)" x1="576" x2="570" y1="479" y2="468" /><line stroke="rgb(10%,10%,16%)" x1="570" x2="565" y1="468" y2="451" /><line stroke="rgb(10%,10%,16%)" x1="565" x2="559" y1="451" y2="434" /><line stroke="rgb(10%,10%,16%)" x1="559" x2="553" y1="434" y2="423" /><line stroke="rgb(10%,10%,16%)" x1="553" x2="559" y1="423" y2="395" /><line stroke="rgb(10%,10%,16%)" x1="559" x2="553" y1="395" y2="383" /><line stroke="rgb(10%,10%,16%)" x1="553" x2="548" y1="383" y2="372" /><line stroke="rgb(10%,10%,16%)" x1="548" x2="542" y1="372" y2="327" /><line stroke="rgb(10%,10%,16%)" x1="542" x2="548" y1="327" y2="276" /><line stroke="rgb(10%,10%,16%)" x1="548" x2="553" y1="276" y2="208" /><line stroke="rgb(10%,10%,16%)" x1="553" x2="559" y1="208" y2="186" /><line stroke="rgb(10%,10%,16%)" x1="559" x2="565" y1="186" y2="174" /><line stroke="rgb(10%,10%,16%)" x1="565" x2="570" y1="174" y2="141" /><line stroke="rgb(10%,10%,16%)" x1="570" x2="587" y1="141" y2="135" /><line stroke="rgb(10%,10%,16%)" x1="587" x2="570" y1="135" y2="129" /><line stroke="rgb(10%,10%,16%)" x1="570" x2="582" y1="129" y2="107" /><line stroke="rgb(10%,10%,16%)" x1="582" x2="599" y1="107" y2="95" /><line stroke="rgb(10%,10%,16%)" x1="599" x2="615" y1="95" y2="90" /><line stroke="rgb(10%,10%,16%)" x1="615" x2="632" y1="90" y2="84" /><line stroke="rgb(10%,10%,16%)" x1="632" x2="644" y1="84" y2="79" /><line stroke="rgb(10%,10%,16%)" x1="644" x2="655" y1="79" y2="73" /><line stroke="rgb(10%,10%,16%)" x1="655" x2="666" y1="73" y2="67" /><line stroke="rgb(10%,10%,16%)" x1="666" x2="689" y1="67" y2="62" /><line stroke="rgb(10%,10%,16%)" x1="689" x2="706" y1="62" y2="56" /><line stroke="rgb(10%,10%,16%)" x1="706" x2="723" y1="56" y2="45" /><line stroke="rgb(10%,10%,16%)" x1="723" x2="740" y1="45" y2="39" /><line stroke="rgb(10%,10%,16%)" x1="740" x2="751" y1="39" y2="33" /><line stroke="rgb(10%,10%,16%)" x1="751" x2="813" y1="33" y2="28" /><line stroke="rgb(10%,10%,16%)" x1="813" x2="847" y1="28" y2="33" /><line stroke="rgb(10%,10%,16%)" x1="847" x2="870" y1="33" y2="50" /><line stroke="rgb(10%,10%,16%)" x1="870" x2="909" y1="50" y2="56" /><line stroke="rgb(10%,10%,16%)" x1="909" x2="926" y1="56" y2="62" /><line stroke="rgb(10%,10%,16%)" x1="926" x2="949" y1="62" y2="67" /><line stroke="rgb(10%,10%,16%)" x1="949" x2="966" y1="67" y2="73" /><line stroke="rgb(10%,10%,16%)" x1="966" x2="1028" y1="73" y2="129" /><line stroke="rgb(10%,10%,16%)" x1="1028" x2="1034" y1="129" y2="152" /><line stroke="rgb(10%,10%,16%)" x1="1034" x2="1062" y1="152" y2="174" /><line stroke="rgb(10%,10%,16%)" x1="1062" x2="1068" y1="174" y2="186" /><line stroke="rgb(10%,10%,16%)" x1="1068" x2="1073" y1="186" y2="197" /><line stroke="rgb(10%,10%,16%)" x1="1073" x2="1079" y1="197" y2="214" /><line stroke="rgb(10%,10%,16%)" x1="1079" x2="1085" y1="214" y2="248" /><line stroke="rgb(10%,10%,16%)" x1="1085" x2="1090" y1="248" y2="282" /><line stroke="rgb(10%,10%,16%)" x1="1090" x2="1096" y1="282" y2="333" /><line stroke="rgb(10%,10%,16%)" x1="1096" x2="1107" y1="333" y2="349" /><line stroke="rgb(10%,10%,16%)" x1="1107" x2="1101" y1="349" y2="383" /><line stroke="rgb(10%,10%,16%)" x1="1101" x2="1096" y1="383" y2="395" /><line stroke="rgb(10%,10%,16%)" x1="1096" x2="1090" y1="395" y2="406" /><line stroke="rgb(10%,10%,16%)" x1="1090" x2="1085" y1="406" y2="429" /><line stroke="rgb(10%,10%,16%)" x1="1085" x2="1079" y1="429" y2="445" /><line stroke="rgb(10%,10%,16%)" x1="1079" x2="1073" y1="445" y2="462" /><line stroke="rgb(10%,10%,16%)" x1="1073" x2="1068" y1="462" y2="536" /><line stroke="rgb(10%,10%,16%)" x1="1068" x2="1062" y1="536" y2="547" /><line stroke="rgb(10%,10%,16%)" x1="1062" x2="1056" y1="547" y2="558" /><line stroke="rgb(10%,10%,16%)" x1="1056" x2="1051" y1="558" y2="660" /><line stroke="rgb(10%,10%,16%)" x1="1051" x2="1045" y1="660" y2="677" /><line stroke="rgb(10%,10%,16%)" x1="1045" x2="1039" y1="677" y2="688" /><line stroke="rgb(10%,10%,16%)" x1="1039" x2="1028" y1="688" y2="705" /><line stroke="rgb(10%,10%,16%)" x1="1028" x2="1022" y1="705" y2="716" /><line stroke="rgb(10%,10%,16%)" x1="1022" x2="1017" y1="716" y2="728" /><line stroke="rgb(10%,10%,16%)" x1="1017" x2="1011" y1="728" y2="745" /><line stroke="rgb(10%,10%,16%)" x1="1011" x2="1017" y1="745" y2="756" /><line stroke="rgb(10%,10%,16%)" x1="1017" x2="1022" y1="756" y2="762" /><line stroke="rgb(10%,10%,16%)" x1="1022" x2="1039" y1="762" y2="767" /><line stroke="rgb(10%,10%,16%)" x1="1039" x2="1051" y1="767" y2="773" /><line stroke="rgb(10%,10%,16%)" x1="1051" x2="1068" y1="773" y2="779" /><line stroke="rgb(10%,10%,16%)" x1="1068" x2="1079" y1="779" y2="784" /><line stroke="rgb(10%,10%,16%)" x1="1079" x2="1096" y1="784" y2="790" /><line stroke="rgb(10%,10%,16%)" x1="1096" x2="1113" y1="790" y2="795" /><line stroke="rgb(10%,10%,16%)" x1="1113" x2="1130" y1="795" y2="801" /><line stroke="rgb(10%,10%,16%)" x1="1130" x2="1141" y1="801" y2="807" /><line stroke="rgb(10%,10%,16%)" x1="1141" x2="1158" y1="807" y2="812" /><line stroke="rgb(10%,10%,16%)" x1="1158" x2="1175" y1="812" y2="818" /><line stroke="rgb(10%,10%,16%)" x1="1175" x2="1186" y1="818" y2="824" /><line stroke="rgb(10%,10%,16%)" x1="1186" x2="1198" y1="824" y2="829" /><line stroke="rgb(10%,10%,16%)" x1="1198" x2="1209" y1="829" y2="835" /><line stroke="rgb(10%,10%,16%)" x1="1209" x2="1226" y1="835" y2="846" /><line stroke="rgb(10%,10%,16%)" x1="1226" x2="1237" y1="846" y2="852" /><line stroke="rgb(10%,10%,16%)" x1="1237" x2="1248" y1="852" y2="858" /><line stroke="rgb(10%,10%,16%)" x1="1248" x2="1265" y1="858" y2="863" /><line stroke="rgb(10%,10%,16%)" x1="1265" x2="1277" y1="863" y2="869" /><line stroke="rgb(10%,10%,16%)" x1="1277" x2="1288" y1="869" y2="874" /><line stroke="rgb(10%,10%,16%)" x1="1288" x2="1305" y1="874" y2="886" /><line stroke="rgb(10%,10%,16%)" x1="1305" x2="1350" y1="886" y2="925" /><line stroke="rgb(10%,10%,16%)" x1="1350" x2="1356" y1="925" y2="937" /><line stroke="rgb(10%,10%,16%)" x1="1356" x2="1361" y1="937" y2="948" /><line stroke="rgb(10%,10%,16%)" x1="1361" x2="1367" y1="948" y2="965" /><line stroke="rgb(10%,10%,16%)" x1="1367" x2="1373" y1="965" y2="976" /><line stroke="rgb(10%,10%,16%)" x1="1373" x2="1378" y1="976" y2="987" /><line stroke="rgb(10%,10%,16%)" x1="1378" x2="1384" y1="987" y2="999" /><line stroke="rgb(10%,10%,16%)" x1="1384" x2="1390" y1="999" y2="1010" /><line stroke="rgb(10%,10%,16%)" x1="1390" x2="1395" y1="1010" y2="1027" /><line stroke="rgb(10%,10%,16%)" x1="1395" x2="1401" y1="1027" y2="1038" /><line stroke="rgb(10%,10%,16%)" x1="1401" x2="1407" y1="1038" y2="1049" /><line stroke="rgb(10%,10%,16%)" x1="1407" x2="1412" y1="1049" y2="1066" /><line stroke="rgb(10%,10%,16%)" x1="1412" x2="1418" y1="1066" y2="1083" /><line stroke="rgb(10%,10%,16%)" x1="1418" x2="1424" y1="1083" y2="1100" /><line stroke="rgb(10%,10%,16%)" x1="1424" x2="1429" y1="1100" y2="1117" /><line stroke="rgb(10%,10%,16%)" x1="1429" x2="1695" y1="1117" y2="1123" /><line stroke="rgb(10%,10%,16%)" x1="1695" x2="1695" y1="1123" y2="0" /><line stroke="rgb(10%,10%,16%)" x1="1695" x2="875" y1="0" y2="270" /><line stroke="rgb(10%,10%,16%)" x1="875" x2="875" y1="270" y2="270" /><line stroke="rgb(10%,10%,16%)" x1="875" x2="870" y1="270" y2="276" /><line stroke="rgb(10%,10%,16%)" x1="870" x2="853" y1="276" y2="282" /><line stroke="rgb(10%,10%,16%)" x1="853" x2="836" y1="282" y2="287" /><line stroke="rgb(10%,10%,16%)" x1="836" x2="825" y1="287" y2="293" /><line stroke="rgb(10%,10%,16%)" x1="825" x2="813" y1="293" y2="299" /><line stroke="rgb(10%,10%,16%)" x1="813" x2="785" y1="299" y2="304" /><line stroke="rgb(10%,10%,16%)" x1="785" x2="774" y1="304" y2="327" /><line stroke="rgb(10%,10%,16%)" x1="774" x2="768" y1="327" y2="333" /><line stroke="rgb(10%,10%,16%)" x1="768" x2="774" y1="333" y2="366" /><line stroke="rgb(10%,10%,16%)" x1="774" x2="785" y1="366" y2="383" /><line stroke="rgb(10%,10%,16%)" x1="785" x2="779" y1="383" y2="406" /><line stroke="rgb(10%,10%,16%)" x1="779" x2="768" y1="406" y2="423" /><line stroke="rgb(10%,10%,16%)" x1="768" x2="774" y1="423" y2="440" /><line stroke="rgb(10%,10%,16%)" x1="774" x2="785" y1="440" y2="445" /><line stroke="rgb(10%,10%,16%)" x1="785" x2="802" y1="445" y2="451" /><line stroke="rgb(10%,10%,16%)" x1="802" x2="813" y1="451" y2="457" /><line stroke="rgb(10%,10%,16%)" x1="813" x2="830" y1="457" y2="468" /><line stroke="rgb(10%,10%,16%)" x1="830" x2="847" y1="468" y2="479" /><line stroke="rgb(10%,10%,16%)" x1="847" x2="853" y1="479" y2="491" /><line stroke="rgb(10%,10%,16%)" x1="853" x2="858" y1="491" y2="508" /><line stroke="rgb(10%,10%,16%)" x1="858" x2="864" y1="508" y2="524" /><line stroke="rgb(10%,10%,16%)" x1="864" x2="870" y1="524" y2="547" /><line stroke="rgb(10%,10%,16%)" x1="870" x2="875" y1="547" y2="637" /><line stroke="rgb(10%,10%,16%)" x1="875" x2="892" y1="637" y2="643" /><line stroke="rgb(10%,10%,16%)" x1="892" x2="898" y1="643" y2="637" /><line stroke="rgb(10%,10%,16%)" x1="898" x2="909" y1="637" y2="620" /><line stroke="rgb(10%,10%,16%)" x1="909" x2="926" y1="620" y2="615" /><line stroke="rgb(10%,10%,16%)" x1="926" x2="938" y1="615" y2="609" /><line stroke="rgb(10%,10%,16%)" x1="938" x2="943" y1="609" y2="598" /><line stroke="rgb(10%,10%,16%)" x1="943" x2="949" y1="598" y2="581" /><line stroke="rgb(10%,10%,16%)" x1="949" x2="966" y1="581" y2="587" /><line stroke="rgb(10%,10%,16%)" x1="966" x2="983" y1="587" y2="598" /><line stroke="rgb(10%,10%,16%)" x1="983" x2="994" y1="598" y2="604" /><line stroke="rgb(10%,10%,16%)" x1="994" x2="1011" y1="604" y2="615" /><line stroke="rgb(10%,10%,16%)" x1="1011" x2="1017" y1="615" y2="609" /><line stroke="rgb(10%,10%,16%)" x1="1017" x2="1022" y1="609" y2="604" /><line stroke="rgb(10%,10%,16%)" x1="1022" x2="1028" y1="604" y2="587" /><line stroke="rgb(10%,10%,16%)" x1="1028" x2="1034" y1="587" y2="575" /><line stroke="rgb(10%,10%,16%)" x1="1034" x2="1028" y1="575" y2="547" /><line stroke="rgb(10%,10%,16%)" x1="1028" x2="1022" y1="547" y2="519" /><line stroke="rgb(10%,10%,16%)" x1="1022" x2="960" y1="519" y2="513" /><line stroke="rgb(10%,10%,16%)" x1="960" x2="955" y1="513" y2="519" /><line stroke="rgb(10%,10%,16%)" x1="955" x2="904" y1="519" y2="508" /><line stroke="rgb(10%,10%,16%)" x1="904" x2="892" y1="508" y2="502" /><line stroke="rgb(10%,10%,16%)" x1="892" x2="915" y1="502" y2="440" /><line stroke="rgb(10%,10%,16%)" x1="915" x2="926" y1="440" y2="434" /><line stroke="rgb(10%,10%,16%)" x1="926" x2="943" y1="434" y2="429" /><line stroke="rgb(10%,10%,16%)" x1="943" x2="960" y1="429" y2="423" /><line stroke="rgb(10%,10%,16%)" x1="960" x2="988" y1="423" y2="412" /><line stroke="rgb(10%,10%,16%)" x1="988" x2="994" y1="412" y2="400" /><line stroke="rgb(10%,10%,16%)" x1="994" x2="1000" y1="400" y2="361" /><line stroke="rgb(10%,10%,16%)" x1="1000" x2="994" y1="361" y2="349" /><line stroke="rgb(10%,10%,16%)" x1="994" x2="932" y1="349" y2="276" /><line stroke="rgb(10%,10%,16%)" x1="932" x2="915" y1="276" y2="270" /><line stroke="rgb(10%,10%,16%)" x1="915" x2="915" y1="270" y2="270" /><line stroke="rgb(10%,10%,16%)" x1="915" x2="791" y1="270" y2="553" /><line stroke="rgb(10%,10%,16%)" x1="791" x2="791" y1="553" y2="553" /><line stroke="rgb(10%,10%,16%)" x1="791" x2="785" y1="553" y2="558" /><line stroke="rgb(10%,10%,16%)" x1="785" x2="774" y1="558" y2="564" /><line stroke="rgb(10%,10%,16%)" x1="774" x2="745" y1="564" y2="570" /><line stroke="rgb(10%,10%,16%)" x1="745" x2="740" y1="570" y2="587" /><line stroke="rgb(10%,10%,16%)" x1="740" x2="751" y1="587" y2="620" /><line stroke="rgb(10%,10%,16%)" x1="751" x2="757" y1="620" y2="615" /><line stroke="rgb(10%,10%,16%)" x1="757" x2="785" y1="615" y2="592" /><line stroke="rgb(10%,10%,16%)" x1="785" x2="791" y1="592" y2="581" /><line stroke="rgb(10%,10%,16%)" x1="791" x2="791" y1="581" y2="581" /><line stroke="rgb(10%,10%,16%)" x1="791" x2="881" y1="581" y2="671" /><line stroke="rgb(10%,10%,16%)" x1="881" x2="881" y1="671" y2="671" /><line stroke="rgb(10%,10%,16%)" x1="881" x2="875" y1="671" y2="688" /><line stroke="rgb(10%,10%,16%)" x1="875" x2="853" y1="688" y2="694" /><line stroke="rgb(10%,10%,16%)" x1="853" x2="847" y1="694" y2="705" /><line stroke="rgb(10%,10%,16%)" x1="847" x2="864" y1="705" y2="716" /><line stroke="rgb(10%,10%,16%)" x1="864" x2="887" y1="716" y2="711" /><line stroke="rgb(10%,10%,16%)" x1="887" x2="898" y1="711" y2="705" /><line stroke="rgb(10%,10%,16%)" x1="898" x2="926" y1="705" y2="683" /><line stroke="rgb(10%,10%,16%)" x1="926" x2="926" y1="683" y2="671" /><line stroke="rgb(10%,10%,16%)" x1="926" x2="966" y1="671" y2="677" /><line stroke="rgb(10%,10%,16%)" x1="966" x2="966" y1="677" y2="677" /><line stroke="rgb(10%,10%,16%)" x1="966" x2="960" y1="677" y2="683" /><line stroke="rgb(10%,10%,16%)" x1="960" x2="949" y1="683" y2="699" /><line stroke="rgb(10%,10%,16%)" x1="949" x2="932" y1="699" y2="722" /><line stroke="rgb(10%,10%,16%)" x1="932" x2="921" y1="722" y2="728" /><line stroke="rgb(10%,10%,16%)" x1="921" x2="904" y1="728" y2="733" /><line stroke="rgb(10%,10%,16%)" x1="904" x2="909" y1="733" y2="745" /><line stroke="rgb(10%,10%,16%)" x1="909" x2="932" y1="745" y2="750" /><line stroke="rgb(10%,10%,16%)" x1="932" x2="915" y1="750" y2="779" /><line stroke="rgb(10%,10%,16%)" x1="915" x2="904" y1="779" y2="784" /><line stroke="rgb(10%,10%,16%)" x1="904" x2="909" y1="784" y2="790" /><line stroke="rgb(10%,10%,16%)" x1="909" x2="915" y1="790" y2="784" /><line stroke="rgb(10%,10%,16%)" x1="915" x2="938" y1="784" y2="773" /><line stroke="rgb(10%,10%,16%)" x1="938" x2="943" y1="773" y2="767" /><line stroke="rgb(10%,10%,16%)" x1="943" x2="949" y1="767" y2="762" /><line stroke="rgb(10%,10%,16%)" x1="949" x2="955" y1="762" y2="750" /><line stroke="rgb(10%,10%,16%)" x1="955" x2="960" y1="750" y2="739" /><line stroke="rgb(10%,10%,16%)" x1="960" x2="966" y1="739" y2="722" /><line stroke="rgb(10%,10%,16%)" x1="966" x2="972" y1="722" y2="711" /><line stroke="rgb(10%,10%,16%)" x1="972" x2="972" y1="711" y2="683" /><line stroke="rgb(10%,10%,16%)" x1="972" x2="994" y1="683" y2="784" /><line stroke="rgb(10%,10%,16%)" x1="994" x2="994" y1="784" y2="784" /><line stroke="rgb(10%,10%,16%)" x1="994" x2="988" y1="784" y2="790" /><line stroke="rgb(10%,10%,16%)" x1="988" x2="983" y1="790" y2="801" /><line stroke="rgb(10%,10%,16%)" x1="983" x2="977" y1="801" y2="812" /><line stroke="rgb(10%,10%,16%)" x1="977" x2="960" y1="812" y2="835" /><line stroke="rgb(10%,10%,16%)" x1="960" x2="949" y1="835" y2="852" /><line stroke="rgb(10%,10%,16%)" x1="949" x2="938" y1="852" y2="858" /><line stroke="rgb(10%,10%,16%)" x1="938" x2="926" y1="858" y2="863" /><line stroke="rgb(10%,10%,16%)" x1="926" x2="915" y1="863" y2="869" /><line stroke="rgb(10%,10%,16%)" x1="915" x2="836" y1="869" y2="874" /><line stroke="rgb(10%,10%,16%)" x1="836" x2="825" y1="874" y2="886" /><line stroke="rgb(10%,10%,16%)" x1="825" x2="836" y1="886" y2="914" /><line stroke="rgb(10%,10%,16%)" x1="836" x2="830" y1="914" y2="931" /><line stroke="rgb(10%,10%,16%)" x1="830" x2="796" y1="931" y2="937" /><line stroke="rgb(10%,10%,16%)" x1="796" x2="808" y1="937" y2="942" /><line stroke="rgb(10%,10%,16%)" x1="808" x2="830" y1="942" y2="959" /><line stroke="rgb(10%,10%,16%)" x1="830" x2="825" y1="959" y2="976" /><line stroke="rgb(10%,10%,16%)" x1="825" x2="785" y1="976" y2="970" /><line stroke="rgb(10%,10%,16%)" x1="785" x2="768" y1="970" y2="993" /><line stroke="rgb(10%,10%,16%)" x1="768" x2="745" y1="993" y2="999" /><line stroke="rgb(10%,10%,16%)" x1="745" x2="740" y1="999" y2="1021" /><line stroke="rgb(10%,10%,16%)" x1="740" x2="734" y1="1021" y2="1027" /><line stroke="rgb(10%,10%,16%)" x1="734" x2="712" y1="1027" y2="1044" /><line stroke="rgb(10%,10%,16%)" x1="712" x2="683" y1="1044" y2="1038" /><line stroke="rgb(10%,10%,16%)" x1="683" x2="672" y1="1038" y2="1044" /><line stroke="rgb(10%,10%,16%)" x1="672" x2="666" y1="1044" y2="1066" /><line stroke="rgb(10%,10%,16%)" x1="666" x2="644" y1="1066" y2="1061" /><line stroke="rgb(10%,10%,16%)" x1="644" x2="632" y1="1061" y2="1066" /><line stroke="rgb(10%,10%,16%)" x1="632" x2="638" y1="1066" y2="1117" /><line stroke="rgb(10%,10%,16%)" x1="638" x2="1000" y1="1117" y2="1123" /><line stroke="rgb(10%,10%,16%)" x1="1000" x2="1005" y1="1123" y2="1112" /><line stroke="rgb(10%,10%,16%)" x1="1005" x2="1022" y1="1112" y2="1117" /><line stroke="rgb(10%,10%,16%)" x1="1022" x2="1039" y1="1117" y2="1123" /><line stroke="rgb(10%,10%,16%)" x1="1039" x2="1045" y1="1123" y2="1100" /><line stroke="rgb(10%,10%,16%)" x1="1045" x2="1051" y1="1100" y2="1089" /><line stroke="rgb(10%,10%,16%)" x1="1051" x2="1028" y1="1089" y2="1078" /><line stroke="rgb(10%,10%,16%)" x1="1028" x2="1017" y1="1078" y2="1089" /><line stroke="rgb(10%,10%,16%)" x1="1017" x2="988" y1="1089" y2="1078" /><line stroke="rgb(10%,10%,16%)" x1="988" x2="1000" y1="1078" y2="1049" /><line stroke="rgb(10%,10%,16%)" x1="1000" x2="1017" y1="1049" y2="1044" /><line stroke="rgb(10%,10%,16%)" x1="1017" x2="1034" y1="1044" y2="1049" /><line stroke="rgb(10%,10%,16%)" x1="1034" x2="1085" y1="1049" y2="1033" /><line stroke="rgb(10%,10%,16%)" x1="1085" x2="1090" y1="1033" y2="1027" /><line stroke="rgb(10%,10%,16%)" x1="1090" x2="1096" y1="1027" y2="1016" /><line stroke="rgb(10%,10%,16%)" x1="1096" x2="1090" y1="1016" y2="1004" /><line stroke="rgb(10%,10%,16%)" x1="1090" x2="1079" y1="1004" y2="1021" /><line stroke="rgb(10%,10%,16%)" x1="1079" x2="1068" y1="1021" y2="1033" /><line stroke="rgb(10%,10%,16%)" x1="1068" x2="1056" y1="1033" y2="1044" /><line stroke="rgb(10%,10%,16%)" x1="1056" x2="1034" y1="1044" y2="1033" /><line stroke="rgb(10%,10%,16%)" x1="1034" x2="1039" y1="1033" y2="1016" /><line stroke="rgb(10%,10%,16%)" x1="1039" x2="1051" y1="1016" y2="1010" /><line stroke="rgb(10%,10%,16%)" x1="1051" x2="1068" y1="1010" y2="987" /><line stroke="rgb(10%,10%,16%)" x1="1068" x2="1079" y1="987" y2="965" /><line stroke="rgb(10%,10%,16%)" x1="1079" x2="1085" y1="965" y2="954" /><line stroke="rgb(10%,10%,16%)" x1="1085" x2="1079" y1="954" y2="937" /><line stroke="rgb(10%,10%,16%)" x1="1079" x2="1073" y1="937" y2="942" /><line stroke="rgb(10%,10%,16%)" x1="1073" x2="1062" y1="942" y2="948" /><line stroke="rgb(10%,10%,16%)" x1="1062" x2="1051" y1="948" y2="954" /><line stroke="rgb(10%,10%,16%)" x1="1051" x2="1034" y1="954" y2="959" /><line stroke="rgb(10%,10%,16%)" x1="1034" x2="921" y1="959" y2="948" /><line stroke="rgb(10%,10%,16%)" x1="921" x2="932" y1="948" y2="925" /><line stroke="rgb(10%,10%,16%)" x1="932" x2="943" y1="925" y2="920" /><line stroke="rgb(10%,10%,16%)" x1="943" x2="972" y1="920" y2="931" /><line stroke="rgb(10%,10%,16%)" x1="972" x2="977" y1="931" y2="880" /><line stroke="rgb(10%,10%,16%)" x1="977" x2="983" y1="880" y2="874" /><line stroke="rgb(10%,10%,16%)" x1="983" x2="988" y1="874" y2="841" /><line stroke="rgb(10%,10%,16%)" x1="988" x2="994" y1="841" y2="812" /><line stroke="rgb(10%,10%,16%)" x1="994" x2="1000" y1="812" y2="790" /><line stroke="rgb(10%,10%,16%)" x1="1000" x2="1000" y1="790" y2="784" /></g></svg>