<?xml version="1.0" encoding="utf-8" ?>
<svg baseProfile="full" height="720" version="1.1" width="1280" xmlns="http://www.w3.org/2000/svg" xmlns:ev="http://www.w3.org/2001/xml-events" xmlns:xlink="http://www.w3.org/1999/xlink"><defs /><g fill="none" id="shapes"><line stroke="rgb(10%,10%,16%)" x1="0" x2="0" y1="720" y2="0" /><line stroke="rgb(10%,10%,16%)" x1="0" x2="19" y1="0" y2="54" /><line stroke="rgb(10%,10%,16%)" x1="19" x2="39" y1="54" y2="48" /><line stroke="rgb(10%,10%,16%)" x1="39" x2="50" y1="48" y2="42" /><line stroke="rgb(10%,10%,16%)" x1="50" x2="62" y1="42" y2="50" /><line stroke="rgb(10%,10%,16%)" x1="62" x2="102" y1="50" y2="44" /><line stroke="rgb(10%,10%,16%)" x1="102" x2="112" y1="44" y2="37" /><line stroke="rgb(10%,10%,16%)" x1="112" x2="124" y1="37" y2="26" /><line stroke="rgb(10%,10%,16%)" x1="124" x2="166" y1="26" y2="19" /><line stroke="rgb(10%,10%,16%)" x1="166" x2="174" y1="19" y2="12" /><line stroke="rgb(10%,10%,16%)" x1="174" x2="179" y1="12" y2="0" /><line stroke="rgb(10%,10%,16%)" x1="179" x2="603" y1="0" y2="0" /><line stroke="rgb(10%,10%,16%)" x1="603" x2="589" y1="0" y2="23" /><line stroke="rgb(10%,10%,16%)" x1="589" x2="573" y1="23" y2="41" /><line stroke="rgb(10%,10%,16%)" x1="573" x2="523" y1="41" y2="20" /><line stroke="rgb(10%,10%,16%)" x1="523" x2="464" y1="20" y2="10" /><line stroke="rgb(10%,10%,16%)" x1="464" x2="408" y1="10" y2="17" /><line stroke="rgb(10%,10%,16%)" x1="408" x2="348" y1="17" y2="32" /><line stroke="rgb(10%,10%,16%)" x1="348" x2="312" y1="32" y2="59" /><line stroke="rgb(10%,10%,16%)" x1="312" x2="297" y1="59" y2="77" /><line stroke="rgb(10%,10%,16%)" x1="297" x2="328" y1="77" y2="96" /><line stroke="rgb(10%,10%,16%)" x1="328" x2="359" y1="96" y2="107" /><line stroke="rgb(10%,10%,16%)" x1="359" x2="463" y1="107" y2="98" /><line stroke="rgb(10%,10%,16%)" x1="463" x2="483" y1="98" y2="109" /><line stroke="rgb(10%,10%,16%)" x1="483" x2="462" y1="109" y2="139" /><line stroke="rgb(10%,10%,16%)" x1="462" x2="433" y1="139" y2="156" /><line stroke="rgb(10%,10%,16%)" x1="433" x2="413" y1="156" y2="170" /><line stroke="rgb(10%,10%,16%)" x1="413" x2="359" y1="170" y2="182" /><line stroke="rgb(10%,10%,16%)" x1="359" x2="342" y1="182" y2="174" /><line stroke="rgb(10%,10%,16%)" x1="342" x2="319" y1="174" y2="162" /><line stroke="rgb(10%,10%,16%)" x1="319" x2="286" y1="162" y2="156" /><line stroke="rgb(10%,10%,16%)" x1="286" x2="280" y1="156" y2="140" /><line stroke="rgb(10%,10%,16%)" x1="280" x2="265" y1="140" y2="125" /><line stroke="rgb(10%,10%,16%)" x1="265" x2="251" y1="125" y2="109" /><line stroke="rgb(10%,10%,16%)" x1="251" x2="240" y1="109" y2="98" /><line stroke="rgb(10%,10%,16%)" x1="240" x2="224" y1="98" y2="83" /><line stroke="rgb(10%,10%,16%)" x1="224" x2="176" y1="83" y2="99" /><line stroke="rgb(10%,10%,16%)" x1="176" x2="139" y1="99" y2="107" /><line stroke="rgb(10%,10%,16%)" x1="139" x2="81" y1="107" y2="117" /><line stroke="rgb(10%,10%,16%)" x1="81" x2="26" y1="117" y2="132" /><line stroke="rgb(10%,10%,16%)" x1="26" x2="6" y1="132" y2="204" /><line stroke="rgb(10%,10%,16%)" x1="6" x2="16" y1="204" y2="219" /><line stroke="rgb(10%,10%,16%)" x1="16" x2="8" y1="219" y2="238" /><line stroke="rgb(10%,10%,16%)" x1="8" x2="29" y1="238" y2="253" /><line stroke="rgb(10%,10%,16%)" x1="29" x2="14" y1="253" y2="273" /><line stroke="rgb(10%,10%,16%)" x1="14" x2="35" y1="273" y2="288" /><line stroke="rgb(10%,10%,16%)" x1="35" x2="15" y1="288" y2="296" /><line stroke="rgb(10%,10%,16%)" x1="15" x2="4" y1="296" y2="307" /><line stroke="rgb(10%,10%,16%)" x1="4" x2="28" y1="307" y2="321" /><line stroke="rgb(10%,10%,16%)" x1="28" x2="11" y1="321" y2="331" /><line stroke="rgb(10%,10%,16%)" x1="11" x2="17" y1="331" y2="344" /><line stroke="rgb(10%,10%,16%)" x1="17" x2="4" y1="344" y2="359" /><line stroke="rgb(10%,10%,16%)" x1="4" x2="28" y1="359" y2="480" /><line stroke="rgb(10%,10%,16%)" x1="28" x2="39" y1="480" y2="493" /><line stroke="rgb(10%,10%,16%)" x1="39" x2="97" y1="493" y2="499" /><line stroke="rgb(10%,10%,16%)" x1="97" x2="139" y1="499" y2="519" /><line stroke="rgb(10%,10%,16%)" x1="139" x2="183" y1="519" y2="532" /><line stroke="rgb(10%,10%,16%)" x1="183" x2="198" y1="532" y2="511" /><line stroke="rgb(10%,10%,16%)" x1="198" x2="240" y1="511" y2="493" /><line stroke="rgb(10%,10%,16%)" x1="240" x2="284" y1="493" y2="503" /><line stroke="rgb(10%,10%,16%)" x1="284" x2="310" y1="503" y2="511" /><line stroke="rgb(10%,10%,16%)" x1="310" x2="357" y1="511" y2="528" /><line stroke="rgb(10%,10%,16%)" x1="357" x2="377" y1="528" y2="543" /><line stroke="rgb(10%,10%,16%)" x1="377" x2="398" y1="543" y2="530" /><line stroke="rgb(10%,10%,16%)" x1="398" x2="420" y1="530" y2="518" /><line stroke="rgb(10%,10%,16%)" x1="420" x2="444" y1="518" y2="508" /><line stroke="rgb(10%,10%,16%)" x1="444" x2="467" y1="508" y2="502" /><line stroke="rgb(10%,10%,16%)" x1="467" x2="486" y1="502" y2="508" /><line stroke="rgb(10%,10%,16%)" x1="486" x2="506" y1="508" y2="523" /><line stroke="rgb(10%,10%,16%)" x1="506" x2="538" y1="523" y2="542" /><line stroke="rgb(10%,10%,16%)" x1="538" x2="569" y1="542" y2="534" /><line stroke="rgb(10%,10%,16%)" x1="569" x2="560" y1="534" y2="524" /><line stroke="rgb(10%,10%,16%)" x1="560" x2="530" y1="524" y2="512" /><line stroke="rgb(10%,10%,16%)" x1="530" x2="505" y1="512" y2="487" /><line stroke="rgb(10%,10%,16%)" x1="505" x2="524" y1="487" y2="438" /><line stroke="rgb(10%,10%,16%)" x1="524" x2="544" y1="438" y2="420" /><line stroke="rgb(10%,10%,16%)" x1="544" x2="561" y1="420" y2="406" /><line stroke="rgb(10%,10%,16%)" x1="561" x2="598" y1="406" y2="418" /><line stroke="rgb(10%,10%,16%)" x1="598" x2="627" y1="418" y2="436" /><line stroke="rgb(10%,10%,16%)" x1="627" x2="644" y1="436" y2="450" /><line stroke="rgb(10%,10%,16%)" x1="644" x2="676" y1="450" y2="462" /><line stroke="rgb(10%,10%,16%)" x1="676" x2="708" y1="462" y2="472" /><line stroke="rgb(10%,10%,16%)" x1="708" x2="752" y1="472" y2="462" /><line stroke="rgb(10%,10%,16%)" x1="752" x2="717" y1="462" y2="452" /><line stroke="rgb(10%,10%,16%)" x1="717" x2="693" y1="452" y2="440" /><line stroke="rgb(10%,10%,16%)" x1="693" x2="674" y1="440" y2="420" /><line stroke="rgb(10%,10%,16%)" x1="674" x2="662" y1="420" y2="387" /><line stroke="rgb(10%,10%,16%)" x1="662" x2="648" y1="387" y2="413" /><line stroke="rgb(10%,10%,16%)" x1="648" x2="625" y1="413" y2="359" /><line stroke="rgb(10%,10%,16%)" x1="625" x2="615" y1="359" y2="389" /><line stroke="rgb(10%,10%,16%)" x1="615" x2="589" y1="389" y2="371" /><line stroke="rgb(10%,10%,16%)" x1="589" x2="533" y1="371" y2="319" /><line stroke="rgb(10%,10%,16%)" x1="533" x2="517" y1="319" y2="297" /><line stroke="rgb(10%,10%,16%)" x1="517" x2="506" y1="297" y2="279" /><line stroke="rgb(10%,10%,16%)" x1="506" x2="496" y1="279" y2="254" /><line stroke="rgb(10%,10%,16%)" x1="496" x2="508" y1="254" y2="179" /><line stroke="rgb(10%,10%,16%)" x1="508" x2="561" y1="179" y2="123" /><line stroke="rgb(10%,10%,16%)" x1="561" x2="587" y1="123" y2="103" /><line stroke="rgb(10%,10%,16%)" x1="587" x2="609" y1="103" y2="89" /><line stroke="rgb(10%,10%,16%)" x1="609" x2="662" y1="89" y2="34" /><line stroke="rgb(10%,10%,16%)" x1="662" x2="684" y1="34" y2="18" /><line stroke="rgb(10%,10%,16%)" x1="684" x2="704" y1="18" y2="7" /><line stroke="rgb(10%,10%,16%)" x1="704" x2="717" y1="7" y2="0" /><line stroke="rgb(10%,10%,16%)" x1="717" x2="888" y1="0" y2="0" /><line stroke="rgb(10%,10%,16%)" x1="888" x2="960" y1="0" y2="0" /><line stroke="rgb(10%,10%,16%)" x1="960" x2="971" y1="0" y2="0" /><line stroke="rgb(10%,10%,16%)" x1="971" x2="1187" y1="0" y2="0" /><line stroke="rgb(10%,10%,16%)" x1="1187" x2="790" y1="0" y2="44" /><line stroke="rgb(10%,10%,16%)" x1="790" x2="799" y1="44" y2="44" /><line stroke="rgb(10%,10%,16%)" x1="799" x2="765" y1="44" y2="68" /><line stroke="rgb(10%,10%,16%)" x1="765" x2="761" y1="68" y2="72" /><line stroke="rgb(10%,10%,16%)" x1="761" x2="688" y1="72" y2="158" /><line stroke="rgb(10%,10%,16%)" x1="688" x2="684" y1="158" y2="158" /><line stroke="rgb(10%,10%,16%)" x1="684" x2="688" y1="158" y2="163" /><line stroke="rgb(10%,10%,16%)" x1="688" x2="702" y1="163" y2="163" /><line stroke="rgb(10%,10%,16%)" x1="702" x2="778" y1="163" y2="167" /><line stroke="rgb(10%,10%,16%)" x1="778" x2="778" y1="167" y2="169" /><line stroke="rgb(10%,10%,16%)" x1="778" x2="197" y1="169" y2="197" /><line stroke="rgb(10%,10%,16%)" x1="197" x2="194" y1="197" y2="200" /><line stroke="rgb(10%,10%,16%)" x1="194" x2="872" y1="200" y2="228" /><line stroke="rgb(10%,10%,16%)" x1="872" x2="867" y1="228" y2="228" /><line stroke="rgb(10%,10%,16%)" x1="867" x2="513" y1="228" y2="228" /><line stroke="rgb(10%,10%,16%)" x1="513" x2="527" y1="228" y2="228" /><line stroke="rgb(10%,10%,16%)" x1="527" x2="873" y1="228" y2="233" /><line stroke="rgb(10%,10%,16%)" x1="873" x2="886" y1="233" y2="233" /><line stroke="rgb(10%,10%,16%)" x1="886" x2="875" y1="233" y2="258" /><line stroke="rgb(10%,10%,16%)" x1="875" x2="879" y1="258" y2="258" /><line stroke="rgb(10%,10%,16%)" x1="879" x2="739" y1="258" y2="275" /><line stroke="rgb(10%,10%,16%)" x1="739" x2="737" y1="275" y2="277" /><line stroke="rgb(10%,10%,16%)" x1="737" x2="702" y1="277" y2="314" /><line stroke="rgb(10%,10%,16%)" x1="702" x2="702" y1="314" y2="317" /><line stroke="rgb(10%,10%,16%)" x1="702" x2="976" y1="317" y2="408" /><line stroke="rgb(10%,10%,16%)" x1="976" x2="990" y1="408" y2="408" /><line stroke="rgb(10%,10%,16%)" x1="990" x2="562" y1="408" y2="417" /><line stroke="rgb(10%,10%,16%)" x1="562" x2="576" y1="417" y2="417" /><line stroke="rgb(10%,10%,16%)" x1="576" x2="952" y1="417" y2="422" /><line stroke="rgb(10%,10%,16%)" x1="952" x2="956" y1="422" y2="422" /><line stroke="rgb(10%,10%,16%)" x1="956" x2="852" y1="422" y2="459" /><line stroke="rgb(10%,10%,16%)" x1="852" x2="880" y1="459" y2="459" /><line stroke="rgb(10%,10%,16%)" x1="880" x2="514" y1="459" y2="470" /><line stroke="rgb(10%,10%,16%)" x1="514" x2="514" y1="470" y2="471" /><line stroke="rgb(10%,10%,16%)" x1="514" x2="949" y1="471" y2="502" /><line stroke="rgb(10%,10%,16%)" x1="949" x2="949" y1="502" y2="504" /><line stroke="rgb(10%,10%,16%)" x1="949" x2="934" y1="504" y2="512" /><line stroke="rgb(10%,10%,16%)" x1="934" x2="934" y1="512" y2="514" /><line stroke="rgb(10%,10%,16%)" x1="934" x2="1064" y1="514" y2="530" /><line stroke="rgb(10%,10%,16%)" x1="1064" x2="1061" y1="530" y2="530" /><line stroke="rgb(10%,10%,16%)" x1="1061" x2="1064" y1="530" y2="534" /><line stroke="rgb(10%,10%,16%)" x1="1064" x2="1073" y1="534" y2="534" /><line stroke="rgb(10%,10%,16%)" x1="1073" x2="946" y1="534" y2="535" /><line stroke="rgb(10%,10%,16%)" x1="946" x2="949" y1="535" y2="535" /><line stroke="rgb(10%,10%,16%)" x1="949" x2="8" y1="535" y2="564" /><line stroke="rgb(10%,10%,16%)" x1="8" x2="9" y1="564" y2="565" /><line stroke="rgb(10%,10%,16%)" x1="9" x2="875" y1="565" y2="580" /><line stroke="rgb(10%,10%,16%)" x1="875" x2="876" y1="580" y2="580" /><line stroke="rgb(10%,10%,16%)" x1="876" x2="852" y1="580" y2="591" /><line stroke="rgb(10%,10%,16%)" x1="852" x2="856" y1="591" y2="591" /><line stroke="rgb(10%,10%,16%)" x1="856" x2="287" y1="591" y2="596" /><line stroke="rgb(10%,10%,16%)" x1="287" x2="288" y1="596" y2="596" /><line stroke="rgb(10%,10%,16%)" x1="288" x2="789" y1="596" y2="596" /><line stroke="rgb(10%,10%,16%)" x1="789" x2="790" y1="596" y2="596" /><line stroke="rgb(10%,10%,16%)" x1="790" x2="453" y1="596" y2="598" /><line stroke="rgb(10%,10%,16%)" x1="453" x2="456" y1="598" y2="598" /><line stroke="rgb(10%,10%,16%)" x1="456" x2="1066" y1="598" y2="601" /><line stroke="rgb(10%,10%,16%)" x1="1066" x2="1066" y1="601" y2="604" /><line stroke="rgb(10%,10%,16%)" x1="1066" x2="195" y1="604" y2="616" /><line stroke="rgb(10%,10%,16%)" x1="195" x2="195" y1="616" y2="622" /><line stroke="rgb(10%,10%,16%)" x1="195" x2="903" y1="622" y2="630" /><line stroke="rgb(10%,10%,16%)" x1="903" x2="904" y1="630" y2="631" /><line stroke="rgb(10%,10%,16%)" x1="904" x2="0" y1="631" y2="639" /><line stroke="rgb(10%,10%,16%)" x1="0" x2="1" y1="639" y2="639" /><line stroke="rgb(10%,10%,16%)" x1="1" x2="69" y1="639" y2="715" /><line stroke="rgb(10%,10%,16%)" x1="69" x2="71" y1="715" y2="715" /></g></svg>