<?xml version="1.0" encoding="utf-8" ?>
<svg baseProfile="full" height="957" version="1.1" width="1300" xmlns="http://www.w3.org/2000/svg" xmlns:ev="http://www.w3.org/2001/xml-events" xmlns:xlink="http://www.w3.org/1999/xlink"><defs /><g fill="none" id="shapes"><line stroke="rgb(10%,10%,16%)" x1="24" x2="90" y1="869" y2="933" /><line stroke="rgb(10%,10%,16%)" x1="90" x2="68" y1="933" y2="944" /><line stroke="rgb(10%,10%,16%)" x1="68" x2="22" y1="944" y2="932" /><line stroke="rgb(10%,10%,16%)" x1="22" x2="22" y1="932" y2="871" /><line stroke="rgb(10%,10%,16%)" x1="22" x2="53" y1="871" y2="888" /><line stroke="rgb(10%,10%,16%)" x1="53" x2="53" y1="888" y2="888" /><line stroke="rgb(10%,10%,16%)" x1="53" x2="75" y1="888" y2="899" /><line stroke="rgb(10%,10%,16%)" x1="75" x2="63" y1="899" y2="922" /><line stroke="rgb(10%,10%,16%)" x1="63" x2="38" y1="922" y2="911" /><line stroke="rgb(10%,10%,16%)" x1="38" x2="49" y1="911" y2="889" /><line stroke="rgb(10%,10%,16%)" x1="49" x2="51" y1="889" y2="888" /><line stroke="rgb(10%,10%,16%)" x1="51" x2="54" y1="888" y2="887" /><line stroke="rgb(10%,10%,16%)" x1="54" x2="39" y1="887" y2="898" /><line stroke="rgb(10%,10%,16%)" x1="39" x2="59" y1="898" y2="924" /><line stroke="rgb(10%,10%,16%)" x1="59" x2="76" y1="924" y2="913" /><line stroke="rgb(10%,10%,16%)" x1="76" x2="65" y1="913" y2="889" /><line stroke="rgb(10%,10%,16%)" x1="65" x2="61" y1="889" y2="887" /><line stroke="rgb(10%,10%,16%)" x1="61" x2="144" y1="887" y2="167" /><line stroke="rgb(10%,10%,16%)" x1="144" x2="144" y1="167" y2="167" /><line stroke="rgb(10%,10%,16%)" x1="144" x2="133" y1="167" y2="195" /><line stroke="rgb(10%,10%,16%)" x1="133" x2="110" y1="195" y2="213" /><line stroke="rgb(10%,10%,16%)" x1="110" x2="90" y1="213" y2="233" /><line stroke="rgb(10%,10%,16%)" x1="90" x2="114" y1="233" y2="216" /><line stroke="rgb(10%,10%,16%)" x1="114" x2="138" y1="216" y2="195" /><line stroke="rgb(10%,10%,16%)" x1="138" x2="158" y1="195" y2="184" /><line stroke="rgb(10%,10%,16%)" x1="158" x2="155" y1="184" y2="167" /><line stroke="rgb(10%,10%,16%)" x1="155" x2="204" y1="167" y2="108" /><line stroke="rgb(10%,10%,16%)" x1="204" x2="204" y1="108" y2="108" /><line stroke="rgb(10%,10%,16%)" x1="204" x2="193" y1="108" y2="120" /><line stroke="rgb(10%,10%,16%)" x1="193" x2="161" y1="120" y2="138" /><line stroke="rgb(10%,10%,16%)" x1="161" x2="182" y1="138" y2="161" /><line stroke="rgb(10%,10%,16%)" x1="182" x2="193" y1="161" y2="148" /><line stroke="rgb(10%,10%,16%)" x1="193" x2="204" y1="148" y2="136" /><line stroke="rgb(10%,10%,16%)" x1="204" x2="216" y1="136" y2="109" /><line stroke="rgb(10%,10%,16%)" x1="216" x2="215" y1="109" y2="108" /><line stroke="rgb(10%,10%,16%)" x1="215" x2="204" y1="108" y2="708" /><line stroke="rgb(10%,10%,16%)" x1="204" x2="204" y1="708" y2="708" /><line stroke="rgb(10%,10%,16%)" x1="204" x2="216" y1="708" y2="726" /><line stroke="rgb(10%,10%,16%)" x1="216" x2="202" y1="726" y2="738" /><line stroke="rgb(10%,10%,16%)" x1="202" x2="191" y1="738" y2="750" /><line stroke="rgb(10%,10%,16%)" x1="191" x2="160" y1="750" y2="761" /><line stroke="rgb(10%,10%,16%)" x1="160" x2="175" y1="761" y2="723" /><line stroke="rgb(10%,10%,16%)" x1="175" x2="199" y1="723" y2="713" /><line stroke="rgb(10%,10%,16%)" x1="199" x2="204" y1="713" y2="108" /><line stroke="rgb(10%,10%,16%)" x1="204" x2="216" y1="108" y2="126" /><line stroke="rgb(10%,10%,16%)" x1="216" x2="202" y1="126" y2="138" /><line stroke="rgb(10%,10%,16%)" x1="202" x2="191" y1="138" y2="150" /><line stroke="rgb(10%,10%,16%)" x1="191" x2="160" y1="150" y2="161" /><line stroke="rgb(10%,10%,16%)" x1="160" x2="175" y1="161" y2="123" /><line stroke="rgb(10%,10%,16%)" x1="175" x2="199" y1="123" y2="113" /><line stroke="rgb(10%,10%,16%)" x1="199" x2="204" y1="113" y2="708" /><line stroke="rgb(10%,10%,16%)" x1="204" x2="193" y1="708" y2="720" /><line stroke="rgb(10%,10%,16%)" x1="193" x2="161" y1="720" y2="738" /><line stroke="rgb(10%,10%,16%)" x1="161" x2="182" y1="738" y2="761" /><line stroke="rgb(10%,10%,16%)" x1="182" x2="193" y1="761" y2="748" /><line stroke="rgb(10%,10%,16%)" x1="193" x2="204" y1="748" y2="736" /><line stroke="rgb(10%,10%,16%)" x1="204" x2="216" y1="736" y2="709" /><line stroke="rgb(10%,10%,16%)" x1="216" x2="215" y1="709" y2="708" /><line stroke="rgb(10%,10%,16%)" x1="215" x2="443" y1="708" y2="467" /><line stroke="rgb(10%,10%,16%)" x1="443" x2="443" y1="467" y2="467" /><line stroke="rgb(10%,10%,16%)" x1="443" x2="456" y1="467" y2="487" /><line stroke="rgb(10%,10%,16%)" x1="456" x2="439" y1="487" y2="501" /><line stroke="rgb(10%,10%,16%)" x1="439" x2="426" y1="501" y2="514" /><line stroke="rgb(10%,10%,16%)" x1="426" x2="412" y1="514" y2="525" /><line stroke="rgb(10%,10%,16%)" x1="412" x2="391" y1="525" y2="536" /><line stroke="rgb(10%,10%,16%)" x1="391" x2="409" y1="536" y2="513" /><line stroke="rgb(10%,10%,16%)" x1="409" x2="420" y1="513" y2="499" /><line stroke="rgb(10%,10%,16%)" x1="420" x2="434" y1="499" y2="483" /><line stroke="rgb(10%,10%,16%)" x1="434" x2="440" y1="483" y2="470" /><line stroke="rgb(10%,10%,16%)" x1="440" x2="463" y1="470" y2="423" /><line stroke="rgb(10%,10%,16%)" x1="463" x2="463" y1="423" y2="423" /><line stroke="rgb(10%,10%,16%)" x1="463" x2="477" y1="423" y2="435" /><line stroke="rgb(10%,10%,16%)" x1="477" x2="493" y1="435" y2="446" /><line stroke="rgb(10%,10%,16%)" x1="493" x2="477" y1="446" y2="461" /><line stroke="rgb(10%,10%,16%)" x1="477" x2="458" y1="461" y2="448" /><line stroke="rgb(10%,10%,16%)" x1="458" x2="460" y1="448" y2="426" /><line stroke="rgb(10%,10%,16%)" x1="460" x2="463" y1="426" y2="423" /><line stroke="rgb(10%,10%,16%)" x1="463" x2="443" y1="423" y2="467" /><line stroke="rgb(10%,10%,16%)" x1="443" x2="429" y1="467" y2="483" /><line stroke="rgb(10%,10%,16%)" x1="429" x2="412" y1="483" y2="499" /><line stroke="rgb(10%,10%,16%)" x1="412" x2="391" y1="499" y2="513" /><line stroke="rgb(10%,10%,16%)" x1="391" x2="406" y1="513" y2="536" /><line stroke="rgb(10%,10%,16%)" x1="406" x2="426" y1="536" y2="515" /><line stroke="rgb(10%,10%,16%)" x1="426" x2="439" y1="515" y2="503" /><line stroke="rgb(10%,10%,16%)" x1="439" x2="450" y1="503" y2="491" /><line stroke="rgb(10%,10%,16%)" x1="450" x2="467" y1="491" y2="467" /><line stroke="rgb(10%,10%,16%)" x1="467" x2="479" y1="467" y2="454" /><line stroke="rgb(10%,10%,16%)" x1="479" x2="493" y1="454" y2="433" /><line stroke="rgb(10%,10%,16%)" x1="493" x2="475" y1="433" y2="423" /><line stroke="rgb(10%,10%,16%)" x1="475" x2="569" y1="423" y2="79" /><line stroke="rgb(10%,10%,16%)" x1="569" x2="569" y1="79" y2="79" /><line stroke="rgb(10%,10%,16%)" x1="569" x2="580" y1="79" y2="131" /><line stroke="rgb(10%,10%,16%)" x1="580" x2="591" y1="131" y2="144" /><line stroke="rgb(10%,10%,16%)" x1="591" x2="578" y1="144" y2="164" /><line stroke="rgb(10%,10%,16%)" x1="578" x2="589" y1="164" y2="204" /><line stroke="rgb(10%,10%,16%)" x1="589" x2="600" y1="204" y2="232" /><line stroke="rgb(10%,10%,16%)" x1="600" x2="565" y1="232" y2="220" /><line stroke="rgb(10%,10%,16%)" x1="565" x2="548" y1="220" y2="209" /><line stroke="rgb(10%,10%,16%)" x1="548" x2="528" y1="209" y2="198" /><line stroke="rgb(10%,10%,16%)" x1="528" x2="515" y1="198" y2="209" /><line stroke="rgb(10%,10%,16%)" x1="515" x2="531" y1="209" y2="220" /><line stroke="rgb(10%,10%,16%)" x1="531" x2="553" y1="220" y2="237" /><line stroke="rgb(10%,10%,16%)" x1="553" x2="570" y1="237" y2="250" /><line stroke="rgb(10%,10%,16%)" x1="570" x2="582" y1="250" y2="264" /><line stroke="rgb(10%,10%,16%)" x1="582" x2="593" y1="264" y2="279" /><line stroke="rgb(10%,10%,16%)" x1="593" x2="606" y1="279" y2="297" /><line stroke="rgb(10%,10%,16%)" x1="606" x2="624" y1="297" y2="286" /><line stroke="rgb(10%,10%,16%)" x1="624" x2="636" y1="286" y2="270" /><line stroke="rgb(10%,10%,16%)" x1="636" x2="650" y1="270" y2="290" /><line stroke="rgb(10%,10%,16%)" x1="650" x2="664" y1="290" y2="306" /><line stroke="rgb(10%,10%,16%)" x1="664" x2="676" y1="306" y2="319" /><line stroke="rgb(10%,10%,16%)" x1="676" x2="665" y1="319" y2="338" /><line stroke="rgb(10%,10%,16%)" x1="665" x2="646" y1="338" y2="327" /><line stroke="rgb(10%,10%,16%)" x1="646" x2="630" y1="327" y2="338" /><line stroke="rgb(10%,10%,16%)" x1="630" x2="642" y1="338" y2="350" /><line stroke="rgb(10%,10%,16%)" x1="642" x2="620" y1="350" y2="339" /><line stroke="rgb(10%,10%,16%)" x1="620" x2="608" y1="339" y2="351" /><line stroke="rgb(10%,10%,16%)" x1="608" x2="620" y1="351" y2="371" /><line stroke="rgb(10%,10%,16%)" x1="620" x2="606" y1="371" y2="406" /><line stroke="rgb(10%,10%,16%)" x1="606" x2="617" y1="406" y2="433" /><line stroke="rgb(10%,10%,16%)" x1="617" x2="633" y1="433" y2="422" /><line stroke="rgb(10%,10%,16%)" x1="633" x2="662" y1="422" y2="411" /><line stroke="rgb(10%,10%,16%)" x1="662" x2="692" y1="411" y2="389" /><line stroke="rgb(10%,10%,16%)" x1="692" x2="670" y1="389" y2="378" /><line stroke="rgb(10%,10%,16%)" x1="670" x2="724" y1="378" y2="367" /><line stroke="rgb(10%,10%,16%)" x1="724" x2="710" y1="367" y2="350" /><line stroke="rgb(10%,10%,16%)" x1="710" x2="699" y1="350" y2="335" /><line stroke="rgb(10%,10%,16%)" x1="699" x2="688" y1="335" y2="300" /><line stroke="rgb(10%,10%,16%)" x1="688" x2="671" y1="300" y2="287" /><line stroke="rgb(10%,10%,16%)" x1="671" x2="660" y1="287" y2="272" /><line stroke="rgb(10%,10%,16%)" x1="660" x2="674" y1="272" y2="235" /><line stroke="rgb(10%,10%,16%)" x1="674" x2="686" y1="235" y2="222" /><line stroke="rgb(10%,10%,16%)" x1="686" x2="673" y1="222" y2="151" /><line stroke="rgb(10%,10%,16%)" x1="673" x2="657" y1="151" y2="109" /><line stroke="rgb(10%,10%,16%)" x1="657" x2="668" y1="109" y2="177" /><line stroke="rgb(10%,10%,16%)" x1="668" x2="654" y1="177" y2="189" /><line stroke="rgb(10%,10%,16%)" x1="654" x2="643" y1="189" y2="141" /><line stroke="rgb(10%,10%,16%)" x1="643" x2="624" y1="141" y2="108" /><line stroke="rgb(10%,10%,16%)" x1="624" x2="613" y1="108" y2="138" /><line stroke="rgb(10%,10%,16%)" x1="613" x2="602" y1="138" y2="115" /><line stroke="rgb(10%,10%,16%)" x1="602" x2="589" y1="115" y2="92" /><line stroke="rgb(10%,10%,16%)" x1="589" x2="580" y1="92" y2="79" /><line stroke="rgb(10%,10%,16%)" x1="580" x2="569" y1="79" y2="79" /><line stroke="rgb(10%,10%,16%)" x1="569" x2="588" y1="79" y2="90" /><line stroke="rgb(10%,10%,16%)" x1="588" x2="599" y1="90" y2="108" /><line stroke="rgb(10%,10%,16%)" x1="599" x2="610" y1="108" y2="131" /><line stroke="rgb(10%,10%,16%)" x1="610" x2="621" y1="131" y2="115" /><line stroke="rgb(10%,10%,16%)" x1="621" x2="640" y1="115" y2="129" /><line stroke="rgb(10%,10%,16%)" x1="640" x2="651" y1="129" y2="204" /><line stroke="rgb(10%,10%,16%)" x1="651" x2="663" y1="204" y2="185" /><line stroke="rgb(10%,10%,16%)" x1="663" x2="686" y1="185" y2="151" /><line stroke="rgb(10%,10%,16%)" x1="686" x2="675" y1="151" y2="235" /><line stroke="rgb(10%,10%,16%)" x1="675" x2="664" y1="235" y2="247" /><line stroke="rgb(10%,10%,16%)" x1="664" x2="675" y1="247" y2="290" /><line stroke="rgb(10%,10%,16%)" x1="675" x2="689" y1="290" y2="301" /><line stroke="rgb(10%,10%,16%)" x1="689" x2="701" y1="301" y2="335" /><line stroke="rgb(10%,10%,16%)" x1="701" x2="714" y1="335" y2="346" /><line stroke="rgb(10%,10%,16%)" x1="714" x2="731" y1="346" y2="357" /><line stroke="rgb(10%,10%,16%)" x1="731" x2="717" y1="357" y2="376" /><line stroke="rgb(10%,10%,16%)" x1="717" x2="697" y1="376" y2="364" /><line stroke="rgb(10%,10%,16%)" x1="697" x2="679" y1="364" y2="375" /><line stroke="rgb(10%,10%,16%)" x1="679" x2="665" y1="375" y2="386" /><line stroke="rgb(10%,10%,16%)" x1="665" x2="692" y1="386" y2="400" /><line stroke="rgb(10%,10%,16%)" x1="692" x2="661" y1="400" y2="411" /><line stroke="rgb(10%,10%,16%)" x1="661" x2="648" y1="411" y2="424" /><line stroke="rgb(10%,10%,16%)" x1="648" x2="634" y1="424" y2="441" /><line stroke="rgb(10%,10%,16%)" x1="634" x2="616" y1="441" y2="424" /><line stroke="rgb(10%,10%,16%)" x1="616" x2="604" y1="424" y2="408" /><line stroke="rgb(10%,10%,16%)" x1="604" x2="623" y1="408" y2="397" /><line stroke="rgb(10%,10%,16%)" x1="623" x2="612" y1="397" y2="359" /><line stroke="rgb(10%,10%,16%)" x1="612" x2="623" y1="359" y2="341" /><line stroke="rgb(10%,10%,16%)" x1="623" x2="635" y1="341" y2="353" /><line stroke="rgb(10%,10%,16%)" x1="635" x2="646" y1="353" y2="327" /><line stroke="rgb(10%,10%,16%)" x1="646" x2="658" y1="327" y2="340" /><line stroke="rgb(10%,10%,16%)" x1="658" x2="680" y1="340" y2="328" /><line stroke="rgb(10%,10%,16%)" x1="680" x2="667" y1="328" y2="311" /><line stroke="rgb(10%,10%,16%)" x1="667" x2="654" y1="311" y2="299" /><line stroke="rgb(10%,10%,16%)" x1="654" x2="642" y1="299" y2="283" /><line stroke="rgb(10%,10%,16%)" x1="642" x2="620" y1="283" y2="295" /><line stroke="rgb(10%,10%,16%)" x1="620" x2="599" y1="295" y2="283" /><line stroke="rgb(10%,10%,16%)" x1="599" x2="588" y1="283" y2="271" /><line stroke="rgb(10%,10%,16%)" x1="588" x2="577" y1="271" y2="259" /><line stroke="rgb(10%,10%,16%)" x1="577" x2="566" y1="259" y2="246" /><line stroke="rgb(10%,10%,16%)" x1="566" x2="552" y1="246" y2="235" /><line stroke="rgb(10%,10%,16%)" x1="552" x2="539" y1="235" y2="224" /><line stroke="rgb(10%,10%,16%)" x1="539" x2="550" y1="224" y2="211" /><line stroke="rgb(10%,10%,16%)" x1="550" x2="569" y1="211" y2="224" /><line stroke="rgb(10%,10%,16%)" x1="569" x2="590" y1="224" y2="241" /><line stroke="rgb(10%,10%,16%)" x1="590" x2="601" y1="241" y2="254" /><line stroke="rgb(10%,10%,16%)" x1="601" x2="590" y1="254" y2="209" /><line stroke="rgb(10%,10%,16%)" x1="590" x2="579" y1="209" y2="184" /><line stroke="rgb(10%,10%,16%)" x1="579" x2="591" y1="184" y2="164" /><line stroke="rgb(10%,10%,16%)" x1="591" x2="580" y1="164" y2="133" /><line stroke="rgb(10%,10%,16%)" x1="580" x2="569" y1="133" y2="101" /><line stroke="rgb(10%,10%,16%)" x1="569" x2="567" y1="101" y2="81" /><line stroke="rgb(10%,10%,16%)" x1="567" x2="621" y1="81" y2="570" /><line stroke="rgb(10%,10%,16%)" x1="621" x2="621" y1="570" y2="570" /><line stroke="rgb(10%,10%,16%)" x1="621" x2="648" y1="570" y2="581" /><line stroke="rgb(10%,10%,16%)" x1="648" x2="637" y1="581" y2="613" /><line stroke="rgb(10%,10%,16%)" x1="637" x2="605" y1="613" y2="602" /><line stroke="rgb(10%,10%,16%)" x1="605" x2="616" y1="602" y2="572" /><line stroke="rgb(10%,10%,16%)" x1="616" x2="619" y1="572" y2="570" /><line stroke="rgb(10%,10%,16%)" x1="619" x2="622" y1="570" y2="569" /><line stroke="rgb(10%,10%,16%)" x1="622" x2="608" y1="569" y2="580" /><line stroke="rgb(10%,10%,16%)" x1="608" x2="635" y1="580" y2="614" /><line stroke="rgb(10%,10%,16%)" x1="635" x2="648" y1="614" y2="602" /><line stroke="rgb(10%,10%,16%)" x1="648" x2="636" y1="602" y2="570" /><line stroke="rgb(10%,10%,16%)" x1="636" x2="635" y1="570" y2="569" /><line stroke="rgb(10%,10%,16%)" x1="635" x2="657" y1="569" y2="109" /><line stroke="rgb(10%,10%,16%)" x1="657" x2="657" y1="109" y2="109" /><line stroke="rgb(10%,10%,16%)" x1="657" x2="669" y1="109" y2="142" /><line stroke="rgb(10%,10%,16%)" x1="669" x2="653" y1="142" y2="155" /><line stroke="rgb(10%,10%,16%)" x1="653" x2="655" y1="155" y2="111" /><line stroke="rgb(10%,10%,16%)" x1="655" x2="661" y1="111" y2="602" /><line stroke="rgb(10%,10%,16%)" x1="661" x2="648" y1="602" y2="613" /><line stroke="rgb(10%,10%,16%)" x1="648" x2="617" y1="613" y2="639" /><line stroke="rgb(10%,10%,16%)" x1="617" x2="628" y1="639" y2="657" /><line stroke="rgb(10%,10%,16%)" x1="628" x2="641" y1="657" y2="641" /><line stroke="rgb(10%,10%,16%)" x1="641" x2="678" y1="641" y2="661" /><line stroke="rgb(10%,10%,16%)" x1="678" x2="664" y1="661" y2="672" /><line stroke="rgb(10%,10%,16%)" x1="664" x2="646" y1="672" y2="685" /><line stroke="rgb(10%,10%,16%)" x1="646" x2="678" y1="685" y2="665" /><line stroke="rgb(10%,10%,16%)" x1="678" x2="696" y1="665" y2="646" /><line stroke="rgb(10%,10%,16%)" x1="696" x2="682" y1="646" y2="633" /><line stroke="rgb(10%,10%,16%)" x1="682" x2="673" y1="633" y2="602" /><line stroke="rgb(10%,10%,16%)" x1="673" x2="661" y1="602" y2="602" /><line stroke="rgb(10%,10%,16%)" x1="661" x2="682" y1="602" y2="622" /><line stroke="rgb(10%,10%,16%)" x1="682" x2="695" y1="622" y2="645" /><line stroke="rgb(10%,10%,16%)" x1="695" x2="679" y1="645" y2="663" /><line stroke="rgb(10%,10%,16%)" x1="679" x2="667" y1="663" y2="649" /><line stroke="rgb(10%,10%,16%)" x1="667" x2="653" y1="649" y2="634" /><line stroke="rgb(10%,10%,16%)" x1="653" x2="631" y1="634" y2="645" /><line stroke="rgb(10%,10%,16%)" x1="631" x2="612" y1="645" y2="657" /><line stroke="rgb(10%,10%,16%)" x1="612" x2="637" y1="657" y2="621" /><line stroke="rgb(10%,10%,16%)" x1="637" x2="652" y1="621" y2="610" /><line stroke="rgb(10%,10%,16%)" x1="652" x2="653" y1="610" y2="610" /><line stroke="rgb(10%,10%,16%)" x1="653" x2="687" y1="610" y2="93" /><line stroke="rgb(10%,10%,16%)" x1="687" x2="687" y1="93" y2="93" /><line stroke="rgb(10%,10%,16%)" x1="687" x2="700" y1="93" y2="139" /><line stroke="rgb(10%,10%,16%)" x1="700" x2="697" y1="139" y2="93" /><line stroke="rgb(10%,10%,16%)" x1="697" x2="687" y1="93" y2="93" /><line stroke="rgb(10%,10%,16%)" x1="687" x2="699" y1="93" y2="104" /><line stroke="rgb(10%,10%,16%)" x1="699" x2="684" y1="104" y2="139" /><line stroke="rgb(10%,10%,16%)" x1="684" x2="685" y1="139" y2="95" /><line stroke="rgb(10%,10%,16%)" x1="685" x2="694" y1="95" y2="693" /><line stroke="rgb(10%,10%,16%)" x1="694" x2="674" y1="693" y2="704" /><line stroke="rgb(10%,10%,16%)" x1="674" x2="690" y1="704" y2="722" /><line stroke="rgb(10%,10%,16%)" x1="690" x2="708" y1="722" y2="706" /><line stroke="rgb(10%,10%,16%)" x1="708" x2="707" y1="706" y2="693" /><line stroke="rgb(10%,10%,16%)" x1="707" x2="695" y1="693" y2="739" /><line stroke="rgb(10%,10%,16%)" x1="695" x2="695" y1="739" y2="739" /><line stroke="rgb(10%,10%,16%)" x1="695" x2="709" y1="739" y2="750" /><line stroke="rgb(10%,10%,16%)" x1="709" x2="694" y1="750" y2="761" /><line stroke="rgb(10%,10%,16%)" x1="694" x2="712" y1="761" y2="780" /><line stroke="rgb(10%,10%,16%)" x1="712" x2="725" y1="780" y2="768" /><line stroke="rgb(10%,10%,16%)" x1="725" x2="713" y1="768" y2="754" /><line stroke="rgb(10%,10%,16%)" x1="713" x2="733" y1="754" y2="739" /><line stroke="rgb(10%,10%,16%)" x1="733" x2="722" y1="739" y2="815" /><line stroke="rgb(10%,10%,16%)" x1="722" x2="595" y1="815" y2="803" /><line stroke="rgb(10%,10%,16%)" x1="595" x2="584" y1="803" y2="786" /><line stroke="rgb(10%,10%,16%)" x1="584" x2="595" y1="786" y2="751" /><line stroke="rgb(10%,10%,16%)" x1="595" x2="609" y1="751" y2="768" /><line stroke="rgb(10%,10%,16%)" x1="609" x2="622" y1="768" y2="799" /><line stroke="rgb(10%,10%,16%)" x1="622" x2="639" y1="799" y2="787" /><line stroke="rgb(10%,10%,16%)" x1="639" x2="651" y1="787" y2="775" /><line stroke="rgb(10%,10%,16%)" x1="651" x2="668" y1="775" y2="763" /><line stroke="rgb(10%,10%,16%)" x1="668" x2="680" y1="763" y2="752" /><line stroke="rgb(10%,10%,16%)" x1="680" x2="693" y1="752" y2="739" /><line stroke="rgb(10%,10%,16%)" x1="693" x2="693" y1="739" y2="739" /><line stroke="rgb(10%,10%,16%)" x1="693" x2="696" y1="739" y2="738" /><line stroke="rgb(10%,10%,16%)" x1="696" x2="680" y1="738" y2="752" /><line stroke="rgb(10%,10%,16%)" x1="680" x2="668" y1="752" y2="763" /><line stroke="rgb(10%,10%,16%)" x1="668" x2="651" y1="763" y2="775" /><line stroke="rgb(10%,10%,16%)" x1="651" x2="635" y1="775" y2="764" /><line stroke="rgb(10%,10%,16%)" x1="635" x2="624" y1="764" y2="794" /><line stroke="rgb(10%,10%,16%)" x1="624" x2="604" y1="794" y2="781" /><line stroke="rgb(10%,10%,16%)" x1="604" x2="593" y1="781" y2="753" /><line stroke="rgb(10%,10%,16%)" x1="593" x2="604" y1="753" y2="815" /><line stroke="rgb(10%,10%,16%)" x1="604" x2="736" y1="815" y2="804" /><line stroke="rgb(10%,10%,16%)" x1="736" x2="756" y1="804" y2="769" /><line stroke="rgb(10%,10%,16%)" x1="756" x2="745" y1="769" y2="754" /><line stroke="rgb(10%,10%,16%)" x1="745" x2="734" y1="754" y2="742" /><line stroke="rgb(10%,10%,16%)" x1="734" x2="708" y1="742" y2="738" /><line stroke="rgb(10%,10%,16%)" x1="708" x2="702" y1="738" y2="570" /><line stroke="rgb(10%,10%,16%)" x1="702" x2="729" y1="570" y2="581" /><line stroke="rgb(10%,10%,16%)" x1="729" x2="718" y1="581" y2="614" /><line stroke="rgb(10%,10%,16%)" x1="718" x2="688" y1="614" y2="603" /><line stroke="rgb(10%,10%,16%)" x1="688" x2="699" y1="603" y2="571" /><line stroke="rgb(10%,10%,16%)" x1="699" x2="700" y1="571" y2="570" /><line stroke="rgb(10%,10%,16%)" x1="700" x2="703" y1="570" y2="569" /><line stroke="rgb(10%,10%,16%)" x1="703" x2="687" y1="569" y2="581" /><line stroke="rgb(10%,10%,16%)" x1="687" x2="698" y1="581" y2="612" /><line stroke="rgb(10%,10%,16%)" x1="698" x2="731" y1="612" y2="601" /><line stroke="rgb(10%,10%,16%)" x1="731" x2="720" y1="601" y2="572" /><line stroke="rgb(10%,10%,16%)" x1="720" x2="713" y1="572" y2="569" /><line stroke="rgb(10%,10%,16%)" x1="713" x2="707" y1="569" y2="410" /><line stroke="rgb(10%,10%,16%)" x1="707" x2="691" y1="410" y2="421" /><line stroke="rgb(10%,10%,16%)" x1="691" x2="666" y1="421" y2="436" /><line stroke="rgb(10%,10%,16%)" x1="666" x2="646" y1="436" y2="451" /><line stroke="rgb(10%,10%,16%)" x1="646" x2="621" y1="451" y2="462" /><line stroke="rgb(10%,10%,16%)" x1="621" x2="633" y1="462" y2="501" /><line stroke="rgb(10%,10%,16%)" x1="633" x2="648" y1="501" y2="512" /><line stroke="rgb(10%,10%,16%)" x1="648" x2="698" y1="512" y2="500" /><line stroke="rgb(10%,10%,16%)" x1="698" x2="687" y1="500" y2="463" /><line stroke="rgb(10%,10%,16%)" x1="687" x2="701" y1="463" y2="451" /><line stroke="rgb(10%,10%,16%)" x1="701" x2="712" y1="451" y2="437" /><line stroke="rgb(10%,10%,16%)" x1="712" x2="717" y1="437" y2="410" /><line stroke="rgb(10%,10%,16%)" x1="717" x2="707" y1="410" y2="751" /><line stroke="rgb(10%,10%,16%)" x1="707" x2="718" y1="751" y2="766" /><line stroke="rgb(10%,10%,16%)" x1="718" x2="704" y1="766" y2="780" /><line stroke="rgb(10%,10%,16%)" x1="704" x2="693" y1="780" y2="759" /><line stroke="rgb(10%,10%,16%)" x1="693" x2="705" y1="759" y2="753" /><line stroke="rgb(10%,10%,16%)" x1="705" x2="707" y1="753" y2="410" /><line stroke="rgb(10%,10%,16%)" x1="707" x2="722" y1="410" y2="429" /><line stroke="rgb(10%,10%,16%)" x1="722" x2="708" y1="429" y2="440" /><line stroke="rgb(10%,10%,16%)" x1="708" x2="689" y1="440" y2="451" /><line stroke="rgb(10%,10%,16%)" x1="689" x2="669" y1="451" y2="511" /><line stroke="rgb(10%,10%,16%)" x1="669" x2="625" y1="511" y2="500" /><line stroke="rgb(10%,10%,16%)" x1="625" x2="636" y1="500" y2="460" /><line stroke="rgb(10%,10%,16%)" x1="636" x2="648" y1="460" y2="442" /><line stroke="rgb(10%,10%,16%)" x1="648" x2="666" y1="442" y2="427" /><line stroke="rgb(10%,10%,16%)" x1="666" x2="696" y1="427" y2="416" /><line stroke="rgb(10%,10%,16%)" x1="696" x2="701" y1="416" y2="416" /><line stroke="rgb(10%,10%,16%)" x1="701" x2="1030" y1="416" y2="885" /><line stroke="rgb(10%,10%,16%)" x1="1030" x2="1030" y1="885" y2="885" /><line stroke="rgb(10%,10%,16%)" x1="1030" x2="1052" y1="885" y2="909" /><line stroke="rgb(10%,10%,16%)" x1="1052" x2="1027" y1="909" y2="888" /><line stroke="rgb(10%,10%,16%)" x1="1027" x2="1027" y1="888" y2="888" /><line stroke="rgb(10%,10%,16%)" x1="1027" x2="1030" y1="888" y2="885" /><line stroke="rgb(10%,10%,16%)" x1="1030" x2="1051" y1="885" y2="910" /><line stroke="rgb(10%,10%,16%)" x1="1051" x2="1049" y1="910" y2="885" /><line stroke="rgb(10%,10%,16%)" x1="1049" x2="1030" y1="885" y2="920" /><line stroke="rgb(10%,10%,16%)" x1="1030" x2="1030" y1="920" y2="920" /><line stroke="rgb(10%,10%,16%)" x1="1030" x2="1052" y1="920" y2="944" /><line stroke="rgb(10%,10%,16%)" x1="1052" x2="1027" y1="944" y2="923" /><line stroke="rgb(10%,10%,16%)" x1="1027" x2="1027" y1="923" y2="923" /><line stroke="rgb(10%,10%,16%)" x1="1027" x2="1030" y1="923" y2="920" /><line stroke="rgb(10%,10%,16%)" x1="1030" x2="1049" y1="920" y2="946" /><line stroke="rgb(10%,10%,16%)" x1="1049" x2="1049" y1="946" y2="920" /><line stroke="rgb(10%,10%,16%)" x1="1049" x2="1043" y1="920" y2="467" /><line stroke="rgb(10%,10%,16%)" x1="1043" x2="1056" y1="467" y2="487" /><line stroke="rgb(10%,10%,16%)" x1="1056" x2="1039" y1="487" y2="501" /><line stroke="rgb(10%,10%,16%)" x1="1039" x2="1026" y1="501" y2="514" /><line stroke="rgb(10%,10%,16%)" x1="1026" x2="1012" y1="514" y2="525" /><line stroke="rgb(10%,10%,16%)" x1="1012" x2="991" y1="525" y2="536" /><line stroke="rgb(10%,10%,16%)" x1="991" x2="1009" y1="536" y2="513" /><line stroke="rgb(10%,10%,16%)" x1="1009" x2="1020" y1="513" y2="499" /><line stroke="rgb(10%,10%,16%)" x1="1020" x2="1034" y1="499" y2="483" /><line stroke="rgb(10%,10%,16%)" x1="1034" x2="1040" y1="483" y2="470" /><line stroke="rgb(10%,10%,16%)" x1="1040" x2="1101" y1="470" y2="409" /><line stroke="rgb(10%,10%,16%)" x1="1101" x2="1101" y1="409" y2="409" /><line stroke="rgb(10%,10%,16%)" x1="1101" x2="1088" y1="409" y2="420" /><line stroke="rgb(10%,10%,16%)" x1="1088" x2="1060" y1="420" y2="438" /><line stroke="rgb(10%,10%,16%)" x1="1060" x2="1043" y1="438" y2="467" /><line stroke="rgb(10%,10%,16%)" x1="1043" x2="1029" y1="467" y2="483" /><line stroke="rgb(10%,10%,16%)" x1="1029" x2="1012" y1="483" y2="499" /><line stroke="rgb(10%,10%,16%)" x1="1012" x2="991" y1="499" y2="513" /><line stroke="rgb(10%,10%,16%)" x1="991" x2="1006" y1="513" y2="536" /><line stroke="rgb(10%,10%,16%)" x1="1006" x2="1026" y1="536" y2="515" /><line stroke="rgb(10%,10%,16%)" x1="1026" x2="1039" y1="515" y2="503" /><line stroke="rgb(10%,10%,16%)" x1="1039" x2="1050" y1="503" y2="491" /><line stroke="rgb(10%,10%,16%)" x1="1050" x2="1067" y1="491" y2="467" /><line stroke="rgb(10%,10%,16%)" x1="1067" x2="1082" y1="467" y2="454" /><line stroke="rgb(10%,10%,16%)" x1="1082" x2="1097" y1="454" y2="443" /><line stroke="rgb(10%,10%,16%)" x1="1097" x2="1108" y1="443" y2="427" /><line stroke="rgb(10%,10%,16%)" x1="1108" x2="1111" y1="427" y2="409" /><line stroke="rgb(10%,10%,16%)" x1="1111" x2="1101" y1="409" y2="409" /><line stroke="rgb(10%,10%,16%)" x1="1101" x2="1113" y1="409" y2="426" /><line stroke="rgb(10%,10%,16%)" x1="1113" x2="1101" y1="426" y2="437" /><line stroke="rgb(10%,10%,16%)" x1="1101" x2="1088" y1="437" y2="452" /><line stroke="rgb(10%,10%,16%)" x1="1088" x2="1067" y1="452" y2="464" /><line stroke="rgb(10%,10%,16%)" x1="1067" x2="1078" y1="464" y2="423" /><line stroke="rgb(10%,10%,16%)" x1="1078" x2="1094" y1="423" y2="412" /><line stroke="rgb(10%,10%,16%)" x1="1094" x2="1099" y1="412" y2="411" /></g></svg>