<?xml version="1.0" encoding="utf-8" ?>
<svg baseProfile="full" height="957" version="1.1" width="1300" xmlns="http://www.w3.org/2000/svg" xmlns:ev="http://www.w3.org/2001/xml-events" xmlns:xlink="http://www.w3.org/1999/xlink"><defs /><g fill="none" id="shapes"><line stroke="rgb(10%,10%,16%)" x1="0" x2="0" y1="957" y2="0" /><line stroke="rgb(10%,10%,16%)" x1="0" x2="1299" y1="0" y2="956" /><line stroke="rgb(10%,10%,16%)" x1="1299" x2="1293" y1="956" y2="237" /><line stroke="rgb(10%,10%,16%)" x1="1293" x2="1299" y1="237" y2="214" /><line stroke="rgb(10%,10%,16%)" x1="1299" x2="1299" y1="214" y2="0" /><line stroke="rgb(10%,10%,16%)" x1="1299" x2="743" y1="0" y2="755" /><line stroke="rgb(10%,10%,16%)" x1="743" x2="743" y1="755" y2="755" /><line stroke="rgb(10%,10%,16%)" x1="743" x2="759" y1="755" y2="767" /><line stroke="rgb(10%,10%,16%)" x1="759" x2="743" y1="767" y2="769" /><line stroke="rgb(10%,10%,16%)" x1="743" x2="22" y1="769" y2="870" /><line stroke="rgb(10%,10%,16%)" x1="22" x2="91" y1="870" y2="932" /><line stroke="rgb(10%,10%,16%)" x1="91" x2="83" y1="932" y2="938" /><line stroke="rgb(10%,10%,16%)" x1="83" x2="70" y1="938" y2="944" /><line stroke="rgb(10%,10%,16%)" x1="70" x2="31" y1="944" y2="938" /><line stroke="rgb(10%,10%,16%)" x1="31" x2="22" y1="938" y2="933" /><line stroke="rgb(10%,10%,16%)" x1="22" x2="863" y1="933" y2="884" /><line stroke="rgb(10%,10%,16%)" x1="863" x2="863" y1="884" y2="884" /><line stroke="rgb(10%,10%,16%)" x1="863" x2="878" y1="884" y2="902" /><line stroke="rgb(10%,10%,16%)" x1="878" x2="863" y1="902" y2="899" /><line stroke="rgb(10%,10%,16%)" x1="863" x2="1029" y1="899" y2="885" /><line stroke="rgb(10%,10%,16%)" x1="1029" x2="1029" y1="885" y2="885" /><line stroke="rgb(10%,10%,16%)" x1="1029" x2="1053" y1="885" y2="908" /><line stroke="rgb(10%,10%,16%)" x1="1053" x2="1027" y1="908" y2="887" /><line stroke="rgb(10%,10%,16%)" x1="1027" x2="1027" y1="887" y2="887" /><line stroke="rgb(10%,10%,16%)" x1="1027" x2="1029" y1="887" y2="920" /><line stroke="rgb(10%,10%,16%)" x1="1029" x2="1053" y1="920" y2="944" /><line stroke="rgb(10%,10%,16%)" x1="1053" x2="1027" y1="944" y2="922" /><line stroke="rgb(10%,10%,16%)" x1="1027" x2="1027" y1="922" y2="922" /></g></svg>