<?xml version="1.0" encoding="utf-8" ?>
<svg baseProfile="full" height="957" version="1.1" width="1300" xmlns="http://www.w3.org/2000/svg" xmlns:ev="http://www.w3.org/2001/xml-events" xmlns:xlink="http://www.w3.org/1999/xlink"><defs /><g fill="none" id="shapes"><line stroke="rgb(10%,10%,16%)" x1="0" x2="0" y1="957" y2="0" /><line stroke="rgb(10%,10%,16%)" x1="0" x2="1299" y1="0" y2="956" /><line stroke="rgb(10%,10%,16%)" x1="1299" x2="1299" y1="956" y2="0" /><line stroke="rgb(10%,10%,16%)" x1="1299" x2="567" y1="0" y2="80" /><line stroke="rgb(10%,10%,16%)" x1="567" x2="595" y1="80" y2="101" /><line stroke="rgb(10%,10%,16%)" x1="595" x2="609" y1="101" y2="127" /><line stroke="rgb(10%,10%,16%)" x1="609" x2="636" y1="127" y2="111" /><line stroke="rgb(10%,10%,16%)" x1="636" x2="650" y1="111" y2="204" /><line stroke="rgb(10%,10%,16%)" x1="650" x2="668" y1="204" y2="179" /><line stroke="rgb(10%,10%,16%)" x1="668" x2="691" y1="179" y2="210" /><line stroke="rgb(10%,10%,16%)" x1="691" x2="669" y1="210" y2="242" /><line stroke="rgb(10%,10%,16%)" x1="669" x2="657" y1="242" y2="270" /><line stroke="rgb(10%,10%,16%)" x1="657" x2="676" y1="270" y2="290" /><line stroke="rgb(10%,10%,16%)" x1="676" x2="703" y1="290" y2="336" /><line stroke="rgb(10%,10%,16%)" x1="703" x2="727" y1="336" y2="364" /><line stroke="rgb(10%,10%,16%)" x1="727" x2="678" y1="364" y2="378" /><line stroke="rgb(10%,10%,16%)" x1="678" x2="661" y1="378" y2="408" /><line stroke="rgb(10%,10%,16%)" x1="661" x2="634" y1="408" y2="421" /><line stroke="rgb(10%,10%,16%)" x1="634" x2="605" y1="421" y2="406" /><line stroke="rgb(10%,10%,16%)" x1="605" x2="623" y1="406" y2="376" /><line stroke="rgb(10%,10%,16%)" x1="623" x2="608" y1="376" y2="340" /><line stroke="rgb(10%,10%,16%)" x1="608" x2="645" y1="340" y2="324" /><line stroke="rgb(10%,10%,16%)" x1="645" x2="667" y1="324" y2="312" /><line stroke="rgb(10%,10%,16%)" x1="667" x2="641" y1="312" y2="283" /><line stroke="rgb(10%,10%,16%)" x1="641" x2="605" y1="283" y2="296" /><line stroke="rgb(10%,10%,16%)" x1="605" x2="588" y1="296" y2="271" /><line stroke="rgb(10%,10%,16%)" x1="588" x2="572" y1="271" y2="254" /><line stroke="rgb(10%,10%,16%)" x1="572" x2="543" y1="254" y2="228" /><line stroke="rgb(10%,10%,16%)" x1="543" x2="560" y1="228" y2="217" /><line stroke="rgb(10%,10%,16%)" x1="560" x2="598" y1="217" y2="249" /><line stroke="rgb(10%,10%,16%)" x1="598" x2="584" y1="249" y2="196" /><line stroke="rgb(10%,10%,16%)" x1="584" x2="599" y1="196" y2="181" /><line stroke="rgb(10%,10%,16%)" x1="599" x2="579" y1="181" y2="131" /><line stroke="rgb(10%,10%,16%)" x1="579" x2="567" y1="131" y2="96" /><line stroke="rgb(10%,10%,16%)" x1="567" x2="685" y1="96" y2="94" /><line stroke="rgb(10%,10%,16%)" x1="685" x2="685" y1="94" y2="96" /><line stroke="rgb(10%,10%,16%)" x1="685" x2="203" y1="96" y2="108" /><line stroke="rgb(10%,10%,16%)" x1="203" x2="199" y1="108" y2="112" /><line stroke="rgb(10%,10%,16%)" x1="199" x2="655" y1="112" y2="110" /><line stroke="rgb(10%,10%,16%)" x1="655" x2="655" y1="110" y2="114" /><line stroke="rgb(10%,10%,16%)" x1="655" x2="1099" y1="114" y2="410" /><line stroke="rgb(10%,10%,16%)" x1="1099" x2="1099" y1="410" y2="411" /><line stroke="rgb(10%,10%,16%)" x1="1099" x2="706" y1="411" y2="410" /><line stroke="rgb(10%,10%,16%)" x1="706" x2="700" y1="410" y2="416" /><line stroke="rgb(10%,10%,16%)" x1="700" x2="462" y1="416" y2="423" /><line stroke="rgb(10%,10%,16%)" x1="462" x2="460" y1="423" y2="425" /><line stroke="rgb(10%,10%,16%)" x1="460" x2="620" y1="425" y2="570" /><line stroke="rgb(10%,10%,16%)" x1="620" x2="618" y1="570" y2="570" /><line stroke="rgb(10%,10%,16%)" x1="618" x2="701" y1="570" y2="570" /><line stroke="rgb(10%,10%,16%)" x1="701" x2="699" y1="570" y2="570" /><line stroke="rgb(10%,10%,16%)" x1="699" x2="660" y1="570" y2="602" /><line stroke="rgb(10%,10%,16%)" x1="660" x2="652" y1="602" y2="610" /><line stroke="rgb(10%,10%,16%)" x1="652" x2="203" y1="610" y2="708" /><line stroke="rgb(10%,10%,16%)" x1="203" x2="199" y1="708" y2="712" /><line stroke="rgb(10%,10%,16%)" x1="199" x2="694" y1="712" y2="739" /><line stroke="rgb(10%,10%,16%)" x1="694" x2="692" y1="739" y2="739" /><line stroke="rgb(10%,10%,16%)" x1="692" x2="22" y1="739" y2="870" /><line stroke="rgb(10%,10%,16%)" x1="22" x2="22" y1="870" y2="933" /><line stroke="rgb(10%,10%,16%)" x1="22" x2="1029" y1="933" y2="885" /><line stroke="rgb(10%,10%,16%)" x1="1029" x2="1027" y1="885" y2="887" /><line stroke="rgb(10%,10%,16%)" x1="1027" x2="53" y1="887" y2="888" /><line stroke="rgb(10%,10%,16%)" x1="53" x2="62" y1="888" y2="888" /><line stroke="rgb(10%,10%,16%)" x1="62" x2="1029" y1="888" y2="920" /><line stroke="rgb(10%,10%,16%)" x1="1029" x2="1027" y1="920" y2="922" /></g></svg>