<?xml version="1.0" encoding="utf-8" ?>
<svg baseProfile="full" height="957" version="1.1" width="1300" xmlns="http://www.w3.org/2000/svg" xmlns:ev="http://www.w3.org/2001/xml-events" xmlns:xlink="http://www.w3.org/1999/xlink"><defs /><g fill="none" id="shapes"><line stroke="rgb(10%,10%,16%)" x1="0" x2="0" y1="0" y2="851" /><line stroke="rgb(10%,10%,16%)" x1="0" x2="148" y1="851" y2="851" /><line stroke="rgb(10%,10%,16%)" x1="148" x2="153" y1="851" y2="856" /><line stroke="rgb(10%,10%,16%)" x1="153" x2="1069" y1="856" y2="856" /><line stroke="rgb(10%,10%,16%)" x1="1069" x2="1074" y1="856" y2="851" /><line stroke="rgb(10%,10%,16%)" x1="1074" x2="1295" y1="851" y2="851" /><line stroke="rgb(10%,10%,16%)" x1="1295" x2="1295" y1="851" y2="832" /><line stroke="rgb(10%,10%,16%)" x1="1295" x2="1285" y1="832" y2="832" /><line stroke="rgb(10%,10%,16%)" x1="1285" x2="1280" y1="832" y2="827" /><line stroke="rgb(10%,10%,16%)" x1="1280" x2="1280" y1="827" y2="813" /><line stroke="rgb(10%,10%,16%)" x1="1280" x2="1290" y1="813" y2="803" /><line stroke="rgb(10%,10%,16%)" x1="1290" x2="1295" y1="803" y2="803" /><line stroke="rgb(10%,10%,16%)" x1="1295" x2="1295" y1="803" y2="239" /><line stroke="rgb(10%,10%,16%)" x1="1295" x2="1290" y1="239" y2="239" /><line stroke="rgb(10%,10%,16%)" x1="1290" x2="1276" y1="239" y2="224" /><line stroke="rgb(10%,10%,16%)" x1="1276" x2="1276" y1="224" y2="205" /><line stroke="rgb(10%,10%,16%)" x1="1276" x2="1280" y1="205" y2="200" /><line stroke="rgb(10%,10%,16%)" x1="1280" x2="1285" y1="200" y2="200" /><line stroke="rgb(10%,10%,16%)" x1="1285" x2="1290" y1="200" y2="196" /><line stroke="rgb(10%,10%,16%)" x1="1290" x2="1295" y1="196" y2="196" /><line stroke="rgb(10%,10%,16%)" x1="1295" x2="1295" y1="196" y2="0" /><line stroke="rgb(10%,10%,16%)" x1="1295" x2="556" y1="0" y2="71" /><line stroke="rgb(10%,10%,16%)" x1="556" x2="561" y1="71" y2="66" /><line stroke="rgb(10%,10%,16%)" x1="561" x2="575" y1="66" y2="66" /><line stroke="rgb(10%,10%,16%)" x1="575" x2="590" y1="66" y2="81" /><line stroke="rgb(10%,10%,16%)" x1="590" x2="590" y1="81" y2="86" /><line stroke="rgb(10%,10%,16%)" x1="590" x2="599" y1="86" y2="95" /><line stroke="rgb(10%,10%,16%)" x1="599" x2="599" y1="95" y2="100" /><line stroke="rgb(10%,10%,16%)" x1="599" x2="604" y1="100" y2="105" /><line stroke="rgb(10%,10%,16%)" x1="604" x2="604" y1="105" y2="110" /><line stroke="rgb(10%,10%,16%)" x1="604" x2="609" y1="110" y2="110" /><line stroke="rgb(10%,10%,16%)" x1="609" x2="609" y1="110" y2="95" /><line stroke="rgb(10%,10%,16%)" x1="609" x2="618" y1="95" y2="86" /><line stroke="rgb(10%,10%,16%)" x1="618" x2="628" y1="86" y2="86" /><line stroke="rgb(10%,10%,16%)" x1="628" x2="633" y1="86" y2="90" /><line stroke="rgb(10%,10%,16%)" x1="633" x2="633" y1="90" y2="95" /><line stroke="rgb(10%,10%,16%)" x1="633" x2="638" y1="95" y2="100" /><line stroke="rgb(10%,10%,16%)" x1="638" x2="638" y1="100" y2="105" /><line stroke="rgb(10%,10%,16%)" x1="638" x2="642" y1="105" y2="105" /><line stroke="rgb(10%,10%,16%)" x1="642" x2="642" y1="105" y2="95" /><line stroke="rgb(10%,10%,16%)" x1="642" x2="647" y1="95" y2="90" /><line stroke="rgb(10%,10%,16%)" x1="647" x2="647" y1="90" y2="86" /><line stroke="rgb(10%,10%,16%)" x1="647" x2="652" y1="86" y2="81" /><line stroke="rgb(10%,10%,16%)" x1="652" x2="652" y1="81" y2="76" /><line stroke="rgb(10%,10%,16%)" x1="652" x2="657" y1="76" y2="71" /><line stroke="rgb(10%,10%,16%)" x1="657" x2="666" y1="71" y2="71" /><line stroke="rgb(10%,10%,16%)" x1="666" x2="671" y1="71" y2="76" /><line stroke="rgb(10%,10%,16%)" x1="671" x2="671" y1="76" y2="86" /><line stroke="rgb(10%,10%,16%)" x1="671" x2="676" y1="86" y2="81" /><line stroke="rgb(10%,10%,16%)" x1="676" x2="676" y1="81" y2="76" /><line stroke="rgb(10%,10%,16%)" x1="676" x2="681" y1="76" y2="71" /><line stroke="rgb(10%,10%,16%)" x1="681" x2="695" y1="71" y2="71" /><line stroke="rgb(10%,10%,16%)" x1="695" x2="700" y1="71" y2="76" /><line stroke="rgb(10%,10%,16%)" x1="700" x2="700" y1="76" y2="86" /><line stroke="rgb(10%,10%,16%)" x1="700" x2="705" y1="86" y2="86" /><line stroke="rgb(10%,10%,16%)" x1="705" x2="709" y1="86" y2="90" /><line stroke="rgb(10%,10%,16%)" x1="709" x2="709" y1="90" y2="110" /><line stroke="rgb(10%,10%,16%)" x1="709" x2="705" y1="110" y2="114" /><line stroke="rgb(10%,10%,16%)" x1="705" x2="705" y1="114" y2="129" /><line stroke="rgb(10%,10%,16%)" x1="705" x2="700" y1="129" y2="133" /><line stroke="rgb(10%,10%,16%)" x1="700" x2="700" y1="133" y2="143" /><line stroke="rgb(10%,10%,16%)" x1="700" x2="695" y1="143" y2="148" /><line stroke="rgb(10%,10%,16%)" x1="695" x2="695" y1="148" y2="172" /><line stroke="rgb(10%,10%,16%)" x1="695" x2="700" y1="172" y2="177" /><line stroke="rgb(10%,10%,16%)" x1="700" x2="700" y1="177" y2="186" /><line stroke="rgb(10%,10%,16%)" x1="700" x2="705" y1="186" y2="186" /><line stroke="rgb(10%,10%,16%)" x1="705" x2="709" y1="186" y2="181" /><line stroke="rgb(10%,10%,16%)" x1="709" x2="714" y1="181" y2="181" /><line stroke="rgb(10%,10%,16%)" x1="714" x2="724" y1="181" y2="172" /><line stroke="rgb(10%,10%,16%)" x1="724" x2="733" y1="172" y2="172" /><line stroke="rgb(10%,10%,16%)" x1="733" x2="738" y1="172" y2="177" /><line stroke="rgb(10%,10%,16%)" x1="738" x2="738" y1="177" y2="186" /><line stroke="rgb(10%,10%,16%)" x1="738" x2="733" y1="186" y2="191" /><line stroke="rgb(10%,10%,16%)" x1="733" x2="733" y1="191" y2="196" /><line stroke="rgb(10%,10%,16%)" x1="733" x2="729" y1="196" y2="200" /><line stroke="rgb(10%,10%,16%)" x1="729" x2="729" y1="200" y2="210" /><line stroke="rgb(10%,10%,16%)" x1="729" x2="724" y1="210" y2="215" /><line stroke="rgb(10%,10%,16%)" x1="724" x2="729" y1="215" y2="220" /><line stroke="rgb(10%,10%,16%)" x1="729" x2="729" y1="220" y2="272" /><line stroke="rgb(10%,10%,16%)" x1="729" x2="724" y1="272" y2="277" /><line stroke="rgb(10%,10%,16%)" x1="724" x2="724" y1="277" y2="291" /><line stroke="rgb(10%,10%,16%)" x1="724" x2="719" y1="291" y2="296" /><line stroke="rgb(10%,10%,16%)" x1="719" x2="719" y1="296" y2="306" /><line stroke="rgb(10%,10%,16%)" x1="719" x2="714" y1="306" y2="311" /><line stroke="rgb(10%,10%,16%)" x1="714" x2="714" y1="311" y2="325" /><line stroke="rgb(10%,10%,16%)" x1="714" x2="719" y1="325" y2="320" /><line stroke="rgb(10%,10%,16%)" x1="719" x2="724" y1="320" y2="320" /><line stroke="rgb(10%,10%,16%)" x1="724" x2="729" y1="320" y2="315" /><line stroke="rgb(10%,10%,16%)" x1="729" x2="748" y1="315" y2="315" /><line stroke="rgb(10%,10%,16%)" x1="748" x2="753" y1="315" y2="320" /><line stroke="rgb(10%,10%,16%)" x1="753" x2="753" y1="320" y2="330" /><line stroke="rgb(10%,10%,16%)" x1="753" x2="738" y1="330" y2="344" /><line stroke="rgb(10%,10%,16%)" x1="738" x2="738" y1="344" y2="349" /><line stroke="rgb(10%,10%,16%)" x1="738" x2="729" y1="349" y2="358" /><line stroke="rgb(10%,10%,16%)" x1="729" x2="729" y1="358" y2="363" /><line stroke="rgb(10%,10%,16%)" x1="729" x2="724" y1="363" y2="368" /><line stroke="rgb(10%,10%,16%)" x1="724" x2="753" y1="368" y2="368" /><line stroke="rgb(10%,10%,16%)" x1="753" x2="757" y1="368" y2="373" /><line stroke="rgb(10%,10%,16%)" x1="757" x2="757" y1="373" y2="387" /><line stroke="rgb(10%,10%,16%)" x1="757" x2="748" y1="387" y2="397" /><line stroke="rgb(10%,10%,16%)" x1="748" x2="743" y1="397" y2="397" /><line stroke="rgb(10%,10%,16%)" x1="743" x2="738" y1="397" y2="401" /><line stroke="rgb(10%,10%,16%)" x1="738" x2="738" y1="401" y2="406" /><line stroke="rgb(10%,10%,16%)" x1="738" x2="743" y1="406" y2="411" /><line stroke="rgb(10%,10%,16%)" x1="743" x2="743" y1="411" y2="421" /><line stroke="rgb(10%,10%,16%)" x1="743" x2="724" y1="421" y2="440" /><line stroke="rgb(10%,10%,16%)" x1="724" x2="724" y1="440" y2="454" /><line stroke="rgb(10%,10%,16%)" x1="724" x2="719" y1="454" y2="459" /><line stroke="rgb(10%,10%,16%)" x1="719" x2="719" y1="459" y2="464" /><line stroke="rgb(10%,10%,16%)" x1="719" x2="724" y1="464" y2="468" /><line stroke="rgb(10%,10%,16%)" x1="724" x2="724" y1="468" y2="478" /><line stroke="rgb(10%,10%,16%)" x1="724" x2="709" y1="478" y2="492" /><line stroke="rgb(10%,10%,16%)" x1="709" x2="709" y1="492" y2="497" /><line stroke="rgb(10%,10%,16%)" x1="709" x2="714" y1="497" y2="502" /><line stroke="rgb(10%,10%,16%)" x1="714" x2="714" y1="502" y2="507" /><line stroke="rgb(10%,10%,16%)" x1="714" x2="719" y1="507" y2="507" /><line stroke="rgb(10%,10%,16%)" x1="719" x2="724" y1="507" y2="511" /><line stroke="rgb(10%,10%,16%)" x1="724" x2="729" y1="511" y2="511" /><line stroke="rgb(10%,10%,16%)" x1="729" x2="733" y1="511" y2="516" /><line stroke="rgb(10%,10%,16%)" x1="733" x2="733" y1="516" y2="526" /><line stroke="rgb(10%,10%,16%)" x1="733" x2="748" y1="526" y2="526" /><line stroke="rgb(10%,10%,16%)" x1="748" x2="757" y1="526" y2="535" /><line stroke="rgb(10%,10%,16%)" x1="757" x2="757" y1="535" y2="540" /><line stroke="rgb(10%,10%,16%)" x1="757" x2="762" y1="540" y2="545" /><line stroke="rgb(10%,10%,16%)" x1="762" x2="762" y1="545" y2="559" /><line stroke="rgb(10%,10%,16%)" x1="762" x2="772" y1="559" y2="569" /><line stroke="rgb(10%,10%,16%)" x1="772" x2="772" y1="569" y2="607" /><line stroke="rgb(10%,10%,16%)" x1="772" x2="777" y1="607" y2="612" /><line stroke="rgb(10%,10%,16%)" x1="777" x2="777" y1="612" y2="655" /><line stroke="rgb(10%,10%,16%)" x1="777" x2="781" y1="655" y2="660" /><line stroke="rgb(10%,10%,16%)" x1="781" x2="781" y1="660" y2="679" /><line stroke="rgb(10%,10%,16%)" x1="781" x2="777" y1="679" y2="684" /><line stroke="rgb(10%,10%,16%)" x1="777" x2="777" y1="684" y2="732" /><line stroke="rgb(10%,10%,16%)" x1="777" x2="772" y1="732" y2="736" /><line stroke="rgb(10%,10%,16%)" x1="772" x2="772" y1="736" y2="751" /><line stroke="rgb(10%,10%,16%)" x1="772" x2="767" y1="751" y2="756" /><line stroke="rgb(10%,10%,16%)" x1="767" x2="767" y1="756" y2="760" /><line stroke="rgb(10%,10%,16%)" x1="767" x2="757" y1="760" y2="770" /><line stroke="rgb(10%,10%,16%)" x1="757" x2="757" y1="770" y2="775" /><line stroke="rgb(10%,10%,16%)" x1="757" x2="748" y1="775" y2="784" /><line stroke="rgb(10%,10%,16%)" x1="748" x2="748" y1="784" y2="789" /><line stroke="rgb(10%,10%,16%)" x1="748" x2="724" y1="789" y2="813" /><line stroke="rgb(10%,10%,16%)" x1="724" x2="719" y1="813" y2="813" /><line stroke="rgb(10%,10%,16%)" x1="719" x2="714" y1="813" y2="818" /><line stroke="rgb(10%,10%,16%)" x1="714" x2="695" y1="818" y2="818" /><line stroke="rgb(10%,10%,16%)" x1="695" x2="690" y1="818" y2="823" /><line stroke="rgb(10%,10%,16%)" x1="690" x2="638" y1="823" y2="823" /><line stroke="rgb(10%,10%,16%)" x1="638" x2="633" y1="823" y2="818" /><line stroke="rgb(10%,10%,16%)" x1="633" x2="594" y1="818" y2="818" /><line stroke="rgb(10%,10%,16%)" x1="594" x2="590" y1="818" y2="813" /><line stroke="rgb(10%,10%,16%)" x1="590" x2="585" y1="813" y2="813" /><line stroke="rgb(10%,10%,16%)" x1="585" x2="580" y1="813" y2="808" /><line stroke="rgb(10%,10%,16%)" x1="580" x2="580" y1="808" y2="799" /><line stroke="rgb(10%,10%,16%)" x1="580" x2="556" y1="799" y2="775" /><line stroke="rgb(10%,10%,16%)" x1="556" x2="556" y1="775" y2="770" /><line stroke="rgb(10%,10%,16%)" x1="556" x2="551" y1="770" y2="765" /><line stroke="rgb(10%,10%,16%)" x1="551" x2="551" y1="765" y2="760" /><line stroke="rgb(10%,10%,16%)" x1="551" x2="546" y1="760" y2="756" /><line stroke="rgb(10%,10%,16%)" x1="546" x2="546" y1="756" y2="746" /><line stroke="rgb(10%,10%,16%)" x1="546" x2="542" y1="746" y2="741" /><line stroke="rgb(10%,10%,16%)" x1="542" x2="542" y1="741" y2="732" /><line stroke="rgb(10%,10%,16%)" x1="542" x2="537" y1="732" y2="727" /><line stroke="rgb(10%,10%,16%)" x1="537" x2="537" y1="727" y2="626" /><line stroke="rgb(10%,10%,16%)" x1="537" x2="542" y1="626" y2="622" /><line stroke="rgb(10%,10%,16%)" x1="542" x2="542" y1="622" y2="574" /><line stroke="rgb(10%,10%,16%)" x1="542" x2="546" y1="574" y2="569" /><line stroke="rgb(10%,10%,16%)" x1="546" x2="546" y1="569" y2="559" /><line stroke="rgb(10%,10%,16%)" x1="546" x2="551" y1="559" y2="555" /><line stroke="rgb(10%,10%,16%)" x1="551" x2="551" y1="555" y2="540" /><line stroke="rgb(10%,10%,16%)" x1="551" x2="566" y1="540" y2="526" /><line stroke="rgb(10%,10%,16%)" x1="566" x2="570" y1="526" y2="526" /><line stroke="rgb(10%,10%,16%)" x1="570" x2="585" y1="526" y2="511" /><line stroke="rgb(10%,10%,16%)" x1="585" x2="594" y1="511" y2="511" /><line stroke="rgb(10%,10%,16%)" x1="594" x2="594" y1="511" y2="507" /><line stroke="rgb(10%,10%,16%)" x1="594" x2="604" y1="507" y2="497" /><line stroke="rgb(10%,10%,16%)" x1="604" x2="604" y1="497" y2="478" /><line stroke="rgb(10%,10%,16%)" x1="604" x2="599" y1="478" y2="473" /><line stroke="rgb(10%,10%,16%)" x1="599" x2="599" y1="473" y2="468" /><line stroke="rgb(10%,10%,16%)" x1="599" x2="590" y1="468" y2="459" /><line stroke="rgb(10%,10%,16%)" x1="590" x2="590" y1="459" y2="449" /><line stroke="rgb(10%,10%,16%)" x1="590" x2="594" y1="449" y2="445" /><line stroke="rgb(10%,10%,16%)" x1="594" x2="599" y1="445" y2="445" /><line stroke="rgb(10%,10%,16%)" x1="599" x2="594" y1="445" y2="440" /><line stroke="rgb(10%,10%,16%)" x1="594" x2="590" y1="440" y2="440" /><line stroke="rgb(10%,10%,16%)" x1="590" x2="585" y1="440" y2="435" /><line stroke="rgb(10%,10%,16%)" x1="585" x2="580" y1="435" y2="435" /><line stroke="rgb(10%,10%,16%)" x1="580" x2="575" y1="435" y2="430" /><line stroke="rgb(10%,10%,16%)" x1="575" x2="570" y1="430" y2="430" /><line stroke="rgb(10%,10%,16%)" x1="570" x2="566" y1="430" y2="425" /><line stroke="rgb(10%,10%,16%)" x1="566" x2="566" y1="425" y2="406" /><line stroke="rgb(10%,10%,16%)" x1="566" x2="570" y1="406" y2="401" /><line stroke="rgb(10%,10%,16%)" x1="570" x2="575" y1="401" y2="401" /><line stroke="rgb(10%,10%,16%)" x1="575" x2="556" y1="401" y2="382" /><line stroke="rgb(10%,10%,16%)" x1="556" x2="556" y1="382" y2="368" /><line stroke="rgb(10%,10%,16%)" x1="556" x2="570" y1="368" y2="354" /><line stroke="rgb(10%,10%,16%)" x1="570" x2="585" y1="354" y2="354" /><line stroke="rgb(10%,10%,16%)" x1="585" x2="580" y1="354" y2="349" /><line stroke="rgb(10%,10%,16%)" x1="580" x2="580" y1="349" y2="325" /><line stroke="rgb(10%,10%,16%)" x1="580" x2="575" y1="325" y2="320" /><line stroke="rgb(10%,10%,16%)" x1="575" x2="575" y1="320" y2="315" /><line stroke="rgb(10%,10%,16%)" x1="575" x2="570" y1="315" y2="311" /><line stroke="rgb(10%,10%,16%)" x1="570" x2="570" y1="311" y2="306" /><line stroke="rgb(10%,10%,16%)" x1="570" x2="566" y1="306" y2="301" /><line stroke="rgb(10%,10%,16%)" x1="566" x2="566" y1="301" y2="296" /><line stroke="rgb(10%,10%,16%)" x1="566" x2="556" y1="296" y2="287" /><line stroke="rgb(10%,10%,16%)" x1="556" x2="556" y1="287" y2="272" /><line stroke="rgb(10%,10%,16%)" x1="556" x2="561" y1="272" y2="267" /><line stroke="rgb(10%,10%,16%)" x1="561" x2="566" y1="267" y2="267" /><line stroke="rgb(10%,10%,16%)" x1="566" x2="561" y1="267" y2="263" /><line stroke="rgb(10%,10%,16%)" x1="561" x2="561" y1="263" y2="258" /><line stroke="rgb(10%,10%,16%)" x1="561" x2="551" y1="258" y2="248" /><line stroke="rgb(10%,10%,16%)" x1="551" x2="551" y1="248" y2="244" /><line stroke="rgb(10%,10%,16%)" x1="551" x2="522" y1="244" y2="215" /><line stroke="rgb(10%,10%,16%)" x1="522" x2="518" y1="215" y2="215" /><line stroke="rgb(10%,10%,16%)" x1="518" x2="494" y1="215" y2="191" /><line stroke="rgb(10%,10%,16%)" x1="494" x2="494" y1="191" y2="181" /><line stroke="rgb(10%,10%,16%)" x1="494" x2="498" y1="181" y2="177" /><line stroke="rgb(10%,10%,16%)" x1="498" x2="508" y1="177" y2="177" /><line stroke="rgb(10%,10%,16%)" x1="508" x2="513" y1="177" y2="181" /><line stroke="rgb(10%,10%,16%)" x1="513" x2="518" y1="181" y2="181" /><line stroke="rgb(10%,10%,16%)" x1="518" x2="522" y1="181" y2="186" /><line stroke="rgb(10%,10%,16%)" x1="522" x2="527" y1="186" y2="186" /><line stroke="rgb(10%,10%,16%)" x1="527" x2="537" y1="186" y2="196" /><line stroke="rgb(10%,10%,16%)" x1="537" x2="542" y1="196" y2="196" /><line stroke="rgb(10%,10%,16%)" x1="542" x2="546" y1="196" y2="200" /><line stroke="rgb(10%,10%,16%)" x1="546" x2="551" y1="200" y2="200" /><line stroke="rgb(10%,10%,16%)" x1="551" x2="561" y1="200" y2="210" /><line stroke="rgb(10%,10%,16%)" x1="561" x2="566" y1="210" y2="210" /><line stroke="rgb(10%,10%,16%)" x1="566" x2="575" y1="210" y2="220" /><line stroke="rgb(10%,10%,16%)" x1="575" x2="580" y1="220" y2="220" /><line stroke="rgb(10%,10%,16%)" x1="580" x2="580" y1="220" y2="215" /><line stroke="rgb(10%,10%,16%)" x1="580" x2="575" y1="215" y2="210" /><line stroke="rgb(10%,10%,16%)" x1="575" x2="575" y1="210" y2="200" /><line stroke="rgb(10%,10%,16%)" x1="575" x2="570" y1="200" y2="196" /><line stroke="rgb(10%,10%,16%)" x1="570" x2="570" y1="196" y2="186" /><line stroke="rgb(10%,10%,16%)" x1="570" x2="566" y1="186" y2="181" /><line stroke="rgb(10%,10%,16%)" x1="566" x2="566" y1="181" y2="177" /><line stroke="rgb(10%,10%,16%)" x1="566" x2="561" y1="177" y2="172" /><line stroke="rgb(10%,10%,16%)" x1="561" x2="561" y1="172" y2="167" /><line stroke="rgb(10%,10%,16%)" x1="561" x2="556" y1="167" y2="162" /><line stroke="rgb(10%,10%,16%)" x1="556" x2="556" y1="162" y2="153" /><line stroke="rgb(10%,10%,16%)" x1="556" x2="551" y1="153" y2="148" /><line stroke="rgb(10%,10%,16%)" x1="551" x2="551" y1="148" y2="143" /><line stroke="rgb(10%,10%,16%)" x1="551" x2="546" y1="143" y2="138" /><line stroke="rgb(10%,10%,16%)" x1="546" x2="546" y1="138" y2="129" /><line stroke="rgb(10%,10%,16%)" x1="546" x2="551" y1="129" y2="124" /><line stroke="rgb(10%,10%,16%)" x1="551" x2="561" y1="124" y2="124" /><line stroke="rgb(10%,10%,16%)" x1="561" x2="566" y1="124" y2="129" /><line stroke="rgb(10%,10%,16%)" x1="566" x2="566" y1="129" y2="114" /><line stroke="rgb(10%,10%,16%)" x1="566" x2="561" y1="114" y2="110" /><line stroke="rgb(10%,10%,16%)" x1="561" x2="561" y1="110" y2="100" /><line stroke="rgb(10%,10%,16%)" x1="561" x2="556" y1="100" y2="95" /><line stroke="rgb(10%,10%,16%)" x1="556" x2="0" y1="95" y2="0" /><line stroke="rgb(10%,10%,16%)" x1="0" x2="1295" y1="0" y2="0" /><line stroke="rgb(10%,10%,16%)" x1="1295" x2="556" y1="0" y2="71" /><line stroke="rgb(10%,10%,16%)" x1="556" x2="556" y1="71" y2="95" /></g></svg>