<?xml version="1.0" encoding="utf-8" ?>
<svg baseProfile="full" height="300" version="1.1" width="300" xmlns="http://www.w3.org/2000/svg" xmlns:ev="http://www.w3.org/2001/xml-events" xmlns:xlink="http://www.w3.org/1999/xlink"><defs /><g fill="none" id="shapes"><line stroke="rgb(10%,10%,16%)" x1="85" x2="100" y1="267" y2="267" /><line stroke="rgb(10%,10%,16%)" x1="100" x2="102" y1="267" y2="268" /><line stroke="rgb(10%,10%,16%)" x1="102" x2="198" y1="268" y2="268" /><line stroke="rgb(10%,10%,16%)" x1="198" x2="199" y1="268" y2="267" /><line stroke="rgb(10%,10%,16%)" x1="199" x2="214" y1="267" y2="267" /><line stroke="rgb(10%,10%,16%)" x1="214" x2="219" y1="267" y2="271" /><line stroke="rgb(10%,10%,16%)" x1="219" x2="219" y1="271" y2="289" /><line stroke="rgb(10%,10%,16%)" x1="219" x2="217" y1="289" y2="291" /><line stroke="rgb(10%,10%,16%)" x1="217" x2="82" y1="291" y2="291" /><line stroke="rgb(10%,10%,16%)" x1="82" x2="79" y1="291" y2="288" /><line stroke="rgb(10%,10%,16%)" x1="79" x2="79" y1="288" y2="273" /><line stroke="rgb(10%,10%,16%)" x1="79" x2="165" y1="273" y2="51" /><line stroke="rgb(10%,10%,16%)" x1="165" x2="163" y1="51" y2="52" /><line stroke="rgb(10%,10%,16%)" x1="163" x2="162" y1="52" y2="52" /><line stroke="rgb(10%,10%,16%)" x1="162" x2="162" y1="52" y2="54" /><line stroke="rgb(10%,10%,16%)" x1="162" x2="160" y1="54" y2="55" /><line stroke="rgb(10%,10%,16%)" x1="160" x2="160" y1="55" y2="244" /><line stroke="rgb(10%,10%,16%)" x1="160" x2="162" y1="244" y2="246" /><line stroke="rgb(10%,10%,16%)" x1="162" x2="162" y1="246" y2="247" /><line stroke="rgb(10%,10%,16%)" x1="162" x2="217" y1="247" y2="247" /><line stroke="rgb(10%,10%,16%)" x1="217" x2="219" y1="247" y2="246" /><line stroke="rgb(10%,10%,16%)" x1="219" x2="219" y1="246" y2="232" /><line stroke="rgb(10%,10%,16%)" x1="219" x2="217" y1="232" y2="231" /><line stroke="rgb(10%,10%,16%)" x1="217" x2="217" y1="231" y2="226" /><line stroke="rgb(10%,10%,16%)" x1="217" x2="216" y1="226" y2="225" /><line stroke="rgb(10%,10%,16%)" x1="216" x2="184" y1="225" y2="225" /><line stroke="rgb(10%,10%,16%)" x1="184" x2="183" y1="225" y2="223" /><line stroke="rgb(10%,10%,16%)" x1="183" x2="183" y1="223" y2="76" /><line stroke="rgb(10%,10%,16%)" x1="183" x2="186" y1="76" y2="73" /><line stroke="rgb(10%,10%,16%)" x1="186" x2="202" y1="73" y2="73" /><line stroke="rgb(10%,10%,16%)" x1="202" x2="204" y1="73" y2="75" /><line stroke="rgb(10%,10%,16%)" x1="204" x2="204" y1="75" y2="102" /><line stroke="rgb(10%,10%,16%)" x1="204" x2="205" y1="102" y2="103" /><line stroke="rgb(10%,10%,16%)" x1="205" x2="205" y1="103" y2="105" /><line stroke="rgb(10%,10%,16%)" x1="205" x2="207" y1="105" y2="106" /><line stroke="rgb(10%,10%,16%)" x1="207" x2="226" y1="106" y2="106" /><line stroke="rgb(10%,10%,16%)" x1="226" x2="228" y1="106" y2="105" /><line stroke="rgb(10%,10%,16%)" x1="228" x2="228" y1="105" y2="54" /><line stroke="rgb(10%,10%,16%)" x1="228" x2="225" y1="54" y2="51" /><line stroke="rgb(10%,10%,16%)" x1="225" x2="165" y1="51" y2="51" /><line stroke="rgb(10%,10%,16%)" x1="165" x2="225" y1="51" y2="51" /><line stroke="rgb(10%,10%,16%)" x1="225" x2="228" y1="51" y2="54" /><line stroke="rgb(10%,10%,16%)" x1="228" x2="228" y1="54" y2="105" /><line stroke="rgb(10%,10%,16%)" x1="228" x2="226" y1="105" y2="106" /><line stroke="rgb(10%,10%,16%)" x1="226" x2="207" y1="106" y2="106" /><line stroke="rgb(10%,10%,16%)" x1="207" x2="205" y1="106" y2="105" /><line stroke="rgb(10%,10%,16%)" x1="205" x2="205" y1="105" y2="103" /><line stroke="rgb(10%,10%,16%)" x1="205" x2="204" y1="103" y2="102" /><line stroke="rgb(10%,10%,16%)" x1="204" x2="204" y1="102" y2="75" /><line stroke="rgb(10%,10%,16%)" x1="204" x2="202" y1="75" y2="73" /><line stroke="rgb(10%,10%,16%)" x1="202" x2="186" y1="73" y2="73" /><line stroke="rgb(10%,10%,16%)" x1="186" x2="183" y1="73" y2="76" /><line stroke="rgb(10%,10%,16%)" x1="183" x2="183" y1="76" y2="223" /><line stroke="rgb(10%,10%,16%)" x1="183" x2="184" y1="223" y2="225" /><line stroke="rgb(10%,10%,16%)" x1="184" x2="216" y1="225" y2="225" /><line stroke="rgb(10%,10%,16%)" x1="216" x2="217" y1="225" y2="226" /><line stroke="rgb(10%,10%,16%)" x1="217" x2="217" y1="226" y2="231" /><line stroke="rgb(10%,10%,16%)" x1="217" x2="219" y1="231" y2="232" /><line stroke="rgb(10%,10%,16%)" x1="219" x2="219" y1="232" y2="246" /><line stroke="rgb(10%,10%,16%)" x1="219" x2="217" y1="246" y2="247" /><line stroke="rgb(10%,10%,16%)" x1="217" x2="163" y1="247" y2="247" /><line stroke="rgb(10%,10%,16%)" x1="163" x2="160" y1="247" y2="244" /><line stroke="rgb(10%,10%,16%)" x1="160" x2="160" y1="244" y2="55" /><line stroke="rgb(10%,10%,16%)" x1="160" x2="75" y1="55" y2="51" /><line stroke="rgb(10%,10%,16%)" x1="75" x2="73" y1="51" y2="52" /><line stroke="rgb(10%,10%,16%)" x1="73" x2="72" y1="52" y2="52" /><line stroke="rgb(10%,10%,16%)" x1="72" x2="72" y1="52" y2="54" /><line stroke="rgb(10%,10%,16%)" x1="72" x2="70" y1="54" y2="55" /><line stroke="rgb(10%,10%,16%)" x1="70" x2="70" y1="55" y2="102" /><line stroke="rgb(10%,10%,16%)" x1="70" x2="72" y1="102" y2="103" /><line stroke="rgb(10%,10%,16%)" x1="72" x2="72" y1="103" y2="105" /><line stroke="rgb(10%,10%,16%)" x1="72" x2="73" y1="105" y2="106" /><line stroke="rgb(10%,10%,16%)" x1="73" x2="93" y1="106" y2="106" /><line stroke="rgb(10%,10%,16%)" x1="93" x2="94" y1="106" y2="105" /><line stroke="rgb(10%,10%,16%)" x1="94" x2="94" y1="105" y2="76" /><line stroke="rgb(10%,10%,16%)" x1="94" x2="97" y1="76" y2="73" /><line stroke="rgb(10%,10%,16%)" x1="97" x2="114" y1="73" y2="73" /><line stroke="rgb(10%,10%,16%)" x1="114" x2="115" y1="73" y2="75" /><line stroke="rgb(10%,10%,16%)" x1="115" x2="115" y1="75" y2="223" /><line stroke="rgb(10%,10%,16%)" x1="115" x2="114" y1="223" y2="225" /><line stroke="rgb(10%,10%,16%)" x1="114" x2="84" y1="225" y2="225" /><line stroke="rgb(10%,10%,16%)" x1="84" x2="81" y1="225" y2="228" /><line stroke="rgb(10%,10%,16%)" x1="81" x2="81" y1="228" y2="229" /><line stroke="rgb(10%,10%,16%)" x1="81" x2="79" y1="229" y2="231" /><line stroke="rgb(10%,10%,16%)" x1="79" x2="79" y1="231" y2="244" /><line stroke="rgb(10%,10%,16%)" x1="79" x2="81" y1="244" y2="246" /><line stroke="rgb(10%,10%,16%)" x1="81" x2="81" y1="246" y2="247" /><line stroke="rgb(10%,10%,16%)" x1="81" x2="138" y1="247" y2="247" /><line stroke="rgb(10%,10%,16%)" x1="138" x2="138" y1="247" y2="52" /><line stroke="rgb(10%,10%,16%)" x1="138" x2="136" y1="52" y2="52" /><line stroke="rgb(10%,10%,16%)" x1="136" x2="135" y1="52" y2="51" /><line stroke="rgb(10%,10%,16%)" x1="135" x2="75" y1="51" y2="51" /><line stroke="rgb(10%,10%,16%)" x1="75" x2="135" y1="51" y2="51" /><line stroke="rgb(10%,10%,16%)" x1="135" x2="138" y1="51" y2="54" /><line stroke="rgb(10%,10%,16%)" x1="138" x2="138" y1="54" y2="246" /><line stroke="rgb(10%,10%,16%)" x1="138" x2="136" y1="246" y2="247" /><line stroke="rgb(10%,10%,16%)" x1="136" x2="82" y1="247" y2="247" /><line stroke="rgb(10%,10%,16%)" x1="82" x2="79" y1="247" y2="244" /><line stroke="rgb(10%,10%,16%)" x1="79" x2="79" y1="244" y2="231" /><line stroke="rgb(10%,10%,16%)" x1="79" x2="81" y1="231" y2="229" /><line stroke="rgb(10%,10%,16%)" x1="81" x2="81" y1="229" y2="228" /><line stroke="rgb(10%,10%,16%)" x1="81" x2="84" y1="228" y2="225" /><line stroke="rgb(10%,10%,16%)" x1="84" x2="115" y1="225" y2="225" /><line stroke="rgb(10%,10%,16%)" x1="115" x2="115" y1="225" y2="75" /><line stroke="rgb(10%,10%,16%)" x1="115" x2="114" y1="75" y2="73" /><line stroke="rgb(10%,10%,16%)" x1="114" x2="97" y1="73" y2="73" /><line stroke="rgb(10%,10%,16%)" x1="97" x2="94" y1="73" y2="76" /><line stroke="rgb(10%,10%,16%)" x1="94" x2="94" y1="76" y2="105" /><line stroke="rgb(10%,10%,16%)" x1="94" x2="93" y1="105" y2="106" /><line stroke="rgb(10%,10%,16%)" x1="93" x2="73" y1="106" y2="106" /><line stroke="rgb(10%,10%,16%)" x1="73" x2="72" y1="106" y2="105" /><line stroke="rgb(10%,10%,16%)" x1="72" x2="72" y1="105" y2="103" /><line stroke="rgb(10%,10%,16%)" x1="72" x2="70" y1="103" y2="102" /><line stroke="rgb(10%,10%,16%)" x1="70" x2="70" y1="102" y2="55" /><line stroke="rgb(10%,10%,16%)" x1="70" x2="30" y1="55" y2="6" /><line stroke="rgb(10%,10%,16%)" x1="30" x2="27" y1="6" y2="9" /><line stroke="rgb(10%,10%,16%)" x1="27" x2="27" y1="9" y2="10" /><line stroke="rgb(10%,10%,16%)" x1="27" x2="25" y1="10" y2="12" /><line stroke="rgb(10%,10%,16%)" x1="25" x2="25" y1="12" y2="103" /><line stroke="rgb(10%,10%,16%)" x1="25" x2="27" y1="103" y2="105" /><line stroke="rgb(10%,10%,16%)" x1="27" x2="27" y1="105" y2="106" /><line stroke="rgb(10%,10%,16%)" x1="27" x2="28" y1="106" y2="108" /><line stroke="rgb(10%,10%,16%)" x1="28" x2="49" y1="108" y2="108" /><line stroke="rgb(10%,10%,16%)" x1="49" x2="51" y1="108" y2="106" /><line stroke="rgb(10%,10%,16%)" x1="51" x2="51" y1="106" y2="31" /><line stroke="rgb(10%,10%,16%)" x1="51" x2="54" y1="31" y2="28" /><line stroke="rgb(10%,10%,16%)" x1="54" x2="244" y1="28" y2="28" /><line stroke="rgb(10%,10%,16%)" x1="244" x2="247" y1="28" y2="31" /><line stroke="rgb(10%,10%,16%)" x1="247" x2="247" y1="31" y2="102" /><line stroke="rgb(10%,10%,16%)" x1="247" x2="249" y1="102" y2="103" /><line stroke="rgb(10%,10%,16%)" x1="249" x2="249" y1="103" y2="105" /><line stroke="rgb(10%,10%,16%)" x1="249" x2="250" y1="105" y2="106" /><line stroke="rgb(10%,10%,16%)" x1="250" x2="270" y1="106" y2="106" /><line stroke="rgb(10%,10%,16%)" x1="270" x2="271" y1="106" y2="105" /><line stroke="rgb(10%,10%,16%)" x1="271" x2="271" y1="105" y2="9" /><line stroke="rgb(10%,10%,16%)" x1="271" x2="270" y1="9" y2="7" /><line stroke="rgb(10%,10%,16%)" x1="270" x2="268" y1="7" y2="7" /><line stroke="rgb(10%,10%,16%)" x1="268" x2="267" y1="7" y2="6" /><line stroke="rgb(10%,10%,16%)" x1="267" x2="30" y1="6" y2="6" /><line stroke="rgb(10%,10%,16%)" x1="30" x2="267" y1="6" y2="6" /><line stroke="rgb(10%,10%,16%)" x1="267" x2="271" y1="6" y2="10" /><line stroke="rgb(10%,10%,16%)" x1="271" x2="271" y1="10" y2="103" /><line stroke="rgb(10%,10%,16%)" x1="271" x2="268" y1="103" y2="106" /><line stroke="rgb(10%,10%,16%)" x1="268" x2="252" y1="106" y2="106" /><line stroke="rgb(10%,10%,16%)" x1="252" x2="247" y1="106" y2="102" /><line stroke="rgb(10%,10%,16%)" x1="247" x2="247" y1="102" y2="30" /><line stroke="rgb(10%,10%,16%)" x1="247" x2="246" y1="30" y2="30" /><line stroke="rgb(10%,10%,16%)" x1="246" x2="244" y1="30" y2="28" /><line stroke="rgb(10%,10%,16%)" x1="244" x2="54" y1="28" y2="28" /><line stroke="rgb(10%,10%,16%)" x1="54" x2="51" y1="28" y2="31" /><line stroke="rgb(10%,10%,16%)" x1="51" x2="51" y1="31" y2="105" /><line stroke="rgb(10%,10%,16%)" x1="51" x2="48" y1="105" y2="108" /><line stroke="rgb(10%,10%,16%)" x1="48" x2="30" y1="108" y2="108" /><line stroke="rgb(10%,10%,16%)" x1="30" x2="25" y1="108" y2="103" /><line stroke="rgb(10%,10%,16%)" x1="25" x2="25" y1="103" y2="12" /><line stroke="rgb(10%,10%,16%)" x1="25" x2="27" y1="12" y2="10" /><line stroke="rgb(10%,10%,16%)" x1="27" x2="27" y1="10" y2="9" /><line stroke="rgb(10%,10%,16%)" x1="27" x2="30" y1="9" y2="6" /><line stroke="rgb(10%,10%,16%)" x1="30" x2="49" y1="6" y2="108" /><line stroke="rgb(10%,10%,16%)" x1="49" x2="244" y1="108" y2="28" /><line stroke="rgb(10%,10%,16%)" x1="244" x2="270" y1="28" y2="106" /><line stroke="rgb(10%,10%,16%)" x1="270" x2="267" y1="106" y2="6" /><line stroke="rgb(10%,10%,16%)" x1="267" x2="30" y1="6" y2="6" /><line stroke="rgb(10%,10%,16%)" x1="30" x2="271" y1="6" y2="103" /><line stroke="rgb(10%,10%,16%)" x1="271" x2="247" y1="103" y2="30" /><line stroke="rgb(10%,10%,16%)" x1="247" x2="51" y1="30" y2="105" /><line stroke="rgb(10%,10%,16%)" x1="51" x2="25" y1="105" y2="12" /><line stroke="rgb(10%,10%,16%)" x1="25" x2="27" y1="12" y2="9" /><line stroke="rgb(10%,10%,16%)" x1="27" x2="165" y1="9" y2="51" /><line stroke="rgb(10%,10%,16%)" x1="165" x2="165" y1="51" y2="51" /><line stroke="rgb(10%,10%,16%)" x1="165" x2="217" y1="51" y2="247" /><line stroke="rgb(10%,10%,16%)" x1="217" x2="184" y1="247" y2="225" /><line stroke="rgb(10%,10%,16%)" x1="184" x2="202" y1="225" y2="73" /><line stroke="rgb(10%,10%,16%)" x1="202" x2="226" y1="73" y2="106" /><line stroke="rgb(10%,10%,16%)" x1="226" x2="225" y1="106" y2="51" /><line stroke="rgb(10%,10%,16%)" x1="225" x2="165" y1="51" y2="51" /><line stroke="rgb(10%,10%,16%)" x1="165" x2="228" y1="51" y2="105" /><line stroke="rgb(10%,10%,16%)" x1="228" x2="204" y1="105" y2="75" /><line stroke="rgb(10%,10%,16%)" x1="204" x2="183" y1="75" y2="223" /><line stroke="rgb(10%,10%,16%)" x1="183" x2="219" y1="223" y2="232" /><line stroke="rgb(10%,10%,16%)" x1="219" x2="163" y1="232" y2="247" /><line stroke="rgb(10%,10%,16%)" x1="163" x2="160" y1="247" y2="55" /><line stroke="rgb(10%,10%,16%)" x1="160" x2="75" y1="55" y2="51" /><line stroke="rgb(10%,10%,16%)" x1="75" x2="93" y1="51" y2="106" /><line stroke="rgb(10%,10%,16%)" x1="93" x2="114" y1="106" y2="73" /><line stroke="rgb(10%,10%,16%)" x1="114" x2="84" y1="73" y2="225" /><line stroke="rgb(10%,10%,16%)" x1="84" x2="138" y1="225" y2="247" /><line stroke="rgb(10%,10%,16%)" x1="138" x2="135" y1="247" y2="51" /><line stroke="rgb(10%,10%,16%)" x1="135" x2="75" y1="51" y2="51" /><line stroke="rgb(10%,10%,16%)" x1="75" x2="138" y1="51" y2="246" /><line stroke="rgb(10%,10%,16%)" x1="138" x2="79" y1="246" y2="231" /><line stroke="rgb(10%,10%,16%)" x1="79" x2="115" y1="231" y2="75" /><line stroke="rgb(10%,10%,16%)" x1="115" x2="94" y1="75" y2="105" /><line stroke="rgb(10%,10%,16%)" x1="94" x2="70" y1="105" y2="55" /><line stroke="rgb(10%,10%,16%)" x1="70" x2="70" y1="55" y2="55" /><line stroke="rgb(10%,10%,16%)" x1="70" x2="85" y1="55" y2="267" /><line stroke="rgb(10%,10%,16%)" x1="85" x2="85" y1="267" y2="267" /><line stroke="rgb(10%,10%,16%)" x1="85" x2="219" y1="267" y2="289" /><line stroke="rgb(10%,10%,16%)" x1="219" x2="79" y1="289" y2="273" /><line stroke="rgb(10%,10%,16%)" x1="79" x2="79" y1="273" y2="273" /></g></svg>