<?xml version="1.0" encoding="utf-8" ?>
<svg baseProfile="full" height="466" version="1.1" width="537" xmlns="http://www.w3.org/2000/svg" xmlns:ev="http://www.w3.org/2001/xml-events" xmlns:xlink="http://www.w3.org/1999/xlink"><defs /><g fill="none" id="shapes"><line stroke="rgb(10%,10%,16%)" x1="0" x2="421" y1="466" y2="0" /><line stroke="rgb(10%,10%,16%)" x1="421" x2="415" y1="0" y2="31" /><line stroke="rgb(10%,10%,16%)" x1="415" x2="409" y1="31" y2="64" /><line stroke="rgb(10%,10%,16%)" x1="409" x2="403" y1="64" y2="97" /><line stroke="rgb(10%,10%,16%)" x1="403" x2="410" y1="97" y2="117" /><line stroke="rgb(10%,10%,16%)" x1="410" x2="416" y1="117" y2="203" /><line stroke="rgb(10%,10%,16%)" x1="416" x2="437" y1="203" y2="313" /><line stroke="rgb(10%,10%,16%)" x1="437" x2="450" y1="313" y2="319" /><line stroke="rgb(10%,10%,16%)" x1="450" x2="460" y1="319" y2="325" /><line stroke="rgb(10%,10%,16%)" x1="460" x2="470" y1="325" y2="331" /><line stroke="rgb(10%,10%,16%)" x1="470" x2="483" y1="331" y2="338" /><line stroke="rgb(10%,10%,16%)" x1="483" x2="533" y1="338" y2="330" /><line stroke="rgb(10%,10%,16%)" x1="533" x2="536" y1="330" y2="0" /><line stroke="rgb(10%,10%,16%)" x1="536" x2="0" y1="0" y2="0" /><line stroke="rgb(10%,10%,16%)" x1="0" x2="10" y1="0" y2="348" /><line stroke="rgb(10%,10%,16%)" x1="10" x2="116" y1="348" y2="452" /><line stroke="rgb(10%,10%,16%)" x1="116" x2="321" y1="452" y2="458" /><line stroke="rgb(10%,10%,16%)" x1="321" x2="158" y1="458" y2="447" /><line stroke="rgb(10%,10%,16%)" x1="158" x2="144" y1="447" y2="432" /><line stroke="rgb(10%,10%,16%)" x1="144" x2="130" y1="432" y2="439" /><line stroke="rgb(10%,10%,16%)" x1="130" x2="109" y1="439" y2="427" /><line stroke="rgb(10%,10%,16%)" x1="109" x2="95" y1="427" y2="410" /><line stroke="rgb(10%,10%,16%)" x1="95" x2="11" y1="410" y2="378" /><line stroke="rgb(10%,10%,16%)" x1="11" x2="28" y1="378" y2="361" /><line stroke="rgb(10%,10%,16%)" x1="28" x2="37" y1="361" y2="345" /><line stroke="rgb(10%,10%,16%)" x1="37" x2="64" y1="345" y2="333" /><line stroke="rgb(10%,10%,16%)" x1="64" x2="85" y1="333" y2="320" /><line stroke="rgb(10%,10%,16%)" x1="85" x2="93" y1="320" y2="154" /><line stroke="rgb(10%,10%,16%)" x1="93" x2="101" y1="154" y2="116" /><line stroke="rgb(10%,10%,16%)" x1="101" x2="109" y1="116" y2="94" /><line stroke="rgb(10%,10%,16%)" x1="109" x2="117" y1="94" y2="78" /><line stroke="rgb(10%,10%,16%)" x1="117" x2="127" y1="78" y2="62" /><line stroke="rgb(10%,10%,16%)" x1="127" x2="144" y1="62" y2="43" /><line stroke="rgb(10%,10%,16%)" x1="144" x2="161" y1="43" y2="31" /><line stroke="rgb(10%,10%,16%)" x1="161" x2="176" y1="31" y2="23" /><line stroke="rgb(10%,10%,16%)" x1="176" x2="197" y1="23" y2="15" /><line stroke="rgb(10%,10%,16%)" x1="197" x2="231" y1="15" y2="7" /><line stroke="rgb(10%,10%,16%)" x1="231" x2="308" y1="7" y2="16" /><line stroke="rgb(10%,10%,16%)" x1="308" x2="326" y1="16" y2="24" /><line stroke="rgb(10%,10%,16%)" x1="326" x2="342" y1="24" y2="35" /><line stroke="rgb(10%,10%,16%)" x1="342" x2="394" y1="35" y2="55" /><line stroke="rgb(10%,10%,16%)" x1="394" x2="402" y1="55" y2="72" /><line stroke="rgb(10%,10%,16%)" x1="402" x2="410" y1="72" y2="19" /><line stroke="rgb(10%,10%,16%)" x1="410" x2="138" y1="19" y2="29" /><line stroke="rgb(10%,10%,16%)" x1="138" x2="138" y1="29" y2="0" /><line stroke="rgb(10%,10%,16%)" x1="138" x2="254" y1="0" y2="15" /><line stroke="rgb(10%,10%,16%)" x1="254" x2="214" y1="15" y2="24" /><line stroke="rgb(10%,10%,16%)" x1="214" x2="194" y1="24" y2="33" /><line stroke="rgb(10%,10%,16%)" x1="194" x2="166" y1="33" y2="59" /><line stroke="rgb(10%,10%,16%)" x1="166" x2="155" y1="59" y2="77" /><line stroke="rgb(10%,10%,16%)" x1="155" x2="146" y1="77" y2="100" /><line stroke="rgb(10%,10%,16%)" x1="146" x2="137" y1="100" y2="146" /><line stroke="rgb(10%,10%,16%)" x1="137" x2="149" y1="146" y2="283" /><line stroke="rgb(10%,10%,16%)" x1="149" x2="166" y1="283" y2="299" /><line stroke="rgb(10%,10%,16%)" x1="166" x2="204" y1="299" y2="275" /><line stroke="rgb(10%,10%,16%)" x1="204" x2="215" y1="275" y2="302" /><line stroke="rgb(10%,10%,16%)" x1="215" x2="158" y1="302" y2="325" /><line stroke="rgb(10%,10%,16%)" x1="158" x2="123" y1="325" y2="350" /><line stroke="rgb(10%,10%,16%)" x1="123" x2="153" y1="350" y2="329" /><line stroke="rgb(10%,10%,16%)" x1="153" x2="178" y1="329" y2="343" /><line stroke="rgb(10%,10%,16%)" x1="178" x2="203" y1="343" y2="349" /><line stroke="rgb(10%,10%,16%)" x1="203" x2="232" y1="349" y2="330" /><line stroke="rgb(10%,10%,16%)" x1="232" x2="326" y1="330" y2="345" /><line stroke="rgb(10%,10%,16%)" x1="326" x2="364" y1="345" y2="335" /><line stroke="rgb(10%,10%,16%)" x1="364" x2="408" y1="335" y2="344" /><line stroke="rgb(10%,10%,16%)" x1="408" x2="414" y1="344" y2="325" /><line stroke="rgb(10%,10%,16%)" x1="414" x2="322" y1="325" y2="308" /><line stroke="rgb(10%,10%,16%)" x1="322" x2="316" y1="308" y2="276" /><line stroke="rgb(10%,10%,16%)" x1="316" x2="366" y1="276" y2="268" /><line stroke="rgb(10%,10%,16%)" x1="366" x2="378" y1="268" y2="249" /><line stroke="rgb(10%,10%,16%)" x1="378" x2="387" y1="249" y2="202" /><line stroke="rgb(10%,10%,16%)" x1="387" x2="373" y1="202" y2="130" /><line stroke="rgb(10%,10%,16%)" x1="373" x2="325" y1="130" y2="139" /><line stroke="rgb(10%,10%,16%)" x1="325" x2="292" y1="139" y2="115" /><line stroke="rgb(10%,10%,16%)" x1="292" x2="325" y1="115" y2="102" /><line stroke="rgb(10%,10%,16%)" x1="325" x2="319" y1="102" y2="65" /><line stroke="rgb(10%,10%,16%)" x1="319" x2="340" y1="65" y2="39" /><line stroke="rgb(10%,10%,16%)" x1="340" x2="324" y1="39" y2="29" /><line stroke="rgb(10%,10%,16%)" x1="324" x2="303" y1="29" y2="19" /><line stroke="rgb(10%,10%,16%)" x1="303" x2="283" y1="19" y2="15" /><line stroke="rgb(10%,10%,16%)" x1="283" x2="210" y1="15" y2="42" /><line stroke="rgb(10%,10%,16%)" x1="210" x2="240" y1="42" y2="51" /><line stroke="rgb(10%,10%,16%)" x1="240" x2="218" y1="51" y2="60" /><line stroke="rgb(10%,10%,16%)" x1="218" x2="229" y1="60" y2="94" /><line stroke="rgb(10%,10%,16%)" x1="229" x2="258" y1="94" y2="86" /><line stroke="rgb(10%,10%,16%)" x1="258" x2="242" y1="86" y2="130" /><line stroke="rgb(10%,10%,16%)" x1="242" x2="226" y1="130" y2="137" /><line stroke="rgb(10%,10%,16%)" x1="226" x2="188" y1="137" y2="129" /><line stroke="rgb(10%,10%,16%)" x1="188" x2="174" y1="129" y2="117" /><line stroke="rgb(10%,10%,16%)" x1="174" x2="167" y1="117" y2="104" /><line stroke="rgb(10%,10%,16%)" x1="167" x2="176" y1="104" y2="62" /><line stroke="rgb(10%,10%,16%)" x1="176" x2="189" y1="62" y2="49" /><line stroke="rgb(10%,10%,16%)" x1="189" x2="206" y1="49" y2="42" /><line stroke="rgb(10%,10%,16%)" x1="206" x2="371" y1="42" y2="47" /><line stroke="rgb(10%,10%,16%)" x1="371" x2="379" y1="47" y2="47" /><line stroke="rgb(10%,10%,16%)" x1="379" x2="306" y1="47" y2="108" /><line stroke="rgb(10%,10%,16%)" x1="306" x2="315" y1="108" y2="108" /><line stroke="rgb(10%,10%,16%)" x1="315" x2="488" y1="108" y2="341" /><line stroke="rgb(10%,10%,16%)" x1="488" x2="534" y1="341" y2="341" /><line stroke="rgb(10%,10%,16%)" x1="534" x2="479" y1="341" y2="342" /><line stroke="rgb(10%,10%,16%)" x1="479" x2="480" y1="342" y2="342" /><line stroke="rgb(10%,10%,16%)" x1="480" x2="207" y1="342" y2="358" /><line stroke="rgb(10%,10%,16%)" x1="207" x2="212" y1="358" y2="358" /><line stroke="rgb(10%,10%,16%)" x1="212" x2="462" y1="358" y2="372" /><line stroke="rgb(10%,10%,16%)" x1="462" x2="478" y1="372" y2="372" /><line stroke="rgb(10%,10%,16%)" x1="478" x2="304" y1="372" y2="402" /><line stroke="rgb(10%,10%,16%)" x1="304" x2="318" y1="402" y2="402" /><line stroke="rgb(10%,10%,16%)" x1="318" x2="255" y1="402" y2="443" /><line stroke="rgb(10%,10%,16%)" x1="255" x2="202" y1="443" y2="443" /><line stroke="rgb(10%,10%,16%)" x1="202" x2="463" y1="443" y2="452" /><line stroke="rgb(10%,10%,16%)" x1="463" x2="508" y1="452" y2="452" /></g></svg>