<?xml version="1.0" encoding="utf-8" ?>
<svg baseProfile="full" height="512" version="1.1" width="512" xmlns="http://www.w3.org/2000/svg" xmlns:ev="http://www.w3.org/2001/xml-events" xmlns:xlink="http://www.w3.org/1999/xlink"><defs /><g fill="none" id="shapes"><line stroke="rgb(10%,10%,16%)" x1="46" x2="48" y1="35" y2="33" /><line stroke="rgb(10%,10%,16%)" x1="48" x2="76" y1="33" y2="33" /><line stroke="rgb(10%,10%,16%)" x1="76" x2="79" y1="33" y2="35" /><line stroke="rgb(10%,10%,16%)" x1="79" x2="409" y1="35" y2="35" /><line stroke="rgb(10%,10%,16%)" x1="409" x2="412" y1="35" y2="33" /><line stroke="rgb(10%,10%,16%)" x1="412" x2="463" y1="33" y2="33" /><line stroke="rgb(10%,10%,16%)" x1="463" x2="465" y1="33" y2="35" /><line stroke="rgb(10%,10%,16%)" x1="465" x2="471" y1="35" y2="35" /><line stroke="rgb(10%,10%,16%)" x1="471" x2="476" y1="35" y2="40" /><line stroke="rgb(10%,10%,16%)" x1="476" x2="476" y1="40" y2="476" /><line stroke="rgb(10%,10%,16%)" x1="476" x2="471" y1="476" y2="481" /><line stroke="rgb(10%,10%,16%)" x1="471" x2="38" y1="481" y2="481" /><line stroke="rgb(10%,10%,16%)" x1="38" x2="33" y1="481" y2="476" /><line stroke="rgb(10%,10%,16%)" x1="33" x2="33" y1="476" y2="473" /><line stroke="rgb(10%,10%,16%)" x1="33" x2="30" y1="473" y2="471" /><line stroke="rgb(10%,10%,16%)" x1="30" x2="30" y1="471" y2="48" /><line stroke="rgb(10%,10%,16%)" x1="30" x2="33" y1="48" y2="46" /><line stroke="rgb(10%,10%,16%)" x1="33" x2="33" y1="46" y2="43" /><line stroke="rgb(10%,10%,16%)" x1="33" x2="40" y1="43" y2="35" /><line stroke="rgb(10%,10%,16%)" x1="40" x2="56" y1="35" y2="53" /><line stroke="rgb(10%,10%,16%)" x1="56" x2="51" y1="53" y2="58" /><line stroke="rgb(10%,10%,16%)" x1="51" x2="51" y1="58" y2="458" /><line stroke="rgb(10%,10%,16%)" x1="51" x2="53" y1="458" y2="460" /><line stroke="rgb(10%,10%,16%)" x1="53" x2="458" y1="460" y2="460" /><line stroke="rgb(10%,10%,16%)" x1="458" x2="458" y1="460" y2="56" /><line stroke="rgb(10%,10%,16%)" x1="458" x2="455" y1="56" y2="56" /><line stroke="rgb(10%,10%,16%)" x1="455" x2="453" y1="56" y2="53" /><line stroke="rgb(10%,10%,16%)" x1="453" x2="46" y1="53" y2="35" /><line stroke="rgb(10%,10%,16%)" x1="46" x2="476" y1="35" y2="476" /><line stroke="rgb(10%,10%,16%)" x1="476" x2="40" y1="476" y2="35" /><line stroke="rgb(10%,10%,16%)" x1="40" x2="56" y1="35" y2="53" /><line stroke="rgb(10%,10%,16%)" x1="56" x2="56" y1="53" y2="53" /><line stroke="rgb(10%,10%,16%)" x1="56" x2="458" y1="53" y2="460" /><line stroke="rgb(10%,10%,16%)" x1="458" x2="453" y1="460" y2="53" /></g></svg>