<?xml version="1.0" encoding="utf-8" ?>
<svg baseProfile="full" height="315" version="1.1" width="240" xmlns="http://www.w3.org/2000/svg" xmlns:ev="http://www.w3.org/2001/xml-events" xmlns:xlink="http://www.w3.org/1999/xlink"><defs /><g fill="none" id="shapes"><line stroke="rgb(10%,10%,16%)" x1="0" x2="11" y1="315" y2="0" /><line stroke="rgb(10%,10%,16%)" x1="11" x2="4" y1="0" y2="295" /><line stroke="rgb(10%,10%,16%)" x1="4" x2="93" y1="295" y2="308" /><line stroke="rgb(10%,10%,16%)" x1="93" x2="229" y1="308" y2="275" /><line stroke="rgb(10%,10%,16%)" x1="229" x2="208" y1="275" y2="119" /><line stroke="rgb(10%,10%,16%)" x1="208" x2="165" y1="119" y2="153" /><line stroke="rgb(10%,10%,16%)" x1="165" x2="194" y1="153" y2="204" /><line stroke="rgb(10%,10%,16%)" x1="194" x2="162" y1="204" y2="271" /><line stroke="rgb(10%,10%,16%)" x1="162" x2="140" y1="271" y2="237" /><line stroke="rgb(10%,10%,16%)" x1="140" x2="90" y1="237" y2="223" /><line stroke="rgb(10%,10%,16%)" x1="90" x2="62" y1="223" y2="206" /><line stroke="rgb(10%,10%,16%)" x1="62" x2="22" y1="206" y2="153" /><line stroke="rgb(10%,10%,16%)" x1="22" x2="46" y1="153" y2="123" /><line stroke="rgb(10%,10%,16%)" x1="46" x2="35" y1="123" y2="73" /><line stroke="rgb(10%,10%,16%)" x1="35" x2="87" y1="73" y2="126" /><line stroke="rgb(10%,10%,16%)" x1="87" x2="124" y1="126" y2="152" /><line stroke="rgb(10%,10%,16%)" x1="124" x2="150" y1="152" y2="89" /><line stroke="rgb(10%,10%,16%)" x1="150" x2="195" y1="89" y2="111" /><line stroke="rgb(10%,10%,16%)" x1="195" x2="53" y1="111" y2="0" /><line stroke="rgb(10%,10%,16%)" x1="53" x2="22" y1="0" y2="0" /><line stroke="rgb(10%,10%,16%)" x1="22" x2="136" y1="0" y2="7" /><line stroke="rgb(10%,10%,16%)" x1="136" x2="157" y1="7" y2="17" /><line stroke="rgb(10%,10%,16%)" x1="157" x2="166" y1="17" y2="27" /><line stroke="rgb(10%,10%,16%)" x1="166" x2="150" y1="27" y2="71" /><line stroke="rgb(10%,10%,16%)" x1="150" x2="141" y1="71" y2="94" /><line stroke="rgb(10%,10%,16%)" x1="141" x2="128" y1="94" y2="68" /><line stroke="rgb(10%,10%,16%)" x1="128" x2="118" y1="68" y2="57" /><line stroke="rgb(10%,10%,16%)" x1="118" x2="131" y1="57" y2="11" /><line stroke="rgb(10%,10%,16%)" x1="131" x2="136" y1="11" y2="10" /><line stroke="rgb(10%,10%,16%)" x1="136" x2="79" y1="10" y2="32" /><line stroke="rgb(10%,10%,16%)" x1="79" x2="109" y1="32" y2="44" /><line stroke="rgb(10%,10%,16%)" x1="109" x2="127" y1="44" y2="81" /><line stroke="rgb(10%,10%,16%)" x1="127" x2="116" y1="81" y2="101" /><line stroke="rgb(10%,10%,16%)" x1="116" x2="107" y1="101" y2="119" /><line stroke="rgb(10%,10%,16%)" x1="107" x2="82" y1="119" y2="107" /><line stroke="rgb(10%,10%,16%)" x1="82" x2="71" y1="107" y2="90" /><line stroke="rgb(10%,10%,16%)" x1="71" x2="62" y1="90" y2="78" /><line stroke="rgb(10%,10%,16%)" x1="62" x2="80" y1="78" y2="37" /><line stroke="rgb(10%,10%,16%)" x1="80" x2="79" y1="37" y2="36" /><line stroke="rgb(10%,10%,16%)" x1="79" x2="174" y1="36" y2="132" /><line stroke="rgb(10%,10%,16%)" x1="174" x2="183" y1="132" y2="142" /><line stroke="rgb(10%,10%,16%)" x1="183" x2="212" y1="142" y2="148" /><line stroke="rgb(10%,10%,16%)" x1="212" x2="199" y1="148" y2="168" /><line stroke="rgb(10%,10%,16%)" x1="199" x2="180" y1="168" y2="157" /><line stroke="rgb(10%,10%,16%)" x1="180" x2="186" y1="157" y2="146" /><line stroke="rgb(10%,10%,16%)" x1="186" x2="172" y1="146" y2="134" /><line stroke="rgb(10%,10%,16%)" x1="172" x2="33" y1="134" y2="209" /><line stroke="rgb(10%,10%,16%)" x1="33" x2="33" y1="209" y2="213" /></g></svg>