<?xml version="1.0" encoding="utf-8" ?>
<svg baseProfile="full" height="256" version="1.1" width="197" xmlns="http://www.w3.org/2000/svg" xmlns:ev="http://www.w3.org/2001/xml-events" xmlns:xlink="http://www.w3.org/1999/xlink"><defs /><g fill="none" id="shapes"><line stroke="rgb(10%,10%,16%)" x1="0" x2="0" y1="256" y2="0" /><line stroke="rgb(10%,10%,16%)" x1="0" x2="138" y1="0" y2="255" /><line stroke="rgb(10%,10%,16%)" x1="138" x2="159" y1="255" y2="247" /><line stroke="rgb(10%,10%,16%)" x1="159" x2="196" y1="247" y2="0" /><line stroke="rgb(10%,10%,16%)" x1="196" x2="28" y1="0" y2="40" /><line stroke="rgb(10%,10%,16%)" x1="28" x2="170" y1="40" y2="86" /><line stroke="rgb(10%,10%,16%)" x1="170" x2="126" y1="86" y2="214" /><line stroke="rgb(10%,10%,16%)" x1="126" x2="72" y1="214" y2="145" /><line stroke="rgb(10%,10%,16%)" x1="72" x2="26" y1="145" y2="85" /><line stroke="rgb(10%,10%,16%)" x1="26" x2="26" y1="85" y2="42" /><line stroke="rgb(10%,10%,16%)" x1="26" x2="35" y1="42" y2="48" /><line stroke="rgb(10%,10%,16%)" x1="35" x2="54" y1="48" y2="79" /><line stroke="rgb(10%,10%,16%)" x1="54" x2="119" y1="79" y2="206" /><line stroke="rgb(10%,10%,16%)" x1="119" x2="141" y1="206" y2="79" /><line stroke="rgb(10%,10%,16%)" x1="141" x2="161" y1="79" y2="48" /><line stroke="rgb(10%,10%,16%)" x1="161" x2="161" y1="48" y2="48" /></g></svg>