<?xml version="1.0" encoding="utf-8" ?>
<svg baseProfile="full" height="256" version="1.1" width="197" xmlns="http://www.w3.org/2000/svg" xmlns:ev="http://www.w3.org/2001/xml-events" xmlns:xlink="http://www.w3.org/1999/xlink"><defs /><g fill="none" id="shapes"><line stroke="rgb(10%,10%,16%)" x1="0" x2="0" y1="237" y2="255" /><line stroke="rgb(10%,10%,16%)" x1="0" x2="12" y1="255" y2="255" /><line stroke="rgb(10%,10%,16%)" x1="12" x2="9" y1="255" y2="252" /><line stroke="rgb(10%,10%,16%)" x1="9" x2="9" y1="252" y2="251" /><line stroke="rgb(10%,10%,16%)" x1="9" x2="7" y1="251" y2="249" /><line stroke="rgb(10%,10%,16%)" x1="7" x2="7" y1="249" y2="248" /><line stroke="rgb(10%,10%,16%)" x1="7" x2="5" y1="248" y2="246" /><line stroke="rgb(10%,10%,16%)" x1="5" x2="5" y1="246" y2="245" /><line stroke="rgb(10%,10%,16%)" x1="5" x2="3" y1="245" y2="243" /><line stroke="rgb(10%,10%,16%)" x1="3" x2="3" y1="243" y2="242" /><line stroke="rgb(10%,10%,16%)" x1="3" x2="2" y1="242" y2="241" /><line stroke="rgb(10%,10%,16%)" x1="2" x2="2" y1="241" y2="240" /><line stroke="rgb(10%,10%,16%)" x1="2" x2="0" y1="240" y2="238" /><line stroke="rgb(10%,10%,16%)" x1="0" x2="29" y1="238" y2="40" /><line stroke="rgb(10%,10%,16%)" x1="29" x2="28" y1="40" y2="41" /><line stroke="rgb(10%,10%,16%)" x1="28" x2="27" y1="41" y2="41" /><line stroke="rgb(10%,10%,16%)" x1="27" x2="27" y1="41" y2="42" /><line stroke="rgb(10%,10%,16%)" x1="27" x2="26" y1="42" y2="43" /><line stroke="rgb(10%,10%,16%)" x1="26" x2="26" y1="43" y2="84" /><line stroke="rgb(10%,10%,16%)" x1="26" x2="27" y1="84" y2="85" /><line stroke="rgb(10%,10%,16%)" x1="27" x2="27" y1="85" y2="86" /><line stroke="rgb(10%,10%,16%)" x1="27" x2="28" y1="86" y2="87" /><line stroke="rgb(10%,10%,16%)" x1="28" x2="71" y1="87" y2="87" /><line stroke="rgb(10%,10%,16%)" x1="71" x2="72" y1="87" y2="88" /><line stroke="rgb(10%,10%,16%)" x1="72" x2="72" y1="88" y2="146" /><line stroke="rgb(10%,10%,16%)" x1="72" x2="71" y1="146" y2="147" /><line stroke="rgb(10%,10%,16%)" x1="71" x2="71" y1="147" y2="210" /><line stroke="rgb(10%,10%,16%)" x1="71" x2="72" y1="210" y2="211" /><line stroke="rgb(10%,10%,16%)" x1="72" x2="72" y1="211" y2="212" /><line stroke="rgb(10%,10%,16%)" x1="72" x2="73" y1="212" y2="213" /><line stroke="rgb(10%,10%,16%)" x1="73" x2="127" y1="213" y2="213" /><line stroke="rgb(10%,10%,16%)" x1="127" x2="127" y1="213" y2="89" /><line stroke="rgb(10%,10%,16%)" x1="127" x2="129" y1="89" y2="87" /><line stroke="rgb(10%,10%,16%)" x1="129" x2="168" y1="87" y2="87" /><line stroke="rgb(10%,10%,16%)" x1="168" x2="169" y1="87" y2="86" /><line stroke="rgb(10%,10%,16%)" x1="169" x2="169" y1="86" y2="41" /><line stroke="rgb(10%,10%,16%)" x1="169" x2="168" y1="41" y2="41" /><line stroke="rgb(10%,10%,16%)" x1="168" x2="167" y1="41" y2="40" /><line stroke="rgb(10%,10%,16%)" x1="167" x2="29" y1="40" y2="40" /><line stroke="rgb(10%,10%,16%)" x1="29" x2="167" y1="40" y2="40" /><line stroke="rgb(10%,10%,16%)" x1="167" x2="169" y1="40" y2="42" /><line stroke="rgb(10%,10%,16%)" x1="169" x2="169" y1="42" y2="86" /><line stroke="rgb(10%,10%,16%)" x1="169" x2="168" y1="86" y2="87" /><line stroke="rgb(10%,10%,16%)" x1="168" x2="129" y1="87" y2="87" /><line stroke="rgb(10%,10%,16%)" x1="129" x2="127" y1="87" y2="89" /><line stroke="rgb(10%,10%,16%)" x1="127" x2="127" y1="89" y2="212" /><line stroke="rgb(10%,10%,16%)" x1="127" x2="126" y1="212" y2="213" /><line stroke="rgb(10%,10%,16%)" x1="126" x2="73" y1="213" y2="213" /><line stroke="rgb(10%,10%,16%)" x1="73" x2="72" y1="213" y2="212" /><line stroke="rgb(10%,10%,16%)" x1="72" x2="72" y1="212" y2="211" /><line stroke="rgb(10%,10%,16%)" x1="72" x2="71" y1="211" y2="210" /><line stroke="rgb(10%,10%,16%)" x1="71" x2="71" y1="210" y2="147" /><line stroke="rgb(10%,10%,16%)" x1="71" x2="72" y1="147" y2="146" /><line stroke="rgb(10%,10%,16%)" x1="72" x2="72" y1="146" y2="88" /><line stroke="rgb(10%,10%,16%)" x1="72" x2="71" y1="88" y2="87" /><line stroke="rgb(10%,10%,16%)" x1="71" x2="29" y1="87" y2="87" /><line stroke="rgb(10%,10%,16%)" x1="29" x2="26" y1="87" y2="84" /><line stroke="rgb(10%,10%,16%)" x1="26" x2="26" y1="84" y2="43" /><line stroke="rgb(10%,10%,16%)" x1="26" x2="36" y1="43" y2="47" /><line stroke="rgb(10%,10%,16%)" x1="36" x2="34" y1="47" y2="49" /><line stroke="rgb(10%,10%,16%)" x1="34" x2="34" y1="49" y2="78" /><line stroke="rgb(10%,10%,16%)" x1="34" x2="35" y1="78" y2="79" /><line stroke="rgb(10%,10%,16%)" x1="35" x2="53" y1="79" y2="79" /><line stroke="rgb(10%,10%,16%)" x1="53" x2="54" y1="79" y2="80" /><line stroke="rgb(10%,10%,16%)" x1="54" x2="77" y1="80" y2="80" /><line stroke="rgb(10%,10%,16%)" x1="77" x2="79" y1="80" y2="82" /><line stroke="rgb(10%,10%,16%)" x1="79" x2="79" y1="82" y2="205" /><line stroke="rgb(10%,10%,16%)" x1="79" x2="80" y1="205" y2="206" /><line stroke="rgb(10%,10%,16%)" x1="80" x2="119" y1="206" y2="206" /><line stroke="rgb(10%,10%,16%)" x1="119" x2="119" y1="206" y2="200" /><line stroke="rgb(10%,10%,16%)" x1="119" x2="120" y1="200" y2="199" /><line stroke="rgb(10%,10%,16%)" x1="120" x2="120" y1="199" y2="82" /><line stroke="rgb(10%,10%,16%)" x1="120" x2="122" y1="82" y2="80" /><line stroke="rgb(10%,10%,16%)" x1="122" x2="141" y1="80" y2="80" /><line stroke="rgb(10%,10%,16%)" x1="141" x2="142" y1="80" y2="79" /><line stroke="rgb(10%,10%,16%)" x1="142" x2="162" y1="79" y2="79" /><line stroke="rgb(10%,10%,16%)" x1="162" x2="162" y1="79" y2="48" /><line stroke="rgb(10%,10%,16%)" x1="162" x2="161" y1="48" y2="48" /><line stroke="rgb(10%,10%,16%)" x1="161" x2="160" y1="48" y2="47" /><line stroke="rgb(10%,10%,16%)" x1="160" x2="29" y1="47" y2="40" /><line stroke="rgb(10%,10%,16%)" x1="29" x2="71" y1="40" y2="87" /><line stroke="rgb(10%,10%,16%)" x1="71" x2="127" y1="87" y2="213" /><line stroke="rgb(10%,10%,16%)" x1="127" x2="168" y1="213" y2="87" /><line stroke="rgb(10%,10%,16%)" x1="168" x2="167" y1="87" y2="40" /><line stroke="rgb(10%,10%,16%)" x1="167" x2="29" y1="40" y2="40" /><line stroke="rgb(10%,10%,16%)" x1="29" x2="169" y1="40" y2="86" /><line stroke="rgb(10%,10%,16%)" x1="169" x2="127" y1="86" y2="212" /><line stroke="rgb(10%,10%,16%)" x1="127" x2="71" y1="212" y2="147" /><line stroke="rgb(10%,10%,16%)" x1="71" x2="29" y1="147" y2="87" /><line stroke="rgb(10%,10%,16%)" x1="29" x2="26" y1="87" y2="43" /><line stroke="rgb(10%,10%,16%)" x1="26" x2="36" y1="43" y2="47" /><line stroke="rgb(10%,10%,16%)" x1="36" x2="53" y1="47" y2="79" /><line stroke="rgb(10%,10%,16%)" x1="53" x2="79" y1="79" y2="205" /><line stroke="rgb(10%,10%,16%)" x1="79" x2="120" y1="205" y2="199" /><line stroke="rgb(10%,10%,16%)" x1="120" x2="141" y1="199" y2="80" /><line stroke="rgb(10%,10%,16%)" x1="141" x2="162" y1="80" y2="48" /><line stroke="rgb(10%,10%,16%)" x1="162" x2="160" y1="48" y2="47" /></g></svg>