<?xml version="1.0" encoding="utf-8" ?>
<svg baseProfile="full" height="256" version="1.1" width="197" xmlns="http://www.w3.org/2000/svg" xmlns:ev="http://www.w3.org/2001/xml-events" xmlns:xlink="http://www.w3.org/1999/xlink"><defs /><g fill="none" id="shapes"><line stroke="rgb(10%,10%,16%)" x1="196" x2="195" y1="254" y2="255" /><line stroke="rgb(10%,10%,16%)" x1="195" x2="196" y1="255" y2="255" /><line stroke="rgb(10%,10%,16%)" x1="196" x2="0" y1="255" y2="0" /><line stroke="rgb(10%,10%,16%)" x1="0" x2="0" y1="0" y2="255" /><line stroke="rgb(10%,10%,16%)" x1="0" x2="167" y1="255" y2="255" /><line stroke="rgb(10%,10%,16%)" x1="167" x2="138" y1="255" y2="255" /><line stroke="rgb(10%,10%,16%)" x1="138" x2="137" y1="255" y2="254" /><line stroke="rgb(10%,10%,16%)" x1="137" x2="134" y1="254" y2="254" /><line stroke="rgb(10%,10%,16%)" x1="134" x2="133" y1="254" y2="253" /><line stroke="rgb(10%,10%,16%)" x1="133" x2="133" y1="253" y2="249" /><line stroke="rgb(10%,10%,16%)" x1="133" x2="135" y1="249" y2="247" /><line stroke="rgb(10%,10%,16%)" x1="135" x2="137" y1="247" y2="247" /><line stroke="rgb(10%,10%,16%)" x1="137" x2="138" y1="247" y2="248" /><line stroke="rgb(10%,10%,16%)" x1="138" x2="158" y1="248" y2="248" /><line stroke="rgb(10%,10%,16%)" x1="158" x2="159" y1="248" y2="247" /><line stroke="rgb(10%,10%,16%)" x1="159" x2="162" y1="247" y2="247" /><line stroke="rgb(10%,10%,16%)" x1="162" x2="163" y1="247" y2="248" /><line stroke="rgb(10%,10%,16%)" x1="163" x2="171" y1="248" y2="248" /><line stroke="rgb(10%,10%,16%)" x1="171" x2="172" y1="248" y2="247" /><line stroke="rgb(10%,10%,16%)" x1="172" x2="175" y1="247" y2="247" /><line stroke="rgb(10%,10%,16%)" x1="175" x2="176" y1="247" y2="248" /><line stroke="rgb(10%,10%,16%)" x1="176" x2="181" y1="248" y2="248" /><line stroke="rgb(10%,10%,16%)" x1="181" x2="182" y1="248" y2="249" /><line stroke="rgb(10%,10%,16%)" x1="182" x2="183" y1="249" y2="249" /><line stroke="rgb(10%,10%,16%)" x1="183" x2="184" y1="249" y2="248" /><line stroke="rgb(10%,10%,16%)" x1="184" x2="194" y1="248" y2="248" /><line stroke="rgb(10%,10%,16%)" x1="194" x2="196" y1="248" y2="250" /><line stroke="rgb(10%,10%,16%)" x1="196" x2="196" y1="250" y2="0" /><line stroke="rgb(10%,10%,16%)" x1="196" x2="28" y1="0" y2="40" /><line stroke="rgb(10%,10%,16%)" x1="28" x2="168" y1="40" y2="40" /><line stroke="rgb(10%,10%,16%)" x1="168" x2="170" y1="40" y2="42" /><line stroke="rgb(10%,10%,16%)" x1="170" x2="170" y1="42" y2="86" /><line stroke="rgb(10%,10%,16%)" x1="170" x2="169" y1="86" y2="87" /><line stroke="rgb(10%,10%,16%)" x1="169" x2="168" y1="87" y2="87" /><line stroke="rgb(10%,10%,16%)" x1="168" x2="167" y1="87" y2="88" /><line stroke="rgb(10%,10%,16%)" x1="167" x2="128" y1="88" y2="88" /><line stroke="rgb(10%,10%,16%)" x1="128" x2="128" y1="88" y2="212" /><line stroke="rgb(10%,10%,16%)" x1="128" x2="126" y1="212" y2="214" /><line stroke="rgb(10%,10%,16%)" x1="126" x2="73" y1="214" y2="214" /><line stroke="rgb(10%,10%,16%)" x1="73" x2="72" y1="214" y2="213" /><line stroke="rgb(10%,10%,16%)" x1="72" x2="72" y1="213" y2="212" /><line stroke="rgb(10%,10%,16%)" x1="72" x2="71" y1="212" y2="211" /><line stroke="rgb(10%,10%,16%)" x1="71" x2="71" y1="211" y2="146" /><line stroke="rgb(10%,10%,16%)" x1="71" x2="72" y1="146" y2="145" /><line stroke="rgb(10%,10%,16%)" x1="72" x2="72" y1="145" y2="88" /><line stroke="rgb(10%,10%,16%)" x1="72" x2="29" y1="88" y2="88" /><line stroke="rgb(10%,10%,16%)" x1="29" x2="26" y1="88" y2="85" /><line stroke="rgb(10%,10%,16%)" x1="26" x2="26" y1="85" y2="42" /><line stroke="rgb(10%,10%,16%)" x1="26" x2="35" y1="42" y2="48" /><line stroke="rgb(10%,10%,16%)" x1="35" x2="35" y1="48" y2="79" /><line stroke="rgb(10%,10%,16%)" x1="35" x2="54" y1="79" y2="79" /><line stroke="rgb(10%,10%,16%)" x1="54" x2="55" y1="79" y2="80" /><line stroke="rgb(10%,10%,16%)" x1="55" x2="78" y1="80" y2="80" /><line stroke="rgb(10%,10%,16%)" x1="78" x2="79" y1="80" y2="81" /><line stroke="rgb(10%,10%,16%)" x1="79" x2="79" y1="81" y2="82" /><line stroke="rgb(10%,10%,16%)" x1="79" x2="80" y1="82" y2="83" /><line stroke="rgb(10%,10%,16%)" x1="80" x2="80" y1="83" y2="206" /><line stroke="rgb(10%,10%,16%)" x1="80" x2="119" y1="206" y2="206" /><line stroke="rgb(10%,10%,16%)" x1="119" x2="119" y1="206" y2="199" /><line stroke="rgb(10%,10%,16%)" x1="119" x2="120" y1="199" y2="198" /><line stroke="rgb(10%,10%,16%)" x1="120" x2="120" y1="198" y2="81" /><line stroke="rgb(10%,10%,16%)" x1="120" x2="121" y1="81" y2="80" /><line stroke="rgb(10%,10%,16%)" x1="121" x2="140" y1="80" y2="80" /><line stroke="rgb(10%,10%,16%)" x1="140" x2="141" y1="80" y2="79" /><line stroke="rgb(10%,10%,16%)" x1="141" x2="162" y1="79" y2="79" /><line stroke="rgb(10%,10%,16%)" x1="162" x2="162" y1="79" y2="49" /><line stroke="rgb(10%,10%,16%)" x1="162" x2="161" y1="49" y2="48" /><line stroke="rgb(10%,10%,16%)" x1="161" x2="0" y1="48" y2="0" /><line stroke="rgb(10%,10%,16%)" x1="0" x2="196" y1="0" y2="0" /><line stroke="rgb(10%,10%,16%)" x1="196" x2="28" y1="0" y2="40" /><line stroke="rgb(10%,10%,16%)" x1="28" x2="26" y1="40" y2="42" /><line stroke="rgb(10%,10%,16%)" x1="26" x2="35" y1="42" y2="48" /><line stroke="rgb(10%,10%,16%)" x1="35" x2="161" y1="48" y2="48" /></g></svg>