<?xml version="1.0" encoding="utf-8" ?>
<svg baseProfile="full" height="1024" version="1.1" width="905" xmlns="http://www.w3.org/2000/svg" xmlns:ev="http://www.w3.org/2001/xml-events" xmlns:xlink="http://www.w3.org/1999/xlink"><defs /><g fill="none" id="shapes"><line stroke="rgb(10%,10%,16%)" x1="241" x2="653" y1="875" y2="875" /><line stroke="rgb(10%,10%,16%)" x1="653" x2="663" y1="875" y2="885" /><line stroke="rgb(10%,10%,16%)" x1="663" x2="663" y1="885" y2="947" /><line stroke="rgb(10%,10%,16%)" x1="663" x2="658" y1="947" y2="952" /><line stroke="rgb(10%,10%,16%)" x1="658" x2="236" y1="952" y2="952" /><line stroke="rgb(10%,10%,16%)" x1="236" x2="231" y1="952" y2="947" /><line stroke="rgb(10%,10%,16%)" x1="231" x2="231" y1="947" y2="942" /><line stroke="rgb(10%,10%,16%)" x1="231" x2="226" y1="942" y2="936" /><line stroke="rgb(10%,10%,16%)" x1="226" x2="226" y1="936" y2="896" /><line stroke="rgb(10%,10%,16%)" x1="226" x2="231" y1="896" y2="890" /><line stroke="rgb(10%,10%,16%)" x1="231" x2="231" y1="890" y2="885" /><line stroke="rgb(10%,10%,16%)" x1="231" x2="15" y1="885" y2="430" /><line stroke="rgb(10%,10%,16%)" x1="15" x2="10" y1="430" y2="435" /><line stroke="rgb(10%,10%,16%)" x1="10" x2="0" y1="435" y2="435" /><line stroke="rgb(10%,10%,16%)" x1="0" x2="0" y1="435" y2="1018" /><line stroke="rgb(10%,10%,16%)" x1="0" x2="5" y1="1018" y2="1018" /><line stroke="rgb(10%,10%,16%)" x1="5" x2="5" y1="1018" y2="619" /><line stroke="rgb(10%,10%,16%)" x1="5" x2="10" y1="619" y2="614" /><line stroke="rgb(10%,10%,16%)" x1="10" x2="10" y1="614" y2="568" /><line stroke="rgb(10%,10%,16%)" x1="10" x2="15" y1="568" y2="563" /><line stroke="rgb(10%,10%,16%)" x1="15" x2="35" y1="563" y2="563" /><line stroke="rgb(10%,10%,16%)" x1="35" x2="41" y1="563" y2="568" /><line stroke="rgb(10%,10%,16%)" x1="41" x2="41" y1="568" y2="593" /><line stroke="rgb(10%,10%,16%)" x1="41" x2="46" y1="593" y2="599" /><line stroke="rgb(10%,10%,16%)" x1="46" x2="46" y1="599" y2="619" /><line stroke="rgb(10%,10%,16%)" x1="46" x2="51" y1="619" y2="624" /><line stroke="rgb(10%,10%,16%)" x1="51" x2="51" y1="624" y2="655" /><line stroke="rgb(10%,10%,16%)" x1="51" x2="56" y1="655" y2="660" /><line stroke="rgb(10%,10%,16%)" x1="56" x2="56" y1="660" y2="686" /><line stroke="rgb(10%,10%,16%)" x1="56" x2="61" y1="686" y2="691" /><line stroke="rgb(10%,10%,16%)" x1="61" x2="61" y1="691" y2="721" /><line stroke="rgb(10%,10%,16%)" x1="61" x2="66" y1="721" y2="727" /><line stroke="rgb(10%,10%,16%)" x1="66" x2="66" y1="727" y2="757" /><line stroke="rgb(10%,10%,16%)" x1="66" x2="71" y1="757" y2="762" /><line stroke="rgb(10%,10%,16%)" x1="71" x2="71" y1="762" y2="788" /><line stroke="rgb(10%,10%,16%)" x1="71" x2="77" y1="788" y2="793" /><line stroke="rgb(10%,10%,16%)" x1="77" x2="77" y1="793" y2="819" /><line stroke="rgb(10%,10%,16%)" x1="77" x2="82" y1="819" y2="824" /><line stroke="rgb(10%,10%,16%)" x1="82" x2="82" y1="824" y2="844" /><line stroke="rgb(10%,10%,16%)" x1="82" x2="87" y1="844" y2="849" /><line stroke="rgb(10%,10%,16%)" x1="87" x2="87" y1="849" y2="870" /><line stroke="rgb(10%,10%,16%)" x1="87" x2="92" y1="870" y2="875" /><line stroke="rgb(10%,10%,16%)" x1="92" x2="92" y1="875" y2="890" /><line stroke="rgb(10%,10%,16%)" x1="92" x2="97" y1="890" y2="896" /><line stroke="rgb(10%,10%,16%)" x1="97" x2="97" y1="896" y2="911" /><line stroke="rgb(10%,10%,16%)" x1="97" x2="102" y1="911" y2="916" /><line stroke="rgb(10%,10%,16%)" x1="102" x2="102" y1="916" y2="931" /><line stroke="rgb(10%,10%,16%)" x1="102" x2="107" y1="931" y2="936" /><line stroke="rgb(10%,10%,16%)" x1="107" x2="107" y1="936" y2="947" /><line stroke="rgb(10%,10%,16%)" x1="107" x2="113" y1="947" y2="952" /><line stroke="rgb(10%,10%,16%)" x1="113" x2="113" y1="952" y2="962" /><line stroke="rgb(10%,10%,16%)" x1="113" x2="118" y1="962" y2="967" /><line stroke="rgb(10%,10%,16%)" x1="118" x2="118" y1="967" y2="977" /><line stroke="rgb(10%,10%,16%)" x1="118" x2="123" y1="977" y2="983" /><line stroke="rgb(10%,10%,16%)" x1="123" x2="123" y1="983" y2="993" /><line stroke="rgb(10%,10%,16%)" x1="123" x2="128" y1="993" y2="998" /><line stroke="rgb(10%,10%,16%)" x1="128" x2="128" y1="998" y2="1018" /><line stroke="rgb(10%,10%,16%)" x1="128" x2="133" y1="1018" y2="1018" /><line stroke="rgb(10%,10%,16%)" x1="133" x2="133" y1="1018" y2="1013" /><line stroke="rgb(10%,10%,16%)" x1="133" x2="128" y1="1013" y2="1008" /><line stroke="rgb(10%,10%,16%)" x1="128" x2="128" y1="1008" y2="998" /><line stroke="rgb(10%,10%,16%)" x1="128" x2="123" y1="998" y2="993" /><line stroke="rgb(10%,10%,16%)" x1="123" x2="123" y1="993" y2="983" /><line stroke="rgb(10%,10%,16%)" x1="123" x2="118" y1="983" y2="977" /><line stroke="rgb(10%,10%,16%)" x1="118" x2="118" y1="977" y2="967" /><line stroke="rgb(10%,10%,16%)" x1="118" x2="113" y1="967" y2="962" /><line stroke="rgb(10%,10%,16%)" x1="113" x2="113" y1="962" y2="952" /><line stroke="rgb(10%,10%,16%)" x1="113" x2="107" y1="952" y2="947" /><line stroke="rgb(10%,10%,16%)" x1="107" x2="107" y1="947" y2="936" /><line stroke="rgb(10%,10%,16%)" x1="107" x2="102" y1="936" y2="931" /><line stroke="rgb(10%,10%,16%)" x1="102" x2="102" y1="931" y2="916" /><line stroke="rgb(10%,10%,16%)" x1="102" x2="97" y1="916" y2="911" /><line stroke="rgb(10%,10%,16%)" x1="97" x2="97" y1="911" y2="896" /><line stroke="rgb(10%,10%,16%)" x1="97" x2="92" y1="896" y2="890" /><line stroke="rgb(10%,10%,16%)" x1="92" x2="92" y1="890" y2="875" /><line stroke="rgb(10%,10%,16%)" x1="92" x2="87" y1="875" y2="870" /><line stroke="rgb(10%,10%,16%)" x1="87" x2="87" y1="870" y2="849" /><line stroke="rgb(10%,10%,16%)" x1="87" x2="82" y1="849" y2="844" /><line stroke="rgb(10%,10%,16%)" x1="82" x2="82" y1="844" y2="824" /><line stroke="rgb(10%,10%,16%)" x1="82" x2="77" y1="824" y2="819" /><line stroke="rgb(10%,10%,16%)" x1="77" x2="77" y1="819" y2="793" /><line stroke="rgb(10%,10%,16%)" x1="77" x2="71" y1="793" y2="788" /><line stroke="rgb(10%,10%,16%)" x1="71" x2="71" y1="788" y2="762" /><line stroke="rgb(10%,10%,16%)" x1="71" x2="66" y1="762" y2="757" /><line stroke="rgb(10%,10%,16%)" x1="66" x2="66" y1="757" y2="727" /><line stroke="rgb(10%,10%,16%)" x1="66" x2="61" y1="727" y2="721" /><line stroke="rgb(10%,10%,16%)" x1="61" x2="61" y1="721" y2="691" /><line stroke="rgb(10%,10%,16%)" x1="61" x2="56" y1="691" y2="686" /><line stroke="rgb(10%,10%,16%)" x1="56" x2="56" y1="686" y2="660" /><line stroke="rgb(10%,10%,16%)" x1="56" x2="51" y1="660" y2="655" /><line stroke="rgb(10%,10%,16%)" x1="51" x2="51" y1="655" y2="624" /><line stroke="rgb(10%,10%,16%)" x1="51" x2="46" y1="624" y2="619" /><line stroke="rgb(10%,10%,16%)" x1="46" x2="46" y1="619" y2="599" /><line stroke="rgb(10%,10%,16%)" x1="46" x2="41" y1="599" y2="593" /><line stroke="rgb(10%,10%,16%)" x1="41" x2="41" y1="593" y2="568" /><line stroke="rgb(10%,10%,16%)" x1="41" x2="35" y1="568" y2="563" /><line stroke="rgb(10%,10%,16%)" x1="35" x2="35" y1="563" y2="542" /><line stroke="rgb(10%,10%,16%)" x1="35" x2="30" y1="542" y2="537" /><line stroke="rgb(10%,10%,16%)" x1="30" x2="30" y1="537" y2="517" /><line stroke="rgb(10%,10%,16%)" x1="30" x2="25" y1="517" y2="512" /><line stroke="rgb(10%,10%,16%)" x1="25" x2="25" y1="512" y2="486" /><line stroke="rgb(10%,10%,16%)" x1="25" x2="20" y1="486" y2="481" /><line stroke="rgb(10%,10%,16%)" x1="20" x2="20" y1="481" y2="435" /><line stroke="rgb(10%,10%,16%)" x1="20" x2="493" y1="435" y2="204" /><line stroke="rgb(10%,10%,16%)" x1="493" x2="488" y1="204" y2="209" /><line stroke="rgb(10%,10%,16%)" x1="488" x2="483" y1="209" y2="209" /><line stroke="rgb(10%,10%,16%)" x1="483" x2="483" y1="209" y2="215" /><line stroke="rgb(10%,10%,16%)" x1="483" x2="478" y1="215" y2="220" /><line stroke="rgb(10%,10%,16%)" x1="478" x2="478" y1="220" y2="803" /><line stroke="rgb(10%,10%,16%)" x1="478" x2="483" y1="803" y2="808" /><line stroke="rgb(10%,10%,16%)" x1="483" x2="483" y1="808" y2="814" /><line stroke="rgb(10%,10%,16%)" x1="483" x2="663" y1="814" y2="814" /><line stroke="rgb(10%,10%,16%)" x1="663" x2="663" y1="814" y2="742" /><line stroke="rgb(10%,10%,16%)" x1="663" x2="658" y1="742" y2="742" /><line stroke="rgb(10%,10%,16%)" x1="658" x2="653" y1="742" y2="737" /><line stroke="rgb(10%,10%,16%)" x1="653" x2="555" y1="737" y2="737" /><line stroke="rgb(10%,10%,16%)" x1="555" x2="550" y1="737" y2="732" /><line stroke="rgb(10%,10%,16%)" x1="550" x2="550" y1="732" y2="291" /><line stroke="rgb(10%,10%,16%)" x1="550" x2="560" y1="291" y2="281" /><line stroke="rgb(10%,10%,16%)" x1="560" x2="606" y1="281" y2="281" /><line stroke="rgb(10%,10%,16%)" x1="606" x2="611" y1="281" y2="286" /><line stroke="rgb(10%,10%,16%)" x1="611" x2="611" y1="286" y2="363" /><line stroke="rgb(10%,10%,16%)" x1="611" x2="622" y1="363" y2="373" /><line stroke="rgb(10%,10%,16%)" x1="622" x2="683" y1="373" y2="373" /><line stroke="rgb(10%,10%,16%)" x1="683" x2="683" y1="373" y2="209" /><line stroke="rgb(10%,10%,16%)" x1="683" x2="678" y1="209" y2="204" /><line stroke="rgb(10%,10%,16%)" x1="678" x2="493" y1="204" y2="204" /><line stroke="rgb(10%,10%,16%)" x1="493" x2="678" y1="204" y2="204" /><line stroke="rgb(10%,10%,16%)" x1="678" x2="683" y1="204" y2="209" /><line stroke="rgb(10%,10%,16%)" x1="683" x2="683" y1="209" y2="368" /><line stroke="rgb(10%,10%,16%)" x1="683" x2="678" y1="368" y2="373" /><line stroke="rgb(10%,10%,16%)" x1="678" x2="622" y1="373" y2="373" /><line stroke="rgb(10%,10%,16%)" x1="622" x2="611" y1="373" y2="363" /><line stroke="rgb(10%,10%,16%)" x1="611" x2="611" y1="363" y2="286" /><line stroke="rgb(10%,10%,16%)" x1="611" x2="606" y1="286" y2="281" /><line stroke="rgb(10%,10%,16%)" x1="606" x2="560" y1="281" y2="281" /><line stroke="rgb(10%,10%,16%)" x1="560" x2="550" y1="281" y2="291" /><line stroke="rgb(10%,10%,16%)" x1="550" x2="550" y1="291" y2="732" /><line stroke="rgb(10%,10%,16%)" x1="550" x2="555" y1="732" y2="737" /><line stroke="rgb(10%,10%,16%)" x1="555" x2="653" y1="737" y2="737" /><line stroke="rgb(10%,10%,16%)" x1="653" x2="663" y1="737" y2="747" /><line stroke="rgb(10%,10%,16%)" x1="663" x2="663" y1="747" y2="808" /><line stroke="rgb(10%,10%,16%)" x1="663" x2="658" y1="808" y2="814" /><line stroke="rgb(10%,10%,16%)" x1="658" x2="488" y1="814" y2="814" /><line stroke="rgb(10%,10%,16%)" x1="488" x2="478" y1="814" y2="803" /><line stroke="rgb(10%,10%,16%)" x1="478" x2="478" y1="803" y2="220" /><line stroke="rgb(10%,10%,16%)" x1="478" x2="221" y1="220" y2="204" /><line stroke="rgb(10%,10%,16%)" x1="221" x2="215" y1="204" y2="209" /><line stroke="rgb(10%,10%,16%)" x1="215" x2="210" y1="209" y2="209" /><line stroke="rgb(10%,10%,16%)" x1="210" x2="210" y1="209" y2="215" /><line stroke="rgb(10%,10%,16%)" x1="210" x2="205" y1="215" y2="220" /><line stroke="rgb(10%,10%,16%)" x1="205" x2="205" y1="220" y2="358" /><line stroke="rgb(10%,10%,16%)" x1="205" x2="210" y1="358" y2="363" /><line stroke="rgb(10%,10%,16%)" x1="210" x2="210" y1="363" y2="368" /><line stroke="rgb(10%,10%,16%)" x1="210" x2="215" y1="368" y2="373" /><line stroke="rgb(10%,10%,16%)" x1="215" x2="272" y1="373" y2="373" /><line stroke="rgb(10%,10%,16%)" x1="272" x2="277" y1="373" y2="368" /><line stroke="rgb(10%,10%,16%)" x1="277" x2="277" y1="368" y2="296" /><line stroke="rgb(10%,10%,16%)" x1="277" x2="298" y1="296" y2="276" /><line stroke="rgb(10%,10%,16%)" x1="298" x2="329" y1="276" y2="276" /><line stroke="rgb(10%,10%,16%)" x1="329" x2="334" y1="276" y2="281" /><line stroke="rgb(10%,10%,16%)" x1="334" x2="339" y1="281" y2="281" /><line stroke="rgb(10%,10%,16%)" x1="339" x2="344" y1="281" y2="286" /><line stroke="rgb(10%,10%,16%)" x1="344" x2="344" y1="286" y2="686" /><line stroke="rgb(10%,10%,16%)" x1="344" x2="339" y1="686" y2="691" /><line stroke="rgb(10%,10%,16%)" x1="339" x2="339" y1="691" y2="732" /><line stroke="rgb(10%,10%,16%)" x1="339" x2="334" y1="732" y2="737" /><line stroke="rgb(10%,10%,16%)" x1="334" x2="246" y1="737" y2="737" /><line stroke="rgb(10%,10%,16%)" x1="246" x2="241" y1="737" y2="742" /><line stroke="rgb(10%,10%,16%)" x1="241" x2="236" y1="742" y2="742" /><line stroke="rgb(10%,10%,16%)" x1="236" x2="236" y1="742" y2="747" /><line stroke="rgb(10%,10%,16%)" x1="236" x2="231" y1="747" y2="752" /><line stroke="rgb(10%,10%,16%)" x1="231" x2="231" y1="752" y2="803" /><line stroke="rgb(10%,10%,16%)" x1="231" x2="236" y1="803" y2="808" /><line stroke="rgb(10%,10%,16%)" x1="236" x2="236" y1="808" y2="814" /><line stroke="rgb(10%,10%,16%)" x1="236" x2="411" y1="814" y2="814" /><line stroke="rgb(10%,10%,16%)" x1="411" x2="416" y1="814" y2="808" /><line stroke="rgb(10%,10%,16%)" x1="416" x2="416" y1="808" y2="491" /><line stroke="rgb(10%,10%,16%)" x1="416" x2="411" y1="491" y2="486" /><line stroke="rgb(10%,10%,16%)" x1="411" x2="411" y1="486" y2="281" /><line stroke="rgb(10%,10%,16%)" x1="411" x2="416" y1="281" y2="276" /><line stroke="rgb(10%,10%,16%)" x1="416" x2="416" y1="276" y2="215" /><line stroke="rgb(10%,10%,16%)" x1="416" x2="411" y1="215" y2="209" /><line stroke="rgb(10%,10%,16%)" x1="411" x2="406" y1="209" y2="209" /><line stroke="rgb(10%,10%,16%)" x1="406" x2="401" y1="209" y2="204" /><line stroke="rgb(10%,10%,16%)" x1="401" x2="221" y1="204" y2="204" /><line stroke="rgb(10%,10%,16%)" x1="221" x2="401" y1="204" y2="204" /><line stroke="rgb(10%,10%,16%)" x1="401" x2="416" y1="204" y2="220" /><line stroke="rgb(10%,10%,16%)" x1="416" x2="416" y1="220" y2="276" /><line stroke="rgb(10%,10%,16%)" x1="416" x2="411" y1="276" y2="281" /><line stroke="rgb(10%,10%,16%)" x1="411" x2="411" y1="281" y2="486" /><line stroke="rgb(10%,10%,16%)" x1="411" x2="416" y1="486" y2="491" /><line stroke="rgb(10%,10%,16%)" x1="416" x2="416" y1="491" y2="803" /><line stroke="rgb(10%,10%,16%)" x1="416" x2="406" y1="803" y2="814" /><line stroke="rgb(10%,10%,16%)" x1="406" x2="241" y1="814" y2="814" /><line stroke="rgb(10%,10%,16%)" x1="241" x2="231" y1="814" y2="803" /><line stroke="rgb(10%,10%,16%)" x1="231" x2="231" y1="803" y2="752" /><line stroke="rgb(10%,10%,16%)" x1="231" x2="246" y1="752" y2="737" /><line stroke="rgb(10%,10%,16%)" x1="246" x2="339" y1="737" y2="737" /><line stroke="rgb(10%,10%,16%)" x1="339" x2="339" y1="737" y2="691" /><line stroke="rgb(10%,10%,16%)" x1="339" x2="344" y1="691" y2="686" /><line stroke="rgb(10%,10%,16%)" x1="344" x2="344" y1="686" y2="286" /><line stroke="rgb(10%,10%,16%)" x1="344" x2="339" y1="286" y2="281" /><line stroke="rgb(10%,10%,16%)" x1="339" x2="334" y1="281" y2="281" /><line stroke="rgb(10%,10%,16%)" x1="334" x2="329" y1="281" y2="276" /><line stroke="rgb(10%,10%,16%)" x1="329" x2="298" y1="276" y2="276" /><line stroke="rgb(10%,10%,16%)" x1="298" x2="293" y1="276" y2="281" /><line stroke="rgb(10%,10%,16%)" x1="293" x2="287" y1="281" y2="281" /><line stroke="rgb(10%,10%,16%)" x1="287" x2="282" y1="281" y2="286" /><line stroke="rgb(10%,10%,16%)" x1="282" x2="282" y1="286" y2="291" /><line stroke="rgb(10%,10%,16%)" x1="282" x2="277" y1="291" y2="296" /><line stroke="rgb(10%,10%,16%)" x1="277" x2="277" y1="296" y2="368" /><line stroke="rgb(10%,10%,16%)" x1="277" x2="272" y1="368" y2="373" /><line stroke="rgb(10%,10%,16%)" x1="272" x2="221" y1="373" y2="373" /><line stroke="rgb(10%,10%,16%)" x1="221" x2="205" y1="373" y2="358" /><line stroke="rgb(10%,10%,16%)" x1="205" x2="205" y1="358" y2="220" /><line stroke="rgb(10%,10%,16%)" x1="205" x2="884" y1="220" y2="0" /><line stroke="rgb(10%,10%,16%)" x1="884" x2="889" y1="0" y2="5" /><line stroke="rgb(10%,10%,16%)" x1="889" x2="889" y1="5" y2="117" /><line stroke="rgb(10%,10%,16%)" x1="889" x2="884" y1="117" y2="122" /><line stroke="rgb(10%,10%,16%)" x1="884" x2="884" y1="122" y2="619" /><line stroke="rgb(10%,10%,16%)" x1="884" x2="889" y1="619" y2="624" /><line stroke="rgb(10%,10%,16%)" x1="889" x2="889" y1="624" y2="1018" /><line stroke="rgb(10%,10%,16%)" x1="889" x2="899" y1="1018" y2="1018" /><line stroke="rgb(10%,10%,16%)" x1="899" x2="899" y1="1018" y2="624" /><line stroke="rgb(10%,10%,16%)" x1="899" x2="889" y1="624" y2="624" /><line stroke="rgb(10%,10%,16%)" x1="889" x2="884" y1="624" y2="619" /><line stroke="rgb(10%,10%,16%)" x1="884" x2="884" y1="619" y2="122" /><line stroke="rgb(10%,10%,16%)" x1="884" x2="889" y1="122" y2="117" /><line stroke="rgb(10%,10%,16%)" x1="889" x2="899" y1="117" y2="117" /><line stroke="rgb(10%,10%,16%)" x1="899" x2="899" y1="117" y2="0" /><line stroke="rgb(10%,10%,16%)" x1="899" x2="0" y1="0" y2="0" /><line stroke="rgb(10%,10%,16%)" x1="0" x2="0" y1="0" y2="230" /><line stroke="rgb(10%,10%,16%)" x1="0" x2="20" y1="230" y2="230" /><line stroke="rgb(10%,10%,16%)" x1="20" x2="20" y1="230" y2="204" /><line stroke="rgb(10%,10%,16%)" x1="20" x2="25" y1="204" y2="199" /><line stroke="rgb(10%,10%,16%)" x1="25" x2="25" y1="199" y2="189" /><line stroke="rgb(10%,10%,16%)" x1="25" x2="30" y1="189" y2="184" /><line stroke="rgb(10%,10%,16%)" x1="30" x2="30" y1="184" y2="179" /><line stroke="rgb(10%,10%,16%)" x1="30" x2="35" y1="179" y2="174" /><line stroke="rgb(10%,10%,16%)" x1="35" x2="56" y1="174" y2="174" /><line stroke="rgb(10%,10%,16%)" x1="56" x2="61" y1="174" y2="179" /><line stroke="rgb(10%,10%,16%)" x1="61" x2="61" y1="179" y2="194" /><line stroke="rgb(10%,10%,16%)" x1="61" x2="66" y1="194" y2="199" /><line stroke="rgb(10%,10%,16%)" x1="66" x2="66" y1="199" y2="363" /><line stroke="rgb(10%,10%,16%)" x1="66" x2="71" y1="363" y2="368" /><line stroke="rgb(10%,10%,16%)" x1="71" x2="71" y1="368" y2="373" /><line stroke="rgb(10%,10%,16%)" x1="71" x2="143" y1="373" y2="373" /><line stroke="rgb(10%,10%,16%)" x1="143" x2="143" y1="373" y2="158" /><line stroke="rgb(10%,10%,16%)" x1="143" x2="154" y1="158" y2="148" /><line stroke="rgb(10%,10%,16%)" x1="154" x2="164" y1="148" y2="148" /><line stroke="rgb(10%,10%,16%)" x1="164" x2="169" y1="148" y2="143" /><line stroke="rgb(10%,10%,16%)" x1="169" x2="673" y1="143" y2="143" /><line stroke="rgb(10%,10%,16%)" x1="673" x2="678" y1="143" y2="148" /><line stroke="rgb(10%,10%,16%)" x1="678" x2="735" y1="148" y2="148" /><line stroke="rgb(10%,10%,16%)" x1="735" x2="745" y1="148" y2="158" /><line stroke="rgb(10%,10%,16%)" x1="745" x2="745" y1="158" y2="363" /><line stroke="rgb(10%,10%,16%)" x1="745" x2="750" y1="363" y2="368" /><line stroke="rgb(10%,10%,16%)" x1="750" x2="750" y1="368" y2="373" /><line stroke="rgb(10%,10%,16%)" x1="750" x2="761" y1="373" y2="373" /><line stroke="rgb(10%,10%,16%)" x1="761" x2="766" y1="373" y2="378" /><line stroke="rgb(10%,10%,16%)" x1="766" x2="797" y1="378" y2="378" /><line stroke="rgb(10%,10%,16%)" x1="797" x2="802" y1="378" y2="384" /><line stroke="rgb(10%,10%,16%)" x1="802" x2="802" y1="384" y2="414" /><line stroke="rgb(10%,10%,16%)" x1="802" x2="797" y1="414" y2="419" /><line stroke="rgb(10%,10%,16%)" x1="797" x2="797" y1="419" y2="455" /><line stroke="rgb(10%,10%,16%)" x1="797" x2="791" y1="455" y2="460" /><line stroke="rgb(10%,10%,16%)" x1="791" x2="791" y1="460" y2="486" /><line stroke="rgb(10%,10%,16%)" x1="791" x2="786" y1="486" y2="491" /><line stroke="rgb(10%,10%,16%)" x1="786" x2="786" y1="491" y2="522" /><line stroke="rgb(10%,10%,16%)" x1="786" x2="781" y1="522" y2="527" /><line stroke="rgb(10%,10%,16%)" x1="781" x2="781" y1="527" y2="552" /><line stroke="rgb(10%,10%,16%)" x1="781" x2="776" y1="552" y2="558" /><line stroke="rgb(10%,10%,16%)" x1="776" x2="776" y1="558" y2="588" /><line stroke="rgb(10%,10%,16%)" x1="776" x2="771" y1="588" y2="593" /><line stroke="rgb(10%,10%,16%)" x1="771" x2="771" y1="593" y2="624" /><line stroke="rgb(10%,10%,16%)" x1="771" x2="766" y1="624" y2="629" /><line stroke="rgb(10%,10%,16%)" x1="766" x2="766" y1="629" y2="660" /><line stroke="rgb(10%,10%,16%)" x1="766" x2="761" y1="660" y2="665" /><line stroke="rgb(10%,10%,16%)" x1="761" x2="761" y1="665" y2="701" /><line stroke="rgb(10%,10%,16%)" x1="761" x2="755" y1="701" y2="706" /><line stroke="rgb(10%,10%,16%)" x1="755" x2="755" y1="706" y2="737" /><line stroke="rgb(10%,10%,16%)" x1="755" x2="750" y1="737" y2="742" /><line stroke="rgb(10%,10%,16%)" x1="750" x2="750" y1="742" y2="778" /><line stroke="rgb(10%,10%,16%)" x1="750" x2="745" y1="778" y2="783" /><line stroke="rgb(10%,10%,16%)" x1="745" x2="745" y1="783" y2="808" /><line stroke="rgb(10%,10%,16%)" x1="745" x2="740" y1="808" y2="814" /><line stroke="rgb(10%,10%,16%)" x1="740" x2="740" y1="814" y2="839" /><line stroke="rgb(10%,10%,16%)" x1="740" x2="735" y1="839" y2="844" /><line stroke="rgb(10%,10%,16%)" x1="735" x2="735" y1="844" y2="865" /><line stroke="rgb(10%,10%,16%)" x1="735" x2="730" y1="865" y2="870" /><line stroke="rgb(10%,10%,16%)" x1="730" x2="730" y1="870" y2="885" /><line stroke="rgb(10%,10%,16%)" x1="730" x2="725" y1="885" y2="890" /><line stroke="rgb(10%,10%,16%)" x1="725" x2="725" y1="890" y2="911" /><line stroke="rgb(10%,10%,16%)" x1="725" x2="719" y1="911" y2="916" /><line stroke="rgb(10%,10%,16%)" x1="719" x2="719" y1="916" y2="931" /><line stroke="rgb(10%,10%,16%)" x1="719" x2="714" y1="931" y2="936" /><line stroke="rgb(10%,10%,16%)" x1="714" x2="714" y1="936" y2="947" /><line stroke="rgb(10%,10%,16%)" x1="714" x2="709" y1="947" y2="952" /><line stroke="rgb(10%,10%,16%)" x1="709" x2="709" y1="952" y2="962" /><line stroke="rgb(10%,10%,16%)" x1="709" x2="704" y1="962" y2="967" /><line stroke="rgb(10%,10%,16%)" x1="704" x2="704" y1="967" y2="977" /><line stroke="rgb(10%,10%,16%)" x1="704" x2="699" y1="977" y2="983" /><line stroke="rgb(10%,10%,16%)" x1="699" x2="699" y1="983" y2="993" /><line stroke="rgb(10%,10%,16%)" x1="699" x2="694" y1="993" y2="998" /><line stroke="rgb(10%,10%,16%)" x1="694" x2="694" y1="998" y2="1008" /><line stroke="rgb(10%,10%,16%)" x1="694" x2="689" y1="1008" y2="1013" /><line stroke="rgb(10%,10%,16%)" x1="689" x2="689" y1="1013" y2="1018" /><line stroke="rgb(10%,10%,16%)" x1="689" x2="694" y1="1018" y2="1018" /><line stroke="rgb(10%,10%,16%)" x1="694" x2="694" y1="1018" y2="998" /><line stroke="rgb(10%,10%,16%)" x1="694" x2="699" y1="998" y2="993" /><line stroke="rgb(10%,10%,16%)" x1="699" x2="699" y1="993" y2="983" /><line stroke="rgb(10%,10%,16%)" x1="699" x2="704" y1="983" y2="977" /><line stroke="rgb(10%,10%,16%)" x1="704" x2="704" y1="977" y2="967" /><line stroke="rgb(10%,10%,16%)" x1="704" x2="709" y1="967" y2="962" /><line stroke="rgb(10%,10%,16%)" x1="709" x2="709" y1="962" y2="952" /><line stroke="rgb(10%,10%,16%)" x1="709" x2="714" y1="952" y2="947" /><line stroke="rgb(10%,10%,16%)" x1="714" x2="714" y1="947" y2="936" /><line stroke="rgb(10%,10%,16%)" x1="714" x2="719" y1="936" y2="931" /><line stroke="rgb(10%,10%,16%)" x1="719" x2="719" y1="931" y2="916" /><line stroke="rgb(10%,10%,16%)" x1="719" x2="725" y1="916" y2="911" /><line stroke="rgb(10%,10%,16%)" x1="725" x2="725" y1="911" y2="890" /><line stroke="rgb(10%,10%,16%)" x1="725" x2="730" y1="890" y2="885" /><line stroke="rgb(10%,10%,16%)" x1="730" x2="730" y1="885" y2="870" /><line stroke="rgb(10%,10%,16%)" x1="730" x2="735" y1="870" y2="865" /><line stroke="rgb(10%,10%,16%)" x1="735" x2="735" y1="865" y2="844" /><line stroke="rgb(10%,10%,16%)" x1="735" x2="740" y1="844" y2="839" /><line stroke="rgb(10%,10%,16%)" x1="740" x2="740" y1="839" y2="814" /><line stroke="rgb(10%,10%,16%)" x1="740" x2="745" y1="814" y2="808" /><line stroke="rgb(10%,10%,16%)" x1="745" x2="745" y1="808" y2="783" /><line stroke="rgb(10%,10%,16%)" x1="745" x2="750" y1="783" y2="778" /><line stroke="rgb(10%,10%,16%)" x1="750" x2="750" y1="778" y2="742" /><line stroke="rgb(10%,10%,16%)" x1="750" x2="755" y1="742" y2="737" /><line stroke="rgb(10%,10%,16%)" x1="755" x2="755" y1="737" y2="706" /><line stroke="rgb(10%,10%,16%)" x1="755" x2="761" y1="706" y2="701" /><line stroke="rgb(10%,10%,16%)" x1="761" x2="761" y1="701" y2="665" /><line stroke="rgb(10%,10%,16%)" x1="761" x2="766" y1="665" y2="660" /><line stroke="rgb(10%,10%,16%)" x1="766" x2="766" y1="660" y2="629" /><line stroke="rgb(10%,10%,16%)" x1="766" x2="771" y1="629" y2="624" /><line stroke="rgb(10%,10%,16%)" x1="771" x2="771" y1="624" y2="593" /><line stroke="rgb(10%,10%,16%)" x1="771" x2="776" y1="593" y2="588" /><line stroke="rgb(10%,10%,16%)" x1="776" x2="776" y1="588" y2="558" /><line stroke="rgb(10%,10%,16%)" x1="776" x2="781" y1="558" y2="552" /><line stroke="rgb(10%,10%,16%)" x1="781" x2="781" y1="552" y2="527" /><line stroke="rgb(10%,10%,16%)" x1="781" x2="786" y1="527" y2="522" /><line stroke="rgb(10%,10%,16%)" x1="786" x2="786" y1="522" y2="491" /><line stroke="rgb(10%,10%,16%)" x1="786" x2="791" y1="491" y2="486" /><line stroke="rgb(10%,10%,16%)" x1="791" x2="791" y1="486" y2="460" /><line stroke="rgb(10%,10%,16%)" x1="791" x2="797" y1="460" y2="455" /><line stroke="rgb(10%,10%,16%)" x1="797" x2="797" y1="455" y2="419" /><line stroke="rgb(10%,10%,16%)" x1="797" x2="802" y1="419" y2="414" /><line stroke="rgb(10%,10%,16%)" x1="802" x2="802" y1="414" y2="384" /><line stroke="rgb(10%,10%,16%)" x1="802" x2="797" y1="384" y2="378" /><line stroke="rgb(10%,10%,16%)" x1="797" x2="766" y1="378" y2="378" /><line stroke="rgb(10%,10%,16%)" x1="766" x2="761" y1="378" y2="373" /><line stroke="rgb(10%,10%,16%)" x1="761" x2="755" y1="373" y2="373" /><line stroke="rgb(10%,10%,16%)" x1="755" x2="745" y1="373" y2="363" /><line stroke="rgb(10%,10%,16%)" x1="745" x2="745" y1="363" y2="153" /><line stroke="rgb(10%,10%,16%)" x1="745" x2="740" y1="153" y2="153" /><line stroke="rgb(10%,10%,16%)" x1="740" x2="735" y1="153" y2="148" /><line stroke="rgb(10%,10%,16%)" x1="735" x2="678" y1="148" y2="148" /><line stroke="rgb(10%,10%,16%)" x1="678" x2="673" y1="148" y2="143" /><line stroke="rgb(10%,10%,16%)" x1="673" x2="169" y1="143" y2="143" /><line stroke="rgb(10%,10%,16%)" x1="169" x2="164" y1="143" y2="148" /><line stroke="rgb(10%,10%,16%)" x1="164" x2="154" y1="148" y2="148" /><line stroke="rgb(10%,10%,16%)" x1="154" x2="143" y1="148" y2="158" /><line stroke="rgb(10%,10%,16%)" x1="143" x2="143" y1="158" y2="368" /><line stroke="rgb(10%,10%,16%)" x1="143" x2="138" y1="368" y2="373" /><line stroke="rgb(10%,10%,16%)" x1="138" x2="77" y1="373" y2="373" /><line stroke="rgb(10%,10%,16%)" x1="77" x2="66" y1="373" y2="363" /><line stroke="rgb(10%,10%,16%)" x1="66" x2="66" y1="363" y2="199" /><line stroke="rgb(10%,10%,16%)" x1="66" x2="61" y1="199" y2="194" /><line stroke="rgb(10%,10%,16%)" x1="61" x2="61" y1="194" y2="143" /><line stroke="rgb(10%,10%,16%)" x1="61" x2="56" y1="143" y2="138" /><line stroke="rgb(10%,10%,16%)" x1="56" x2="46" y1="138" y2="148" /><line stroke="rgb(10%,10%,16%)" x1="46" x2="46" y1="148" y2="153" /><line stroke="rgb(10%,10%,16%)" x1="46" x2="41" y1="153" y2="158" /><line stroke="rgb(10%,10%,16%)" x1="41" x2="41" y1="158" y2="163" /><line stroke="rgb(10%,10%,16%)" x1="41" x2="35" y1="163" y2="168" /><line stroke="rgb(10%,10%,16%)" x1="35" x2="15" y1="168" y2="168" /><line stroke="rgb(10%,10%,16%)" x1="15" x2="10" y1="168" y2="163" /><line stroke="rgb(10%,10%,16%)" x1="10" x2="10" y1="163" y2="143" /><line stroke="rgb(10%,10%,16%)" x1="10" x2="5" y1="143" y2="138" /><line stroke="rgb(10%,10%,16%)" x1="5" x2="5" y1="138" y2="15" /><line stroke="rgb(10%,10%,16%)" x1="5" x2="15" y1="15" y2="5" /><line stroke="rgb(10%,10%,16%)" x1="15" x2="113" y1="5" y2="5" /><line stroke="rgb(10%,10%,16%)" x1="113" x2="118" y1="5" y2="10" /><line stroke="rgb(10%,10%,16%)" x1="118" x2="133" y1="10" y2="10" /><line stroke="rgb(10%,10%,16%)" x1="133" x2="138" y1="10" y2="15" /><line stroke="rgb(10%,10%,16%)" x1="138" x2="138" y1="15" y2="35" /><line stroke="rgb(10%,10%,16%)" x1="138" x2="133" y1="35" y2="40" /><line stroke="rgb(10%,10%,16%)" x1="133" x2="128" y1="40" y2="40" /><line stroke="rgb(10%,10%,16%)" x1="128" x2="123" y1="40" y2="46" /><line stroke="rgb(10%,10%,16%)" x1="123" x2="123" y1="46" y2="51" /><line stroke="rgb(10%,10%,16%)" x1="123" x2="118" y1="51" y2="56" /><line stroke="rgb(10%,10%,16%)" x1="118" x2="123" y1="56" y2="61" /><line stroke="rgb(10%,10%,16%)" x1="123" x2="185" y1="61" y2="61" /><line stroke="rgb(10%,10%,16%)" x1="185" x2="190" y1="61" y2="66" /><line stroke="rgb(10%,10%,16%)" x1="190" x2="653" y1="66" y2="66" /><line stroke="rgb(10%,10%,16%)" x1="653" x2="658" y1="66" y2="61" /><line stroke="rgb(10%,10%,16%)" x1="658" x2="709" y1="61" y2="61" /><line stroke="rgb(10%,10%,16%)" x1="709" x2="709" y1="61" y2="46" /><line stroke="rgb(10%,10%,16%)" x1="709" x2="699" y1="46" y2="35" /><line stroke="rgb(10%,10%,16%)" x1="699" x2="699" y1="35" y2="15" /><line stroke="rgb(10%,10%,16%)" x1="699" x2="704" y1="15" y2="10" /><line stroke="rgb(10%,10%,16%)" x1="704" x2="709" y1="10" y2="10" /><line stroke="rgb(10%,10%,16%)" x1="709" x2="714" y1="10" y2="5" /><line stroke="rgb(10%,10%,16%)" x1="714" x2="827" y1="5" y2="5" /><line stroke="rgb(10%,10%,16%)" x1="827" x2="827" y1="5" y2="0" /><line stroke="rgb(10%,10%,16%)" x1="827" x2="673" y1="0" y2="0" /><line stroke="rgb(10%,10%,16%)" x1="673" x2="673" y1="0" y2="20" /><line stroke="rgb(10%,10%,16%)" x1="673" x2="678" y1="20" y2="20" /><line stroke="rgb(10%,10%,16%)" x1="678" x2="694" y1="20" y2="35" /><line stroke="rgb(10%,10%,16%)" x1="694" x2="694" y1="35" y2="56" /><line stroke="rgb(10%,10%,16%)" x1="694" x2="689" y1="56" y2="61" /><line stroke="rgb(10%,10%,16%)" x1="689" x2="658" y1="61" y2="61" /><line stroke="rgb(10%,10%,16%)" x1="658" x2="653" y1="61" y2="66" /><line stroke="rgb(10%,10%,16%)" x1="653" x2="190" y1="66" y2="66" /><line stroke="rgb(10%,10%,16%)" x1="190" x2="185" y1="66" y2="61" /><line stroke="rgb(10%,10%,16%)" x1="185" x2="149" y1="61" y2="61" /><line stroke="rgb(10%,10%,16%)" x1="149" x2="143" y1="61" y2="56" /><line stroke="rgb(10%,10%,16%)" x1="143" x2="143" y1="56" y2="35" /><line stroke="rgb(10%,10%,16%)" x1="143" x2="159" y1="35" y2="20" /><line stroke="rgb(10%,10%,16%)" x1="159" x2="164" y1="20" y2="20" /><line stroke="rgb(10%,10%,16%)" x1="164" x2="164" y1="20" y2="0" /><line stroke="rgb(10%,10%,16%)" x1="164" x2="0" y1="0" y2="0" /><line stroke="rgb(10%,10%,16%)" x1="0" x2="30" y1="0" y2="179" /><line stroke="rgb(10%,10%,16%)" x1="30" x2="66" y1="179" y2="363" /><line stroke="rgb(10%,10%,16%)" x1="66" x2="143" y1="363" y2="158" /><line stroke="rgb(10%,10%,16%)" x1="143" x2="745" y1="158" y2="363" /><line stroke="rgb(10%,10%,16%)" x1="745" x2="802" y1="363" y2="414" /><line stroke="rgb(10%,10%,16%)" x1="802" x2="771" y1="414" y2="593" /><line stroke="rgb(10%,10%,16%)" x1="771" x2="740" y1="593" y2="814" /><line stroke="rgb(10%,10%,16%)" x1="740" x2="709" y1="814" y2="952" /><line stroke="rgb(10%,10%,16%)" x1="709" x2="740" y1="952" y2="839" /><line stroke="rgb(10%,10%,16%)" x1="740" x2="771" y1="839" y2="624" /><line stroke="rgb(10%,10%,16%)" x1="771" x2="802" y1="624" y2="414" /><line stroke="rgb(10%,10%,16%)" x1="802" x2="766" y1="414" y2="378" /><line stroke="rgb(10%,10%,16%)" x1="766" x2="735" y1="378" y2="148" /><line stroke="rgb(10%,10%,16%)" x1="735" x2="143" y1="148" y2="368" /><line stroke="rgb(10%,10%,16%)" x1="143" x2="61" y1="368" y2="143" /><line stroke="rgb(10%,10%,16%)" x1="61" x2="5" y1="143" y2="15" /><line stroke="rgb(10%,10%,16%)" x1="5" x2="123" y1="15" y2="46" /><line stroke="rgb(10%,10%,16%)" x1="123" x2="704" y1="46" y2="10" /><line stroke="rgb(10%,10%,16%)" x1="704" x2="658" y1="10" y2="61" /><line stroke="rgb(10%,10%,16%)" x1="658" x2="159" y1="61" y2="20" /><line stroke="rgb(10%,10%,16%)" x1="159" x2="164" y1="20" y2="0" /><line stroke="rgb(10%,10%,16%)" x1="164" x2="493" y1="0" y2="204" /><line stroke="rgb(10%,10%,16%)" x1="493" x2="493" y1="204" y2="204" /><line stroke="rgb(10%,10%,16%)" x1="493" x2="663" y1="204" y2="814" /><line stroke="rgb(10%,10%,16%)" x1="663" x2="555" y1="814" y2="737" /><line stroke="rgb(10%,10%,16%)" x1="555" x2="606" y1="737" y2="281" /><line stroke="rgb(10%,10%,16%)" x1="606" x2="683" y1="281" y2="373" /><line stroke="rgb(10%,10%,16%)" x1="683" x2="678" y1="373" y2="204" /><line stroke="rgb(10%,10%,16%)" x1="678" x2="493" y1="204" y2="204" /><line stroke="rgb(10%,10%,16%)" x1="493" x2="683" y1="204" y2="368" /><line stroke="rgb(10%,10%,16%)" x1="683" x2="611" y1="368" y2="286" /><line stroke="rgb(10%,10%,16%)" x1="611" x2="550" y1="286" y2="732" /><line stroke="rgb(10%,10%,16%)" x1="550" x2="663" y1="732" y2="808" /><line stroke="rgb(10%,10%,16%)" x1="663" x2="478" y1="808" y2="220" /><line stroke="rgb(10%,10%,16%)" x1="478" x2="478" y1="220" y2="220" /><line stroke="rgb(10%,10%,16%)" x1="478" x2="221" y1="220" y2="204" /><line stroke="rgb(10%,10%,16%)" x1="221" x2="272" y1="204" y2="373" /><line stroke="rgb(10%,10%,16%)" x1="272" x2="329" y1="373" y2="276" /><line stroke="rgb(10%,10%,16%)" x1="329" x2="246" y1="276" y2="737" /><line stroke="rgb(10%,10%,16%)" x1="246" x2="411" y1="737" y2="814" /><line stroke="rgb(10%,10%,16%)" x1="411" x2="401" y1="814" y2="204" /><line stroke="rgb(10%,10%,16%)" x1="401" x2="221" y1="204" y2="204" /><line stroke="rgb(10%,10%,16%)" x1="221" x2="416" y1="204" y2="276" /><line stroke="rgb(10%,10%,16%)" x1="416" x2="241" y1="276" y2="814" /><line stroke="rgb(10%,10%,16%)" x1="241" x2="339" y1="814" y2="737" /><line stroke="rgb(10%,10%,16%)" x1="339" x2="298" y1="737" y2="276" /><line stroke="rgb(10%,10%,16%)" x1="298" x2="221" y1="276" y2="373" /><line stroke="rgb(10%,10%,16%)" x1="221" x2="205" y1="373" y2="220" /><line stroke="rgb(10%,10%,16%)" x1="205" x2="241" y1="220" y2="875" /><line stroke="rgb(10%,10%,16%)" x1="241" x2="241" y1="875" y2="875" /><line stroke="rgb(10%,10%,16%)" x1="241" x2="663" y1="875" y2="947" /><line stroke="rgb(10%,10%,16%)" x1="663" x2="226" y1="947" y2="896" /><line stroke="rgb(10%,10%,16%)" x1="226" x2="231" y1="896" y2="885" /></g></svg>