<?xml version="1.0" encoding="utf-8" ?>
<svg baseProfile="full" height="466" version="1.1" width="466" xmlns="http://www.w3.org/2000/svg" xmlns:ev="http://www.w3.org/2001/xml-events" xmlns:xlink="http://www.w3.org/1999/xlink"><defs /><g fill="none" id="shapes"><line stroke="rgb(10%,10%,16%)" x1="0" x2="147" y1="466" y2="12" /><line stroke="rgb(10%,10%,16%)" x1="147" x2="254" y1="12" y2="73" /><line stroke="rgb(10%,10%,16%)" x1="254" x2="276" y1="73" y2="127" /><line stroke="rgb(10%,10%,16%)" x1="276" x2="303" y1="127" y2="335" /><line stroke="rgb(10%,10%,16%)" x1="303" x2="330" y1="335" y2="382" /><line stroke="rgb(10%,10%,16%)" x1="330" x2="362" y1="382" y2="437" /><line stroke="rgb(10%,10%,16%)" x1="362" x2="319" y1="437" y2="417" /><line stroke="rgb(10%,10%,16%)" x1="319" x2="291" y1="417" y2="368" /><line stroke="rgb(10%,10%,16%)" x1="291" x2="259" y1="368" y2="314" /><line stroke="rgb(10%,10%,16%)" x1="259" x2="204" y1="314" y2="273" /><line stroke="rgb(10%,10%,16%)" x1="204" x2="145" y1="273" y2="238" /><line stroke="rgb(10%,10%,16%)" x1="145" x2="80" y1="238" y2="165" /><line stroke="rgb(10%,10%,16%)" x1="80" x2="73" y1="165" y2="66" /><line stroke="rgb(10%,10%,16%)" x1="73" x2="143" y1="66" y2="12" /><line stroke="rgb(10%,10%,16%)" x1="143" x2="152" y1="12" y2="24" /><line stroke="rgb(10%,10%,16%)" x1="152" x2="155" y1="24" y2="24" /><line stroke="rgb(10%,10%,16%)" x1="155" x2="192" y1="24" y2="64" /><line stroke="rgb(10%,10%,16%)" x1="192" x2="190" y1="64" y2="66" /></g></svg>