<?xml version="1.0" encoding="utf-8" ?>
<svg baseProfile="full" height="466" version="1.1" width="466" xmlns="http://www.w3.org/2000/svg" xmlns:ev="http://www.w3.org/2001/xml-events" xmlns:xlink="http://www.w3.org/1999/xlink"><defs /><g fill="none" id="shapes"><line stroke="rgb(10%,10%,16%)" x1="144" x2="256" y1="9" y2="69" /><line stroke="rgb(10%,10%,16%)" x1="256" x2="270" y1="69" y2="97" /><line stroke="rgb(10%,10%,16%)" x1="270" x2="284" y1="97" y2="272" /><line stroke="rgb(10%,10%,16%)" x1="284" x2="298" y1="272" y2="321" /><line stroke="rgb(10%,10%,16%)" x1="298" x2="314" y1="321" y2="347" /><line stroke="rgb(10%,10%,16%)" x1="314" x2="330" y1="347" y2="375" /><line stroke="rgb(10%,10%,16%)" x1="330" x2="344" y1="375" y2="400" /><line stroke="rgb(10%,10%,16%)" x1="344" x2="363" y1="400" y2="426" /><line stroke="rgb(10%,10%,16%)" x1="363" x2="349" y1="426" y2="449" /><line stroke="rgb(10%,10%,16%)" x1="349" x2="323" y1="449" y2="433" /><line stroke="rgb(10%,10%,16%)" x1="323" x2="309" y1="433" y2="410" /><line stroke="rgb(10%,10%,16%)" x1="309" x2="295" y1="410" y2="384" /><line stroke="rgb(10%,10%,16%)" x1="295" x2="279" y1="384" y2="356" /><line stroke="rgb(10%,10%,16%)" x1="279" x2="256" y1="356" y2="316" /><line stroke="rgb(10%,10%,16%)" x1="256" x2="237" y1="316" y2="295" /><line stroke="rgb(10%,10%,16%)" x1="237" x2="216" y1="295" y2="281" /><line stroke="rgb(10%,10%,16%)" x1="216" x2="191" y1="281" y2="267" /><line stroke="rgb(10%,10%,16%)" x1="191" x2="165" y1="267" y2="251" /><line stroke="rgb(10%,10%,16%)" x1="165" x2="142" y1="251" y2="237" /><line stroke="rgb(10%,10%,16%)" x1="142" x2="107" y1="237" y2="207" /><line stroke="rgb(10%,10%,16%)" x1="107" x2="93" y1="207" y2="193" /><line stroke="rgb(10%,10%,16%)" x1="93" x2="76" y1="193" y2="167" /><line stroke="rgb(10%,10%,16%)" x1="76" x2="62" y1="167" y2="132" /><line stroke="rgb(10%,10%,16%)" x1="62" x2="79" y1="132" y2="48" /><line stroke="rgb(10%,10%,16%)" x1="79" x2="97" y1="48" y2="27" /><line stroke="rgb(10%,10%,16%)" x1="97" x2="121" y1="27" y2="13" /><line stroke="rgb(10%,10%,16%)" x1="121" x2="135" y1="13" y2="9" /><line stroke="rgb(10%,10%,16%)" x1="135" x2="153" y1="9" y2="27" /><line stroke="rgb(10%,10%,16%)" x1="153" x2="153" y1="27" y2="27" /><line stroke="rgb(10%,10%,16%)" x1="153" x2="118" y1="27" y2="41" /><line stroke="rgb(10%,10%,16%)" x1="118" x2="100" y1="41" y2="58" /><line stroke="rgb(10%,10%,16%)" x1="100" x2="86" y1="58" y2="90" /><line stroke="rgb(10%,10%,16%)" x1="86" x2="102" y1="90" y2="170" /><line stroke="rgb(10%,10%,16%)" x1="102" x2="125" y1="170" y2="200" /><line stroke="rgb(10%,10%,16%)" x1="125" x2="144" y1="200" y2="214" /><line stroke="rgb(10%,10%,16%)" x1="144" x2="158" y1="214" y2="228" /><line stroke="rgb(10%,10%,16%)" x1="158" x2="188" y1="228" y2="244" /><line stroke="rgb(10%,10%,16%)" x1="188" x2="212" y1="244" y2="258" /><line stroke="rgb(10%,10%,16%)" x1="212" x2="233" y1="258" y2="274" /><line stroke="rgb(10%,10%,16%)" x1="233" x2="253" y1="274" y2="291" /><line stroke="rgb(10%,10%,16%)" x1="253" x2="270" y1="291" y2="305" /><line stroke="rgb(10%,10%,16%)" x1="270" x2="256" y1="305" y2="246" /><line stroke="rgb(10%,10%,16%)" x1="256" x2="242" y1="246" y2="88" /><line stroke="rgb(10%,10%,16%)" x1="242" x2="228" y1="88" y2="65" /><line stroke="rgb(10%,10%,16%)" x1="228" x2="214" y1="65" y2="51" /><line stroke="rgb(10%,10%,16%)" x1="214" x2="188" y1="51" y2="37" /><line stroke="rgb(10%,10%,16%)" x1="188" x2="156" y1="37" y2="27" /><line stroke="rgb(10%,10%,16%)" x1="156" x2="188" y1="27" y2="60" /><line stroke="rgb(10%,10%,16%)" x1="188" x2="188" y1="60" y2="60" /><line stroke="rgb(10%,10%,16%)" x1="188" x2="205" y1="60" y2="74" /><line stroke="rgb(10%,10%,16%)" x1="205" x2="221" y1="74" y2="93" /><line stroke="rgb(10%,10%,16%)" x1="221" x2="235" y1="93" y2="132" /><line stroke="rgb(10%,10%,16%)" x1="235" x2="219" y1="132" y2="163" /><line stroke="rgb(10%,10%,16%)" x1="219" x2="191" y1="163" y2="177" /><line stroke="rgb(10%,10%,16%)" x1="191" x2="172" y1="177" y2="191" /><line stroke="rgb(10%,10%,16%)" x1="172" x2="137" y1="191" y2="177" /><line stroke="rgb(10%,10%,16%)" x1="137" x2="121" y1="177" y2="146" /><line stroke="rgb(10%,10%,16%)" x1="121" x2="102" y1="146" y2="130" /><line stroke="rgb(10%,10%,16%)" x1="102" x2="116" y1="130" y2="100" /><line stroke="rgb(10%,10%,16%)" x1="116" x2="146" y1="100" y2="83" /><line stroke="rgb(10%,10%,16%)" x1="146" x2="172" y1="83" y2="69" /><line stroke="rgb(10%,10%,16%)" x1="172" x2="184" y1="69" y2="65" /><line stroke="rgb(10%,10%,16%)" x1="184" x2="179" y1="65" y2="90" /><line stroke="rgb(10%,10%,16%)" x1="179" x2="193" y1="90" y2="128" /><line stroke="rgb(10%,10%,16%)" x1="193" x2="181" y1="128" y2="93" /><line stroke="rgb(10%,10%,16%)" x1="181" x2="142" y1="93" y2="111" /><line stroke="rgb(10%,10%,16%)" x1="142" x2="142" y1="111" y2="111" /><line stroke="rgb(10%,10%,16%)" x1="142" x2="156" y1="111" y2="139" /><line stroke="rgb(10%,10%,16%)" x1="156" x2="170" y1="139" y2="156" /><line stroke="rgb(10%,10%,16%)" x1="170" x2="153" y1="156" y2="121" /><line stroke="rgb(10%,10%,16%)" x1="153" x2="146" y1="121" y2="111" /></g></svg>