<?xml version="1.0" encoding="utf-8" ?>
<svg baseProfile="full" height="466" version="1.1" width="466" xmlns="http://www.w3.org/2000/svg" xmlns:ev="http://www.w3.org/2001/xml-events" xmlns:xlink="http://www.w3.org/1999/xlink"><defs /><g fill="none" id="shapes"><line stroke="rgb(10%,10%,16%)" x1="0" x2="147" y1="466" y2="12" /><line stroke="rgb(10%,10%,16%)" x1="147" x2="242" y1="12" y2="55" /><line stroke="rgb(10%,10%,16%)" x1="242" x2="266" y1="55" y2="97" /><line stroke="rgb(10%,10%,16%)" x1="266" x2="280" y1="97" y2="235" /><line stroke="rgb(10%,10%,16%)" x1="280" x2="306" y1="235" y2="341" /><line stroke="rgb(10%,10%,16%)" x1="306" x2="330" y1="341" y2="383" /><line stroke="rgb(10%,10%,16%)" x1="330" x2="362" y1="383" y2="433" /><line stroke="rgb(10%,10%,16%)" x1="362" x2="320" y1="433" y2="418" /><line stroke="rgb(10%,10%,16%)" x1="320" x2="296" y1="418" y2="375" /><line stroke="rgb(10%,10%,16%)" x1="296" x2="275" y1="375" y2="336" /><line stroke="rgb(10%,10%,16%)" x1="275" x2="236" y1="336" y2="294" /><line stroke="rgb(10%,10%,16%)" x1="236" x2="178" y1="294" y2="256" /><line stroke="rgb(10%,10%,16%)" x1="178" x2="93" y1="256" y2="187" /><line stroke="rgb(10%,10%,16%)" x1="93" x2="72" y1="187" y2="144" /><line stroke="rgb(10%,10%,16%)" x1="72" x2="118" y1="144" y2="21" /><line stroke="rgb(10%,10%,16%)" x1="118" x2="143" y1="21" y2="12" /></g></svg>