<?xml version="1.0" encoding="utf-8" ?>
<svg baseProfile="full" height="1273" version="1.1" width="1209" xmlns="http://www.w3.org/2000/svg" xmlns:ev="http://www.w3.org/2001/xml-events" xmlns:xlink="http://www.w3.org/1999/xlink"><defs /><g fill="none" id="shapes"><line stroke="rgb(10%,10%,16%)" x1="127" x2="134" y1="25" y2="19" /><line stroke="rgb(10%,10%,16%)" x1="134" x2="159" y1="19" y2="19" /><line stroke="rgb(10%,10%,16%)" x1="159" x2="166" y1="19" y2="25" /><line stroke="rgb(10%,10%,16%)" x1="166" x2="198" y1="25" y2="25" /><line stroke="rgb(10%,10%,16%)" x1="198" x2="204" y1="25" y2="31" /><line stroke="rgb(10%,10%,16%)" x1="204" x2="230" y1="31" y2="31" /><line stroke="rgb(10%,10%,16%)" x1="230" x2="236" y1="31" y2="38" /><line stroke="rgb(10%,10%,16%)" x1="236" x2="268" y1="38" y2="38" /><line stroke="rgb(10%,10%,16%)" x1="268" x2="275" y1="38" y2="44" /><line stroke="rgb(10%,10%,16%)" x1="275" x2="460" y1="44" y2="44" /><line stroke="rgb(10%,10%,16%)" x1="460" x2="466" y1="44" y2="38" /><line stroke="rgb(10%,10%,16%)" x1="466" x2="818" y1="38" y2="38" /><line stroke="rgb(10%,10%,16%)" x1="818" x2="825" y1="38" y2="31" /><line stroke="rgb(10%,10%,16%)" x1="825" x2="869" y1="31" y2="31" /><line stroke="rgb(10%,10%,16%)" x1="869" x2="876" y1="31" y2="38" /><line stroke="rgb(10%,10%,16%)" x1="876" x2="933" y1="38" y2="38" /><line stroke="rgb(10%,10%,16%)" x1="933" x2="940" y1="38" y2="44" /><line stroke="rgb(10%,10%,16%)" x1="940" x2="965" y1="44" y2="44" /><line stroke="rgb(10%,10%,16%)" x1="965" x2="972" y1="44" y2="38" /><line stroke="rgb(10%,10%,16%)" x1="972" x2="1023" y1="38" y2="38" /><line stroke="rgb(10%,10%,16%)" x1="1023" x2="1029" y1="38" y2="31" /><line stroke="rgb(10%,10%,16%)" x1="1029" x2="1106" y1="31" y2="31" /><line stroke="rgb(10%,10%,16%)" x1="1106" x2="1113" y1="31" y2="38" /><line stroke="rgb(10%,10%,16%)" x1="1113" x2="1113" y1="38" y2="63" /><line stroke="rgb(10%,10%,16%)" x1="1113" x2="1106" y1="63" y2="70" /><line stroke="rgb(10%,10%,16%)" x1="1106" x2="1106" y1="70" y2="76" /><line stroke="rgb(10%,10%,16%)" x1="1106" x2="1087" y1="76" y2="95" /><line stroke="rgb(10%,10%,16%)" x1="1087" x2="1087" y1="95" y2="210" /><line stroke="rgb(10%,10%,16%)" x1="1087" x2="1081" y1="210" y2="216" /><line stroke="rgb(10%,10%,16%)" x1="1081" x2="1081" y1="216" y2="241" /><line stroke="rgb(10%,10%,16%)" x1="1081" x2="1074" y1="241" y2="248" /><line stroke="rgb(10%,10%,16%)" x1="1074" x2="1036" y1="248" y2="248" /><line stroke="rgb(10%,10%,16%)" x1="1036" x2="1023" y1="248" y2="235" /><line stroke="rgb(10%,10%,16%)" x1="1023" x2="1017" y1="235" y2="235" /><line stroke="rgb(10%,10%,16%)" x1="1017" x2="1010" y1="235" y2="229" /><line stroke="rgb(10%,10%,16%)" x1="1010" x2="1004" y1="229" y2="229" /><line stroke="rgb(10%,10%,16%)" x1="1004" x2="997" y1="229" y2="222" /><line stroke="rgb(10%,10%,16%)" x1="997" x2="997" y1="222" y2="178" /><line stroke="rgb(10%,10%,16%)" x1="997" x2="991" y1="178" y2="178" /><line stroke="rgb(10%,10%,16%)" x1="991" x2="985" y1="178" y2="171" /><line stroke="rgb(10%,10%,16%)" x1="985" x2="959" y1="171" y2="171" /><line stroke="rgb(10%,10%,16%)" x1="959" x2="946" y1="171" y2="159" /><line stroke="rgb(10%,10%,16%)" x1="946" x2="946" y1="159" y2="133" /><line stroke="rgb(10%,10%,16%)" x1="946" x2="940" y1="133" y2="127" /><line stroke="rgb(10%,10%,16%)" x1="940" x2="933" y1="127" y2="127" /><line stroke="rgb(10%,10%,16%)" x1="933" x2="927" y1="127" y2="120" /><line stroke="rgb(10%,10%,16%)" x1="927" x2="895" y1="120" y2="120" /><line stroke="rgb(10%,10%,16%)" x1="895" x2="889" y1="120" y2="114" /><line stroke="rgb(10%,10%,16%)" x1="889" x2="786" y1="114" y2="114" /><line stroke="rgb(10%,10%,16%)" x1="786" x2="780" y1="114" y2="108" /><line stroke="rgb(10%,10%,16%)" x1="780" x2="780" y1="108" y2="101" /><line stroke="rgb(10%,10%,16%)" x1="780" x2="633" y1="101" y2="101" /><line stroke="rgb(10%,10%,16%)" x1="633" x2="626" y1="101" y2="108" /><line stroke="rgb(10%,10%,16%)" x1="626" x2="594" y1="108" y2="108" /><line stroke="rgb(10%,10%,16%)" x1="594" x2="582" y1="108" y2="120" /><line stroke="rgb(10%,10%,16%)" x1="582" x2="582" y1="120" y2="127" /><line stroke="rgb(10%,10%,16%)" x1="582" x2="575" y1="127" y2="133" /><line stroke="rgb(10%,10%,16%)" x1="575" x2="550" y1="133" y2="133" /><line stroke="rgb(10%,10%,16%)" x1="550" x2="537" y1="133" y2="146" /><line stroke="rgb(10%,10%,16%)" x1="537" x2="524" y1="146" y2="146" /><line stroke="rgb(10%,10%,16%)" x1="524" x2="518" y1="146" y2="152" /><line stroke="rgb(10%,10%,16%)" x1="518" x2="511" y1="152" y2="152" /><line stroke="rgb(10%,10%,16%)" x1="511" x2="505" y1="152" y2="159" /><line stroke="rgb(10%,10%,16%)" x1="505" x2="486" y1="159" y2="159" /><line stroke="rgb(10%,10%,16%)" x1="486" x2="479" y1="159" y2="165" /><line stroke="rgb(10%,10%,16%)" x1="479" x2="473" y1="165" y2="165" /><line stroke="rgb(10%,10%,16%)" x1="473" x2="466" y1="165" y2="171" /><line stroke="rgb(10%,10%,16%)" x1="466" x2="428" y1="171" y2="171" /><line stroke="rgb(10%,10%,16%)" x1="428" x2="422" y1="171" y2="178" /><line stroke="rgb(10%,10%,16%)" x1="422" x2="415" y1="178" y2="178" /><line stroke="rgb(10%,10%,16%)" x1="415" x2="403" y1="178" y2="190" /><line stroke="rgb(10%,10%,16%)" x1="403" x2="396" y1="190" y2="190" /><line stroke="rgb(10%,10%,16%)" x1="396" x2="396" y1="190" y2="210" /><line stroke="rgb(10%,10%,16%)" x1="396" x2="390" y1="210" y2="216" /><line stroke="rgb(10%,10%,16%)" x1="390" x2="364" y1="216" y2="216" /><line stroke="rgb(10%,10%,16%)" x1="364" x2="364" y1="216" y2="241" /><line stroke="rgb(10%,10%,16%)" x1="364" x2="345" y1="241" y2="260" /><line stroke="rgb(10%,10%,16%)" x1="345" x2="345" y1="260" y2="267" /><line stroke="rgb(10%,10%,16%)" x1="345" x2="332" y1="267" y2="280" /><line stroke="rgb(10%,10%,16%)" x1="332" x2="332" y1="280" y2="286" /><line stroke="rgb(10%,10%,16%)" x1="332" x2="313" y1="286" y2="305" /><line stroke="rgb(10%,10%,16%)" x1="313" x2="313" y1="305" y2="311" /><line stroke="rgb(10%,10%,16%)" x1="313" x2="307" y1="311" y2="318" /><line stroke="rgb(10%,10%,16%)" x1="307" x2="307" y1="318" y2="343" /><line stroke="rgb(10%,10%,16%)" x1="307" x2="300" y1="343" y2="350" /><line stroke="rgb(10%,10%,16%)" x1="300" x2="300" y1="350" y2="356" /><line stroke="rgb(10%,10%,16%)" x1="300" x2="294" y1="356" y2="362" /><line stroke="rgb(10%,10%,16%)" x1="294" x2="294" y1="362" y2="369" /><line stroke="rgb(10%,10%,16%)" x1="294" x2="281" y1="369" y2="381" /><line stroke="rgb(10%,10%,16%)" x1="281" x2="281" y1="381" y2="432" /><line stroke="rgb(10%,10%,16%)" x1="281" x2="275" y1="432" y2="439" /><line stroke="rgb(10%,10%,16%)" x1="275" x2="275" y1="439" y2="451" /><line stroke="rgb(10%,10%,16%)" x1="275" x2="268" y1="451" y2="458" /><line stroke="rgb(10%,10%,16%)" x1="268" x2="268" y1="458" y2="464" /><line stroke="rgb(10%,10%,16%)" x1="268" x2="262" y1="464" y2="471" /><line stroke="rgb(10%,10%,16%)" x1="262" x2="262" y1="471" y2="483" /><line stroke="rgb(10%,10%,16%)" x1="262" x2="255" y1="483" y2="490" /><line stroke="rgb(10%,10%,16%)" x1="255" x2="255" y1="490" y2="502" /><line stroke="rgb(10%,10%,16%)" x1="255" x2="249" y1="502" y2="509" /><line stroke="rgb(10%,10%,16%)" x1="249" x2="249" y1="509" y2="521" /><line stroke="rgb(10%,10%,16%)" x1="249" x2="243" y1="521" y2="528" /><line stroke="rgb(10%,10%,16%)" x1="243" x2="236" y1="528" y2="528" /><line stroke="rgb(10%,10%,16%)" x1="236" x2="230" y1="528" y2="534" /><line stroke="rgb(10%,10%,16%)" x1="230" x2="223" y1="534" y2="534" /><line stroke="rgb(10%,10%,16%)" x1="223" x2="217" y1="534" y2="541" /><line stroke="rgb(10%,10%,16%)" x1="217" x2="217" y1="541" y2="547" /><line stroke="rgb(10%,10%,16%)" x1="217" x2="223" y1="547" y2="553" /><line stroke="rgb(10%,10%,16%)" x1="223" x2="230" y1="553" y2="553" /><line stroke="rgb(10%,10%,16%)" x1="230" x2="236" y1="553" y2="560" /><line stroke="rgb(10%,10%,16%)" x1="236" x2="236" y1="560" y2="585" /><line stroke="rgb(10%,10%,16%)" x1="236" x2="217" y1="585" y2="604" /><line stroke="rgb(10%,10%,16%)" x1="217" x2="217" y1="604" y2="617" /><line stroke="rgb(10%,10%,16%)" x1="217" x2="211" y1="617" y2="623" /><line stroke="rgb(10%,10%,16%)" x1="211" x2="211" y1="623" y2="700" /><line stroke="rgb(10%,10%,16%)" x1="211" x2="223" y1="700" y2="700" /><line stroke="rgb(10%,10%,16%)" x1="223" x2="223" y1="700" y2="649" /><line stroke="rgb(10%,10%,16%)" x1="223" x2="230" y1="649" y2="642" /><line stroke="rgb(10%,10%,16%)" x1="230" x2="255" y1="642" y2="642" /><line stroke="rgb(10%,10%,16%)" x1="255" x2="262" y1="642" y2="649" /><line stroke="rgb(10%,10%,16%)" x1="262" x2="262" y1="649" y2="693" /><line stroke="rgb(10%,10%,16%)" x1="262" x2="268" y1="693" y2="700" /><line stroke="rgb(10%,10%,16%)" x1="268" x2="268" y1="700" y2="719" /><line stroke="rgb(10%,10%,16%)" x1="268" x2="275" y1="719" y2="725" /><line stroke="rgb(10%,10%,16%)" x1="275" x2="275" y1="725" y2="744" /><line stroke="rgb(10%,10%,16%)" x1="275" x2="281" y1="744" y2="751" /><line stroke="rgb(10%,10%,16%)" x1="281" x2="281" y1="751" y2="757" /><line stroke="rgb(10%,10%,16%)" x1="281" x2="287" y1="757" y2="763" /><line stroke="rgb(10%,10%,16%)" x1="287" x2="287" y1="763" y2="770" /><line stroke="rgb(10%,10%,16%)" x1="287" x2="294" y1="770" y2="776" /><line stroke="rgb(10%,10%,16%)" x1="294" x2="294" y1="776" y2="782" /><line stroke="rgb(10%,10%,16%)" x1="294" x2="307" y1="782" y2="795" /><line stroke="rgb(10%,10%,16%)" x1="307" x2="307" y1="795" y2="801" /><line stroke="rgb(10%,10%,16%)" x1="307" x2="313" y1="801" y2="808" /><line stroke="rgb(10%,10%,16%)" x1="313" x2="313" y1="808" y2="814" /><line stroke="rgb(10%,10%,16%)" x1="313" x2="351" y1="814" y2="852" /><line stroke="rgb(10%,10%,16%)" x1="351" x2="358" y1="852" y2="852" /><line stroke="rgb(10%,10%,16%)" x1="358" x2="371" y1="852" y2="865" /><line stroke="rgb(10%,10%,16%)" x1="371" x2="377" y1="865" y2="865" /><line stroke="rgb(10%,10%,16%)" x1="377" x2="383" y1="865" y2="872" /><line stroke="rgb(10%,10%,16%)" x1="383" x2="390" y1="872" y2="872" /><line stroke="rgb(10%,10%,16%)" x1="390" x2="396" y1="872" y2="878" /><line stroke="rgb(10%,10%,16%)" x1="396" x2="403" y1="878" y2="878" /><line stroke="rgb(10%,10%,16%)" x1="403" x2="409" y1="878" y2="884" /><line stroke="rgb(10%,10%,16%)" x1="409" x2="415" y1="884" y2="884" /><line stroke="rgb(10%,10%,16%)" x1="415" x2="422" y1="884" y2="891" /><line stroke="rgb(10%,10%,16%)" x1="422" x2="447" y1="891" y2="891" /><line stroke="rgb(10%,10%,16%)" x1="447" x2="454" y1="891" y2="897" /><line stroke="rgb(10%,10%,16%)" x1="454" x2="473" y1="897" y2="897" /><line stroke="rgb(10%,10%,16%)" x1="473" x2="479" y1="897" y2="903" /><line stroke="rgb(10%,10%,16%)" x1="479" x2="505" y1="903" y2="903" /><line stroke="rgb(10%,10%,16%)" x1="505" x2="511" y1="903" y2="910" /><line stroke="rgb(10%,10%,16%)" x1="511" x2="550" y1="910" y2="910" /><line stroke="rgb(10%,10%,16%)" x1="550" x2="556" y1="910" y2="916" /><line stroke="rgb(10%,10%,16%)" x1="556" x2="569" y1="916" y2="916" /><line stroke="rgb(10%,10%,16%)" x1="569" x2="575" y1="916" y2="910" /><line stroke="rgb(10%,10%,16%)" x1="575" x2="690" y1="910" y2="910" /><line stroke="rgb(10%,10%,16%)" x1="690" x2="697" y1="910" y2="903" /><line stroke="rgb(10%,10%,16%)" x1="697" x2="716" y1="903" y2="903" /><line stroke="rgb(10%,10%,16%)" x1="716" x2="722" y1="903" y2="897" /><line stroke="rgb(10%,10%,16%)" x1="722" x2="735" y1="897" y2="897" /><line stroke="rgb(10%,10%,16%)" x1="735" x2="742" y1="897" y2="891" /><line stroke="rgb(10%,10%,16%)" x1="742" x2="754" y1="891" y2="891" /><line stroke="rgb(10%,10%,16%)" x1="754" x2="761" y1="891" y2="884" /><line stroke="rgb(10%,10%,16%)" x1="761" x2="767" y1="884" y2="884" /><line stroke="rgb(10%,10%,16%)" x1="767" x2="774" y1="884" y2="878" /><line stroke="rgb(10%,10%,16%)" x1="774" x2="780" y1="878" y2="878" /><line stroke="rgb(10%,10%,16%)" x1="780" x2="786" y1="878" y2="872" /><line stroke="rgb(10%,10%,16%)" x1="786" x2="793" y1="872" y2="872" /><line stroke="rgb(10%,10%,16%)" x1="793" x2="806" y1="872" y2="859" /><line stroke="rgb(10%,10%,16%)" x1="806" x2="812" y1="859" y2="859" /><line stroke="rgb(10%,10%,16%)" x1="812" x2="818" y1="859" y2="852" /><line stroke="rgb(10%,10%,16%)" x1="818" x2="825" y1="852" y2="852" /><line stroke="rgb(10%,10%,16%)" x1="825" x2="844" y1="852" y2="833" /><line stroke="rgb(10%,10%,16%)" x1="844" x2="850" y1="833" y2="833" /><line stroke="rgb(10%,10%,16%)" x1="850" x2="863" y1="833" y2="821" /><line stroke="rgb(10%,10%,16%)" x1="863" x2="869" y1="821" y2="821" /><line stroke="rgb(10%,10%,16%)" x1="869" x2="869" y1="821" y2="814" /><line stroke="rgb(10%,10%,16%)" x1="869" x2="889" y1="814" y2="795" /><line stroke="rgb(10%,10%,16%)" x1="889" x2="889" y1="795" y2="789" /><line stroke="rgb(10%,10%,16%)" x1="889" x2="895" y1="789" y2="782" /><line stroke="rgb(10%,10%,16%)" x1="895" x2="895" y1="782" y2="776" /><line stroke="rgb(10%,10%,16%)" x1="895" x2="901" y1="776" y2="770" /><line stroke="rgb(10%,10%,16%)" x1="901" x2="901" y1="770" y2="763" /><line stroke="rgb(10%,10%,16%)" x1="901" x2="908" y1="763" y2="757" /><line stroke="rgb(10%,10%,16%)" x1="908" x2="908" y1="757" y2="738" /><line stroke="rgb(10%,10%,16%)" x1="908" x2="914" y1="738" y2="731" /><line stroke="rgb(10%,10%,16%)" x1="914" x2="914" y1="731" y2="700" /><line stroke="rgb(10%,10%,16%)" x1="914" x2="908" y1="700" y2="700" /><line stroke="rgb(10%,10%,16%)" x1="908" x2="901" y1="700" y2="693" /><line stroke="rgb(10%,10%,16%)" x1="901" x2="895" y1="693" y2="693" /><line stroke="rgb(10%,10%,16%)" x1="895" x2="889" y1="693" y2="700" /><line stroke="rgb(10%,10%,16%)" x1="889" x2="882" y1="700" y2="700" /><line stroke="rgb(10%,10%,16%)" x1="882" x2="869" y1="700" y2="712" /><line stroke="rgb(10%,10%,16%)" x1="869" x2="863" y1="712" y2="712" /><line stroke="rgb(10%,10%,16%)" x1="863" x2="850" y1="712" y2="725" /><line stroke="rgb(10%,10%,16%)" x1="850" x2="844" y1="725" y2="725" /><line stroke="rgb(10%,10%,16%)" x1="844" x2="844" y1="725" y2="731" /><line stroke="rgb(10%,10%,16%)" x1="844" x2="825" y1="731" y2="751" /><line stroke="rgb(10%,10%,16%)" x1="825" x2="818" y1="751" y2="751" /><line stroke="rgb(10%,10%,16%)" x1="818" x2="812" y1="751" y2="757" /><line stroke="rgb(10%,10%,16%)" x1="812" x2="806" y1="757" y2="757" /><line stroke="rgb(10%,10%,16%)" x1="806" x2="799" y1="757" y2="763" /><line stroke="rgb(10%,10%,16%)" x1="799" x2="786" y1="763" y2="763" /><line stroke="rgb(10%,10%,16%)" x1="786" x2="780" y1="763" y2="770" /><line stroke="rgb(10%,10%,16%)" x1="780" x2="774" y1="770" y2="770" /><line stroke="rgb(10%,10%,16%)" x1="774" x2="761" y1="770" y2="782" /><line stroke="rgb(10%,10%,16%)" x1="761" x2="754" y1="782" y2="782" /><line stroke="rgb(10%,10%,16%)" x1="754" x2="748" y1="782" y2="789" /><line stroke="rgb(10%,10%,16%)" x1="748" x2="742" y1="789" y2="789" /><line stroke="rgb(10%,10%,16%)" x1="742" x2="729" y1="789" y2="801" /><line stroke="rgb(10%,10%,16%)" x1="729" x2="703" y1="801" y2="801" /><line stroke="rgb(10%,10%,16%)" x1="703" x2="697" y1="801" y2="808" /><line stroke="rgb(10%,10%,16%)" x1="697" x2="665" y1="808" y2="808" /><line stroke="rgb(10%,10%,16%)" x1="665" x2="658" y1="808" y2="814" /><line stroke="rgb(10%,10%,16%)" x1="658" x2="646" y1="814" y2="814" /><line stroke="rgb(10%,10%,16%)" x1="646" x2="639" y1="814" y2="821" /><line stroke="rgb(10%,10%,16%)" x1="639" x2="620" y1="821" y2="821" /><line stroke="rgb(10%,10%,16%)" x1="620" x2="614" y1="821" y2="827" /><line stroke="rgb(10%,10%,16%)" x1="614" x2="588" y1="827" y2="827" /><line stroke="rgb(10%,10%,16%)" x1="588" x2="582" y1="827" y2="821" /><line stroke="rgb(10%,10%,16%)" x1="582" x2="575" y1="821" y2="821" /><line stroke="rgb(10%,10%,16%)" x1="575" x2="569" y1="821" y2="814" /><line stroke="rgb(10%,10%,16%)" x1="569" x2="518" y1="814" y2="814" /><line stroke="rgb(10%,10%,16%)" x1="518" x2="505" y1="814" y2="801" /><line stroke="rgb(10%,10%,16%)" x1="505" x2="498" y1="801" y2="801" /><line stroke="rgb(10%,10%,16%)" x1="498" x2="492" y1="801" y2="795" /><line stroke="rgb(10%,10%,16%)" x1="492" x2="486" y1="795" y2="795" /><line stroke="rgb(10%,10%,16%)" x1="486" x2="479" y1="795" y2="789" /><line stroke="rgb(10%,10%,16%)" x1="479" x2="479" y1="789" y2="776" /><line stroke="rgb(10%,10%,16%)" x1="479" x2="454" y1="776" y2="776" /><line stroke="rgb(10%,10%,16%)" x1="454" x2="422" y1="776" y2="744" /><line stroke="rgb(10%,10%,16%)" x1="422" x2="422" y1="744" y2="738" /><line stroke="rgb(10%,10%,16%)" x1="422" x2="415" y1="738" y2="731" /><line stroke="rgb(10%,10%,16%)" x1="415" x2="415" y1="731" y2="719" /><line stroke="rgb(10%,10%,16%)" x1="415" x2="409" y1="719" y2="712" /><line stroke="rgb(10%,10%,16%)" x1="409" x2="409" y1="712" y2="693" /><line stroke="rgb(10%,10%,16%)" x1="409" x2="403" y1="693" y2="687" /><line stroke="rgb(10%,10%,16%)" x1="403" x2="403" y1="687" y2="674" /><line stroke="rgb(10%,10%,16%)" x1="403" x2="396" y1="674" y2="668" /><line stroke="rgb(10%,10%,16%)" x1="396" x2="396" y1="668" y2="661" /><line stroke="rgb(10%,10%,16%)" x1="396" x2="390" y1="661" y2="655" /><line stroke="rgb(10%,10%,16%)" x1="390" x2="390" y1="655" y2="636" /><line stroke="rgb(10%,10%,16%)" x1="390" x2="383" y1="636" y2="630" /><line stroke="rgb(10%,10%,16%)" x1="383" x2="383" y1="630" y2="598" /><line stroke="rgb(10%,10%,16%)" x1="383" x2="377" y1="598" y2="598" /><line stroke="rgb(10%,10%,16%)" x1="377" x2="371" y1="598" y2="591" /><line stroke="rgb(10%,10%,16%)" x1="371" x2="371" y1="591" y2="566" /><line stroke="rgb(10%,10%,16%)" x1="371" x2="377" y1="566" y2="560" /><line stroke="rgb(10%,10%,16%)" x1="377" x2="403" y1="560" y2="560" /><line stroke="rgb(10%,10%,16%)" x1="403" x2="409" y1="560" y2="566" /><line stroke="rgb(10%,10%,16%)" x1="409" x2="409" y1="566" y2="572" /><line stroke="rgb(10%,10%,16%)" x1="409" x2="415" y1="572" y2="572" /><line stroke="rgb(10%,10%,16%)" x1="415" x2="428" y1="572" y2="585" /><line stroke="rgb(10%,10%,16%)" x1="428" x2="428" y1="585" y2="591" /><line stroke="rgb(10%,10%,16%)" x1="428" x2="441" y1="591" y2="604" /><line stroke="rgb(10%,10%,16%)" x1="441" x2="473" y1="604" y2="604" /><line stroke="rgb(10%,10%,16%)" x1="473" x2="479" y1="604" y2="611" /><line stroke="rgb(10%,10%,16%)" x1="479" x2="505" y1="611" y2="611" /><line stroke="rgb(10%,10%,16%)" x1="505" x2="511" y1="611" y2="604" /><line stroke="rgb(10%,10%,16%)" x1="511" x2="537" y1="604" y2="604" /><line stroke="rgb(10%,10%,16%)" x1="537" x2="543" y1="604" y2="611" /><line stroke="rgb(10%,10%,16%)" x1="543" x2="550" y1="611" y2="611" /><line stroke="rgb(10%,10%,16%)" x1="550" x2="556" y1="611" y2="617" /><line stroke="rgb(10%,10%,16%)" x1="556" x2="562" y1="617" y2="617" /><line stroke="rgb(10%,10%,16%)" x1="562" x2="569" y1="617" y2="623" /><line stroke="rgb(10%,10%,16%)" x1="569" x2="620" y1="623" y2="623" /><line stroke="rgb(10%,10%,16%)" x1="620" x2="646" y1="623" y2="598" /><line stroke="rgb(10%,10%,16%)" x1="646" x2="652" y1="598" y2="598" /><line stroke="rgb(10%,10%,16%)" x1="652" x2="665" y1="598" y2="585" /><line stroke="rgb(10%,10%,16%)" x1="665" x2="678" y1="585" y2="585" /><line stroke="rgb(10%,10%,16%)" x1="678" x2="678" y1="585" y2="579" /><line stroke="rgb(10%,10%,16%)" x1="678" x2="671" y1="579" y2="572" /><line stroke="rgb(10%,10%,16%)" x1="671" x2="671" y1="572" y2="547" /><line stroke="rgb(10%,10%,16%)" x1="671" x2="690" y1="547" y2="528" /><line stroke="rgb(10%,10%,16%)" x1="690" x2="697" y1="528" y2="528" /><line stroke="rgb(10%,10%,16%)" x1="697" x2="697" y1="528" y2="496" /><line stroke="rgb(10%,10%,16%)" x1="697" x2="703" y1="496" y2="490" /><line stroke="rgb(10%,10%,16%)" x1="703" x2="703" y1="490" y2="483" /><line stroke="rgb(10%,10%,16%)" x1="703" x2="710" y1="483" y2="477" /><line stroke="rgb(10%,10%,16%)" x1="710" x2="710" y1="477" y2="471" /><line stroke="rgb(10%,10%,16%)" x1="710" x2="716" y1="471" y2="464" /><line stroke="rgb(10%,10%,16%)" x1="716" x2="716" y1="464" y2="400" /><line stroke="rgb(10%,10%,16%)" x1="716" x2="703" y1="400" y2="388" /><line stroke="rgb(10%,10%,16%)" x1="703" x2="703" y1="388" y2="375" /><line stroke="rgb(10%,10%,16%)" x1="703" x2="690" y1="375" y2="362" /><line stroke="rgb(10%,10%,16%)" x1="690" x2="690" y1="362" y2="337" /><line stroke="rgb(10%,10%,16%)" x1="690" x2="697" y1="337" y2="330" /><line stroke="rgb(10%,10%,16%)" x1="697" x2="729" y1="330" y2="330" /><line stroke="rgb(10%,10%,16%)" x1="729" x2="735" y1="330" y2="337" /><line stroke="rgb(10%,10%,16%)" x1="735" x2="742" y1="337" y2="337" /><line stroke="rgb(10%,10%,16%)" x1="742" x2="761" y1="337" y2="356" /><line stroke="rgb(10%,10%,16%)" x1="761" x2="761" y1="356" y2="362" /><line stroke="rgb(10%,10%,16%)" x1="761" x2="767" y1="362" y2="369" /><line stroke="rgb(10%,10%,16%)" x1="767" x2="786" y1="369" y2="369" /><line stroke="rgb(10%,10%,16%)" x1="786" x2="793" y1="369" y2="362" /><line stroke="rgb(10%,10%,16%)" x1="793" x2="799" y1="362" y2="362" /><line stroke="rgb(10%,10%,16%)" x1="799" x2="806" y1="362" y2="356" /><line stroke="rgb(10%,10%,16%)" x1="806" x2="812" y1="356" y2="356" /><line stroke="rgb(10%,10%,16%)" x1="812" x2="818" y1="356" y2="350" /><line stroke="rgb(10%,10%,16%)" x1="818" x2="921" y1="350" y2="350" /><line stroke="rgb(10%,10%,16%)" x1="921" x2="927" y1="350" y2="356" /><line stroke="rgb(10%,10%,16%)" x1="927" x2="953" y1="356" y2="356" /><line stroke="rgb(10%,10%,16%)" x1="953" x2="959" y1="356" y2="350" /><line stroke="rgb(10%,10%,16%)" x1="959" x2="997" y1="350" y2="350" /><line stroke="rgb(10%,10%,16%)" x1="997" x2="1017" y1="350" y2="369" /><line stroke="rgb(10%,10%,16%)" x1="1017" x2="1017" y1="369" y2="381" /><line stroke="rgb(10%,10%,16%)" x1="1017" x2="1023" y1="381" y2="388" /><line stroke="rgb(10%,10%,16%)" x1="1023" x2="1023" y1="388" y2="394" /><line stroke="rgb(10%,10%,16%)" x1="1023" x2="1029" y1="394" y2="400" /><line stroke="rgb(10%,10%,16%)" x1="1029" x2="1055" y1="400" y2="400" /><line stroke="rgb(10%,10%,16%)" x1="1055" x2="1061" y1="400" y2="407" /><line stroke="rgb(10%,10%,16%)" x1="1061" x2="1061" y1="407" y2="413" /><line stroke="rgb(10%,10%,16%)" x1="1061" x2="1074" y1="413" y2="426" /><line stroke="rgb(10%,10%,16%)" x1="1074" x2="1074" y1="426" y2="464" /><line stroke="rgb(10%,10%,16%)" x1="1074" x2="1081" y1="464" y2="471" /><line stroke="rgb(10%,10%,16%)" x1="1081" x2="1081" y1="471" y2="534" /><line stroke="rgb(10%,10%,16%)" x1="1081" x2="1055" y1="534" y2="560" /><line stroke="rgb(10%,10%,16%)" x1="1055" x2="1055" y1="560" y2="566" /><line stroke="rgb(10%,10%,16%)" x1="1055" x2="1017" y1="566" y2="604" /><line stroke="rgb(10%,10%,16%)" x1="1017" x2="1010" y1="604" y2="604" /><line stroke="rgb(10%,10%,16%)" x1="1010" x2="991" y1="604" y2="623" /><line stroke="rgb(10%,10%,16%)" x1="991" x2="991" y1="623" y2="630" /><line stroke="rgb(10%,10%,16%)" x1="991" x2="985" y1="630" y2="636" /><line stroke="rgb(10%,10%,16%)" x1="985" x2="985" y1="636" y2="655" /><line stroke="rgb(10%,10%,16%)" x1="985" x2="978" y1="655" y2="661" /><line stroke="rgb(10%,10%,16%)" x1="978" x2="978" y1="661" y2="738" /><line stroke="rgb(10%,10%,16%)" x1="978" x2="972" y1="738" y2="744" /><line stroke="rgb(10%,10%,16%)" x1="972" x2="972" y1="744" y2="776" /><line stroke="rgb(10%,10%,16%)" x1="972" x2="965" y1="776" y2="782" /><line stroke="rgb(10%,10%,16%)" x1="965" x2="965" y1="782" y2="795" /><line stroke="rgb(10%,10%,16%)" x1="965" x2="953" y1="795" y2="808" /><line stroke="rgb(10%,10%,16%)" x1="953" x2="953" y1="808" y2="814" /><line stroke="rgb(10%,10%,16%)" x1="953" x2="933" y1="814" y2="833" /><line stroke="rgb(10%,10%,16%)" x1="933" x2="933" y1="833" y2="840" /><line stroke="rgb(10%,10%,16%)" x1="933" x2="921" y1="840" y2="852" /><line stroke="rgb(10%,10%,16%)" x1="921" x2="921" y1="852" y2="859" /><line stroke="rgb(10%,10%,16%)" x1="921" x2="850" y1="859" y2="929" /><line stroke="rgb(10%,10%,16%)" x1="850" x2="844" y1="929" y2="929" /><line stroke="rgb(10%,10%,16%)" x1="844" x2="831" y1="929" y2="942" /><line stroke="rgb(10%,10%,16%)" x1="831" x2="818" y1="942" y2="942" /><line stroke="rgb(10%,10%,16%)" x1="818" x2="812" y1="942" y2="948" /><line stroke="rgb(10%,10%,16%)" x1="812" x2="799" y1="948" y2="948" /><line stroke="rgb(10%,10%,16%)" x1="799" x2="793" y1="948" y2="954" /><line stroke="rgb(10%,10%,16%)" x1="793" x2="774" y1="954" y2="954" /><line stroke="rgb(10%,10%,16%)" x1="774" x2="767" y1="954" y2="961" /><line stroke="rgb(10%,10%,16%)" x1="767" x2="742" y1="961" y2="961" /><line stroke="rgb(10%,10%,16%)" x1="742" x2="735" y1="961" y2="967" /><line stroke="rgb(10%,10%,16%)" x1="735" x2="716" y1="967" y2="967" /><line stroke="rgb(10%,10%,16%)" x1="716" x2="710" y1="967" y2="973" /><line stroke="rgb(10%,10%,16%)" x1="710" x2="671" y1="973" y2="973" /><line stroke="rgb(10%,10%,16%)" x1="671" x2="665" y1="973" y2="980" /><line stroke="rgb(10%,10%,16%)" x1="665" x2="498" y1="980" y2="980" /><line stroke="rgb(10%,10%,16%)" x1="498" x2="492" y1="980" y2="973" /><line stroke="rgb(10%,10%,16%)" x1="492" x2="460" y1="973" y2="973" /><line stroke="rgb(10%,10%,16%)" x1="460" x2="454" y1="973" y2="967" /><line stroke="rgb(10%,10%,16%)" x1="454" x2="434" y1="967" y2="967" /><line stroke="rgb(10%,10%,16%)" x1="434" x2="428" y1="967" y2="961" /><line stroke="rgb(10%,10%,16%)" x1="428" x2="415" y1="961" y2="961" /><line stroke="rgb(10%,10%,16%)" x1="415" x2="409" y1="961" y2="954" /><line stroke="rgb(10%,10%,16%)" x1="409" x2="396" y1="954" y2="954" /><line stroke="rgb(10%,10%,16%)" x1="396" x2="390" y1="954" y2="948" /><line stroke="rgb(10%,10%,16%)" x1="390" x2="377" y1="948" y2="948" /><line stroke="rgb(10%,10%,16%)" x1="377" x2="371" y1="948" y2="942" /><line stroke="rgb(10%,10%,16%)" x1="371" x2="364" y1="942" y2="942" /><line stroke="rgb(10%,10%,16%)" x1="364" x2="358" y1="942" y2="935" /><line stroke="rgb(10%,10%,16%)" x1="358" x2="351" y1="935" y2="935" /><line stroke="rgb(10%,10%,16%)" x1="351" x2="332" y1="935" y2="916" /><line stroke="rgb(10%,10%,16%)" x1="332" x2="326" y1="916" y2="916" /><line stroke="rgb(10%,10%,16%)" x1="326" x2="255" y1="916" y2="846" /><line stroke="rgb(10%,10%,16%)" x1="255" x2="255" y1="846" y2="833" /><line stroke="rgb(10%,10%,16%)" x1="255" x2="236" y1="833" y2="814" /><line stroke="rgb(10%,10%,16%)" x1="236" x2="236" y1="814" y2="782" /><line stroke="rgb(10%,10%,16%)" x1="236" x2="223" y1="782" y2="782" /><line stroke="rgb(10%,10%,16%)" x1="223" x2="223" y1="782" y2="814" /><line stroke="rgb(10%,10%,16%)" x1="223" x2="217" y1="814" y2="821" /><line stroke="rgb(10%,10%,16%)" x1="217" x2="217" y1="821" y2="827" /><line stroke="rgb(10%,10%,16%)" x1="217" x2="223" y1="827" y2="833" /><line stroke="rgb(10%,10%,16%)" x1="223" x2="223" y1="833" y2="840" /><line stroke="rgb(10%,10%,16%)" x1="223" x2="230" y1="840" y2="846" /><line stroke="rgb(10%,10%,16%)" x1="230" x2="230" y1="846" y2="859" /><line stroke="rgb(10%,10%,16%)" x1="230" x2="236" y1="859" y2="865" /><line stroke="rgb(10%,10%,16%)" x1="236" x2="236" y1="865" y2="878" /><line stroke="rgb(10%,10%,16%)" x1="236" x2="243" y1="878" y2="884" /><line stroke="rgb(10%,10%,16%)" x1="243" x2="243" y1="884" y2="891" /><line stroke="rgb(10%,10%,16%)" x1="243" x2="249" y1="891" y2="897" /><line stroke="rgb(10%,10%,16%)" x1="249" x2="255" y1="897" y2="897" /><line stroke="rgb(10%,10%,16%)" x1="255" x2="262" y1="897" y2="903" /><line stroke="rgb(10%,10%,16%)" x1="262" x2="262" y1="903" y2="929" /><line stroke="rgb(10%,10%,16%)" x1="262" x2="268" y1="929" y2="935" /><line stroke="rgb(10%,10%,16%)" x1="268" x2="268" y1="935" y2="942" /><line stroke="rgb(10%,10%,16%)" x1="268" x2="275" y1="942" y2="942" /><line stroke="rgb(10%,10%,16%)" x1="275" x2="287" y1="942" y2="954" /><line stroke="rgb(10%,10%,16%)" x1="287" x2="287" y1="954" y2="961" /><line stroke="rgb(10%,10%,16%)" x1="287" x2="313" y1="961" y2="986" /><line stroke="rgb(10%,10%,16%)" x1="313" x2="313" y1="986" y2="992" /><line stroke="rgb(10%,10%,16%)" x1="313" x2="326" y1="992" y2="1005" /><line stroke="rgb(10%,10%,16%)" x1="326" x2="351" y1="1005" y2="1005" /><line stroke="rgb(10%,10%,16%)" x1="351" x2="358" y1="1005" y2="1012" /><line stroke="rgb(10%,10%,16%)" x1="358" x2="364" y1="1012" y2="1012" /><line stroke="rgb(10%,10%,16%)" x1="364" x2="377" y1="1012" y2="1024" /><line stroke="rgb(10%,10%,16%)" x1="377" x2="383" y1="1024" y2="1024" /><line stroke="rgb(10%,10%,16%)" x1="383" x2="396" y1="1024" y2="1037" /><line stroke="rgb(10%,10%,16%)" x1="396" x2="409" y1="1037" y2="1037" /><line stroke="rgb(10%,10%,16%)" x1="409" x2="428" y1="1037" y2="1056" /><line stroke="rgb(10%,10%,16%)" x1="428" x2="454" y1="1056" y2="1056" /><line stroke="rgb(10%,10%,16%)" x1="454" x2="473" y1="1056" y2="1075" /><line stroke="rgb(10%,10%,16%)" x1="473" x2="486" y1="1075" y2="1075" /><line stroke="rgb(10%,10%,16%)" x1="486" x2="492" y1="1075" y2="1082" /><line stroke="rgb(10%,10%,16%)" x1="492" x2="524" y1="1082" y2="1082" /><line stroke="rgb(10%,10%,16%)" x1="524" x2="537" y1="1082" y2="1094" /><line stroke="rgb(10%,10%,16%)" x1="537" x2="556" y1="1094" y2="1094" /><line stroke="rgb(10%,10%,16%)" x1="556" x2="562" y1="1094" y2="1101" /><line stroke="rgb(10%,10%,16%)" x1="562" x2="607" y1="1101" y2="1101" /><line stroke="rgb(10%,10%,16%)" x1="607" x2="614" y1="1101" y2="1107" /><line stroke="rgb(10%,10%,16%)" x1="614" x2="697" y1="1107" y2="1107" /><line stroke="rgb(10%,10%,16%)" x1="697" x2="703" y1="1107" y2="1113" /><line stroke="rgb(10%,10%,16%)" x1="703" x2="703" y1="1113" y2="1139" /><line stroke="rgb(10%,10%,16%)" x1="703" x2="697" y1="1139" y2="1145" /><line stroke="rgb(10%,10%,16%)" x1="697" x2="620" y1="1145" y2="1145" /><line stroke="rgb(10%,10%,16%)" x1="620" x2="614" y1="1145" y2="1152" /><line stroke="rgb(10%,10%,16%)" x1="614" x2="537" y1="1152" y2="1152" /><line stroke="rgb(10%,10%,16%)" x1="537" x2="530" y1="1152" y2="1145" /><line stroke="rgb(10%,10%,16%)" x1="530" x2="492" y1="1145" y2="1145" /><line stroke="rgb(10%,10%,16%)" x1="492" x2="486" y1="1145" y2="1152" /><line stroke="rgb(10%,10%,16%)" x1="486" x2="460" y1="1152" y2="1152" /><line stroke="rgb(10%,10%,16%)" x1="460" x2="454" y1="1152" y2="1158" /><line stroke="rgb(10%,10%,16%)" x1="454" x2="422" y1="1158" y2="1158" /><line stroke="rgb(10%,10%,16%)" x1="422" x2="415" y1="1158" y2="1152" /><line stroke="rgb(10%,10%,16%)" x1="415" x2="409" y1="1152" y2="1158" /><line stroke="rgb(10%,10%,16%)" x1="409" x2="339" y1="1158" y2="1158" /><line stroke="rgb(10%,10%,16%)" x1="339" x2="326" y1="1158" y2="1171" /><line stroke="rgb(10%,10%,16%)" x1="326" x2="326" y1="1171" y2="1177" /><line stroke="rgb(10%,10%,16%)" x1="326" x2="319" y1="1177" y2="1183" /><line stroke="rgb(10%,10%,16%)" x1="319" x2="255" y1="1183" y2="1183" /><line stroke="rgb(10%,10%,16%)" x1="255" x2="249" y1="1183" y2="1190" /><line stroke="rgb(10%,10%,16%)" x1="249" x2="159" y1="1190" y2="1190" /><line stroke="rgb(10%,10%,16%)" x1="159" x2="153" y1="1190" y2="1183" /><line stroke="rgb(10%,10%,16%)" x1="153" x2="147" y1="1183" y2="1183" /><line stroke="rgb(10%,10%,16%)" x1="147" x2="140" y1="1183" y2="1177" /><line stroke="rgb(10%,10%,16%)" x1="140" x2="127" y1="1177" y2="1177" /><line stroke="rgb(10%,10%,16%)" x1="127" x2="89" y1="1177" y2="1139" /><line stroke="rgb(10%,10%,16%)" x1="89" x2="89" y1="1139" y2="1101" /><line stroke="rgb(10%,10%,16%)" x1="89" x2="95" y1="1101" y2="1094" /><line stroke="rgb(10%,10%,16%)" x1="95" x2="95" y1="1094" y2="1062" /><line stroke="rgb(10%,10%,16%)" x1="95" x2="102" y1="1062" y2="1056" /><line stroke="rgb(10%,10%,16%)" x1="102" x2="140" y1="1056" y2="1056" /><line stroke="rgb(10%,10%,16%)" x1="140" x2="140" y1="1056" y2="1037" /><line stroke="rgb(10%,10%,16%)" x1="140" x2="147" y1="1037" y2="1031" /><line stroke="rgb(10%,10%,16%)" x1="147" x2="147" y1="1031" y2="973" /><line stroke="rgb(10%,10%,16%)" x1="147" x2="153" y1="973" y2="967" /><line stroke="rgb(10%,10%,16%)" x1="153" x2="153" y1="967" y2="948" /><line stroke="rgb(10%,10%,16%)" x1="153" x2="159" y1="948" y2="942" /><line stroke="rgb(10%,10%,16%)" x1="159" x2="159" y1="942" y2="770" /><line stroke="rgb(10%,10%,16%)" x1="159" x2="153" y1="770" y2="763" /><line stroke="rgb(10%,10%,16%)" x1="153" x2="153" y1="763" y2="681" /><line stroke="rgb(10%,10%,16%)" x1="153" x2="147" y1="681" y2="674" /><line stroke="rgb(10%,10%,16%)" x1="147" x2="147" y1="674" y2="566" /><line stroke="rgb(10%,10%,16%)" x1="147" x2="153" y1="566" y2="560" /><line stroke="rgb(10%,10%,16%)" x1="153" x2="153" y1="560" y2="528" /><line stroke="rgb(10%,10%,16%)" x1="153" x2="147" y1="528" y2="521" /><line stroke="rgb(10%,10%,16%)" x1="147" x2="147" y1="521" y2="490" /><line stroke="rgb(10%,10%,16%)" x1="147" x2="127" y1="490" y2="471" /><line stroke="rgb(10%,10%,16%)" x1="127" x2="108" y1="471" y2="471" /><line stroke="rgb(10%,10%,16%)" x1="108" x2="102" y1="471" y2="464" /><line stroke="rgb(10%,10%,16%)" x1="102" x2="102" y1="464" y2="451" /><line stroke="rgb(10%,10%,16%)" x1="102" x2="95" y1="451" y2="451" /><line stroke="rgb(10%,10%,16%)" x1="95" x2="89" y1="451" y2="445" /><line stroke="rgb(10%,10%,16%)" x1="89" x2="89" y1="445" y2="388" /><line stroke="rgb(10%,10%,16%)" x1="89" x2="95" y1="388" y2="381" /><line stroke="rgb(10%,10%,16%)" x1="95" x2="134" y1="381" y2="381" /><line stroke="rgb(10%,10%,16%)" x1="134" x2="134" y1="381" y2="356" /><line stroke="rgb(10%,10%,16%)" x1="134" x2="140" y1="356" y2="350" /><line stroke="rgb(10%,10%,16%)" x1="140" x2="147" y1="350" y2="350" /><line stroke="rgb(10%,10%,16%)" x1="147" x2="147" y1="350" y2="330" /><line stroke="rgb(10%,10%,16%)" x1="147" x2="147" y1="330" y2="337" /><line stroke="rgb(10%,10%,16%)" x1="147" x2="140" y1="337" y2="343" /><line stroke="rgb(10%,10%,16%)" x1="140" x2="134" y1="343" y2="343" /><line stroke="rgb(10%,10%,16%)" x1="134" x2="134" y1="343" y2="362" /><line stroke="rgb(10%,10%,16%)" x1="134" x2="127" y1="362" y2="369" /><line stroke="rgb(10%,10%,16%)" x1="127" x2="95" y1="369" y2="369" /><line stroke="rgb(10%,10%,16%)" x1="95" x2="89" y1="369" y2="362" /><line stroke="rgb(10%,10%,16%)" x1="89" x2="89" y1="362" y2="330" /><line stroke="rgb(10%,10%,16%)" x1="89" x2="83" y1="330" y2="324" /><line stroke="rgb(10%,10%,16%)" x1="83" x2="83" y1="324" y2="280" /><line stroke="rgb(10%,10%,16%)" x1="83" x2="76" y1="280" y2="273" /><line stroke="rgb(10%,10%,16%)" x1="76" x2="76" y1="273" y2="267" /><line stroke="rgb(10%,10%,16%)" x1="76" x2="70" y1="267" y2="260" /><line stroke="rgb(10%,10%,16%)" x1="70" x2="70" y1="260" y2="229" /><line stroke="rgb(10%,10%,16%)" x1="70" x2="76" y1="229" y2="222" /><line stroke="rgb(10%,10%,16%)" x1="76" x2="76" y1="222" y2="210" /><line stroke="rgb(10%,10%,16%)" x1="76" x2="70" y1="210" y2="203" /><line stroke="rgb(10%,10%,16%)" x1="70" x2="70" y1="203" y2="197" /><line stroke="rgb(10%,10%,16%)" x1="70" x2="63" y1="197" y2="197" /><line stroke="rgb(10%,10%,16%)" x1="63" x2="57" y1="197" y2="190" /><line stroke="rgb(10%,10%,16%)" x1="57" x2="57" y1="190" y2="159" /><line stroke="rgb(10%,10%,16%)" x1="57" x2="51" y1="159" y2="152" /><line stroke="rgb(10%,10%,16%)" x1="51" x2="51" y1="152" y2="146" /><line stroke="rgb(10%,10%,16%)" x1="51" x2="38" y1="146" y2="133" /><line stroke="rgb(10%,10%,16%)" x1="38" x2="38" y1="133" y2="101" /><line stroke="rgb(10%,10%,16%)" x1="38" x2="44" y1="101" y2="95" /><line stroke="rgb(10%,10%,16%)" x1="44" x2="44" y1="95" y2="89" /><line stroke="rgb(10%,10%,16%)" x1="44" x2="51" y1="89" y2="82" /><line stroke="rgb(10%,10%,16%)" x1="51" x2="51" y1="82" y2="70" /><line stroke="rgb(10%,10%,16%)" x1="51" x2="63" y1="70" y2="57" /><line stroke="rgb(10%,10%,16%)" x1="63" x2="70" y1="57" y2="57" /><line stroke="rgb(10%,10%,16%)" x1="70" x2="76" y1="57" y2="50" /><line stroke="rgb(10%,10%,16%)" x1="76" x2="89" y1="50" y2="50" /><line stroke="rgb(10%,10%,16%)" x1="89" x2="95" y1="50" y2="44" /><line stroke="rgb(10%,10%,16%)" x1="95" x2="102" y1="44" y2="44" /><line stroke="rgb(10%,10%,16%)" x1="102" x2="121" y1="44" y2="25" /><line stroke="rgb(10%,10%,16%)" x1="121" x2="127" y1="25" y2="25" /><line stroke="rgb(10%,10%,16%)" x1="127" x2="1004" y1="25" y2="229" /><line stroke="rgb(10%,10%,16%)" x1="1004" x2="626" y1="229" y2="108" /><line stroke="rgb(10%,10%,16%)" x1="626" x2="403" y1="108" y2="190" /><line stroke="rgb(10%,10%,16%)" x1="403" x2="294" y1="190" y2="369" /><line stroke="rgb(10%,10%,16%)" x1="294" x2="236" y1="369" y2="560" /><line stroke="rgb(10%,10%,16%)" x1="236" x2="351" y1="560" y2="852" /><line stroke="rgb(10%,10%,16%)" x1="351" x2="697" y1="852" y2="903" /><line stroke="rgb(10%,10%,16%)" x1="697" x2="895" y1="903" y2="776" /><line stroke="rgb(10%,10%,16%)" x1="895" x2="518" y1="776" y2="814" /><line stroke="rgb(10%,10%,16%)" x1="518" x2="390" y1="814" y2="655" /><line stroke="rgb(10%,10%,16%)" x1="390" x2="646" y1="655" y2="598" /><line stroke="rgb(10%,10%,16%)" x1="646" x2="690" y1="598" y2="337" /><line stroke="rgb(10%,10%,16%)" x1="690" x2="1055" y1="337" y2="566" /><line stroke="rgb(10%,10%,16%)" x1="1055" x2="953" y1="566" y2="808" /><line stroke="rgb(10%,10%,16%)" x1="953" x2="710" y1="808" y2="973" /><line stroke="rgb(10%,10%,16%)" x1="710" x2="223" y1="973" y2="833" /><line stroke="rgb(10%,10%,16%)" x1="223" x2="364" y1="833" y2="1012" /><line stroke="rgb(10%,10%,16%)" x1="364" x2="703" y1="1012" y2="1113" /><line stroke="rgb(10%,10%,16%)" x1="703" x2="255" y1="1113" y2="1183" /><line stroke="rgb(10%,10%,16%)" x1="255" x2="70" y1="1183" y2="203" /><line stroke="rgb(10%,10%,16%)" x1="70" x2="121" y1="203" y2="25" /></g></svg>