<?xml version="1.0" encoding="utf-8" ?>
<svg baseProfile="full" height="432" version="1.1" width="768" xmlns="http://www.w3.org/2000/svg" xmlns:ev="http://www.w3.org/2001/xml-events" xmlns:xlink="http://www.w3.org/1999/xlink"><defs /><g fill="none" id="shapes"><line stroke="rgb(10%,10%,16%)" x1="765" x2="765" y1="308" y2="313" /><line stroke="rgb(10%,10%,16%)" x1="765" x2="763" y1="313" y2="315" /><line stroke="rgb(10%,10%,16%)" x1="763" x2="763" y1="315" y2="319" /><line stroke="rgb(10%,10%,16%)" x1="763" x2="761" y1="319" y2="321" /><line stroke="rgb(10%,10%,16%)" x1="761" x2="761" y1="321" y2="324" /><line stroke="rgb(10%,10%,16%)" x1="761" x2="759" y1="324" y2="326" /><line stroke="rgb(10%,10%,16%)" x1="759" x2="759" y1="326" y2="330" /><line stroke="rgb(10%,10%,16%)" x1="759" x2="757" y1="330" y2="332" /><line stroke="rgb(10%,10%,16%)" x1="757" x2="757" y1="332" y2="334" /><line stroke="rgb(10%,10%,16%)" x1="757" x2="755" y1="334" y2="336" /><line stroke="rgb(10%,10%,16%)" x1="755" x2="755" y1="336" y2="339" /><line stroke="rgb(10%,10%,16%)" x1="755" x2="752" y1="339" y2="341" /><line stroke="rgb(10%,10%,16%)" x1="752" x2="752" y1="341" y2="343" /><line stroke="rgb(10%,10%,16%)" x1="752" x2="750" y1="343" y2="345" /><line stroke="rgb(10%,10%,16%)" x1="750" x2="750" y1="345" y2="347" /><line stroke="rgb(10%,10%,16%)" x1="750" x2="748" y1="347" y2="349" /><line stroke="rgb(10%,10%,16%)" x1="748" x2="748" y1="349" y2="352" /><line stroke="rgb(10%,10%,16%)" x1="748" x2="746" y1="352" y2="354" /><line stroke="rgb(10%,10%,16%)" x1="746" x2="746" y1="354" y2="356" /><line stroke="rgb(10%,10%,16%)" x1="746" x2="744" y1="356" y2="358" /><line stroke="rgb(10%,10%,16%)" x1="744" x2="744" y1="358" y2="360" /><line stroke="rgb(10%,10%,16%)" x1="744" x2="742" y1="360" y2="362" /><line stroke="rgb(10%,10%,16%)" x1="742" x2="742" y1="362" y2="365" /><line stroke="rgb(10%,10%,16%)" x1="742" x2="737" y1="365" y2="369" /><line stroke="rgb(10%,10%,16%)" x1="737" x2="737" y1="369" y2="371" /><line stroke="rgb(10%,10%,16%)" x1="737" x2="735" y1="371" y2="373" /><line stroke="rgb(10%,10%,16%)" x1="735" x2="735" y1="373" y2="375" /><line stroke="rgb(10%,10%,16%)" x1="735" x2="731" y1="375" y2="380" /><line stroke="rgb(10%,10%,16%)" x1="731" x2="731" y1="380" y2="382" /><line stroke="rgb(10%,10%,16%)" x1="731" x2="726" y1="382" y2="386" /><line stroke="rgb(10%,10%,16%)" x1="726" x2="726" y1="386" y2="388" /><line stroke="rgb(10%,10%,16%)" x1="726" x2="720" y1="388" y2="395" /><line stroke="rgb(10%,10%,16%)" x1="720" x2="720" y1="395" y2="397" /><line stroke="rgb(10%,10%,16%)" x1="720" x2="711" y1="397" y2="406" /><line stroke="rgb(10%,10%,16%)" x1="711" x2="711" y1="406" y2="408" /><line stroke="rgb(10%,10%,16%)" x1="711" x2="698" y1="408" y2="421" /><line stroke="rgb(10%,10%,16%)" x1="698" x2="698" y1="421" y2="423" /><line stroke="rgb(10%,10%,16%)" x1="698" x2="692" y1="423" y2="429" /><line stroke="rgb(10%,10%,16%)" x1="692" x2="765" y1="429" y2="429" /><line stroke="rgb(10%,10%,16%)" x1="765" x2="147" y1="429" y2="10" /><line stroke="rgb(10%,10%,16%)" x1="147" x2="144" y1="10" y2="12" /><line stroke="rgb(10%,10%,16%)" x1="144" x2="142" y1="12" y2="12" /><line stroke="rgb(10%,10%,16%)" x1="142" x2="138" y1="12" y2="17" /><line stroke="rgb(10%,10%,16%)" x1="138" x2="138" y1="17" y2="19" /><line stroke="rgb(10%,10%,16%)" x1="138" x2="136" y1="19" y2="21" /><line stroke="rgb(10%,10%,16%)" x1="136" x2="136" y1="21" y2="43" /><line stroke="rgb(10%,10%,16%)" x1="136" x2="138" y1="43" y2="45" /><line stroke="rgb(10%,10%,16%)" x1="138" x2="138" y1="45" y2="213" /><line stroke="rgb(10%,10%,16%)" x1="138" x2="136" y1="213" y2="216" /><line stroke="rgb(10%,10%,16%)" x1="136" x2="136" y1="216" y2="293" /><line stroke="rgb(10%,10%,16%)" x1="136" x2="138" y1="293" y2="295" /><line stroke="rgb(10%,10%,16%)" x1="138" x2="138" y1="295" y2="298" /><line stroke="rgb(10%,10%,16%)" x1="138" x2="140" y1="298" y2="300" /><line stroke="rgb(10%,10%,16%)" x1="140" x2="214" y1="300" y2="300" /><line stroke="rgb(10%,10%,16%)" x1="214" x2="216" y1="300" y2="298" /><line stroke="rgb(10%,10%,16%)" x1="216" x2="281" y1="298" y2="298" /><line stroke="rgb(10%,10%,16%)" x1="281" x2="283" y1="298" y2="295" /><line stroke="rgb(10%,10%,16%)" x1="283" x2="315" y1="295" y2="295" /><line stroke="rgb(10%,10%,16%)" x1="315" x2="318" y1="295" y2="298" /><line stroke="rgb(10%,10%,16%)" x1="318" x2="356" y1="298" y2="298" /><line stroke="rgb(10%,10%,16%)" x1="356" x2="359" y1="298" y2="300" /><line stroke="rgb(10%,10%,16%)" x1="359" x2="365" y1="300" y2="300" /><line stroke="rgb(10%,10%,16%)" x1="365" x2="369" y1="300" y2="304" /><line stroke="rgb(10%,10%,16%)" x1="369" x2="369" y1="304" y2="313" /><line stroke="rgb(10%,10%,16%)" x1="369" x2="367" y1="313" y2="315" /><line stroke="rgb(10%,10%,16%)" x1="367" x2="367" y1="315" y2="317" /><line stroke="rgb(10%,10%,16%)" x1="367" x2="365" y1="317" y2="319" /><line stroke="rgb(10%,10%,16%)" x1="365" x2="244" y1="319" y2="319" /><line stroke="rgb(10%,10%,16%)" x1="244" x2="240" y1="319" y2="324" /><line stroke="rgb(10%,10%,16%)" x1="240" x2="242" y1="324" y2="326" /><line stroke="rgb(10%,10%,16%)" x1="242" x2="421" y1="326" y2="326" /><line stroke="rgb(10%,10%,16%)" x1="421" x2="424" y1="326" y2="328" /><line stroke="rgb(10%,10%,16%)" x1="424" x2="424" y1="328" y2="349" /><line stroke="rgb(10%,10%,16%)" x1="424" x2="421" y1="349" y2="352" /><line stroke="rgb(10%,10%,16%)" x1="421" x2="413" y1="352" y2="352" /><line stroke="rgb(10%,10%,16%)" x1="413" x2="411" y1="352" y2="349" /><line stroke="rgb(10%,10%,16%)" x1="411" x2="408" y1="349" y2="349" /><line stroke="rgb(10%,10%,16%)" x1="408" x2="406" y1="349" y2="347" /><line stroke="rgb(10%,10%,16%)" x1="406" x2="398" y1="347" y2="347" /><line stroke="rgb(10%,10%,16%)" x1="398" x2="395" y1="347" y2="345" /><line stroke="rgb(10%,10%,16%)" x1="395" x2="350" y1="345" y2="345" /><line stroke="rgb(10%,10%,16%)" x1="350" x2="348" y1="345" y2="347" /><line stroke="rgb(10%,10%,16%)" x1="348" x2="341" y1="347" y2="347" /><line stroke="rgb(10%,10%,16%)" x1="341" x2="339" y1="347" y2="349" /><line stroke="rgb(10%,10%,16%)" x1="339" x2="337" y1="349" y2="349" /><line stroke="rgb(10%,10%,16%)" x1="337" x2="333" y1="349" y2="354" /><line stroke="rgb(10%,10%,16%)" x1="333" x2="333" y1="354" y2="356" /><line stroke="rgb(10%,10%,16%)" x1="333" x2="330" y1="356" y2="358" /><line stroke="rgb(10%,10%,16%)" x1="330" x2="330" y1="358" y2="360" /><line stroke="rgb(10%,10%,16%)" x1="330" x2="328" y1="360" y2="362" /><line stroke="rgb(10%,10%,16%)" x1="328" x2="328" y1="362" y2="386" /><line stroke="rgb(10%,10%,16%)" x1="328" x2="330" y1="386" y2="388" /><line stroke="rgb(10%,10%,16%)" x1="330" x2="330" y1="388" y2="390" /><line stroke="rgb(10%,10%,16%)" x1="330" x2="333" y1="390" y2="393" /><line stroke="rgb(10%,10%,16%)" x1="333" x2="335" y1="393" y2="393" /><line stroke="rgb(10%,10%,16%)" x1="335" x2="337" y1="393" y2="395" /><line stroke="rgb(10%,10%,16%)" x1="337" x2="413" y1="395" y2="395" /><line stroke="rgb(10%,10%,16%)" x1="413" x2="415" y1="395" y2="393" /><line stroke="rgb(10%,10%,16%)" x1="415" x2="428" y1="393" y2="393" /><line stroke="rgb(10%,10%,16%)" x1="428" x2="430" y1="393" y2="395" /><line stroke="rgb(10%,10%,16%)" x1="430" x2="456" y1="395" y2="395" /><line stroke="rgb(10%,10%,16%)" x1="456" x2="458" y1="395" y2="393" /><line stroke="rgb(10%,10%,16%)" x1="458" x2="458" y1="393" y2="349" /><line stroke="rgb(10%,10%,16%)" x1="458" x2="456" y1="349" y2="347" /><line stroke="rgb(10%,10%,16%)" x1="456" x2="456" y1="347" y2="334" /><line stroke="rgb(10%,10%,16%)" x1="456" x2="465" y1="334" y2="326" /><line stroke="rgb(10%,10%,16%)" x1="465" x2="514" y1="326" y2="326" /><line stroke="rgb(10%,10%,16%)" x1="514" x2="514" y1="326" y2="321" /><line stroke="rgb(10%,10%,16%)" x1="514" x2="512" y1="321" y2="319" /><line stroke="rgb(10%,10%,16%)" x1="512" x2="460" y1="319" y2="319" /><line stroke="rgb(10%,10%,16%)" x1="460" x2="458" y1="319" y2="317" /><line stroke="rgb(10%,10%,16%)" x1="458" x2="458" y1="317" y2="304" /><line stroke="rgb(10%,10%,16%)" x1="458" x2="462" y1="304" y2="300" /><line stroke="rgb(10%,10%,16%)" x1="462" x2="618" y1="300" y2="300" /><line stroke="rgb(10%,10%,16%)" x1="618" x2="618" y1="300" y2="15" /><line stroke="rgb(10%,10%,16%)" x1="618" x2="616" y1="15" y2="12" /><line stroke="rgb(10%,10%,16%)" x1="616" x2="614" y1="12" y2="12" /><line stroke="rgb(10%,10%,16%)" x1="614" x2="612" y1="12" y2="10" /><line stroke="rgb(10%,10%,16%)" x1="612" x2="581" y1="10" y2="10" /><line stroke="rgb(10%,10%,16%)" x1="581" x2="579" y1="10" y2="12" /><line stroke="rgb(10%,10%,16%)" x1="579" x2="374" y1="12" y2="12" /><line stroke="rgb(10%,10%,16%)" x1="374" x2="369" y1="12" y2="17" /><line stroke="rgb(10%,10%,16%)" x1="369" x2="369" y1="17" y2="19" /><line stroke="rgb(10%,10%,16%)" x1="369" x2="367" y1="19" y2="21" /><line stroke="rgb(10%,10%,16%)" x1="367" x2="356" y1="21" y2="21" /><line stroke="rgb(10%,10%,16%)" x1="356" x2="354" y1="21" y2="19" /><line stroke="rgb(10%,10%,16%)" x1="354" x2="354" y1="19" y2="15" /><line stroke="rgb(10%,10%,16%)" x1="354" x2="352" y1="15" y2="12" /><line stroke="rgb(10%,10%,16%)" x1="352" x2="153" y1="12" y2="12" /><line stroke="rgb(10%,10%,16%)" x1="153" x2="151" y1="12" y2="10" /><line stroke="rgb(10%,10%,16%)" x1="151" x2="579" y1="10" y2="12" /><line stroke="rgb(10%,10%,16%)" x1="579" x2="581" y1="12" y2="10" /><line stroke="rgb(10%,10%,16%)" x1="581" x2="612" y1="10" y2="10" /><line stroke="rgb(10%,10%,16%)" x1="612" x2="614" y1="10" y2="12" /><line stroke="rgb(10%,10%,16%)" x1="614" x2="616" y1="12" y2="12" /><line stroke="rgb(10%,10%,16%)" x1="616" x2="618" y1="12" y2="15" /><line stroke="rgb(10%,10%,16%)" x1="618" x2="618" y1="15" y2="298" /><line stroke="rgb(10%,10%,16%)" x1="618" x2="616" y1="298" y2="300" /><line stroke="rgb(10%,10%,16%)" x1="616" x2="462" y1="300" y2="300" /><line stroke="rgb(10%,10%,16%)" x1="462" x2="460" y1="300" y2="302" /><line stroke="rgb(10%,10%,16%)" x1="460" x2="458" y1="302" y2="302" /><line stroke="rgb(10%,10%,16%)" x1="458" x2="458" y1="302" y2="304" /><line stroke="rgb(10%,10%,16%)" x1="458" x2="456" y1="304" y2="306" /><line stroke="rgb(10%,10%,16%)" x1="456" x2="456" y1="306" y2="313" /><line stroke="rgb(10%,10%,16%)" x1="456" x2="458" y1="313" y2="315" /><line stroke="rgb(10%,10%,16%)" x1="458" x2="458" y1="315" y2="317" /><line stroke="rgb(10%,10%,16%)" x1="458" x2="460" y1="317" y2="319" /><line stroke="rgb(10%,10%,16%)" x1="460" x2="460" y1="319" y2="328" /><line stroke="rgb(10%,10%,16%)" x1="460" x2="458" y1="328" y2="330" /><line stroke="rgb(10%,10%,16%)" x1="458" x2="458" y1="330" y2="332" /><line stroke="rgb(10%,10%,16%)" x1="458" x2="456" y1="332" y2="334" /><line stroke="rgb(10%,10%,16%)" x1="456" x2="456" y1="334" y2="347" /><line stroke="rgb(10%,10%,16%)" x1="456" x2="458" y1="347" y2="349" /><line stroke="rgb(10%,10%,16%)" x1="458" x2="458" y1="349" y2="390" /><line stroke="rgb(10%,10%,16%)" x1="458" x2="454" y1="390" y2="395" /><line stroke="rgb(10%,10%,16%)" x1="454" x2="430" y1="395" y2="395" /><line stroke="rgb(10%,10%,16%)" x1="430" x2="424" y1="395" y2="388" /><line stroke="rgb(10%,10%,16%)" x1="424" x2="424" y1="388" y2="321" /><line stroke="rgb(10%,10%,16%)" x1="424" x2="426" y1="321" y2="319" /><line stroke="rgb(10%,10%,16%)" x1="426" x2="426" y1="319" y2="302" /><line stroke="rgb(10%,10%,16%)" x1="426" x2="424" y1="302" y2="300" /><line stroke="rgb(10%,10%,16%)" x1="424" x2="391" y1="300" y2="300" /><line stroke="rgb(10%,10%,16%)" x1="391" x2="387" y1="300" y2="304" /><line stroke="rgb(10%,10%,16%)" x1="387" x2="387" y1="304" y2="324" /><line stroke="rgb(10%,10%,16%)" x1="387" x2="385" y1="324" y2="326" /><line stroke="rgb(10%,10%,16%)" x1="385" x2="369" y1="326" y2="326" /><line stroke="rgb(10%,10%,16%)" x1="369" x2="367" y1="326" y2="324" /><line stroke="rgb(10%,10%,16%)" x1="367" x2="367" y1="324" y2="315" /><line stroke="rgb(10%,10%,16%)" x1="367" x2="369" y1="315" y2="313" /><line stroke="rgb(10%,10%,16%)" x1="369" x2="369" y1="313" y2="302" /><line stroke="rgb(10%,10%,16%)" x1="369" x2="367" y1="302" y2="302" /><line stroke="rgb(10%,10%,16%)" x1="367" x2="365" y1="302" y2="300" /><line stroke="rgb(10%,10%,16%)" x1="365" x2="359" y1="300" y2="300" /><line stroke="rgb(10%,10%,16%)" x1="359" x2="356" y1="300" y2="298" /><line stroke="rgb(10%,10%,16%)" x1="356" x2="318" y1="298" y2="298" /><line stroke="rgb(10%,10%,16%)" x1="318" x2="315" y1="298" y2="295" /><line stroke="rgb(10%,10%,16%)" x1="315" x2="283" y1="295" y2="295" /><line stroke="rgb(10%,10%,16%)" x1="283" x2="281" y1="295" y2="298" /><line stroke="rgb(10%,10%,16%)" x1="281" x2="216" y1="298" y2="298" /><line stroke="rgb(10%,10%,16%)" x1="216" x2="214" y1="298" y2="300" /><line stroke="rgb(10%,10%,16%)" x1="214" x2="140" y1="300" y2="300" /><line stroke="rgb(10%,10%,16%)" x1="140" x2="138" y1="300" y2="298" /><line stroke="rgb(10%,10%,16%)" x1="138" x2="138" y1="298" y2="295" /><line stroke="rgb(10%,10%,16%)" x1="138" x2="136" y1="295" y2="293" /><line stroke="rgb(10%,10%,16%)" x1="136" x2="136" y1="293" y2="216" /><line stroke="rgb(10%,10%,16%)" x1="136" x2="138" y1="216" y2="213" /><line stroke="rgb(10%,10%,16%)" x1="138" x2="138" y1="213" y2="45" /><line stroke="rgb(10%,10%,16%)" x1="138" x2="136" y1="45" y2="43" /><line stroke="rgb(10%,10%,16%)" x1="136" x2="136" y1="43" y2="21" /><line stroke="rgb(10%,10%,16%)" x1="136" x2="138" y1="21" y2="19" /><line stroke="rgb(10%,10%,16%)" x1="138" x2="138" y1="19" y2="17" /><line stroke="rgb(10%,10%,16%)" x1="138" x2="142" y1="17" y2="12" /><line stroke="rgb(10%,10%,16%)" x1="142" x2="296" y1="12" y2="12" /><line stroke="rgb(10%,10%,16%)" x1="296" x2="298" y1="12" y2="15" /><line stroke="rgb(10%,10%,16%)" x1="298" x2="298" y1="15" y2="21" /><line stroke="rgb(10%,10%,16%)" x1="298" x2="300" y1="21" y2="23" /><line stroke="rgb(10%,10%,16%)" x1="300" x2="354" y1="23" y2="23" /><line stroke="rgb(10%,10%,16%)" x1="354" x2="356" y1="23" y2="21" /><line stroke="rgb(10%,10%,16%)" x1="356" x2="367" y1="21" y2="21" /><line stroke="rgb(10%,10%,16%)" x1="367" x2="369" y1="21" y2="19" /><line stroke="rgb(10%,10%,16%)" x1="369" x2="372" y1="19" y2="19" /><line stroke="rgb(10%,10%,16%)" x1="372" x2="372" y1="19" y2="15" /><line stroke="rgb(10%,10%,16%)" x1="372" x2="374" y1="15" y2="12" /><line stroke="rgb(10%,10%,16%)" x1="374" x2="761" y1="12" y2="0" /><line stroke="rgb(10%,10%,16%)" x1="761" x2="761" y1="0" y2="2" /><line stroke="rgb(10%,10%,16%)" x1="761" x2="763" y1="2" y2="4" /><line stroke="rgb(10%,10%,16%)" x1="763" x2="763" y1="4" y2="6" /><line stroke="rgb(10%,10%,16%)" x1="763" x2="765" y1="6" y2="8" /><line stroke="rgb(10%,10%,16%)" x1="765" x2="765" y1="8" y2="12" /><line stroke="rgb(10%,10%,16%)" x1="765" x2="765" y1="12" y2="0" /><line stroke="rgb(10%,10%,16%)" x1="765" x2="147" y1="0" y2="10" /><line stroke="rgb(10%,10%,16%)" x1="147" x2="216" y1="10" y2="298" /><line stroke="rgb(10%,10%,16%)" x1="216" x2="367" y1="298" y2="315" /><line stroke="rgb(10%,10%,16%)" x1="367" x2="424" y1="315" y2="349" /><line stroke="rgb(10%,10%,16%)" x1="424" x2="328" y1="349" y2="386" /><line stroke="rgb(10%,10%,16%)" x1="328" x2="456" y1="386" y2="347" /><line stroke="rgb(10%,10%,16%)" x1="456" x2="514" y1="347" y2="321" /><line stroke="rgb(10%,10%,16%)" x1="514" x2="462" y1="321" y2="300" /><line stroke="rgb(10%,10%,16%)" x1="462" x2="151" y1="300" y2="10" /><line stroke="rgb(10%,10%,16%)" x1="151" x2="579" y1="10" y2="12" /><line stroke="rgb(10%,10%,16%)" x1="579" x2="618" y1="12" y2="298" /><line stroke="rgb(10%,10%,16%)" x1="618" x2="456" y1="298" y2="313" /><line stroke="rgb(10%,10%,16%)" x1="456" x2="430" y1="313" y2="395" /><line stroke="rgb(10%,10%,16%)" x1="430" x2="391" y1="395" y2="300" /><line stroke="rgb(10%,10%,16%)" x1="391" x2="367" y1="300" y2="324" /><line stroke="rgb(10%,10%,16%)" x1="367" x2="318" y1="324" y2="298" /><line stroke="rgb(10%,10%,16%)" x1="318" x2="138" y1="298" y2="213" /><line stroke="rgb(10%,10%,16%)" x1="138" x2="354" y1="213" y2="23" /><line stroke="rgb(10%,10%,16%)" x1="354" x2="374" y1="23" y2="12" /></g></svg>