<?xml version="1.0" encoding="utf-8" ?>
<svg baseProfile="full" height="432" version="1.1" width="768" xmlns="http://www.w3.org/2000/svg" xmlns:ev="http://www.w3.org/2001/xml-events" xmlns:xlink="http://www.w3.org/1999/xlink"><defs /><g fill="none" id="shapes"><line stroke="rgb(10%,10%,16%)" x1="0" x2="142" y1="432" y2="14" /><line stroke="rgb(10%,10%,16%)" x1="142" x2="620" y1="14" y2="250" /><line stroke="rgb(10%,10%,16%)" x1="620" x2="460" y1="250" y2="302" /><line stroke="rgb(10%,10%,16%)" x1="460" x2="518" y1="302" y2="327" /><line stroke="rgb(10%,10%,16%)" x1="518" x2="454" y1="327" y2="335" /><line stroke="rgb(10%,10%,16%)" x1="454" x2="461" y1="335" y2="365" /><line stroke="rgb(10%,10%,16%)" x1="461" x2="429" y1="365" y2="395" /><line stroke="rgb(10%,10%,16%)" x1="429" x2="243" y1="395" y2="329" /><line stroke="rgb(10%,10%,16%)" x1="243" x2="364" y1="329" y2="321" /><line stroke="rgb(10%,10%,16%)" x1="364" x2="389" y1="321" y2="303" /><line stroke="rgb(10%,10%,16%)" x1="389" x2="373" y1="303" y2="319" /><line stroke="rgb(10%,10%,16%)" x1="373" x2="332" y1="319" y2="299" /><line stroke="rgb(10%,10%,16%)" x1="332" x2="140" y1="299" y2="16" /><line stroke="rgb(10%,10%,16%)" x1="140" x2="141" y1="16" y2="14" /><line stroke="rgb(10%,10%,16%)" x1="141" x2="503" y1="14" y2="127" /><line stroke="rgb(10%,10%,16%)" x1="503" x2="494" y1="127" y2="138" /><line stroke="rgb(10%,10%,16%)" x1="494" x2="520" y1="138" y2="132" /><line stroke="rgb(10%,10%,16%)" x1="520" x2="507" y1="132" y2="127" /><line stroke="rgb(10%,10%,16%)" x1="507" x2="417" y1="127" y2="129" /><line stroke="rgb(10%,10%,16%)" x1="417" x2="425" y1="129" y2="162" /><line stroke="rgb(10%,10%,16%)" x1="425" x2="443" y1="162" y2="155" /><line stroke="rgb(10%,10%,16%)" x1="443" x2="434" y1="155" y2="130" /><line stroke="rgb(10%,10%,16%)" x1="434" x2="421" y1="130" y2="129" /><line stroke="rgb(10%,10%,16%)" x1="421" x2="338" y1="129" y2="129" /><line stroke="rgb(10%,10%,16%)" x1="338" x2="353" y1="129" y2="162" /><line stroke="rgb(10%,10%,16%)" x1="353" x2="344" y1="162" y2="155" /><line stroke="rgb(10%,10%,16%)" x1="344" x2="351" y1="155" y2="149" /><line stroke="rgb(10%,10%,16%)" x1="351" x2="344" y1="149" y2="142" /><line stroke="rgb(10%,10%,16%)" x1="344" x2="362" y1="142" y2="161" /><line stroke="rgb(10%,10%,16%)" x1="362" x2="371" y1="161" y2="136" /><line stroke="rgb(10%,10%,16%)" x1="371" x2="378" y1="136" y2="162" /><line stroke="rgb(10%,10%,16%)" x1="378" x2="386" y1="162" y2="149" /><line stroke="rgb(10%,10%,16%)" x1="386" x2="396" y1="149" y2="137" /><line stroke="rgb(10%,10%,16%)" x1="396" x2="412" y1="137" y2="162" /><line stroke="rgb(10%,10%,16%)" x1="412" x2="403" y1="162" y2="155" /><line stroke="rgb(10%,10%,16%)" x1="403" x2="392" y1="155" y2="129" /><line stroke="rgb(10%,10%,16%)" x1="392" x2="352" y1="129" y2="129" /><line stroke="rgb(10%,10%,16%)" x1="352" x2="314" y1="129" y2="129" /><line stroke="rgb(10%,10%,16%)" x1="314" x2="320" y1="129" y2="165" /><line stroke="rgb(10%,10%,16%)" x1="320" x2="331" y1="165" y2="129" /><line stroke="rgb(10%,10%,16%)" x1="331" x2="325" y1="129" y2="137" /><line stroke="rgb(10%,10%,16%)" x1="325" x2="319" y1="137" y2="129" /><line stroke="rgb(10%,10%,16%)" x1="319" x2="490" y1="129" y2="177" /><line stroke="rgb(10%,10%,16%)" x1="490" x2="417" y1="177" y2="183" /><line stroke="rgb(10%,10%,16%)" x1="417" x2="232" y1="183" y2="199" /><line stroke="rgb(10%,10%,16%)" x1="232" x2="260" y1="199" y2="206" /><line stroke="rgb(10%,10%,16%)" x1="260" x2="534" y1="206" y2="198" /><line stroke="rgb(10%,10%,16%)" x1="534" x2="527" y1="198" y2="184" /><line stroke="rgb(10%,10%,16%)" x1="527" x2="490" y1="184" y2="178" /><line stroke="rgb(10%,10%,16%)" x1="490" x2="342" y1="178" y2="349" /><line stroke="rgb(10%,10%,16%)" x1="342" x2="342" y1="349" y2="349" /><line stroke="rgb(10%,10%,16%)" x1="342" x2="415" y1="349" y2="356" /><line stroke="rgb(10%,10%,16%)" x1="415" x2="404" y1="356" y2="396" /><line stroke="rgb(10%,10%,16%)" x1="404" x2="330" y1="396" y2="363" /><line stroke="rgb(10%,10%,16%)" x1="330" x2="339" y1="363" y2="350" /><line stroke="rgb(10%,10%,16%)" x1="339" x2="340" y1="350" y2="349" /><line stroke="rgb(10%,10%,16%)" x1="340" x2="613" y1="349" y2="354" /><line stroke="rgb(10%,10%,16%)" x1="613" x2="620" y1="354" y2="368" /><line stroke="rgb(10%,10%,16%)" x1="620" x2="612" y1="368" y2="374" /><line stroke="rgb(10%,10%,16%)" x1="612" x2="594" y1="374" y2="368" /><line stroke="rgb(10%,10%,16%)" x1="594" x2="588" y1="368" y2="360" /><line stroke="rgb(10%,10%,16%)" x1="588" x2="609" y1="360" y2="354" /><line stroke="rgb(10%,10%,16%)" x1="609" x2="140" y1="354" y2="358" /><line stroke="rgb(10%,10%,16%)" x1="140" x2="176" y1="358" y2="364" /><line stroke="rgb(10%,10%,16%)" x1="176" x2="157" y1="364" y2="370" /><line stroke="rgb(10%,10%,16%)" x1="157" x2="146" y1="370" y2="376" /><line stroke="rgb(10%,10%,16%)" x1="146" x2="140" y1="376" y2="369" /><line stroke="rgb(10%,10%,16%)" x1="140" x2="140" y1="369" y2="359" /></g></svg>