<?xml version="1.0" encoding="utf-8" ?>
<svg baseProfile="full" height="1807" version="1.1" width="2720" xmlns="http://www.w3.org/2000/svg" xmlns:ev="http://www.w3.org/2001/xml-events" xmlns:xlink="http://www.w3.org/1999/xlink"><defs /><g fill="none" id="shapes"><line stroke="rgb(10%,10%,16%)" x1="0" x2="1763" y1="1807" y2="143" /><line stroke="rgb(10%,10%,16%)" x1="1763" x2="1822" y1="143" y2="166" /><line stroke="rgb(10%,10%,16%)" x1="1822" x2="1763" y1="166" y2="163" /><line stroke="rgb(10%,10%,16%)" x1="1763" x2="1380" y1="163" y2="176" /><line stroke="rgb(10%,10%,16%)" x1="1380" x2="1403" y1="176" y2="214" /><line stroke="rgb(10%,10%,16%)" x1="1403" x2="1330" y1="214" y2="191" /><line stroke="rgb(10%,10%,16%)" x1="1330" x2="1379" y1="191" y2="176" /><line stroke="rgb(10%,10%,16%)" x1="1379" x2="1959" y1="176" y2="231" /><line stroke="rgb(10%,10%,16%)" x1="1959" x2="1986" y1="231" y2="251" /><line stroke="rgb(10%,10%,16%)" x1="1986" x2="2011" y1="251" y2="283" /><line stroke="rgb(10%,10%,16%)" x1="2011" x2="1911" y1="283" y2="260" /><line stroke="rgb(10%,10%,16%)" x1="1911" x2="1933" y1="260" y2="244" /><line stroke="rgb(10%,10%,16%)" x1="1933" x2="1949" y1="244" y2="231" /><line stroke="rgb(10%,10%,16%)" x1="1949" x2="1551" y1="231" y2="243" /><line stroke="rgb(10%,10%,16%)" x1="1551" x2="1637" y1="243" y2="273" /><line stroke="rgb(10%,10%,16%)" x1="1637" x2="1684" y1="273" y2="248" /><line stroke="rgb(10%,10%,16%)" x1="1684" x2="1703" y1="248" y2="266" /><line stroke="rgb(10%,10%,16%)" x1="1703" x2="1764" y1="266" y2="245" /><line stroke="rgb(10%,10%,16%)" x1="1764" x2="1809" y1="245" y2="263" /><line stroke="rgb(10%,10%,16%)" x1="1809" x2="1785" y1="263" y2="330" /><line stroke="rgb(10%,10%,16%)" x1="1785" x2="1752" y1="330" y2="313" /><line stroke="rgb(10%,10%,16%)" x1="1752" x2="1658" y1="313" y2="288" /><line stroke="rgb(10%,10%,16%)" x1="1658" x2="1602" y1="288" y2="305" /><line stroke="rgb(10%,10%,16%)" x1="1602" x2="1543" y1="305" y2="329" /><line stroke="rgb(10%,10%,16%)" x1="1543" x2="1472" y1="329" y2="313" /><line stroke="rgb(10%,10%,16%)" x1="1472" x2="1442" y1="313" y2="340" /><line stroke="rgb(10%,10%,16%)" x1="1442" x2="1426" y1="340" y2="313" /><line stroke="rgb(10%,10%,16%)" x1="1426" x2="1321" y1="313" y2="330" /><line stroke="rgb(10%,10%,16%)" x1="1321" x2="1293" y1="330" y2="347" /><line stroke="rgb(10%,10%,16%)" x1="1293" x2="1319" y1="347" y2="375" /><line stroke="rgb(10%,10%,16%)" x1="1319" x2="1358" y1="375" y2="358" /><line stroke="rgb(10%,10%,16%)" x1="1358" x2="1389" y1="358" y2="385" /><line stroke="rgb(10%,10%,16%)" x1="1389" x2="1431" y1="385" y2="357" /><line stroke="rgb(10%,10%,16%)" x1="1431" x2="1460" y1="357" y2="376" /><line stroke="rgb(10%,10%,16%)" x1="1460" x2="1634" y1="376" y2="400" /><line stroke="rgb(10%,10%,16%)" x1="1634" x2="1745" y1="400" y2="383" /><line stroke="rgb(10%,10%,16%)" x1="1745" x2="1778" y1="383" y2="401" /><line stroke="rgb(10%,10%,16%)" x1="1778" x2="1879" y1="401" y2="418" /><line stroke="rgb(10%,10%,16%)" x1="1879" x2="1927" y1="418" y2="438" /><line stroke="rgb(10%,10%,16%)" x1="1927" x2="1893" y1="438" y2="501" /><line stroke="rgb(10%,10%,16%)" x1="1893" x2="1857" y1="501" y2="483" /><line stroke="rgb(10%,10%,16%)" x1="1857" x2="1833" y1="483" y2="465" /><line stroke="rgb(10%,10%,16%)" x1="1833" x2="1755" y1="465" y2="447" /><line stroke="rgb(10%,10%,16%)" x1="1755" x2="1733" y1="447" y2="485" /><line stroke="rgb(10%,10%,16%)" x1="1733" x2="1753" y1="485" y2="531" /><line stroke="rgb(10%,10%,16%)" x1="1753" x2="1721" y1="531" y2="552" /><line stroke="rgb(10%,10%,16%)" x1="1721" x2="1698" y1="552" y2="464" /><line stroke="rgb(10%,10%,16%)" x1="1698" x2="1544" y1="464" y2="448" /><line stroke="rgb(10%,10%,16%)" x1="1544" x2="1494" y1="448" y2="482" /><line stroke="rgb(10%,10%,16%)" x1="1494" x2="1458" y1="482" y2="450" /><line stroke="rgb(10%,10%,16%)" x1="1458" x2="1383" y1="450" y2="432" /><line stroke="rgb(10%,10%,16%)" x1="1383" x2="1352" y1="432" y2="456" /><line stroke="rgb(10%,10%,16%)" x1="1352" x2="1258" y1="456" y2="427" /><line stroke="rgb(10%,10%,16%)" x1="1258" x2="1157" y1="427" y2="399" /><line stroke="rgb(10%,10%,16%)" x1="1157" x2="1132" y1="399" y2="452" /><line stroke="rgb(10%,10%,16%)" x1="1132" x2="1014" y1="452" y2="469" /><line stroke="rgb(10%,10%,16%)" x1="1014" x2="978" y1="469" y2="489" /><line stroke="rgb(10%,10%,16%)" x1="978" x2="941" y1="489" y2="467" /><line stroke="rgb(10%,10%,16%)" x1="941" x2="960" y1="467" y2="423" /><line stroke="rgb(10%,10%,16%)" x1="960" x2="980" y1="423" y2="400" /><line stroke="rgb(10%,10%,16%)" x1="980" x2="1005" y1="400" y2="379" /><line stroke="rgb(10%,10%,16%)" x1="1005" x2="1038" y1="379" y2="356" /><line stroke="rgb(10%,10%,16%)" x1="1038" x2="1082" y1="356" y2="337" /><line stroke="rgb(10%,10%,16%)" x1="1082" x2="1162" y1="337" y2="315" /><line stroke="rgb(10%,10%,16%)" x1="1162" x2="1234" y1="315" y2="297" /><line stroke="rgb(10%,10%,16%)" x1="1234" x2="1295" y1="297" y2="276" /><line stroke="rgb(10%,10%,16%)" x1="1295" x2="1368" y1="276" y2="252" /><line stroke="rgb(10%,10%,16%)" x1="1368" x2="1548" y1="252" y2="243" /><line stroke="rgb(10%,10%,16%)" x1="1548" x2="1840" y1="243" y2="269" /><line stroke="rgb(10%,10%,16%)" x1="1840" x2="1864" y1="269" y2="300" /><line stroke="rgb(10%,10%,16%)" x1="1864" x2="1841" y1="300" y2="325" /><line stroke="rgb(10%,10%,16%)" x1="1841" x2="1812" y1="325" y2="302" /><line stroke="rgb(10%,10%,16%)" x1="1812" x2="1839" y1="302" y2="284" /><line stroke="rgb(10%,10%,16%)" x1="1839" x2="1840" y1="284" y2="283" /><line stroke="rgb(10%,10%,16%)" x1="1840" x2="1952" y1="283" y2="306" /><line stroke="rgb(10%,10%,16%)" x1="1952" x2="2024" y1="306" y2="322" /><line stroke="rgb(10%,10%,16%)" x1="2024" x2="1994" y1="322" y2="353" /><line stroke="rgb(10%,10%,16%)" x1="1994" x2="1966" y1="353" y2="337" /><line stroke="rgb(10%,10%,16%)" x1="1966" x2="1952" y1="337" y2="329" /><line stroke="rgb(10%,10%,16%)" x1="1952" x2="2072" y1="329" y2="338" /><line stroke="rgb(10%,10%,16%)" x1="2072" x2="2123" y1="338" y2="367" /><line stroke="rgb(10%,10%,16%)" x1="2123" x2="2107" y1="367" y2="415" /><line stroke="rgb(10%,10%,16%)" x1="2107" x2="2064" y1="415" y2="399" /><line stroke="rgb(10%,10%,16%)" x1="2064" x2="2072" y1="399" y2="341" /><line stroke="rgb(10%,10%,16%)" x1="2072" x2="2169" y1="341" y2="356" /><line stroke="rgb(10%,10%,16%)" x1="2169" x2="2213" y1="356" y2="372" /><line stroke="rgb(10%,10%,16%)" x1="2213" x2="2288" y1="372" y2="393" /><line stroke="rgb(10%,10%,16%)" x1="2288" x2="2307" y1="393" y2="415" /><line stroke="rgb(10%,10%,16%)" x1="2307" x2="2323" y1="415" y2="441" /><line stroke="rgb(10%,10%,16%)" x1="2323" x2="2301" y1="441" y2="467" /><line stroke="rgb(10%,10%,16%)" x1="2301" x2="2285" y1="467" y2="446" /><line stroke="rgb(10%,10%,16%)" x1="2285" x2="2204" y1="446" y2="416" /><line stroke="rgb(10%,10%,16%)" x1="2204" x2="2168" y1="416" y2="400" /><line stroke="rgb(10%,10%,16%)" x1="2168" x2="2141" y1="400" y2="420" /><line stroke="rgb(10%,10%,16%)" x1="2141" x2="2168" y1="420" y2="358" /><line stroke="rgb(10%,10%,16%)" x1="2168" x2="2169" y1="358" y2="357" /><line stroke="rgb(10%,10%,16%)" x1="2169" x2="2237" y1="357" y2="450" /><line stroke="rgb(10%,10%,16%)" x1="2237" x2="2282" y1="450" y2="472" /><line stroke="rgb(10%,10%,16%)" x1="2282" x2="2345" y1="472" y2="490" /><line stroke="rgb(10%,10%,16%)" x1="2345" x2="2385" y1="490" y2="509" /><line stroke="rgb(10%,10%,16%)" x1="2385" x2="2407" y1="509" y2="530" /><line stroke="rgb(10%,10%,16%)" x1="2407" x2="2424" y1="530" y2="553" /><line stroke="rgb(10%,10%,16%)" x1="2424" x2="2451" y1="553" y2="581" /><line stroke="rgb(10%,10%,16%)" x1="2451" x2="2470" y1="581" y2="597" /><line stroke="rgb(10%,10%,16%)" x1="2470" x2="2492" y1="597" y2="569" /><line stroke="rgb(10%,10%,16%)" x1="2492" x2="2508" y1="569" y2="610" /><line stroke="rgb(10%,10%,16%)" x1="2508" x2="2524" y1="610" y2="703" /><line stroke="rgb(10%,10%,16%)" x1="2524" x2="2501" y1="703" y2="787" /><line stroke="rgb(10%,10%,16%)" x1="2501" x2="2480" y1="787" y2="767" /><line stroke="rgb(10%,10%,16%)" x1="2480" x2="2464" y1="767" y2="748" /><line stroke="rgb(10%,10%,16%)" x1="2464" x2="2429" y1="748" y2="720" /><line stroke="rgb(10%,10%,16%)" x1="2429" x2="2412" y1="720" y2="685" /><line stroke="rgb(10%,10%,16%)" x1="2412" x2="2465" y1="685" y2="702" /><line stroke="rgb(10%,10%,16%)" x1="2465" x2="2489" y1="702" y2="720" /><line stroke="rgb(10%,10%,16%)" x1="2489" x2="2470" y1="720" y2="658" /><line stroke="rgb(10%,10%,16%)" x1="2470" x2="2450" y1="658" y2="628" /><line stroke="rgb(10%,10%,16%)" x1="2450" x2="2432" y1="628" y2="610" /><line stroke="rgb(10%,10%,16%)" x1="2432" x2="2415" y1="610" y2="586" /><line stroke="rgb(10%,10%,16%)" x1="2415" x2="2392" y1="586" y2="566" /><line stroke="rgb(10%,10%,16%)" x1="2392" x2="2375" y1="566" y2="546" /><line stroke="rgb(10%,10%,16%)" x1="2375" x2="2351" y1="546" y2="526" /><line stroke="rgb(10%,10%,16%)" x1="2351" x2="2323" y1="526" y2="552" /><line stroke="rgb(10%,10%,16%)" x1="2323" x2="2267" y1="552" y2="535" /><line stroke="rgb(10%,10%,16%)" x1="2267" x2="2235" y1="535" y2="510" /><line stroke="rgb(10%,10%,16%)" x1="2235" x2="2237" y1="510" y2="469" /><line stroke="rgb(10%,10%,16%)" x1="2237" x2="2008" y1="469" y2="458" /><line stroke="rgb(10%,10%,16%)" x1="2008" x2="2039" y1="458" y2="484" /><line stroke="rgb(10%,10%,16%)" x1="2039" x2="2018" y1="484" y2="518" /><line stroke="rgb(10%,10%,16%)" x1="2018" x2="1998" y1="518" y2="500" /><line stroke="rgb(10%,10%,16%)" x1="1998" x2="2008" y1="500" y2="463" /><line stroke="rgb(10%,10%,16%)" x1="2008" x2="2082" y1="463" y2="481" /><line stroke="rgb(10%,10%,16%)" x1="2082" x2="2132" y1="481" y2="505" /><line stroke="rgb(10%,10%,16%)" x1="2132" x2="2171" y1="505" y2="525" /><line stroke="rgb(10%,10%,16%)" x1="2171" x2="2152" y1="525" y2="552" /><line stroke="rgb(10%,10%,16%)" x1="2152" x2="2113" y1="552" y2="536" /><line stroke="rgb(10%,10%,16%)" x1="2113" x2="2074" y1="536" y2="518" /><line stroke="rgb(10%,10%,16%)" x1="2074" x2="2082" y1="518" y2="497" /><line stroke="rgb(10%,10%,16%)" x1="2082" x2="2429" y1="497" y2="496" /><line stroke="rgb(10%,10%,16%)" x1="2429" x2="2460" y1="496" y2="512" /><line stroke="rgb(10%,10%,16%)" x1="2460" x2="2442" y1="512" y2="546" /><line stroke="rgb(10%,10%,16%)" x1="2442" x2="2429" y1="546" y2="516" /><line stroke="rgb(10%,10%,16%)" x1="2429" x2="1223" y1="516" y2="505" /><line stroke="rgb(10%,10%,16%)" x1="1223" x2="1266" y1="505" y2="530" /><line stroke="rgb(10%,10%,16%)" x1="1266" x2="1286" y1="530" y2="584" /><line stroke="rgb(10%,10%,16%)" x1="1286" x2="1308" y1="584" y2="561" /><line stroke="rgb(10%,10%,16%)" x1="1308" x2="1341" y1="561" y2="581" /><line stroke="rgb(10%,10%,16%)" x1="1341" x2="1317" y1="581" y2="640" /><line stroke="rgb(10%,10%,16%)" x1="1317" x2="1238" y1="640" y2="664" /><line stroke="rgb(10%,10%,16%)" x1="1238" x2="1197" y1="664" y2="690" /><line stroke="rgb(10%,10%,16%)" x1="1197" x2="1175" y1="690" y2="714" /><line stroke="rgb(10%,10%,16%)" x1="1175" x2="1129" y1="714" y2="667" /><line stroke="rgb(10%,10%,16%)" x1="1129" x2="1031" y1="667" y2="647" /><line stroke="rgb(10%,10%,16%)" x1="1031" x2="1010" y1="647" y2="686" /><line stroke="rgb(10%,10%,16%)" x1="1010" x2="989" y1="686" y2="717" /><line stroke="rgb(10%,10%,16%)" x1="989" x2="874" y1="717" y2="744" /><line stroke="rgb(10%,10%,16%)" x1="874" x2="899" y1="744" y2="813" /><line stroke="rgb(10%,10%,16%)" x1="899" x2="954" y1="813" y2="790" /><line stroke="rgb(10%,10%,16%)" x1="954" x2="975" y1="790" y2="814" /><line stroke="rgb(10%,10%,16%)" x1="975" x2="1019" y1="814" y2="836" /><line stroke="rgb(10%,10%,16%)" x1="1019" x2="1047" y1="836" y2="809" /><line stroke="rgb(10%,10%,16%)" x1="1047" x2="1151" y1="809" y2="836" /><line stroke="rgb(10%,10%,16%)" x1="1151" x2="1211" y1="836" y2="859" /><line stroke="rgb(10%,10%,16%)" x1="1211" x2="1238" y1="859" y2="893" /><line stroke="rgb(10%,10%,16%)" x1="1238" x2="1269" y1="893" y2="917" /><line stroke="rgb(10%,10%,16%)" x1="1269" x2="1197" y1="917" y2="950" /><line stroke="rgb(10%,10%,16%)" x1="1197" x2="1131" y1="950" y2="923" /><line stroke="rgb(10%,10%,16%)" x1="1131" x2="1090" y1="923" y2="942" /><line stroke="rgb(10%,10%,16%)" x1="1090" x2="1038" y1="942" y2="958" /><line stroke="rgb(10%,10%,16%)" x1="1038" x2="1008" y1="958" y2="996" /><line stroke="rgb(10%,10%,16%)" x1="1008" x2="843" y1="996" y2="978" /><line stroke="rgb(10%,10%,16%)" x1="843" x2="826" y1="978" y2="936" /><line stroke="rgb(10%,10%,16%)" x1="826" x2="843" y1="936" y2="617" /><line stroke="rgb(10%,10%,16%)" x1="843" x2="901" y1="617" y2="588" /><line stroke="rgb(10%,10%,16%)" x1="901" x2="870" y1="588" y2="559" /><line stroke="rgb(10%,10%,16%)" x1="870" x2="896" y1="559" y2="540" /><line stroke="rgb(10%,10%,16%)" x1="896" x2="992" y1="540" y2="579" /><line stroke="rgb(10%,10%,16%)" x1="992" x2="972" y1="579" y2="596" /><line stroke="rgb(10%,10%,16%)" x1="972" x2="1055" y1="596" y2="575" /><line stroke="rgb(10%,10%,16%)" x1="1055" x2="1096" y1="575" y2="540" /><line stroke="rgb(10%,10%,16%)" x1="1096" x2="1141" y1="540" y2="556" /><line stroke="rgb(10%,10%,16%)" x1="1141" x2="1164" y1="556" y2="535" /><line stroke="rgb(10%,10%,16%)" x1="1164" x2="1187" y1="535" y2="570" /><line stroke="rgb(10%,10%,16%)" x1="1187" x2="1155" y1="570" y2="588" /><line stroke="rgb(10%,10%,16%)" x1="1155" x2="1130" y1="588" y2="608" /><line stroke="rgb(10%,10%,16%)" x1="1130" x2="1147" y1="608" y2="637" /><line stroke="rgb(10%,10%,16%)" x1="1147" x2="1251" y1="637" y2="615" /><line stroke="rgb(10%,10%,16%)" x1="1251" x2="1233" y1="615" y2="591" /><line stroke="rgb(10%,10%,16%)" x1="1233" x2="1195" y1="591" y2="551" /><line stroke="rgb(10%,10%,16%)" x1="1195" x2="1221" y1="551" y2="507" /><line stroke="rgb(10%,10%,16%)" x1="1221" x2="1849" y1="507" y2="544" /><line stroke="rgb(10%,10%,16%)" x1="1849" x2="1849" y1="544" y2="559" /><line stroke="rgb(10%,10%,16%)" x1="1849" x2="1492" y1="559" y2="558" /><line stroke="rgb(10%,10%,16%)" x1="1492" x2="1491" y1="558" y2="558" /><line stroke="rgb(10%,10%,16%)" x1="1491" x2="2304" y1="558" y2="566" /><line stroke="rgb(10%,10%,16%)" x1="2304" x2="2304" y1="566" y2="575" /><line stroke="rgb(10%,10%,16%)" x1="2304" x2="1686" y1="575" y2="605" /><line stroke="rgb(10%,10%,16%)" x1="1686" x2="1684" y1="605" y2="607" /><line stroke="rgb(10%,10%,16%)" x1="1684" x2="942" y1="607" y2="627" /><line stroke="rgb(10%,10%,16%)" x1="942" x2="942" y1="627" y2="631" /><line stroke="rgb(10%,10%,16%)" x1="942" x2="2137" y1="631" y2="636" /><line stroke="rgb(10%,10%,16%)" x1="2137" x2="2137" y1="636" y2="657" /><line stroke="rgb(10%,10%,16%)" x1="2137" x2="1787" y1="657" y2="646" /><line stroke="rgb(10%,10%,16%)" x1="1787" x2="1787" y1="646" y2="668" /><line stroke="rgb(10%,10%,16%)" x1="1787" x2="1911" y1="668" y2="652" /><line stroke="rgb(10%,10%,16%)" x1="1911" x2="1911" y1="652" y2="661" /><line stroke="rgb(10%,10%,16%)" x1="1911" x2="1387" y1="661" y2="661" /><line stroke="rgb(10%,10%,16%)" x1="1387" x2="1365" y1="661" y2="661" /><line stroke="rgb(10%,10%,16%)" x1="1365" x2="1964" y1="661" y2="663" /><line stroke="rgb(10%,10%,16%)" x1="1964" x2="1964" y1="663" y2="670" /><line stroke="rgb(10%,10%,16%)" x1="1964" x2="2012" y1="670" y2="673" /><line stroke="rgb(10%,10%,16%)" x1="2012" x2="2012" y1="673" y2="685" /><line stroke="rgb(10%,10%,16%)" x1="2012" x2="1476" y1="685" y2="675" /><line stroke="rgb(10%,10%,16%)" x1="1476" x2="1476" y1="675" y2="677" /><line stroke="rgb(10%,10%,16%)" x1="1476" x2="1701" y1="677" y2="684" /><line stroke="rgb(10%,10%,16%)" x1="1701" x2="1703" y1="684" y2="684" /><line stroke="rgb(10%,10%,16%)" x1="1703" x2="1313" y1="684" y2="692" /><line stroke="rgb(10%,10%,16%)" x1="1313" x2="1313" y1="692" y2="716" /><line stroke="rgb(10%,10%,16%)" x1="1313" x2="1233" y1="716" y2="706" /><line stroke="rgb(10%,10%,16%)" x1="1233" x2="1233" y1="706" y2="724" /><line stroke="rgb(10%,10%,16%)" x1="1233" x2="1916" y1="724" y2="708" /><line stroke="rgb(10%,10%,16%)" x1="1916" x2="1916" y1="708" y2="709" /><line stroke="rgb(10%,10%,16%)" x1="1916" x2="1985" y1="709" y2="778" /><line stroke="rgb(10%,10%,16%)" x1="1985" x2="1985" y1="778" y2="805" /><line stroke="rgb(10%,10%,16%)" x1="1985" x2="2073" y1="805" y2="788" /><line stroke="rgb(10%,10%,16%)" x1="2073" x2="2073" y1="788" y2="790" /><line stroke="rgb(10%,10%,16%)" x1="2073" x2="2182" y1="790" y2="791" /><line stroke="rgb(10%,10%,16%)" x1="2182" x2="2182" y1="791" y2="830" /><line stroke="rgb(10%,10%,16%)" x1="2182" x2="1214" y1="830" y2="833" /><line stroke="rgb(10%,10%,16%)" x1="1214" x2="1214" y1="833" y2="856" /><line stroke="rgb(10%,10%,16%)" x1="1214" x2="874" y1="856" y2="833" /><line stroke="rgb(10%,10%,16%)" x1="874" x2="875" y1="833" y2="833" /><line stroke="rgb(10%,10%,16%)" x1="875" x2="1480" y1="833" y2="866" /><line stroke="rgb(10%,10%,16%)" x1="1480" x2="1479" y1="866" y2="866" /><line stroke="rgb(10%,10%,16%)" x1="1479" x2="2246" y1="866" y2="903" /><line stroke="rgb(10%,10%,16%)" x1="2246" x2="2245" y1="903" y2="903" /><line stroke="rgb(10%,10%,16%)" x1="2245" x2="2357" y1="903" y2="936" /><line stroke="rgb(10%,10%,16%)" x1="2357" x2="2353" y1="936" y2="940" /><line stroke="rgb(10%,10%,16%)" x1="2353" x2="2469" y1="940" y2="940" /><line stroke="rgb(10%,10%,16%)" x1="2469" x2="2467" y1="940" y2="942" /><line stroke="rgb(10%,10%,16%)" x1="2467" x2="1164" y1="942" y2="958" /><line stroke="rgb(10%,10%,16%)" x1="1164" x2="1164" y1="958" y2="965" /><line stroke="rgb(10%,10%,16%)" x1="1164" x2="368" y1="965" y2="959" /><line stroke="rgb(10%,10%,16%)" x1="368" x2="356" y1="959" y2="959" /><line stroke="rgb(10%,10%,16%)" x1="356" x2="556" y1="959" y2="963" /><line stroke="rgb(10%,10%,16%)" x1="556" x2="556" y1="963" y2="983" /><line stroke="rgb(10%,10%,16%)" x1="556" x2="182" y1="983" y2="989" /><line stroke="rgb(10%,10%,16%)" x1="182" x2="182" y1="989" y2="997" /><line stroke="rgb(10%,10%,16%)" x1="182" x2="2051" y1="997" y2="1012" /><line stroke="rgb(10%,10%,16%)" x1="2051" x2="2049" y1="1012" y2="1014" /><line stroke="rgb(10%,10%,16%)" x1="2049" x2="578" y1="1014" y2="1038" /><line stroke="rgb(10%,10%,16%)" x1="578" x2="578" y1="1038" y2="1041" /><line stroke="rgb(10%,10%,16%)" x1="578" x2="2355" y1="1041" y2="1039" /><line stroke="rgb(10%,10%,16%)" x1="2355" x2="2355" y1="1039" y2="1042" /><line stroke="rgb(10%,10%,16%)" x1="2355" x2="844" y1="1042" y2="1060" /><line stroke="rgb(10%,10%,16%)" x1="844" x2="839" y1="1060" y2="1065" /><line stroke="rgb(10%,10%,16%)" x1="839" x2="1099" y1="1065" y2="1063" /><line stroke="rgb(10%,10%,16%)" x1="1099" x2="1097" y1="1063" y2="1065" /><line stroke="rgb(10%,10%,16%)" x1="1097" x2="2278" y1="1065" y2="1080" /><line stroke="rgb(10%,10%,16%)" x1="2278" x2="2278" y1="1080" y2="1081" /><line stroke="rgb(10%,10%,16%)" x1="2278" x2="1531" y1="1081" y2="1083" /><line stroke="rgb(10%,10%,16%)" x1="1531" x2="1531" y1="1083" y2="1099" /><line stroke="rgb(10%,10%,16%)" x1="1531" x2="679" y1="1099" y2="1112" /><line stroke="rgb(10%,10%,16%)" x1="679" x2="679" y1="1112" y2="1115" /><line stroke="rgb(10%,10%,16%)" x1="679" x2="741" y1="1115" y2="1146" /><line stroke="rgb(10%,10%,16%)" x1="741" x2="741" y1="1146" y2="1153" /><line stroke="rgb(10%,10%,16%)" x1="741" x2="845" y1="1153" y2="1172" /><line stroke="rgb(10%,10%,16%)" x1="845" x2="837" y1="1172" y2="1172" /><line stroke="rgb(10%,10%,16%)" x1="837" x2="1022" y1="1172" y2="1178" /><line stroke="rgb(10%,10%,16%)" x1="1022" x2="1021" y1="1178" y2="1178" /><line stroke="rgb(10%,10%,16%)" x1="1021" x2="525" y1="1178" y2="1245" /><line stroke="rgb(10%,10%,16%)" x1="525" x2="525" y1="1245" y2="1253" /><line stroke="rgb(10%,10%,16%)" x1="525" x2="2233" y1="1253" y2="1286" /><line stroke="rgb(10%,10%,16%)" x1="2233" x2="2231" y1="1286" y2="1286" /><line stroke="rgb(10%,10%,16%)" x1="2231" x2="2015" y1="1286" y2="1314" /><line stroke="rgb(10%,10%,16%)" x1="2015" x2="2013" y1="1314" y2="1316" /><line stroke="rgb(10%,10%,16%)" x1="2013" x2="1079" y1="1316" y2="1342" /><line stroke="rgb(10%,10%,16%)" x1="1079" x2="1079" y1="1342" y2="1346" /><line stroke="rgb(10%,10%,16%)" x1="1079" x2="812" y1="1346" y2="1348" /><line stroke="rgb(10%,10%,16%)" x1="812" x2="812" y1="1348" y2="1363" /><line stroke="rgb(10%,10%,16%)" x1="812" x2="1969" y1="1363" y2="1355" /><line stroke="rgb(10%,10%,16%)" x1="1969" x2="1969" y1="1355" y2="1367" /><line stroke="rgb(10%,10%,16%)" x1="1969" x2="1830" y1="1367" y2="1378" /><line stroke="rgb(10%,10%,16%)" x1="1830" x2="1827" y1="1378" y2="1378" /><line stroke="rgb(10%,10%,16%)" x1="1827" x2="2319" y1="1378" y2="1421" /><line stroke="rgb(10%,10%,16%)" x1="2319" x2="2319" y1="1421" y2="1441" /><line stroke="rgb(10%,10%,16%)" x1="2319" x2="2147" y1="1441" y2="1650" /><line stroke="rgb(10%,10%,16%)" x1="2147" x2="2147" y1="1650" y2="1660" /></g></svg>