<?xml version="1.0" encoding="utf-8" ?>
<svg baseProfile="full" height="957" version="1.1" width="1300" xmlns="http://www.w3.org/2000/svg" xmlns:ev="http://www.w3.org/2001/xml-events" xmlns:xlink="http://www.w3.org/1999/xlink"><defs /><g fill="none" id="shapes"><line stroke="rgb(10%,10%,16%)" x1="0" x2="0" y1="957" y2="0" /><line stroke="rgb(10%,10%,16%)" x1="0" x2="10" y1="0" y2="204" /><line stroke="rgb(10%,10%,16%)" x1="10" x2="26" y1="204" y2="185" /><line stroke="rgb(10%,10%,16%)" x1="26" x2="36" y1="185" y2="204" /><line stroke="rgb(10%,10%,16%)" x1="36" x2="50" y1="204" y2="188" /><line stroke="rgb(10%,10%,16%)" x1="50" x2="58" y1="188" y2="196" /><line stroke="rgb(10%,10%,16%)" x1="58" x2="79" y1="196" y2="187" /><line stroke="rgb(10%,10%,16%)" x1="79" x2="85" y1="187" y2="196" /><line stroke="rgb(10%,10%,16%)" x1="85" x2="91" y1="196" y2="210" /><line stroke="rgb(10%,10%,16%)" x1="91" x2="43" y1="210" y2="218" /><line stroke="rgb(10%,10%,16%)" x1="43" x2="27" y1="218" y2="226" /><line stroke="rgb(10%,10%,16%)" x1="27" x2="0" y1="226" y2="956" /><line stroke="rgb(10%,10%,16%)" x1="0" x2="1299" y1="956" y2="0" /><line stroke="rgb(10%,10%,16%)" x1="1299" x2="1043" y1="0" y2="10" /><line stroke="rgb(10%,10%,16%)" x1="1043" x2="1020" y1="10" y2="0" /><line stroke="rgb(10%,10%,16%)" x1="1020" x2="179" y1="0" y2="10" /><line stroke="rgb(10%,10%,16%)" x1="179" x2="187" y1="10" y2="26" /><line stroke="rgb(10%,10%,16%)" x1="187" x2="152" y1="26" y2="16" /><line stroke="rgb(10%,10%,16%)" x1="152" x2="151" y1="16" y2="0" /><line stroke="rgb(10%,10%,16%)" x1="151" x2="164" y1="0" y2="725" /><line stroke="rgb(10%,10%,16%)" x1="164" x2="164" y1="725" y2="725" /><line stroke="rgb(10%,10%,16%)" x1="164" x2="179" y1="725" y2="742" /><line stroke="rgb(10%,10%,16%)" x1="179" x2="162" y1="742" y2="727" /><line stroke="rgb(10%,10%,16%)" x1="162" x2="162" y1="727" y2="727" /><line stroke="rgb(10%,10%,16%)" x1="162" x2="445" y1="727" y2="765" /><line stroke="rgb(10%,10%,16%)" x1="445" x2="445" y1="765" y2="765" /><line stroke="rgb(10%,10%,16%)" x1="445" x2="466" y1="765" y2="783" /><line stroke="rgb(10%,10%,16%)" x1="466" x2="445" y1="783" y2="782" /><line stroke="rgb(10%,10%,16%)" x1="445" x2="22" y1="782" y2="870" /><line stroke="rgb(10%,10%,16%)" x1="22" x2="90" y1="870" y2="889" /><line stroke="rgb(10%,10%,16%)" x1="90" x2="76" y1="889" y2="907" /><line stroke="rgb(10%,10%,16%)" x1="76" x2="69" y1="907" y2="892" /><line stroke="rgb(10%,10%,16%)" x1="69" x2="39" y1="892" y2="899" /><line stroke="rgb(10%,10%,16%)" x1="39" x2="46" y1="899" y2="922" /><line stroke="rgb(10%,10%,16%)" x1="46" x2="75" y1="922" y2="915" /><line stroke="rgb(10%,10%,16%)" x1="75" x2="91" y1="915" y2="909" /><line stroke="rgb(10%,10%,16%)" x1="91" x2="84" y1="909" y2="937" /><line stroke="rgb(10%,10%,16%)" x1="84" x2="71" y1="937" y2="943" /><line stroke="rgb(10%,10%,16%)" x1="71" x2="27" y1="943" y2="937" /><line stroke="rgb(10%,10%,16%)" x1="27" x2="22" y1="937" y2="933" /><line stroke="rgb(10%,10%,16%)" x1="22" x2="1029" y1="933" y2="885" /><line stroke="rgb(10%,10%,16%)" x1="1029" x2="1029" y1="885" y2="885" /><line stroke="rgb(10%,10%,16%)" x1="1029" x2="1053" y1="885" y2="908" /><line stroke="rgb(10%,10%,16%)" x1="1053" x2="1027" y1="908" y2="887" /><line stroke="rgb(10%,10%,16%)" x1="1027" x2="1027" y1="887" y2="887" /><line stroke="rgb(10%,10%,16%)" x1="1027" x2="1029" y1="887" y2="920" /><line stroke="rgb(10%,10%,16%)" x1="1029" x2="1053" y1="920" y2="944" /><line stroke="rgb(10%,10%,16%)" x1="1053" x2="1027" y1="944" y2="922" /><line stroke="rgb(10%,10%,16%)" x1="1027" x2="1027" y1="922" y2="922" /></g></svg>