<?xml version="1.0" encoding="utf-8" ?>
<svg baseProfile="full" height="160" version="1.1" width="240" xmlns="http://www.w3.org/2000/svg" xmlns:ev="http://www.w3.org/2001/xml-events" xmlns:xlink="http://www.w3.org/1999/xlink"><defs /><g fill="none" id="shapes"><line stroke="rgb(10%,10%,16%)" x1="174" x2="175" y1="116" y2="116" /><line stroke="rgb(10%,10%,16%)" x1="175" x2="62" y1="116" y2="88" /><line stroke="rgb(10%,10%,16%)" x1="62" x2="62" y1="88" y2="90" /><line stroke="rgb(10%,10%,16%)" x1="62" x2="63" y1="90" y2="91" /><line stroke="rgb(10%,10%,16%)" x1="63" x2="63" y1="91" y2="92" /><line stroke="rgb(10%,10%,16%)" x1="63" x2="64" y1="92" y2="92" /><line stroke="rgb(10%,10%,16%)" x1="64" x2="65" y1="92" y2="93" /><line stroke="rgb(10%,10%,16%)" x1="65" x2="65" y1="93" y2="92" /><line stroke="rgb(10%,10%,16%)" x1="65" x2="63" y1="92" y2="90" /><line stroke="rgb(10%,10%,16%)" x1="63" x2="63" y1="90" y2="88" /><line stroke="rgb(10%,10%,16%)" x1="63" x2="70" y1="88" y2="83" /><line stroke="rgb(10%,10%,16%)" x1="70" x2="70" y1="83" y2="86" /><line stroke="rgb(10%,10%,16%)" x1="70" x2="69" y1="86" y2="87" /><line stroke="rgb(10%,10%,16%)" x1="69" x2="69" y1="87" y2="89" /><line stroke="rgb(10%,10%,16%)" x1="69" x2="70" y1="89" y2="90" /><line stroke="rgb(10%,10%,16%)" x1="70" x2="70" y1="90" y2="85" /><line stroke="rgb(10%,10%,16%)" x1="70" x2="71" y1="85" y2="84" /><line stroke="rgb(10%,10%,16%)" x1="71" x2="65" y1="84" y2="80" /><line stroke="rgb(10%,10%,16%)" x1="65" x2="64" y1="80" y2="81" /><line stroke="rgb(10%,10%,16%)" x1="64" x2="63" y1="81" y2="81" /><line stroke="rgb(10%,10%,16%)" x1="63" x2="63" y1="81" y2="82" /><line stroke="rgb(10%,10%,16%)" x1="63" x2="64" y1="82" y2="83" /><line stroke="rgb(10%,10%,16%)" x1="64" x2="66" y1="83" y2="83" /><line stroke="rgb(10%,10%,16%)" x1="66" x2="67" y1="83" y2="82" /><line stroke="rgb(10%,10%,16%)" x1="67" x2="67" y1="82" y2="81" /><line stroke="rgb(10%,10%,16%)" x1="67" x2="66" y1="81" y2="80" /><line stroke="rgb(10%,10%,16%)" x1="66" x2="163" y1="80" y2="40" /><line stroke="rgb(10%,10%,16%)" x1="163" x2="163" y1="40" y2="44" /><line stroke="rgb(10%,10%,16%)" x1="163" x2="164" y1="44" y2="45" /><line stroke="rgb(10%,10%,16%)" x1="164" x2="164" y1="45" y2="48" /><line stroke="rgb(10%,10%,16%)" x1="164" x2="166" y1="48" y2="50" /><line stroke="rgb(10%,10%,16%)" x1="166" x2="166" y1="50" y2="53" /><line stroke="rgb(10%,10%,16%)" x1="166" x2="167" y1="53" y2="54" /><line stroke="rgb(10%,10%,16%)" x1="167" x2="167" y1="54" y2="58" /><line stroke="rgb(10%,10%,16%)" x1="167" x2="169" y1="58" y2="60" /><line stroke="rgb(10%,10%,16%)" x1="169" x2="170" y1="60" y2="59" /><line stroke="rgb(10%,10%,16%)" x1="170" x2="175" y1="59" y2="59" /><line stroke="rgb(10%,10%,16%)" x1="175" x2="175" y1="59" y2="51" /><line stroke="rgb(10%,10%,16%)" x1="175" x2="174" y1="51" y2="50" /><line stroke="rgb(10%,10%,16%)" x1="174" x2="174" y1="50" y2="49" /><line stroke="rgb(10%,10%,16%)" x1="174" x2="173" y1="49" y2="48" /><line stroke="rgb(10%,10%,16%)" x1="173" x2="169" y1="48" y2="48" /><line stroke="rgb(10%,10%,16%)" x1="169" x2="168" y1="48" y2="47" /><line stroke="rgb(10%,10%,16%)" x1="168" x2="168" y1="47" y2="46" /><line stroke="rgb(10%,10%,16%)" x1="168" x2="166" y1="46" y2="44" /><line stroke="rgb(10%,10%,16%)" x1="166" x2="166" y1="44" y2="42" /><line stroke="rgb(10%,10%,16%)" x1="166" x2="165" y1="42" y2="41" /><line stroke="rgb(10%,10%,16%)" x1="165" x2="165" y1="41" y2="40" /><line stroke="rgb(10%,10%,16%)" x1="165" x2="161" y1="40" y2="28" /><line stroke="rgb(10%,10%,16%)" x1="161" x2="161" y1="28" y2="29" /><line stroke="rgb(10%,10%,16%)" x1="161" x2="0" y1="29" y2="0" /><line stroke="rgb(10%,10%,16%)" x1="0" x2="0" y1="0" y2="159" /><line stroke="rgb(10%,10%,16%)" x1="0" x2="105" y1="159" y2="159" /><line stroke="rgb(10%,10%,16%)" x1="105" x2="101" y1="159" y2="159" /><line stroke="rgb(10%,10%,16%)" x1="101" x2="100" y1="159" y2="158" /><line stroke="rgb(10%,10%,16%)" x1="100" x2="95" y1="158" y2="158" /><line stroke="rgb(10%,10%,16%)" x1="95" x2="94" y1="158" y2="157" /><line stroke="rgb(10%,10%,16%)" x1="94" x2="90" y1="157" y2="157" /><line stroke="rgb(10%,10%,16%)" x1="90" x2="89" y1="157" y2="156" /><line stroke="rgb(10%,10%,16%)" x1="89" x2="87" y1="156" y2="156" /><line stroke="rgb(10%,10%,16%)" x1="87" x2="86" y1="156" y2="155" /><line stroke="rgb(10%,10%,16%)" x1="86" x2="85" y1="155" y2="155" /><line stroke="rgb(10%,10%,16%)" x1="85" x2="84" y1="155" y2="154" /><line stroke="rgb(10%,10%,16%)" x1="84" x2="83" y1="154" y2="154" /><line stroke="rgb(10%,10%,16%)" x1="83" x2="80" y1="154" y2="151" /><line stroke="rgb(10%,10%,16%)" x1="80" x2="80" y1="151" y2="148" /><line stroke="rgb(10%,10%,16%)" x1="80" x2="82" y1="148" y2="146" /><line stroke="rgb(10%,10%,16%)" x1="82" x2="81" y1="146" y2="145" /><line stroke="rgb(10%,10%,16%)" x1="81" x2="81" y1="145" y2="144" /><line stroke="rgb(10%,10%,16%)" x1="81" x2="80" y1="144" y2="144" /><line stroke="rgb(10%,10%,16%)" x1="80" x2="75" y1="144" y2="139" /><line stroke="rgb(10%,10%,16%)" x1="75" x2="74" y1="139" y2="139" /><line stroke="rgb(10%,10%,16%)" x1="74" x2="65" y1="139" y2="130" /><line stroke="rgb(10%,10%,16%)" x1="65" x2="65" y1="130" y2="129" /><line stroke="rgb(10%,10%,16%)" x1="65" x2="64" y1="129" y2="128" /><line stroke="rgb(10%,10%,16%)" x1="64" x2="64" y1="128" y2="127" /><line stroke="rgb(10%,10%,16%)" x1="64" x2="59" y1="127" y2="122" /><line stroke="rgb(10%,10%,16%)" x1="59" x2="59" y1="122" y2="118" /><line stroke="rgb(10%,10%,16%)" x1="59" x2="58" y1="118" y2="117" /><line stroke="rgb(10%,10%,16%)" x1="58" x2="58" y1="117" y2="116" /><line stroke="rgb(10%,10%,16%)" x1="58" x2="57" y1="116" y2="116" /><line stroke="rgb(10%,10%,16%)" x1="57" x2="55" y1="116" y2="114" /><line stroke="rgb(10%,10%,16%)" x1="55" x2="55" y1="114" y2="113" /><line stroke="rgb(10%,10%,16%)" x1="55" x2="54" y1="113" y2="112" /><line stroke="rgb(10%,10%,16%)" x1="54" x2="54" y1="112" y2="109" /><line stroke="rgb(10%,10%,16%)" x1="54" x2="53" y1="109" y2="108" /><line stroke="rgb(10%,10%,16%)" x1="53" x2="53" y1="108" y2="106" /><line stroke="rgb(10%,10%,16%)" x1="53" x2="52" y1="106" y2="105" /><line stroke="rgb(10%,10%,16%)" x1="52" x2="52" y1="105" y2="103" /><line stroke="rgb(10%,10%,16%)" x1="52" x2="51" y1="103" y2="102" /><line stroke="rgb(10%,10%,16%)" x1="51" x2="51" y1="102" y2="98" /><line stroke="rgb(10%,10%,16%)" x1="51" x2="50" y1="98" y2="97" /><line stroke="rgb(10%,10%,16%)" x1="50" x2="50" y1="97" y2="93" /><line stroke="rgb(10%,10%,16%)" x1="50" x2="49" y1="93" y2="92" /><line stroke="rgb(10%,10%,16%)" x1="49" x2="49" y1="92" y2="76" /><line stroke="rgb(10%,10%,16%)" x1="49" x2="50" y1="76" y2="75" /><line stroke="rgb(10%,10%,16%)" x1="50" x2="50" y1="75" y2="74" /><line stroke="rgb(10%,10%,16%)" x1="50" x2="51" y1="74" y2="73" /><line stroke="rgb(10%,10%,16%)" x1="51" x2="51" y1="73" y2="63" /><line stroke="rgb(10%,10%,16%)" x1="51" x2="52" y1="63" y2="62" /><line stroke="rgb(10%,10%,16%)" x1="52" x2="52" y1="62" y2="60" /><line stroke="rgb(10%,10%,16%)" x1="52" x2="54" y1="60" y2="58" /><line stroke="rgb(10%,10%,16%)" x1="54" x2="54" y1="58" y2="57" /><line stroke="rgb(10%,10%,16%)" x1="54" x2="55" y1="57" y2="56" /><line stroke="rgb(10%,10%,16%)" x1="55" x2="55" y1="56" y2="55" /><line stroke="rgb(10%,10%,16%)" x1="55" x2="56" y1="55" y2="54" /><line stroke="rgb(10%,10%,16%)" x1="56" x2="56" y1="54" y2="51" /><line stroke="rgb(10%,10%,16%)" x1="56" x2="57" y1="51" y2="50" /><line stroke="rgb(10%,10%,16%)" x1="57" x2="57" y1="50" y2="49" /><line stroke="rgb(10%,10%,16%)" x1="57" x2="60" y1="49" y2="46" /><line stroke="rgb(10%,10%,16%)" x1="60" x2="60" y1="46" y2="45" /><line stroke="rgb(10%,10%,16%)" x1="60" x2="61" y1="45" y2="44" /><line stroke="rgb(10%,10%,16%)" x1="61" x2="61" y1="44" y2="43" /><line stroke="rgb(10%,10%,16%)" x1="61" x2="62" y1="43" y2="42" /><line stroke="rgb(10%,10%,16%)" x1="62" x2="62" y1="42" y2="41" /><line stroke="rgb(10%,10%,16%)" x1="62" x2="65" y1="41" y2="38" /><line stroke="rgb(10%,10%,16%)" x1="65" x2="65" y1="38" y2="37" /><line stroke="rgb(10%,10%,16%)" x1="65" x2="66" y1="37" y2="36" /><line stroke="rgb(10%,10%,16%)" x1="66" x2="67" y1="36" y2="36" /><line stroke="rgb(10%,10%,16%)" x1="67" x2="67" y1="36" y2="35" /><line stroke="rgb(10%,10%,16%)" x1="67" x2="69" y1="35" y2="33" /><line stroke="rgb(10%,10%,16%)" x1="69" x2="73" y1="33" y2="33" /><line stroke="rgb(10%,10%,16%)" x1="73" x2="74" y1="33" y2="32" /><line stroke="rgb(10%,10%,16%)" x1="74" x2="76" y1="32" y2="32" /><line stroke="rgb(10%,10%,16%)" x1="76" x2="77" y1="32" y2="33" /><line stroke="rgb(10%,10%,16%)" x1="77" x2="77" y1="33" y2="36" /><line stroke="rgb(10%,10%,16%)" x1="77" x2="73" y1="36" y2="40" /><line stroke="rgb(10%,10%,16%)" x1="73" x2="73" y1="40" y2="41" /><line stroke="rgb(10%,10%,16%)" x1="73" x2="72" y1="41" y2="42" /><line stroke="rgb(10%,10%,16%)" x1="72" x2="72" y1="42" y2="46" /><line stroke="rgb(10%,10%,16%)" x1="72" x2="69" y1="46" y2="49" /><line stroke="rgb(10%,10%,16%)" x1="69" x2="69" y1="49" y2="52" /><line stroke="rgb(10%,10%,16%)" x1="69" x2="68" y1="52" y2="53" /><line stroke="rgb(10%,10%,16%)" x1="68" x2="67" y1="53" y2="53" /><line stroke="rgb(10%,10%,16%)" x1="67" x2="67" y1="53" y2="54" /><line stroke="rgb(10%,10%,16%)" x1="67" x2="66" y1="54" y2="55" /><line stroke="rgb(10%,10%,16%)" x1="66" x2="66" y1="55" y2="56" /><line stroke="rgb(10%,10%,16%)" x1="66" x2="64" y1="56" y2="58" /><line stroke="rgb(10%,10%,16%)" x1="64" x2="64" y1="58" y2="60" /><line stroke="rgb(10%,10%,16%)" x1="64" x2="63" y1="60" y2="61" /><line stroke="rgb(10%,10%,16%)" x1="63" x2="63" y1="61" y2="62" /><line stroke="rgb(10%,10%,16%)" x1="63" x2="62" y1="62" y2="63" /><line stroke="rgb(10%,10%,16%)" x1="62" x2="62" y1="63" y2="65" /><line stroke="rgb(10%,10%,16%)" x1="62" x2="61" y1="65" y2="66" /><line stroke="rgb(10%,10%,16%)" x1="61" x2="61" y1="66" y2="71" /><line stroke="rgb(10%,10%,16%)" x1="61" x2="63" y1="71" y2="71" /><line stroke="rgb(10%,10%,16%)" x1="63" x2="64" y1="71" y2="70" /><line stroke="rgb(10%,10%,16%)" x1="64" x2="67" y1="70" y2="70" /><line stroke="rgb(10%,10%,16%)" x1="67" x2="67" y1="70" y2="63" /><line stroke="rgb(10%,10%,16%)" x1="67" x2="69" y1="63" y2="61" /><line stroke="rgb(10%,10%,16%)" x1="69" x2="69" y1="61" y2="60" /><line stroke="rgb(10%,10%,16%)" x1="69" x2="70" y1="60" y2="59" /><line stroke="rgb(10%,10%,16%)" x1="70" x2="70" y1="59" y2="58" /><line stroke="rgb(10%,10%,16%)" x1="70" x2="71" y1="58" y2="57" /><line stroke="rgb(10%,10%,16%)" x1="71" x2="75" y1="57" y2="57" /><line stroke="rgb(10%,10%,16%)" x1="75" x2="76" y1="57" y2="58" /><line stroke="rgb(10%,10%,16%)" x1="76" x2="76" y1="58" y2="57" /><line stroke="rgb(10%,10%,16%)" x1="76" x2="75" y1="57" y2="56" /><line stroke="rgb(10%,10%,16%)" x1="75" x2="75" y1="56" y2="55" /><line stroke="rgb(10%,10%,16%)" x1="75" x2="74" y1="55" y2="54" /><line stroke="rgb(10%,10%,16%)" x1="74" x2="73" y1="54" y2="54" /><line stroke="rgb(10%,10%,16%)" x1="73" x2="71" y1="54" y2="52" /><line stroke="rgb(10%,10%,16%)" x1="71" x2="71" y1="52" y2="50" /><line stroke="rgb(10%,10%,16%)" x1="71" x2="72" y1="50" y2="49" /><line stroke="rgb(10%,10%,16%)" x1="72" x2="72" y1="49" y2="46" /><line stroke="rgb(10%,10%,16%)" x1="72" x2="73" y1="46" y2="45" /><line stroke="rgb(10%,10%,16%)" x1="73" x2="74" y1="45" y2="45" /><line stroke="rgb(10%,10%,16%)" x1="74" x2="77" y1="45" y2="42" /><line stroke="rgb(10%,10%,16%)" x1="77" x2="84" y1="42" y2="42" /><line stroke="rgb(10%,10%,16%)" x1="84" x2="85" y1="42" y2="43" /><line stroke="rgb(10%,10%,16%)" x1="85" x2="85" y1="43" y2="45" /><line stroke="rgb(10%,10%,16%)" x1="85" x2="89" y1="45" y2="45" /><line stroke="rgb(10%,10%,16%)" x1="89" x2="90" y1="45" y2="46" /><line stroke="rgb(10%,10%,16%)" x1="90" x2="90" y1="46" y2="48" /><line stroke="rgb(10%,10%,16%)" x1="90" x2="89" y1="48" y2="49" /><line stroke="rgb(10%,10%,16%)" x1="89" x2="89" y1="49" y2="50" /><line stroke="rgb(10%,10%,16%)" x1="89" x2="88" y1="50" y2="51" /><line stroke="rgb(10%,10%,16%)" x1="88" x2="88" y1="51" y2="52" /><line stroke="rgb(10%,10%,16%)" x1="88" x2="87" y1="52" y2="53" /><line stroke="rgb(10%,10%,16%)" x1="87" x2="87" y1="53" y2="64" /><line stroke="rgb(10%,10%,16%)" x1="87" x2="88" y1="64" y2="65" /><line stroke="rgb(10%,10%,16%)" x1="88" x2="88" y1="65" y2="66" /><line stroke="rgb(10%,10%,16%)" x1="88" x2="89" y1="66" y2="67" /><line stroke="rgb(10%,10%,16%)" x1="89" x2="89" y1="67" y2="69" /><line stroke="rgb(10%,10%,16%)" x1="89" x2="92" y1="69" y2="72" /><line stroke="rgb(10%,10%,16%)" x1="92" x2="93" y1="72" y2="72" /><line stroke="rgb(10%,10%,16%)" x1="93" x2="94" y1="72" y2="73" /><line stroke="rgb(10%,10%,16%)" x1="94" x2="95" y1="73" y2="73" /><line stroke="rgb(10%,10%,16%)" x1="95" x2="92" y1="73" y2="70" /><line stroke="rgb(10%,10%,16%)" x1="92" x2="92" y1="70" y2="69" /><line stroke="rgb(10%,10%,16%)" x1="92" x2="91" y1="69" y2="68" /><line stroke="rgb(10%,10%,16%)" x1="91" x2="91" y1="68" y2="60" /><line stroke="rgb(10%,10%,16%)" x1="91" x2="92" y1="60" y2="59" /><line stroke="rgb(10%,10%,16%)" x1="92" x2="92" y1="59" y2="58" /><line stroke="rgb(10%,10%,16%)" x1="92" x2="97" y1="58" y2="53" /><line stroke="rgb(10%,10%,16%)" x1="97" x2="98" y1="53" y2="53" /><line stroke="rgb(10%,10%,16%)" x1="98" x2="99" y1="53" y2="52" /><line stroke="rgb(10%,10%,16%)" x1="99" x2="101" y1="52" y2="52" /><line stroke="rgb(10%,10%,16%)" x1="101" x2="102" y1="52" y2="51" /><line stroke="rgb(10%,10%,16%)" x1="102" x2="106" y1="51" y2="51" /><line stroke="rgb(10%,10%,16%)" x1="106" x2="107" y1="51" y2="52" /><line stroke="rgb(10%,10%,16%)" x1="107" x2="109" y1="52" y2="52" /><line stroke="rgb(10%,10%,16%)" x1="109" x2="115" y1="52" y2="58" /><line stroke="rgb(10%,10%,16%)" x1="115" x2="115" y1="58" y2="59" /><line stroke="rgb(10%,10%,16%)" x1="115" x2="116" y1="59" y2="60" /><line stroke="rgb(10%,10%,16%)" x1="116" x2="116" y1="60" y2="66" /><line stroke="rgb(10%,10%,16%)" x1="116" x2="115" y1="66" y2="67" /><line stroke="rgb(10%,10%,16%)" x1="115" x2="115" y1="67" y2="69" /><line stroke="rgb(10%,10%,16%)" x1="115" x2="110" y1="69" y2="74" /><line stroke="rgb(10%,10%,16%)" x1="110" x2="112" y1="74" y2="74" /><line stroke="rgb(10%,10%,16%)" x1="112" x2="114" y1="74" y2="72" /><line stroke="rgb(10%,10%,16%)" x1="114" x2="115" y1="72" y2="72" /><line stroke="rgb(10%,10%,16%)" x1="115" x2="117" y1="72" y2="70" /><line stroke="rgb(10%,10%,16%)" x1="117" x2="117" y1="70" y2="69" /><line stroke="rgb(10%,10%,16%)" x1="117" x2="119" y1="69" y2="67" /><line stroke="rgb(10%,10%,16%)" x1="119" x2="119" y1="67" y2="66" /><line stroke="rgb(10%,10%,16%)" x1="119" x2="120" y1="66" y2="65" /><line stroke="rgb(10%,10%,16%)" x1="120" x2="120" y1="65" y2="63" /><line stroke="rgb(10%,10%,16%)" x1="120" x2="121" y1="63" y2="62" /><line stroke="rgb(10%,10%,16%)" x1="121" x2="123" y1="62" y2="62" /><line stroke="rgb(10%,10%,16%)" x1="123" x2="125" y1="62" y2="64" /><line stroke="rgb(10%,10%,16%)" x1="125" x2="125" y1="64" y2="67" /><line stroke="rgb(10%,10%,16%)" x1="125" x2="126" y1="67" y2="68" /><line stroke="rgb(10%,10%,16%)" x1="126" x2="126" y1="68" y2="69" /><line stroke="rgb(10%,10%,16%)" x1="126" x2="132" y1="69" y2="75" /><line stroke="rgb(10%,10%,16%)" x1="132" x2="133" y1="75" y2="75" /><line stroke="rgb(10%,10%,16%)" x1="133" x2="130" y1="75" y2="72" /><line stroke="rgb(10%,10%,16%)" x1="130" x2="130" y1="72" y2="71" /><line stroke="rgb(10%,10%,16%)" x1="130" x2="129" y1="71" y2="70" /><line stroke="rgb(10%,10%,16%)" x1="129" x2="129" y1="70" y2="68" /><line stroke="rgb(10%,10%,16%)" x1="129" x2="128" y1="68" y2="67" /><line stroke="rgb(10%,10%,16%)" x1="128" x2="128" y1="67" y2="63" /><line stroke="rgb(10%,10%,16%)" x1="128" x2="129" y1="63" y2="62" /><line stroke="rgb(10%,10%,16%)" x1="129" x2="129" y1="62" y2="60" /><line stroke="rgb(10%,10%,16%)" x1="129" x2="135" y1="60" y2="54" /><line stroke="rgb(10%,10%,16%)" x1="135" x2="136" y1="54" y2="54" /><line stroke="rgb(10%,10%,16%)" x1="136" x2="137" y1="54" y2="53" /><line stroke="rgb(10%,10%,16%)" x1="137" x2="144" y1="53" y2="53" /><line stroke="rgb(10%,10%,16%)" x1="144" x2="145" y1="53" y2="54" /><line stroke="rgb(10%,10%,16%)" x1="145" x2="146" y1="54" y2="54" /><line stroke="rgb(10%,10%,16%)" x1="146" x2="147" y1="54" y2="55" /><line stroke="rgb(10%,10%,16%)" x1="147" x2="148" y1="55" y2="55" /><line stroke="rgb(10%,10%,16%)" x1="148" x2="152" y1="55" y2="59" /><line stroke="rgb(10%,10%,16%)" x1="152" x2="152" y1="59" y2="60" /><line stroke="rgb(10%,10%,16%)" x1="152" x2="153" y1="60" y2="61" /><line stroke="rgb(10%,10%,16%)" x1="153" x2="153" y1="61" y2="63" /><line stroke="rgb(10%,10%,16%)" x1="153" x2="154" y1="63" y2="64" /><line stroke="rgb(10%,10%,16%)" x1="154" x2="154" y1="64" y2="67" /><line stroke="rgb(10%,10%,16%)" x1="154" x2="153" y1="67" y2="68" /><line stroke="rgb(10%,10%,16%)" x1="153" x2="153" y1="68" y2="70" /><line stroke="rgb(10%,10%,16%)" x1="153" x2="152" y1="70" y2="71" /><line stroke="rgb(10%,10%,16%)" x1="152" x2="152" y1="71" y2="72" /><line stroke="rgb(10%,10%,16%)" x1="152" x2="148" y1="72" y2="76" /><line stroke="rgb(10%,10%,16%)" x1="148" x2="147" y1="76" y2="76" /><line stroke="rgb(10%,10%,16%)" x1="147" x2="149" y1="76" y2="76" /><line stroke="rgb(10%,10%,16%)" x1="149" x2="150" y1="76" y2="75" /><line stroke="rgb(10%,10%,16%)" x1="150" x2="151" y1="75" y2="75" /><line stroke="rgb(10%,10%,16%)" x1="151" x2="156" y1="75" y2="70" /><line stroke="rgb(10%,10%,16%)" x1="156" x2="156" y1="70" y2="69" /><line stroke="rgb(10%,10%,16%)" x1="156" x2="157" y1="69" y2="68" /><line stroke="rgb(10%,10%,16%)" x1="157" x2="157" y1="68" y2="67" /><line stroke="rgb(10%,10%,16%)" x1="157" x2="158" y1="67" y2="66" /><line stroke="rgb(10%,10%,16%)" x1="158" x2="158" y1="66" y2="64" /><line stroke="rgb(10%,10%,16%)" x1="158" x2="159" y1="64" y2="63" /><line stroke="rgb(10%,10%,16%)" x1="159" x2="159" y1="63" y2="58" /><line stroke="rgb(10%,10%,16%)" x1="159" x2="158" y1="58" y2="57" /><line stroke="rgb(10%,10%,16%)" x1="158" x2="158" y1="57" y2="54" /><line stroke="rgb(10%,10%,16%)" x1="158" x2="157" y1="54" y2="53" /><line stroke="rgb(10%,10%,16%)" x1="157" x2="157" y1="53" y2="52" /><line stroke="rgb(10%,10%,16%)" x1="157" x2="156" y1="52" y2="51" /><line stroke="rgb(10%,10%,16%)" x1="156" x2="156" y1="51" y2="50" /><line stroke="rgb(10%,10%,16%)" x1="156" x2="150" y1="50" y2="44" /><line stroke="rgb(10%,10%,16%)" x1="150" x2="149" y1="44" y2="44" /><line stroke="rgb(10%,10%,16%)" x1="149" x2="144" y1="44" y2="39" /><line stroke="rgb(10%,10%,16%)" x1="144" x2="144" y1="39" y2="36" /><line stroke="rgb(10%,10%,16%)" x1="144" x2="146" y1="36" y2="34" /><line stroke="rgb(10%,10%,16%)" x1="146" x2="146" y1="34" y2="29" /><line stroke="rgb(10%,10%,16%)" x1="146" x2="147" y1="29" y2="28" /><line stroke="rgb(10%,10%,16%)" x1="147" x2="149" y1="28" y2="28" /><line stroke="rgb(10%,10%,16%)" x1="149" x2="150" y1="28" y2="29" /><line stroke="rgb(10%,10%,16%)" x1="150" x2="150" y1="29" y2="30" /><line stroke="rgb(10%,10%,16%)" x1="150" x2="152" y1="30" y2="32" /><line stroke="rgb(10%,10%,16%)" x1="152" x2="152" y1="32" y2="33" /><line stroke="rgb(10%,10%,16%)" x1="152" x2="153" y1="33" y2="34" /><line stroke="rgb(10%,10%,16%)" x1="153" x2="153" y1="34" y2="37" /><line stroke="rgb(10%,10%,16%)" x1="153" x2="154" y1="37" y2="38" /><line stroke="rgb(10%,10%,16%)" x1="154" x2="154" y1="38" y2="36" /><line stroke="rgb(10%,10%,16%)" x1="154" x2="153" y1="36" y2="35" /><line stroke="rgb(10%,10%,16%)" x1="153" x2="153" y1="35" y2="29" /><line stroke="rgb(10%,10%,16%)" x1="153" x2="152" y1="29" y2="28" /><line stroke="rgb(10%,10%,16%)" x1="152" x2="152" y1="28" y2="26" /><line stroke="rgb(10%,10%,16%)" x1="152" x2="153" y1="26" y2="25" /><line stroke="rgb(10%,10%,16%)" x1="153" x2="157" y1="25" y2="25" /><line stroke="rgb(10%,10%,16%)" x1="157" x2="157" y1="25" y2="24" /><line stroke="rgb(10%,10%,16%)" x1="157" x2="158" y1="24" y2="23" /><line stroke="rgb(10%,10%,16%)" x1="158" x2="160" y1="23" y2="23" /><line stroke="rgb(10%,10%,16%)" x1="160" x2="161" y1="23" y2="24" /><line stroke="rgb(10%,10%,16%)" x1="161" x2="165" y1="24" y2="24" /><line stroke="rgb(10%,10%,16%)" x1="165" x2="166" y1="24" y2="25" /><line stroke="rgb(10%,10%,16%)" x1="166" x2="167" y1="25" y2="25" /><line stroke="rgb(10%,10%,16%)" x1="167" x2="176" y1="25" y2="34" /><line stroke="rgb(10%,10%,16%)" x1="176" x2="176" y1="34" y2="35" /><line stroke="rgb(10%,10%,16%)" x1="176" x2="179" y1="35" y2="38" /><line stroke="rgb(10%,10%,16%)" x1="179" x2="179" y1="38" y2="39" /><line stroke="rgb(10%,10%,16%)" x1="179" x2="180" y1="39" y2="40" /><line stroke="rgb(10%,10%,16%)" x1="180" x2="180" y1="40" y2="41" /><line stroke="rgb(10%,10%,16%)" x1="180" x2="182" y1="41" y2="43" /><line stroke="rgb(10%,10%,16%)" x1="182" x2="182" y1="43" y2="44" /><line stroke="rgb(10%,10%,16%)" x1="182" x2="183" y1="44" y2="45" /><line stroke="rgb(10%,10%,16%)" x1="183" x2="183" y1="45" y2="46" /><line stroke="rgb(10%,10%,16%)" x1="183" x2="184" y1="46" y2="47" /><line stroke="rgb(10%,10%,16%)" x1="184" x2="184" y1="47" y2="48" /><line stroke="rgb(10%,10%,16%)" x1="184" x2="185" y1="48" y2="49" /><line stroke="rgb(10%,10%,16%)" x1="185" x2="185" y1="49" y2="51" /><line stroke="rgb(10%,10%,16%)" x1="185" x2="186" y1="51" y2="52" /><line stroke="rgb(10%,10%,16%)" x1="186" x2="186" y1="52" y2="54" /><line stroke="rgb(10%,10%,16%)" x1="186" x2="187" y1="54" y2="55" /><line stroke="rgb(10%,10%,16%)" x1="187" x2="187" y1="55" y2="56" /><line stroke="rgb(10%,10%,16%)" x1="187" x2="188" y1="56" y2="57" /><line stroke="rgb(10%,10%,16%)" x1="188" x2="188" y1="57" y2="60" /><line stroke="rgb(10%,10%,16%)" x1="188" x2="189" y1="60" y2="61" /><line stroke="rgb(10%,10%,16%)" x1="189" x2="189" y1="61" y2="65" /><line stroke="rgb(10%,10%,16%)" x1="189" x2="190" y1="65" y2="66" /><line stroke="rgb(10%,10%,16%)" x1="190" x2="190" y1="66" y2="76" /><line stroke="rgb(10%,10%,16%)" x1="190" x2="191" y1="76" y2="77" /><line stroke="rgb(10%,10%,16%)" x1="191" x2="191" y1="77" y2="85" /><line stroke="rgb(10%,10%,16%)" x1="191" x2="190" y1="85" y2="86" /><line stroke="rgb(10%,10%,16%)" x1="190" x2="190" y1="86" y2="93" /><line stroke="rgb(10%,10%,16%)" x1="190" x2="189" y1="93" y2="94" /><line stroke="rgb(10%,10%,16%)" x1="189" x2="189" y1="94" y2="97" /><line stroke="rgb(10%,10%,16%)" x1="189" x2="188" y1="97" y2="98" /><line stroke="rgb(10%,10%,16%)" x1="188" x2="188" y1="98" y2="100" /><line stroke="rgb(10%,10%,16%)" x1="188" x2="187" y1="100" y2="101" /><line stroke="rgb(10%,10%,16%)" x1="187" x2="187" y1="101" y2="104" /><line stroke="rgb(10%,10%,16%)" x1="187" x2="186" y1="104" y2="105" /><line stroke="rgb(10%,10%,16%)" x1="186" x2="186" y1="105" y2="107" /><line stroke="rgb(10%,10%,16%)" x1="186" x2="185" y1="107" y2="108" /><line stroke="rgb(10%,10%,16%)" x1="185" x2="185" y1="108" y2="109" /><line stroke="rgb(10%,10%,16%)" x1="185" x2="184" y1="109" y2="110" /><line stroke="rgb(10%,10%,16%)" x1="184" x2="184" y1="110" y2="112" /><line stroke="rgb(10%,10%,16%)" x1="184" x2="183" y1="112" y2="113" /><line stroke="rgb(10%,10%,16%)" x1="183" x2="183" y1="113" y2="114" /><line stroke="rgb(10%,10%,16%)" x1="183" x2="182" y1="114" y2="115" /><line stroke="rgb(10%,10%,16%)" x1="182" x2="182" y1="115" y2="116" /><line stroke="rgb(10%,10%,16%)" x1="182" x2="181" y1="116" y2="117" /><line stroke="rgb(10%,10%,16%)" x1="181" x2="181" y1="117" y2="118" /><line stroke="rgb(10%,10%,16%)" x1="181" x2="180" y1="118" y2="119" /><line stroke="rgb(10%,10%,16%)" x1="180" x2="180" y1="119" y2="120" /><line stroke="rgb(10%,10%,16%)" x1="180" x2="179" y1="120" y2="121" /><line stroke="rgb(10%,10%,16%)" x1="179" x2="179" y1="121" y2="122" /><line stroke="rgb(10%,10%,16%)" x1="179" x2="177" y1="122" y2="124" /><line stroke="rgb(10%,10%,16%)" x1="177" x2="177" y1="124" y2="125" /><line stroke="rgb(10%,10%,16%)" x1="177" x2="172" y1="125" y2="130" /><line stroke="rgb(10%,10%,16%)" x1="172" x2="172" y1="130" y2="131" /><line stroke="rgb(10%,10%,16%)" x1="172" x2="169" y1="131" y2="134" /><line stroke="rgb(10%,10%,16%)" x1="169" x2="168" y1="134" y2="134" /><line stroke="rgb(10%,10%,16%)" x1="168" x2="163" y1="134" y2="139" /><line stroke="rgb(10%,10%,16%)" x1="163" x2="162" y1="139" y2="139" /><line stroke="rgb(10%,10%,16%)" x1="162" x2="159" y1="139" y2="142" /><line stroke="rgb(10%,10%,16%)" x1="159" x2="158" y1="142" y2="142" /><line stroke="rgb(10%,10%,16%)" x1="158" x2="157" y1="142" y2="143" /><line stroke="rgb(10%,10%,16%)" x1="157" x2="156" y1="143" y2="143" /><line stroke="rgb(10%,10%,16%)" x1="156" x2="154" y1="143" y2="145" /><line stroke="rgb(10%,10%,16%)" x1="154" x2="154" y1="145" y2="146" /><line stroke="rgb(10%,10%,16%)" x1="154" x2="155" y1="146" y2="146" /><line stroke="rgb(10%,10%,16%)" x1="155" x2="156" y1="146" y2="147" /><line stroke="rgb(10%,10%,16%)" x1="156" x2="156" y1="147" y2="151" /><line stroke="rgb(10%,10%,16%)" x1="156" x2="154" y1="151" y2="153" /><line stroke="rgb(10%,10%,16%)" x1="154" x2="153" y1="153" y2="153" /><line stroke="rgb(10%,10%,16%)" x1="153" x2="152" y1="153" y2="154" /><line stroke="rgb(10%,10%,16%)" x1="152" x2="150" y1="154" y2="154" /><line stroke="rgb(10%,10%,16%)" x1="150" x2="149" y1="154" y2="155" /><line stroke="rgb(10%,10%,16%)" x1="149" x2="147" y1="155" y2="155" /><line stroke="rgb(10%,10%,16%)" x1="147" x2="146" y1="155" y2="156" /><line stroke="rgb(10%,10%,16%)" x1="146" x2="143" y1="156" y2="156" /><line stroke="rgb(10%,10%,16%)" x1="143" x2="142" y1="156" y2="157" /><line stroke="rgb(10%,10%,16%)" x1="142" x2="137" y1="157" y2="157" /><line stroke="rgb(10%,10%,16%)" x1="137" x2="136" y1="157" y2="158" /><line stroke="rgb(10%,10%,16%)" x1="136" x2="130" y1="158" y2="158" /><line stroke="rgb(10%,10%,16%)" x1="130" x2="129" y1="158" y2="159" /><line stroke="rgb(10%,10%,16%)" x1="129" x2="125" y1="159" y2="159" /><line stroke="rgb(10%,10%,16%)" x1="125" x2="239" y1="159" y2="159" /><line stroke="rgb(10%,10%,16%)" x1="239" x2="239" y1="159" y2="0" /><line stroke="rgb(10%,10%,16%)" x1="239" x2="0" y1="0" y2="0" /><line stroke="rgb(10%,10%,16%)" x1="0" x2="181" y1="0" y2="117" /><line stroke="rgb(10%,10%,16%)" x1="181" x2="239" y1="117" y2="0" /></g></svg>