<?xml version="1.0" encoding="utf-8" ?>
<svg baseProfile="full" height="160" version="1.1" width="240" xmlns="http://www.w3.org/2000/svg" xmlns:ev="http://www.w3.org/2001/xml-events" xmlns:xlink="http://www.w3.org/1999/xlink"><defs /><g fill="none" id="shapes"><line stroke="rgb(10%,10%,16%)" x1="126" x2="132" y1="21" y2="33" /><line stroke="rgb(10%,10%,16%)" x1="132" x2="126" y1="33" y2="49" /><line stroke="rgb(10%,10%,16%)" x1="126" x2="119" y1="49" y2="42" /><line stroke="rgb(10%,10%,16%)" x1="119" x2="124" y1="42" y2="23" /><line stroke="rgb(10%,10%,16%)" x1="124" x2="159" y1="23" y2="23" /><line stroke="rgb(10%,10%,16%)" x1="159" x2="151" y1="23" y2="29" /><line stroke="rgb(10%,10%,16%)" x1="151" x2="145" y1="29" y2="35" /><line stroke="rgb(10%,10%,16%)" x1="145" x2="157" y1="35" y2="51" /><line stroke="rgb(10%,10%,16%)" x1="157" x2="151" y1="51" y2="59" /><line stroke="rgb(10%,10%,16%)" x1="151" x2="143" y1="59" y2="53" /><line stroke="rgb(10%,10%,16%)" x1="143" x2="130" y1="53" y2="59" /><line stroke="rgb(10%,10%,16%)" x1="130" x2="124" y1="59" y2="66" /><line stroke="rgb(10%,10%,16%)" x1="124" x2="115" y1="66" y2="59" /><line stroke="rgb(10%,10%,16%)" x1="115" x2="109" y1="59" y2="53" /><line stroke="rgb(10%,10%,16%)" x1="109" x2="92" y1="53" y2="59" /><line stroke="rgb(10%,10%,16%)" x1="92" x2="85" y1="59" y2="45" /><line stroke="rgb(10%,10%,16%)" x1="85" x2="76" y1="45" y2="37" /><line stroke="rgb(10%,10%,16%)" x1="76" x2="62" y1="37" y2="43" /><line stroke="rgb(10%,10%,16%)" x1="62" x2="56" y1="43" y2="52" /><line stroke="rgb(10%,10%,16%)" x1="56" x2="50" y1="52" y2="75" /><line stroke="rgb(10%,10%,16%)" x1="50" x2="56" y1="75" y2="114" /><line stroke="rgb(10%,10%,16%)" x1="56" x2="65" y1="114" y2="128" /><line stroke="rgb(10%,10%,16%)" x1="65" x2="73" y1="128" y2="138" /><line stroke="rgb(10%,10%,16%)" x1="73" x2="81" y1="138" y2="144" /><line stroke="rgb(10%,10%,16%)" x1="81" x2="88" y1="144" y2="155" /><line stroke="rgb(10%,10%,16%)" x1="88" x2="81" y1="155" y2="148" /><line stroke="rgb(10%,10%,16%)" x1="81" x2="75" y1="148" y2="139" /><line stroke="rgb(10%,10%,16%)" x1="75" x2="65" y1="139" y2="129" /><line stroke="rgb(10%,10%,16%)" x1="65" x2="59" y1="129" y2="121" /><line stroke="rgb(10%,10%,16%)" x1="59" x2="53" y1="121" y2="107" /><line stroke="rgb(10%,10%,16%)" x1="53" x2="60" y1="107" y2="47" /><line stroke="rgb(10%,10%,16%)" x1="60" x2="70" y1="47" y2="33" /><line stroke="rgb(10%,10%,16%)" x1="70" x2="64" y1="33" y2="57" /><line stroke="rgb(10%,10%,16%)" x1="64" x2="72" y1="57" y2="47" /><line stroke="rgb(10%,10%,16%)" x1="72" x2="87" y1="47" y2="53" /><line stroke="rgb(10%,10%,16%)" x1="87" x2="93" y1="53" y2="73" /><line stroke="rgb(10%,10%,16%)" x1="93" x2="99" y1="73" y2="53" /><line stroke="rgb(10%,10%,16%)" x1="99" x2="115" y1="53" y2="59" /><line stroke="rgb(10%,10%,16%)" x1="115" x2="124" y1="59" y2="66" /><line stroke="rgb(10%,10%,16%)" x1="124" x2="131" y1="66" y2="75" /><line stroke="rgb(10%,10%,16%)" x1="131" x2="137" y1="75" y2="54" /><line stroke="rgb(10%,10%,16%)" x1="137" x2="152" y1="54" y2="60" /><line stroke="rgb(10%,10%,16%)" x1="152" x2="146" y1="60" y2="76" /><line stroke="rgb(10%,10%,16%)" x1="146" x2="156" y1="76" y2="70" /><line stroke="rgb(10%,10%,16%)" x1="156" x2="150" y1="70" y2="44" /><line stroke="rgb(10%,10%,16%)" x1="150" x2="161" y1="44" y2="27" /><line stroke="rgb(10%,10%,16%)" x1="161" x2="176" y1="27" y2="35" /><line stroke="rgb(10%,10%,16%)" x1="176" x2="182" y1="35" y2="44" /><line stroke="rgb(10%,10%,16%)" x1="182" x2="188" y1="44" y2="60" /><line stroke="rgb(10%,10%,16%)" x1="188" x2="182" y1="60" y2="114" /><line stroke="rgb(10%,10%,16%)" x1="182" x2="172" y1="114" y2="129" /><line stroke="rgb(10%,10%,16%)" x1="172" x2="162" y1="129" y2="139" /><line stroke="rgb(10%,10%,16%)" x1="162" x2="154" y1="139" y2="146" /><line stroke="rgb(10%,10%,16%)" x1="154" x2="148" y1="146" y2="154" /><line stroke="rgb(10%,10%,16%)" x1="148" x2="155" y1="154" y2="144" /><line stroke="rgb(10%,10%,16%)" x1="155" x2="163" y1="144" y2="138" /><line stroke="rgb(10%,10%,16%)" x1="163" x2="171" y1="138" y2="132" /><line stroke="rgb(10%,10%,16%)" x1="171" x2="178" y1="132" y2="123" /><line stroke="rgb(10%,10%,16%)" x1="178" x2="184" y1="123" y2="110" /><line stroke="rgb(10%,10%,16%)" x1="184" x2="190" y1="110" y2="86" /><line stroke="rgb(10%,10%,16%)" x1="190" x2="184" y1="86" y2="50" /><line stroke="rgb(10%,10%,16%)" x1="184" x2="178" y1="50" y2="38" /><line stroke="rgb(10%,10%,16%)" x1="178" x2="160" y1="38" y2="24" /></g></svg>