<?xml version="1.0" encoding="utf-8" ?>
<svg baseProfile="full" height="2160" version="1.1" width="3840" xmlns="http://www.w3.org/2000/svg" xmlns:ev="http://www.w3.org/2001/xml-events" xmlns:xlink="http://www.w3.org/1999/xlink"><defs /><g fill="none" id="shapes"><line stroke="rgb(10%,10%,16%)" x1="0" x2="1843" y1="2160" y2="292" /><line stroke="rgb(10%,10%,16%)" x1="1843" x2="1922" y1="292" y2="339" /><line stroke="rgb(10%,10%,16%)" x1="1922" x2="1945" y1="339" y2="389" /><line stroke="rgb(10%,10%,16%)" x1="1945" x2="1969" y1="389" y2="458" /><line stroke="rgb(10%,10%,16%)" x1="1969" x2="1996" y1="458" y2="518" /><line stroke="rgb(10%,10%,16%)" x1="1996" x2="2021" y1="518" y2="566" /><line stroke="rgb(10%,10%,16%)" x1="2021" x2="2049" y1="566" y2="610" /><line stroke="rgb(10%,10%,16%)" x1="2049" x2="2022" y1="610" y2="793" /><line stroke="rgb(10%,10%,16%)" x1="2022" x2="1978" y1="793" y2="703" /><line stroke="rgb(10%,10%,16%)" x1="1978" x2="2010" y1="703" y2="655" /><line stroke="rgb(10%,10%,16%)" x1="2010" x2="1945" y1="655" y2="596" /><line stroke="rgb(10%,10%,16%)" x1="1945" x2="1915" y1="596" y2="673" /><line stroke="rgb(10%,10%,16%)" x1="1915" x2="1875" y1="673" y2="433" /><line stroke="rgb(10%,10%,16%)" x1="1875" x2="1824" y1="433" y2="355" /><line stroke="rgb(10%,10%,16%)" x1="1824" x2="1793" y1="355" y2="393" /><line stroke="rgb(10%,10%,16%)" x1="1793" x2="1748" y1="393" y2="368" /><line stroke="rgb(10%,10%,16%)" x1="1748" x2="1801" y1="368" y2="303" /><line stroke="rgb(10%,10%,16%)" x1="1801" x2="1819" y1="303" y2="292" /><line stroke="rgb(10%,10%,16%)" x1="1819" x2="1736" y1="292" y2="436" /><line stroke="rgb(10%,10%,16%)" x1="1736" x2="1789" y1="436" y2="488" /><line stroke="rgb(10%,10%,16%)" x1="1789" x2="1864" y1="488" y2="554" /><line stroke="rgb(10%,10%,16%)" x1="1864" x2="1847" y1="554" y2="720" /><line stroke="rgb(10%,10%,16%)" x1="1847" x2="1752" y1="720" y2="864" /><line stroke="rgb(10%,10%,16%)" x1="1752" x2="1679" y1="864" y2="795" /><line stroke="rgb(10%,10%,16%)" x1="1679" x2="1820" y1="795" y2="762" /><line stroke="rgb(10%,10%,16%)" x1="1820" x2="1766" y1="762" y2="665" /><line stroke="rgb(10%,10%,16%)" x1="1766" x2="1707" y1="665" y2="602" /><line stroke="rgb(10%,10%,16%)" x1="1707" x2="1652" y1="602" y2="734" /><line stroke="rgb(10%,10%,16%)" x1="1652" x2="1626" y1="734" y2="678" /><line stroke="rgb(10%,10%,16%)" x1="1626" x2="1670" y1="678" y2="590" /><line stroke="rgb(10%,10%,16%)" x1="1670" x2="1761" y1="590" y2="558" /><line stroke="rgb(10%,10%,16%)" x1="1761" x2="1736" y1="558" y2="504" /><line stroke="rgb(10%,10%,16%)" x1="1736" x2="1736" y1="504" y2="437" /><line stroke="rgb(10%,10%,16%)" x1="1736" x2="1610" y1="437" y2="755" /><line stroke="rgb(10%,10%,16%)" x1="1610" x2="1656" y1="755" y2="882" /><line stroke="rgb(10%,10%,16%)" x1="1656" x2="1715" y1="882" y2="939" /><line stroke="rgb(10%,10%,16%)" x1="1715" x2="1961" y1="939" y2="984" /><line stroke="rgb(10%,10%,16%)" x1="1961" x2="2030" y1="984" y2="959" /><line stroke="rgb(10%,10%,16%)" x1="2030" x2="2005" y1="959" y2="1389" /><line stroke="rgb(10%,10%,16%)" x1="2005" x2="1975" y1="1389" y2="1771" /><line stroke="rgb(10%,10%,16%)" x1="1975" x2="1946" y1="1771" y2="1854" /><line stroke="rgb(10%,10%,16%)" x1="1946" x2="1904" y1="1854" y2="2018" /><line stroke="rgb(10%,10%,16%)" x1="1904" x2="1791" y1="2018" y2="1998" /><line stroke="rgb(10%,10%,16%)" x1="1791" x2="1645" y1="1998" y2="1969" /><line stroke="rgb(10%,10%,16%)" x1="1645" x2="1714" y1="1969" y2="1939" /><line stroke="rgb(10%,10%,16%)" x1="1714" x2="1740" y1="1939" y2="1862" /><line stroke="rgb(10%,10%,16%)" x1="1740" x2="1711" y1="1862" y2="1773" /><line stroke="rgb(10%,10%,16%)" x1="1711" x2="1682" y1="1773" y2="1700" /><line stroke="rgb(10%,10%,16%)" x1="1682" x2="1652" y1="1700" y2="1540" /><line stroke="rgb(10%,10%,16%)" x1="1652" x2="1601" y1="1540" y2="907" /><line stroke="rgb(10%,10%,16%)" x1="1601" x2="1610" y1="907" y2="764" /><line stroke="rgb(10%,10%,16%)" x1="1610" x2="1981" y1="764" y2="795" /><line stroke="rgb(10%,10%,16%)" x1="1981" x2="2004" y1="795" y2="814" /><line stroke="rgb(10%,10%,16%)" x1="2004" x2="2022" y1="814" y2="840" /><line stroke="rgb(10%,10%,16%)" x1="2022" x2="2000" y1="840" y2="900" /><line stroke="rgb(10%,10%,16%)" x1="2000" x2="1981" y1="900" y2="870" /><line stroke="rgb(10%,10%,16%)" x1="1981" x2="1963" y1="870" y2="840" /><line stroke="rgb(10%,10%,16%)" x1="1963" x2="1979" y1="840" y2="797" /><line stroke="rgb(10%,10%,16%)" x1="1979" x2="1857" y1="797" y2="978" /><line stroke="rgb(10%,10%,16%)" x1="1857" x2="1781" y1="978" y2="1018" /><line stroke="rgb(10%,10%,16%)" x1="1781" x2="1763" y1="1018" y2="1071" /><line stroke="rgb(10%,10%,16%)" x1="1763" x2="1849" y1="1071" y2="1151" /><line stroke="rgb(10%,10%,16%)" x1="1849" x2="1897" y1="1151" y2="1185" /><line stroke="rgb(10%,10%,16%)" x1="1897" x2="1939" y1="1185" y2="1166" /><line stroke="rgb(10%,10%,16%)" x1="1939" x2="1971" y1="1166" y2="1134" /><line stroke="rgb(10%,10%,16%)" x1="1971" x2="1955" y1="1134" y2="1102" /><line stroke="rgb(10%,10%,16%)" x1="1955" x2="1934" y1="1102" y2="1075" /><line stroke="rgb(10%,10%,16%)" x1="1934" x2="1890" y1="1075" y2="1051" /><line stroke="rgb(10%,10%,16%)" x1="1890" x2="1939" y1="1051" y2="1002" /><line stroke="rgb(10%,10%,16%)" x1="1939" x2="1891" y1="1002" y2="981" /><line stroke="rgb(10%,10%,16%)" x1="1891" x2="1868" y1="981" y2="978" /><line stroke="rgb(10%,10%,16%)" x1="1868" x2="1819" y1="978" y2="986" /><line stroke="rgb(10%,10%,16%)" x1="1819" x2="1863" y1="986" y2="1011" /><line stroke="rgb(10%,10%,16%)" x1="1863" x2="1815" y1="1011" y2="988" /><line stroke="rgb(10%,10%,16%)" x1="1815" x2="1817" y1="988" y2="986" /><line stroke="rgb(10%,10%,16%)" x1="1817" x2="1743" y1="986" y2="1184" /><line stroke="rgb(10%,10%,16%)" x1="1743" x2="1723" y1="1184" y2="1206" /><line stroke="rgb(10%,10%,16%)" x1="1723" x2="1743" y1="1206" y2="1282" /><line stroke="rgb(10%,10%,16%)" x1="1743" x2="1763" y1="1282" y2="1264" /><line stroke="rgb(10%,10%,16%)" x1="1763" x2="1780" y1="1264" y2="1208" /><line stroke="rgb(10%,10%,16%)" x1="1780" x2="1756" y1="1208" y2="1188" /><line stroke="rgb(10%,10%,16%)" x1="1756" x2="1750" y1="1188" y2="1184" /><line stroke="rgb(10%,10%,16%)" x1="1750" x2="1835" y1="1184" y2="1283" /><line stroke="rgb(10%,10%,16%)" x1="1835" x2="1814" y1="1283" y2="1364" /><line stroke="rgb(10%,10%,16%)" x1="1814" x2="1794" y1="1364" y2="1443" /><line stroke="rgb(10%,10%,16%)" x1="1794" x2="1774" y1="1443" y2="1566" /><line stroke="rgb(10%,10%,16%)" x1="1774" x2="1794" y1="1566" y2="1654" /><line stroke="rgb(10%,10%,16%)" x1="1794" x2="1819" y1="1654" y2="1889" /><line stroke="rgb(10%,10%,16%)" x1="1819" x2="1845" y1="1889" y2="1910" /><line stroke="rgb(10%,10%,16%)" x1="1845" x2="1895" y1="1910" y2="1884" /><line stroke="rgb(10%,10%,16%)" x1="1895" x2="1876" y1="1884" y2="1840" /><line stroke="rgb(10%,10%,16%)" x1="1876" x2="1859" y1="1840" y2="1369" /><line stroke="rgb(10%,10%,16%)" x1="1859" x2="1838" y1="1369" y2="1284" /><line stroke="rgb(10%,10%,16%)" x1="1838" x2="1837" y1="1284" y2="1283" /></g></svg>