<?xml version="1.0" standalone="no"?>
<!DOCTYPE svg PUBLIC "-//W3C//DTD SVG 20010904//EN"
"http://www.w3.org/TR/2001/REC-SVG-20010904/DTD/svg10.dtd">

<svg version="1.0" xmlns="http://www.w3.org/2000/svg" width="773pt" height="541pt"> 

	<metadata>
		Created by openCV 4.0, written by Andrew Ditty, Ivy Pan, Kenny Sexton, Jesse Dewald,
		Andrew Eels, Sage Vega, Zhuonan Zhou, Nan Wang, Ty Dollas, Hodgy Daddies, Left Brizzle, 
		Domyon, Frankie Ocean, Syd the Dude, L-Boy

		2019 - Temple University - CIS 4398 - Professor Wang - Spring
	</metadata>

	<g fill="none" stroke="#000000">
		<path d="M139 137 C121 143 111 149 102 156 95 166 89 179 95 225 101 234 107 241 116 247 131 253 175 247 184 241 191 235 198 225 204 208 198 168 192 159 184 150 175 144 159 138 "/>
		<path d="M481 196 C481 196 523 205 516 215 510 226 504 243 498 230 492 215 486 205 "/>
		<path d="M482 195 C490 210 496 223 502 243 508 232 515 218 522 208 532 197 "/>
		<path d="M496 20 C496 20 537 26 549 33 571 53 578 63 584 76 578 154 571 165 561 176 639 182 650 189 670 207 677 217 683 229 689 253 683 293 677 306 670 316 653 334 644 340 632 346 611 352 560 346 548 340 539 334 521 317 515 308 509 297 502 278 496 300 490 313 484 322 478 329 467 340 458 346 442 352 396 346 387 340 369 323 362 313 356 300 350 279 356 225 362 212 370 200 385 184 394 178 211 185 205 227 186 250 177 256 160 262 116 256 107 250 92 236 86 227 80 211 86 166 93 156 105 143 115 136 131 130 176 136 186 143 199 155 205 164 436 170 430 150 424 136 430 68 436 58 456 36 466 29 479 23 "/>
		<path d="M497 19 C476 25 462 32 440 51 433 61 427 73 421 95 427 143 433 155 440 166 202 160 189 144 179 137 164 131 114 137 104 144 94 153 87 163 81 178 87 228 93 237 104 249 113 255 129 261 178 255 187 249 199 238 205 229 211 213 365 174 391 180 371 197 365 206 359 217 353 231 359 306 365 317 384 339 393 345 407 351 459 345 468 339 475 333 483 325 489 316 495 304 501 285 507 292 513 304 520 315 536 333 545 339 556 345 575 351 633 345 645 339 654 333 669 319 675 311 681 300 687 282 681 226 674 213 657 193 647 186 636 180 619 174 570 168 576 159 582 147 588 128 582 72 575 59 556 37 546 30 533 24 "/>
		<path d="M581 179 C581 179 627 185 639 191 649 198 662 210 669 220 675 231 669 303 662 313 651 325 643 331 632 337 613 343 559 337 546 330 527 314 521 306 515 296 509 279 515 228 521 218 538 198 546 192 556 186 573 180 "/>
	</g>
	Sorry, your browser does not support inline SVG.
</svg>