<?xml version="1.0" encoding="utf-8" ?>
<svg baseProfile="full" height="1129" version="1.1" width="1701" xmlns="http://www.w3.org/2000/svg" xmlns:ev="http://www.w3.org/2001/xml-events" xmlns:xlink="http://www.w3.org/1999/xlink"><defs /><g fill="none" id="shapes"><line stroke="rgb(10%,10%,16%)" x1="0" x2="0" y1="1129" y2="0" /><line stroke="rgb(10%,10%,16%)" x1="0" x2="257" y1="0" y2="1105" /><line stroke="rgb(10%,10%,16%)" x1="257" x2="280" y1="1105" y2="1073" /><line stroke="rgb(10%,10%,16%)" x1="280" x2="314" y1="1073" y2="1031" /><line stroke="rgb(10%,10%,16%)" x1="314" x2="348" y1="1031" y2="1001" /><line stroke="rgb(10%,10%,16%)" x1="348" x2="376" y1="1001" y2="979" /><line stroke="rgb(10%,10%,16%)" x1="376" x2="408" y1="979" y2="956" /><line stroke="rgb(10%,10%,16%)" x1="408" x2="432" y1="956" y2="938" /><line stroke="rgb(10%,10%,16%)" x1="432" x2="455" y1="938" y2="925" /><line stroke="rgb(10%,10%,16%)" x1="455" x2="489" y1="925" y2="895" /><line stroke="rgb(10%,10%,16%)" x1="489" x2="523" y1="895" y2="873" /><line stroke="rgb(10%,10%,16%)" x1="523" x2="545" y1="873" y2="862" /><line stroke="rgb(10%,10%,16%)" x1="545" x2="565" y1="862" y2="849" /><line stroke="rgb(10%,10%,16%)" x1="565" x2="588" y1="849" y2="826" /><line stroke="rgb(10%,10%,16%)" x1="588" x2="612" y1="826" y2="802" /><line stroke="rgb(10%,10%,16%)" x1="612" x2="653" y1="802" y2="777" /><line stroke="rgb(10%,10%,16%)" x1="653" x2="696" y1="777" y2="784" /><line stroke="rgb(10%,10%,16%)" x1="696" x2="690" y1="784" y2="714" /><line stroke="rgb(10%,10%,16%)" x1="690" x2="675" y1="714" y2="683" /><line stroke="rgb(10%,10%,16%)" x1="675" x2="659" y1="683" y2="630" /><line stroke="rgb(10%,10%,16%)" x1="659" x2="631" y1="630" y2="597" /><line stroke="rgb(10%,10%,16%)" x1="631" x2="615" y1="597" y2="544" /><line stroke="rgb(10%,10%,16%)" x1="615" x2="605" y1="544" y2="518" /><line stroke="rgb(10%,10%,16%)" x1="605" x2="594" y1="518" y2="494" /><line stroke="rgb(10%,10%,16%)" x1="594" x2="583" y1="494" y2="465" /><line stroke="rgb(10%,10%,16%)" x1="583" x2="569" y1="465" y2="438" /><line stroke="rgb(10%,10%,16%)" x1="569" x2="556" y1="438" y2="330" /><line stroke="rgb(10%,10%,16%)" x1="556" x2="571" y1="330" y2="271" /><line stroke="rgb(10%,10%,16%)" x1="571" x2="564" y1="271" y2="225" /><line stroke="rgb(10%,10%,16%)" x1="564" x2="590" y1="225" y2="188" /><line stroke="rgb(10%,10%,16%)" x1="590" x2="623" y1="188" y2="153" /><line stroke="rgb(10%,10%,16%)" x1="623" x2="647" y1="153" y2="128" /><line stroke="rgb(10%,10%,16%)" x1="647" x2="630" y1="128" y2="104" /><line stroke="rgb(10%,10%,16%)" x1="630" x2="662" y1="104" y2="87" /><line stroke="rgb(10%,10%,16%)" x1="662" x2="706" y1="87" y2="120" /><line stroke="rgb(10%,10%,16%)" x1="706" x2="723" y1="120" y2="141" /><line stroke="rgb(10%,10%,16%)" x1="723" x2="771" y1="141" y2="169" /><line stroke="rgb(10%,10%,16%)" x1="771" x2="789" y1="169" y2="204" /><line stroke="rgb(10%,10%,16%)" x1="789" x2="808" y1="204" y2="187" /><line stroke="rgb(10%,10%,16%)" x1="808" x2="823" y1="187" y2="163" /><line stroke="rgb(10%,10%,16%)" x1="823" x2="817" y1="163" y2="221" /><line stroke="rgb(10%,10%,16%)" x1="817" x2="855" y1="221" y2="190" /><line stroke="rgb(10%,10%,16%)" x1="855" x2="914" y1="190" y2="180" /><line stroke="rgb(10%,10%,16%)" x1="914" x2="902" y1="180" y2="218" /><line stroke="rgb(10%,10%,16%)" x1="902" x2="893" y1="218" y2="231" /><line stroke="rgb(10%,10%,16%)" x1="893" x2="935" y1="231" y2="189" /><line stroke="rgb(10%,10%,16%)" x1="935" x2="925" y1="189" y2="151" /><line stroke="rgb(10%,10%,16%)" x1="925" x2="897" y1="151" y2="122" /><line stroke="rgb(10%,10%,16%)" x1="897" x2="874" y1="122" y2="143" /><line stroke="rgb(10%,10%,16%)" x1="874" x2="817" y1="143" y2="137" /><line stroke="rgb(10%,10%,16%)" x1="817" x2="800" y1="137" y2="116" /><line stroke="rgb(10%,10%,16%)" x1="800" x2="758" y1="116" y2="133" /><line stroke="rgb(10%,10%,16%)" x1="758" x2="712" y1="133" y2="119" /><line stroke="rgb(10%,10%,16%)" x1="712" x2="737" y1="119" y2="77" /><line stroke="rgb(10%,10%,16%)" x1="737" x2="762" y1="77" y2="45" /><line stroke="rgb(10%,10%,16%)" x1="762" x2="874" y1="45" y2="62" /><line stroke="rgb(10%,10%,16%)" x1="874" x2="927" y1="62" y2="72" /><line stroke="rgb(10%,10%,16%)" x1="927" x2="967" y1="72" y2="83" /><line stroke="rgb(10%,10%,16%)" x1="967" x2="994" y1="83" y2="106" /><line stroke="rgb(10%,10%,16%)" x1="994" x2="1015" y1="106" y2="122" /><line stroke="rgb(10%,10%,16%)" x1="1015" x2="994" y1="122" y2="176" /><line stroke="rgb(10%,10%,16%)" x1="994" x2="1004" y1="176" y2="214" /><line stroke="rgb(10%,10%,16%)" x1="1004" x2="1039" y1="214" y2="171" /><line stroke="rgb(10%,10%,16%)" x1="1039" x2="1064" y1="171" y2="203" /><line stroke="rgb(10%,10%,16%)" x1="1064" x2="1079" y1="203" y2="245" /><line stroke="rgb(10%,10%,16%)" x1="1079" x2="1089" y1="245" y2="294" /><line stroke="rgb(10%,10%,16%)" x1="1089" x2="1106" y1="294" y2="356" /><line stroke="rgb(10%,10%,16%)" x1="1106" x2="1091" y1="356" y2="418" /><line stroke="rgb(10%,10%,16%)" x1="1091" x2="1062" y1="418" y2="449" /><line stroke="rgb(10%,10%,16%)" x1="1062" x2="1069" y1="449" y2="509" /><line stroke="rgb(10%,10%,16%)" x1="1069" x2="1083" y1="509" y2="548" /><line stroke="rgb(10%,10%,16%)" x1="1083" x2="1062" y1="548" y2="565" /><line stroke="rgb(10%,10%,16%)" x1="1062" x2="1049" y1="565" y2="688" /><line stroke="rgb(10%,10%,16%)" x1="1049" x2="1031" y1="688" y2="718" /><line stroke="rgb(10%,10%,16%)" x1="1031" x2="1019" y1="718" y2="744" /><line stroke="rgb(10%,10%,16%)" x1="1019" x2="1000" y1="744" y2="771" /><line stroke="rgb(10%,10%,16%)" x1="1000" x2="980" y1="771" y2="807" /><line stroke="rgb(10%,10%,16%)" x1="980" x2="959" y1="807" y2="840" /><line stroke="rgb(10%,10%,16%)" x1="959" x2="933" y1="840" y2="856" /><line stroke="rgb(10%,10%,16%)" x1="933" x2="828" y1="856" y2="849" /><line stroke="rgb(10%,10%,16%)" x1="828" x2="755" y1="849" y2="895" /><line stroke="rgb(10%,10%,16%)" x1="755" x2="726" y1="895" y2="876" /><line stroke="rgb(10%,10%,16%)" x1="726" x2="691" y1="876" y2="847" /><line stroke="rgb(10%,10%,16%)" x1="691" x2="661" y1="847" y2="830" /><line stroke="rgb(10%,10%,16%)" x1="661" x2="627" y1="830" y2="866" /><line stroke="rgb(10%,10%,16%)" x1="627" x2="560" y1="866" y2="894" /><line stroke="rgb(10%,10%,16%)" x1="560" x2="577" y1="894" y2="937" /><line stroke="rgb(10%,10%,16%)" x1="577" x2="509" y1="937" y2="948" /><line stroke="rgb(10%,10%,16%)" x1="509" x2="467" y1="948" y2="983" /><line stroke="rgb(10%,10%,16%)" x1="467" x2="429" y1="983" y2="1025" /><line stroke="rgb(10%,10%,16%)" x1="429" x2="368" y1="1025" y2="1054" /><line stroke="rgb(10%,10%,16%)" x1="368" x2="334" y1="1054" y2="1087" /><line stroke="rgb(10%,10%,16%)" x1="334" x2="309" y1="1087" y2="1117" /><line stroke="rgb(10%,10%,16%)" x1="309" x2="1360" y1="1117" y2="1079" /><line stroke="rgb(10%,10%,16%)" x1="1360" x2="1336" y1="1079" y2="1043" /><line stroke="rgb(10%,10%,16%)" x1="1336" x2="1310" y1="1043" y2="987" /><line stroke="rgb(10%,10%,16%)" x1="1310" x2="1292" y1="987" y2="948" /><line stroke="rgb(10%,10%,16%)" x1="1292" x2="1246" y1="948" y2="933" /><line stroke="rgb(10%,10%,16%)" x1="1246" x2="1204" y1="933" y2="914" /><line stroke="rgb(10%,10%,16%)" x1="1204" x2="1186" y1="914" y2="885" /><line stroke="rgb(10%,10%,16%)" x1="1186" x2="1144" y1="885" y2="864" /><line stroke="rgb(10%,10%,16%)" x1="1144" x2="1119" y1="864" y2="830" /><line stroke="rgb(10%,10%,16%)" x1="1119" x2="1091" y1="830" y2="813" /><line stroke="rgb(10%,10%,16%)" x1="1091" x2="1109" y1="813" y2="797" /><line stroke="rgb(10%,10%,16%)" x1="1109" x2="1137" y1="797" y2="808" /><line stroke="rgb(10%,10%,16%)" x1="1137" x2="1165" y1="808" y2="819" /><line stroke="rgb(10%,10%,16%)" x1="1165" x2="1191" y1="819" y2="830" /><line stroke="rgb(10%,10%,16%)" x1="1191" x2="1215" y1="830" y2="841" /><line stroke="rgb(10%,10%,16%)" x1="1215" x2="1239" y1="841" y2="857" /><line stroke="rgb(10%,10%,16%)" x1="1239" x2="1266" y1="857" y2="868" /><line stroke="rgb(10%,10%,16%)" x1="1266" x2="1288" y1="868" y2="881" /><line stroke="rgb(10%,10%,16%)" x1="1288" x2="1311" y1="881" y2="893" /><line stroke="rgb(10%,10%,16%)" x1="1311" x2="1350" y1="893" y2="928" /><line stroke="rgb(10%,10%,16%)" x1="1350" x2="1361" y1="928" y2="949" /><line stroke="rgb(10%,10%,16%)" x1="1361" x2="1372" y1="949" y2="975" /><line stroke="rgb(10%,10%,16%)" x1="1372" x2="1384" y1="975" y2="999" /><line stroke="rgb(10%,10%,16%)" x1="1384" x2="1395" y1="999" y2="1024" /><line stroke="rgb(10%,10%,16%)" x1="1395" x2="1406" y1="1024" y2="1051" /><line stroke="rgb(10%,10%,16%)" x1="1406" x2="1417" y1="1051" y2="1080" /><line stroke="rgb(10%,10%,16%)" x1="1417" x2="1428" y1="1080" y2="1111" /><line stroke="rgb(10%,10%,16%)" x1="1428" x2="1700" y1="1111" y2="0" /><line stroke="rgb(10%,10%,16%)" x1="1700" x2="691" y1="0" y2="153" /><line stroke="rgb(10%,10%,16%)" x1="691" x2="692" y1="153" y2="154" /><line stroke="rgb(10%,10%,16%)" x1="692" x2="757" y1="154" y2="193" /><line stroke="rgb(10%,10%,16%)" x1="757" x2="757" y1="193" y2="196" /><line stroke="rgb(10%,10%,16%)" x1="757" x2="643" y1="196" y2="198" /><line stroke="rgb(10%,10%,16%)" x1="643" x2="644" y1="198" y2="198" /><line stroke="rgb(10%,10%,16%)" x1="644" x2="944" y1="198" y2="230" /><line stroke="rgb(10%,10%,16%)" x1="944" x2="949" y1="230" y2="230" /><line stroke="rgb(10%,10%,16%)" x1="949" x2="1000" y1="230" y2="434" /><line stroke="rgb(10%,10%,16%)" x1="1000" x2="1000" y1="434" y2="436" /><line stroke="rgb(10%,10%,16%)" x1="1000" x2="981" y1="436" y2="468" /><line stroke="rgb(10%,10%,16%)" x1="981" x2="981" y1="468" y2="480" /><line stroke="rgb(10%,10%,16%)" x1="981" x2="952" y1="480" y2="669" /><line stroke="rgb(10%,10%,16%)" x1="952" x2="951" y1="669" y2="669" /><line stroke="rgb(10%,10%,16%)" x1="951" x2="822" y1="669" y2="712" /><line stroke="rgb(10%,10%,16%)" x1="822" x2="822" y1="712" y2="734" /><line stroke="rgb(10%,10%,16%)" x1="822" x2="819" y1="734" y2="751" /><line stroke="rgb(10%,10%,16%)" x1="819" x2="819" y1="751" y2="763" /><line stroke="rgb(10%,10%,16%)" x1="819" x2="905" y1="763" y2="761" /><line stroke="rgb(10%,10%,16%)" x1="905" x2="904" y1="761" y2="761" /></g></svg>