<?xml version="1.0" encoding="utf-8" ?>
<svg baseProfile="full" height="2160" version="1.1" width="3840" xmlns="http://www.w3.org/2000/svg" xmlns:ev="http://www.w3.org/2001/xml-events" xmlns:xlink="http://www.w3.org/1999/xlink"><defs /><g fill="none" id="shapes"><line stroke="rgb(10%,10%,16%)" x1="1817" x2="1860" y1="270" y2="270" /><line stroke="rgb(10%,10%,16%)" x1="1860" x2="1871" y1="270" y2="280" /><line stroke="rgb(10%,10%,16%)" x1="1871" x2="1882" y1="280" y2="280" /><line stroke="rgb(10%,10%,16%)" x1="1882" x2="1925" y1="280" y2="324" /><line stroke="rgb(10%,10%,16%)" x1="1925" x2="1925" y1="324" y2="334" /><line stroke="rgb(10%,10%,16%)" x1="1925" x2="1936" y1="334" y2="345" /><line stroke="rgb(10%,10%,16%)" x1="1936" x2="1936" y1="345" y2="356" /><line stroke="rgb(10%,10%,16%)" x1="1936" x2="1947" y1="356" y2="367" /><line stroke="rgb(10%,10%,16%)" x1="1947" x2="1947" y1="367" y2="388" /><line stroke="rgb(10%,10%,16%)" x1="1947" x2="1957" y1="388" y2="399" /><line stroke="rgb(10%,10%,16%)" x1="1957" x2="1957" y1="399" y2="421" /><line stroke="rgb(10%,10%,16%)" x1="1957" x2="1968" y1="421" y2="432" /><line stroke="rgb(10%,10%,16%)" x1="1968" x2="1968" y1="432" y2="442" /><line stroke="rgb(10%,10%,16%)" x1="1968" x2="1979" y1="442" y2="453" /><line stroke="rgb(10%,10%,16%)" x1="1979" x2="1979" y1="453" y2="475" /><line stroke="rgb(10%,10%,16%)" x1="1979" x2="1990" y1="475" y2="486" /><line stroke="rgb(10%,10%,16%)" x1="1990" x2="1990" y1="486" y2="496" /><line stroke="rgb(10%,10%,16%)" x1="1990" x2="2001" y1="496" y2="507" /><line stroke="rgb(10%,10%,16%)" x1="2001" x2="2001" y1="507" y2="518" /><line stroke="rgb(10%,10%,16%)" x1="2001" x2="2011" y1="518" y2="529" /><line stroke="rgb(10%,10%,16%)" x1="2011" x2="2011" y1="529" y2="540" /><line stroke="rgb(10%,10%,16%)" x1="2011" x2="2022" y1="540" y2="550" /><line stroke="rgb(10%,10%,16%)" x1="2022" x2="2022" y1="550" y2="561" /><line stroke="rgb(10%,10%,16%)" x1="2022" x2="2033" y1="561" y2="572" /><line stroke="rgb(10%,10%,16%)" x1="2033" x2="2033" y1="572" y2="583" /><line stroke="rgb(10%,10%,16%)" x1="2033" x2="2055" y1="583" y2="604" /><line stroke="rgb(10%,10%,16%)" x1="2055" x2="2055" y1="604" y2="615" /><line stroke="rgb(10%,10%,16%)" x1="2055" x2="2066" y1="615" y2="626" /><line stroke="rgb(10%,10%,16%)" x1="2066" x2="2066" y1="626" y2="702" /><line stroke="rgb(10%,10%,16%)" x1="2066" x2="2044" y1="702" y2="723" /><line stroke="rgb(10%,10%,16%)" x1="2044" x2="2044" y1="723" y2="788" /><line stroke="rgb(10%,10%,16%)" x1="2044" x2="2022" y1="788" y2="810" /><line stroke="rgb(10%,10%,16%)" x1="2022" x2="2022" y1="810" y2="842" /><line stroke="rgb(10%,10%,16%)" x1="2022" x2="2033" y1="842" y2="853" /><line stroke="rgb(10%,10%,16%)" x1="2033" x2="2033" y1="853" y2="1047" /><line stroke="rgb(10%,10%,16%)" x1="2033" x2="2044" y1="1047" y2="1058" /><line stroke="rgb(10%,10%,16%)" x1="2044" x2="2044" y1="1058" y2="1101" /><line stroke="rgb(10%,10%,16%)" x1="2044" x2="2033" y1="1101" y2="1112" /><line stroke="rgb(10%,10%,16%)" x1="2033" x2="2033" y1="1112" y2="1252" /><line stroke="rgb(10%,10%,16%)" x1="2033" x2="2022" y1="1252" y2="1263" /><line stroke="rgb(10%,10%,16%)" x1="2022" x2="2022" y1="1263" y2="1285" /><line stroke="rgb(10%,10%,16%)" x1="2022" x2="2011" y1="1285" y2="1296" /><line stroke="rgb(10%,10%,16%)" x1="2011" x2="2011" y1="1296" y2="1382" /><line stroke="rgb(10%,10%,16%)" x1="2011" x2="2001" y1="1382" y2="1393" /><line stroke="rgb(10%,10%,16%)" x1="2001" x2="2001" y1="1393" y2="1695" /><line stroke="rgb(10%,10%,16%)" x1="2001" x2="1990" y1="1695" y2="1706" /><line stroke="rgb(10%,10%,16%)" x1="1990" x2="1990" y1="1706" y2="1738" /><line stroke="rgb(10%,10%,16%)" x1="1990" x2="1979" y1="1738" y2="1749" /><line stroke="rgb(10%,10%,16%)" x1="1979" x2="1979" y1="1749" y2="1782" /><line stroke="rgb(10%,10%,16%)" x1="1979" x2="1968" y1="1782" y2="1792" /><line stroke="rgb(10%,10%,16%)" x1="1968" x2="1968" y1="1792" y2="1803" /><line stroke="rgb(10%,10%,16%)" x1="1968" x2="1957" y1="1803" y2="1814" /><line stroke="rgb(10%,10%,16%)" x1="1957" x2="1957" y1="1814" y2="1836" /><line stroke="rgb(10%,10%,16%)" x1="1957" x2="1947" y1="1836" y2="1846" /><line stroke="rgb(10%,10%,16%)" x1="1947" x2="1947" y1="1846" y2="1900" /><line stroke="rgb(10%,10%,16%)" x1="1947" x2="1957" y1="1900" y2="1911" /><line stroke="rgb(10%,10%,16%)" x1="1957" x2="1957" y1="1911" y2="1965" /><line stroke="rgb(10%,10%,16%)" x1="1957" x2="1892" y1="1965" y2="2030" /><line stroke="rgb(10%,10%,16%)" x1="1892" x2="1882" y1="2030" y2="2030" /><line stroke="rgb(10%,10%,16%)" x1="1882" x2="1871" y1="2030" y2="2041" /><line stroke="rgb(10%,10%,16%)" x1="1871" x2="1784" y1="2041" y2="2041" /><line stroke="rgb(10%,10%,16%)" x1="1784" x2="1763" y1="2041" y2="2019" /><line stroke="rgb(10%,10%,16%)" x1="1763" x2="1763" y1="2019" y2="1998" /><line stroke="rgb(10%,10%,16%)" x1="1763" x2="1741" y1="1998" y2="1998" /><line stroke="rgb(10%,10%,16%)" x1="1741" x2="1730" y1="1998" y2="2008" /><line stroke="rgb(10%,10%,16%)" x1="1730" x2="1644" y1="2008" y2="2008" /><line stroke="rgb(10%,10%,16%)" x1="1644" x2="1633" y1="2008" y2="1998" /><line stroke="rgb(10%,10%,16%)" x1="1633" x2="1633" y1="1998" y2="1954" /><line stroke="rgb(10%,10%,16%)" x1="1633" x2="1665" y1="1954" y2="1922" /><line stroke="rgb(10%,10%,16%)" x1="1665" x2="1665" y1="1922" y2="1911" /><line stroke="rgb(10%,10%,16%)" x1="1665" x2="1687" y1="1911" y2="1890" /><line stroke="rgb(10%,10%,16%)" x1="1687" x2="1687" y1="1890" y2="1879" /><line stroke="rgb(10%,10%,16%)" x1="1687" x2="1709" y1="1879" y2="1857" /><line stroke="rgb(10%,10%,16%)" x1="1709" x2="1709" y1="1857" y2="1803" /><line stroke="rgb(10%,10%,16%)" x1="1709" x2="1698" y1="1803" y2="1792" /><line stroke="rgb(10%,10%,16%)" x1="1698" x2="1698" y1="1792" y2="1771" /><line stroke="rgb(10%,10%,16%)" x1="1698" x2="1687" y1="1771" y2="1760" /><line stroke="rgb(10%,10%,16%)" x1="1687" x2="1687" y1="1760" y2="1749" /><line stroke="rgb(10%,10%,16%)" x1="1687" x2="1676" y1="1749" y2="1738" /><line stroke="rgb(10%,10%,16%)" x1="1676" x2="1676" y1="1738" y2="1717" /><line stroke="rgb(10%,10%,16%)" x1="1676" x2="1665" y1="1717" y2="1706" /><line stroke="rgb(10%,10%,16%)" x1="1665" x2="1665" y1="1706" y2="1695" /><line stroke="rgb(10%,10%,16%)" x1="1665" x2="1654" y1="1695" y2="1684" /><line stroke="rgb(10%,10%,16%)" x1="1654" x2="1654" y1="1684" y2="1663" /><line stroke="rgb(10%,10%,16%)" x1="1654" x2="1644" y1="1663" y2="1652" /><line stroke="rgb(10%,10%,16%)" x1="1644" x2="1644" y1="1652" y2="1609" /><line stroke="rgb(10%,10%,16%)" x1="1644" x2="1633" y1="1609" y2="1598" /><line stroke="rgb(10%,10%,16%)" x1="1633" x2="1633" y1="1598" y2="1479" /><line stroke="rgb(10%,10%,16%)" x1="1633" x2="1622" y1="1479" y2="1468" /><line stroke="rgb(10%,10%,16%)" x1="1622" x2="1622" y1="1468" y2="1306" /><line stroke="rgb(10%,10%,16%)" x1="1622" x2="1633" y1="1306" y2="1296" /><line stroke="rgb(10%,10%,16%)" x1="1633" x2="1633" y1="1296" y2="1134" /><line stroke="rgb(10%,10%,16%)" x1="1633" x2="1622" y1="1134" y2="1123" /><line stroke="rgb(10%,10%,16%)" x1="1622" x2="1622" y1="1123" y2="1069" /><line stroke="rgb(10%,10%,16%)" x1="1622" x2="1633" y1="1069" y2="1058" /><line stroke="rgb(10%,10%,16%)" x1="1633" x2="1633" y1="1058" y2="1026" /><line stroke="rgb(10%,10%,16%)" x1="1633" x2="1644" y1="1026" y2="1015" /><line stroke="rgb(10%,10%,16%)" x1="1644" x2="1644" y1="1015" y2="950" /><line stroke="rgb(10%,10%,16%)" x1="1644" x2="1633" y1="950" y2="950" /><line stroke="rgb(10%,10%,16%)" x1="1633" x2="1622" y1="950" y2="939" /><line stroke="rgb(10%,10%,16%)" x1="1622" x2="1611" y1="939" y2="939" /><line stroke="rgb(10%,10%,16%)" x1="1611" x2="1590" y1="939" y2="918" /><line stroke="rgb(10%,10%,16%)" x1="1590" x2="1590" y1="918" y2="766" /><line stroke="rgb(10%,10%,16%)" x1="1590" x2="1600" y1="766" y2="756" /><line stroke="rgb(10%,10%,16%)" x1="1600" x2="1600" y1="756" y2="691" /><line stroke="rgb(10%,10%,16%)" x1="1600" x2="1611" y1="691" y2="680" /><line stroke="rgb(10%,10%,16%)" x1="1611" x2="1611" y1="680" y2="648" /><line stroke="rgb(10%,10%,16%)" x1="1611" x2="1622" y1="648" y2="637" /><line stroke="rgb(10%,10%,16%)" x1="1622" x2="1622" y1="637" y2="626" /><line stroke="rgb(10%,10%,16%)" x1="1622" x2="1687" y1="626" y2="561" /><line stroke="rgb(10%,10%,16%)" x1="1687" x2="1709" y1="561" y2="561" /><line stroke="rgb(10%,10%,16%)" x1="1709" x2="1719" y1="561" y2="550" /><line stroke="rgb(10%,10%,16%)" x1="1719" x2="1719" y1="550" y2="378" /><line stroke="rgb(10%,10%,16%)" x1="1719" x2="1730" y1="378" y2="367" /><line stroke="rgb(10%,10%,16%)" x1="1730" x2="1730" y1="367" y2="356" /><line stroke="rgb(10%,10%,16%)" x1="1730" x2="1741" y1="356" y2="345" /><line stroke="rgb(10%,10%,16%)" x1="1741" x2="1741" y1="345" y2="334" /><line stroke="rgb(10%,10%,16%)" x1="1741" x2="1784" y1="334" y2="291" /><line stroke="rgb(10%,10%,16%)" x1="1784" x2="1795" y1="291" y2="291" /><line stroke="rgb(10%,10%,16%)" x1="1795" x2="2606" y1="291" y2="0" /><line stroke="rgb(10%,10%,16%)" x1="2606" x2="2617" y1="0" y2="10" /><line stroke="rgb(10%,10%,16%)" x1="2617" x2="2617" y1="10" y2="21" /><line stroke="rgb(10%,10%,16%)" x1="2617" x2="2650" y1="21" y2="54" /><line stroke="rgb(10%,10%,16%)" x1="2650" x2="2650" y1="54" y2="64" /><line stroke="rgb(10%,10%,16%)" x1="2650" x2="2671" y1="64" y2="86" /><line stroke="rgb(10%,10%,16%)" x1="2671" x2="2671" y1="86" y2="97" /><line stroke="rgb(10%,10%,16%)" x1="2671" x2="2693" y1="97" y2="118" /><line stroke="rgb(10%,10%,16%)" x1="2693" x2="2693" y1="118" y2="129" /><line stroke="rgb(10%,10%,16%)" x1="2693" x2="2704" y1="129" y2="140" /><line stroke="rgb(10%,10%,16%)" x1="2704" x2="2704" y1="140" y2="151" /><line stroke="rgb(10%,10%,16%)" x1="2704" x2="2715" y1="151" y2="162" /><line stroke="rgb(10%,10%,16%)" x1="2715" x2="2715" y1="162" y2="172" /><line stroke="rgb(10%,10%,16%)" x1="2715" x2="2736" y1="172" y2="194" /><line stroke="rgb(10%,10%,16%)" x1="2736" x2="2736" y1="194" y2="205" /><line stroke="rgb(10%,10%,16%)" x1="2736" x2="2747" y1="205" y2="216" /><line stroke="rgb(10%,10%,16%)" x1="2747" x2="2747" y1="216" y2="226" /><line stroke="rgb(10%,10%,16%)" x1="2747" x2="2758" y1="226" y2="237" /><line stroke="rgb(10%,10%,16%)" x1="2758" x2="2758" y1="237" y2="248" /><line stroke="rgb(10%,10%,16%)" x1="2758" x2="2769" y1="248" y2="259" /><line stroke="rgb(10%,10%,16%)" x1="2769" x2="2769" y1="259" y2="280" /><line stroke="rgb(10%,10%,16%)" x1="2769" x2="2779" y1="280" y2="291" /><line stroke="rgb(10%,10%,16%)" x1="2779" x2="2779" y1="291" y2="302" /><line stroke="rgb(10%,10%,16%)" x1="2779" x2="2790" y1="302" y2="313" /><line stroke="rgb(10%,10%,16%)" x1="2790" x2="2790" y1="313" y2="324" /><line stroke="rgb(10%,10%,16%)" x1="2790" x2="2801" y1="324" y2="334" /><line stroke="rgb(10%,10%,16%)" x1="2801" x2="2801" y1="334" y2="356" /><line stroke="rgb(10%,10%,16%)" x1="2801" x2="2812" y1="356" y2="367" /><line stroke="rgb(10%,10%,16%)" x1="2812" x2="2812" y1="367" y2="378" /><line stroke="rgb(10%,10%,16%)" x1="2812" x2="2823" y1="378" y2="388" /><line stroke="rgb(10%,10%,16%)" x1="2823" x2="2823" y1="388" y2="410" /><line stroke="rgb(10%,10%,16%)" x1="2823" x2="2834" y1="410" y2="421" /><line stroke="rgb(10%,10%,16%)" x1="2834" x2="2834" y1="421" y2="442" /><line stroke="rgb(10%,10%,16%)" x1="2834" x2="2844" y1="442" y2="453" /><line stroke="rgb(10%,10%,16%)" x1="2844" x2="2844" y1="453" y2="486" /><line stroke="rgb(10%,10%,16%)" x1="2844" x2="2855" y1="486" y2="496" /><line stroke="rgb(10%,10%,16%)" x1="2855" x2="2855" y1="496" y2="518" /><line stroke="rgb(10%,10%,16%)" x1="2855" x2="2866" y1="518" y2="529" /><line stroke="rgb(10%,10%,16%)" x1="2866" x2="2866" y1="529" y2="561" /><line stroke="rgb(10%,10%,16%)" x1="2866" x2="2877" y1="561" y2="572" /><line stroke="rgb(10%,10%,16%)" x1="2877" x2="2877" y1="572" y2="604" /><line stroke="rgb(10%,10%,16%)" x1="2877" x2="2888" y1="604" y2="615" /><line stroke="rgb(10%,10%,16%)" x1="2888" x2="2888" y1="615" y2="658" /><line stroke="rgb(10%,10%,16%)" x1="2888" x2="2898" y1="658" y2="669" /><line stroke="rgb(10%,10%,16%)" x1="2898" x2="2898" y1="669" y2="712" /><line stroke="rgb(10%,10%,16%)" x1="2898" x2="2909" y1="712" y2="723" /><line stroke="rgb(10%,10%,16%)" x1="2909" x2="2909" y1="723" y2="766" /><line stroke="rgb(10%,10%,16%)" x1="2909" x2="2920" y1="766" y2="777" /><line stroke="rgb(10%,10%,16%)" x1="2920" x2="2920" y1="777" y2="842" /><line stroke="rgb(10%,10%,16%)" x1="2920" x2="2931" y1="842" y2="853" /><line stroke="rgb(10%,10%,16%)" x1="2931" x2="2931" y1="853" y2="928" /><line stroke="rgb(10%,10%,16%)" x1="2931" x2="2942" y1="928" y2="939" /><line stroke="rgb(10%,10%,16%)" x1="2942" x2="2942" y1="939" y2="1036" /><line stroke="rgb(10%,10%,16%)" x1="2942" x2="2953" y1="1036" y2="1047" /><line stroke="rgb(10%,10%,16%)" x1="2953" x2="2953" y1="1047" y2="1220" /><line stroke="rgb(10%,10%,16%)" x1="2953" x2="2963" y1="1220" y2="1231" /><line stroke="rgb(10%,10%,16%)" x1="2963" x2="2963" y1="1231" y2="1458" /><line stroke="rgb(10%,10%,16%)" x1="2963" x2="2953" y1="1458" y2="1468" /><line stroke="rgb(10%,10%,16%)" x1="2953" x2="2953" y1="1468" y2="1609" /><line stroke="rgb(10%,10%,16%)" x1="2953" x2="2942" y1="1609" y2="1620" /><line stroke="rgb(10%,10%,16%)" x1="2942" x2="2942" y1="1620" y2="1695" /><line stroke="rgb(10%,10%,16%)" x1="2942" x2="2931" y1="1695" y2="1706" /><line stroke="rgb(10%,10%,16%)" x1="2931" x2="2931" y1="1706" y2="1760" /><line stroke="rgb(10%,10%,16%)" x1="2931" x2="2920" y1="1760" y2="1771" /><line stroke="rgb(10%,10%,16%)" x1="2920" x2="2920" y1="1771" y2="1814" /><line stroke="rgb(10%,10%,16%)" x1="2920" x2="2909" y1="1814" y2="1825" /><line stroke="rgb(10%,10%,16%)" x1="2909" x2="2909" y1="1825" y2="1857" /><line stroke="rgb(10%,10%,16%)" x1="2909" x2="2898" y1="1857" y2="1868" /><line stroke="rgb(10%,10%,16%)" x1="2898" x2="2898" y1="1868" y2="1900" /><line stroke="rgb(10%,10%,16%)" x1="2898" x2="2888" y1="1900" y2="1911" /><line stroke="rgb(10%,10%,16%)" x1="2888" x2="2888" y1="1911" y2="1944" /><line stroke="rgb(10%,10%,16%)" x1="2888" x2="2877" y1="1944" y2="1954" /><line stroke="rgb(10%,10%,16%)" x1="2877" x2="2877" y1="1954" y2="1976" /><line stroke="rgb(10%,10%,16%)" x1="2877" x2="2866" y1="1976" y2="1987" /><line stroke="rgb(10%,10%,16%)" x1="2866" x2="2866" y1="1987" y2="2008" /><line stroke="rgb(10%,10%,16%)" x1="2866" x2="2855" y1="2008" y2="2019" /><line stroke="rgb(10%,10%,16%)" x1="2855" x2="2855" y1="2019" y2="2041" /><line stroke="rgb(10%,10%,16%)" x1="2855" x2="2844" y1="2041" y2="2052" /><line stroke="rgb(10%,10%,16%)" x1="2844" x2="2844" y1="2052" y2="2062" /><line stroke="rgb(10%,10%,16%)" x1="2844" x2="2834" y1="2062" y2="2073" /><line stroke="rgb(10%,10%,16%)" x1="2834" x2="2834" y1="2073" y2="2095" /><line stroke="rgb(10%,10%,16%)" x1="2834" x2="2823" y1="2095" y2="2106" /><line stroke="rgb(10%,10%,16%)" x1="2823" x2="2823" y1="2106" y2="2116" /><line stroke="rgb(10%,10%,16%)" x1="2823" x2="2812" y1="2116" y2="2127" /><line stroke="rgb(10%,10%,16%)" x1="2812" x2="2812" y1="2127" y2="2138" /><line stroke="rgb(10%,10%,16%)" x1="2812" x2="2801" y1="2138" y2="2149" /><line stroke="rgb(10%,10%,16%)" x1="2801" x2="3829" y1="2149" y2="2149" /><line stroke="rgb(10%,10%,16%)" x1="3829" x2="3829" y1="2149" y2="0" /><line stroke="rgb(10%,10%,16%)" x1="3829" x2="0" y1="0" y2="0" /><line stroke="rgb(10%,10%,16%)" x1="0" x2="0" y1="0" y2="2149" /><line stroke="rgb(10%,10%,16%)" x1="0" x2="822" y1="2149" y2="2149" /><line stroke="rgb(10%,10%,16%)" x1="822" x2="822" y1="2149" y2="2138" /><line stroke="rgb(10%,10%,16%)" x1="822" x2="811" y1="2138" y2="2127" /><line stroke="rgb(10%,10%,16%)" x1="811" x2="811" y1="2127" y2="2116" /><line stroke="rgb(10%,10%,16%)" x1="811" x2="800" y1="2116" y2="2106" /><line stroke="rgb(10%,10%,16%)" x1="800" x2="800" y1="2106" y2="2084" /><line stroke="rgb(10%,10%,16%)" x1="800" x2="789" y1="2084" y2="2073" /><line stroke="rgb(10%,10%,16%)" x1="789" x2="789" y1="2073" y2="2062" /><line stroke="rgb(10%,10%,16%)" x1="789" x2="778" y1="2062" y2="2052" /><line stroke="rgb(10%,10%,16%)" x1="778" x2="778" y1="2052" y2="2030" /><line stroke="rgb(10%,10%,16%)" x1="778" x2="768" y1="2030" y2="2019" /><line stroke="rgb(10%,10%,16%)" x1="768" x2="768" y1="2019" y2="1998" /><line stroke="rgb(10%,10%,16%)" x1="768" x2="757" y1="1998" y2="1987" /><line stroke="rgb(10%,10%,16%)" x1="757" x2="757" y1="1987" y2="1954" /><line stroke="rgb(10%,10%,16%)" x1="757" x2="746" y1="1954" y2="1944" /><line stroke="rgb(10%,10%,16%)" x1="746" x2="746" y1="1944" y2="1911" /><line stroke="rgb(10%,10%,16%)" x1="746" x2="735" y1="1911" y2="1900" /><line stroke="rgb(10%,10%,16%)" x1="735" x2="735" y1="1900" y2="1868" /><line stroke="rgb(10%,10%,16%)" x1="735" x2="724" y1="1868" y2="1857" /><line stroke="rgb(10%,10%,16%)" x1="724" x2="724" y1="1857" y2="1814" /><line stroke="rgb(10%,10%,16%)" x1="724" x2="713" y1="1814" y2="1803" /><line stroke="rgb(10%,10%,16%)" x1="713" x2="713" y1="1803" y2="1760" /><line stroke="rgb(10%,10%,16%)" x1="713" x2="703" y1="1760" y2="1749" /><line stroke="rgb(10%,10%,16%)" x1="703" x2="703" y1="1749" y2="1674" /><line stroke="rgb(10%,10%,16%)" x1="703" x2="692" y1="1674" y2="1663" /><line stroke="rgb(10%,10%,16%)" x1="692" x2="692" y1="1663" y2="1533" /><line stroke="rgb(10%,10%,16%)" x1="692" x2="681" y1="1533" y2="1522" /><line stroke="rgb(10%,10%,16%)" x1="681" x2="681" y1="1522" y2="1263" /><line stroke="rgb(10%,10%,16%)" x1="681" x2="692" y1="1263" y2="1252" /><line stroke="rgb(10%,10%,16%)" x1="692" x2="692" y1="1252" y2="1101" /><line stroke="rgb(10%,10%,16%)" x1="692" x2="703" y1="1101" y2="1090" /><line stroke="rgb(10%,10%,16%)" x1="703" x2="703" y1="1090" y2="993" /><line stroke="rgb(10%,10%,16%)" x1="703" x2="713" y1="993" y2="982" /><line stroke="rgb(10%,10%,16%)" x1="713" x2="713" y1="982" y2="918" /><line stroke="rgb(10%,10%,16%)" x1="713" x2="724" y1="918" y2="907" /><line stroke="rgb(10%,10%,16%)" x1="724" x2="724" y1="907" y2="842" /><line stroke="rgb(10%,10%,16%)" x1="724" x2="735" y1="842" y2="831" /><line stroke="rgb(10%,10%,16%)" x1="735" x2="735" y1="831" y2="777" /><line stroke="rgb(10%,10%,16%)" x1="735" x2="746" y1="777" y2="766" /><line stroke="rgb(10%,10%,16%)" x1="746" x2="746" y1="766" y2="723" /><line stroke="rgb(10%,10%,16%)" x1="746" x2="757" y1="723" y2="712" /><line stroke="rgb(10%,10%,16%)" x1="757" x2="757" y1="712" y2="669" /><line stroke="rgb(10%,10%,16%)" x1="757" x2="768" y1="669" y2="658" /><line stroke="rgb(10%,10%,16%)" x1="768" x2="768" y1="658" y2="626" /><line stroke="rgb(10%,10%,16%)" x1="768" x2="778" y1="626" y2="615" /><line stroke="rgb(10%,10%,16%)" x1="778" x2="778" y1="615" y2="583" /><line stroke="rgb(10%,10%,16%)" x1="778" x2="789" y1="583" y2="572" /><line stroke="rgb(10%,10%,16%)" x1="789" x2="789" y1="572" y2="550" /><line stroke="rgb(10%,10%,16%)" x1="789" x2="800" y1="550" y2="540" /><line stroke="rgb(10%,10%,16%)" x1="800" x2="800" y1="540" y2="507" /><line stroke="rgb(10%,10%,16%)" x1="800" x2="811" y1="507" y2="496" /><line stroke="rgb(10%,10%,16%)" x1="811" x2="811" y1="496" y2="475" /><line stroke="rgb(10%,10%,16%)" x1="811" x2="822" y1="475" y2="464" /><line stroke="rgb(10%,10%,16%)" x1="822" x2="822" y1="464" y2="442" /><line stroke="rgb(10%,10%,16%)" x1="822" x2="832" y1="442" y2="432" /><line stroke="rgb(10%,10%,16%)" x1="832" x2="832" y1="432" y2="410" /><line stroke="rgb(10%,10%,16%)" x1="832" x2="843" y1="410" y2="399" /><line stroke="rgb(10%,10%,16%)" x1="843" x2="843" y1="399" y2="388" /><line stroke="rgb(10%,10%,16%)" x1="843" x2="854" y1="388" y2="378" /><line stroke="rgb(10%,10%,16%)" x1="854" x2="854" y1="378" y2="356" /><line stroke="rgb(10%,10%,16%)" x1="854" x2="865" y1="356" y2="345" /><line stroke="rgb(10%,10%,16%)" x1="865" x2="865" y1="345" y2="334" /><line stroke="rgb(10%,10%,16%)" x1="865" x2="876" y1="334" y2="324" /><line stroke="rgb(10%,10%,16%)" x1="876" x2="876" y1="324" y2="313" /><line stroke="rgb(10%,10%,16%)" x1="876" x2="886" y1="313" y2="302" /><line stroke="rgb(10%,10%,16%)" x1="886" x2="886" y1="302" y2="280" /><line stroke="rgb(10%,10%,16%)" x1="886" x2="897" y1="280" y2="270" /><line stroke="rgb(10%,10%,16%)" x1="897" x2="897" y1="270" y2="259" /><line stroke="rgb(10%,10%,16%)" x1="897" x2="908" y1="259" y2="248" /><line stroke="rgb(10%,10%,16%)" x1="908" x2="908" y1="248" y2="237" /><line stroke="rgb(10%,10%,16%)" x1="908" x2="919" y1="237" y2="226" /><line stroke="rgb(10%,10%,16%)" x1="919" x2="919" y1="226" y2="216" /><line stroke="rgb(10%,10%,16%)" x1="919" x2="930" y1="216" y2="205" /><line stroke="rgb(10%,10%,16%)" x1="930" x2="930" y1="205" y2="194" /><line stroke="rgb(10%,10%,16%)" x1="930" x2="951" y1="194" y2="172" /><line stroke="rgb(10%,10%,16%)" x1="951" x2="951" y1="172" y2="162" /><line stroke="rgb(10%,10%,16%)" x1="951" x2="962" y1="162" y2="151" /><line stroke="rgb(10%,10%,16%)" x1="962" x2="962" y1="151" y2="140" /><line stroke="rgb(10%,10%,16%)" x1="962" x2="984" y1="140" y2="118" /><line stroke="rgb(10%,10%,16%)" x1="984" x2="984" y1="118" y2="108" /><line stroke="rgb(10%,10%,16%)" x1="984" x2="1005" y1="108" y2="86" /><line stroke="rgb(10%,10%,16%)" x1="1005" x2="1005" y1="86" y2="75" /><line stroke="rgb(10%,10%,16%)" x1="1005" x2="1027" y1="75" y2="54" /><line stroke="rgb(10%,10%,16%)" x1="1027" x2="1027" y1="54" y2="43" /><line stroke="rgb(10%,10%,16%)" x1="1027" x2="1070" y1="43" y2="0" /><line stroke="rgb(10%,10%,16%)" x1="1070" x2="2606" y1="0" y2="0" /><line stroke="rgb(10%,10%,16%)" x1="2606" x2="2671" y1="0" y2="86" /><line stroke="rgb(10%,10%,16%)" x1="2671" x2="2736" y1="86" y2="194" /><line stroke="rgb(10%,10%,16%)" x1="2736" x2="2801" y1="194" y2="334" /><line stroke="rgb(10%,10%,16%)" x1="2801" x2="2866" y1="334" y2="529" /><line stroke="rgb(10%,10%,16%)" x1="2866" x2="2931" y1="529" y2="853" /><line stroke="rgb(10%,10%,16%)" x1="2931" x2="2866" y1="853" y2="1987" /><line stroke="rgb(10%,10%,16%)" x1="2866" x2="2801" y1="1987" y2="2149" /><line stroke="rgb(10%,10%,16%)" x1="2801" x2="3829" y1="2149" y2="0" /><line stroke="rgb(10%,10%,16%)" x1="3829" x2="0" y1="0" y2="0" /><line stroke="rgb(10%,10%,16%)" x1="0" x2="822" y1="0" y2="2149" /><line stroke="rgb(10%,10%,16%)" x1="822" x2="757" y1="2149" y2="1987" /><line stroke="rgb(10%,10%,16%)" x1="757" x2="692" y1="1987" y2="1663" /><line stroke="rgb(10%,10%,16%)" x1="692" x2="757" y1="1663" y2="712" /><line stroke="rgb(10%,10%,16%)" x1="757" x2="822" y1="712" y2="464" /><line stroke="rgb(10%,10%,16%)" x1="822" x2="886" y1="464" y2="280" /><line stroke="rgb(10%,10%,16%)" x1="886" x2="951" y1="280" y2="172" /><line stroke="rgb(10%,10%,16%)" x1="951" x2="1070" y1="172" y2="0" /><line stroke="rgb(10%,10%,16%)" x1="1070" x2="1817" y1="0" y2="270" /><line stroke="rgb(10%,10%,16%)" x1="1817" x2="1817" y1="270" y2="270" /><line stroke="rgb(10%,10%,16%)" x1="1817" x2="1936" y1="270" y2="345" /><line stroke="rgb(10%,10%,16%)" x1="1936" x2="2001" y1="345" y2="518" /><line stroke="rgb(10%,10%,16%)" x1="2001" x2="2066" y1="518" y2="702" /><line stroke="rgb(10%,10%,16%)" x1="2066" x2="2001" y1="702" y2="1695" /><line stroke="rgb(10%,10%,16%)" x1="2001" x2="1882" y1="1695" y2="2030" /><line stroke="rgb(10%,10%,16%)" x1="1882" x2="1665" y1="2030" y2="1922" /><line stroke="rgb(10%,10%,16%)" x1="1665" x2="1590" y1="1922" y2="766" /><line stroke="rgb(10%,10%,16%)" x1="1590" x2="1709" y1="766" y2="561" /><line stroke="rgb(10%,10%,16%)" x1="1709" x2="1795" y1="561" y2="291" /><line stroke="rgb(10%,10%,16%)" x1="1795" x2="1795" y1="291" y2="291" /></g></svg>