<?xml version="1.0" encoding="utf-8" ?>
<svg baseProfile="full" height="302" version="1.1" width="452" xmlns="http://www.w3.org/2000/svg" xmlns:ev="http://www.w3.org/2001/xml-events" xmlns:xlink="http://www.w3.org/1999/xlink"><defs /><g fill="none" id="shapes"><line stroke="rgb(10%,10%,16%)" x1="0" x2="279" y1="302" y2="0" /><line stroke="rgb(10%,10%,16%)" x1="279" x2="288" y1="0" y2="7" /><line stroke="rgb(10%,10%,16%)" x1="288" x2="296" y1="7" y2="13" /><line stroke="rgb(10%,10%,16%)" x1="296" x2="306" y1="13" y2="19" /><line stroke="rgb(10%,10%,16%)" x1="306" x2="318" y1="19" y2="25" /><line stroke="rgb(10%,10%,16%)" x1="318" x2="336" y1="25" y2="31" /><line stroke="rgb(10%,10%,16%)" x1="336" x2="364" y1="31" y2="37" /><line stroke="rgb(10%,10%,16%)" x1="364" x2="394" y1="37" y2="43" /><line stroke="rgb(10%,10%,16%)" x1="394" x2="414" y1="43" y2="49" /><line stroke="rgb(10%,10%,16%)" x1="414" x2="429" y1="49" y2="55" /><line stroke="rgb(10%,10%,16%)" x1="429" x2="442" y1="55" y2="62" /><line stroke="rgb(10%,10%,16%)" x1="442" x2="451" y1="62" y2="0" /><line stroke="rgb(10%,10%,16%)" x1="451" x2="154" y1="0" y2="0" /><line stroke="rgb(10%,10%,16%)" x1="154" x2="165" y1="0" y2="6" /><line stroke="rgb(10%,10%,16%)" x1="165" x2="177" y1="6" y2="12" /><line stroke="rgb(10%,10%,16%)" x1="177" x2="189" y1="12" y2="20" /><line stroke="rgb(10%,10%,16%)" x1="189" x2="212" y1="20" y2="41" /><line stroke="rgb(10%,10%,16%)" x1="212" x2="221" y1="41" y2="53" /><line stroke="rgb(10%,10%,16%)" x1="221" x2="227" y1="53" y2="62" /><line stroke="rgb(10%,10%,16%)" x1="227" x2="233" y1="62" y2="73" /><line stroke="rgb(10%,10%,16%)" x1="233" x2="240" y1="73" y2="87" /><line stroke="rgb(10%,10%,16%)" x1="240" x2="246" y1="87" y2="108" /><line stroke="rgb(10%,10%,16%)" x1="246" x2="252" y1="108" y2="100" /><line stroke="rgb(10%,10%,16%)" x1="252" x2="246" y1="100" y2="83" /><line stroke="rgb(10%,10%,16%)" x1="246" x2="240" y1="83" y2="70" /><line stroke="rgb(10%,10%,16%)" x1="240" x2="233" y1="70" y2="58" /><line stroke="rgb(10%,10%,16%)" x1="233" x2="227" y1="58" y2="49" /><line stroke="rgb(10%,10%,16%)" x1="227" x2="219" y1="49" y2="39" /><line stroke="rgb(10%,10%,16%)" x1="219" x2="207" y1="39" y2="28" /><line stroke="rgb(10%,10%,16%)" x1="207" x2="196" y1="28" y2="18" /><line stroke="rgb(10%,10%,16%)" x1="196" x2="185" y1="18" y2="11" /><line stroke="rgb(10%,10%,16%)" x1="185" x2="174" y1="11" y2="4" /><line stroke="rgb(10%,10%,16%)" x1="174" x2="168" y1="4" y2="0" /><line stroke="rgb(10%,10%,16%)" x1="168" x2="86" y1="0" y2="13" /><line stroke="rgb(10%,10%,16%)" x1="86" x2="58" y1="13" y2="20" /><line stroke="rgb(10%,10%,16%)" x1="58" x2="41" y1="20" y2="27" /><line stroke="rgb(10%,10%,16%)" x1="41" x2="26" y1="27" y2="36" /><line stroke="rgb(10%,10%,16%)" x1="26" x2="9" y1="36" y2="50" /><line stroke="rgb(10%,10%,16%)" x1="9" x2="0" y1="50" y2="68" /><line stroke="rgb(10%,10%,16%)" x1="0" x2="22" y1="68" y2="45" /><line stroke="rgb(10%,10%,16%)" x1="22" x2="33" y1="45" y2="37" /><line stroke="rgb(10%,10%,16%)" x1="33" x2="45" y1="37" y2="30" /><line stroke="rgb(10%,10%,16%)" x1="45" x2="62" y1="30" y2="23" /><line stroke="rgb(10%,10%,16%)" x1="62" x2="155" y1="23" y2="29" /><line stroke="rgb(10%,10%,16%)" x1="155" x2="168" y1="29" y2="36" /><line stroke="rgb(10%,10%,16%)" x1="168" x2="183" y1="36" y2="47" /><line stroke="rgb(10%,10%,16%)" x1="183" x2="203" y1="47" y2="67" /><line stroke="rgb(10%,10%,16%)" x1="203" x2="211" y1="67" y2="78" /><line stroke="rgb(10%,10%,16%)" x1="211" x2="204" y1="78" y2="67" /><line stroke="rgb(10%,10%,16%)" x1="204" x2="183" y1="67" y2="43" /><line stroke="rgb(10%,10%,16%)" x1="183" x2="171" y1="43" y2="34" /><line stroke="rgb(10%,10%,16%)" x1="171" x2="159" y1="34" y2="27" /><line stroke="rgb(10%,10%,16%)" x1="159" x2="143" y1="27" y2="20" /><line stroke="rgb(10%,10%,16%)" x1="143" x2="113" y1="20" y2="13" /><line stroke="rgb(10%,10%,16%)" x1="113" x2="94" y1="13" y2="37" /><line stroke="rgb(10%,10%,16%)" x1="94" x2="65" y1="37" y2="44" /><line stroke="rgb(10%,10%,16%)" x1="65" x2="44" y1="44" y2="56" /><line stroke="rgb(10%,10%,16%)" x1="44" x2="17" y1="56" y2="84" /><line stroke="rgb(10%,10%,16%)" x1="17" x2="9" y1="84" y2="100" /><line stroke="rgb(10%,10%,16%)" x1="9" x2="0" y1="100" y2="155" /><line stroke="rgb(10%,10%,16%)" x1="0" x2="9" y1="155" y2="181" /><line stroke="rgb(10%,10%,16%)" x1="9" x2="21" y1="181" y2="201" /><line stroke="rgb(10%,10%,16%)" x1="21" x2="47" y1="201" y2="226" /><line stroke="rgb(10%,10%,16%)" x1="47" x2="65" y1="226" y2="235" /><line stroke="rgb(10%,10%,16%)" x1="65" x2="153" y1="235" y2="229" /><line stroke="rgb(10%,10%,16%)" x1="153" x2="186" y1="229" y2="201" /><line stroke="rgb(10%,10%,16%)" x1="186" x2="157" y1="201" y2="220" /><line stroke="rgb(10%,10%,16%)" x1="157" x2="140" y1="220" y2="229" /><line stroke="rgb(10%,10%,16%)" x1="140" x2="107" y1="229" y2="238" /><line stroke="rgb(10%,10%,16%)" x1="107" x2="62" y1="238" y2="230" /><line stroke="rgb(10%,10%,16%)" x1="62" x2="41" y1="230" y2="217" /><line stroke="rgb(10%,10%,16%)" x1="41" x2="21" y1="217" y2="197" /><line stroke="rgb(10%,10%,16%)" x1="21" x2="13" y1="197" y2="183" /><line stroke="rgb(10%,10%,16%)" x1="13" x2="4" y1="183" y2="159" /><line stroke="rgb(10%,10%,16%)" x1="4" x2="12" y1="159" y2="95" /><line stroke="rgb(10%,10%,16%)" x1="12" x2="34" y1="95" y2="66" /><line stroke="rgb(10%,10%,16%)" x1="34" x2="52" y1="66" y2="53" /><line stroke="rgb(10%,10%,16%)" x1="52" x2="72" y1="53" y2="45" /><line stroke="rgb(10%,10%,16%)" x1="72" x2="153" y1="45" y2="56" /><line stroke="rgb(10%,10%,16%)" x1="153" x2="182" y1="56" y2="83" /><line stroke="rgb(10%,10%,16%)" x1="182" x2="190" y1="83" y2="98" /><line stroke="rgb(10%,10%,16%)" x1="190" x2="208" y1="98" y2="127" /><line stroke="rgb(10%,10%,16%)" x1="208" x2="197" y1="127" y2="99" /><line stroke="rgb(10%,10%,16%)" x1="197" x2="184" y1="99" y2="77" /><line stroke="rgb(10%,10%,16%)" x1="184" x2="163" y1="77" y2="56" /><line stroke="rgb(10%,10%,16%)" x1="163" x2="145" y1="56" y2="46" /><line stroke="rgb(10%,10%,16%)" x1="145" x2="111" y1="46" y2="37" /><line stroke="rgb(10%,10%,16%)" x1="111" x2="97" y1="37" y2="61" /><line stroke="rgb(10%,10%,16%)" x1="97" x2="106" y1="61" y2="61" /><line stroke="rgb(10%,10%,16%)" x1="106" x2="92" y1="61" y2="85" /><line stroke="rgb(10%,10%,16%)" x1="92" x2="108" y1="85" y2="85" /><line stroke="rgb(10%,10%,16%)" x1="108" x2="99" y1="85" y2="109" /><line stroke="rgb(10%,10%,16%)" x1="99" x2="108" y1="109" y2="109" /><line stroke="rgb(10%,10%,16%)" x1="108" x2="52" y1="109" y2="122" /><line stroke="rgb(10%,10%,16%)" x1="52" x2="54" y1="122" y2="122" /><line stroke="rgb(10%,10%,16%)" x1="54" x2="388" y1="122" y2="133" /><line stroke="rgb(10%,10%,16%)" x1="388" x2="391" y1="133" y2="133" /><line stroke="rgb(10%,10%,16%)" x1="391" x2="275" y1="133" y2="135" /><line stroke="rgb(10%,10%,16%)" x1="275" x2="276" y1="135" y2="135" /><line stroke="rgb(10%,10%,16%)" x1="276" x2="196" y1="135" y2="137" /><line stroke="rgb(10%,10%,16%)" x1="196" x2="200" y1="137" y2="137" /><line stroke="rgb(10%,10%,16%)" x1="200" x2="365" y1="137" y2="175" /><line stroke="rgb(10%,10%,16%)" x1="365" x2="368" y1="175" y2="175" /><line stroke="rgb(10%,10%,16%)" x1="368" x2="238" y1="175" y2="196" /><line stroke="rgb(10%,10%,16%)" x1="238" x2="239" y1="196" y2="197" /><line stroke="rgb(10%,10%,16%)" x1="239" x2="204" y1="197" y2="217" /><line stroke="rgb(10%,10%,16%)" x1="204" x2="203" y1="217" y2="218" /><line stroke="rgb(10%,10%,16%)" x1="203" x2="450" y1="218" y2="259" /><line stroke="rgb(10%,10%,16%)" x1="450" x2="451" y1="259" y2="259" /></g></svg>