<?xml version="1.0" encoding="utf-8" ?>
<svg baseProfile="full" height="1300" version="1.1" width="1148" xmlns="http://www.w3.org/2000/svg" xmlns:ev="http://www.w3.org/2001/xml-events" xmlns:xlink="http://www.w3.org/1999/xlink"><defs /><g fill="none" id="shapes"><line stroke="rgb(10%,10%,16%)" x1="0" x2="0" y1="1300" y2="0" /><line stroke="rgb(10%,10%,16%)" x1="0" x2="507" y1="0" y2="1275" /><line stroke="rgb(10%,10%,16%)" x1="507" x2="495" y1="1275" y2="1149" /><line stroke="rgb(10%,10%,16%)" x1="495" x2="507" y1="1149" y2="1090" /><line stroke="rgb(10%,10%,16%)" x1="507" x2="520" y1="1090" y2="1139" /><line stroke="rgb(10%,10%,16%)" x1="520" x2="532" y1="1139" y2="1230" /><line stroke="rgb(10%,10%,16%)" x1="532" x2="554" y1="1230" y2="1272" /><line stroke="rgb(10%,10%,16%)" x1="554" x2="542" y1="1272" y2="1189" /><line stroke="rgb(10%,10%,16%)" x1="542" x2="562" y1="1189" y2="1100" /><line stroke="rgb(10%,10%,16%)" x1="562" x2="578" y1="1100" y2="1119" /><line stroke="rgb(10%,10%,16%)" x1="578" x2="589" y1="1119" y2="1173" /><line stroke="rgb(10%,10%,16%)" x1="589" x2="600" y1="1173" y2="1224" /><line stroke="rgb(10%,10%,16%)" x1="600" x2="617" y1="1224" y2="1248" /><line stroke="rgb(10%,10%,16%)" x1="617" x2="916" y1="1248" y2="1292" /><line stroke="rgb(10%,10%,16%)" x1="916" x2="929" y1="1292" y2="1239" /><line stroke="rgb(10%,10%,16%)" x1="929" x2="956" y1="1239" y2="1254" /><line stroke="rgb(10%,10%,16%)" x1="956" x2="992" y1="1254" y2="1293" /><line stroke="rgb(10%,10%,16%)" x1="992" x2="1008" y1="1293" y2="1269" /><line stroke="rgb(10%,10%,16%)" x1="1008" x2="996" y1="1269" y2="1188" /><line stroke="rgb(10%,10%,16%)" x1="996" x2="1029" y1="1188" y2="1112" /><line stroke="rgb(10%,10%,16%)" x1="1029" x2="1147" y1="1112" y2="0" /><line stroke="rgb(10%,10%,16%)" x1="1147" x2="800" y1="0" y2="112" /><line stroke="rgb(10%,10%,16%)" x1="800" x2="798" y1="112" y2="114" /><line stroke="rgb(10%,10%,16%)" x1="798" x2="742" y1="114" y2="168" /><line stroke="rgb(10%,10%,16%)" x1="742" x2="742" y1="168" y2="170" /><line stroke="rgb(10%,10%,16%)" x1="742" x2="260" y1="170" y2="209" /><line stroke="rgb(10%,10%,16%)" x1="260" x2="258" y1="209" y2="211" /><line stroke="rgb(10%,10%,16%)" x1="258" x2="1078" y1="211" y2="244" /><line stroke="rgb(10%,10%,16%)" x1="1078" x2="1076" y1="244" y2="246" /><line stroke="rgb(10%,10%,16%)" x1="1076" x2="1113" y1="246" y2="244" /><line stroke="rgb(10%,10%,16%)" x1="1113" x2="1111" y1="244" y2="246" /><line stroke="rgb(10%,10%,16%)" x1="1111" x2="140" y1="246" y2="258" /><line stroke="rgb(10%,10%,16%)" x1="140" x2="138" y1="258" y2="260" /><line stroke="rgb(10%,10%,16%)" x1="138" x2="89" y1="260" y2="282" /><line stroke="rgb(10%,10%,16%)" x1="89" x2="88" y1="282" y2="282" /><line stroke="rgb(10%,10%,16%)" x1="88" x2="504" y1="282" y2="425" /><line stroke="rgb(10%,10%,16%)" x1="504" x2="504" y1="425" y2="431" /><line stroke="rgb(10%,10%,16%)" x1="504" x2="725" y1="431" y2="465" /><line stroke="rgb(10%,10%,16%)" x1="725" x2="725" y1="465" y2="479" /><line stroke="rgb(10%,10%,16%)" x1="725" x2="560" y1="479" y2="594" /><line stroke="rgb(10%,10%,16%)" x1="560" x2="560" y1="594" y2="598" /><line stroke="rgb(10%,10%,16%)" x1="560" x2="557" y1="598" y2="670" /><line stroke="rgb(10%,10%,16%)" x1="557" x2="552" y1="670" y2="675" /><line stroke="rgb(10%,10%,16%)" x1="552" x2="706" y1="675" y2="673" /><line stroke="rgb(10%,10%,16%)" x1="706" x2="704" y1="673" y2="675" /><line stroke="rgb(10%,10%,16%)" x1="704" x2="200" y1="675" y2="712" /><line stroke="rgb(10%,10%,16%)" x1="200" x2="198" y1="712" y2="714" /><line stroke="rgb(10%,10%,16%)" x1="198" x2="688" y1="714" y2="728" /><line stroke="rgb(10%,10%,16%)" x1="688" x2="686" y1="728" y2="728" /><line stroke="rgb(10%,10%,16%)" x1="686" x2="142" y1="728" y2="768" /><line stroke="rgb(10%,10%,16%)" x1="142" x2="142" y1="768" y2="770" /><line stroke="rgb(10%,10%,16%)" x1="142" x2="808" y1="770" y2="902" /><line stroke="rgb(10%,10%,16%)" x1="808" x2="805" y1="902" y2="902" /><line stroke="rgb(10%,10%,16%)" x1="805" x2="585" y1="902" y2="953" /><line stroke="rgb(10%,10%,16%)" x1="585" x2="582" y1="953" y2="953" /><line stroke="rgb(10%,10%,16%)" x1="582" x2="830" y1="953" y2="1112" /><line stroke="rgb(10%,10%,16%)" x1="830" x2="829" y1="1112" y2="1112" /><line stroke="rgb(10%,10%,16%)" x1="829" x2="930" y1="1112" y2="1196" /><line stroke="rgb(10%,10%,16%)" x1="930" x2="928" y1="1196" y2="1198" /><line stroke="rgb(10%,10%,16%)" x1="928" x2="1104" y1="1198" y2="1217" /><line stroke="rgb(10%,10%,16%)" x1="1104" x2="1100" y1="1217" y2="1217" /></g></svg>