<?xml version="1.0" encoding="utf-8" ?>
<svg baseProfile="full" height="541" version="1.1" width="773" xmlns="http://www.w3.org/2000/svg" xmlns:ev="http://www.w3.org/2001/xml-events" xmlns:xlink="http://www.w3.org/1999/xlink"><defs /><g fill="none" id="shapes"><line stroke="rgb(10%,10%,16%)" x1="139" x2="121" y1="137" y2="143" /><line stroke="rgb(10%,10%,16%)" x1="121" x2="111" y1="143" y2="149" /><line stroke="rgb(10%,10%,16%)" x1="111" x2="102" y1="149" y2="156" /><line stroke="rgb(10%,10%,16%)" x1="102" x2="95" y1="156" y2="166" /><line stroke="rgb(10%,10%,16%)" x1="95" x2="89" y1="166" y2="179" /><line stroke="rgb(10%,10%,16%)" x1="89" x2="95" y1="179" y2="225" /><line stroke="rgb(10%,10%,16%)" x1="95" x2="101" y1="225" y2="234" /><line stroke="rgb(10%,10%,16%)" x1="101" x2="107" y1="234" y2="241" /><line stroke="rgb(10%,10%,16%)" x1="107" x2="116" y1="241" y2="247" /><line stroke="rgb(10%,10%,16%)" x1="116" x2="131" y1="247" y2="253" /><line stroke="rgb(10%,10%,16%)" x1="131" x2="175" y1="253" y2="247" /><line stroke="rgb(10%,10%,16%)" x1="175" x2="184" y1="247" y2="241" /><line stroke="rgb(10%,10%,16%)" x1="184" x2="191" y1="241" y2="235" /><line stroke="rgb(10%,10%,16%)" x1="191" x2="198" y1="235" y2="225" /><line stroke="rgb(10%,10%,16%)" x1="198" x2="204" y1="225" y2="208" /><line stroke="rgb(10%,10%,16%)" x1="204" x2="198" y1="208" y2="168" /><line stroke="rgb(10%,10%,16%)" x1="198" x2="192" y1="168" y2="159" /><line stroke="rgb(10%,10%,16%)" x1="192" x2="184" y1="159" y2="150" /><line stroke="rgb(10%,10%,16%)" x1="184" x2="175" y1="150" y2="144" /><line stroke="rgb(10%,10%,16%)" x1="175" x2="159" y1="144" y2="138" /><line stroke="rgb(10%,10%,16%)" x1="159" x2="153" y1="138" y2="137" /><line stroke="rgb(10%,10%,16%)" x1="153" x2="481" y1="137" y2="196" /><line stroke="rgb(10%,10%,16%)" x1="481" x2="481" y1="196" y2="196" /><line stroke="rgb(10%,10%,16%)" x1="481" x2="523" y1="196" y2="205" /><line stroke="rgb(10%,10%,16%)" x1="523" x2="516" y1="205" y2="215" /><line stroke="rgb(10%,10%,16%)" x1="516" x2="510" y1="215" y2="226" /><line stroke="rgb(10%,10%,16%)" x1="510" x2="504" y1="226" y2="243" /><line stroke="rgb(10%,10%,16%)" x1="504" x2="498" y1="243" y2="230" /><line stroke="rgb(10%,10%,16%)" x1="498" x2="492" y1="230" y2="215" /><line stroke="rgb(10%,10%,16%)" x1="492" x2="486" y1="215" y2="205" /><line stroke="rgb(10%,10%,16%)" x1="486" x2="481" y1="205" y2="198" /><line stroke="rgb(10%,10%,16%)" x1="481" x2="482" y1="198" y2="195" /><line stroke="rgb(10%,10%,16%)" x1="482" x2="490" y1="195" y2="210" /><line stroke="rgb(10%,10%,16%)" x1="490" x2="496" y1="210" y2="223" /><line stroke="rgb(10%,10%,16%)" x1="496" x2="502" y1="223" y2="243" /><line stroke="rgb(10%,10%,16%)" x1="502" x2="508" y1="243" y2="232" /><line stroke="rgb(10%,10%,16%)" x1="508" x2="515" y1="232" y2="218" /><line stroke="rgb(10%,10%,16%)" x1="515" x2="522" y1="218" y2="208" /><line stroke="rgb(10%,10%,16%)" x1="522" x2="532" y1="208" y2="197" /><line stroke="rgb(10%,10%,16%)" x1="532" x2="484" y1="197" y2="195" /><line stroke="rgb(10%,10%,16%)" x1="484" x2="496" y1="195" y2="20" /><line stroke="rgb(10%,10%,16%)" x1="496" x2="496" y1="20" y2="20" /><line stroke="rgb(10%,10%,16%)" x1="496" x2="537" y1="20" y2="26" /><line stroke="rgb(10%,10%,16%)" x1="537" x2="549" y1="26" y2="33" /><line stroke="rgb(10%,10%,16%)" x1="549" x2="571" y1="33" y2="53" /><line stroke="rgb(10%,10%,16%)" x1="571" x2="578" y1="53" y2="63" /><line stroke="rgb(10%,10%,16%)" x1="578" x2="584" y1="63" y2="76" /><line stroke="rgb(10%,10%,16%)" x1="584" x2="578" y1="76" y2="154" /><line stroke="rgb(10%,10%,16%)" x1="578" x2="571" y1="154" y2="165" /><line stroke="rgb(10%,10%,16%)" x1="571" x2="561" y1="165" y2="176" /><line stroke="rgb(10%,10%,16%)" x1="561" x2="639" y1="176" y2="182" /><line stroke="rgb(10%,10%,16%)" x1="639" x2="650" y1="182" y2="189" /><line stroke="rgb(10%,10%,16%)" x1="650" x2="670" y1="189" y2="207" /><line stroke="rgb(10%,10%,16%)" x1="670" x2="677" y1="207" y2="217" /><line stroke="rgb(10%,10%,16%)" x1="677" x2="683" y1="217" y2="229" /><line stroke="rgb(10%,10%,16%)" x1="683" x2="689" y1="229" y2="253" /><line stroke="rgb(10%,10%,16%)" x1="689" x2="683" y1="253" y2="293" /><line stroke="rgb(10%,10%,16%)" x1="683" x2="677" y1="293" y2="306" /><line stroke="rgb(10%,10%,16%)" x1="677" x2="670" y1="306" y2="316" /><line stroke="rgb(10%,10%,16%)" x1="670" x2="653" y1="316" y2="334" /><line stroke="rgb(10%,10%,16%)" x1="653" x2="644" y1="334" y2="340" /><line stroke="rgb(10%,10%,16%)" x1="644" x2="632" y1="340" y2="346" /><line stroke="rgb(10%,10%,16%)" x1="632" x2="611" y1="346" y2="352" /><line stroke="rgb(10%,10%,16%)" x1="611" x2="560" y1="352" y2="346" /><line stroke="rgb(10%,10%,16%)" x1="560" x2="548" y1="346" y2="340" /><line stroke="rgb(10%,10%,16%)" x1="548" x2="539" y1="340" y2="334" /><line stroke="rgb(10%,10%,16%)" x1="539" x2="521" y1="334" y2="317" /><line stroke="rgb(10%,10%,16%)" x1="521" x2="515" y1="317" y2="308" /><line stroke="rgb(10%,10%,16%)" x1="515" x2="509" y1="308" y2="297" /><line stroke="rgb(10%,10%,16%)" x1="509" x2="502" y1="297" y2="278" /><line stroke="rgb(10%,10%,16%)" x1="502" x2="496" y1="278" y2="300" /><line stroke="rgb(10%,10%,16%)" x1="496" x2="490" y1="300" y2="313" /><line stroke="rgb(10%,10%,16%)" x1="490" x2="484" y1="313" y2="322" /><line stroke="rgb(10%,10%,16%)" x1="484" x2="478" y1="322" y2="329" /><line stroke="rgb(10%,10%,16%)" x1="478" x2="467" y1="329" y2="340" /><line stroke="rgb(10%,10%,16%)" x1="467" x2="458" y1="340" y2="346" /><line stroke="rgb(10%,10%,16%)" x1="458" x2="442" y1="346" y2="352" /><line stroke="rgb(10%,10%,16%)" x1="442" x2="396" y1="352" y2="346" /><line stroke="rgb(10%,10%,16%)" x1="396" x2="387" y1="346" y2="340" /><line stroke="rgb(10%,10%,16%)" x1="387" x2="369" y1="340" y2="323" /><line stroke="rgb(10%,10%,16%)" x1="369" x2="362" y1="323" y2="313" /><line stroke="rgb(10%,10%,16%)" x1="362" x2="356" y1="313" y2="300" /><line stroke="rgb(10%,10%,16%)" x1="356" x2="350" y1="300" y2="279" /><line stroke="rgb(10%,10%,16%)" x1="350" x2="356" y1="279" y2="225" /><line stroke="rgb(10%,10%,16%)" x1="356" x2="362" y1="225" y2="212" /><line stroke="rgb(10%,10%,16%)" x1="362" x2="370" y1="212" y2="200" /><line stroke="rgb(10%,10%,16%)" x1="370" x2="385" y1="200" y2="184" /><line stroke="rgb(10%,10%,16%)" x1="385" x2="394" y1="184" y2="178" /><line stroke="rgb(10%,10%,16%)" x1="394" x2="211" y1="178" y2="185" /><line stroke="rgb(10%,10%,16%)" x1="211" x2="205" y1="185" y2="227" /><line stroke="rgb(10%,10%,16%)" x1="205" x2="186" y1="227" y2="250" /><line stroke="rgb(10%,10%,16%)" x1="186" x2="177" y1="250" y2="256" /><line stroke="rgb(10%,10%,16%)" x1="177" x2="160" y1="256" y2="262" /><line stroke="rgb(10%,10%,16%)" x1="160" x2="116" y1="262" y2="256" /><line stroke="rgb(10%,10%,16%)" x1="116" x2="107" y1="256" y2="250" /><line stroke="rgb(10%,10%,16%)" x1="107" x2="92" y1="250" y2="236" /><line stroke="rgb(10%,10%,16%)" x1="92" x2="86" y1="236" y2="227" /><line stroke="rgb(10%,10%,16%)" x1="86" x2="80" y1="227" y2="211" /><line stroke="rgb(10%,10%,16%)" x1="80" x2="86" y1="211" y2="166" /><line stroke="rgb(10%,10%,16%)" x1="86" x2="93" y1="166" y2="156" /><line stroke="rgb(10%,10%,16%)" x1="93" x2="105" y1="156" y2="143" /><line stroke="rgb(10%,10%,16%)" x1="105" x2="115" y1="143" y2="136" /><line stroke="rgb(10%,10%,16%)" x1="115" x2="131" y1="136" y2="130" /><line stroke="rgb(10%,10%,16%)" x1="131" x2="176" y1="130" y2="136" /><line stroke="rgb(10%,10%,16%)" x1="176" x2="186" y1="136" y2="143" /><line stroke="rgb(10%,10%,16%)" x1="186" x2="199" y1="143" y2="155" /><line stroke="rgb(10%,10%,16%)" x1="199" x2="205" y1="155" y2="164" /><line stroke="rgb(10%,10%,16%)" x1="205" x2="436" y1="164" y2="170" /><line stroke="rgb(10%,10%,16%)" x1="436" x2="430" y1="170" y2="150" /><line stroke="rgb(10%,10%,16%)" x1="430" x2="424" y1="150" y2="136" /><line stroke="rgb(10%,10%,16%)" x1="424" x2="430" y1="136" y2="68" /><line stroke="rgb(10%,10%,16%)" x1="430" x2="436" y1="68" y2="58" /><line stroke="rgb(10%,10%,16%)" x1="436" x2="456" y1="58" y2="36" /><line stroke="rgb(10%,10%,16%)" x1="456" x2="466" y1="36" y2="29" /><line stroke="rgb(10%,10%,16%)" x1="466" x2="479" y1="29" y2="23" /><line stroke="rgb(10%,10%,16%)" x1="479" x2="491" y1="23" y2="20" /><line stroke="rgb(10%,10%,16%)" x1="491" x2="497" y1="20" y2="19" /><line stroke="rgb(10%,10%,16%)" x1="497" x2="476" y1="19" y2="25" /><line stroke="rgb(10%,10%,16%)" x1="476" x2="462" y1="25" y2="32" /><line stroke="rgb(10%,10%,16%)" x1="462" x2="440" y1="32" y2="51" /><line stroke="rgb(10%,10%,16%)" x1="440" x2="433" y1="51" y2="61" /><line stroke="rgb(10%,10%,16%)" x1="433" x2="427" y1="61" y2="73" /><line stroke="rgb(10%,10%,16%)" x1="427" x2="421" y1="73" y2="95" /><line stroke="rgb(10%,10%,16%)" x1="421" x2="427" y1="95" y2="143" /><line stroke="rgb(10%,10%,16%)" x1="427" x2="433" y1="143" y2="155" /><line stroke="rgb(10%,10%,16%)" x1="433" x2="440" y1="155" y2="166" /><line stroke="rgb(10%,10%,16%)" x1="440" x2="202" y1="166" y2="160" /><line stroke="rgb(10%,10%,16%)" x1="202" x2="189" y1="160" y2="144" /><line stroke="rgb(10%,10%,16%)" x1="189" x2="179" y1="144" y2="137" /><line stroke="rgb(10%,10%,16%)" x1="179" x2="164" y1="137" y2="131" /><line stroke="rgb(10%,10%,16%)" x1="164" x2="114" y1="131" y2="137" /><line stroke="rgb(10%,10%,16%)" x1="114" x2="104" y1="137" y2="144" /><line stroke="rgb(10%,10%,16%)" x1="104" x2="94" y1="144" y2="153" /><line stroke="rgb(10%,10%,16%)" x1="94" x2="87" y1="153" y2="163" /><line stroke="rgb(10%,10%,16%)" x1="87" x2="81" y1="163" y2="178" /><line stroke="rgb(10%,10%,16%)" x1="81" x2="87" y1="178" y2="228" /><line stroke="rgb(10%,10%,16%)" x1="87" x2="93" y1="228" y2="237" /><line stroke="rgb(10%,10%,16%)" x1="93" x2="104" y1="237" y2="249" /><line stroke="rgb(10%,10%,16%)" x1="104" x2="113" y1="249" y2="255" /><line stroke="rgb(10%,10%,16%)" x1="113" x2="129" y1="255" y2="261" /><line stroke="rgb(10%,10%,16%)" x1="129" x2="178" y1="261" y2="255" /><line stroke="rgb(10%,10%,16%)" x1="178" x2="187" y1="255" y2="249" /><line stroke="rgb(10%,10%,16%)" x1="187" x2="199" y1="249" y2="238" /><line stroke="rgb(10%,10%,16%)" x1="199" x2="205" y1="238" y2="229" /><line stroke="rgb(10%,10%,16%)" x1="205" x2="211" y1="229" y2="213" /><line stroke="rgb(10%,10%,16%)" x1="211" x2="365" y1="213" y2="174" /><line stroke="rgb(10%,10%,16%)" x1="365" x2="391" y1="174" y2="180" /><line stroke="rgb(10%,10%,16%)" x1="391" x2="371" y1="180" y2="197" /><line stroke="rgb(10%,10%,16%)" x1="371" x2="365" y1="197" y2="206" /><line stroke="rgb(10%,10%,16%)" x1="365" x2="359" y1="206" y2="217" /><line stroke="rgb(10%,10%,16%)" x1="359" x2="353" y1="217" y2="231" /><line stroke="rgb(10%,10%,16%)" x1="353" x2="359" y1="231" y2="306" /><line stroke="rgb(10%,10%,16%)" x1="359" x2="365" y1="306" y2="317" /><line stroke="rgb(10%,10%,16%)" x1="365" x2="384" y1="317" y2="339" /><line stroke="rgb(10%,10%,16%)" x1="384" x2="393" y1="339" y2="345" /><line stroke="rgb(10%,10%,16%)" x1="393" x2="407" y1="345" y2="351" /><line stroke="rgb(10%,10%,16%)" x1="407" x2="459" y1="351" y2="345" /><line stroke="rgb(10%,10%,16%)" x1="459" x2="468" y1="345" y2="339" /><line stroke="rgb(10%,10%,16%)" x1="468" x2="475" y1="339" y2="333" /><line stroke="rgb(10%,10%,16%)" x1="475" x2="483" y1="333" y2="325" /><line stroke="rgb(10%,10%,16%)" x1="483" x2="489" y1="325" y2="316" /><line stroke="rgb(10%,10%,16%)" x1="489" x2="495" y1="316" y2="304" /><line stroke="rgb(10%,10%,16%)" x1="495" x2="501" y1="304" y2="285" /><line stroke="rgb(10%,10%,16%)" x1="501" x2="507" y1="285" y2="292" /><line stroke="rgb(10%,10%,16%)" x1="507" x2="513" y1="292" y2="304" /><line stroke="rgb(10%,10%,16%)" x1="513" x2="520" y1="304" y2="315" /><line stroke="rgb(10%,10%,16%)" x1="520" x2="536" y1="315" y2="333" /><line stroke="rgb(10%,10%,16%)" x1="536" x2="545" y1="333" y2="339" /><line stroke="rgb(10%,10%,16%)" x1="545" x2="556" y1="339" y2="345" /><line stroke="rgb(10%,10%,16%)" x1="556" x2="575" y1="345" y2="351" /><line stroke="rgb(10%,10%,16%)" x1="575" x2="633" y1="351" y2="345" /><line stroke="rgb(10%,10%,16%)" x1="633" x2="645" y1="345" y2="339" /><line stroke="rgb(10%,10%,16%)" x1="645" x2="654" y1="339" y2="333" /><line stroke="rgb(10%,10%,16%)" x1="654" x2="669" y1="333" y2="319" /><line stroke="rgb(10%,10%,16%)" x1="669" x2="675" y1="319" y2="311" /><line stroke="rgb(10%,10%,16%)" x1="675" x2="681" y1="311" y2="300" /><line stroke="rgb(10%,10%,16%)" x1="681" x2="687" y1="300" y2="282" /><line stroke="rgb(10%,10%,16%)" x1="687" x2="681" y1="282" y2="226" /><line stroke="rgb(10%,10%,16%)" x1="681" x2="674" y1="226" y2="213" /><line stroke="rgb(10%,10%,16%)" x1="674" x2="657" y1="213" y2="193" /><line stroke="rgb(10%,10%,16%)" x1="657" x2="647" y1="193" y2="186" /><line stroke="rgb(10%,10%,16%)" x1="647" x2="636" y1="186" y2="180" /><line stroke="rgb(10%,10%,16%)" x1="636" x2="619" y1="180" y2="174" /><line stroke="rgb(10%,10%,16%)" x1="619" x2="570" y1="174" y2="168" /><line stroke="rgb(10%,10%,16%)" x1="570" x2="576" y1="168" y2="159" /><line stroke="rgb(10%,10%,16%)" x1="576" x2="582" y1="159" y2="147" /><line stroke="rgb(10%,10%,16%)" x1="582" x2="588" y1="147" y2="128" /><line stroke="rgb(10%,10%,16%)" x1="588" x2="582" y1="128" y2="72" /><line stroke="rgb(10%,10%,16%)" x1="582" x2="575" y1="72" y2="59" /><line stroke="rgb(10%,10%,16%)" x1="575" x2="556" y1="59" y2="37" /><line stroke="rgb(10%,10%,16%)" x1="556" x2="546" y1="37" y2="30" /><line stroke="rgb(10%,10%,16%)" x1="546" x2="533" y1="30" y2="24" /><line stroke="rgb(10%,10%,16%)" x1="533" x2="513" y1="24" y2="19" /><line stroke="rgb(10%,10%,16%)" x1="513" x2="581" y1="19" y2="179" /><line stroke="rgb(10%,10%,16%)" x1="581" x2="581" y1="179" y2="179" /><line stroke="rgb(10%,10%,16%)" x1="581" x2="627" y1="179" y2="185" /><line stroke="rgb(10%,10%,16%)" x1="627" x2="639" y1="185" y2="191" /><line stroke="rgb(10%,10%,16%)" x1="639" x2="649" y1="191" y2="198" /><line stroke="rgb(10%,10%,16%)" x1="649" x2="662" y1="198" y2="210" /><line stroke="rgb(10%,10%,16%)" x1="662" x2="669" y1="210" y2="220" /><line stroke="rgb(10%,10%,16%)" x1="669" x2="675" y1="220" y2="231" /><line stroke="rgb(10%,10%,16%)" x1="675" x2="669" y1="231" y2="303" /><line stroke="rgb(10%,10%,16%)" x1="669" x2="662" y1="303" y2="313" /><line stroke="rgb(10%,10%,16%)" x1="662" x2="651" y1="313" y2="325" /><line stroke="rgb(10%,10%,16%)" x1="651" x2="643" y1="325" y2="331" /><line stroke="rgb(10%,10%,16%)" x1="643" x2="632" y1="331" y2="337" /><line stroke="rgb(10%,10%,16%)" x1="632" x2="613" y1="337" y2="343" /><line stroke="rgb(10%,10%,16%)" x1="613" x2="559" y1="343" y2="337" /><line stroke="rgb(10%,10%,16%)" x1="559" x2="546" y1="337" y2="330" /><line stroke="rgb(10%,10%,16%)" x1="546" x2="527" y1="330" y2="314" /><line stroke="rgb(10%,10%,16%)" x1="527" x2="521" y1="314" y2="306" /><line stroke="rgb(10%,10%,16%)" x1="521" x2="515" y1="306" y2="296" /><line stroke="rgb(10%,10%,16%)" x1="515" x2="509" y1="296" y2="279" /><line stroke="rgb(10%,10%,16%)" x1="509" x2="515" y1="279" y2="228" /><line stroke="rgb(10%,10%,16%)" x1="515" x2="521" y1="228" y2="218" /><line stroke="rgb(10%,10%,16%)" x1="521" x2="538" y1="218" y2="198" /><line stroke="rgb(10%,10%,16%)" x1="538" x2="546" y1="198" y2="192" /><line stroke="rgb(10%,10%,16%)" x1="546" x2="556" y1="192" y2="186" /><line stroke="rgb(10%,10%,16%)" x1="556" x2="573" y1="186" y2="180" /><line stroke="rgb(10%,10%,16%)" x1="573" x2="577" y1="180" y2="179" /><line stroke="rgb(10%,10%,16%)" x1="577" x2="582" y1="179" y2="178" /><line stroke="rgb(10%,10%,16%)" x1="582" x2="563" y1="178" y2="184" /><line stroke="rgb(10%,10%,16%)" x1="563" x2="550" y1="184" y2="190" /><line stroke="rgb(10%,10%,16%)" x1="550" x2="537" y1="190" y2="199" /><line stroke="rgb(10%,10%,16%)" x1="537" x2="527" y1="199" y2="208" /><line stroke="rgb(10%,10%,16%)" x1="527" x2="520" y1="208" y2="218" /><line stroke="rgb(10%,10%,16%)" x1="520" x2="514" y1="218" y2="229" /><line stroke="rgb(10%,10%,16%)" x1="514" x2="508" y1="229" y2="248" /><line stroke="rgb(10%,10%,16%)" x1="508" x2="514" y1="248" y2="292" /><line stroke="rgb(10%,10%,16%)" x1="514" x2="520" y1="292" y2="304" /><line stroke="rgb(10%,10%,16%)" x1="520" x2="528" y1="304" y2="315" /><line stroke="rgb(10%,10%,16%)" x1="528" x2="536" y1="315" y2="324" /><line stroke="rgb(10%,10%,16%)" x1="536" x2="546" y1="324" y2="331" /><line stroke="rgb(10%,10%,16%)" x1="546" x2="557" y1="331" y2="337" /><line stroke="rgb(10%,10%,16%)" x1="557" x2="576" y1="337" y2="343" /><line stroke="rgb(10%,10%,16%)" x1="576" x2="631" y1="343" y2="337" /><line stroke="rgb(10%,10%,16%)" x1="631" x2="642" y1="337" y2="331" /><line stroke="rgb(10%,10%,16%)" x1="642" x2="652" y1="331" y2="324" /><line stroke="rgb(10%,10%,16%)" x1="652" x2="661" y1="324" y2="316" /><line stroke="rgb(10%,10%,16%)" x1="661" x2="667" y1="316" y2="308" /><line stroke="rgb(10%,10%,16%)" x1="667" x2="673" y1="308" y2="297" /><line stroke="rgb(10%,10%,16%)" x1="673" x2="679" y1="297" y2="279" /><line stroke="rgb(10%,10%,16%)" x1="679" x2="673" y1="279" y2="228" /><line stroke="rgb(10%,10%,16%)" x1="673" x2="666" y1="228" y2="216" /><line stroke="rgb(10%,10%,16%)" x1="666" x2="652" y1="216" y2="199" /><line stroke="rgb(10%,10%,16%)" x1="652" x2="642" y1="199" y2="192" /><line stroke="rgb(10%,10%,16%)" x1="642" x2="631" y1="192" y2="186" /><line stroke="rgb(10%,10%,16%)" x1="631" x2="614" y1="186" y2="180" /><line stroke="rgb(10%,10%,16%)" x1="614" x2="603" y1="180" y2="178" /></g></svg>