<?xml version="1.0" encoding="utf-8" ?>
<svg baseProfile="full" height="541" version="1.1" width="773" xmlns="http://www.w3.org/2000/svg" xmlns:ev="http://www.w3.org/2001/xml-events" xmlns:xlink="http://www.w3.org/1999/xlink"><defs /><g fill="none" id="shapes"><line stroke="rgb(10%,10%,16%)" x1="772" x2="495" y1="540" y2="20" /><line stroke="rgb(10%,10%,16%)" x1="495" x2="542" y1="20" y2="28" /><line stroke="rgb(10%,10%,16%)" x1="542" x2="554" y1="28" y2="36" /><line stroke="rgb(10%,10%,16%)" x1="554" x2="571" y1="36" y2="52" /><line stroke="rgb(10%,10%,16%)" x1="571" x2="579" y1="52" y2="64" /><line stroke="rgb(10%,10%,16%)" x1="579" x2="587" y1="64" y2="84" /><line stroke="rgb(10%,10%,16%)" x1="587" x2="578" y1="84" y2="155" /><line stroke="rgb(10%,10%,16%)" x1="578" x2="561" y1="155" y2="177" /><line stroke="rgb(10%,10%,16%)" x1="561" x2="645" y1="177" y2="185" /><line stroke="rgb(10%,10%,16%)" x1="645" x2="670" y1="185" y2="206" /><line stroke="rgb(10%,10%,16%)" x1="670" x2="679" y1="206" y2="219" /><line stroke="rgb(10%,10%,16%)" x1="679" x2="687" y1="219" y2="239" /><line stroke="rgb(10%,10%,16%)" x1="687" x2="679" y1="239" y2="304" /><line stroke="rgb(10%,10%,16%)" x1="679" x2="670" y1="304" y2="317" /><line stroke="rgb(10%,10%,16%)" x1="670" x2="654" y1="317" y2="334" /><line stroke="rgb(10%,10%,16%)" x1="654" x2="642" y1="334" y2="342" /><line stroke="rgb(10%,10%,16%)" x1="642" x2="622" y1="342" y2="350" /><line stroke="rgb(10%,10%,16%)" x1="622" x2="550" y1="350" y2="342" /><line stroke="rgb(10%,10%,16%)" x1="550" x2="538" y1="342" y2="334" /><line stroke="rgb(10%,10%,16%)" x1="538" x2="521" y1="334" y2="318" /><line stroke="rgb(10%,10%,16%)" x1="521" x2="513" y1="318" y2="306" /><line stroke="rgb(10%,10%,16%)" x1="513" x2="505" y1="306" y2="287" /><line stroke="rgb(10%,10%,16%)" x1="505" x2="497" y1="287" y2="299" /><line stroke="rgb(10%,10%,16%)" x1="497" x2="489" y1="299" y2="316" /><line stroke="rgb(10%,10%,16%)" x1="489" x2="478" y1="316" y2="330" /><line stroke="rgb(10%,10%,16%)" x1="478" x2="468" y1="330" y2="340" /><line stroke="rgb(10%,10%,16%)" x1="468" x2="455" y1="340" y2="348" /><line stroke="rgb(10%,10%,16%)" x1="455" x2="386" y1="348" y2="340" /><line stroke="rgb(10%,10%,16%)" x1="386" x2="369" y1="340" y2="324" /><line stroke="rgb(10%,10%,16%)" x1="369" x2="361" y1="324" y2="312" /><line stroke="rgb(10%,10%,16%)" x1="361" x2="353" y1="312" y2="293" /><line stroke="rgb(10%,10%,16%)" x1="353" x2="361" y1="293" y2="213" /><line stroke="rgb(10%,10%,16%)" x1="361" x2="370" y1="213" y2="199" /><line stroke="rgb(10%,10%,16%)" x1="370" x2="384" y1="199" y2="184" /><line stroke="rgb(10%,10%,16%)" x1="384" x2="397" y1="184" y2="176" /><line stroke="rgb(10%,10%,16%)" x1="397" x2="212" y1="176" y2="186" /><line stroke="rgb(10%,10%,16%)" x1="212" x2="204" y1="186" y2="230" /><line stroke="rgb(10%,10%,16%)" x1="204" x2="187" y1="230" y2="250" /><line stroke="rgb(10%,10%,16%)" x1="187" x2="174" y1="250" y2="258" /><line stroke="rgb(10%,10%,16%)" x1="174" x2="106" y1="258" y2="250" /><line stroke="rgb(10%,10%,16%)" x1="106" x2="92" y1="250" y2="237" /><line stroke="rgb(10%,10%,16%)" x1="92" x2="84" y1="237" y2="224" /><line stroke="rgb(10%,10%,16%)" x1="84" x2="93" y1="224" y2="155" /><line stroke="rgb(10%,10%,16%)" x1="93" x2="104" y1="155" y2="143" /><line stroke="rgb(10%,10%,16%)" x1="104" x2="116" y1="143" y2="135" /><line stroke="rgb(10%,10%,16%)" x1="116" x2="187" y1="135" y2="143" /><line stroke="rgb(10%,10%,16%)" x1="187" x2="199" y1="143" y2="154" /><line stroke="rgb(10%,10%,16%)" x1="199" x2="207" y1="154" y2="166" /><line stroke="rgb(10%,10%,16%)" x1="207" x2="433" y1="166" y2="157" /><line stroke="rgb(10%,10%,16%)" x1="433" x2="425" y1="157" y2="140" /><line stroke="rgb(10%,10%,16%)" x1="425" x2="434" y1="140" y2="60" /><line stroke="rgb(10%,10%,16%)" x1="434" x2="455" y1="60" y2="36" /><line stroke="rgb(10%,10%,16%)" x1="455" x2="467" y1="36" y2="28" /><line stroke="rgb(10%,10%,16%)" x1="467" x2="490" y1="28" y2="20" /><line stroke="rgb(10%,10%,16%)" x1="490" x2="481" y1="20" y2="196" /><line stroke="rgb(10%,10%,16%)" x1="481" x2="490" y1="196" y2="209" /><line stroke="rgb(10%,10%,16%)" x1="490" x2="498" y1="209" y2="226" /><line stroke="rgb(10%,10%,16%)" x1="498" x2="506" y1="226" y2="238" /><line stroke="rgb(10%,10%,16%)" x1="506" x2="515" y1="238" y2="217" /><line stroke="rgb(10%,10%,16%)" x1="515" x2="532" y1="217" y2="196" /><line stroke="rgb(10%,10%,16%)" x1="532" x2="581" y1="196" y2="179" /><line stroke="rgb(10%,10%,16%)" x1="581" x2="557" y1="179" y2="187" /><line stroke="rgb(10%,10%,16%)" x1="557" x2="543" y1="187" y2="195" /><line stroke="rgb(10%,10%,16%)" x1="543" x2="527" y1="195" y2="209" /><line stroke="rgb(10%,10%,16%)" x1="527" x2="518" y1="209" y2="222" /><line stroke="rgb(10%,10%,16%)" x1="518" x2="510" y1="222" y2="243" /><line stroke="rgb(10%,10%,16%)" x1="510" x2="518" y1="243" y2="300" /><line stroke="rgb(10%,10%,16%)" x1="518" x2="528" y1="300" y2="314" /><line stroke="rgb(10%,10%,16%)" x1="528" x2="537" y1="314" y2="324" /><line stroke="rgb(10%,10%,16%)" x1="537" x2="549" y1="324" y2="332" /><line stroke="rgb(10%,10%,16%)" x1="549" x2="566" y1="332" y2="340" /><line stroke="rgb(10%,10%,16%)" x1="566" x2="641" y1="340" y2="331" /><line stroke="rgb(10%,10%,16%)" x1="641" x2="661" y1="331" y2="315" /><line stroke="rgb(10%,10%,16%)" x1="661" x2="670" y1="315" y2="302" /><line stroke="rgb(10%,10%,16%)" x1="670" x2="678" y1="302" y2="282" /><line stroke="rgb(10%,10%,16%)" x1="678" x2="670" y1="282" y2="223" /><line stroke="rgb(10%,10%,16%)" x1="670" x2="661" y1="223" y2="210" /><line stroke="rgb(10%,10%,16%)" x1="661" x2="651" y1="210" y2="199" /><line stroke="rgb(10%,10%,16%)" x1="651" x2="639" y1="199" y2="191" /><line stroke="rgb(10%,10%,16%)" x1="639" x2="621" y1="191" y2="183" /><line stroke="rgb(10%,10%,16%)" x1="621" x2="138" y1="183" y2="138" /><line stroke="rgb(10%,10%,16%)" x1="138" x2="115" y1="138" y2="147" /><line stroke="rgb(10%,10%,16%)" x1="115" x2="102" y1="147" y2="157" /><line stroke="rgb(10%,10%,16%)" x1="102" x2="94" y1="157" y2="169" /><line stroke="rgb(10%,10%,16%)" x1="94" x2="108" y1="169" y2="241" /><line stroke="rgb(10%,10%,16%)" x1="108" x2="121" y1="241" y2="249" /><line stroke="rgb(10%,10%,16%)" x1="121" x2="183" y1="249" y2="241" /><line stroke="rgb(10%,10%,16%)" x1="183" x2="191" y1="241" y2="233" /><line stroke="rgb(10%,10%,16%)" x1="191" x2="199" y1="233" y2="222" /><line stroke="rgb(10%,10%,16%)" x1="199" x2="183" y1="222" y2="150" /><line stroke="rgb(10%,10%,16%)" x1="183" x2="169" y1="150" y2="142" /></g></svg>