<?xml version="1.0" encoding="utf-8" ?>
<svg baseProfile="full" height="541" version="1.1" width="773" xmlns="http://www.w3.org/2000/svg" xmlns:ev="http://www.w3.org/2001/xml-events" xmlns:xlink="http://www.w3.org/1999/xlink"><defs /><g fill="none" id="shapes"><line stroke="rgb(10%,10%,16%)" x1="0" x2="495" y1="541" y2="20" /><line stroke="rgb(10%,10%,16%)" x1="495" x2="538" y1="20" y2="26" /><line stroke="rgb(10%,10%,16%)" x1="538" x2="550" y1="26" y2="33" /><line stroke="rgb(10%,10%,16%)" x1="550" x2="571" y1="33" y2="52" /><line stroke="rgb(10%,10%,16%)" x1="571" x2="578" y1="52" y2="62" /><line stroke="rgb(10%,10%,16%)" x1="578" x2="584" y1="62" y2="74" /><line stroke="rgb(10%,10%,16%)" x1="584" x2="590" y1="74" y2="99" /><line stroke="rgb(10%,10%,16%)" x1="590" x2="584" y1="99" y2="142" /><line stroke="rgb(10%,10%,16%)" x1="584" x2="578" y1="142" y2="155" /><line stroke="rgb(10%,10%,16%)" x1="578" x2="571" y1="155" y2="166" /><line stroke="rgb(10%,10%,16%)" x1="571" x2="561" y1="166" y2="177" /><line stroke="rgb(10%,10%,16%)" x1="561" x2="589" y1="177" y2="171" /><line stroke="rgb(10%,10%,16%)" x1="589" x2="628" y1="171" y2="177" /><line stroke="rgb(10%,10%,16%)" x1="628" x2="643" y1="177" y2="184" /><line stroke="rgb(10%,10%,16%)" x1="643" x2="655" y1="184" y2="192" /><line stroke="rgb(10%,10%,16%)" x1="655" x2="670" y1="192" y2="206" /><line stroke="rgb(10%,10%,16%)" x1="670" x2="677" y1="206" y2="216" /><line stroke="rgb(10%,10%,16%)" x1="677" x2="683" y1="216" y2="228" /><line stroke="rgb(10%,10%,16%)" x1="683" x2="689" y1="228" y2="248" /><line stroke="rgb(10%,10%,16%)" x1="689" x2="683" y1="248" y2="295" /><line stroke="rgb(10%,10%,16%)" x1="683" x2="677" y1="295" y2="307" /><line stroke="rgb(10%,10%,16%)" x1="677" x2="670" y1="307" y2="317" /><line stroke="rgb(10%,10%,16%)" x1="670" x2="654" y1="317" y2="334" /><line stroke="rgb(10%,10%,16%)" x1="654" x2="645" y1="334" y2="340" /><line stroke="rgb(10%,10%,16%)" x1="645" x2="634" y1="340" y2="346" /><line stroke="rgb(10%,10%,16%)" x1="634" x2="615" y1="346" y2="352" /><line stroke="rgb(10%,10%,16%)" x1="615" x2="559" y1="352" y2="346" /><line stroke="rgb(10%,10%,16%)" x1="559" x2="547" y1="346" y2="340" /><line stroke="rgb(10%,10%,16%)" x1="547" x2="538" y1="340" y2="334" /><line stroke="rgb(10%,10%,16%)" x1="538" x2="521" y1="334" y2="318" /><line stroke="rgb(10%,10%,16%)" x1="521" x2="515" y1="318" y2="309" /><line stroke="rgb(10%,10%,16%)" x1="515" x2="509" y1="309" y2="298" /><line stroke="rgb(10%,10%,16%)" x1="509" x2="503" y1="298" y2="278" /><line stroke="rgb(10%,10%,16%)" x1="503" x2="497" y1="278" y2="299" /><line stroke="rgb(10%,10%,16%)" x1="497" x2="491" y1="299" y2="312" /><line stroke="rgb(10%,10%,16%)" x1="491" x2="484" y1="312" y2="323" /><line stroke="rgb(10%,10%,16%)" x1="484" x2="478" y1="323" y2="330" /><line stroke="rgb(10%,10%,16%)" x1="478" x2="468" y1="330" y2="340" /><line stroke="rgb(10%,10%,16%)" x1="468" x2="459" y1="340" y2="346" /><line stroke="rgb(10%,10%,16%)" x1="459" x2="445" y1="346" y2="352" /><line stroke="rgb(10%,10%,16%)" x1="445" x2="395" y1="352" y2="346" /><line stroke="rgb(10%,10%,16%)" x1="395" x2="386" y1="346" y2="340" /><line stroke="rgb(10%,10%,16%)" x1="386" x2="369" y1="340" y2="324" /><line stroke="rgb(10%,10%,16%)" x1="369" x2="362" y1="324" y2="314" /><line stroke="rgb(10%,10%,16%)" x1="362" x2="356" y1="314" y2="301" /><line stroke="rgb(10%,10%,16%)" x1="356" x2="350" y1="301" y2="280" /><line stroke="rgb(10%,10%,16%)" x1="350" x2="356" y1="280" y2="224" /><line stroke="rgb(10%,10%,16%)" x1="356" x2="362" y1="224" y2="211" /><line stroke="rgb(10%,10%,16%)" x1="362" x2="370" y1="211" y2="199" /><line stroke="rgb(10%,10%,16%)" x1="370" x2="384" y1="199" y2="184" /><line stroke="rgb(10%,10%,16%)" x1="384" x2="393" y1="184" y2="178" /><line stroke="rgb(10%,10%,16%)" x1="393" x2="212" y1="178" y2="186" /><line stroke="rgb(10%,10%,16%)" x1="212" x2="206" y1="186" y2="226" /><line stroke="rgb(10%,10%,16%)" x1="206" x2="200" y1="226" y2="236" /><line stroke="rgb(10%,10%,16%)" x1="200" x2="187" y1="236" y2="250" /><line stroke="rgb(10%,10%,16%)" x1="187" x2="178" y1="250" y2="256" /><line stroke="rgb(10%,10%,16%)" x1="178" x2="162" y1="256" y2="262" /><line stroke="rgb(10%,10%,16%)" x1="162" x2="115" y1="262" y2="256" /><line stroke="rgb(10%,10%,16%)" x1="115" x2="106" y1="256" y2="250" /><line stroke="rgb(10%,10%,16%)" x1="106" x2="92" y1="250" y2="237" /><line stroke="rgb(10%,10%,16%)" x1="92" x2="86" y1="237" y2="228" /><line stroke="rgb(10%,10%,16%)" x1="86" x2="80" y1="228" y2="212" /><line stroke="rgb(10%,10%,16%)" x1="80" x2="86" y1="212" y2="165" /><line stroke="rgb(10%,10%,16%)" x1="86" x2="93" y1="165" y2="155" /><line stroke="rgb(10%,10%,16%)" x1="93" x2="104" y1="155" y2="143" /><line stroke="rgb(10%,10%,16%)" x1="104" x2="114" y1="143" y2="136" /><line stroke="rgb(10%,10%,16%)" x1="114" x2="130" y1="136" y2="130" /><line stroke="rgb(10%,10%,16%)" x1="130" x2="177" y1="130" y2="136" /><line stroke="rgb(10%,10%,16%)" x1="177" x2="187" y1="136" y2="143" /><line stroke="rgb(10%,10%,16%)" x1="187" x2="199" y1="143" y2="154" /><line stroke="rgb(10%,10%,16%)" x1="199" x2="205" y1="154" y2="163" /><line stroke="rgb(10%,10%,16%)" x1="205" x2="428" y1="163" y2="169" /><line stroke="rgb(10%,10%,16%)" x1="428" x2="437" y1="169" y2="163" /><line stroke="rgb(10%,10%,16%)" x1="437" x2="431" y1="163" y2="153" /><line stroke="rgb(10%,10%,16%)" x1="431" x2="425" y1="153" y2="140" /><line stroke="rgb(10%,10%,16%)" x1="425" x2="431" y1="140" y2="65" /><line stroke="rgb(10%,10%,16%)" x1="431" x2="439" y1="65" y2="53" /><line stroke="rgb(10%,10%,16%)" x1="439" x2="455" y1="53" y2="36" /><line stroke="rgb(10%,10%,16%)" x1="455" x2="465" y1="36" y2="29" /><line stroke="rgb(10%,10%,16%)" x1="465" x2="478" y1="29" y2="23" /><line stroke="rgb(10%,10%,16%)" x1="478" x2="490" y1="23" y2="20" /><line stroke="rgb(10%,10%,16%)" x1="490" x2="138" y1="20" y2="138" /><line stroke="rgb(10%,10%,16%)" x1="138" x2="138" y1="138" y2="138" /><line stroke="rgb(10%,10%,16%)" x1="138" x2="120" y1="138" y2="144" /><line stroke="rgb(10%,10%,16%)" x1="120" x2="108" y1="144" y2="152" /><line stroke="rgb(10%,10%,16%)" x1="108" x2="102" y1="152" y2="158" /><line stroke="rgb(10%,10%,16%)" x1="102" x2="95" y1="158" y2="167" /><line stroke="rgb(10%,10%,16%)" x1="95" x2="89" y1="167" y2="182" /><line stroke="rgb(10%,10%,16%)" x1="89" x2="95" y1="182" y2="224" /><line stroke="rgb(10%,10%,16%)" x1="95" x2="101" y1="224" y2="233" /><line stroke="rgb(10%,10%,16%)" x1="101" x2="108" y1="233" y2="241" /><line stroke="rgb(10%,10%,16%)" x1="108" x2="117" y1="241" y2="247" /><line stroke="rgb(10%,10%,16%)" x1="117" x2="132" y1="247" y2="253" /><line stroke="rgb(10%,10%,16%)" x1="132" x2="174" y1="253" y2="247" /><line stroke="rgb(10%,10%,16%)" x1="174" x2="183" y1="247" y2="241" /><line stroke="rgb(10%,10%,16%)" x1="183" x2="191" y1="241" y2="234" /><line stroke="rgb(10%,10%,16%)" x1="191" x2="198" y1="234" y2="224" /><line stroke="rgb(10%,10%,16%)" x1="198" x2="204" y1="224" y2="207" /><line stroke="rgb(10%,10%,16%)" x1="204" x2="198" y1="207" y2="169" /><line stroke="rgb(10%,10%,16%)" x1="198" x2="192" y1="169" y2="160" /><line stroke="rgb(10%,10%,16%)" x1="192" x2="183" y1="160" y2="150" /><line stroke="rgb(10%,10%,16%)" x1="183" x2="174" y1="150" y2="144" /><line stroke="rgb(10%,10%,16%)" x1="174" x2="154" y1="144" y2="138" /><line stroke="rgb(10%,10%,16%)" x1="154" x2="154" y1="138" y2="138" /><line stroke="rgb(10%,10%,16%)" x1="154" x2="581" y1="138" y2="179" /><line stroke="rgb(10%,10%,16%)" x1="581" x2="581" y1="179" y2="179" /><line stroke="rgb(10%,10%,16%)" x1="581" x2="562" y1="179" y2="185" /><line stroke="rgb(10%,10%,16%)" x1="562" x2="549" y1="185" y2="191" /><line stroke="rgb(10%,10%,16%)" x1="549" x2="538" y1="191" y2="199" /><line stroke="rgb(10%,10%,16%)" x1="538" x2="527" y1="199" y2="209" /><line stroke="rgb(10%,10%,16%)" x1="527" x2="520" y1="209" y2="219" /><line stroke="rgb(10%,10%,16%)" x1="520" x2="514" y1="219" y2="231" /><line stroke="rgb(10%,10%,16%)" x1="514" x2="508" y1="231" y2="253" /><line stroke="rgb(10%,10%,16%)" x1="508" x2="514" y1="253" y2="291" /><line stroke="rgb(10%,10%,16%)" x1="514" x2="520" y1="291" y2="303" /><line stroke="rgb(10%,10%,16%)" x1="520" x2="528" y1="303" y2="314" /><line stroke="rgb(10%,10%,16%)" x1="528" x2="537" y1="314" y2="324" /><line stroke="rgb(10%,10%,16%)" x1="537" x2="547" y1="324" y2="331" /><line stroke="rgb(10%,10%,16%)" x1="547" x2="558" y1="331" y2="337" /><line stroke="rgb(10%,10%,16%)" x1="558" x2="577" y1="337" y2="343" /><line stroke="rgb(10%,10%,16%)" x1="577" x2="630" y1="343" y2="337" /><line stroke="rgb(10%,10%,16%)" x1="630" x2="641" y1="337" y2="331" /><line stroke="rgb(10%,10%,16%)" x1="641" x2="651" y1="331" y2="324" /><line stroke="rgb(10%,10%,16%)" x1="651" x2="661" y1="324" y2="315" /><line stroke="rgb(10%,10%,16%)" x1="661" x2="667" y1="315" y2="307" /><line stroke="rgb(10%,10%,16%)" x1="667" x2="673" y1="307" y2="296" /><line stroke="rgb(10%,10%,16%)" x1="673" x2="679" y1="296" y2="278" /><line stroke="rgb(10%,10%,16%)" x1="679" x2="673" y1="278" y2="229" /><line stroke="rgb(10%,10%,16%)" x1="673" x2="666" y1="229" y2="217" /><line stroke="rgb(10%,10%,16%)" x1="666" x2="651" y1="217" y2="199" /><line stroke="rgb(10%,10%,16%)" x1="651" x2="641" y1="199" y2="192" /><line stroke="rgb(10%,10%,16%)" x1="641" x2="629" y1="192" y2="186" /><line stroke="rgb(10%,10%,16%)" x1="629" x2="611" y1="186" y2="180" /><line stroke="rgb(10%,10%,16%)" x1="611" x2="604" y1="180" y2="179" /><line stroke="rgb(10%,10%,16%)" x1="604" x2="481" y1="179" y2="196" /><line stroke="rgb(10%,10%,16%)" x1="481" x2="481" y1="196" y2="196" /><line stroke="rgb(10%,10%,16%)" x1="481" x2="487" y1="196" y2="205" /><line stroke="rgb(10%,10%,16%)" x1="487" x2="493" y1="205" y2="215" /><line stroke="rgb(10%,10%,16%)" x1="493" x2="499" y1="215" y2="229" /><line stroke="rgb(10%,10%,16%)" x1="499" x2="505" y1="229" y2="241" /><line stroke="rgb(10%,10%,16%)" x1="505" x2="511" y1="241" y2="224" /><line stroke="rgb(10%,10%,16%)" x1="511" x2="517" y1="224" y2="214" /><line stroke="rgb(10%,10%,16%)" x1="517" x2="532" y1="214" y2="196" /><line stroke="rgb(10%,10%,16%)" x1="532" x2="485" y1="196" y2="196" /></g></svg>