<?xml version="1.0" encoding="utf-8" ?>
<svg baseProfile="full" height="246" version="1.1" width="246" xmlns="http://www.w3.org/2000/svg" xmlns:ev="http://www.w3.org/2001/xml-events" xmlns:xlink="http://www.w3.org/1999/xlink"><defs /><g fill="none" id="shapes"><line stroke="rgb(10%,10%,16%)" x1="0" x2="176" y1="246" y2="0" /><line stroke="rgb(10%,10%,16%)" x1="176" x2="182" y1="0" y2="17" /><line stroke="rgb(10%,10%,16%)" x1="182" x2="168" y1="17" y2="29" /><line stroke="rgb(10%,10%,16%)" x1="168" x2="194" y1="29" y2="36" /><line stroke="rgb(10%,10%,16%)" x1="194" x2="218" y1="36" y2="46" /><line stroke="rgb(10%,10%,16%)" x1="218" x2="245" y1="46" y2="39" /><line stroke="rgb(10%,10%,16%)" x1="245" x2="232" y1="39" y2="12" /><line stroke="rgb(10%,10%,16%)" x1="232" x2="209" y1="12" y2="4" /><line stroke="rgb(10%,10%,16%)" x1="209" x2="185" y1="4" y2="0" /><line stroke="rgb(10%,10%,16%)" x1="185" x2="144" y1="0" y2="48" /><line stroke="rgb(10%,10%,16%)" x1="144" x2="61" y1="48" y2="57" /><line stroke="rgb(10%,10%,16%)" x1="61" x2="50" y1="57" y2="75" /><line stroke="rgb(10%,10%,16%)" x1="50" x2="61" y1="75" y2="172" /><line stroke="rgb(10%,10%,16%)" x1="61" x2="75" y1="172" y2="185" /><line stroke="rgb(10%,10%,16%)" x1="75" x2="158" y1="185" y2="191" /><line stroke="rgb(10%,10%,16%)" x1="158" x2="179" y1="191" y2="181" /><line stroke="rgb(10%,10%,16%)" x1="179" x2="185" y1="181" y2="163" /><line stroke="rgb(10%,10%,16%)" x1="185" x2="164" y1="163" y2="50" /><line stroke="rgb(10%,10%,16%)" x1="164" x2="153" y1="50" y2="48" /><line stroke="rgb(10%,10%,16%)" x1="153" x2="123" y1="48" y2="91" /><line stroke="rgb(10%,10%,16%)" x1="123" x2="135" y1="91" y2="99" /><line stroke="rgb(10%,10%,16%)" x1="135" x2="147" y1="99" y2="114" /><line stroke="rgb(10%,10%,16%)" x1="147" x2="135" y1="114" y2="149" /><line stroke="rgb(10%,10%,16%)" x1="135" x2="90" y1="149" y2="143" /><line stroke="rgb(10%,10%,16%)" x1="90" x2="99" y1="143" y2="131" /><line stroke="rgb(10%,10%,16%)" x1="99" x2="87" y1="131" y2="110" /><line stroke="rgb(10%,10%,16%)" x1="87" x2="99" y1="110" y2="98" /><line stroke="rgb(10%,10%,16%)" x1="99" x2="120" y1="98" y2="91" /><line stroke="rgb(10%,10%,16%)" x1="120" x2="3" y1="91" y2="140" /><line stroke="rgb(10%,10%,16%)" x1="3" x2="60" y1="140" y2="243" /><line stroke="rgb(10%,10%,16%)" x1="60" x2="48" y1="243" y2="230" /><line stroke="rgb(10%,10%,16%)" x1="48" x2="42" y1="230" y2="197" /><line stroke="rgb(10%,10%,16%)" x1="42" x2="33" y1="197" y2="181" /><line stroke="rgb(10%,10%,16%)" x1="33" x2="26" y1="181" y2="172" /><line stroke="rgb(10%,10%,16%)" x1="26" x2="15" y1="172" y2="157" /><line stroke="rgb(10%,10%,16%)" x1="15" x2="1" y1="157" y2="150" /><line stroke="rgb(10%,10%,16%)" x1="1" x2="9" y1="150" y2="142" /><line stroke="rgb(10%,10%,16%)" x1="9" x2="5" y1="142" y2="140" /><line stroke="rgb(10%,10%,16%)" x1="5" x2="243" y1="140" y2="150" /><line stroke="rgb(10%,10%,16%)" x1="243" x2="236" y1="150" y2="180" /><line stroke="rgb(10%,10%,16%)" x1="236" x2="228" y1="180" y2="209" /><line stroke="rgb(10%,10%,16%)" x1="228" x2="217" y1="209" y2="220" /><line stroke="rgb(10%,10%,16%)" x1="217" x2="207" y1="220" y2="229" /><line stroke="rgb(10%,10%,16%)" x1="207" x2="197" y1="229" y2="237" /><line stroke="rgb(10%,10%,16%)" x1="197" x2="245" y1="237" y2="150" /><line stroke="rgb(10%,10%,16%)" x1="245" x2="245" y1="150" y2="150" /></g></svg>