<?xml version="1.0" encoding="utf-8" ?>
<svg baseProfile="full" height="466" version="1.1" width="537" xmlns="http://www.w3.org/2000/svg" xmlns:ev="http://www.w3.org/2001/xml-events" xmlns:xlink="http://www.w3.org/1999/xlink"><defs /><g fill="none" id="shapes"><line stroke="rgb(10%,10%,16%)" x1="463" x2="326" y1="452" y2="460" /><line stroke="rgb(10%,10%,16%)" x1="326" x2="508" y1="460" y2="452" /><line stroke="rgb(10%,10%,16%)" x1="508" x2="304" y1="452" y2="402" /><line stroke="rgb(10%,10%,16%)" x1="304" x2="194" y1="402" y2="412" /><line stroke="rgb(10%,10%,16%)" x1="194" x2="186" y1="412" y2="446" /><line stroke="rgb(10%,10%,16%)" x1="186" x2="321" y1="446" y2="438" /><line stroke="rgb(10%,10%,16%)" x1="321" x2="331" y1="438" y2="404" /><line stroke="rgb(10%,10%,16%)" x1="331" x2="255" y1="404" y2="443" /><line stroke="rgb(10%,10%,16%)" x1="255" x2="462" y1="443" y2="372" /><line stroke="rgb(10%,10%,16%)" x1="462" x2="473" y1="372" y2="396" /><line stroke="rgb(10%,10%,16%)" x1="473" x2="481" y1="396" y2="384" /><line stroke="rgb(10%,10%,16%)" x1="481" x2="207" y1="384" y2="358" /><line stroke="rgb(10%,10%,16%)" x1="207" x2="195" y1="358" y2="366" /><line stroke="rgb(10%,10%,16%)" x1="195" x2="212" y1="366" y2="358" /><line stroke="rgb(10%,10%,16%)" x1="212" x2="479" y1="358" y2="342" /><line stroke="rgb(10%,10%,16%)" x1="479" x2="463" y1="342" y2="367" /><line stroke="rgb(10%,10%,16%)" x1="463" x2="487" y1="367" y2="359" /><line stroke="rgb(10%,10%,16%)" x1="487" x2="495" y1="359" y2="347" /><line stroke="rgb(10%,10%,16%)" x1="495" x2="507" y1="347" y2="355" /><line stroke="rgb(10%,10%,16%)" x1="507" x2="520" y1="355" y2="364" /><line stroke="rgb(10%,10%,16%)" x1="520" x2="497" y1="364" y2="401" /><line stroke="rgb(10%,10%,16%)" x1="497" x2="405" y1="401" y2="409" /><line stroke="rgb(10%,10%,16%)" x1="405" x2="389" y1="409" y2="427" /><line stroke="rgb(10%,10%,16%)" x1="389" x2="376" y1="427" y2="435" /><line stroke="rgb(10%,10%,16%)" x1="376" x2="363" y1="435" y2="443" /><line stroke="rgb(10%,10%,16%)" x1="363" x2="536" y1="443" y2="342" /><line stroke="rgb(10%,10%,16%)" x1="536" x2="306" y1="342" y2="108" /><line stroke="rgb(10%,10%,16%)" x1="306" x2="316" y1="108" y2="119" /><line stroke="rgb(10%,10%,16%)" x1="316" x2="346" y1="119" y2="111" /><line stroke="rgb(10%,10%,16%)" x1="346" x2="371" y1="111" y2="47" /><line stroke="rgb(10%,10%,16%)" x1="371" x2="363" y1="47" y2="55" /><line stroke="rgb(10%,10%,16%)" x1="363" x2="373" y1="55" y2="86" /><line stroke="rgb(10%,10%,16%)" x1="373" x2="398" y1="86" y2="78" /><line stroke="rgb(10%,10%,16%)" x1="398" x2="390" y1="78" y2="57" /><line stroke="rgb(10%,10%,16%)" x1="390" x2="382" y1="57" y2="49" /><line stroke="rgb(10%,10%,16%)" x1="382" x2="254" y1="49" y2="15" /><line stroke="rgb(10%,10%,16%)" x1="254" x2="218" y1="15" y2="23" /><line stroke="rgb(10%,10%,16%)" x1="218" x2="199" y1="23" y2="31" /><line stroke="rgb(10%,10%,16%)" x1="199" x2="185" y1="31" y2="40" /><line stroke="rgb(10%,10%,16%)" x1="185" x2="174" y1="40" y2="49" /><line stroke="rgb(10%,10%,16%)" x1="174" x2="166" y1="49" y2="59" /><line stroke="rgb(10%,10%,16%)" x1="166" x2="158" y1="59" y2="71" /><line stroke="rgb(10%,10%,16%)" x1="158" x2="150" y1="71" y2="87" /><line stroke="rgb(10%,10%,16%)" x1="150" x2="142" y1="87" y2="110" /><line stroke="rgb(10%,10%,16%)" x1="142" x2="151" y1="110" y2="285" /><line stroke="rgb(10%,10%,16%)" x1="151" x2="159" y1="285" y2="294" /><line stroke="rgb(10%,10%,16%)" x1="159" x2="195" y1="294" y2="277" /><line stroke="rgb(10%,10%,16%)" x1="195" x2="214" y1="277" y2="285" /><line stroke="rgb(10%,10%,16%)" x1="214" x2="206" y1="285" y2="324" /><line stroke="rgb(10%,10%,16%)" x1="206" x2="108" y1="324" y2="333" /><line stroke="rgb(10%,10%,16%)" x1="108" x2="91" y1="333" y2="349" /><line stroke="rgb(10%,10%,16%)" x1="91" x2="130" y1="349" y2="341" /><line stroke="rgb(10%,10%,16%)" x1="130" x2="138" y1="341" y2="331" /><line stroke="rgb(10%,10%,16%)" x1="138" x2="158" y1="331" y2="339" /><line stroke="rgb(10%,10%,16%)" x1="158" x2="169" y1="339" y2="351" /><line stroke="rgb(10%,10%,16%)" x1="169" x2="178" y1="351" y2="343" /><line stroke="rgb(10%,10%,16%)" x1="178" x2="189" y1="343" y2="331" /><line stroke="rgb(10%,10%,16%)" x1="189" x2="207" y1="331" y2="340" /><line stroke="rgb(10%,10%,16%)" x1="207" x2="222" y1="340" y2="350" /><line stroke="rgb(10%,10%,16%)" x1="222" x2="231" y1="350" y2="330" /><line stroke="rgb(10%,10%,16%)" x1="231" x2="254" y1="330" y2="343" /><line stroke="rgb(10%,10%,16%)" x1="254" x2="320" y1="343" y2="335" /><line stroke="rgb(10%,10%,16%)" x1="320" x2="330" y1="335" y2="327" /><line stroke="rgb(10%,10%,16%)" x1="330" x2="355" y1="327" y2="342" /><line stroke="rgb(10%,10%,16%)" x1="355" x2="363" y1="342" y2="328" /><line stroke="rgb(10%,10%,16%)" x1="363" x2="398" y1="328" y2="337" /><line stroke="rgb(10%,10%,16%)" x1="398" x2="409" y1="337" y2="345" /><line stroke="rgb(10%,10%,16%)" x1="409" x2="430" y1="345" y2="337" /><line stroke="rgb(10%,10%,16%)" x1="430" x2="418" y1="337" y2="328" /><line stroke="rgb(10%,10%,16%)" x1="418" x2="407" y1="328" y2="320" /><line stroke="rgb(10%,10%,16%)" x1="407" x2="323" y1="320" y2="310" /><line stroke="rgb(10%,10%,16%)" x1="323" x2="315" y1="310" y2="294" /><line stroke="rgb(10%,10%,16%)" x1="315" x2="325" y1="294" y2="270" /><line stroke="rgb(10%,10%,16%)" x1="325" x2="371" y1="270" y2="262" /><line stroke="rgb(10%,10%,16%)" x1="371" x2="379" y1="262" y2="245" /><line stroke="rgb(10%,10%,16%)" x1="379" x2="387" y1="245" y2="207" /><line stroke="rgb(10%,10%,16%)" x1="387" x2="378" y1="207" y2="129" /><line stroke="rgb(10%,10%,16%)" x1="378" x2="341" y1="129" y2="137" /><line stroke="rgb(10%,10%,16%)" x1="341" x2="292" y1="137" y2="128" /><line stroke="rgb(10%,10%,16%)" x1="292" x2="303" y1="128" y2="102" /><line stroke="rgb(10%,10%,16%)" x1="303" x2="320" y1="102" y2="93" /><line stroke="rgb(10%,10%,16%)" x1="320" x2="333" y1="93" y2="43" /><line stroke="rgb(10%,10%,16%)" x1="333" x2="325" y1="43" y2="29" /><line stroke="rgb(10%,10%,16%)" x1="325" x2="308" y1="29" y2="21" /><line stroke="rgb(10%,10%,16%)" x1="308" x2="210" y1="21" y2="42" /><line stroke="rgb(10%,10%,16%)" x1="210" x2="241" y1="42" y2="50" /><line stroke="rgb(10%,10%,16%)" x1="241" x2="220" y1="50" y2="58" /><line stroke="rgb(10%,10%,16%)" x1="220" x2="228" y1="58" y2="93" /><line stroke="rgb(10%,10%,16%)" x1="228" x2="258" y1="93" y2="78" /><line stroke="rgb(10%,10%,16%)" x1="258" x2="245" y1="78" y2="128" /><line stroke="rgb(10%,10%,16%)" x1="245" x2="229" y1="128" y2="136" /><line stroke="rgb(10%,10%,16%)" x1="229" x2="186" y1="136" y2="128" /><line stroke="rgb(10%,10%,16%)" x1="186" x2="174" y1="128" y2="117" /><line stroke="rgb(10%,10%,16%)" x1="174" x2="166" y1="117" y2="101" /><line stroke="rgb(10%,10%,16%)" x1="166" x2="176" y1="101" y2="62" /><line stroke="rgb(10%,10%,16%)" x1="176" x2="186" y1="62" y2="51" /><line stroke="rgb(10%,10%,16%)" x1="186" x2="202" y1="51" y2="43" /><line stroke="rgb(10%,10%,16%)" x1="202" x2="421" y1="43" y2="0" /><line stroke="rgb(10%,10%,16%)" x1="421" x2="413" y1="0" y2="38" /><line stroke="rgb(10%,10%,16%)" x1="413" x2="405" y1="38" y2="82" /><line stroke="rgb(10%,10%,16%)" x1="405" x2="413" y1="82" y2="118" /><line stroke="rgb(10%,10%,16%)" x1="413" x2="436" y1="118" y2="314" /><line stroke="rgb(10%,10%,16%)" x1="436" x2="454" y1="314" y2="322" /><line stroke="rgb(10%,10%,16%)" x1="454" x2="469" y1="322" y2="331" /><line stroke="rgb(10%,10%,16%)" x1="469" x2="533" y1="331" y2="304" /><line stroke="rgb(10%,10%,16%)" x1="533" x2="0" y1="304" y2="0" /><line stroke="rgb(10%,10%,16%)" x1="0" x2="30" y1="0" y2="343" /><line stroke="rgb(10%,10%,16%)" x1="30" x2="0" y1="343" y2="447" /><line stroke="rgb(10%,10%,16%)" x1="0" x2="323" y1="447" y2="465" /><line stroke="rgb(10%,10%,16%)" x1="323" x2="269" y1="465" y2="454" /><line stroke="rgb(10%,10%,16%)" x1="269" x2="156" y1="454" y2="446" /><line stroke="rgb(10%,10%,16%)" x1="156" x2="146" y1="446" y2="436" /><line stroke="rgb(10%,10%,16%)" x1="146" x2="110" y1="436" y2="427" /><line stroke="rgb(10%,10%,16%)" x1="110" x2="99" y1="427" y2="417" /><line stroke="rgb(10%,10%,16%)" x1="99" x2="24" y1="417" y2="405" /><line stroke="rgb(10%,10%,16%)" x1="24" x2="12" y1="405" y2="396" /><line stroke="rgb(10%,10%,16%)" x1="12" x2="20" y1="396" y2="367" /><line stroke="rgb(10%,10%,16%)" x1="20" x2="32" y1="367" y2="357" /><line stroke="rgb(10%,10%,16%)" x1="32" x2="43" y1="357" y2="348" /><line stroke="rgb(10%,10%,16%)" x1="43" x2="55" y1="348" y2="339" /><line stroke="rgb(10%,10%,16%)" x1="55" x2="66" y1="339" y2="331" /><line stroke="rgb(10%,10%,16%)" x1="66" x2="79" y1="331" y2="321" /><line stroke="rgb(10%,10%,16%)" x1="79" x2="87" y1="321" y2="240" /><line stroke="rgb(10%,10%,16%)" x1="87" x2="95" y1="240" y2="147" /><line stroke="rgb(10%,10%,16%)" x1="95" x2="103" y1="147" y2="112" /><line stroke="rgb(10%,10%,16%)" x1="103" x2="111" y1="112" y2="91" /><line stroke="rgb(10%,10%,16%)" x1="111" x2="120" y1="91" y2="74" /><line stroke="rgb(10%,10%,16%)" x1="120" x2="129" y1="74" y2="60" /><line stroke="rgb(10%,10%,16%)" x1="129" x2="137" y1="60" y2="47" /><line stroke="rgb(10%,10%,16%)" x1="137" x2="149" y1="47" y2="39" /><line stroke="rgb(10%,10%,16%)" x1="149" x2="160" y1="39" y2="31" /><line stroke="rgb(10%,10%,16%)" x1="160" x2="175" y1="31" y2="23" /><line stroke="rgb(10%,10%,16%)" x1="175" x2="195" y1="23" y2="15" /><line stroke="rgb(10%,10%,16%)" x1="195" x2="226" y1="15" y2="7" /><line stroke="rgb(10%,10%,16%)" x1="226" x2="306" y1="7" y2="15" /><line stroke="rgb(10%,10%,16%)" x1="306" x2="323" y1="15" y2="23" /><line stroke="rgb(10%,10%,16%)" x1="323" x2="336" y1="23" y2="31" /><line stroke="rgb(10%,10%,16%)" x1="336" x2="374" y1="31" y2="39" /><line stroke="rgb(10%,10%,16%)" x1="374" x2="394" y1="39" y2="54" /><line stroke="rgb(10%,10%,16%)" x1="394" x2="402" y1="54" y2="71" /><line stroke="rgb(10%,10%,16%)" x1="402" x2="410" y1="71" y2="24" /><line stroke="rgb(10%,10%,16%)" x1="410" x2="143" y1="24" y2="0" /></g></svg>